<svg width="126" height="100" viewBox="0 0 126 100" fill="none" xmlns="http://www.w3.org/2000/svg">
<g clip-path="url(#clip0_2588_29726)">
<path fill-rule="evenodd" clip-rule="evenodd" d="M26.0573 0.211914C18.899 0.211914 13.6023 6.4545 13.8393 13.2246C14.0669 19.7289 13.7713 28.1526 11.6428 35.0223C9.50797 41.9121 5.89743 46.2765 0 46.8369V53.1632C5.89743 53.7236 9.50797 58.088 11.6428 64.9778C13.7713 71.8475 14.0669 80.2712 13.8393 86.7755C13.6023 93.5445 18.899 99.7882 26.0584 99.7882H99.4068C106.565 99.7882 111.861 93.5456 111.624 86.7755C111.396 80.2712 111.692 71.8475 113.82 64.9778C115.956 58.088 119.557 53.7236 125.455 53.1632V46.8369C119.557 46.2765 115.956 41.9121 113.82 35.0223C111.692 28.1537 111.396 19.7289 111.624 13.2246C111.861 6.45556 106.565 0.211914 99.4068 0.211914H26.0563H26.0573ZM85.0539 61.5075C85.0539 70.8295 78.0753 76.4831 66.4941 76.4831H46.7797C46.2157 76.4831 45.6749 76.2599 45.2761 75.8626C44.8773 75.4652 44.6533 74.9264 44.6533 74.3645V25.6356C44.6533 25.0737 44.8773 24.5349 45.2761 24.1375C45.6749 23.7402 46.2157 23.517 46.7797 23.517H66.3814C76.0382 23.517 82.3758 28.7289 82.3758 36.731C82.3758 42.3475 78.1125 47.3761 72.6807 48.2564V48.5498C80.0751 49.3581 85.0539 54.4598 85.0539 61.5075ZM64.3444 30.2331H53.1034V46.053H62.571C69.8899 46.053 73.9257 43.1166 73.9257 37.8676C73.9257 32.9492 70.4555 30.2331 64.3444 30.2331ZM53.1034 52.3306V69.7649H64.7579C72.3777 69.7649 76.4146 66.7183 76.4146 60.9926C76.4146 55.2659 72.265 52.3295 64.2678 52.3295L53.1034 52.3306Z" fill="white"/>
</g>
<defs>
<clipPath id="clip0_2588_29726">
<rect width="125.455" height="100" fill="white"/>
</clipPath>
</defs>
</svg>
