<svg width="100" height="100" viewBox="0 0 100 100" fill="none" xmlns="http://www.w3.org/2000/svg">
    <g clip-path="url(#clip0_1583_15697)">
        <path
            d="M62.2354 10.3625V29.1827L83.3844 83.5014C83.3844 83.5014 89.8409 96.7675 71.3745 100H29.2469C29.2469 100 12.035 98.204 16.1613 84.5756L38.3866 29.1834V10.3625H62.2354Z"
            fill="#009688" />
        <path
            d="M62.6818 8.1743H37.3117C35.2568 8.1743 33.5854 6.34635 33.5854 4.08787C33.5854 1.82795 35.2561 0 37.3117 0H62.6818C64.7461 0 66.4146 1.82795 66.4146 4.08787C66.4146 6.34635 64.7454 8.1743 62.6818 8.1743Z"
            fill="#004D40" />
        <path
            d="M55.989 41.0918C58.7114 41.0918 60.9315 43.7518 60.9315 47.046C60.9315 50.3258 58.7099 52.9923 55.989 52.9923C53.2602 52.9923 51.0466 50.3258 51.0466 47.046C51.0466 43.7504 53.2602 41.0918 55.989 41.0918Z"
            fill="white" />
        <path
            d="M40.8168 56.538C43.1177 56.538 44.9829 54.2898 44.9829 51.5165C44.9829 48.7433 43.1177 46.4951 40.8168 46.4951C38.5159 46.4951 36.6506 48.7433 36.6506 51.5165C36.6506 54.2898 38.5159 56.538 40.8168 56.538Z"
            fill="white" />
        <path
            d="M64.1162 27.9353V18.9841C64.1162 18.9841 75.4673 16.4813 81.1403 29.6843C81.1403 29.6836 72.2992 36.1256 64.1162 27.9353Z"
            fill="#004D40" />
        <path
            d="M36.3144 27.9353V18.9841C36.3144 18.9841 24.9619 16.4813 19.2917 29.6843C19.2917 29.6836 28.1242 36.1256 36.3144 27.9353Z"
            fill="#004D40" />
        <path
            d="M70.941 64.9783C52.4825 59.2524 36.9638 62.3262 29.3788 64.65L21.7299 83.0606C18.2864 94.0515 32.665 95.496 32.665 95.496H67.8505C83.2735 92.8904 77.8831 82.1981 77.8831 82.1981L70.941 64.9783Z"
            fill="white" />
        <path
            d="M44.3395 71.8191C44.3395 73.8043 41.6715 75.4191 38.3852 75.4191C35.099 75.4191 32.439 73.8036 32.439 71.8191C32.439 69.8259 35.099 68.2168 38.3852 68.2168C41.6729 68.2182 44.3395 69.8259 44.3395 71.8191Z"
            fill="#004D40" />
        <path
            d="M65.5138 71.8191C65.5138 73.8043 62.8458 75.4191 59.5675 75.4191C56.2718 75.4191 53.6133 73.8036 53.6133 71.8191C53.6133 69.8259 56.2718 68.2168 59.5675 68.2168C62.8472 68.2182 65.5138 69.8259 65.5138 71.8191Z"
            fill="#004D40" />
    </g>
    <defs>
        <clipPath id="clip0_1583_15697">
            <rect width="100" height="100" fill="white" />
        </clipPath>
    </defs>
</svg>