<svg width="100" height="100" viewBox="0 0 100 100" fill="none" xmlns="http://www.w3.org/2000/svg">
<path d="M14.5833 0C9.9809 0 6.25 3.7309 6.25 8.33333V91.6667C6.25 96.2691 9.9809 100 14.5833 100H85.4167C90.0191 100 93.75 96.2691 93.75 91.6667V18.75L75 0H14.5833Z" fill="white"/>
<rect x="18.7495" y="35.4166" width="18.75" height="10.4167" rx="4.40991" fill="#CA90FF"/>
<rect x="41.667" y="35.4166" width="39.5833" height="10.4167" rx="4.40991" fill="#CA90FF"/>
<rect x="18.7495" y="54.1667" width="18.75" height="10.4167" rx="4.40991" fill="#CA90FF"/>
<rect x="41.667" y="54.1667" width="39.5833" height="10.4167" rx="4.40991" fill="#CA90FF"/>
<rect x="18.7495" y="72.9167" width="18.75" height="10.4167" rx="4.40991" fill="#CA90FF"/>
<rect x="41.667" y="72.9167" width="39.5833" height="10.4167" rx="4.40991" fill="#CA90FF"/>
<path d="M74.9995 0V10.4167C74.9995 15.019 78.7305 18.75 83.3328 18.75H93.7495L74.9995 0Z" fill="#8A37D7"/>
</svg>
