<svg width="118" height="72" viewBox="0 0 118 72" fill="none" xmlns="http://www.w3.org/2000/svg">
<path fill-rule="evenodd" clip-rule="evenodd" d="M59 0C43.2667 0 33.4333 7.85455 29.5 23.5636C35.4 15.7091 42.2833 12.7636 50.15 14.7273C54.6384 15.8465 57.8462 19.0996 61.3971 22.6975C67.1813 28.56 73.8767 35.3455 88.5 35.3455C104.233 35.3455 114.067 27.4909 118 11.7818C112.1 19.6364 105.217 22.5818 97.35 20.6182C92.8616 19.4989 89.6538 16.2458 86.1029 12.648C80.3187 6.78545 73.6233 0 59 0ZM29.5 35.3455C13.7667 35.3455 3.93333 43.2 0 58.9091C5.9 51.0545 12.7833 48.1091 20.65 50.0727C25.1384 51.1942 28.3462 54.4451 31.8971 58.0429C37.6813 63.9055 44.3767 70.6909 59 70.6909C74.7333 70.6909 84.5667 62.8364 88.5 47.1273C82.6 54.9818 75.7167 57.9273 67.85 55.9636C63.3616 54.8444 60.1538 51.5913 56.6029 47.9935C50.8187 42.1309 44.1233 35.3455 29.5 35.3455Z" fill="white"/>
</svg>
