<?xml version="1.0" encoding="UTF-8"?>
<svg width="48px" height="48px" viewBox="0 0 48 48" version="1.1" xmlns="http://www.w3.org/2000/svg" xmlns:xlink="http://www.w3.org/1999/xlink">
    <!-- Generator: Sketch 48.1 (47250) - http://www.bohemiancoding.com/sketch -->
    <title>illustration/branch</title>
    <desc>Created with Sketch.</desc>
    <defs></defs>
    <g id="Symbols" stroke="none" stroke-width="1" fill="none" fill-rule="evenodd">
        <g id="illustration/branch">
            <rect id="Rectangle-46" fill="#69BD45" opacity="0.699999988" x="2" y="5" width="16" height="16" rx="4"></rect>
            <rect id="Rectangle-46-Copy-2" fill="#1EA7FD" opacity="0.699999988" x="2" y="27" width="16" height="16" rx="4"></rect>
            <rect id="Rectangle-46-Copy-3" fill="#37D5D3" opacity="0.699999988" x="32" y="16" width="16" height="16" rx="4"></rect>
            <path d="M18,13 L19.0040816,13 C21.8067119,13 23.0517596,14.5322926 24.7795882,18.4032768 C24.8881714,18.6468849 24.9506485,18.7870912 24.9956461,18.8877288 C26.3887989,22.003531 27.2463526,23 28.8608657,23 L32,23 L32,26 L28.8608657,26 C27.2463526,26 26.3887989,26.996469 24.9956461,30.1122712 C24.9506485,30.2129088 24.8881714,30.3531151 24.7795882,30.5967232 C23.0517596,34.4677074 21.8067119,36 19.0040816,36 L18,36 L18,33 L19.0040816,33 C20.1187928,33 20.7906854,32.1730951 22.0400983,29.3739415 C22.1475377,29.1328975 22.2110109,28.990456 22.2569428,28.8877288 C23.1478208,26.89527 23.959021,25.4563942 24.9233929,24.5 C23.959021,23.5436058 23.1478208,22.10473 22.2569428,20.1122712 C22.2110109,20.009544 22.1475377,19.8671025 22.0400983,19.6260585 C20.7906854,16.8269049 20.1187928,16 19.0040816,16 L18,16 L18,13 Z" id="Combined-Shape" fill="#66BF3C" fill-rule="nonzero" opacity="0.200000003"></path>
        </g>
    </g>
</svg>