<?xml version="1.0" encoding="UTF-8"?>
<svg width="48px" height="48px" viewBox="0 0 48 48" version="1.1" xmlns="http://www.w3.org/2000/svg" xmlns:xlink="http://www.w3.org/1999/xlink">
    <!-- Generator: Sketch 50.2 (55047) - http://www.bohemiancoding.com/sketch -->
    <title>illustration/bug</title>
    <desc>Created with Sketch.</desc>
    <defs></defs>
    <g id="illustration/bug" stroke="none" stroke-width="1" fill="none" fill-rule="evenodd">
        <path d="M12,15.9509342 C14.5501992,13.0769796 17.8108654,11.1946487 21.1630785,10.5218819 L21.1630785,6.34553628 C21.1630785,5.05013236 22.2132109,4 23.5086148,4 C24.8040187,4 25.8541511,5.05013236 25.8541511,6.34553628 L25.8541511,10.3925684 C27.3441311,10.6198909 28.7939483,11.1140767 30.1467804,11.8951347 C31.3343087,12.5807545 32.3677688,13.4416183 33.2396642,14.4376742 L36.5549047,12.5236193 C37.6767574,11.8759173 39.1112649,12.2602924 39.7589668,13.3821451 C40.4066688,14.5039978 40.0222937,15.9385053 38.900441,16.5862073 L35.6410274,18.4680306 C36.9178095,21.8207503 36.9871722,25.7960462 35.7077452,29.6386073 L12,15.9509342 Z M15.6316634,41.4792249 L23.298467,28.1999314 L33.4385768,34.0543265 C29.2682211,40.5936573 21.820292,43.6011468 15.6316634,41.4792249 Z M11.5690753,39.1336886 C6.63712268,34.8351399 5.51772052,26.8812994 9.09576929,20 L19.235879,25.8543951 L11.5690753,39.1336886 Z" id="Combined-Shape" fill="#FD8460"></path>
    </g>
</svg>