<svg xmlns="http://www.w3.org/2000/svg" xmlns:xlink="http://www.w3.org/1999/xlink" width="48" height="48" version="1.1" viewBox="0 0 48 48"><title>illustration/delete</title><desc>Created with Sketch.</desc><g id="Symbols" fill="none" fill-rule="evenodd" stroke="none" stroke-width="1"><g id="illustration/delete"><circle id="Oval-4" cx="24" cy="24" r="24" fill="#FA7240"/><path id="Fill-1" fill="#FFF" d="M35.7254127,34.3996141 L25.3257949,24.0000381 L35.7254127,13.6003684 C36.0915525,13.2342752 36.0915057,12.6406981 35.725319,12.274605 C35.3592729,11.908465 34.7657429,11.908465 34.39965,12.274605 L24.0000322,22.6742279 L13.6003676,12.274605 C13.2342746,11.908465 12.6406978,11.908465 12.2746049,12.274605 C11.908465,12.6406981 11.908465,13.2342284 12.2746049,13.6003684 L22.6743164,24.0000381 L12.2746049,34.3997547 C11.908465,34.7658009 11.9085119,35.3593312 12.2746049,35.7253774 C12.6406509,36.0914705 13.2342746,36.0915174 13.6003676,35.7253774 L24.0000322,25.3257546 L34.3997906,35.7253774 C34.7657898,36.0915643 35.3593198,36.0915174 35.7254127,35.7253774 C36.0915057,35.3593312 36.0915525,34.7657541 35.7254127,34.3996141"/></g></g></svg>