<svg xmlns="http://www.w3.org/2000/svg" xmlns:xlink="http://www.w3.org/1999/xlink" id="Layer_1" width="48" height="44" x="0" y="0" enable-background="new 0 0 48 44" version="1.1" viewBox="0 0 48 44" xml:space="preserve"><ellipse id="a_1_" cx="36.98" cy="33.346" fill="#37D5D3" rx="11.02" ry="10.48"/><ellipse id="c_1_" cx="23.788" cy="10.48" fill="#FD8460" rx="10.808" ry="10.48"/><ellipse id="e_1_" cx="10.808" cy="33.346" fill="#79C9FC" rx="10.808" ry="10.48"/><g opacity=".7"><path fill="#FFF" d="M10.808,35.189c-3.601,0-6.651,2.309-7.707,5.498c1.961,1.936,4.688,3.139,7.707,3.139 s5.746-1.203,7.707-3.139C17.459,37.498,14.41,35.189,10.808,35.189z"/><ellipse cx="23.788" cy="7.682" fill="#FFF" rx="3.378" ry="3.315"/><path fill="#FFF" d="M36.98,35.189c-3.672,0-6.78,2.309-7.856,5.498c1.999,1.936,4.779,3.139,7.856,3.139 c3.078,0,5.859-1.203,7.858-3.14C43.762,37.498,40.653,35.189,36.98,35.189z"/><ellipse cx="10.808" cy="30.548" fill="#FFF" rx="3.378" ry="3.315"/><ellipse cx="36.981" cy="30.548" fill="#FFF" rx="3.443" ry="3.315"/><path fill="#FFF" d="M23.788,20.96c3.02,0,5.746-1.203,7.707-3.139c-1.056-3.189-4.104-5.497-7.707-5.497 c-3.601,0-6.65,2.308-7.707,5.498C18.042,19.757,20.769,20.96,23.788,20.96z"/></g></svg>