<?xml version="1.0" encoding="UTF-8"?>
<svg width="48px" height="48px" viewBox="0 0 48 48" version="1.1" xmlns="http://www.w3.org/2000/svg" xmlns:xlink="http://www.w3.org/1999/xlink">
    <!-- Generator: Sketch 48.1 (47250) - http://www.bohemiancoding.com/sketch -->
    <title>illustration/ignore</title>
    <desc>Created with Sketch.</desc>
    <defs></defs>
    <g id="Symbols" stroke="none" stroke-width="1" fill="none" fill-rule="evenodd">
        <g id="illustration/ignore">
            <rect id="Rectangle-2" fill="#FEFAD2" x="11" y="11" width="37" height="37" rx="2"></rect>
            <path d="M13,13 L13,46 L46,46 L46,13 L13,13 Z M13,11 L46,11 C47.1045695,11 48,11.8954305 48,13 L48,46 C48,47.1045695 47.1045695,48 46,48 L13,48 C11.8954305,48 11,47.1045695 11,46 L11,13 C11,11.8954305 11.8954305,11 13,11 Z" id="Rectangle-2-Copy" fill-opacity="0.1" fill="#F8E71C" fill-rule="nonzero"></path>
            <path d="M31.5214954,11 L34.7624592,11 L11,34.5362487 L11,31.3261378 L31.5214954,11 Z M18.5576399,11 L21.7986038,11 L11,21.6958048 L11,18.4856938 L18.5576399,11 Z M48,20.359253 L48,23.569364 L23.3345574,48 L20.0935936,48 L48,20.359253 Z M44.4853508,11 L46,11 C46.4814791,11 46.9232205,11.1701378 47.268383,11.4535723 L11.309857,47.0697854 C11.1136266,46.760411 11,46.393475 11,46 L11,44.1665817 L44.4853508,11 Z M48,33.199697 L48,36.409808 L36.2984128,48 L33.057449,48 L48,33.199697 Z" id="Combined-Shape" fill-opacity="0.1" fill="#F81C1C"></path>
            <circle id="Oval" fill="#FFAE00" cx="12.75" cy="12" r="12"></circle>
            <path d="M8.41904297,13.6693305 C7.63230469,13.0316897 7.03766602,12.3841438 6.71088867,11.999796 C7.03842773,11.6147227 7.63415039,10.9661165 8.41907227,10.3299266 C9.0928418,9.78380392 9.77481445,9.35241356 10.4460645,9.04772547 C11.235293,8.68949374 12.0104297,8.50785276 12.75,8.50785276 C13.2987598,8.50785276 13.8671484,8.60810408 14.4463184,8.80612344 L15.3469629,7.94836506 C14.5442578,7.61025056 13.6700684,7.39177916 12.75,7.39177916 C8.74447266,7.39177916 5.6062207,11.524237 5.47435547,11.6999349 L5.25,11.9997402 L5.47435547,12.2992106 C5.54733398,12.3966438 6.54172852,13.7059935 8.09405273,14.8558841 L8.9296582,14.0600678 C8.75912109,13.9372439 8.58881836,13.8069424 8.41904297,13.6693305 Z M20.0256445,11.6999349 C19.952666,11.6027249 18.9583887,10.2936821 17.4063574,9.14381941 L16.570752,9.93960779 C16.741084,10.062348 16.9111816,10.1924822 17.080752,10.3299266 C17.8659375,10.9662839 18.4615723,11.6147785 18.7891113,11.999796 C18.4623633,12.384088 17.8677832,13.0315223 17.0807812,13.6693305 C16.4069531,14.2153974 15.7249512,14.6467877 15.0537012,14.9514758 C14.2645605,15.3096797 13.4894531,15.4912927 12.75,15.4912927 C12.201416,15.4912927 11.6332617,15.3911251 11.0542969,15.193329 L10.1535937,16.0511432 C10.956123,16.3890624 11.8301074,16.6073664 12.75,16.6073664 C16.755,16.6073664 19.8937793,12.4752433 20.0256445,12.2992106 L20.25,11.9997402 L20.0256445,11.6999349 Z M15.3867187,12.000075 C15.3867187,11.7196336 15.3384082,11.4499344 15.2493457,11.1980924 L11.9078906,14.380381 C12.1723242,14.4652026 12.4555078,14.5112406 12.75,14.5112406 C14.2062305,14.5112406 15.3867187,13.386936 15.3867187,12.000075 Z M10.1132812,12.000075 C10.1132812,12.2805164 10.1615918,12.5501877 10.2506543,12.8020018 L13.5919922,9.6197411 C13.3275879,9.5349474 13.0444336,9.48893727 12.75,9.48893727 C11.2937695,9.48893727 10.1132812,10.6132698 10.1132812,12.000075 Z M6.3590918,18.0865545 C6.1302832,17.8686411 6.13025391,17.5153201 6.3590918,17.2974626 L18.3122168,5.91345596 C18.5411133,5.69551468 18.912041,5.69551468 19.1408789,5.91345596 C19.3696875,6.13136933 19.3697168,6.48471823 19.1409082,6.70268741 L7.18775391,18.0865545 C6.95891602,18.3044958 6.58790039,18.3044679 6.3590918,18.0865545 Z" id="Fill-1" fill="#FFFFFF"></path>
        </g>
    </g>
</svg>