<svg xmlns="http://www.w3.org/2000/svg" xmlns:xlink="http://www.w3.org/1999/xlink" width="48" height="48" version="1.1" viewBox="0 0 48 48"><title>illustration/key</title><desc>Created with Sketch.</desc><g id="illustration/key" fill="none" fill-rule="evenodd" stroke="none" stroke-width="1"><path id="shaft" fill="#FFC445" d="M4.17832864,38.2638416 L20.4421702,22 L25.005032,26.530263 L8.505032,43.9533155 C6.93392715,45.5244204 7.630032,44.2248465 4.4498596,44.2248465 L4.17832864,43.9533155 C2.60722379,42.3822107 2.60722379,39.8349464 4.17832864,38.2638416 Z"/><path id="teeth" fill="#FFD476" d="M11.994243,39.9942219 L12.9274009,44.4403727 C12.9985381,44.7793787 12.7793998,44.998517 12.4403938,44.9273799 L6.29767869,43.6381471 C6.1994716,43.6175453 6.1248292,43.5796319 6.07485463,43.5296573 C5.95229135,43.407094 5.97804851,43.2120511 6.16831208,43.0217875 L23.0218086,26.168291 C23.212058,25.9780416 23.407126,25.9523096 23.5296784,26.0748336 C23.5796671,26.1247939 23.617568,26.1994238 23.6381682,26.2976576 L24.9274009,32.4403727 C24.9985381,32.7793787 24.7793998,32.998517 24.4403938,32.9273799 L19.994243,31.9942219 L20.9274009,36.4403727 C20.9985381,36.7793787 20.7793998,36.998517 20.4403938,36.9273799 L15.994243,35.9942219 L16.9274009,40.4403727 C16.9985381,40.7793787 16.7793998,40.998517 16.4403938,40.9273799 L11.994243,39.9942219 Z"/><path id="Combined-Shape" fill="#FFC445" d="M31.5,31 C24.0441559,31 18,24.9558441 18,17.5 C18,10.0441559 24.0441559,4 31.5,4 C38.9558441,4 45,10.0441559 45,17.5 C45,24.9558441 38.9558441,31 31.5,31 Z M33.5,19 C35.9852814,19 38,16.9852814 38,14.5 C38,12.0147186 35.9852814,10 33.5,10 C31.0147186,10 29,12.0147186 29,14.5 C29,16.9852814 31.0147186,19 33.5,19 Z"/></g></svg>