<?xml version="1.0" encoding="UTF-8"?>
<svg width="48px" height="48px" viewBox="0 0 48 48" version="1.1" xmlns="http://www.w3.org/2000/svg" xmlns:xlink="http://www.w3.org/1999/xlink">
    <!-- Generator: Sketch 48.1 (47250) - http://www.bohemiancoding.com/sketch -->
    <title>illustration/lightning</title>
    <desc>Created with Sketch.</desc>
    <defs></defs>
    <g id="Symbols" stroke="none" stroke-width="1" fill="none" fill-rule="evenodd">
        <g id="illustration/lightning">
            <path d="M26.5797276,26.1432241 L11.3167243,26.1432241 C10.7644395,26.1432241 10.3167243,25.6955088 10.3167243,25.1432241 C10.3167243,24.9668506 10.3633719,24.7936145 10.4519353,24.6410886 L25.7149387,-1.64519494 C25.9922605,-2.12280469 26.6042534,-2.28517016 27.0818631,-2.00784837 C27.3900602,-1.82889524 27.5797276,-1.49944356 27.5797276,-1.14305943 L27.5797276,25.1432241 C27.5797276,25.6955088 27.1320124,26.1432241 26.5797276,26.1432241 Z" id="Combined-Shape" fill="#FFD476" transform="translate(18.948226, 12.000000) rotate(20.000000) translate(-18.948226, -12.000000) "></path>
            <path d="M21.3167243,21.8567759 L36.5797276,21.8567759 C37.1320124,21.8567759 37.5797276,22.3044912 37.5797276,22.8567759 C37.5797276,23.0331494 37.53308,23.2063855 37.4445166,23.3589114 L22.1815132,49.6451949 C21.9041914,50.1228047 21.2921985,50.2851702 20.8145888,50.0078484 C20.5063917,49.8288952 20.3167243,49.4994436 20.3167243,49.1430594 L20.3167243,22.8567759 C20.3167243,22.3044912 20.7644395,21.8567759 21.3167243,21.8567759 Z" id="Combined-Shape-Copy" fill="#FFC445" transform="translate(28.948226, 36.000000) rotate(20.000000) translate(-28.948226, -36.000000) "></path>
        </g>
    </g>
</svg>