<svg xmlns="http://www.w3.org/2000/svg" xmlns:xlink="http://www.w3.org/1999/xlink" width="48" height="48" version="1.1" viewBox="0 0 48 48"><title>illustration/pixel</title><desc>Created with Sketch.</desc><g id="Symbols" fill="none" fill-opacity=".9" fill-rule="evenodd" stroke="none" stroke-width="1"><g id="illustration/pixel" fill="#37D5D3"><path id="Combined-Shape" d="M8,4 L24,4 L24,24 L4,24 L4,8 C4,5.790861 5.790861,4 8,4 Z" opacity=".2"/><path id="Combined-Shape-Copy-15" d="M28,4 L44,4 L44,24 L24,24 L24,8 C24,5.790861 25.790861,4 28,4 Z" opacity=".4" transform="translate(34.000000, 14.000000) scale(-1, 1) translate(-34.000000, -14.000000)"/><path id="Combined-Shape-Copy-13" d="M8,24 L24,24 L24,44 L4,44 L4,28 C4,25.790861 5.790861,24 8,24 Z" opacity=".6" transform="translate(14.000000, 34.000000) rotate(-90.000000) translate(-14.000000, -34.000000)"/><path id="Combined-Shape-Copy-16" d="M28,24 L44,24 L44,44 L24,44 L24,28 C24,25.790861 25.790861,24 28,24 Z" opacity=".3" transform="translate(34.000000, 34.000000) scale(-1, 1) rotate(-90.000000) translate(-34.000000, -34.000000)"/></g></g></svg>