<svg xmlns="http://www.w3.org/2000/svg" xmlns:xlink="http://www.w3.org/1999/xlink" width="48" height="48" version="1.1" viewBox="0 0 48 48"><title>illustration/rewind</title><desc>Created with Sketch.</desc><g id="Symbols" fill="none" fill-rule="evenodd" stroke="none" stroke-width="1"><g id="illustration/rewind" fill="#FD8460"><path id="Mask" d="M43.8709194,22.5715186 L21.2679915,8.33536344 C20.9065793,8.10764961 20.5643375,7.99991673 20.2603602,8.00000005 C19.5150048,8.00008337 19,8.64773049 19,9.76380319 L19,38.2361969 C19,39.3523529 19.514852,40 20.2603602,40 C20.5643375,40 20.9066557,39.8922671 21.2679915,39.6646366 L43.8709194,25.4284814 C45.1182957,24.6427729 45.1182957,23.3572271 43.8709194,22.5715186" transform="translate(31.903226, 24.000000) rotate(-180.000000) translate(-31.903226, -24.000000)"/><path id="Mask-Copy-2" d="M25.8709194,22.5715186 L3.26799151,8.33536344 C2.90657929,8.10764961 2.5643375,7.99991673 2.26036019,8.00000005 C1.51500477,8.00008337 1,8.64773049 1,9.76380319 L1,38.2361969 C1,39.3523529 1.51485202,40 2.26036019,40 C2.5643375,40 2.90665567,39.8922671 3.26799151,39.6646366 L25.8709194,25.4284814 C27.1182957,24.6427729 27.1182957,23.3572271 25.8709194,22.5715186" opacity=".6" transform="translate(13.903226, 24.000000) rotate(-180.000000) translate(-13.903226, -24.000000)"/></g></g></svg>