<svg xmlns="http://www.w3.org/2000/svg" xmlns:xlink="http://www.w3.org/1999/xlink" width="48" height="48" version="1.1" viewBox="0 0 48 48"><title>illustration/runtest</title><desc>Created with Sketch.</desc><g id="Symbols" fill="none" fill-rule="evenodd" stroke="none" stroke-width="1"><g id="illustration/runtest"><path id="Mask" fill="#66BF3C" d="M30.6012294,23.3750394 L20.9667314,17.1467215 C20.8126794,17.0470967 20.6667989,16.9999636 20.5372285,17 C20.2195208,17.0000365 20,17.2833821 20,17.7716639 L20,30.2283361 C20,30.7166544 20.2194557,31 20.5372285,31 C20.6667989,31 20.812712,30.9528669 20.9667314,30.8532785 L30.6012294,24.6249606 C31.1329235,24.2812132 31.1329235,23.7187869 30.6012294,23.3750394"/><path id="Combined-Shape" fill="#A0DB77" d="M2,24 L7.83042636,24 C7.83042636,32.9302089 15.0697911,40.1695736 24,40.1695736 C32.9302089,40.1695736 40.1695736,32.9302089 40.1695736,24 C40.1695736,15.0697911 32.9302089,7.83042636 24,7.83042636 L24,2 C36.1502645,2 46,11.8497355 46,24 C46,36.1502645 36.1502645,46 24,46 C11.8497355,46 2,36.1502645 2,24 Z"/><path id="Combined-Shape" fill="#000" fill-opacity=".03" d="M2,24 C2,11.8497355 11.8497355,2 24,2 L24,7.83042636 C15.0697911,7.83042636 7.83042636,15.0697911 7.83042636,24 L2,24 Z"/></g></g></svg>