<svg xmlns="http://www.w3.org/2000/svg" xmlns:xlink="http://www.w3.org/1999/xlink" width="48" height="48" version="1.1" viewBox="0 0 48 48"><title>illustration/testpyramid</title><desc>Created with Sketch.</desc><defs><polygon id="path-1" points="32.635 16 41.153 30 7.084 30 15.601 16"/></defs><g id="Symbols" fill="none" fill-rule="evenodd" stroke="none" stroke-width="1"><g id="illustration/testpyramid"><path id="Combined-Shape" fill="#FBD178" d="M32.8381058,16 L15.8037052,16 L22.5819915,4.85830975 C23.1582169,3.91114922 24.4038782,3.60401909 25.3642539,4.17231541 C25.6496807,4.34121494 25.8885635,4.57681054 26.0598196,4.85830975 L32.8381058,16 Z"/><path id="Combined-Shape" fill="#61C1FD" d="M40.8154973,30 L46.2732027,38.9710085 C46.8494282,39.918169 46.5380128,41.1466895 45.5776371,41.7149859 C45.2624695,41.9014843 44.9018342,42 44.5342887,42 L3.02790483,42 C1.90792392,42 1,41.1045695 1,40 C1,39.6375121 1.0998902,39.2818393 1.28899078,38.9710085 L6.74669621,30 L40.8154973,30 Z"/><mask id="mask-2" fill="#fff"><use xlink:href="#path-1"/></mask><use id="Combined-Shape" fill="#AAD895" xlink:href="#path-1"/></g></g></svg>