<svg xmlns="http://www.w3.org/2000/svg" xmlns:xlink="http://www.w3.org/1999/xlink" width="48" height="48" version="1.1" viewBox="0 0 48 48"><title>illustration/undo</title><desc>Created with Sketch.</desc><g id="illustration/undo" fill="none" fill-rule="evenodd" stroke="none" stroke-width="1"><path id="Combined-Shape" fill="#FD8460" d="M3.10489599,32.7892308 C3.03650271,32.5377543 3,32.27314 3,32 C3,30.3431458 4.34314575,29 6,29 C7.65685425,29 9,30.3431458 9,32 C9,32.0129872 8.99991747,32.0259551 8.99975292,32.0389033 C12.141142,39.8645853 20.8577229,44.0226836 28.996673,41.3781784 C37.4898064,38.6185921 42.1377647,29.4964604 39.3781784,21.003327 C36.6185921,12.5101936 27.4964604,7.8622353 19.003327,10.6218216 L17.2016261,5.07675664 C28.7572143,1.32211843 41.1686051,7.6460379 44.9232434,19.2016261 C48.6778816,30.7572143 42.3539621,43.1686051 30.7983739,46.9232434 C19.2427857,50.6778816 6.83139486,44.3539621 3.07675664,32.7983739 L3.10489599,32.7892308 Z" opacity=".7"/><path id="Mask-Copy-2" fill="#FD8460" d="M12.4478172,8.16960065 C11.8507276,7.80129978 11.8507276,7.1987002 12.4478172,6.83039933 L23.267307,0.15720159 C23.44027,0.0504997903 23.6041296,6.32611531e-15 23.7496364,6.35284447e-15 C24.1064936,6.41839808e-15 24.3529412,0.303584586 24.3529412,0.826782723 L24.3529412,14.1732173 C24.3529412,14.6963763 24.1064205,14.9999609 23.7496364,15 C23.6041296,15.000039 23.4403065,14.9495392 23.267307,14.8427984 L12.4478172,8.16960065 Z"/></g></svg>