<svg xmlns="http://www.w3.org/2000/svg" width="26" height="45" fill="none" viewBox="0 0 26 45"><g filter="url(#filter0_d_5575_79794)"><path fill="#66BF3C" d="M17.1397 33.5354H19.0291C21.4674 33.5354 23.4441 35.5121 23.4441 37.9504C23.4441 40.3887 21.4674 42.3653 19.0291 42.3653H6.41496C3.97664 42.3653 2 40.3887 2 37.9504C2 35.5121 3.97664 33.5354 6.41496 33.5354H8.30709V25.7645C6.16784 25.4581 4.52345 23.6183 4.52345 21.3943C4.52345 19.1703 6.16784 17.3304 8.30709 17.0241V10.8299H6.41496C3.97664 10.8299 2 8.85327 2 6.41496C2 3.97664 3.97664 2 6.41496 2H19.0291C21.4674 2 23.4441 3.97664 23.4441 6.41496C23.4441 8.85327 21.4674 10.8299 19.0291 10.8299H17.1397V17.0245C19.2776 17.3319 20.9206 19.1712 20.9206 21.3943C20.9206 23.6173 19.2776 25.4566 17.1397 25.7641V33.5354Z"/></g><path fill="#fff" d="M14.6155 23.289H16.5043C17.5493 23.289 18.3965 22.4418 18.3965 21.3968C18.3965 20.3519 17.5493 19.5047 16.5043 19.5047H14.6155V8.30964H19.0278C20.0728 8.30964 20.9199 7.46251 20.9199 6.41752C20.9199 5.37252 20.0728 4.52539 19.0278 4.52539H6.41361C5.36862 4.52539 4.52148 5.37252 4.52148 6.41752C4.52148 7.46251 5.36862 8.30964 6.41361 8.30964H10.8286V19.5047H8.93706C7.89207 19.5047 7.04493 20.3519 7.04493 21.3968C7.04493 22.4418 7.89207 23.289 8.93706 23.289H10.8286V36.0608H6.41361C5.36862 36.0608 4.52148 36.908 4.52148 37.9529C4.52148 38.9979 5.36862 39.8451 6.41361 39.8451H19.0278C20.0728 39.8451 20.9199 38.9979 20.9199 37.9529C20.9199 36.908 20.0728 36.0608 19.0278 36.0608H14.6155V23.289Z" opacity=".6"/><defs><filter id="filter0_d_5575_79794" width="25.444" height="44.365" x="0" y="0" color-interpolation-filters="sRGB" filterUnits="userSpaceOnUse"><feFlood flood-opacity="0" result="BackgroundImageFix"/><feColorMatrix in="SourceAlpha" result="hardAlpha" type="matrix" values="0 0 0 0 0 0 0 0 0 0 0 0 0 0 0 0 0 0 127 0"/><feOffset/><feGaussianBlur stdDeviation="1"/><feColorMatrix type="matrix" values="0 0 0 0 0 0 0 0 0 0 0 0 0 0 0 0 0 0 0.3 0"/><feBlend in2="BackgroundImageFix" mode="normal" result="effect1_dropShadow_5575_79794"/><feBlend in="SourceGraphic" in2="effect1_dropShadow_5575_79794" mode="normal" result="shape"/></filter></defs></svg>