<svg xmlns="http://www.w3.org/2000/svg" width="29" height="29" fill="none" viewBox="0 0 29 29"><path fill="#fff" fill-rule="evenodd" d="M14.25 0C6.37364 0 0 6.37364 0 14.25C0 22.1264 6.37364 28.5 14.25 28.5C22.1264 28.5 28.5 22.1264 28.5 14.25C28.5 6.37364 22.0745 0 14.25 0ZM7.56545 17.3073C8.03182 17.9291 8.65364 18.1882 9.53455 18.1882C9.94909 18.1882 10.3636 18.1364 10.7264 17.9809C11.0891 17.8255 11.5036 17.6182 12.0218 17.3073L13.4727 19.38C12.2809 20.3645 10.9336 20.8309 9.37909 20.8309C8.13545 20.8309 7.09909 20.5718 6.16636 20.0536C5.28545 19.5355 4.56 18.7582 4.09364 17.7736C3.62727 16.7891 3.36818 15.6491 3.36818 14.3018C3.36818 13.0064 3.62727 11.8145 4.09364 10.83C4.56 9.79364 5.28545 9.01636 6.16636 8.44636C7.04727 7.87636 8.13545 7.61727 9.32727 7.61727C10.1564 7.61727 10.9336 7.72091 11.5555 7.98C12.2291 8.23909 12.8509 8.60182 13.4727 9.12L12.0218 11.0891C11.6073 10.7782 11.1927 10.5709 10.83 10.4155C10.4673 10.26 10.0009 10.2082 9.58636 10.2082C7.82455 10.2082 6.94364 11.5555 6.94364 14.3018C6.89182 15.7009 7.15091 16.6855 7.56545 17.3073ZM21.8155 20.52C21.2973 22.1264 20.52 23.3182 19.4318 24.1991C18.3436 25.08 16.8927 25.5464 15.0791 25.7018L14.7164 23.2664C15.9082 23.1109 16.7891 22.8518 17.3591 22.4373C17.5664 22.2818 17.9809 21.8155 17.9809 21.8155L13.68 8.03182H17.2555L19.7427 18.3436L22.3855 8.03182H25.8573L21.8155 20.52Z" clip-rule="evenodd"/></svg>