<svg width="26" height="39" viewBox="0 0 26 39" fill="none" xmlns="http://www.w3.org/2000/svg">
<path d="M13.1579 0.503906C15.3016 0.503906 17.2205 0.832366 18.9146 1.48928C20.6433 2.1462 22.009 3.13158 23.0117 4.44542C24.0144 5.75926 24.5157 7.41884 24.5157 9.42418C24.5157 10.9109 24.2391 12.2247 23.6859 13.3657C23.1673 14.4721 22.4412 15.4402 21.5077 16.27C20.6088 17.0998 19.5715 17.8258 18.396 18.4482C19.5715 19.1397 20.6952 19.9522 21.767 20.8857C22.8734 21.7846 23.7724 22.8564 24.4638 24.1011C25.1899 25.3112 25.5529 26.7461 25.5529 28.4057C25.5529 30.4456 25.0689 32.2262 24.1008 33.7475C23.1327 35.2687 21.7152 36.4443 19.8481 37.2741C18.0157 38.1039 15.7683 38.5188 13.1061 38.5188C10.3401 38.5188 8.02359 38.1212 6.15655 37.3259C4.3241 36.5307 2.94111 35.3898 2.00759 33.903C1.10865 32.4163 0.65918 30.653 0.65918 28.6131C0.65918 26.919 0.935777 25.4495 1.48897 24.2048C2.07674 22.9602 2.87196 21.8883 3.87462 20.9894C4.87729 20.0559 5.98368 19.278 7.19379 18.6556C6.19113 17.9641 5.25761 17.1862 4.39324 16.3218C3.56345 15.4229 2.90653 14.4202 2.42249 13.3138C1.93844 12.1729 1.69642 10.859 1.69642 9.37231C1.69642 7.40156 2.19775 5.75926 3.20042 4.44542C4.23766 3.13158 5.62065 2.1462 7.34938 1.48928C9.11269 0.832366 11.0489 0.503906 13.1579 0.503906ZM8.38662 28.1464C8.38662 29.4948 8.78423 30.6012 9.57945 31.4655C10.3747 32.3299 11.5156 32.7621 13.0023 32.7621C14.1087 32.7621 15.0077 32.5719 15.6992 32.1916C16.4252 31.8113 16.9611 31.2754 17.3069 30.5839C17.6526 29.8924 17.8255 29.0972 17.8255 28.1982C17.8255 27.2647 17.6008 26.4349 17.1513 25.7088C16.7018 24.9828 16.1486 24.3431 15.4917 23.79C14.8348 23.2022 14.1779 22.7008 13.521 22.286L12.8986 21.8711C12.0342 22.3551 11.2563 22.9083 10.5648 23.5306C9.90791 24.153 9.372 24.8445 8.9571 25.6051C8.57678 26.3312 8.38662 27.1783 8.38662 28.1464ZM13.1061 6.20873C12.138 6.20873 11.3082 6.53719 10.6167 7.19411C9.92519 7.85103 9.57945 8.78454 9.57945 9.99466C9.57945 10.8244 9.73503 11.5678 10.0462 12.2247C10.392 12.8471 10.8241 13.4003 11.3428 13.8843C11.8959 14.3338 12.4837 14.766 13.1061 15.1809C13.6938 14.8005 14.247 14.3856 14.7656 13.9362C15.3188 13.4867 15.7683 12.9508 16.1141 12.3284C16.4598 11.6715 16.6327 10.8936 16.6327 9.99466C16.6327 8.78454 16.2869 7.85103 15.5954 7.19411C14.9385 6.53719 14.1087 6.20873 13.1061 6.20873Z" fill="white"/>
</svg>
