<svg xmlns="http://www.w3.org/2000/svg" width="17" height="26" fill="none" viewBox="0 0 17 26"><path fill="#0ACF83" fill-rule="evenodd" d="M4.18771 25.1098C6.49666 25.1098 8.37152 23.2355 8.37152 20.926V16.7422H4.18771C1.87877 16.7422 0.00390625 18.6165 0.00390625 20.926C0.00390625 23.2355 1.87824 25.1098 4.18771 25.1098Z" clip-rule="evenodd"/><path fill="#A259FF" fill-rule="evenodd" d="M0 12.5549C0 10.246 1.87434 8.37109 4.18381 8.37109H8.36761V16.7429H4.18381C1.87412 16.7406 0.00232305 14.8688 0 12.5591V12.5549Z" clip-rule="evenodd"/><path fill="#F24E1E" fill-rule="evenodd" d="M0 4.18381C0 1.87434 1.87434 0 4.18381 0H8.36761V8.37183H4.18381C1.87412 8.3695 0.00232305 6.49771 0 4.18802V4.18381Z" clip-rule="evenodd"/><path fill="#FF7262" fill-rule="evenodd" d="M8.33256 0H12.5164C14.8253 0 16.6996 1.87434 16.6996 4.18381C16.6996 6.49328 14.8253 8.36761 12.5158 8.36761H8.33203L8.33256 0Z" clip-rule="evenodd"/><path fill="#1ABCFE" fill-rule="evenodd" d="M16.7434 12.5549C16.741 14.8646 14.8693 16.7364 12.5596 16.7387C10.2506 16.7387 8.33203 14.8644 8.33203 12.5549C8.33435 10.2452 10.2061 8.37342 12.5158 8.37109C14.8248 8.37109 16.6996 10.2454 16.6996 12.5549H16.7434Z" clip-rule="evenodd"/></svg>