<svg xmlns="http://www.w3.org/2000/svg" width="29" height="29" fill="none" viewBox="0 0 29 29"><path fill="#fff" d="M13.1457 11.8008H15.3532L15.9017 11.0457V5.13252H12.5977V11.0463L13.1457 11.8008Z"/><path fill="#fff" d="M11.7236 14.4383L12.4056 12.3392L11.8571 11.5843L6.23276 9.75715L5.21191 12.899L10.8369 14.7266L11.7236 14.4383Z"/><path fill="#fff" d="M13.7917 16.6075L12.006 15.3099L11.1184 15.5984L7.64258 20.3825L10.3154 22.3242L13.7917 17.54V16.6075Z"/><path fill="#fff" d="M16.4941 15.3097L14.708 16.6071L14.7084 17.5402L18.1844 22.3242L20.8574 20.3825L17.3808 15.598L16.4941 15.3097Z"/><path fill="#fff" d="M16.0938 12.3392L16.776 14.4385L17.6635 14.7266L23.2879 12.8994L22.2668 9.75735L16.6422 11.5849L16.0938 12.3392Z"/><path fill="#fff" d="M14.2507 3.33767e-07C6.39293 3.33767e-07 0 6.39151 0 14.2477C0 22.1067 6.39293 28.5 14.2507 28.5C22.1077 28.5 28.5 22.1067 28.5 14.2477C28.5 6.39151 22.1077 3.33767e-07 14.2507 3.33767e-07ZM14.2507 2.88494C20.5258 2.88494 25.6145 7.97154 25.6145 14.2477C25.6145 20.5258 20.5258 25.6147 14.2507 25.6147C7.97352 25.6147 2.88548 20.5258 2.88548 14.2477C2.88548 7.97154 7.97352 2.88494 14.2507 2.88494Z"/><path fill="#fff" d="M22.8819 17.4141L18.6064 16.0248L18.8891 15.154L23.1645 16.5433L22.8819 17.4141Z"/><path fill="#fff" d="M17.4284 10.5508L16.6875 10.0127L19.3297 6.37595L20.0706 6.91405L17.4284 10.5508Z"/><path fill="#fff" d="M11.1165 10.5176L8.47461 6.88064L9.21556 6.34254L11.8574 9.97928L11.1165 10.5176Z"/><path fill="#fff" d="M5.60119 17.3594L5.31836 16.4886L9.59336 15.0999L9.87622 15.9707L5.60119 17.3594Z"/><path fill="#fff" d="M13.7637 23.332H14.6793V18.8367H13.7637V23.332Z"/></svg>