<svg xmlns="http://www.w3.org/2000/svg" width="26" height="29" fill="none" viewBox="0 0 26 29"><path fill="#fff" d="M25.0922 14.0472C25.0922 12.3295 23.914 10.8843 22.3322 10.4714L25.8749 0H8.31804L11.869 10.5044C10.3365 10.9504 9.20783 12.3708 9.20783 14.0555C9.20783 15.2942 9.82574 16.3926 10.765 17.0697C10.3942 17.5983 9.9658 18.0855 9.47971 18.548C8.56521 19.4068 7.55184 20.0675 6.45608 20.5051C5.46743 19.8362 5.03901 18.6553 5.42624 17.5983C6.93393 17.1358 8.02969 15.7236 8.02969 14.0637C8.02969 12.024 6.37369 10.3723 4.34696 10.3723C2.31198 10.3723 0.655987 12.0322 0.655987 14.072C0.655987 15.0795 1.06793 16.0044 1.72703 16.6651C1.66936 16.7807 1.61168 16.8963 1.55401 17.0202C1.00202 18.1598 0.375869 19.4481 0.136944 20.8933C-0.340905 23.7837 0.441779 26.1042 2.32846 27.4173C3.39126 28.1523 4.56116 28.5239 5.8217 28.5239C7.98849 28.5239 10.1882 27.4338 12.3138 26.3767C13.8298 25.6252 15.3951 24.8407 16.9358 24.4608C17.5043 24.3204 18.0975 24.2379 18.7236 24.147C19.9924 23.9653 21.3023 23.7754 22.4805 23.09C23.8564 22.2889 24.7956 20.9511 25.0675 19.4151C25.2734 18.2341 25.0675 17.045 24.5402 16.0044C24.8945 15.4346 25.0922 14.7657 25.0922 14.0472V14.0472ZM23.4856 14.0472C23.4856 15.1951 22.5546 16.1283 21.4095 16.1283C20.2643 16.1283 19.3333 15.1951 19.3333 14.0472C19.3333 13.6756 19.4321 13.3205 19.6052 13.0149C19.6711 12.8993 19.7535 12.7837 19.8358 12.6846C19.9182 12.5855 20.0171 12.4947 20.1242 12.4121L20.1324 12.4038C20.1984 12.3543 20.2725 12.3047 20.3467 12.2552C20.3467 12.2552 20.3549 12.2552 20.3549 12.2469C20.3878 12.2304 20.4208 12.2056 20.4538 12.1891C20.462 12.1891 20.4702 12.1809 20.4785 12.1809C20.5114 12.1644 20.5526 12.1478 20.5938 12.1313C20.635 12.1148 20.6762 12.0983 20.7092 12.0818C20.7174 12.0818 20.7256 12.0735 20.7339 12.0735C20.7668 12.0653 20.7998 12.0487 20.8327 12.0405C20.841 12.0405 20.8575 12.0322 20.8657 12.0322C20.9069 12.024 20.9398 12.0157 20.981 12.0074H20.9893L21.1129 11.9827C21.1211 11.9827 21.1376 11.9827 21.1458 11.9744C21.1788 11.9744 21.2117 11.9662 21.2447 11.9662H21.2859C21.3271 11.9662 21.3683 11.9579 21.4177 11.9579H21.5248C21.5577 11.9579 21.5825 11.9579 21.6154 11.9662H21.6319C21.6978 11.9744 21.7637 11.9827 21.8296 11.9992C22.7688 12.1974 23.4856 13.0397 23.4856 14.0472V14.0472ZM10.6167 1.65164H23.5763L20.6021 10.4466C20.4785 10.4714 20.3549 10.5127 20.2313 10.554L17.1006 4.15388L13.9616 10.5127C13.838 10.4714 13.7062 10.4466 13.5744 10.4219L10.6167 1.65164ZM16.5074 13.3288C16.3508 12.5525 15.9554 11.8588 15.3951 11.3468L17.1006 7.89485L18.8225 11.4211C18.3117 11.9331 17.9409 12.5855 17.7926 13.3288H16.5074ZM12.3798 12.024C12.421 12.0157 12.4539 12.0074 12.4951 11.9992H12.5198C12.5528 11.9909 12.5857 11.9909 12.6187 11.9827H12.6516C12.6846 11.9827 12.7093 11.9744 12.7423 11.9744H13.0636C13.0965 11.9744 13.1212 11.9827 13.146 11.9827C13.1624 11.9827 13.1707 11.9827 13.1872 11.9909C13.2201 11.9992 13.2448 11.9992 13.2778 12.0074C13.286 12.0074 13.2943 12.0074 13.3107 12.0157C13.3519 12.024 13.3931 12.0322 13.4261 12.0405H13.4343C13.4673 12.0487 13.5002 12.057 13.5332 12.0735C13.5414 12.0735 13.5497 12.0818 13.5661 12.0818C13.5909 12.09 13.6238 12.0983 13.6485 12.1148C13.6568 12.1148 13.665 12.1231 13.6732 12.1231C13.7062 12.1396 13.7392 12.1478 13.7721 12.1644H13.7803C13.8215 12.1809 13.8545 12.1974 13.8875 12.2222H13.8957C13.9286 12.2387 13.9616 12.2634 13.9946 12.28C14.0028 12.28 14.0028 12.2882 14.011 12.2882C14.044 12.3047 14.0687 12.3295 14.1017 12.346L14.1099 12.3543C14.2088 12.4286 14.2994 12.5112 14.39 12.5938L14.3983 12.602C14.4806 12.6929 14.563 12.792 14.6289 12.8993C14.8432 13.2297 14.9667 13.6178 14.9667 14.039C14.9667 15.1869 14.0358 16.12 12.8906 16.12C11.7454 16.12 10.8144 15.1869 10.8144 14.039C10.8062 13.0728 11.4735 12.2552 12.3798 12.024V12.024ZM4.27281 11.9662C5.418 11.9662 6.34898 12.8993 6.34898 14.0472C6.34898 15.1951 5.418 16.1283 4.27281 16.1283C3.12762 16.1283 2.19664 15.1951 2.19664 14.0472C2.19664 12.8993 3.12762 11.9662 4.27281 11.9662ZM23.4362 19.126C23.2549 20.1831 22.6041 21.108 21.6484 21.6613C20.7503 22.1816 19.6464 22.3467 18.4847 22.5119C17.8503 22.6027 17.183 22.7018 16.5403 22.8587C14.8267 23.2799 13.1789 24.1057 11.5806 24.8985C9.53738 25.9143 7.60951 26.8722 5.8217 26.8722C4.89071 26.8722 4.0586 26.608 3.26768 26.0547C1.45515 24.7994 1.54577 22.4458 1.75998 21.1575C1.95771 19.9518 2.50971 18.8205 3.03699 17.7386C3.06995 17.6726 3.09466 17.6148 3.12762 17.5487C3.30887 17.6148 3.49836 17.6643 3.69609 17.6974C3.38302 19.4481 4.27281 21.2566 6.00295 22.1485L6.31602 22.3137L6.65381 22.1898C8.0956 21.6778 9.43028 20.8437 10.6084 19.7289C11.2758 19.1012 11.8442 18.4241 12.3221 17.6891C12.5116 17.7221 12.7011 17.7304 12.8906 17.7304C14.6042 17.7304 16.046 16.5495 16.458 14.9639H17.8421C18.254 16.5577 19.6958 17.7304 21.4095 17.7304C22.0933 17.7304 22.7277 17.5404 23.2714 17.2184C23.4856 17.8377 23.5515 18.4819 23.4362 19.126V19.126Z"/></svg>