<svg xmlns="http://www.w3.org/2000/svg" width="31" height="18" fill="none" viewBox="0 0 31 18"><path fill="#000" d="M17.0814 8.59916C17.0814 13.3484 13.2576 17.1986 8.54057 17.1986C3.82352 17.1986 0 13.3496 0 8.59916C0 3.84875 3.82381 0 8.54057 0C13.2573 0 17.0814 3.84991 17.0814 8.59916ZM26.4509 8.59916C26.4509 13.07 24.5388 16.694 22.1804 16.694C19.8221 16.694 17.91 13.0688 17.91 8.59916C17.91 4.12949 19.8221 0.504331 22.1804 0.504331C24.5388 0.504331 26.4509 4.12949 26.4509 8.59916ZM30.2831 8.59916C30.2831 12.6048 29.6106 15.8518 28.7811 15.8518C27.9517 15.8518 27.2791 12.6036 27.2791 8.59916C27.2791 4.59467 27.9517 1.34653 28.7814 1.34653C29.6111 1.34653 30.2831 4.5938 30.2831 8.59916Z"/></svg>