<svg xmlns="http://www.w3.org/2000/svg" width="29" height="29" fill="none" viewBox="0 0 29 29"><g clip-path="url(#clip0_5194_72333)"><path fill="#fff" d="M13.3167 0.00766945C13.2554 0.0132405 13.0604 0.0327391 12.8849 0.0466667C8.83695 0.411569 5.04531 2.59541 2.64384 5.95196C1.3066 7.81825 0.45132 9.93524 0.128152 12.1776C0.0139296 12.9603 0 13.1915 0 14.2528C0 15.3141 0.0139296 15.5453 0.128152 16.328C0.902639 21.679 4.711 26.1748 9.8761 27.8405C10.801 28.1386 11.7761 28.3419 12.8849 28.4645C13.3167 28.5118 15.1833 28.5118 15.6151 28.4645C17.529 28.2528 19.1504 27.7792 20.7496 26.9631C20.9947 26.8377 21.0421 26.8043 21.0087 26.7765C20.9864 26.7597 19.9416 25.3586 18.688 23.665L16.4091 20.587L13.5535 16.3614C11.9823 14.0383 10.6896 12.1386 10.6784 12.1386C10.6673 12.1358 10.6562 14.0132 10.6506 16.3057C10.6422 20.3196 10.6394 20.4812 10.5893 20.5759C10.5169 20.7124 10.4611 20.7681 10.3441 20.8294C10.255 20.874 10.177 20.8823 9.75631 20.8823H9.27434L9.14619 20.8015C9.06261 20.7486 9.00132 20.679 8.95953 20.5982L8.90103 20.4728L8.9066 14.8879L8.91496 9.30015L9.00132 9.19151C9.04589 9.13301 9.14062 9.05781 9.20748 9.02159C9.3217 8.96588 9.36628 8.96031 9.84824 8.96031C10.4166 8.96031 10.5113 8.9826 10.6589 9.14416C10.7007 9.18872 12.2469 11.5174 14.0968 14.3224C15.9466 17.1274 18.4762 20.9575 19.7188 22.8377L21.9754 26.2556L22.0896 26.1804C23.1009 25.523 24.1707 24.587 25.0176 23.6121C26.8201 21.5425 27.9818 19.0188 28.3718 16.328C28.4861 15.5453 28.5 15.3141 28.5 14.2528C28.5 13.1915 28.4861 12.9603 28.3718 12.1776C27.5974 6.82661 23.789 2.33079 18.6239 0.665051C17.7129 0.369786 16.7434 0.166444 15.6569 0.0438811C15.3894 0.016026 13.5479 -0.0146147 13.3167 0.00766945ZM19.1504 8.62605C19.2842 8.6929 19.3928 8.82104 19.4318 8.95474C19.4541 9.02717 19.4597 10.5759 19.4541 14.0662L19.4457 19.0745L18.5626 17.7208L17.6767 16.367V12.7263C17.6767 10.3726 17.6878 9.04945 17.7045 8.98538C17.7491 8.82939 17.8466 8.70683 17.9804 8.63441C18.0946 8.57591 18.1364 8.57034 18.5738 8.57034C18.9861 8.57034 19.0585 8.57591 19.1504 8.62605Z"/></g><defs><clipPath id="clip0_5194_72333"><rect width="28.5" height="28.5" fill="#fff"/></clipPath></defs></svg>