<svg xmlns="http://www.w3.org/2000/svg" width="27" height="28" fill="none" viewBox="0 0 27 28"><path fill="#000" fill-rule="evenodd" d="M4.56051 4.83349C5.41799 5.53016 5.73967 5.47701 7.34991 5.36957L22.5302 4.45806C22.8521 4.45806 22.5844 4.13687 22.477 4.0835L19.9559 2.26093C19.4728 1.88588 18.8293 1.45638 17.5957 1.56382L2.89668 2.63592C2.36061 2.68907 2.25354 2.95711 2.46702 3.17194L4.56051 4.83349ZM5.4719 8.37125V24.3435C5.4719 25.2019 5.90086 25.5231 6.86633 25.47L23.5494 24.5046C24.5154 24.4515 24.623 23.8611 24.623 23.1638V7.29867C24.623 6.60248 24.3552 6.22705 23.7639 6.28064L6.32988 7.29867C5.68647 7.35274 5.47185 7.67458 5.47185 8.37125H5.4719ZM21.9414 9.22803C22.0484 9.71091 21.9414 10.1933 21.4576 10.2476L20.6538 10.4078V22.1995C19.9559 22.5746 19.3123 22.7891 18.776 22.7891C17.9174 22.7891 17.7024 22.5209 17.0592 21.7174L11.8013 13.4631V21.4493L13.4651 21.8248C13.4651 21.8248 13.4651 22.7891 12.1228 22.7891L8.42217 23.0038C8.31468 22.7891 8.42217 22.2536 8.79755 22.1463L9.76324 21.8786V11.3192L8.42244 11.2118C8.31489 10.7289 8.58272 10.0327 9.33428 9.97867L13.3041 9.71107L18.776 18.0728V10.6758L17.3809 10.5157C17.2739 9.92536 17.7024 9.49672 18.2389 9.44357L21.9414 9.22803ZM1.66252 1.18883L16.9519 0.0628683C18.8295 -0.098161 19.3126 0.0097161 20.4926 0.86693L25.3732 4.29725C26.1785 4.88713 26.4469 5.04773 26.4469 5.69076V24.5046C26.4469 25.6837 26.0174 26.381 24.5157 26.4877L6.76008 27.5599C5.63277 27.6137 5.09626 27.453 4.50589 26.7022L0.911776 22.039C0.267822 21.1806 0 20.5384 0 19.7871V3.06412C0 2.0999 0.429665 1.29556 1.66252 1.18883V1.18883Z" clip-rule="evenodd"/></svg>