<svg xmlns="http://www.w3.org/2000/svg" width="29" height="22" fill="none" viewBox="0 0 29 22"><path fill="#2D4552" d="M9.47134 12.1615C8.39867 12.4659 7.69493 12.9997 7.23135 13.533C7.67537 13.1445 8.27014 12.7878 9.07244 12.5604C9.89304 12.3278 10.5931 12.3295 11.1716 12.4411V11.9888C10.6781 11.9437 10.1124 11.9796 9.47134 12.1615ZM7.18232 8.35899L3.19861 9.40852C3.19861 9.40852 3.27122 9.51107 3.40565 9.64792L6.78334 8.75789C6.78334 8.75789 6.73548 9.37464 6.31982 9.92637C7.10607 9.33152 7.18232 8.35899 7.18232 8.35899ZM10.5169 17.7214C4.91081 19.2313 1.94478 12.7344 1.04679 9.36223C0.63191 7.80568 0.450799 6.62679 0.402526 5.86603C0.39734 5.78704 0.399738 5.72044 0.405323 5.65942C0.114506 5.67699 -0.0247261 5.82816 0.00360149 6.26502C0.051874 7.02536 0.232985 8.20416 0.647868 9.76122C1.54546 13.1329 4.51188 19.6298 10.118 18.1199C11.3383 17.7912 12.2551 17.1924 12.9432 16.4281C12.3089 17.0009 11.515 17.4521 10.5169 17.7214ZM11.5705 4.38281V4.7818H13.7694C13.7243 4.64053 13.6788 4.51325 13.6337 4.38281H11.5705Z"/><path fill="#2D4552" d="M14.2604 7.66875C15.2493 7.94961 15.7723 8.64294 16.0487 9.25652L17.1514 9.56968C17.1514 9.56968 17.001 7.42226 15.0586 6.87053C13.2415 6.35426 12.1233 7.88018 11.9872 8.07763C12.5158 7.70104 13.2877 7.39271 14.2604 7.66875ZM23.0376 9.26643C21.2188 8.74782 20.101 10.2769 19.967 10.4716C20.496 10.0954 21.2675 9.78703 22.2397 10.0643C23.227 10.3456 23.7496 11.0381 24.0269 11.6521L25.1311 11.9664C25.1311 11.9664 24.9783 9.81858 23.0376 9.26643ZM21.9421 14.9284L12.7696 12.3641C12.7696 12.3641 12.8689 12.8676 13.2499 13.5195L20.9727 15.6785C21.6085 15.3106 21.9421 14.9284 21.9421 14.9284ZM15.5828 20.448C8.3199 18.5008 9.19794 9.24695 10.3732 4.86188C10.8571 3.05476 11.3545 1.71158 11.7671 0.811198C11.5209 0.760528 11.3171 0.890187 11.1156 1.29988C10.6776 2.18828 10.1174 3.6348 9.57536 5.65976C8.40047 10.0447 7.52243 19.2983 14.785 21.2455C18.2081 22.1626 20.8749 20.7688 22.8628 18.5798C20.9759 20.2889 18.5668 21.2471 15.5828 20.448Z"/><path fill="#E2574C" d="M11.5705 15.5541V13.6867L6.38211 15.1579C6.38211 15.1579 6.76549 12.9303 9.47138 12.1628C10.292 11.9302 10.9921 11.9318 11.5705 12.0435V4.38404H14.1684C13.8855 3.50999 13.6119 2.83706 13.3821 2.36948C13.0019 1.59557 12.6121 2.1086 11.7273 2.84863C11.1042 3.36923 9.52924 4.47986 7.15923 5.11849C4.78919 5.75755 2.87314 5.58807 2.07369 5.44963C0.94033 5.2541 0.347524 5.0052 0.402981 5.86726C0.451245 6.6276 0.632365 7.80649 1.04725 9.36346C1.94483 12.7352 4.91126 19.2322 10.5174 17.7222C11.9818 17.3276 13.0155 16.5477 13.7319 15.5537H11.5705V15.5541ZM3.19827 9.40975L7.18237 8.36022C7.18237 8.36022 7.06625 9.89289 5.57268 10.2866C4.07869 10.68 3.19827 9.40975 3.19827 9.40975Z"/><path fill="#2EAD33" d="M26.565 4.47188C25.5294 4.65343 23.0449 4.8796 19.9744 4.05658C16.903 3.23406 14.8653 1.79549 14.0579 1.11931C12.9134 0.160682 12.4099 -0.505527 11.9145 0.502169C11.4764 1.39098 10.9163 2.83749 10.3741 4.86246C9.19933 9.24744 8.32128 18.501 15.5837 20.4482C22.8447 22.3937 26.7102 13.9404 27.8851 9.55502C28.4273 7.53047 28.665 5.99739 28.7304 5.00888C28.805 3.8891 28.0359 4.21416 26.565 4.47188ZM11.9735 8.09977C11.9735 8.09977 13.118 6.31971 15.0591 6.87144C17.0015 7.42317 17.1519 9.57059 17.1519 9.57059L11.9735 8.09977ZM16.7119 16.0875C13.2975 15.0873 12.7709 12.3646 12.7709 12.3646L21.9431 14.929C21.9431 14.9286 20.0917 17.0752 16.7119 16.0875ZM19.9548 10.4921C19.9548 10.4921 21.0977 8.71327 23.0385 9.26659C24.9793 9.81915 25.1321 11.9666 25.1321 11.9666L19.9548 10.4921Z"/><path fill="#D65348" d="M9.75683 14.199L6.38153 15.1556C6.38153 15.1556 6.74818 13.0669 9.23464 12.2391L7.32339 5.06641L7.15823 5.1166C4.78821 5.75574 2.87216 5.58617 2.07271 5.44774C0.939361 5.25229 0.346555 5.00331 0.402003 5.86545C0.450276 6.62579 0.631387 7.8046 1.04627 9.36165C1.94386 12.7333 4.91029 19.2303 10.5164 17.7203L10.6816 17.6685L9.75683 14.199ZM3.19769 9.40794L7.18179 8.35833C7.18179 8.35833 7.06567 9.891 5.5721 10.2847C4.07812 10.6781 3.19769 9.40794 3.19769 9.40794Z"/><path fill="#1D8D22" d="M16.8659 16.125L16.7115 16.0874C13.2971 15.0873 12.7705 12.3646 12.7705 12.3646L17.5002 13.6867L20.0043 4.06457L19.974 4.05658C16.9026 3.23406 14.8649 1.79549 14.0575 1.11931C12.913 0.160682 12.4095 -0.505527 11.914 0.502169C11.4764 1.39098 10.9163 2.83749 10.3741 4.86246C9.19933 9.24744 8.32128 18.501 15.5837 20.4481L15.7326 20.4816L16.8659 16.125ZM11.9735 8.09977C11.9735 8.09977 13.118 6.31971 15.0591 6.87144C17.0015 7.42317 17.1519 9.57059 17.1519 9.57059L11.9735 8.09977Z"/><path fill="#C04B41" d="M9.92944 14.1511L9.02425 14.408C9.2381 15.6136 9.61503 16.7705 10.2066 17.7925C10.3096 17.7698 10.4117 17.7502 10.5166 17.7215C10.7915 17.6473 11.0464 17.5555 11.2918 17.4554C10.6308 16.4744 10.1935 15.3447 9.92944 14.1511ZM9.57599 5.66037C9.11082 7.39648 8.69469 9.89535 8.80924 12.4018C9.01426 12.3128 9.23086 12.2299 9.47143 12.1616L9.639 12.1242C9.43472 9.44692 9.87633 6.71872 10.3738 4.86248C10.4999 4.39291 10.6263 3.95614 10.7524 3.54883C10.5493 3.67802 10.3307 3.81046 10.0818 3.9469C9.91387 4.46517 9.7443 5.03163 9.57599 5.66037Z"/></svg>