<svg width="457" height="244" viewBox="0 0 457 244" fill="none" xmlns="http://www.w3.org/2000/svg"><g filter="url(#a)"><path d="M9.866 12.418a5.552 5.552 0 0 1 5.552-5.552h426.164a5.552 5.552 0 0 1 5.552 5.552v213.158a5.552 5.552 0 0 1-5.552 5.552H15.418a5.551 5.551 0 0 1-5.552-5.552V12.418Z" fill="#fff"/><path d="M15.418 6.433a5.985 5.985 0 0 0-5.985 5.985v213.158a5.985 5.985 0 0 0 5.985 5.985h426.164a5.984 5.984 0 0 0 5.985-5.985V12.418a5.985 5.985 0 0 0-5.985-5.985H15.418Z" stroke="#000" stroke-opacity=".1" stroke-width=".866"/></g><path d="M31.348 27.503c-1.088 0-1.92-.281-2.499-.844-.57-.57-.855-1.41-.855-2.522v-4.682h1.44v4.671c0 .713.162 1.25.485 1.61.33.352.806.529 1.43.529 1.268 0 1.902-.713 1.902-2.139v-4.671h1.43v4.682c0 1.111-.282 1.951-.845 2.522-.563.563-1.392.844-2.488.844Zm6.892 0c-.465 0-.9-.056-1.305-.169a2.893 2.893 0 0 1-1.013-.484l.36-.923c.277.188.589.334.934.44.345.097.69.145 1.036.145.36 0 .626-.06.799-.18a.583.583 0 0 0 .27-.495c0-.315-.233-.518-.698-.608l-1.125-.214c-.954-.18-1.43-.675-1.43-1.485 0-.36.098-.672.293-.935.202-.262.48-.465.833-.607a3.224 3.224 0 0 1 1.215-.214c.39 0 .766.056 1.126.168.36.105.668.267.923.485l-.383.922a2.478 2.478 0 0 0-.788-.427 2.62 2.62 0 0 0-.867-.158c-.367 0-.641.064-.821.192a.6.6 0 0 0-.26.506c0 .33.215.533.642.608l1.126.214c.488.09.856.255 1.103.495.255.24.383.563.383.968 0 .548-.214.98-.642 1.295-.427.307-.998.461-1.71.461Zm5.294 0c-.398 0-.754-.075-1.07-.225a1.938 1.938 0 0 1-.73-.63 1.583 1.583 0 0 1-.26-.89c0-.405.105-.724.315-.956.21-.24.552-.413 1.025-.518.472-.105 1.107-.158 1.902-.158h.394v-.236c0-.375-.083-.646-.248-.81-.165-.166-.442-.248-.833-.248a3.26 3.26 0 0 0-.945.146c-.323.09-.65.233-.98.428l-.405-.957c.195-.135.424-.251.687-.349.27-.105.551-.184.844-.236.3-.06.582-.09.844-.09.803 0 1.4.187 1.79.562.39.368.586.942.586 1.723v3.331h-1.318v-.878c-.127.308-.33.552-.607.732-.278.173-.608.26-.99.26Zm.293-.968c.367 0 .671-.128.912-.383.247-.255.371-.578.371-.968v-.247h-.383c-.705 0-1.197.056-1.474.168-.27.105-.406.3-.406.586 0 .248.087.45.26.608.172.157.412.236.72.236Zm6.617 2.994c-.51 0-.99-.06-1.44-.18a3.476 3.476 0 0 1-1.171-.529l.405-.98c.315.21.653.365 1.013.462.36.105.72.158 1.08.158 1.006 0 1.509-.484 1.509-1.452v-.754a1.72 1.72 0 0 1-.732.731c-.322.18-.683.27-1.08.27-.496 0-.927-.112-1.295-.337a2.336 2.336 0 0 1-.855-.968c-.203-.413-.304-.893-.304-1.441s.101-1.024.304-1.43a2.26 2.26 0 0 1 .855-.957c.368-.232.8-.348 1.295-.348.412 0 .78.093 1.103.281.322.18.559.424.709.732v-.9h1.373v4.952c0 .893-.236 1.565-.709 2.015-.473.45-1.16.675-2.06.675Zm-.034-3.343c.436 0 .78-.15 1.036-.45.255-.3.383-.71.383-1.227 0-.518-.128-.923-.383-1.216-.255-.3-.6-.45-1.036-.45-.435 0-.78.15-1.035.45-.255.293-.383.698-.383 1.216s.128.927.383 1.227c.255.3.6.45 1.035.45Zm6.974 1.317c-.623 0-1.16-.116-1.61-.349-.45-.232-.799-.563-1.047-.99-.24-.428-.36-.935-.36-1.52 0-.57.117-1.07.35-1.497.24-.428.566-.762.978-1.002.42-.248.897-.371 1.43-.371.78 0 1.396.247 1.846.742.458.496.687 1.171.687 2.027v.416h-3.94c.105.983.668 1.475 1.688 1.475.308 0 .616-.045.923-.135.308-.098.59-.248.845-.45l.394.945a2.94 2.94 0 0 1-.991.518 3.886 3.886 0 0 1-1.193.191Zm-.203-4.773c-.412 0-.746.128-1.002.383-.255.255-.409.6-.461 1.036h2.769c-.03-.458-.158-.807-.383-1.047-.217-.248-.525-.372-.923-.372Zm6.996 4.66v-4.446H63.12v-1.058h1.058v-.011c0-.78.203-1.37.608-1.767.413-.398 1.05-.623 1.914-.676l.551-.034.09 1.036-.517.034c-.45.03-.77.142-.957.337-.188.188-.282.47-.282.845v.236h1.498v1.058h-1.498v4.447h-1.407Zm3.73 0v-5.504h1.372v.968c.27-.653.848-1.013 1.734-1.08l.428-.034.09 1.193-.81.079c-.924.09-1.385.563-1.385 1.418v2.96h-1.43Zm7.032.113c-.623 0-1.16-.116-1.61-.349-.45-.232-.799-.563-1.046-.99-.24-.428-.36-.935-.36-1.52 0-.57.116-1.07.348-1.497.24-.428.567-.762.98-1.002.42-.248.896-.371 1.43-.371.78 0 1.395.247 1.845.742.458.496.687 1.171.687 2.027v.416h-3.94c.105.983.668 1.475 1.689 1.475.307 0 .615-.045.923-.135.307-.098.589-.248.844-.45l.394.945c-.263.218-.593.39-.99.518a3.886 3.886 0 0 1-1.194.191Zm-.203-4.773c-.412 0-.746.128-1.001.383-.256.255-.41.6-.462 1.036h2.77c-.03-.458-.158-.807-.384-1.047-.217-.248-.525-.372-.923-.372Zm7.475 6.687v-2.86a1.74 1.74 0 0 1-.71.687 2.166 2.166 0 0 1-1.058.26c-.48 0-.904-.117-1.272-.35a2.335 2.335 0 0 1-.844-.99c-.203-.436-.304-.946-.304-1.531 0-.593.102-1.1.304-1.52.203-.428.484-.758.844-.99a2.329 2.329 0 0 1 1.272-.35c.406 0 .77.094 1.092.282.323.18.56.424.71.732v-.9h1.373v7.53H82.21Zm-1.374-2.983c.42 0 .758-.15 1.013-.45.256-.308.383-.758.383-1.351 0-.6-.127-1.047-.383-1.34-.255-.3-.593-.45-1.013-.45-.42 0-.758.15-1.013.45-.255.293-.382.74-.382 1.34 0 .593.127 1.043.382 1.35.255.3.593.45 1.013.45Zm6.952 1.07c-.623 0-1.159-.117-1.61-.35-.45-.232-.799-.563-1.046-.99-.24-.428-.36-.935-.36-1.52 0-.57.116-1.07.349-1.497.24-.428.566-.762.979-1.002.42-.248.897-.371 1.43-.371.78 0 1.395.247 1.845.742.458.496.687 1.171.687 2.027v.416h-3.94c.105.983.668 1.475 1.689 1.475.308 0 .615-.045.923-.135.308-.098.589-.248.844-.45l.394.945a2.94 2.94 0 0 1-.99.518 3.886 3.886 0 0 1-1.194.191Zm-.202-4.774c-.413 0-.747.128-1.002.383s-.41.6-.462 1.036h2.77c-.03-.458-.158-.807-.383-1.047-.218-.248-.526-.372-.923-.372Zm3.59 4.66v-5.504h1.374v.856c.187-.316.439-.556.754-.72a2.338 2.338 0 0 1 1.08-.248c1.299 0 1.948.754 1.948 2.262v3.354h-1.407v-3.286c0-.428-.083-.74-.248-.935-.157-.195-.405-.292-.743-.292-.413 0-.743.131-.99.394-.24.255-.36.596-.36 1.024v3.095h-1.407Zm9.129.113c-.578 0-1.08-.116-1.508-.349a2.478 2.478 0 0 1-.991-1.013c-.233-.435-.349-.945-.349-1.53 0-.586.116-1.089.349-1.51.233-.427.563-.753.99-.979.428-.232.931-.348 1.509-.348.353 0 .702.056 1.047.168.345.113.63.27.855.473l-.416.98a2.057 2.057 0 0 0-.664-.395 1.984 1.984 0 0 0-.698-.134c-.488 0-.867.153-1.137.461-.263.3-.394.732-.394 1.294 0 .556.131.995.394 1.318.27.315.649.472 1.137.472.217 0 .45-.045.698-.135.247-.09.469-.225.664-.405l.416.99a2.577 2.577 0 0 1-.866.473 3.333 3.333 0 0 1-1.036.17Zm3.349 1.914 1.013-2.252-2.285-5.279h1.497l1.542 3.85 1.576-3.85h1.418l-3.309 7.53h-1.452Z" fill="#333"/><path transform="translate(9.866 42.367)" fill="url(#b)" d="M0 0h437.268v155.858H0z"/><path fill="#000" fill-opacity=".1" d="M155.333 42.367h.866v155.858h-.866zM300.801 42.367h.866v155.858h-.866zM46.233 42.367h.866v155.858h-.866zM191.7 42.367h.866v155.858h-.866zM337.168 42.367h.866v155.858h-.866zM82.6 42.367h.866v155.858H82.6zM228.067 42.367h.866v155.858h-.866zM373.535 42.367h.866v155.858h-.866zM118.967 42.367h.866v155.858h-.866zM264.434 42.367h.866v155.858h-.866zM409.901 42.367h.866v155.858h-.866zM28.049 42.367h.866v155.858h-.866zM173.517 42.367h.866v155.858h-.866zM318.984 42.367h.866v155.858h-.866zM64.416 42.367h.866v155.858h-.866zM209.884 42.367h.866v155.858h-.866zM355.351 42.367h.866v155.858h-.866zM100.783 42.367h.866v155.858h-.866zM246.251 42.367h.866v155.858h-.866zM391.718 42.367h.866v155.858h-.866zM137.15 42.367h.866v155.858h-.866zM282.617 42.367h.866v155.858h-.866zM428.085 42.367h.866v155.858h-.866z"/><circle cx="28.572" cy="171.523" r="2.696" fill="#CBDFDC"/><circle cx="246.233" cy="152.654" r="2.696" fill="#CBDFDC"/><circle cx="192.323" cy="133.786" r="2.696" fill="#CBDFDC"/><circle cx="155.259" cy="114.917" r="2.696" fill="#CBDFDC"/><circle cx="192.323" cy="77.18" r="2.696" fill="#CBDFDC"/><circle cx="83.156" cy="77.18" r="2.696" fill="#CBDFDC"/><circle cx="210.518" cy="58.312" r="2.696" fill="#CBDFDC"/><circle cx="46.766" cy="171.523" r="2.696" fill="#CBDFDC"/><circle cx="264.427" cy="152.654" r="2.696" fill="#CBDFDC"/><circle cx="337.207" cy="152.654" r="2.696" fill="#CBDFDC"/><circle cx="210.518" cy="133.786" r="2.696" fill="#CBDFDC"/><circle cx="337.207" cy="114.917" r="2.696" fill="#CBDFDC"/><circle cx="356.074" cy="96.048" r="2.696" fill="#CBDFDC"/><circle cx="374.27" cy="77.18" r="2.696" fill="#CBDFDC"/><circle cx="392.463" cy="58.312" r="2.696" fill="#CBDFDC"/><circle cx="173.455" cy="114.917" r="2.696" fill="#CBDFDC"/><circle cx="210.518" cy="77.18" r="2.696" fill="#CBDFDC"/><circle cx="228.039" cy="58.312" r="2.696" fill="#CBDFDC"/><circle cx="173.455" cy="96.048" r="2.696" fill="#CBDFDC"/><circle cx="46.766" cy="114.917" r="2.696" fill="#CBDFDC"/><circle cx="64.961" cy="96.048" r="2.696" fill="#CBDFDC"/><circle cx="65.635" cy="171.523" r="2.696" fill="#CBDFDC"/><circle cx="283.296" cy="152.654" r="2.696" fill="#37D5D3"/><circle cx="283.296" cy="171.523" r="2.696" fill="#37D5D3"/><circle cx="356.074" cy="152.654" r="2.696" fill="#CBDFDC"/><circle cx="228.039" cy="133.786" r="2.696" fill="#CBDFDC"/><circle cx="356.074" cy="114.917" r="2.696" fill="#CBDFDC"/><circle cx="374.27" cy="96.048" r="2.696" fill="#CBDFDC"/><circle cx="392.463" cy="77.18" r="2.696" fill="#CBDFDC"/><circle cx="410.658" cy="58.312" r="2.696" fill="#CBDFDC"/><circle cx="192.323" cy="114.917" r="2.696" fill="#CBDFDC"/><circle cx="228.039" cy="77.18" r="2.696" fill="#CBDFDC"/><circle cx="246.233" cy="58.312" r="2.696" fill="#CBDFDC"/><circle cx="192.323" cy="96.048" r="2.696" fill="#CBDFDC"/><circle cx="319.686" cy="171.523" r="2.696" fill="#CBDFDC"/><circle cx="337.207" cy="171.523" r="2.696" fill="#CBDFDC"/><circle cx="428.853" cy="171.523" r="2.696" fill="#CBDFDC"/><circle cx="374.269" cy="171.523" r="4.717" fill="#CBDFDC"/><circle cx="337.206" cy="133.785" r="4.717" fill="#CBDFDC"/><circle cx="319.685" cy="114.917" r="4.043" fill="#CBDFDC"/><circle cx="319.685" cy="96.048" r="4.043" fill="#CBDFDC"/><circle cx="356.075" cy="58.312" r="4.043" fill="#CBDFDC"/><circle cx="337.206" cy="96.048" r="4.043" fill="#CBDFDC"/><circle cx="337.206" cy="77.18" r="4.043" fill="#CBDFDC"/><circle cx="356.075" cy="77.18" r="4.043" fill="#CBDFDC"/><circle cx="374.269" cy="58.312" r="4.043" fill="#CBDFDC"/><circle cx="319.686" cy="133.785" r="4.717" fill="#CBDFDC"/><circle cx="301.49" cy="133.785" r="4.717" fill="#37D5D3"/><circle cx="301.491" cy="171.522" r="3.369" fill="#37D5D3"/><circle cx="283.296" cy="133.785" r="7.413" fill="#37D5D3"/><circle cx="264.428" cy="133.785" r="6.739" fill="#CBDFDC"/><circle cx="246.233" cy="114.917" r="6.739" fill="#CBDFDC"/><circle cx="264.428" cy="96.049" r="6.739" fill="#CBDFDC"/><circle cx="283.296" cy="96.048" r="7.413" fill="#37D5D3"/><circle cx="319.685" cy="58.312" r="6.739" fill="#CBDFDC"/><circle cx="264.428" cy="114.917" r="6.739" fill="#CBDFDC"/><circle cx="246.233" cy="133.786" r="5.391" fill="#CBDFDC"/><circle cx="228.039" cy="114.917" r="6.065" fill="#CBDFDC"/><circle cx="301.492" cy="152.654" r="6.065" fill="#37D5D3"/><circle cx="246.233" cy="96.048" r="6.065" fill="#CBDFDC"/><circle cx="283.297" cy="58.312" r="6.065" fill="#37D5D3"/><circle cx="264.428" cy="77.18" r="6.065" fill="#CBDFDC"/><circle cx="283.296" cy="77.18" r="6.739" fill="#37D5D3"/><circle cx="301.491" cy="77.18" r="6.739" fill="#37D5D3"/><circle cx="264.428" cy="58.311" r="5.391" fill="#CBDFDC"/><circle cx="246.233" cy="77.18" r="5.391" fill="#CBDFDC"/><circle cx="210.518" cy="114.917" r="5.391" fill="#CBDFDC"/><circle cx="228.038" cy="96.049" r="5.391" fill="#CBDFDC"/><circle cx="283.296" cy="114.917" r="5.391" fill="#37D5D3"/><circle cx="301.491" cy="114.917" r="5.391" fill="#37D5D3"/><circle cx="301.49" cy="96.049" r="4.717" fill="#37D5D3"/><circle cx="301.491" cy="58.311" r="5.391" fill="#37D5D3"/><circle cx="337.206" cy="58.312" r="4.717" fill="#CBDFDC"/><circle cx="319.686" cy="77.18" r="4.717" fill="#CBDFDC"/><circle cx="356.075" cy="133.786" r="4.043" fill="#CBDFDC"/><circle cx="392.464" cy="171.522" r="4.043" fill="#CBDFDC"/><circle cx="410.658" cy="171.522" r="4.043" fill="#CBDFDC"/><path fill="#F40" fill-opacity=".7" d="M273.093 42.367h.866v157.59h-.866zM309.46 42.367h.866v157.59h-.866z"/><path fill="#000" fill-opacity=".1" d="M9.866 198.225h437.268v1.732H9.866zM9.866 41.501h437.268v.866H9.866z"/><path d="M25.452 218.122c-.722 0-1.25-.275-1.585-.823-.329-.548-.493-1.316-.493-2.303 0-.987.164-1.755.493-2.303.335-.549.863-.823 1.585-.823.721 0 1.246.274 1.576.823.334.548.502 1.316.502 2.303 0 .987-.168 1.755-.502 2.303-.33.548-.855.823-1.576.823Zm0-.632c.236 0 .438-.049.606-.148.167-.098.303-.236.407-.415.104-.179.179-.39.225-.632a3.86 3.86 0 0 0 .078-.806v-.987c0-.294-.026-.563-.078-.805a1.998 1.998 0 0 0-.225-.632 1.125 1.125 0 0 0-.407-.416 1.18 1.18 0 0 0-.606-.147 1.18 1.18 0 0 0-.606.147 1.125 1.125 0 0 0-.407.416c-.104.179-.182.39-.234.632-.046.242-.07.511-.07.805v.987c0 .295.024.563.07.806.052.242.13.453.234.632.104.179.24.317.407.415.167.099.369.148.606.148Zm3.858.632c-.185 0-.32-.047-.407-.139a.53.53 0 0 1-.121-.364v-.112c0-.15.04-.271.121-.364.087-.092.222-.138.407-.138.185 0 .318.046.398.138.087.093.13.214.13.364v.112a.509.509 0 0 1-.13.364c-.08.092-.213.139-.398.139Zm0-3.559c-.185 0-.32-.046-.407-.139a.53.53 0 0 1-.121-.363v-.113c0-.15.04-.271.121-.364.087-.092.222-.138.407-.138.185 0 .318.046.398.138.087.093.13.214.13.364v.113c0 .15-.043.271-.13.363-.08.093-.213.139-.398.139Zm3.862 3.559c-.722 0-1.25-.275-1.585-.823-.329-.548-.493-1.316-.493-2.303 0-.987.164-1.755.493-2.303.335-.549.863-.823 1.585-.823.721 0 1.247.274 1.576.823.335.548.502 1.316.502 2.303 0 .987-.167 1.755-.502 2.303-.33.548-.855.823-1.576.823Zm0-.632c.236 0 .439-.049.606-.148.167-.098.303-.236.407-.415.104-.179.179-.39.225-.632a3.86 3.86 0 0 0 .078-.806v-.987c0-.294-.026-.563-.078-.805a1.998 1.998 0 0 0-.225-.632 1.125 1.125 0 0 0-.407-.416 1.18 1.18 0 0 0-.606-.147 1.18 1.18 0 0 0-.606.147 1.125 1.125 0 0 0-.407.416c-.104.179-.182.39-.234.632-.046.242-.07.511-.07.805v.987c0 .295.024.563.07.806.052.242.13.453.234.632.104.179.24.317.407.415.167.099.37.148.606.148Zm5.192.632c-.722 0-1.25-.275-1.585-.823-.329-.548-.493-1.316-.493-2.303 0-.987.164-1.755.493-2.303.335-.549.863-.823 1.585-.823.721 0 1.247.274 1.576.823.335.548.502 1.316.502 2.303 0 .987-.167 1.755-.502 2.303-.33.548-.855.823-1.576.823Zm0-.632c.236 0 .439-.049.606-.148.167-.098.303-.236.407-.415.104-.179.179-.39.225-.632a3.86 3.86 0 0 0 .078-.806v-.987c0-.294-.026-.563-.078-.805a1.998 1.998 0 0 0-.225-.632 1.125 1.125 0 0 0-.407-.416 1.18 1.18 0 0 0-.606-.147 1.18 1.18 0 0 0-.606.147 1.125 1.125 0 0 0-.407.416c-.104.179-.182.39-.234.632-.046.242-.07.511-.07.805v.987c0 .295.024.563.07.806.052.242.13.453.234.632.104.179.24.317.407.415.167.099.37.148.606.148ZM101.432 218.018v-1.187h-2.918v-.64l2.529-4.217h1.082v4.251H103v.606h-.875v1.187h-.693Zm-2.234-1.793h2.234v-3.688h-.043l-2.19 3.688Zm5.444 1.897c-.185 0-.321-.047-.407-.139a.532.532 0 0 1-.122-.364v-.112c0-.15.041-.271.122-.364.086-.092.222-.138.407-.138.184 0 .317.046.398.138.086.093.13.214.13.364v.112c0 .15-.044.272-.13.364-.081.092-.214.139-.398.139Zm0-3.559c-.185 0-.321-.046-.407-.139a.53.53 0 0 1-.122-.363v-.113c0-.15.041-.271.122-.364.086-.092.222-.138.407-.138.184 0 .317.046.398.138.086.093.13.214.13.364v.113a.51.51 0 0 1-.13.363c-.081.093-.214.139-.398.139Zm3.861 3.559c-.721 0-1.249-.275-1.584-.823-.329-.548-.494-1.316-.494-2.303 0-.987.165-1.755.494-2.303.335-.549.863-.823 1.584-.823.722 0 1.247.274 1.576.823.335.548.502 1.316.502 2.303 0 .987-.167 1.755-.502 2.303-.329.548-.854.823-1.576.823Zm0-.632c.237 0 .439-.05.606-.148.168-.098.303-.236.407-.415a1.99 1.99 0 0 0 .225-.632c.052-.243.078-.511.078-.806v-.987c0-.294-.026-.563-.078-.805a1.99 1.99 0 0 0-.225-.632 1.122 1.122 0 0 0-.407-.416 1.178 1.178 0 0 0-.606-.147c-.236 0-.438.049-.606.147a1.13 1.13 0 0 0-.407.416c-.104.179-.182.39-.234.632a4.33 4.33 0 0 0-.069.805v.987c0 .295.023.563.069.806.052.242.13.453.234.632.104.179.24.317.407.415.168.098.37.148.606.148Zm5.192.632c-.721 0-1.25-.275-1.584-.823-.329-.548-.494-1.316-.494-2.303 0-.987.165-1.755.494-2.303.334-.549.863-.823 1.584-.823.722 0 1.247.274 1.576.823.335.548.502 1.316.502 2.303 0 .987-.167 1.755-.502 2.303-.329.548-.854.823-1.576.823Zm0-.632c.237 0 .439-.05.606-.148.168-.098.303-.236.407-.415a1.99 1.99 0 0 0 .225-.632c.052-.243.078-.511.078-.806v-.987c0-.294-.026-.563-.078-.805a1.99 1.99 0 0 0-.225-.632 1.122 1.122 0 0 0-.407-.416 1.178 1.178 0 0 0-.606-.147c-.237 0-.439.049-.606.147a1.13 1.13 0 0 0-.407.416c-.104.179-.182.39-.234.632a4.33 4.33 0 0 0-.069.805v.987c0 .295.023.563.069.806.052.242.13.453.234.632.104.179.24.317.407.415.167.098.369.148.606.148ZM176.114 218.122c-.346 0-.649-.044-.909-.13a2.038 2.038 0 0 1-.658-.373 1.567 1.567 0 0 1-.398-.554 1.813 1.813 0 0 1-.13-.692c0-.416.113-.745.338-.988.225-.242.519-.412.883-.51v-.07a1.599 1.599 0 0 1-.762-.528 1.449 1.449 0 0 1-.277-.892c0-.462.167-.828.502-1.099.335-.277.805-.416 1.411-.416.607 0 1.077.139 1.412.416.335.271.502.637.502 1.099 0 .347-.095.644-.286.892a1.55 1.55 0 0 1-.753.528v.07c.364.098.658.268.883.51.225.243.338.572.338.988 0 .248-.046.479-.139.692a1.431 1.431 0 0 1-.398.554 1.93 1.93 0 0 1-.649.373c-.26.086-.563.13-.91.13Zm0-.632c.422 0 .748-.093.979-.278.231-.19.346-.458.346-.805v-.182c0-.346-.115-.612-.346-.796-.231-.191-.557-.286-.979-.286-.421 0-.747.095-.978.286-.231.184-.346.45-.346.796v.182c0 .347.115.615.346.805.231.185.557.278.978.278Zm0-2.953c.381 0 .67-.081.866-.243.197-.161.295-.398.295-.71v-.129c0-.312-.098-.549-.295-.71-.196-.162-.485-.243-.866-.243s-.669.081-.865.243c-.197.161-.295.398-.295.71v.129c0 .312.098.549.295.71.196.162.484.243.865.243Zm3.859 3.585c-.185 0-.32-.047-.407-.139a.532.532 0 0 1-.121-.364v-.112c0-.15.04-.271.121-.364.087-.092.222-.138.407-.138.185 0 .317.046.398.138a.51.51 0 0 1 .13.364v.112c0 .15-.043.272-.13.364-.081.092-.213.139-.398.139Zm0-3.559c-.185 0-.32-.046-.407-.139a.529.529 0 0 1-.121-.363v-.113c0-.15.04-.271.121-.364.087-.092.222-.138.407-.138.185 0 .317.046.398.138a.51.51 0 0 1 .13.364v.113c0 .15-.043.271-.13.363-.081.093-.213.139-.398.139Zm3.862 3.559c-.722 0-1.25-.275-1.585-.823-.329-.548-.493-1.316-.493-2.303 0-.987.164-1.755.493-2.303.335-.549.863-.823 1.585-.823.721 0 1.246.274 1.576.823.334.548.502 1.316.502 2.303 0 .987-.168 1.755-.502 2.303-.33.548-.855.823-1.576.823Zm0-.632c.236 0 .438-.05.606-.148.167-.098.303-.236.407-.415a1.99 1.99 0 0 0 .225-.632c.052-.243.078-.511.078-.806v-.987c0-.294-.026-.563-.078-.805a1.99 1.99 0 0 0-.225-.632 1.13 1.13 0 0 0-.407-.416 1.183 1.183 0 0 0-.606-.147c-.237 0-.439.049-.606.147a1.114 1.114 0 0 0-.407.416c-.104.179-.182.39-.234.632-.046.242-.07.511-.07.805v.987c0 .295.024.563.07.806.052.242.13.453.234.632.103.179.239.317.407.415.167.098.369.148.606.148Zm5.192.632c-.722 0-1.25-.275-1.585-.823-.329-.548-.494-1.316-.494-2.303 0-.987.165-1.755.494-2.303.335-.549.863-.823 1.585-.823.721 0 1.246.274 1.575.823.335.548.503 1.316.503 2.303 0 .987-.168 1.755-.503 2.303-.329.548-.854.823-1.575.823Zm0-.632c.236 0 .438-.05.606-.148.167-.098.303-.236.407-.415.103-.179.179-.39.225-.632.052-.243.078-.511.078-.806v-.987c0-.294-.026-.563-.078-.805a2.015 2.015 0 0 0-.225-.632 1.13 1.13 0 0 0-.407-.416 1.183 1.183 0 0 0-.606-.147c-.237 0-.439.049-.607.147a1.13 1.13 0 0 0-.407.416 2.18 2.18 0 0 0-.233.632c-.047.242-.07.511-.07.805v.987c0 .295.023.563.07.806.052.242.13.453.233.632.104.179.24.317.407.415.168.098.37.148.607.148ZM249.61 218.018v-.641h1.689v-4.866h-.061l-1.524 1.42-.424-.459 1.602-1.498h1.134v5.403h1.559v.641h-3.975Zm9.045 0h-3.966v-.745l1.975-1.818c.283-.26.519-.534.71-.823.19-.294.285-.589.285-.883v-.104c0-.335-.092-.606-.277-.814-.184-.208-.464-.312-.84-.312-.184 0-.346.026-.484.078-.139.052-.26.124-.364.217a1.297 1.297 0 0 0-.251.329 1.986 1.986 0 0 0-.156.398l-.649-.251a2.59 2.59 0 0 1 .233-.52c.104-.173.231-.326.381-.458a1.87 1.87 0 0 1 .554-.321c.22-.081.477-.121.771-.121.294 0 .557.043.788.13a1.537 1.537 0 0 1 .935.918c.087.213.13.45.13.71 0 .236-.035.456-.104.658a2.514 2.514 0 0 1-.268.58 3.464 3.464 0 0 1-.425.528 9 9 0 0 1-.528.52l-1.628 1.463h3.178v.641Zm1.841.104c-.185 0-.32-.047-.407-.139a.532.532 0 0 1-.121-.364v-.112c0-.15.04-.271.121-.364.087-.092.222-.138.407-.138.185 0 .318.046.398.138a.51.51 0 0 1 .13.364v.112c0 .15-.043.272-.13.364-.08.092-.213.139-.398.139Zm0-3.559c-.185 0-.32-.046-.407-.139a.529.529 0 0 1-.121-.363v-.113c0-.15.04-.271.121-.364.087-.092.222-.138.407-.138.185 0 .318.046.398.138a.51.51 0 0 1 .13.364v.113c0 .15-.043.271-.13.363-.08.093-.213.139-.398.139Zm3.862 3.559c-.722 0-1.25-.275-1.585-.823-.329-.548-.493-1.316-.493-2.303 0-.987.164-1.755.493-2.303.335-.549.863-.823 1.585-.823.721 0 1.247.274 1.576.823.335.548.502 1.316.502 2.303 0 .987-.167 1.755-.502 2.303-.329.548-.855.823-1.576.823Zm0-.632c.237 0 .439-.05.606-.148.167-.098.303-.236.407-.415a1.99 1.99 0 0 0 .225-.632c.052-.243.078-.511.078-.806v-.987c0-.294-.026-.563-.078-.805a1.99 1.99 0 0 0-.225-.632 1.13 1.13 0 0 0-.407-.416 1.178 1.178 0 0 0-.606-.147c-.237 0-.439.049-.606.147a1.122 1.122 0 0 0-.407.416c-.104.179-.182.39-.234.632a4.33 4.33 0 0 0-.069.805v.987c0 .295.023.563.069.806.052.242.13.453.234.632.104.179.239.317.407.415.167.098.369.148.606.148Zm5.192.632c-.722 0-1.25-.275-1.585-.823-.329-.548-.493-1.316-.493-2.303 0-.987.164-1.755.493-2.303.335-.549.863-.823 1.585-.823.721 0 1.247.274 1.576.823.334.548.502 1.316.502 2.303 0 .987-.168 1.755-.502 2.303-.329.548-.855.823-1.576.823Zm0-.632c.236 0 .438-.05.606-.148.167-.098.303-.236.407-.415a1.99 1.99 0 0 0 .225-.632c.052-.243.078-.511.078-.806v-.987c0-.294-.026-.563-.078-.805a1.99 1.99 0 0 0-.225-.632 1.13 1.13 0 0 0-.407-.416 1.183 1.183 0 0 0-.606-.147c-.237 0-.439.049-.606.147a1.122 1.122 0 0 0-.407.416c-.104.179-.182.39-.234.632a4.33 4.33 0 0 0-.069.805v.987c0 .295.023.563.069.806.052.242.13.453.234.632.104.179.239.317.407.415.167.098.369.148.606.148ZM330.137 218.018v-.641h1.688v-4.866h-.06l-1.524 1.42-.425-.459 1.602-1.498h1.135v5.403h1.558v.641h-3.974Zm7.036.104c-.312 0-.595-.052-.849-.156a1.899 1.899 0 0 1-.64-.459 2.101 2.101 0 0 1-.399-.736 3.188 3.188 0 0 1-.138-.97c0-.45.066-.872.199-1.264a4.797 4.797 0 0 1 1.212-1.948c.254-.254.502-.459.745-.615h.935c-.323.237-.612.467-.866.693a5.083 5.083 0 0 0-.667.71c-.19.242-.352.505-.484.788-.133.277-.24.591-.321.943l.043.018c.145-.249.329-.453.555-.615.23-.168.531-.251.9-.251.26 0 .499.043.719.13.219.086.407.21.563.372.155.162.277.358.363.589.093.231.139.488.139.77 0 .295-.049.566-.147.814a1.781 1.781 0 0 1-1.039 1.039 2.207 2.207 0 0 1-.823.148Zm-.009-.632c.399 0 .707-.11.927-.33.225-.219.338-.533.338-.943v-.07c0-.409-.113-.724-.338-.943-.22-.22-.528-.329-.927-.329-.398 0-.71.109-.935.329-.219.219-.329.534-.329.943v.07c0 .41.11.724.329.943.225.22.537.33.935.33Zm3.859.632c-.185 0-.321-.047-.407-.139a.532.532 0 0 1-.121-.364v-.112c0-.15.04-.271.121-.364.086-.092.222-.138.407-.138.184 0 .317.046.398.138a.51.51 0 0 1 .13.364v.112c0 .15-.043.272-.13.364-.081.092-.214.139-.398.139Zm0-3.559c-.185 0-.321-.046-.407-.139a.529.529 0 0 1-.121-.363v-.113c0-.15.04-.271.121-.364.086-.092.222-.138.407-.138.184 0 .317.046.398.138a.51.51 0 0 1 .13.364v.113c0 .15-.043.271-.13.363-.081.093-.214.139-.398.139Zm3.861 3.559c-.721 0-1.249-.275-1.584-.823-.329-.548-.494-1.316-.494-2.303 0-.987.165-1.755.494-2.303.335-.549.863-.823 1.584-.823.722 0 1.247.274 1.576.823.335.548.503 1.316.503 2.303 0 .987-.168 1.755-.503 2.303-.329.548-.854.823-1.576.823Zm0-.632c.237 0 .439-.05.607-.148.167-.098.303-.236.407-.415.103-.179.179-.39.225-.632.052-.243.078-.511.078-.806v-.987c0-.294-.026-.563-.078-.805a2.015 2.015 0 0 0-.225-.632 1.13 1.13 0 0 0-.407-.416 1.184 1.184 0 0 0-.607-.147c-.236 0-.438.049-.606.147a1.13 1.13 0 0 0-.407.416 2.18 2.18 0 0 0-.233.632c-.047.242-.07.511-.07.805v.987c0 .295.023.563.07.806.052.242.13.453.233.632.104.179.24.317.407.415.168.098.37.148.606.148Zm5.192.632c-.721 0-1.249-.275-1.584-.823-.329-.548-.494-1.316-.494-2.303 0-.987.165-1.755.494-2.303.335-.549.863-.823 1.584-.823.722 0 1.247.274 1.576.823.335.548.502 1.316.502 2.303 0 .987-.167 1.755-.502 2.303-.329.548-.854.823-1.576.823Zm0-.632c.237 0 .439-.05.606-.148.168-.098.304-.236.407-.415.104-.179.179-.39.226-.632.052-.243.078-.511.078-.806v-.987c0-.294-.026-.563-.078-.805a2.015 2.015 0 0 0-.226-.632 1.114 1.114 0 0 0-.407-.416 1.178 1.178 0 0 0-.606-.147c-.236 0-.438.049-.606.147a1.13 1.13 0 0 0-.407.416c-.104.179-.182.39-.233.632-.047.242-.07.511-.07.805v.987c0 .295.023.563.07.806.051.242.129.453.233.632.104.179.24.317.407.415.168.098.37.148.606.148ZM414.517 218.018h-3.966v-.745l1.974-1.818c.283-.26.52-.534.71-.823.191-.294.286-.589.286-.883v-.104c0-.335-.093-.606-.277-.814-.185-.208-.465-.312-.84-.312-.185 0-.347.026-.485.078-.139.052-.26.124-.364.217a1.297 1.297 0 0 0-.251.329 2.114 2.114 0 0 0-.156.398l-.649-.251c.058-.179.136-.352.234-.52.104-.173.231-.326.381-.458.156-.133.34-.24.554-.321.219-.081.476-.121.77-.121.295 0 .558.043.788.13.231.086.425.208.581.364.155.155.274.34.355.554.086.213.129.45.129.71 0 .236-.034.456-.103.658a2.518 2.518 0 0 1-.269.58 3.455 3.455 0 0 1-.424.528 9.667 9.667 0 0 1-.528.52l-1.628 1.463h3.178v.641Zm3.174.104c-.722 0-1.25-.275-1.585-.823-.329-.548-.493-1.316-.493-2.303 0-.987.164-1.755.493-2.303.335-.549.863-.823 1.585-.823s1.247.274 1.576.823c.335.548.502 1.316.502 2.303 0 .987-.167 1.755-.502 2.303-.329.548-.854.823-1.576.823Zm0-.632c.237 0 .439-.05.606-.148.167-.098.303-.236.407-.415a1.99 1.99 0 0 0 .225-.632c.052-.243.078-.511.078-.806v-.987c0-.294-.026-.563-.078-.805a1.99 1.99 0 0 0-.225-.632 1.13 1.13 0 0 0-.407-.416 1.178 1.178 0 0 0-.606-.147c-.237 0-.439.049-.606.147a1.122 1.122 0 0 0-.407.416c-.104.179-.182.39-.234.632a4.33 4.33 0 0 0-.069.805v.987c0 .295.023.563.069.806.052.242.13.453.234.632.104.179.239.317.407.415.167.098.369.148.606.148Zm3.858.632c-.184 0-.32-.047-.407-.139a.537.537 0 0 1-.121-.364v-.112c0-.15.041-.271.121-.364.087-.092.223-.138.407-.138.185 0 .318.046.399.138.086.093.13.214.13.364v.112c0 .15-.044.272-.13.364-.081.092-.214.139-.399.139Zm0-3.559c-.184 0-.32-.046-.407-.139a.534.534 0 0 1-.121-.363v-.113c0-.15.041-.271.121-.364.087-.092.223-.138.407-.138.185 0 .318.046.399.138.086.093.13.214.13.364v.113a.51.51 0 0 1-.13.363c-.081.093-.214.139-.399.139Zm3.862 3.559c-.721 0-1.25-.275-1.584-.823-.329-.548-.494-1.316-.494-2.303 0-.987.165-1.755.494-2.303.334-.549.863-.823 1.584-.823.722 0 1.247.274 1.576.823.335.548.502 1.316.502 2.303 0 .987-.167 1.755-.502 2.303-.329.548-.854.823-1.576.823Zm0-.632c.237 0 .439-.05.606-.148.168-.098.303-.236.407-.415a1.99 1.99 0 0 0 .225-.632c.052-.243.078-.511.078-.806v-.987c0-.294-.026-.563-.078-.805a1.99 1.99 0 0 0-.225-.632 1.122 1.122 0 0 0-.407-.416 1.178 1.178 0 0 0-.606-.147c-.237 0-.439.049-.606.147a1.13 1.13 0 0 0-.407.416c-.104.179-.182.39-.234.632a4.33 4.33 0 0 0-.069.805v.987c0 .295.023.563.069.806.052.242.13.453.234.632.104.179.24.317.407.415.167.098.369.148.606.148Zm5.192.632c-.722 0-1.25-.275-1.585-.823-.329-.548-.493-1.316-.493-2.303 0-.987.164-1.755.493-2.303.335-.549.863-.823 1.585-.823s1.247.274 1.576.823c.335.548.502 1.316.502 2.303 0 .987-.167 1.755-.502 2.303-.329.548-.854.823-1.576.823Zm0-.632c.237 0 .439-.05.606-.148.168-.098.303-.236.407-.415a1.99 1.99 0 0 0 .225-.632c.052-.243.078-.511.078-.806v-.987c0-.294-.026-.563-.078-.805a1.99 1.99 0 0 0-.225-.632 1.122 1.122 0 0 0-.407-.416 1.178 1.178 0 0 0-.606-.147c-.237 0-.439.049-.606.147a1.13 1.13 0 0 0-.407.416c-.104.179-.182.39-.234.632a4.33 4.33 0 0 0-.069.805v.987c0 .295.023.563.069.806.052.242.13.453.234.632.104.179.24.317.407.415.167.098.369.148.606.148Z" fill="#999"/><g filter="url(#c)"><circle cx="273.093" cy="199.957" r="6.927" fill="#fff"/><circle cx="273.093" cy="199.957" r="6.927" stroke="#000" stroke-opacity=".1" stroke-width=".866"/></g><rect x="271.361" y="196.493" width=".866" height="6.927" rx=".433" fill="#CCC"/><rect x="273.959" y="196.493" width=".866" height="6.927" rx=".433" fill="#CCC"/><g filter="url(#d)"><circle cx="310.325" cy="199.957" r="6.927" fill="#fff"/><circle cx="310.325" cy="199.957" r="6.927" stroke="#000" stroke-opacity=".1" stroke-width=".866"/></g><rect x="308.594" y="196.493" width=".866" height="6.927" rx=".433" fill="#CCC"/><rect x="311.191" y="196.493" width=".866" height="6.927" rx=".433" fill="#CCC"/><rect x="357.083" y="15.525" width="77.513" height="18.195" rx="2.598" fill="#000" fill-opacity=".05"/><g clip-path="url(#e)" fill="#666"><path d="M366.608 21.53a.31.31 0 0 1 .309.31v2.473h1.546a.309.309 0 1 1 0 .619h-1.855a.31.31 0 0 1-.31-.31V21.84c0-.17.139-.31.31-.31Z"/><path fill-rule="evenodd" clip-rule="evenodd" d="M366.608 28.952a4.33 4.33 0 1 0 0-8.658 4.33 4.33 0 0 0 0 8.658Zm0-.619a3.71 3.71 0 1 0 0-7.42 3.71 3.71 0 0 0 0 7.42Z"/></g><path d="M375.848 27.122v-.606h1.394v-4.64l-1.1.692-.303-.528 1.602-1.022h.511v5.498h1.307v.606h-3.411Zm6.646.078c-.404 0-.788-.06-1.151-.182a2.503 2.503 0 0 1-.918-.545l.26-.563c.282.231.568.398.857.502.288.104.6.156.935.156.439 0 .773-.095 1.004-.286.237-.196.355-.482.355-.857 0-.358-.118-.629-.355-.814-.236-.184-.58-.277-1.03-.277h-.901v-.615h.84c.393 0 .702-.1.927-.303.231-.207.346-.49.346-.848 0-.318-.107-.563-.32-.736-.208-.173-.505-.26-.892-.26-.635 0-1.189.23-1.662.693l-.26-.555c.225-.242.511-.43.857-.562a3.002 3.002 0 0 1 1.108-.208c.589 0 1.048.138 1.377.415.335.278.502.662.502 1.152 0 .34-.086.64-.26.9a1.471 1.471 0 0 1-.718.555c.363.098.646.28.848.545.202.26.303.583.303.97 0 .525-.184.944-.554 1.256-.363.311-.863.467-1.498.467Zm3.209-3.403v-.883h.884v.883h-.884Zm0 3.325v-.883h.884v.883h-.884Zm3.953.078c-.404 0-.788-.06-1.151-.182a2.503 2.503 0 0 1-.918-.545l.26-.563c.283.231.568.398.857.502.289.104.6.156.935.156.439 0 .774-.095 1.004-.286.237-.196.356-.482.356-.857 0-.358-.119-.629-.356-.814-.236-.184-.58-.277-1.03-.277h-.9v-.615h.839c.393 0 .702-.1.927-.303.231-.207.346-.49.346-.848 0-.318-.106-.563-.32-.736-.208-.173-.505-.26-.892-.26-.635 0-1.189.23-1.662.693l-.26-.555c.225-.242.511-.43.857-.562a3.002 3.002 0 0 1 1.108-.208c.589 0 1.048.138 1.377.415.335.278.502.662.502 1.152 0 .34-.086.64-.259.9a1.478 1.478 0 0 1-.719.555c.364.098.646.28.848.545.203.26.304.583.304.97 0 .525-.185.944-.555 1.256-.363.311-.863.467-1.498.467Zm5.262 0c-.699 0-1.23-.268-1.594-.805-.363-.537-.545-1.313-.545-2.33 0-1.021.182-1.797.545-2.329.364-.53.895-.796 1.594-.796.704 0 1.235.265 1.593.796.363.526.545 1.3.545 2.321 0 1.022-.184 1.801-.554 2.338-.364.537-.892.805-1.584.805Zm0-.615c.484 0 .842-.204 1.073-.614.237-.41.355-1.048.355-1.914 0-.866-.115-1.498-.346-1.896-.231-.404-.592-.606-1.082-.606-.485 0-.846.202-1.083.606-.231.404-.346 1.036-.346 1.896 0 .866.115 1.504.346 1.914.237.41.598.614 1.083.614Zm4.818-1.54v-.46h4.329v.46h-4.329Zm7.627 2.077v-.606h1.394v-4.64l-1.1.692-.303-.528 1.602-1.022h.511v5.498h1.307v.606h-3.411Zm7.382 0v-1.307h-2.814v-.537l2.935-4.26h.598v4.19h.909v.607h-.909v1.307h-.719Zm0-1.913v-3.022l-2.078 3.022h2.078Zm2.473-1.412v-.883h.883v.883h-.883Zm0 3.325v-.883h.883v.883h-.883Zm3.953.078c-.404 0-.788-.06-1.151-.182a2.503 2.503 0 0 1-.918-.545l.26-.563c.282.231.568.398.857.502.288.104.6.156.935.156.439 0 .773-.095 1.004-.286.237-.196.355-.482.355-.857 0-.358-.118-.629-.355-.814-.236-.184-.58-.277-1.03-.277h-.901v-.615h.84c.393 0 .702-.1.927-.303.231-.207.346-.49.346-.848 0-.318-.107-.563-.32-.736-.208-.173-.505-.26-.892-.26-.635 0-1.189.23-1.662.693l-.26-.555c.225-.242.511-.43.857-.562a3.002 3.002 0 0 1 1.108-.208c.589 0 1.048.138 1.377.415.335.278.502.662.502 1.152 0 .34-.086.64-.26.9a1.471 1.471 0 0 1-.718.555c.363.098.646.28.848.545.202.26.303.583.303.97 0 .525-.184.944-.554 1.256-.363.311-.863.467-1.498.467Zm5.261 0c-.698 0-1.229-.268-1.593-.805-.363-.537-.545-1.313-.545-2.33 0-1.021.182-1.797.545-2.329.364-.53.895-.796 1.593-.796.705 0 1.236.265 1.594.796.363.526.545 1.3.545 2.321 0 1.022-.185 1.801-.554 2.338-.364.537-.892.805-1.585.805Zm0-.615c.485 0 .843-.204 1.074-.614.237-.41.355-1.048.355-1.914 0-.866-.115-1.498-.346-1.896-.231-.404-.592-.606-1.083-.606-.484 0-.845.202-1.082.606-.231.404-.346 1.036-.346 1.896 0 .866.115 1.504.346 1.914.237.41.598.614 1.082.614Z" fill="#666"/><defs><filter id="a" x=".672" y=".448" width="455.655" height="242.649" filterUnits="userSpaceOnUse" color-interpolation-filters="sRGB"><feFlood flood-opacity="0" result="BackgroundImageFix"/><feColorMatrix in="SourceAlpha" values="0 0 0 0 0 0 0 0 0 0 0 0 0 0 0 0 0 0 127 0" result="hardAlpha"/><feOffset dy="2.776"/><feGaussianBlur stdDeviation="4.164"/><feColorMatrix values="0 0 0 0 0 0 0 0 0 0 0 0 0 0 0 0 0 0 0.1 0"/><feBlend in2="BackgroundImageFix" result="effect1_dropShadow_3666_74188"/><feColorMatrix in="SourceAlpha" values="0 0 0 0 0 0 0 0 0 0 0 0 0 0 0 0 0 0 127 0" result="hardAlpha"/><feOffset dy=".555"/><feGaussianBlur stdDeviation=".833"/><feColorMatrix values="0 0 0 0 0 0 0 0 0 0 0 0 0 0 0 0 0 0 0.05 0"/><feBlend in2="effect1_dropShadow_3666_74188" result="effect2_dropShadow_3666_74188"/><feBlend in="SourceGraphic" in2="effect2_dropShadow_3666_74188" result="shape"/></filter><filter id="c" x="263.135" y="190.865" width="19.915" height="19.915" filterUnits="userSpaceOnUse" color-interpolation-filters="sRGB"><feFlood flood-opacity="0" result="BackgroundImageFix"/><feColorMatrix in="SourceAlpha" values="0 0 0 0 0 0 0 0 0 0 0 0 0 0 0 0 0 0 127 0" result="hardAlpha"/><feOffset dy=".866"/><feGaussianBlur stdDeviation="1.299"/><feColorMatrix values="0 0 0 0 0 0 0 0 0 0 0 0 0 0 0 0 0 0 0.1 0"/><feBlend in2="BackgroundImageFix" result="effect1_dropShadow_3666_74188"/><feBlend in="SourceGraphic" in2="effect1_dropShadow_3666_74188" result="shape"/></filter><filter id="d" x="300.368" y="190.865" width="19.915" height="19.915" filterUnits="userSpaceOnUse" color-interpolation-filters="sRGB"><feFlood flood-opacity="0" result="BackgroundImageFix"/><feColorMatrix in="SourceAlpha" values="0 0 0 0 0 0 0 0 0 0 0 0 0 0 0 0 0 0 127 0" result="hardAlpha"/><feOffset dy=".866"/><feGaussianBlur stdDeviation="1.299"/><feColorMatrix values="0 0 0 0 0 0 0 0 0 0 0 0 0 0 0 0 0 0 0.1 0"/><feBlend in2="BackgroundImageFix" result="effect1_dropShadow_3666_74188"/><feBlend in="SourceGraphic" in2="effect1_dropShadow_3666_74188" result="shape"/></filter><linearGradient id="b" x1="218.634" y1="0" x2="218.634" y2="155.858" gradientUnits="userSpaceOnUse"><stop stop-color="#E7FBFB"/><stop offset="1" stop-color="#F4F8FA"/></linearGradient><clipPath id="e"><path fill="#fff" transform="translate(362.278 20.293)" d="M0 0h8.659v8.659H0z"/></clipPath></defs></svg>