<?xml version="1.0" encoding="UTF-8"?>
<svg width="48px" height="48px" viewBox="0 0 48 48" version="1.1" xmlns="http://www.w3.org/2000/svg" xmlns:xlink="http://www.w3.org/1999/xlink">
    <!-- Generator: Sketch 48.1 (47250) - http://www.bohemiancoding.com/sketch -->
    <title>illustration/testpyramid</title>
    <desc>Created with Sketch.</desc>
    <defs>
        <polygon id="path-1" points="32.6353153 16 41.1525156 30 7.08371448 30 15.6009148 16"></polygon>
    </defs>
    <g id="Symbols" stroke="none" stroke-width="1" fill="none" fill-rule="evenodd">
        <g id="illustration/testpyramid">
            <path d="M32.8381058,16 L15.8037052,16 L22.5819915,4.85830975 C23.1582169,3.91114922 24.4038782,3.60401909 25.3642539,4.17231541 C25.6496807,4.34121494 25.8885635,4.57681054 26.0598196,4.85830975 L32.8381058,16 Z" id="Combined-Shape" fill="#FBD178"></path>
            <path d="M40.8154973,30 L46.2732027,38.9710085 C46.8494282,39.918169 46.5380128,41.1466895 45.5776371,41.7149859 C45.2624695,41.9014843 44.9018342,42 44.5342887,42 L3.02790483,42 C1.90792392,42 1,41.1045695 1,40 C1,39.6375121 1.0998902,39.2818393 1.28899078,38.9710085 L6.74669621,30 L40.8154973,30 Z" id="Combined-Shape" fill="#61C1FD"></path>
            <mask id="mask-2" fill="white">
                <use xlink:href="#path-1"></use>
            </mask>
            <use id="Combined-Shape" fill="#AAD895" xlink:href="#path-1"></use>
        </g>
    </g>
</svg>