<svg xmlns="http://www.w3.org/2000/svg" width="642" height="402"><g fill="none" fill-rule="evenodd"><path fill="#FFF" stroke="#000" stroke-opacity=".05" d="M.5 2.81651046C.5 1.48392756 1.97404655.5 3.72291345.5H638.277087C640.025045.5 641.5 1.48353256 641.5 2.81651046V399.18349c0 1.332582-1.474047 2.31651-3.222913 2.31651H3.72291345C1.97495456 401.5.5 400.516467.5 399.18349V2.81651046z"/><path fill="#000" fill-opacity=".05" fill-rule="nonzero" d="M1 41h640.003906v1H1v-1zM140.003906 9h1v24h-1V9zm103.003906 0h1v24h-1V9z"/><path fill="#1EA7FD" d="M20.7559062 25.108c-.8320042 0-1.5579969-.1779982-2.178-.534-.6200031-.3560018-1.0959983-.8619967-1.428-1.518-.3320017-.6560033-.498-1.4199956-.498-2.292 0-.8720044.1659983-1.6339967.498-2.286.3320017-.6520033.8079969-1.1559982 1.428-1.512.6200031-.3560018 1.3459958-.534 2.178-.534.5680028 0 1.1039975.0879991 1.608.264.5040025.1760009.9279983.4239984 1.272.744l-.516 1.128c-.3840019-.3040015-.7639981-.5259993-1.14-.666-.3760019-.1400007-.7759979-.21-1.2-.21-.8160041 0-1.4459978.2639974-1.89.792-.4440022.5280026-.666 1.287995-.666 2.28 0 1.000005.2219978 1.7639974.666 2.292.4440022.5280026 1.0739959.792 1.89.792.4240021 0 .8239981-.0699993 1.2-.21.3760019-.1400007.7559981-.3619985 1.14-.666l.516 1.128c-.3440017.3200016-.7679975.5679991-1.272.744-.5040025.1760009-1.0399972.264-1.608.264zm6.564-6.12c.8240041 0 1.435998.199998 1.836.6.400002.400002.6 1.0159958.6 1.848V25h-1.428v-.9c-.1360007.3120016-.3499985.5559991-.642.732-.2920015.1760009-.6299981.264-1.014.264-.392002 0-.7479984-.0799992-1.068-.24-.3200016-.1600008-.5719991-.3799986-.756-.66-.1840009-.2800014-.276-.5919983-.276-.936 0-.4320022.1099989-.7719988.33-1.02.2200011-.2480012.5779975-.4279994 1.074-.54.4960025-.1120006 1.1799956-.168 2.052-.168h.3v-.276c0-.400002-.0859991-.6879991-.258-.864-.1720009-.1760009-.457998-.264-.858-.264-.3120016 0-.6379983.0539995-.978.162-.3400017.1080005-.6739984.257999-1.002.45l-.42-1.032c.3280016-.208001.7239977-.3799993 1.188-.516.4640023-.1360007.9039979-.204 1.32-.204zm-.348 5.028c.400002 0 .7259987-.1339987.978-.402s.378-.6139979.378-1.038v-.252h-.216c-.5360027 0-.9519985.0239998-1.248.072-.2960015.0480002-.5079994.1319994-.636.252-.1280006.1200006-.192.283999-.192.492 0 .2560013.0879991.4659992.264.63.1760009.1640008.3999986.246.672.246zm7.716-5.028c.7040035 0 1.2279983.199998 1.572.6.3440017.400002.516 1.003996.516 1.812V25h-1.5v-3.516c0-.4560023-.0859991-.787999-.258-.996s-.4419982-.312-.81-.312c-.4320022 0-.7779987.1359986-1.038.408-.2600013.2720014-.39.6359977-.39 1.092V25h-1.5v-5.868h1.464v.876c.200001-.3280016.4679983-.5799991.804-.756.3360017-.1760009.7159979-.264 1.14-.264zm7.728.156h1.476l-2.568 5.856h-1.308l-2.544-5.856h1.584l1.656 4.14 1.704-4.14zm4.632-.156c.8240041 0 1.435998.199998 1.836.6.400002.400002.6 1.0159958.6 1.848V25h-1.428v-.9c-.1360007.3120016-.3499985.5559991-.642.732-.2920015.1760009-.6299981.264-1.014.264-.392002 0-.7479984-.0799992-1.068-.24-.3200016-.1600008-.5719991-.3799986-.756-.66-.1840009-.2800014-.276-.5919983-.276-.936 0-.4320022.1099989-.7719988.33-1.02.2200011-.2480012.5779975-.4279994 1.074-.54.4960025-.1120006 1.1799956-.168 2.052-.168h.3v-.276c0-.400002-.0859991-.6879991-.258-.864-.1720009-.1760009-.457998-.264-.858-.264-.3120016 0-.6379983.0539995-.978.162-.3400017.1080005-.6739984.257999-1.002.45l-.42-1.032c.3280016-.208001.7239977-.3799993 1.188-.516.4640023-.1360007.9039979-.204 1.32-.204zm-.348 5.028c.400002 0 .7259987-.1339987.978-.402s.378-.6139979.378-1.038v-.252h-.216c-.5360027 0-.9519985.0239998-1.248.072-.2960015.0480002-.5079994.1319994-.636.252-.1280006.1200006-.192.283999-.192.492 0 .2560013.0879991.4659992.264.63.1760009.1640008.3999986.246.672.246zm6.468 1.08c-.5200026 0-.9979978-.0639994-1.434-.192-.4360022-.1280006-.8059985-.3119988-1.11-.552l.42-1.044c.6240031.4560023 1.339996.684 2.148.684.3440017 0 .6059991-.0559994.786-.168.1800009-.1120006.27-.271999.27-.48 0-.1760009-.0619994-.3119995-.186-.408-.1240006-.0960005-.3459984-.1839996-.666-.264l-.96-.216c-.5440027-.1200006-.9479987-.3159986-1.212-.588-.2640013-.2720014-.396-.6239978-.396-1.056 0-.3600018.101999-.6779986.306-.954.204001-.2760014.4879982-.4899992.852-.642s.7859976-.228 1.266-.228c.4160021 0 .8179981.0639994 1.206.192.3880019.1280006.7299985.3079988 1.026.54l-.42 1.02c-.608003-.4400022-1.215997-.66-1.824-.66-.3280016 0-.5839991.0599994-.768.18-.1840009.1200006-.276.2879989-.276.504 0 .1600008.0579994.2919995.174.396.1160006.1040005.3019987.1839997.558.24l.996.228c.5840029.1280006 1.0119986.3299986 1.284.606.2720014.2760014.408.6379978.408 1.086 0 .5440027-.2199978.9759984-.66 1.296s-1.0359962.48-1.788.48z"/><path fill="#999" d="M92.9159062 25v-8.46h1.548V25h-1.548zm6.648-6.012c.7040038 0 1.2279978.199998 1.5719998.6.344002.400002.516 1.003996.516 1.812V25h-1.5v-3.516c0-.4560023-.085999-.787999-.2579998-.996-.1720009-.208001-.4419982-.312-.81-.312-.4320022 0-.7779987.1359986-1.038.408-.2600013.2720014-.39.6359977-.39 1.092V25h-1.5v-5.868h1.464v.876c.200001-.3280016.4679983-.5799991.804-.756.3360017-.1760009.7159979-.264 1.14-.264zm5.5199998.144h1.548v1.128h-1.548V25h-1.5v-4.74h-1.128v-1.128h1.128c0-.8400042.217998-1.4719979.654-1.896.436002-.4240021 1.113996-.6599998 2.034-.708l.588-.036.096 1.116-.564.024c-.472002.0240001-.807999.1299991-1.008.318-.200001.1880009-.3.4899979-.3.906v.276zm5.004 5.964c-.600003 0-1.125998-.1239988-1.578-.372-.452002-.2480012-.801999-.6039977-1.05-1.068-.248001-.4640023-.372-1.0039969-.372-1.62 0-.6160031.123999-1.1539977.372-1.614.248001-.4600023.597998-.8139988 1.05-1.062.452002-.2480012.977997-.372 1.578-.372.600003 0 1.125998.1239988 1.578.372.452002.2480012.799999.6019977 1.044 1.062.244001.4600023.366.9979969.366 1.614 0 .6160031-.121999 1.1559977-.366 1.62-.244001.4640023-.591998.8199988-1.044 1.068-.452002.2480012-.977997.372-1.578.372zm-.012-1.164c.488003 0 .859999-.1599984 1.116-.48.256001-.3200016.384-.7919969.384-1.416 0-.6160031-.127999-1.0859984-.384-1.41-.256001-.3240016-.623997-.486-1.104-.486-.480002 0-.849998.1619984-1.11.486-.260001.3240016-.39.7939969-.39 1.41 0 .6240031.127999 1.0959984.384 1.416.256001.3200016.623998.48 1.104.48z"/><path fill="#0AF" d="M1.00390625 39H71.0039062v3H1.00390625z"/><path fill="#999" fill-rule="nonzero" d="M159.012312 23.1622774c-.822419-.8224194-1.275337-1.9158848-1.275337-3.0789307s.452918-2.2565113 1.275337-3.0788733c.82242-.8224194 1.915828-1.2753086 3.078874-1.2753086 1.163074 0 2.256482.4528892 3.078902 1.2753086.822419.822362 1.275308 1.9158274 1.275308 3.0788733 0 1.1630459-.452889 2.2565113-1.275308 3.0789307-.82242.822362-1.915828 1.2753086-3.078902 1.2753086-1.163046 0-2.256454-.4529466-3.078874-1.2753086zm10.244378 3.2763285l-2.892533-2.8925615c.767133-.9454528 1.227069-2.1502929 1.227069-3.4626977 0-3.0375948-2.462474-5.5000117-5.50004-5.5000117-3.037566 0-5.500041 2.4624169-5.500041 5.5000117 0 3.0376235 2.462475 5.5000691 5.500041 5.5000691 1.312433 0 2.517245-.4599648 3.462726-1.2270978l2.892504 2.8925328c.223752.2237232.586522.2236946.810245 0 .223723-.2237519.223781-.5865217.000029-.8102449zm-6.592131-4.1781825c-.000029.3163922-.25658.5729149-.572915.5729149-.316392 0-.572915-.2564654-.572858-.5728576l-.000028-1.6044196-1.604735.0000287c-.316392 0-.572857-.2564654-.572857-.5728577 0-.3164495.256494-.5729149.572914-.5729435l1.604678-.0000287-.000029-1.604133c0-.3163923.256494-.5728863.572886-.5728577.316421-.0000286.572887.2564367.572944.5728863v1.6041044l1.603675.0000287c.316421.0000286.572915.2565513.572915.5728862 0 .316421-.256437.572915-.572829.5728577l-1.603761.0000286v1.6043623zM195.360261 23.5460521c.767136-.9454557 1.227073-2.1502994 1.227073-3.4627082 0-3.037604-2.462482-5.5000284-5.500057-5.5000284s-5.500057 2.4624244-5.500057 5.5000284c0 3.0376327 2.462482 5.5000858 5.500057 5.5000858 1.312437 0 2.517252-.4599662 3.462737-1.2271016l2.892513 2.8925416c.223752.2237239.586523.2236953.810247 0 .223724-.2237526.223781-.5865234.000029-.8102474l-2.892542-2.8925702zm-8.627208-3.4627082c0-1.1630494.452919-2.2565181 1.275341-3.0788826.822422-.8224219 1.915834-1.2753125 3.078883-1.2753125 1.163078 0 2.256489.4528906 3.078911 1.2753125.822422.8223645 1.275313 1.9158332 1.275313 3.0788826 0 1.1630495-.452891 2.2565182-1.275313 3.07894-.822422.8223646-1.915833 1.2753125-3.078911 1.2753125-1.163049 0-2.256461-.4529479-3.078883-1.2753125-.822422-.8224218-1.275341-1.9158905-1.275341-3.07894zm2.177055.5727448c-.316393 0-.57286-.2564661-.57286-.5728593 0-.3164505.256495-.5729167.572917-.5729453h4.354167c.316421.0000286.572916.256552.572916.572888 0 .3164218-.256437.5729166-.57283.5728593l-4.35431.0000573z"/><path fill="#999" d="M216.026055 21.6602664c.215919.5565996.547461 1.0672059.982297 1.5020415.822431.8223737 1.915854 1.2753266 3.078916 1.2753266 1.163091 0 2.256515-.4529529 3.078946-1.2753266.822431-.822431 1.275327-1.9159118 1.275327-3.0789741 0-1.1630624-.452896-2.2565432-1.275327-3.0789169-.822431-.8224309-1.915855-1.2753266-3.078946-1.2753266-1.163062 0-2.256485.4528957-3.078916 1.2753266-.148124.1481128-.284261.3050197-.407925.4695432.00228.0186997.004428.0380723.006443.0581478l.641204.0007716c.34199.0004116.619515.2780237.619861.6199481.000477.342012-.276424.6189132-.618414.6184141l-2.020548-.0023877c-.176052-.0002556-.334614-.074199-.447476-.1922645-.117868-.1127957-.191658-.2712479-.19187-.447081l-.002441-1.9920014c-.000433-.3419682.276512-.6188256.618458-.6184579.341969.0004334.619537.2780019.619948.6199482l.000514.4264039c.005545.0067827.011072.0134079.016578.0198809 1.008802-1.2226796 2.535685-2.0020379 4.244584-2.0020379 3.03761 0 5.500119 2.4624517 5.500119 5.5000895 0 1.3124233-.459943 2.5172804-1.227087 3.4627466l2.892574 2.8926023c.223755.2237264.223698.5865013-.000029.8102563-.223726.2236978-.586501.2237265-.810256 0l-2.892545-2.8925736c-.945495.7671439-2.150324 1.2271151-3.462776 1.2271151-2.370672 0-4.391059-1.4998653-5.163968-3.6024588-.000427-.0011607-.000093-.002529.001001-.0041049-.020828-.0594355-.032154-.1233385-.032154-.1898867 0-.3169983.256978-.5739762.573977-.5739762.27344 0 .502221.1912082.559931.4472125z"/><path fill="#999" fill-rule="nonzero" d="M271.300262 15.172371c.302815.0390981.536977.2973982.536977.6109845v4.0697143c0 .104868-.026357.2035073-.072505.289998-.000678.0012642-.001202.0026517-.001911.0039159-.008077.0150472-.01714.0295086-.026573.0437541-.001511.0023126-.002775.0047793-.004316.0070611-.110793.1640392-.298406.2718981-.511237.2718981h-4.069946c-.340485 0-.616542-.2760608-.616542-.6166888v-4.0696527c0-.3135863.234163-.5718864.536977-.6109845.026111-.0033609.052529-.0057043.079565-.0057043h4.069946c.027036 0 .053455.0023434.079565.0057043zm-3.705447 4.2367199h3.181818v-3.1818182h-3.181818v3.1818182zm3.705447 2.1269153c.302815.0391207.536977.2973668.536977.6108566v4.0699725c0 .1048151-.026357.2034647-.072505.2899063-.000678.001264-.001202.0026512-.001911.0039152-.008077.0150441-.01714.0295024-.026573.0437449-.001511.0023121-.002775.0047783-.004316.0070904-.110793.1640049-.298406.2718412-.511237.2718412h-4.069946c-.340485 0-.616542-.2760029-.616542-.6165597v-4.0699108c0-.3134898.234163-.5717359.536977-.6108566.026111-.0033294.052529-.0057032.079565-.0057032h4.069946c.027036 0 .053455.0023738.079565.0057032zm-3.705447 4.2367211h3.181818v-3.1818182h-3.181818v3.1818182zm-2.658302-10.6003563c.302909.0390981.53709.2973982.53709.6109845v4.0697143c0 .104868-.026332.2035073-.07249.289998-.000709.0012642-.001202.0026517-.001942.0039159-.008079.0150472-.017113.0295086-.026548.0437541-.001511.0023126-.002775.0047793-.004347.0070611-.110816.1640392-.298438.2718981-.511344.2718981h-4.069688c-.340557 0-.616671-.2760608-.616671-.6166888v-4.0696527c0-.3135863.234211-.5718864.537089-.6109845.026116-.0033609.052541-.0057043.079582-.0057043h4.069688c.027041 0 .053496.0023434.079581.0057043zm-3.705334 4.2367199h3.181818v-3.1818182h-3.181818v3.1818182zm3.705334 2.1269153c.302909.0391207.53709.2973668.53709.6108566v4.0699725c0 .1048151-.026332.2034647-.07249.2899063-.000709.001264-.001202.0026512-.001942.0039152-.008079.0150441-.017113.0295024-.026548.0437449-.001511.0023121-.002775.0047783-.004347.0070904-.110816.1640049-.298438.2718412-.511344.2718412h-4.069688c-.340557 0-.616671-.2760029-.616671-.6165597v-4.0699108c0-.3134898.234211-.5717359.537089-.6108566.026116-.0033294.052541-.0057032.079582-.0057032h4.069688c.027041 0 .053496.0023738.079581.0057032zm-3.705334 4.2367211h3.181818v-3.1818182h-3.181818v3.1818182zM299.540943 25.537037h-9.074074v-.0162079l9.057866-9.0578661h.016208v9.074074zm.688657-10.3703703h-10.451388c-.335599 0-.607639.2720703-.607639.6076389v10.4513888c0 .3355686.27204.6076389.607639.6076389H300.2296c.33563 0 .607639-.2720703.607639-.6076389V15.7743056c0-.3355686-.272009-.6076389-.607639-.6076389zM319.385831 25.6180815h4.374421v-4.3753927h-4.374421v4.3753927zm5.060462-5.585024c.298466.0385539.529212.2930276.529212.6020054v5.5907053c0 .1032964-.025946.2005165-.071427.2857057-.000699.0012456-.001185.0026128-.001914.0038584-.007929.0148261-.016861.0290749-.026158.0431111-.001489.0022786-.002734.0047091-.004284.0069877-.10916.1616285-.294061.2679022-.503843.2679022h-5.589674c-.335562 0-.607626-.2720037-.607626-.6076259v-5.5906445c0-.3089778.230776-.5634515.529212-.6020054.025733-.0032811.051769-.0056205.078414-.0056205h5.589674c.026644 0 .052711.0023394.078414.0056205zm2.960439-1.8265295v8.0191733c0 .3355615-.272034.607626-.607626.607626-.335562 0-.607626-.2720342-.607626-.607626v-7.4115474l-7.413281.0000304c-.335562 0-.607626-.2720645-.607626-.6076259 0-.3355615.272034-.6076564.607626-.6076564h8.020907c.026644 0 .052681.002309.078414.0056206.298436.0385235.529212.2930276.529212.6020054zm1.901295-3.0342408c.298436.0385539.529212.293058.529212.6020054v10.4512265c-.00003.335531-.272064.6075651-.607626.6075651-.335561 0-.607656-.2720341-.607656-.6076259l.00003-4.6185342v-5.2250056h-5.225007l-4.618535.0000304c-.335562 0-.607626-.2720342-.607626-.6076259 0-.3355615.272034-.6076563.607626-.6076563h10.451168c.026645 0 .052681.0023393.078414.0056205z"/></g></svg>