<svg xmlns="http://www.w3.org/2000/svg" width="33" height="34" fill="none" viewBox="0 0 33 34"><g clip-path="url(#clip0_1377_42556)"><mask id="mask0_1377_42556" width="33" height="33" x="0" y="0" maskUnits="userSpaceOnUse" style="mask-type:alpha"><path fill="#fff" fill-rule="evenodd" d="M23.2773 32.8029C23.7943 33.0043 24.3838 32.9914 24.9056 32.7403L31.6638 29.4884C32.374 29.1467 32.8256 28.428 32.8256 27.6395V5.58925C32.8256 4.80078 32.374 4.08206 31.6639 3.74035L24.9056 0.4883C24.2208 0.158768 23.4193 0.239483 22.8182 0.676454C22.7324 0.738875 22.6506 0.808571 22.5738 0.885376L9.63599 12.6888L4.00052 8.41104C3.4759 8.01283 2.74213 8.04546 2.2549 8.48867L0.447423 10.1328C-0.148553 10.675 -0.149236 11.6126 0.445946 12.1556L5.33321 16.6143L0.445946 21.0731C-0.149236 21.6161 -0.148553 22.5537 0.447423 23.0958L2.2549 24.74C2.74213 25.1832 3.4759 25.2158 4.00052 24.8176L9.63599 20.5398L22.5738 32.3432C22.7785 32.548 23.0188 32.7023 23.2773 32.8029ZM24.6242 9.16251L14.8073 16.6143L24.6242 24.0661V9.16251Z" clip-rule="evenodd"/></mask><g mask="url(#mask0_1377_42556)"><path fill="#000" d="M31.6645 3.74562L24.9009 0.489104C24.118 0.112163 23.1824 0.271165 22.568 0.885568L0.426687 21.0733C-0.168859 21.6162 -0.168174 22.5539 0.428165 23.096L2.23674 24.7402C2.72427 25.1834 3.4585 25.216 3.98341 24.8178L30.6467 4.59045C31.5412 3.91185 32.826 4.54985 32.826 5.67265V5.59413C32.826 4.80599 32.3745 4.08753 31.6645 3.74562Z"/><g filter="url(#filter0_d_1377_42556)"><path fill="#000" d="M31.6645 29.4831L24.9009 32.7396C24.118 33.1166 23.1824 32.9575 22.568 32.3431L0.426687 12.1554C-0.168859 11.6124 -0.168174 10.6748 0.428165 10.1327L2.23674 8.48851C2.72427 8.0453 3.4585 8.01267 3.98341 8.41088L30.6467 28.6382C31.5412 29.3168 32.826 28.6788 32.826 27.5561V27.6346C32.826 28.4227 32.3745 29.1411 31.6645 29.4831Z"/></g><g filter="url(#filter1_d_1377_42556)"><path fill="#000" d="M24.9015 32.7403C24.1184 33.1171 23.1828 32.9577 22.5684 32.3432C23.3254 33.1003 24.62 32.5641 24.62 31.4935V1.73518C24.62 0.664494 23.3254 0.128289 22.5684 0.885377C23.1828 0.270918 24.1184 0.111692 24.9015 0.4883L31.6639 3.74035C32.3745 4.08207 32.8264 4.80079 32.8264 5.58926V27.6395C32.8264 28.428 32.3745 29.1467 31.6639 29.4884L24.9015 32.7403Z"/></g></g></g><defs><filter id="filter0_d_1377_42556" width="49.512" height="41.476" x="-8.353" y="-.201" color-interpolation-filters="sRGB" filterUnits="userSpaceOnUse"><feFlood flood-opacity="0" result="BackgroundImageFix"/><feColorMatrix in="SourceAlpha" result="hardAlpha" type="matrix" values="0 0 0 0 0 0 0 0 0 0 0 0 0 0 0 0 0 0 127 0"/><feOffset/><feGaussianBlur stdDeviation="4.167"/><feColorMatrix type="matrix" values="0 0 0 0 0 0 0 0 0 0 0 0 0 0 0 0 0 0 0.25 0"/><feBlend in2="BackgroundImageFix" mode="overlay" result="effect1_dropShadow_1377_42556"/><feBlend in="SourceGraphic" in2="effect1_dropShadow_1377_42556" mode="normal" result="shape"/></filter><filter id="filter1_d_1377_42556" width="26.924" height="49.323" x="14.235" y="-8.047" color-interpolation-filters="sRGB" filterUnits="userSpaceOnUse"><feFlood flood-opacity="0" result="BackgroundImageFix"/><feColorMatrix in="SourceAlpha" result="hardAlpha" type="matrix" values="0 0 0 0 0 0 0 0 0 0 0 0 0 0 0 0 0 0 127 0"/><feOffset/><feGaussianBlur stdDeviation="4.167"/><feColorMatrix type="matrix" values="0 0 0 0 0 0 0 0 0 0 0 0 0 0 0 0 0 0 0.25 0"/><feBlend in2="BackgroundImageFix" mode="overlay" result="effect1_dropShadow_1377_42556"/><feBlend in="SourceGraphic" in2="effect1_dropShadow_1377_42556" mode="normal" result="shape"/></filter><clipPath id="clip0_1377_42556"><rect width="32.826" height="32.826" fill="#fff" transform="translate(0 0.20166)"/></clipPath></defs></svg>