<svg xmlns="http://www.w3.org/2000/svg" width="72" height="29" viewBox="0 0 72 29"><path fill="#000" fill-rule="evenodd" d="M41.1719.8786C39.7459 1.6256 39.2149 2.8876 39.2149 6.3726 39.2149 6.3726 39.9369 5.6746 41.0079 5.2856 41.7889 5.0036 42.4559 4.5726 42.8409 4.2906 44.0459 3.4076 44.2329 2.2716 44.2329.3576 44.2329.3576 42.2679.3046 41.1719.8786M32.7149 1.695C31.5519 2.72 31.2119 4.354 31.2119 4.354L27.3619 19.271 24.1599 7.062C23.8479 5.764 23.2859 4.16 22.3959 3.075 21.2629 1.693 18.9599 1.606 18.7149 1.606 18.4689 1.606 16.1659 1.693 15.0319 3.075 14.1429 4.16 13.5809 5.764 13.2689 7.062L10.0669 19.271 6.2159 4.354C6.2159 4.354 5.8769 2.72 4.7139 1.695 2.8279.033-.0001.388-.0001.388L7.3729 28.265C7.3729 28.265 9.8049 28.441 11.0229 27.82 12.6209 27.006 13.3819 26.377 14.3499 22.584 15.2119 19.202 17.6229 9.269 17.8479 8.562 17.9599 8.213 18.1009 7.378 18.7149 7.378 19.3409 7.378 19.4709 8.212 19.5799 8.562 19.8009 9.27 22.2159 19.202 23.0789 22.584 24.0469 26.377 24.8069 27.006 26.4059 27.82 27.6229 28.441 30.0549 28.265 30.0549 28.265L37.4279.388C37.4279.388 34.6009.033 32.7149 1.695M44.2305 4.9391C44.2305 4.9391 43.7695 5.6531 42.7165 6.2411 42.0415 6.6191 41.3925 6.8751 40.6965 7.2091 39.5305 7.7681 39.2145 8.3911 39.2145 9.3411L39.2145 9.6591 39.2145 11.1271 39.2145 11.1671 39.2145 11.4981 39.2145 28.2651C39.2145 28.2651 41.0755 28.5011 42.2925 27.8801 43.8585 27.0821 44.2185 26.3121 44.2325 22.8451L44.2325 5.9491 44.2305 5.9501 44.2305 4.9391zM62.6084 14.3942L71.9634.4802C71.9634.4802 68.0154-.1918 66.0604 1.5872 64.8094 2.7262 63.4104 4.7742 63.4104 4.7742L59.9684 9.7362C59.8014 9.9942 59.5824 10.2752 59.2334 10.2752 58.8844 10.2752 58.6664 9.9942 58.4994 9.7362L55.0574 4.7742C55.0574 4.7742 53.6584 2.7262 52.4074 1.5872 50.4524-.1918 46.5044.4802 46.5044.4802L55.8584 14.3942 46.5284 28.2652C46.5284 28.2652 50.6404 28.7852 52.5954 27.0042 53.8464 25.8662 55.0574 24.0142 55.0574 24.0142L58.4994 19.0532C58.6664 18.7942 58.8844 18.5142 59.2334 18.5142 59.5824 18.5142 59.8014 18.7942 59.9684 19.0532L63.4104 24.0142C63.4104 24.0142 64.6914 25.8662 65.9424 27.0042 67.8984 28.7852 71.9384 28.2652 71.9384 28.2652L62.6084 14.3942z"/></svg>