<svg width="92px" height="32px" xmlns="http://www.w3.org/2000/svg"><g fill="#000" fill-rule="nonzero"><path d="M2.27292998 2.27381584H89.6405828V29.2306892H52.9390562v-4.8717815h-2.27293v4.8717815H2.27292998V2.27381584zM0 31.5035516h91.9135128V0H0v31.5035516z"/><path d="M18.7097223 10.0543656h-2.3539699l-4.0939435 10.5301031h2.3539699l1.0735399-2.9192554h3.7001851l1.0601921 2.9192554h2.3549233l-4.0948969-10.5301031zm-2.3863858 5.6812027l1.2089241-3.2996547 1.1946231 3.2996547h-2.4035472zM39.1508375 10.0543656v2.0907665h3.8022v8.4393366h2.4350097v-8.4393366h3.897541v-2.0907665zM76.9630871 10.0543656l-2.6647816 4.4904287-2.649527-4.4904287h-2.5770679l4.1254061 6.6650929v3.8650102h2.2176321v-3.8650102l4.1244527-6.6650929zM64.5735212 15.0386462c-.685502-.5005255-1.6236576-.7302906-2.4521711-.9333609-.1725673-.0419488-.3403675-.0829443-.5034006-.1258464l-.1010615-.0266947c-.6759679-.1687486-1.5998224-.4023272-1.5998224-1.2079349 0-.8618572 1.003941-1.0916223 1.5969622-1.0916223.6721542 0 1.5168756.2011636 1.7237656 1.1621726l.0066739.0324149h2.0879684l-.0009534-.0409954c-.0705524-1.9439457-1.433929-3.05844913-3.7392749-3.05844913-1.7180452 0-3.7211601.80179423-3.7211601 3.05844913 0 2.3510398 2.0908286 2.8534721 3.9366308 3.297748.169707.0409954.3375072.0810375.4986336.1220329.9400624.2459725 1.417721.6816681 1.417721 1.2965994 0 1.3242475-1.7361601 1.3909842-2.0851082 1.3909842-1.2194117 0-1.8829852-.4557166-2.0860616-1.4300729l-.0057204-.0314616h-2.1213378l.0028602.0400421c.0152546.8351625.1163161 1.3433151.6540395 1.9754073 1.0191955 1.1879138 2.6352258 1.3661963 3.5085496 1.3661963 2.012649 0 4.1797504-1.04586 4.1797504-3.342557 0-.9753097-.4585903-1.9153442-1.1974832-2.4530516M34.0539064 16.1064339c.8046783-.5882366 1.3042652-1.6264695 1.3042652-2.7123715 0-1.1736132-.6044621-2.2633287-1.5769405-2.8420315-.8246998-.4976653-1.6579804-.4976653-2.463612-.4976653h-4.7498898v10.5301031h2.2319334v-5.2045118l4.1425674 5.2045118h2.702918l-3.153881-3.8631035c.5653722-.0981983 1.0354035-.2307184 1.5626393-.6149313zm-5.2542437-1.2041214v-2.8630058l2.5074689-.0009534c.4986335 0 .9400625.0209744 1.2966379.2783875.3365538.2459726.5367699.6769012.5367699 1.1535921 0 .9495684-.6778746 1.4310263-2.0155092 1.4310263h-2.3253675v.0009533z"/></g></svg>