<svg xmlns="http://www.w3.org/2000/svg" viewBox="0 0 575.97 157.38"><path d="M169.73 116.11v-70.8h9.16l43.32 57v-57h8.67v70.8h-9.16l-43.33-57.53v57.54zm0 0M301.18 113.34a51.29 51.29 0 0 1-18.47 3.27q-38.47 0-38.47-36.89 0-34.9 37.13-34.91a63.76 63.76 0 0 1 19.8 3v7.92a52.73 52.73 0 0 0-18.81-3.47q-29 0-29 27.48 0 29.46 28.52 29.46A48.28 48.28 0 0 0 292 108V83.93h9.15zm0 0M315.79 88.78V45.31h9.15v43.47q0 20.4 20.3 20.4t20.3-20.4V45.31h9.16v43.47q0 27.83-29.46 27.83t-29.45-27.83zm0 0M400.2 45.31v63.38h37v7.42H391v-70.8zm0 0M450.46 116.11H441L476.15 36l35.2 80.15H501.2L492 93.83h-23.37l2.53-7.42H489l-13.24-32.09zm0 0M521 116.11v-70.8h30.2q20.2 0 20.2 17 0 13.81-19.75 20.45L576 116.11h-12.12l-22.52-31.83v-6q20.3-3.23 20.3-15.6 0-9.8-11.29-9.8h-20.2v63.23zm0 0"/><path d="M148.38 25.63L73.22 0v157.38l63-34.86zm0 0" fill="#c3002f"/><path d="M0 26.09L11.2 123l62 34.4V0zm0 0" fill="#dd0031"/><path d="M90.64 78.28l-17.29-36.1-15.21 36.1zm6.59 15.18H51.41L41.16 119.1l-19.07.35L73.22 5.71l52.91 113.73h-17.68zm0 0" fill="#f2f2f2"/></svg>