<svg id="Layer_1" data-name="Layer 1" xmlns="http://www.w3.org/2000/svg" width="700" height="700" viewBox="0 0 700 700">
  <title>jetbrains-simple_2</title>
  <g>
    <rect width="700" height="700"/>
    <rect x="60.379" y="568.75" width="262.5" height="43.75" fill="#fff"/>
    <path d="M57.428,184.315L77.8,165.083c5.542,6.682,10.758,10.594,17.929,10.594,7.823,0,12.877-5.378,12.877-15.972V87.5h31.457v72.367c0,14.343-3.586,24.448-11.246,32.109-7.5,7.5-18.254,11.572-31.294,11.572C77.638,203.548,65.577,195.236,57.428,184.315Z" fill="#fff"/>
    <polygon points="147.394 87.5 239.156 87.5 239.156 114.23 178.688 114.23 178.688 131.67 233.451 131.67 233.451 156.607 178.688 156.607 178.688 174.699 239.971 174.699 239.971 201.592 147.394 201.592 147.394 87.5" fill="#fff"/>
    <polygon points="280.491 115.208 246.427 115.208 246.427 87.5 346.338 87.5 346.338 115.208 312.111 115.208 312.111 201.592 280.491 201.592 280.491 115.208" fill="#fff"/>
    <path d="M139.736,282.7c10.106-4.4,17.6-12.224,17.6-25.426v-0.326A25.675,25.675,0,0,0,150,238.364c-6.682-6.52-16.788-10.106-31.131-10.106H60.362V342.35H119.2c27.218,0,43.191-11.9,43.191-31.457v-0.326C162.392,295.083,153.591,287.26,139.736,282.7Zm-48.57-29.011h20.7c9.29,0,14.343,3.422,14.343,9.779v0.326c0,6.682-5.542,9.942-15.158,9.942H91.166V253.685Zm39.607,52.808c0,6.682-5.379,10.431-15.158,10.431H91.166V295.9h24.123c10.594,0,15.484,4.075,15.484,10.269v0.326Z" fill="#fff"/>
    <path d="M335.8,227.444H305.325l-42.63,101.193-17.833-26.056c14.18-6.031,23.469-17.6,23.469-35.205V267.05c0-11.246-3.422-19.885-10.1-26.567-7.661-7.661-19.722-12.224-37.162-12.224H167.116V342.35h31.619V307.8h14.017l22.981,34.553H290l8.15-20.536h44.169l8.149,20.536h33.9Zm-99.093,42.05c0,8.312-6.357,13.529-16.951,13.529H198.736V255.477H219.6c10.432,0,17.114,4.564,17.114,13.692v0.325ZM307.444,297.2l12.877-32.271L333.033,297.2H307.444Z" fill="#fff"/>
    <rect x="388.119" y="228.258" width="31.619" height="114.092" fill="#fff"/>
    <polygon points="427.56 228.258 457.061 228.258 504.001 288.564 504.001 228.258 535.295 228.258 535.295 342.35 507.75 342.35 458.854 279.763 458.854 342.35 427.56 342.35 427.56 228.258" fill="#fff"/>
    <path d="M537.277,325.4l17.6-21.025c11.409,8.964,23.8,13.691,37,13.691,8.638,0,13.2-2.934,13.2-7.824v-0.325c0-4.89-3.749-7.335-19.4-11.084-24.286-5.541-43.03-12.387-43.03-35.694v-0.326c0-21.188,16.788-36.509,44.17-36.509,19.4,0,34.553,5.216,46.94,15.158L617.956,263.79c-10.431-7.5-21.84-11.246-31.946-11.246-7.66,0-11.409,3.1-11.409,7.334V260.2c0,5.216,3.912,7.5,19.885,11.083,26.078,5.7,42.377,14.18,42.377,35.531v0.326c0,23.307-18.418,37.161-46.126,37.161C570.526,344.306,551.457,337.95,537.277,325.4Z" fill="#fff"/>
  </g>
</svg>
