<?xml version="1.0" encoding="UTF-8"?>
<svg width="116px" height="24px" viewBox="0 0 116 24" version="1.1" xmlns="http://www.w3.org/2000/svg" xmlns:xlink="http://www.w3.org/1999/xlink">
    <!-- Generator: Sketch 52.5 (67469) - http://www.bohemiancoding.com/sketch -->
    <title>logo-formidable</title>
    <desc>Created with Sketch.</desc>
    <g id="Storybook" stroke="none" stroke-width="1" fill="none" fill-rule="evenodd">
        <g id="/usecases" transform="translate(-520.000000, -1992.000000)">
            <g id="logo-formidable" transform="translate(518.750000, 1990.797500)">
                <path d="M30.42705,11.5453401 L35.3188501,11.5453401 L35.3188501,14.2237401 L30.45495,14.2237401 L30.45495,19.1527401 L27.49755,19.1527401 L27.49755,5.97464001 L35.9884501,5.97464001 L35.9884501,8.75534003 L30.42705,8.75534003 L30.42705,11.5453401 Z M45.5116501,14.5213401 C45.5167815,17.2281357 43.3266516,19.4265878 40.619856,19.4317225 C37.9130603,19.4368571 35.7146056,17.2467298 35.7094677,14.5399342 C35.7043298,11.8331385 37.8944545,9.63468114 40.6012501,9.62954004 C40.6892901,9.62954004 40.7773301,9.62954004 40.8653701,9.62954004 C43.4973359,9.70001046 45.5746643,11.8893007 45.5070001,14.5213401 L45.5116501,14.5213401 Z M42.6844501,14.5213401 C42.7593,13.7300858 42.3794193,12.9647339 41.7039455,12.5459012 C41.0284716,12.1270684 40.1740286,12.1270684 39.4985547,12.5459012 C38.8230809,12.9647339 38.4432002,13.7300858 38.5180501,14.5213401 C38.4355727,15.3170826 38.8136146,16.0902984 39.4922612,16.513911 C40.1709077,16.9375235 41.0315925,16.9375235 41.7102391,16.513911 C42.3888856,16.0902984 42.7669275,15.3170826 42.6844501,14.5213401 Z M49.1479502,11.15474 L49.1479502,9.95504004 L46.4137501,9.95504004 L46.4137501,19.1899401 L49.2037502,19.1899401 L49.2037502,15.1165401 C49.2037502,13.2565401 50.2267502,12.6055401 51.3613502,12.6055401 C51.6739838,12.5984732 51.9863068,12.6297055 52.2913502,12.6985401 L52.2913502,9.95504004 C52.0486643,9.89070545 51.798405,9.85942304 51.5473502,9.86204004 C50.5683837,9.80874096 49.641942,10.3078704 49.1479502,11.15474 Z M64.5227103,9.63698004 C64.3535984,9.62115112 64.1835027,9.61866343 64.0140003,9.62954004 C62.8668422,9.55834033 61.7709489,10.1134032 61.1496003,11.08034 C60.602151,10.1018023 59.5326131,9.53429239 58.4154002,9.62954004 C57.363153,9.61414823 56.3698711,10.1142622 55.7556002,10.96874 L55.7556002,9.95504004 L53.0586002,9.95504004 L53.0586002,19.1899401 L55.8486002,19.1899401 L55.8486002,13.8350001 C55.8212959,13.4381345 55.9530426,13.0467167 56.2147634,12.7471336 C56.4764842,12.4475505 56.8466629,12.264431 57.2436002,12.2381901 C57.2882402,12.2381901 57.3328802,12.2381901 57.3775202,12.2381901 C57.7933665,12.2105957 58.1999866,12.3691335 58.4874078,12.6709257 C58.774829,12.972718 58.9133549,13.3865836 58.8655202,13.8005901 L58.8655202,19.1573901 L61.6555203,19.1573901 L61.6555203,13.8191901 C61.6326756,13.4223837 61.7685391,13.0327764 62.0331728,12.7362192 C62.2978065,12.439662 62.6694931,12.2604921 63.0663303,12.2381901 C63.1109703,12.2381901 63.1553003,12.2381901 63.1993203,12.2381901 C63.6120256,12.2163378 64.0134029,12.3773897 64.296541,12.6784479 C64.5796791,12.9795062 64.715827,13.39 64.6687203,13.8005901 L64.6687203,19.1573901 L67.4401203,19.1573901 L67.4401203,13.1635401 C67.6083032,11.3840959 66.3021491,9.80521924 64.5227103,9.63698004 Z M68.9011503,19.1425101 L71.7283503,19.1425101 L71.7283503,9.90854004 L68.9011503,9.90854004 L68.9011503,19.1434401 L68.9011503,19.1425101 Z M70.3147503,5.43431 L70.2961503,5.43431 C69.3851254,5.3938976 68.6131755,6.09827704 68.5701996,7.00918468 C68.5272236,7.92009233 69.229428,8.69402127 70.1402111,8.73956042 C71.0509942,8.78509958 71.8268961,8.08507595 71.8749981,7.17442461 C71.9231001,6.26377326 71.2252627,5.48590447 70.3147503,5.43524 L70.3147503,5.43431 Z M82.3582504,17.5615101 C82.3582504,18.3985101 82.4326504,19.0123101 82.4326504,19.2169101 L79.7170504,19.2169101 C79.6697179,18.909126 79.6448522,18.5983047 79.6426504,18.2869101 C79.0407372,19.0269326 78.1214199,19.4347501 77.1688504,19.3843101 C77.0727504,19.3843101 76.9769604,19.3815201 76.8814804,19.3759401 C75.6701617,19.3019821 74.5378405,18.7498393 73.7336337,17.8409861 C72.9294268,16.9321329 72.5192162,15.7410241 72.5932504,14.5297101 C72.5864304,14.4336101 72.5830204,14.3372001 72.5830204,14.2404801 C72.5783248,13.0442183 73.0490394,11.895088 73.8916105,11.0458894 C74.7341815,10.1966908 75.8795885,9.71698724 77.0758504,9.71231004 C78.6382504,9.71231004 79.3450504,10.28891 79.5682504,10.64231 L79.5682504,5.69564001 L82.3582504,5.69564001 L82.3582504,17.5624401 L82.3582504,17.5615101 Z M79.6054504,14.5204101 C79.6803003,13.7291558 79.3004196,12.9638039 78.6249458,12.5449712 C77.9494719,12.1261384 77.0950289,12.1261384 76.419555,12.5449712 C75.7440812,12.9638039 75.3642005,13.7291558 75.4390504,14.5204101 C75.366845,15.1149467 75.554014,15.7117997 75.9527881,16.1586404 C76.3515623,16.605481 76.9233611,16.8590786 77.5222504,16.8547101 L77.5222504,16.8268101 C78.1155077,16.8301977 78.6820668,16.5804797 79.0798138,16.1402945 C79.4775608,15.7001093 79.6687595,15.1112194 79.6054504,14.5213401 L79.6054504,14.5204101 Z M91.6396505,17.6917101 C91.6389002,18.1713108 91.6762173,18.6502146 91.7512505,19.1239101 L89.2030505,19.1239101 C89.1310922,18.7815911 89.0998753,18.4319624 89.1100505,18.0823101 C88.3234575,19.1378946 86.9758602,19.6118499 85.7016707,19.2810507 C84.4274811,18.9502515 83.4806226,17.8806202 83.3068504,16.5757101 C83.3306225,15.066306 84.5324346,13.8399672 86.0410505,13.7857101 L88.2172505,13.4509101 L88.2553805,13.4509101 C88.4231034,13.4506636 88.583859,13.3837994 88.7022826,13.265027 C88.8207062,13.1462545 88.8870973,12.985303 88.8868505,12.8175801 C88.8831305,12.7834801 88.8781705,12.7493801 88.8719705,12.7152801 C88.813525,12.4175661 88.6392012,12.1552655 88.3873518,11.9860869 C88.1355024,11.8169083 87.8267599,11.7547114 87.5290505,11.8131801 C86.7171448,11.7706814 86.0214339,12.3877107 85.9666505,13.1988801 L83.5114504,12.6966801 C83.6230504,11.37608 84.8506504,9.62768004 87.5662505,9.62768004 C90.5608505,9.62768004 91.6582505,11.33888 91.6582505,13.1988801 L91.6350005,13.1988801 L91.6350005,17.6907801 L91.6396505,17.6917101 Z M88.8682505,15.5248101 L88.8682505,15.1528101 L87.1198505,15.4318101 L87.1012505,15.4318101 C86.5362632,15.4318101 86.0782505,15.8898228 86.0782505,16.4548101 C86.0736926,16.7334084 86.194291,16.9993719 86.4068608,17.1795158 C86.6194307,17.3596598 86.9015728,17.4350018 87.1756505,17.3848101 C87.6658724,17.4237862 88.1465496,17.233775 88.4776207,16.8701425 C88.8086919,16.5065099 88.9529093,16.0101672 88.8682505,15.5257401 L88.8682505,15.5248101 Z M102.855451,14.5018101 C102.855451,17.3290101 101.032651,19.3564101 98.4472505,19.3564101 C97.4223966,19.4180035 96.4381725,18.946982 95.8432505,18.1102101 L95.8432505,19.1518101 L93.1090505,19.1518101 L93.1090505,5.69564001 L95.8990505,5.69564001 L95.8990505,10.78274 C96.5728577,10.0318089 97.5515639,9.62800708 98.5588506,9.68534004 C101.237251,9.68534004 102.855451,11.6755401 102.855451,14.5027401 L102.855451,14.5018101 Z M100.028251,14.5204101 C100.103257,13.7257285 99.7216379,12.957143 99.0432223,12.5365517 C98.3648068,12.1159603 97.5066943,12.1159603 96.8282788,12.5365517 C96.1498632,12.957143 95.768244,13.7257285 95.8432505,14.5204101 C95.785346,15.1123531 95.9809482,15.7011157 96.3815619,16.1407272 C96.7821755,16.5803386 97.3502888,16.8296355 97.9450505,16.8268101 C98.5392746,16.8331949 99.1076891,16.584366 99.5061008,16.1434452 C99.9045125,15.7025244 100.094639,15.1118785 100.028251,14.5213401 L100.028251,14.5204101 Z M103.757551,19.1518101 L106.584751,19.1518101 L106.584751,5.69564001 L103.757551,5.69564001 L103.757551,19.1527401 L103.757551,19.1518101 Z M116.656651,15.2179101 L110.221051,15.2179101 C110.333411,16.2783496 111.258192,17.0640048 112.322851,17.0035101 C113.148354,17.0812418 113.918754,16.5804818 114.182851,15.7945101 L116.545051,16.4641101 C115.991605,18.3507792 114.189593,19.5896627 112.229851,19.4308101 C112.115771,19.4308101 112.002001,19.4308101 111.888541,19.4308101 C110.641142,19.3713237 109.468543,18.8184493 108.628993,17.8939502 C107.789443,16.9694512 107.351801,15.7491528 107.412451,14.5018101 C107.408731,14.4255501 107.406871,14.3492901 107.406871,14.2730301 C107.40835,13.0397731 107.899678,11.8576148 108.772769,10.9866169 C109.64586,10.115619 110.829194,9.62712924 112.062451,9.62861004 C114.945451,9.62861004 116.712451,11.39561 116.712451,14.3716101 C116.713438,14.6551318 116.693232,14.9383307 116.652001,15.2188401 L116.656651,15.2179101 Z M113.996851,13.4416101 C113.996851,13.3994501 113.993131,13.3572901 113.985691,13.3151301 C113.87022,12.4092249 113.042936,11.7679554 112.136851,11.8820001 C111.198824,11.8216874 110.379354,12.510042 110.276851,13.4444001 L113.996851,13.4444001 L113.996851,13.4416101 Z" id="Shape" fill="#BD3930" fill-rule="nonzero"></path>
                <g id="icon" transform="translate(11.507756, 12.702500) scale(-1, -1) translate(-11.507756, -12.702500) translate(0.507756, 0.202500)" fill="#C53B33">
                    <polygon id="Path" points="12.5016529 0 0.120604181 11.1862829 12.5016529 15.3535006"></polygon>
                    <polygon id="Path" opacity="0.75" points="12.5016529 0 21.1684851 4.32361087 12.5016529 15.3535006"></polygon>
                    <polygon id="Path" opacity="0.5" points="12.5016529 24.0227841 21.1684851 4.32361087 12.5016529 15.3535006"></polygon>
                    <polygon id="Path" opacity="0.25" points="0.120604181 11.1862829 12.5016529 15.3535006 12.5016529 24.0227841"></polygon>
                </g>
            </g>
        </g>
    </g>
</svg>