<svg width="114px" height="17px" xmlns="http://www.w3.org/2000/svg"><path d="M57.0044059 5.4586196c-.2781859-.03895584-.5657139-.05735165-.8729639-.05951586-2.8223412 0-3.5219579 1.90017936-3.5219579 4.39227108v5.87151098h-5.0862346V1.11828964h5.0851965V3.5032528h.0570904c.9757267-1.78980448 2.654184-2.58190658 4.6367775-2.58190658h.9809167v1.16651102c-.7380231.87542432-1.2103163 1.99756896-1.2788247 3.37076236zm39.6311681-.05227034l-.1525429-.00649216c-2.8215246 0-3.5230144 1.90003988-3.5230144 4.39194869v5.87108001h-5.0868383V1.11935721h5.0868383v2.38262405h.0549985C93.9956481 1.71339018 95.6715444.92134622 97.654602.92134622h.9785574v1.13612864c-.8903524.91864115-1.5752388 2.063426-1.9975854 3.3488744zm-28.8183632-.22095642c-.7847117-.42946446-1.876665-.7157741-2.745453-.7157741-.5833439 0-1.5912209.25571167-1.5912209 1.00208374 0 1.00317653 1.5912209 1.14523856 2.2949703 1.29167174 2.3707427.48519649 4.1643695 1.63152783 4.1643695 4.34819108 0 3.8640873-3.4388226 5.4726667-6.7676194 5.4726667-2.0417036 0-4.0501919-.6021245-5.7856918-1.6905382l1.8444877-3.6389737c1.0327885.7474649 2.7662125 1.4894658 4.0242423 1.4894658.6435467 0 1.5932969-.3136293 1.5932969-1.1157334 0-1.1452385-1.5932969-1.2053417-3.1886697-1.63371338-1.591221-.42946446-3.1824419-1.22938299-3.1824419-3.86408735 0-3.60837569 3.1824419-5.20930555 6.3192127-5.20930555 1.6213223 0 3.2436826.25680445 4.7217639.94416614l-1.7012466 3.31988048zM113.876466 16.1000607h-5.183776v-1.6339414h-.057127c-.911921 1.4601644-2.710374 2.1181127-4.416788 2.1181127-4.3332132 0-7.3789458-3.6372957-7.3789458-7.84729049 0-4.20562308 2.991779-7.81559529 7.3207608-7.81559529 1.679966 0 3.448797.62953194 4.531043 1.91701219V1.40988924h5.182717l.002116 14.69017146zm-11.680421-7.33142401c0 1.86017941 1.227179 3.29192741 3.332427 3.29192741 2.107363 0 3.329253-1.4295621 3.329253-3.29192741 0-1.80443963-1.22189-3.32143673-3.329253-3.32143673-2.105248.00109294-3.332427 1.5169971-3.332427 3.32143673zm-15.2216534.85856334H76.0294667c0 2.11716747 1.1170889 3.26155277 3.2589715 3.26155277 1.1139063 0 1.9127363-.3705316 2.4856023-1.3454998h5.0009088c-.8285341 3.4659463-4.1150881 5.040979-7.4568069 5.040979-4.8534488 0-8.4816006-2.7511154-8.4816006-7.81723372 0-4.8967012 3.3385362-7.84565206 8.1092377-7.84565206 5.0847169 0 8.0307338 3.15115839 8.0307338 8.16043999l-.0021217.54541382zm-4.829049-3.00906661c-.2577897-1.40342954-1.5435558-2.31937499-2.9417734-2.31937499-1.5159734 0-2.7677919.79899299-3.0871117 2.31937499h6.0288851zM31.3747871 8.02859536c.0042455.11858428.0074295.23607056.0084909.35245885v.06258615c-.0074295 2.10267504-.8045089 3.87924334-2.2734276 5.43511314-1.5506431 1.6382199-3.7009532 2.5945802-6.1134186 2.6988905-.163449.006588-.1316083.006588-.2886892.006588-1.3553534 0-2.5822825-.2986567-3.7105054-.7971499-.4648746-.2086205-1.0475598-.5446094-1.4986367-.8860882-.4500155-.3425768-1.1069957-1.0277305-1.1069957-1.0277305l2.1142239-4.02198365c.5062675.54351135 1.5326001 1.76009825 3.144802 2.10706705l.0106135-.004392c.4192362.0955262.863945.1273683 1.32139.0867422 2.1970098-.1965424 3.8357456-2.0071488 3.6595603-4.04504172-.1772467-2.03789292-2.102549-3.53117652-4.2995588-3.33573205-1.309715.11638828-2.4209562.80703195-3.0673229 1.77656829l-.0074295.01207803c-.2770143.40735898-.4861017.79495391-.7758522 1.34066123l-.0976449.18226844-.1167493.23277656v.00768602s-1.9656339 3.8199512-2.5695463 4.8696417l-.0721723.1076043-.0721723.1098003-.1549582.2009344-.4064999.4754352c-.1082584.1174863-.222885.2316786-.3375116.3447728l-.0679269.0669782c-.1952898.1833664-.3958863.3557528-.6102805.5149632l-.178308.1262703-.1061358.0735662c-.1432832.1032123-.2876278.1998365-.4404633.2909707-.2812597.1636024-.5561513.3107348-.8395337.4359071-1.1335297.5028852-2.3976064.7543278-3.76357333.7543278-.15283546 0-.30567093-.004392-.46062911-.01098-2.41458807-.1043103-4.42586034-.9871044-5.97225807-2.6253244C.74401267 12.3854699-.00106023 10.5254534.00000113 8.41070028c0-.12627031.00318407-.25473662.00849086-.38430093.06368145-1.51194964.50732884-2.92068704 1.3203286-4.1899781.81512248-1.26929106 1.91468875-2.25419944 3.2711035-2.93056907C5.81093288.30744074 7.13550691.00549001 8.56090989 0h.07323366c.12736289.001098.25790985.003294.38739545.00878402.11887203.00549001.23986678.02086205.3587388.02854807.01910444.002196.04033158.00439201.05943602.00768602.77479088.06917416 1.52729328.22179653 2.24477088.46994513.0827859.02745007.1623877.05819414.2430509.08784021.0265339.00878402.0530678.01976405.0785404.02964607.6750233.26242264 1.2874265.58523542 1.8297802.96075232l-2.2670594 4.21084015c-.7227844-.74115178-1.62918365-1.1210607-2.80410629-1.16717681l-.23031455-.00658802c-.73976611 0-1.3850714.15921039-1.95183625.47872916-.02865665.01537203-.0573133.03184207-.08596995.04941012-.20271927.1251723-.39694767.26571664-.58268521.43151504-.76311597.69064366-1.14202056 1.48998959-1.1834135 2.51772007 0 .01427403-.00106136.02964607-.00212272.04721411-.01910443.64562556.11781068 1.25501703.42666568 1.85123244.27383021.5259433.63999851.9475763 1.11760934 1.2758791.05837465.0406261.11887202.0801542.18149211.1185843.58480793.3579488 1.24391087.5457073 2.01233363.5775494.09339945.00549.18467618.009882.2738302.009882 1.27575161 0 2.26812071-.4875132 3.14586331-1.4834016.3937636-.56656934.7461343-1.252821 1.0751551-1.94126866l.1655717-.34696883.0785405-.15921039-.0021228-.002196 1.499698-3.13699356c.1082585-.19434647.2218237-.38869294.3375117-.5775494.1708785-.29426471.4033158-.62146949.6548575-.93769426l.0042454.00439201.0010614.00219601c.1209947-.15481837.2504803-.31293076.3863341-.47104314l.1836148-.19983648.0350248-.03952809.0721723-.07356618h-.0021227l.1538968-.16909241.1125039-.11419227c.1560195-.14823036.3014255-.28328469.4351565-.39308495.6569803-.54680532 1.4604278-1.00247642 2.3827474-1.34724925.9148901-.34806684 1.8881548-.54570732 2.8943216-.59292143.1475287-.00549001.293996-.00768602.4340952-.00768602 1.4328325 0 2.7754496.30304873 3.9907038.90365618.807693.40296697 1.5241092.9124402 2.1428806 1.52841969.4234816.42053501.8023862.88938214 1.1335297 1.40544338.7418888 1.15729479 1.1791681 2.43866388 1.2959174 3.80787318v.00439202c.0095522.1262703.018043.2503446.0233498.37771291zm8.0367228 7.63429044c-1.0782946 0-2.0563798-.1272834-2.9342556-.3818503-.8778759-.2545668-1.6273584-.6565702-2.2484478-1.2081316-.623177-.5515614-1.1033469-1.2537415-1.4415535-2.1054796-.3382066-.8517381-.5073099-1.8784909-.5073099-3.07495492V.92134622h4.9342676v7.90748146c0 .8962873.2108572 1.54543262.6315278 1.95061812.4217144.4062462.9572082.608839 1.6064814.608839.6638871 0 1.2025124-.1888037 1.6179638-.5674719.4133636-.3786681.6221332-1.00659954.6221332-1.88909781V.92134622h4.9342675v7.86611435c0 1.23889183-.1732787 2.29216193-.5187922 3.15874983-.3455136.8676485-.8329904 1.5761928-1.4603428 2.1277542-.6304839.5515614-1.3893611.9525041-2.2818508 1.2081316-.8924897.2535062-1.876838.3807896-2.9540887.3807896z" fill="#2A73CC" fill-rule="nonzero"/></svg>