<svg xmlns="http://www.w3.org/2000/svg" width="49" height="35"><path fill="#EA38BA" fill-rule="nonzero" d="M18.0777413 17.156551c0 1.231842-.1316325 1.846998-1.0412548 1.846998-.9497134 0-1.0996095-.559372-1.0996095-1.677459V7.492352H8.5627889v11.549699c0 2.009099.492675 3.663807 1.6470757 4.96434 1.154178 1.299221 2.5805299 1.949159 4.3625789 1.949159 1.2051828 0 2.4152655-.363143 3.6716758-1.092491-.6922395 2.575471-2.2479966 3.862879-4.5824117 3.862879-.7305488 0-1.4281338-.20126-2.58053-.604217 0 0-1.0907004-.340174-2.5183887-1.156152v6.000611s1.4201156.873731 2.5183887 1.280189C12.4264565 34.748425 13.7507989 35 15.0842731 35c3.0395729 0 5.5815708-1.143463 7.7231033-3.429295 1.7949672-1.921815 2.6444529-4.446971 2.6444529-7.573721V7.492352h-7.374088v9.664199zM34.7970627.08839c-8.751217.774195-8.1563098 9.965214-8.1563098 9.965214v16.07258c4.7576989 0 7.1359915-2.243174 7.1359915-5.34936v-2.099229h3.5095296v-6.990941h-3.5095296v-.93564c0-1.092711.2946696-1.933847.7884582-2.52472.4830976-.576653 1.1891463-.869793 2.0693685-.882919.586889.006563 1.6653394.197541 1.8833903 1.028614l.0160365.066066v7.286487c0 2.676102.5133887 4.824115 1.6165619 6.444695.871313 1.268595 2.0094546 2.273145 3.4518429 3.015181 1.4428339.740506 2.9598362 1.109556 4.5890936 1.109556.179519 0 .5064841-.005032.8085037-.018376v-7.403962c-1.5083159 0-2.1553416-.273889-2.6355438-.840042-.4813158-.565059-.7138442-1.684021-.7138442-3.082559h2.5685026V7.492352H45.786699C45.3292151 4.69615 43.6195528.484128 37.2780331.014886c0 0-.7508171-.027782-1.3390425-.007438-.459043.016189-1.1419279.080942-1.1419279.080942zM9.8661948 25.54428l.0053455.011157c-.8207537.493087-1.784499.835666-2.497675 1.0168v.038065l-.0247228-.034564c-.4367702.094067-.869754.145694-1.2862559.145694-1.7974172 0-3.2375783-.655407-4.4011109-1.96666C.4980204 23.443301 0 21.774374 0 19.747773V.484347h7.3738653v19.263645c0 2.026601.4920068 3.695527 1.656653 5.00678.2643785.297952.5412298.558278.8356765.789508z"/></svg>