<?xml version="1.0" encoding="UTF-8"?>
<!DOCTYPE svg PUBLIC '-//W3C//DTD SVG 1.1//EN' 'http://www.w3.org/Graphics/SVG/1.1/DTD/svg11.dtd'>
<svg width="1e3" height="400" xmlns="http://www.w3.org/2000/svg" xmlns:xlink="http://www.w3.org/1999/xlink">
 <clipPath id="d">
  <path d="m0-1v83h55.937v236h-54.414v82h194.65v-82h-55.938v-236h54.414v-83zm554.02 1v82h55.938v236h-54.414v82h138.71v-228.16l82.656 228.08 1.68.04 81.172-228.12v228.16h140.23v-82h-55.938v-236h54.415v-82h-156.33l-64.726 182.89-65.547-182.89z"/>
  <path id="c" d="m222.23 0v82h55.937v130h215.31v-24.928s18.011-14.042 23.75-27.367l11.523-25.855s5.352-14.472 5.352-27.405l-2.305-25.855s-3.616-21.063-9.922-27.328l-22.266-25.895s-28.333-27.367-65.859-27.367zm140.23 82h81.992v76h-81.992z"/>
  <use transform="matrix(1 0 0 -1 0 400)" xlink:href="#c"/>
 </clipPath>
 <path d="m0 13.683h1030v53.232h-1030m0 53.232h975v53.242h-975v53.222h975v53.222h-975m0 53.242h1030v53.242h-1030" clip-path="url(#d)" fill="none" stroke="#1f70c1" stroke-width="27.37"/>
</svg>
