<svg xmlns="http://www.w3.org/2000/svg" width="1088" height="222"><g fill="none" fill-rule="evenodd"><path fill="#F04D21" fill-rule="nonzero" d="M147.6 77.8l20.08-35.12c.64-1.12.64-2.48 0-3.6L146.56 2.2v-.08c-.08-.08-.16-.16-.16-.32l-.08-.08c-.08-.08-.16-.24-.24-.32-.08-.08-.24-.16-.32-.24l-.08-.08c-.08-.08-.16-.16-.24-.16 0 0-.08 0-.08-.08-.24-.16-.48-.24-.8-.32h-.08c-.08 0-.24-.08-.32-.08H24.08 24c-.08 0-.24 0-.32.08h-.08c-.24.08-.56.16-.8.32 0 0-.08 0-.08.08-.08.08-.16.08-.24.16l-.08.08c-.08.08-.24.16-.32.24-.08.08-.16.24-.24.32l-.08.08c-.08.08-.16.16-.16.32v.08L.48 39.08a3.615 3.615 0 000 3.6l20.64 36.08v118.8c0 .08 0 .24.08.32v.08c.08.24.16.56.32.8 0 0 0 .08.08.08.08.08.08.16.16.24l.08.08c.08.08.16.24.24.32.08.08.24.16.32.24l.08.08c.08.08.16.16.32.16h.08l36.88 21.12c.56.32 1.2.48 1.76.48.64 0 1.2-.16 1.76-.48l36.88-21.12h.08c.08-.08.16-.16.32-.16l.08-.08c.08-.08.24-.16.32-.24.08-.08.16-.24.24-.32l.08-.08c.08-.08.16-.16.16-.24 0 0 0-.08.08-.08.16-.24.24-.48.32-.8v-.08c0-.08.08-.24.08-.32v-.08-42.32h42.32c.08 0 .24 0 .32-.08h.08c.24-.08.56-.16.8-.32 0 0 .08 0 .08-.08.08-.08.16-.08.24-.16l.08-.08c.08-.08.24-.16.32-.24.08-.08.16-.16.24-.32l.08-.08c.08-.08.16-.16.16-.32v-.08l21.12-36.88c.64-1.12.64-2.48 0-3.6L147.6 77.8zm-27.36 33.28H61.28c-.88-.08-1.76.24-2.48.8l-.08.08-.16.16c-.64.64-1.04 1.52-1.04 2.56v59.2l-29.76 17.04V81.32H137.2l-16.96 29.76zm-25.76 79.84l-29.76-17.04v-50.56l29.76 29.76v37.84zm25.76-153.68h-72.8L30.4 7.48h106.88l-17.04 29.76zm-72.8 7.2h72.8l17.04 29.76H30.4l17.04-29.76zm96 26.08l-16.96-29.68 16.96-29.68 16.96 29.68-16.96 29.68zM24.24 11.16L41.2 40.84 24.24 70.52 7.28 40.84l16.96-29.68zm36.88 202.88l-29.68-16.96 29.68-16.96 29.68 16.96-29.68 16.96zm38.4-66l-29.76-29.76h50.48l17.04 29.76H99.52zm43.92-3.68l-16.96-29.68L143.44 85l16.96 29.68-16.96 29.68z"/><g transform="translate(242 49)"><path fill="#000" fill-rule="nonzero" d="M.6 7.1c0-2.4 1-3.4 3.4-3.4h73.2c2.4 0 3.4 1 3.4 3.4v10.8c0 1.7-.7 2.4-2.4 2.4h-59v33.2H66c2.4 0 3.4 1 3.4 3.4v9.8c0 2.4-1 3.4-3.4 3.4H19.1v48.4c0 2.4-1 3.4-3.4 3.4H3.9c-2.4 0-3.4-1-3.4-3.4V7.1h.1zm78.7 75c0-25.5 17.4-41.3 41.3-41.3s41.3 15.8 41.3 41.3c0 27.3-18.9 41.3-41.3 41.3s-41.3-13.9-41.3-41.3zm64.7.2c0-17-10.5-26.6-23.4-26.6-13 0-23.4 9.6-23.4 26.6 0 15.5 8.8 26.3 23.4 26.3 14.7 0 23.4-10.8 23.4-26.3zm32.1-36.4c0-2.4 1-3.4 3.4-3.4H190c2.4 0 3.4 1 3.4 3.4V53c5.6-7.1 14-12.1 25.6-12.1 15.2 0 24.6 9.3 24.6 23.4 0 2.4-1.2 3.4-3.4 3.4h-10.6c-1.9 0-2.5-.7-2.7-2.7-.7-5.7-4.2-9.3-11.5-9.3-6.7 0-12.5 4.6-16.2 9.8-3.7 5.2-5.9 11.6-5.9 21.7v31.2c0 2.4-1 3.4-3.4 3.4h-10.5c-2.4 0-3.4-1-3.4-3.4V45.9h.1zm78.9 0c0-2.4 1-3.4 3.4-3.4h10.5c2.4 0 3.4 1 3.4 3.4v7.2c5.4-7.6 12.3-12.3 23.4-12.3 10.1 0 17 4 20.1 11.1 5.4-6.4 13.7-11.1 25.5-11.1 14 0 23.8 7.6 23.8 23.4v54.1c0 2.4-1 3.4-3.4 3.4H351c-2.4 0-3.4-1-3.4-3.4V66.5c0-7.1-3-11-9.9-11-5.1 0-9.8 2.4-13.8 7.2-4.2 5.1-6.1 9.8-6.1 18.2v37.3c0 2.4-1 3.4-3.4 3.4H304c-2.4 0-3.4-1-3.4-3.4V66.3c0-7.1-3-10.8-9.9-10.8-4.7 0-9.6 2.7-13.1 7.2-3.5 4.6-5.4 7.9-5.4 16.7v38.8c0 2.4-1 3.4-3.4 3.4h-10.5c-2.4 0-3.4-1-3.4-3.4V45.9h.1zM392 6.8c6.4 0 11.5 5.1 11.5 11.5s-5.1 11.5-11.5 11.5-11.5-5.1-11.5-11.5c0-6.5 5.1-11.5 11.5-11.5zm-8.6 39.1c0-2.4 1-3.4 3.4-3.4h10.5c2.4 0 3.4 1 3.4 3.4v72.5c0 2.4-1 3.4-3.4 3.4h-10.5c-2.4 0-3.4-1-3.4-3.4V45.9zm95.8 68.9c-6.6 5.6-12.3 8.6-24.4 8.6-19.9 0-36.6-13.8-36.6-41.3 0-26 17.7-41.3 38.6-41.3 9.9 0 17.5 3.2 22.4 8.4V3.7c0-2.4 1-3.4 3.4-3.4H493c2.4 0 3.4 1 3.4 3.4v114.6c0 2.4-1 3.4-3.2 3.4h-8.3c-2.4 0-3.5-.8-4.4-3.4l-1.3-3.5zm0-39.2c0-5.2-1-8.6-4.6-12.5-3.7-4.2-9.3-7.4-16.2-7.4-12.8 0-22.4 10.1-22.4 26.6 0 15.2 8.6 26.3 22.3 26.3 7.6 0 13.5-3.2 16.9-7.6 3.2-4 4-7.6 4-13.1V75.6zM577 114c-6.6 6.2-13 9.4-25.1 9.4-21.4 0-39.4-13.8-39.4-41.3 0-26 18.2-41.3 40.5-41.3 12 0 19.9 4.2 24.1 9.3v-4.2c0-2.4 1-3.4 3.4-3.4H591c2.4 0 3.4 1 3.4 3.4v72.5c0 2.4-1 3.4-3.4 3.4h-8.3c-2.2 0-3.5-.8-4.2-3.4L577 114zm0-39.1c0-5.1-1.2-8.4-4.9-12.3-3.5-3.5-9.3-6.9-17.2-6.9-14 0-24.6 9.9-24.6 26.6 0 16.2 10.1 26.3 24.3 26.3 8.8 0 15-4.2 18.5-8.6 2.9-3.9 3.9-7.2 3.9-12.6V74.9zm35.9-71.1c0-2.4 1-3.4 3.4-3.4h10.5c2.4 0 3.4 1 3.4 3.4v50.6c6.2-7.4 16.2-13.5 28-13.5 22.8 0 34.7 15.3 34.7 41 0 23.8-14.3 41.6-39.1 41.6-9.8 0-17.2-2.5-23.6-6.7v1.7c0 2.4-1 3.4-3.4 3.4h-10.5c-2.4 0-3.4-1-3.4-3.4V3.8zm17.2 91.3c0 4 2 6.1 4.4 7.9 5.1 3.7 11.1 5.6 17 5.6 15.2 0 23.4-11.6 23.4-26.6 0-17.5-8.8-26.3-20.2-26.3-11 0-17.7 7.4-21.2 13.3-2 3.5-3.4 6.6-3.4 12.6v13.5zm77.3-91.3c0-2.4 1-3.4 3.4-3.4h10.5c2.4 0 3.4 1 3.4 3.4v96.4c0 6.1 2.7 8.4 6.6 8.4 3.7 0 5.4-1.7 7.1-1.7 1 0 1.7.8 1.7 2.2v10.1c0 1.5-.7 2.2-1.7 2.5-2.7 1-7.6 1.7-11.6 1.7-9.3 0-19.2-5.4-19.2-19.2V3.8h-.2zm115.7 101.1c.5.5.8 1.2.8 1.9s-.3 1.3-1 2c-11 11-19.1 14.7-34.6 14.7-21.1 0-41.1-14.7-41.1-41.3 0-25.1 18.2-41.3 40.5-41.3 27 0 39.4 20.9 39.4 40.1v3.4c0 2.4-1 3.4-3.4 3.4h-59.3c2.2 12.8 11.3 20.9 24.8 20.9 11.1 0 17.2-4.2 22.4-10.1.8-1 1.5-1.5 2.5-1.5.7 0 1.3.3 2.2 1.2l6.8 6.6zM810 73.5c-2.9-12.3-12-17.9-21.9-17.9-10.8 0-20.9 6.6-23.6 17.9H810z"/><circle cx="840.6" cy="46.5" r="4.4" stroke="#000"/><path fill="#000" fill-rule="nonzero" d="M840.3 46.1c.3 0 .5-.1.6-.2.1-.1.2-.3.2-.5s-.1-.4-.2-.5c-.1-.1-.3-.1-.6-.1h-.6v1.3h.6m-.5.9v2h-1.3v-5.2h2c.7 0 1.2.1 1.5.3.3.2.5.6.5 1.1 0 .3-.1.6-.2.8-.2.2-.4.4-.7.5.2 0 .3.1.5.3.2.2.3.4.4.7l.7 1.5h-1.4l-.6-1.3c-.1-.3-.3-.4-.4-.5-.1-.1-.3-.1-.5-.1h-.5"/></g></g></svg>