<svg width="40px" height="40px" xmlns="http://www.w3.org/2000/svg"><path d="M40 7.64227177c-1.4708036.6499831-3.0540179 1.08953107-4.7141964 1.28706972 1.694375-1.01224107 2.9954464-2.61371833 3.6096428-4.52213206-1.5857143.93628519-3.3434821 1.61730881-5.2109821 1.98330231-1.4975-1.58875865-3.6302679-2.58098793-5.99125-2.58098793-4.5310714 0-8.2051786 3.65957922-8.2051786 8.17432919 0 .6414447.0726786 1.2651901.2124107 1.8629647-6.8191964-.341001-12.86705354-3.5964309-16.91410711-8.54156785C2.08 6.51262816 1.67482143 7.91585524 1.67482143 9.41522788c0 2.83607162 1.44892857 5.33790182 3.65089286 6.80436612-1.344375-.0418914-2.60964286-.4096637-3.71696429-1.0220246-.00125.033353-.00125.0688406-.00125.1033498 0 3.9610903 2.82839286 7.2635701 6.58205357 8.0161026-.68866071.1861541-1.41357143.2857684-2.16258928.2857684-.52839286 0-1.04241072-.0509634-1.54348215-.1457748 1.04491072 3.2465358 4.07517857 5.6104179 7.66633926 5.6758787C9.34116071 31.3263648 5.8025 32.6325569 1.95723214 32.6325569c-.66196428 0-1.31464285-.0390452-1.95723214-.1142896 3.63080357 2.3187 7.94464286 3.6722089 12.5797321 3.6722089 15.0941072 0 23.3482143-12.4564086 23.3482143-23.2587757 0-.3551426-.0073214-.707706-.0242857-1.0574232C37.50875 10.719819 38.9003571 9.28074861 40 7.64227177" fill="#4BA0EB" fill-rule="evenodd"/></svg>