<svg width="109px" height="23px" xmlns="http://www.w3.org/2000/svg"><g fill="none" fill-rule="evenodd"><path d="M38.4748344 13.2472868l-.6496688 1.8186047h-.0541391c-.1082782-.4100775-.3067881-1.0341086-.6316225-1.7829458l-3.482947-8.64728679h-3.4107616V18.4178295h2.2557947V9.91317829c0-.53488372 0-1.14108527-.0180464-1.88992248-.0180463-.3744186-.0541391-.65968992-.0721854-.87364341h.0541391c.1082781.53488372.2346026.92713179.3248344 1.17674419l4.186755 10.05581391h1.5880794l4.1506623-10.1449612c.0902318-.23178294.1804636-.69534883.2706953-1.0875969h.0541391c-.0541391 1.01627907-.0902318 1.9255814-.1082781 2.47829458v8.73643412h2.4001655V4.6h-3.2844371l-3.5731788 8.6472868zm9.131457-4.76046509h2.3460265v9.87751939h-2.3460265V8.48682171zm1.1910596-4.17209303c-.3970199 0-.7218543.14263566-.9925497.39224806-.2706953.24961241-.4150662.57054264-.4150662.9627907 0 .37441861.1443709.69534884.4150662.94496124.2706954.24961241.5955298.37441861.9925497.37441861s.7399007-.14263566.9925497-.37441861c.2706953-.2496124.4150662-.57054263.4150662-.94496124 0-.3744186-.1443709-.69534884-.4150662-.9627907-.2346027-.2496124-.5774835-.39224806-.9925497-.39224806zm9.4743377 4.08294574c-.4331125-.08914729-.8842715-.14263566-1.3173841-.14263566-1.0647351 0-2.0392384.23178295-2.8513245.69534884-.8120861.46356589-1.4617549 1.1054264-1.8768212 1.9077519-.4331125.8201551-.6496688 1.7651163-.6496688 2.8527132 0 .9449613.2165563 1.7829457.6316225 2.5496124.4150662.7488372.9925497 1.3550388 1.768543 1.7651163.7399007.4100775 1.6061259.624031 2.5806292.624031 1.1188741 0 2.0753311-.2317829 2.8332781-.6596899l.0180464-.0178295v-2.1395349l-.0902318.0713179c-.3428808.2496124-.7399007.4635659-1.1369205.5883721-.4150663.1426356-.7940398.2139535-1.1188742.2139535-.9384106 0-1.6783113-.2674419-2.2016556-.855814-.5413908-.5705426-.8120861-1.3550388-.8120861-2.3356589 0-1.0162791.2706953-1.8186047.8301324-2.4069768.5594371-.5883721 1.2993378-.8914728 2.2016556-.8914728.7579471 0 1.5339404.2496124 2.2377484.7488372l.0902318.0713178V8.77209302l-.0180464-.01782945c-.3067881-.12480621-.6496689-.26744186-1.1188742-.35658915zm7.7418875-.07131783c-.5774835 0-1.1188742.17829457-1.5880795.55271318-.3970199.32093023-.6677152.78449612-.9023179 1.33720933h-.0180463V8.48682171H61.159106v9.87751939h2.3460265v-5.0457364c0-.855814.1804635-1.5689923.5774834-2.0860466.3970199-.5348837.9023179-.8023255 1.515894-.8023255.2165563 0 .4331126.0534883.703808.0891472.252649.0713179.4331126.1426357.5594371.231783l.0902318.0713178V8.50465116l-.0541391-.01782945c-.1624172-.10697675-.4872517-.16046512-.8842715-.16046512zm16.5846026 4.26124031c-.7399007-.3031008-1.209106-.5348837-1.4256622-.7310078-.1804636-.1782945-.2706954-.4279069-.2706954-.7488372 0-.2674418.1082781-.5348837.3789735-.7131783.2706954-.1782945.5774834-.2674418 1.0286424-.2674418.3970199 0 .8120861.0713178 1.2091059.1782946.3970199.1069767.7579471.2674418 1.0466888.4813953l.0902318.0713178V8.68294574l-.0541391-.01782946c-.2706954-.10697675-.6316225-.21395349-1.0647351-.30310078-.4331126-.07131783-.8301324-.10697674-1.1549669-.10697674-1.1188742 0-2.0392384.26744186-2.7610927.85581395-.7218543.55271318-1.0647351 1.30155039-1.0647351 2.17519379 0 .4635659.0721854.8736434.2346027 1.2124031.1624172.3387597.3970198.6596899.7218543.9271318.3248344.2496124.7940397.5348837 1.4437086.8023256.5413907.2317829.9564569.4100775 1.2091059.5527132.252649.1426356.4150663.3031007.5413908.4279069.0902317.1426357.1443708.3209303.1443708.5527132 0 .6596899-.505298.9806202-1.5339404.9806202-.3970199 0-.8120861-.0713179-1.2993377-.231783-.4872517-.1604651-.9384106-.392248-1.3173841-.6596899l-.0902318-.0713178v2.2643411l.054139.0178294c.3428808.1604651.7579471.2674419 1.2632451.3922481.505298.0891473.9564569.1604651 1.3534768.1604651 1.209106 0 2.2016556-.2674419 2.9054636-.855814.7218543-.5705426 1.1008278-1.3015504 1.1008278-2.2465116 0-.6596899-.1804636-1.248062-.5774835-1.6937984-.5233443-.427907-1.1730132-.8736435-2.1114238-1.2302326zm21.6556292 2.8883721c0 2.0860465.99255 3.1379845 2.977649 3.1379845.324834 0 .667715-.0534884.99255-.1069768.34288-.0713178.595529-.1604651.7399-.2317829l.018047-.0178295v-1.9077519l-.090232.0713178c-.144371.0891473-.270696.1604651-.487252.2139535-.180463.0534884-.342881.0713179-.469205.0713179-.469205 0-.79404-.1069768-1.028642-.3744187-.216557-.2496124-.324835-.6596899-.324835-1.2658914V9.80620155h.036093V5.5627907l-.072186.01782946-2.237748.65968992-.054139.01782945V15.475969zm-3.537086-8.23720931c0-.57054264.144371-1.01627907.39702-1.30155039.252649-.28527132.631622-.42790697 1.100828-.42790697.324834 0 .667715.07131783 1.046688.23178294l.090232.05348837V3.77984496l-.054139-.01782946c-.324834-.10697674-.757947-.17829457-1.317384-.17829457-.703808 0-1.317384.16046512-1.876821.42790698-.5594374.30310077-.9745036.71317829-1.2812917 1.26589147-.3067881.53488372-.4692053 1.14108527-.4692053 1.83643411V18.3643411h2.364073V7.23875969zm-1.4617551 3.15581391h9.7269871V8.48682171H96.7104305v1.88992249h2.5445364v.0178294zM72.4019868 8.27286822c-1.6422186 0-2.9596027.48139535-3.8799669 1.42635659-.9384106.94496119-1.3895696 2.24651159-1.3895696 3.88682169 0 1.5333333.4692053 2.7813954 1.3715232 3.6906977.9023179.8914729 2.1294702 1.3550387 3.6634106 1.3550387 1.6061258 0 2.8874172-.4813953 3.8077815-1.444186.9384106-.9627907 1.3895695-2.2465116 1.3895695-3.8333333 0-1.5689923-.4331126-2.8170543-1.3173841-3.72635662-.8481788-.90930233-2.0933775-1.35503876-3.6453642-1.35503876m1.8768211 7.59534888c-.4331125.5527131-1.1188741.820155-1.9670529.820155-.8481788 0-1.5339404-.2674419-2.0211921-.855814-.4872516-.5527131-.7218543-1.3550387-.7218543-2.3713178 0-1.051938.252649-1.8542636.7218543-2.4248062.4872517-.5705426 1.1549669-.8558139 2.0031457-.8558139.8301325 0 1.4798013.2674418 1.9490066.820155.4692053.5527132.7218543 1.3550388.7218543 2.4069767-.0360927 1.0697675-.2346026 1.907752-.6857616 2.4604652M91.47698642 8.27286783c-1.64221854 0-2.95960265.48139535-3.87996688 1.42635659-.9384106.94496124-1.38956954 2.24651163-1.38956954 3.8868217 0 1.53333334.4692053 2.78139535 1.37152318 3.69069768.90231788.89147287 2.1294702 1.3550388 3.66341059 1.3550388 1.60612583 0 2.88741722-.48139539 3.80778146-1.44418609.9384106-.9627907 1.38956957-2.24651163 1.38956957-3.83333333 0-1.56899225-.43311261-2.81705427-1.31738414-3.72635659-.84817881-.90930233-2.09337748-1.35503876-3.64536424-1.35503876m1.8768212 7.59534884c-.43311259.55271317-1.11887418.82015504-1.96705298.82015504-.84817881 0-1.5339404-.26744187-2.02119206-.85581396-.48725165-.55271318-.7218543-1.35503876-.7218543-2.37131783 0-1.05193798.252649-1.85426356.7218543-2.4248062.48725166-.57054263 1.15496689-.85581395 2.0031457-.85581395.83013245 0 1.47980132.26744186 1.94900662.82015504.4692053.55271317.72185431 1.35503876.72185431 2.40697674-.03609272 1.06976744-.23460265 1.90775194-.68576159 2.46046512" fill="#737373" fill-rule="nonzero"/><path fill="#F25022" d="M0 0h11.0624172v10.9294574H0z"/><path fill="#7FBA00" d="M12.2173841 0h11.0624172v10.9294574H12.2173841z"/><path fill="#00A4EF" d="M0 12.0705426h11.0624172V23H0z"/><path fill="#FFB900" d="M12.2173841 12.0705426h11.0624172V23H12.2173841z"/></g></svg>