<svg width="108px" height="25px" xmlns="http://www.w3.org/2000/svg"><path d="M7.183278 8.655297c-.779463 0-1.581916.323936-2.191837 1.134137-.61064.781343-.886505 1.995562-.886505 3.315836 0 1.779845.472707 2.886566 1.024438 3.479607.500006.512237 1.221998.808758 1.915253.808758 2.078331 0 2.995008-2.184584 2.995008-4.397306 0-1.857762-.525868-3.825908-2.274453-4.260228-.193968-.051945-.387936-.080804-.581904-.080804zM3.800334 7.414384c.137933-.160886.275866-.322493.413799-.457406.721991-.675288 2.025168-1.238749 3.634383-1.238749 3.550332 0 6.297492 2.614575 6.297492 7.306959 0 2.88368-1.306051 7.363954-6.270192 7.363954-1.60706 0-2.440404-.512238-3.579068-1.186804V25H0V6.09411h3.800334v1.320274zm16.329584.104829c.93392-.775571 1.949018-1.391699 4.145885-1.603809v3.63905l-1.402316.213553c-2.028043.349187-2.635809.644265-2.635809 2.410402v7.869698h-4.22419V6.048153h4.11643v1.47106zm6.00108 12.52875V6.080475h4.215569v13.967488h-4.215569zm32.880507-3.463735c-.496414.732283-.994265 1.43715-1.740683 2.116767-1.244268 1.137023-3.132222 2.003497-5.459837 2.003497-4.285973 0-7.301096-2.683114-7.301096-7.31778 0-3.413954 1.716257-7.799717 7.411011-7.799717.861361 0 3.355645.079361 5.21199 2.028749 1.878615 1.978968 1.990685 4.743607 2.047439 6.339479H48.852615c-.028018 1.763973.995702 3.525059 3.29027 3.525059 2.331207 0 3.13366-1.49126 3.662402-2.493369l3.206218 1.597315zm2.022941 3.463735V0h4.384394v20.047963h-4.384394zm7.081984 0V6.080475h4.214851v13.967488H68.11643zM79.650409 7.352194c.412361-.428548.688945-.748155 1.435363-1.096621.662364-.264054 1.599876-.504301 2.624314-.504301.857769 0 1.82258.159443 2.570434.558411 1.519415.775571 1.902322 2.033077 1.902322 4.197461v9.540602H83.95937v-7.856712c0-1.257507-.029454-1.710584-.194686-2.085022-.332619-.747434-1.079036-1.069927-1.906633-1.069927-2.238533 0-2.238533 1.738-2.238533 3.475999v7.535662h-4.251489V6.124989h4.28238v1.227205zm24.724156 9.232034c-.497851.732283-.99642 1.43715-1.744274 2.116767-1.244269 1.137023-3.127194 2.003497-5.453372 2.003497-4.290283 0-7.307562-2.683114-7.307562-7.31778 0-3.413954 1.715538-7.799717 7.418914-7.799717.857769 0 3.349897.079361 5.206242 2.028749 1.880052 1.978968 1.990685 4.743607 2.044565 6.339479H94.218549c-.032328 1.763973.993546 3.525059 3.290989 3.525059 2.324741 0 3.12863-1.49126 3.653062-2.493369l3.211965 1.597315zm-49.59659-5.229151c-.081897-.596648-.193249-1.382319-.805326-2.003497-.525868-.516567-1.330476-.787836-2.079048-.787836-1.024438 0-1.740683.489151-2.155199.920584-.581186.624064-.719837 1.274101-.857051 1.870749h5.896624zm45.361624 0c-.081179-.596648-.195405-1.382319-.802453-2.003497-.528023-.516567-1.329039-.787836-2.075456-.787836-1.025157 0-1.744275.489151-2.161665.920584-.57903.624064-.7184 1.274101-.854896 1.870749h5.89447zm-57.718242 4.596501c.352734 1.198347.96984 2.192521 1.793844 2.960156-.196841.176036-.412361.351351-.659491.521616-1.112082.758256-2.526611 1.271936-4.163844 1.271936-2.775178 0-7.190463-1.622566-7.190463-7.384876 0-4.110886 2.442559-7.569571 7.273079-7.569571 1.255044 0 3.201189.268384 4.867158 1.779845-.91596.878739-1.514387 1.985461-1.861374 3.142685l-.104168-.030302c-.224859-.423498-.512937-.834009-1.096996-1.243077-.41739-.269827-.945414-.485544-1.609934-.485544-2.303908 0-3.081935 2.567681-3.081935 4.270329 0 1.867141.943978 4.219105 3.221305 4.219105.220548 0 1.277314 0 2.165975-.97253.145116-.162329.25144-.31095.337648-.458849l.109196-.020923zM30.514457 2.54784c0 1.223598-1.020127 2.217772-2.278045 2.217772-1.257199 0-2.274453-.994174-2.274453-2.217772 0-1.225041 1.017254-2.218493 2.274453-2.218493 1.257918 0 2.278045.993452 2.278045 2.218493zm42.155478 0c0 1.223598-1.020128 2.217772-2.27589 2.217772-1.257918 0-2.276609-.994174-2.276609-2.217772 0-1.225041 1.018691-2.218493 2.276609-2.218493 1.255762 0 2.27589.993452 2.27589 2.218493zm33.351561 2.206156c.780182 0 1.434644.613242 1.434644 1.375105 0 .761863-.654462 1.375827-1.434644 1.375827-.782337 0-1.413092-.613964-1.413092-1.375827s.630755-1.375105 1.413092-1.375105zm0 2.536658c.637939 0 1.193262-.529553 1.193262-1.161553 0-.632721-.555323-1.162274-1.193262-1.162274-.638657 0-1.170273.529553-1.170273 1.162274 0 .632.531616 1.161553 1.170273 1.161553zm-.512937-1.970311h.637939c.366384 0 .54742.150786.54742.451635 0 .302292-.196123.427826-.40374.461014l.464086.705589h-.275147l-.481328-.702704h-.248566v.702704h-.240664V5.320343zm.240664.701982h.28736c.229887 0 .415953-.033187.415953-.250347 0-.168822-.1796-.238804-.392965-.238804h-.310348v.489151z" fill="#007AFF" fill-rule="nonzero"/></svg>