<svg xmlns="http://www.w3.org/2000/svg" xmlns:xlink="http://www.w3.org/1999/xlink" width="140" height="140" version="1.1" viewBox="0 0 140 140"><title>addons/accessibility</title><g id="addons/accessibility" fill="none" fill-rule="evenodd" stroke="none" stroke-width="1"><circle id="Oval" cx="70" cy="70" r="64" fill="#DDB7FF" fill-opacity=".3" stroke="#6F2CAC" stroke-opacity=".8"/><path id="Shape" fill="#6F2CAC" fill-rule="nonzero" d="M69.8191079,35 C74.1860754,35 77.7078233,38.5079051 77.7078233,42.8577075 C77.7078233,47.2075099 74.1860754,50.715415 69.8191079,50.715415 C65.4521405,50.715415 61.9303926,47.2075099 61.9303926,42.8577075 C61.9303926,38.6482213 65.4521405,35 69.8191079,35 Z M64,74.972332 C64.5634797,72.7272727 64.606921,67.6936759 64.7477909,64.8873518 C64.7477909,63.9051383 64.1843113,63.0632411 63.3390918,62.7826087 L46.012092,57.5909091 C43.7581733,56.8893281 42.490344,54.5039526 43.1946936,52.3992095 C43.8990432,50.2944664 46.2938318,49.312253 48.4068806,49.8735178 C48.4068806,49.8735178 64.2547462,54.9249012 69.8895429,54.9249012 C75.5243396,54.9249012 91.794815,49.7332016 91.794815,49.7332016 C93.9078637,49.1719368 96.3026523,50.4347826 96.866132,52.5395257 C97.4296117,54.6442688 96.1617824,57.0296443 94.0487336,57.5909091 L76.7217339,62.7826087 C75.8765144,63.0632411 75.1721648,63.9051383 75.3130347,64.8873518 C75.4539046,67.6936759 75.4677703,72.7272727 76.03125,74.972332 C77.3517618,81.0228101 84.4779617,96.9371249 85.3650152,98.9059485 C85.693391,99.7345881 85.857579,100.384014 85.857579,100.854226 C85.857579,103.114646 84.0251467,104.947078 81.764727,104.947078 C79.9156665,104.947078 78.65625,103.649612 77.8454701,102.037317 C77.3049501,100.962453 74.6529744,95.542241 69.8895429,85.7766798 L61.9303926,102.754941 C61.9303926,102.754941 61.8855981,102.828956 61.796009,102.976986 C61.0781164,104.158123 59.7791818,104.947078 58.295977,104.947078 C56.0355572,104.947078 54.203125,103.114646 54.203125,100.854226 C54.203125,100.149831 54.3810685,99.4869973 54.6944557,98.908224 C55.5737902,96.9494221 62.6789781,81.0251475 64,74.972332 Z" opacity=".8"/></g></svg>