<?xml version="1.0" encoding="UTF-8"?>
<svg width="140px" height="140px" viewBox="0 0 140 140" version="1.1" xmlns="http://www.w3.org/2000/svg" xmlns:xlink="http://www.w3.org/1999/xlink">
    <title>addons/actions</title>
    <g id="addons/actions" stroke="none" stroke-width="1" fill="none" fill-rule="evenodd">
        <g id="Group-12" transform="translate(0.000000, 16.000000)">
            <rect id="Rectangle-Copy-15" fill="#6F2CAC" opacity="0.300000012" x="38" y="5" width="102" height="14" rx="4"></rect>
            <rect id="Rectangle-Copy-29" fill="#FF4785" x="38" y="48" width="92.5" height="14" rx="4"></rect>
            <rect id="Rectangle-Copy-30" fill="#6F2CAC" opacity="0.300000012" x="38" y="90" width="52.3246753" height="14" rx="4"></rect>
            <rect id="Rectangle-Copy-31" fill="#6F2CAC" opacity="0.300000012" x="95.6233766" y="90" width="35.1038961" height="14" rx="4"></rect>
            <circle id="Oval" fill="#6F2CAC" opacity="0.300000012" cx="12" cy="12" r="12"></circle>
            <circle id="Oval-Copy-2" fill="#6F2CAC" opacity="0.300000012" cx="12" cy="97" r="12"></circle>
            <path d="M18.8300593,7.16370725 C18.6034718,6.94543092 18.2361047,6.94543092 18.0095461,7.16370725 L10.2403578,14.6498394 L6.99047564,11.5183608 C6.76385908,11.3000006 6.39649195,11.3000565 6.16996242,11.5183608 C5.94334586,11.7366651 5.94334586,12.0906478 6.16996242,12.3089521 L9.81888929,15.824937 C9.82254439,15.8286546 9.82576437,15.8326517 9.82953551,15.8363134 C9.94298883,15.9456053 10.0916878,16.0001395 10.2403578,16 C10.3890278,16.0001395 10.5377267,15.9456053 10.6511511,15.8363134 C10.6547482,15.8328474 10.6577361,15.8290739 10.6612461,15.825552 L18.8300593,7.95427067 C19.0566469,7.73596638 19.0566469,7.38206745 18.8300593,7.16370725" id="Fill-1" fill="#FFFFFF"></path>
            <path d="M18.8300593,92.1637073 C18.6034718,91.9454309 18.2361047,91.9454309 18.0095461,92.1637073 L10.2403578,99.6498394 L6.99047564,96.5183608 C6.76385908,96.3000006 6.39649195,96.3000565 6.16996242,96.5183608 C5.94334586,96.7366651 5.94334586,97.0906478 6.16996242,97.3089521 L9.81888929,100.824937 C9.82254439,100.828655 9.82576437,100.832652 9.82953551,100.836313 C9.94298883,100.945605 10.0916878,101.000139 10.2403578,101 C10.3890278,101.000139 10.5377267,100.945605 10.6511511,100.836313 C10.6547482,100.832847 10.6577361,100.829074 10.6612461,100.825552 L18.8300593,92.9542707 C19.0566469,92.7359664 19.0566469,92.3820675 18.8300593,92.1637073" id="Fill-1" fill="#FFFFFF"></path>
            <circle id="Oval-Copy" fill="#FF4785" cx="12" cy="54" r="12"></circle>
            <circle id="Oval" fill="#FFFFFF" cx="12" cy="58" r="1"></circle>
            <rect id="Rectangle" fill="#FFFFFF" x="11" y="48" width="2" height="8" rx="1"></rect>
        </g>
    </g>
</svg>