<svg xmlns="http://www.w3.org/2000/svg" xmlns:xlink="http://www.w3.org/1999/xlink" width="140" height="140" version="1.1" viewBox="0 0 140 140"><title>addons/console</title><g id="addons/console" fill="none" fill-rule="evenodd" stroke="none" stroke-width="1"><rect id="Rectangle-49" width="140" height="140" x="0" y="0" fill="#2E1A5A" rx="4"/><path id="Path" fill="#FFF" fill-rule="nonzero" d="M22.891189,44.5392574 C20.274496,42.1306312 20.2747092,38.1143317 22.8922328,35.7067913 C25.3664532,33.4307665 29.2824364,33.4311184 31.7561532,35.7075541 L60.9667328,62.586055 C62.2277169,63.7467717 62.9288972,65.3382715 62.9288972,67.0018078 C62.9288972,68.6653442 62.2277169,70.256844 60.9667328,71.4175607 L31.7601892,98.2925046 C29.2862407,100.568862 25.3707971,100.569214 22.8963069,98.2932323 C20.27848,95.8851045 20.2780535,91.8686343 22.8956315,89.4604272 L47.3024805,67.0018149 L22.891189,44.5392574 Z"/><path id="Rectangle-7-Copy-8" fill="#FFF" fill-opacity=".2" d="M74.6344865,88.5733273 L117.365531,88.5733273 C120.516641,88.5733273 123.07112,91.1312741 123.07112,94.2866615 C123.07112,97.4420488 120.516641,99.9999956 117.365531,99.9999956 L74.6344865,99.9999956 C71.4833766,99.9999956 68.9288972,97.4420488 68.9288972,94.2866615 C68.9288972,91.1312741 71.4833766,88.5733273 74.6344865,88.5733273 Z"/></g></svg>