<svg xmlns="http://www.w3.org/2000/svg" width="160" height="160" fill="none" viewBox="0 0 160 160"><rect width="160" height="160" fill="#AAD895" rx="20"/><circle cx="80" cy="80" r="65" fill="url(#paint0_radial_2070_23793)" opacity=".2"/><circle cx="80.663" cy="80.663" r="37.806" fill="url(#paint1_radial_2070_23793)" opacity=".2"/><path fill="#FC521F" d="M125.259 33.3452C125.498 33.5773 125.735 33.8113 125.971 34.047L85.8426 74.5352C87.1808 75.9652 88 77.8869 88 80C88 84.4183 84.4183 88 80 88C75.5817 88 72 84.4183 72 80C72 75.5817 75.5817 72 80 72C81.9453 72 83.7284 72.6943 85.1151 73.8486L125.259 33.3452Z"/><path fill="url(#paint2_linear_2070_23793)" d="M125.89 33.9663L79.9478 79.9085V15C79.9652 15 79.9826 15 80 15C97.9127 15 114.133 22.2458 125.89 33.9663Z"/><path fill="url(#paint3_linear_2070_23793)" d="M125.89 33.9663L79.9478 79.9085V15C79.9652 15 79.9826 15 80 15C97.9127 15 114.133 22.2458 125.89 33.9663Z"/><path fill="url(#paint4_linear_2070_23793)" fill-opacity=".2" d="M125.89 33.9663L79.9478 79.9085V15C79.9652 15 79.9826 15 80 15C97.9127 15 114.133 22.2458 125.89 33.9663Z"/><defs><radialGradient id="paint0_radial_2070_23793" cx="0" cy="0" r="1" gradientTransform="translate(80 80) rotate(90) scale(65)" gradientUnits="userSpaceOnUse"><stop stop-color="#66BF3C" stop-opacity="0"/><stop offset="1" stop-color="#3EA90B"/></radialGradient><radialGradient id="paint1_radial_2070_23793" cx="0" cy="0" r="1" gradientTransform="translate(80.6635 80.6632) rotate(90) scale(37.8061)" gradientUnits="userSpaceOnUse"><stop stop-color="#66BF3C" stop-opacity="0"/><stop offset="1" stop-color="#3EA90B"/></radialGradient><linearGradient id="paint2_linear_2070_23793" x1="106.607" x2="85.198" y1="66.889" y2="57.51" gradientUnits="userSpaceOnUse"><stop stop-color="#FC521F" stop-opacity=".5"/><stop offset="1" stop-color="#FC521F" stop-opacity="0"/></linearGradient><linearGradient id="paint3_linear_2070_23793" x1="102.095" x2="79.948" y1="38.018" y2="38.232" gradientUnits="userSpaceOnUse"><stop stop-color="#FC521F" stop-opacity=".3"/><stop offset="1" stop-color="#FC521F" stop-opacity="0"/></linearGradient><linearGradient id="paint4_linear_2070_23793" x1="105.936" x2="79.948" y1="52.966" y2="44.477" gradientUnits="userSpaceOnUse"><stop stop-color="#FC521F"/><stop offset="1" stop-color="#FC521F" stop-opacity="0"/></linearGradient></defs></svg>