<?xml version="1.0" encoding="UTF-8"?>
<svg width="140px" height="140px" viewBox="0 0 140 140" version="1.1" xmlns="http://www.w3.org/2000/svg" xmlns:xlink="http://www.w3.org/1999/xlink">
    <title>addons/docs</title>
    <g id="addons/docs" stroke="none" stroke-width="1" fill="none" fill-rule="evenodd">
        <g id="Group" transform="translate(0.000000, 6.000000)">
            <path d="M136,82 C138.209139,82 140,83.790861 140,86 L140,96 C140,98.209139 138.209139,100 136,100 L4,100 C1.790861,100 0,98.209139 0,96 L0,86 C0,83.790861 1.790861,82 4,82 L136,82 Z M136,84 L4,84 C2.9456382,84 2.08183488,84.8158778 2.00548574,85.8507377 L2,86 L2,96 C2,97.0543618 2.81587779,97.9181651 3.85073766,97.9945143 L4,98 L136,98 C137.054362,98 137.918165,97.1841222 137.994514,96.1492623 L138,96 L138,86 C138,84.9456382 137.184122,84.0818349 136.149262,84.0054857 L136,84 Z" id="Rectangle" fill-opacity="0.8" fill="#FFAE00" fill-rule="nonzero"></path>
            <path d="M61,110 C63.209139,110 65,111.790861 65,114 L65,124 C65,126.209139 63.209139,128 61,128 L4,128 C1.790861,128 0,126.209139 0,124 L0,114 C0,111.790861 1.790861,110 4,110 L61,110 Z M61,112 L4,112 C2.9456382,112 2.08183488,112.815878 2.00548574,113.850738 L2,114 L2,124 C2,125.054362 2.81587779,125.918165 3.85073766,125.994514 L4,126 L61,126 C62.0543618,126 62.9181651,125.184122 62.9945143,124.149262 L63,124 L63,114 C63,112.945638 62.1841222,112.081835 61.1492623,112.005486 L61,112 Z" id="Rectangle-Copy" fill-opacity="0.8" fill="#66BF3C" fill-rule="nonzero"></path>
            <path d="M136,110 C138.209139,110 140,111.790861 140,114 L140,124 C140,126.209139 138.209139,128 136,128 L79,128 C76.790861,128 75,126.209139 75,124 L75,114 C75,111.790861 76.790861,110 79,110 L136,110 Z M136,112 L79,112 C77.9456382,112 77.0818349,112.815878 77.0054857,113.850738 L77,114 L77,124 C77,125.054362 77.8158778,125.918165 78.8507377,125.994514 L79,126 L136,126 C137.054362,126 137.918165,125.184122 137.994514,124.149262 L138,124 L138,114 C138,112.945638 137.184122,112.081835 136.149262,112.005486 L136,112 Z" id="Rectangle-Copy-2" fill-opacity="0.8" fill="#66BF3C" fill-rule="nonzero"></path>
            <rect id="Rectangle-Copy-16" stroke="#1EA7FD" stroke-width="2" x="119" y="47" width="16" height="16" rx="8"></rect>
            <path d="M87.0342298,15.8583219 C89.3057262,15.8583219 91.6052294,16.0204398 93.9325306,16.3444933 C96.3173649,16.6765577 98.5018892,17.3280869 100.482292,18.3004333 C102.509774,19.2958945 104.176731,20.6869746 105.471189,22.4659701 C106.737747,24.2066224 107.392438,26.4466515 107.45474,29.1639618 L107.459658,29.5969739 L107.459658,52.9078404 C107.459658,54.889713 107.571348,56.7841939 107.794424,58.5913846 C107.992395,60.1951964 108.320922,61.3969257 108.756097,62.1855724 L108.850972,62.3482415 L109.792316,63.8734525 L94.9536467,63.8734525 L94.727398,63.1861171 C94.5466095,62.636888 94.3912669,62.0791635 94.2613795,61.5130321 L94.1399775,60.9441018 L94.077,60.6 L93.7433737,60.8717391 C92.3608007,61.9650536 90.8406729,62.8192402 89.1859713,63.4320982 L88.7313547,63.5932563 L88.2700785,63.7424378 C85.5504353,64.5806298 82.7698518,65 79.9315403,65 C77.7304071,65 75.6701898,64.7278754 73.7529787,64.1818361 C71.801748,63.6261078 70.0845355,62.7566361 68.6092225,61.5738997 C67.1171667,60.377741 65.9513503,58.866612 65.1170784,57.0517933 C64.2828202,55.2370044 63.8704156,53.1024847 63.8704156,50.6547455 C63.8704156,47.958469 64.3463701,45.7040581 65.3158367,43.8989325 C66.2722068,42.1181924 67.5165313,40.6848614 69.0448832,39.6109522 C70.5393269,38.5608687 72.2422139,37.7756342 74.1483883,37.2547605 C75.9807139,36.7540665 77.8278457,36.3563997 79.6896827,36.0618063 C81.1656165,35.8282732 82.6234473,35.632061 84.0632036,35.4731836 L85.1396322,35.3610262 C86.8608019,35.1923535 88.380799,34.9404792 89.6983442,34.6069246 C90.9322445,34.2945458 91.8824156,33.8514295 92.5560999,33.2910431 C93.0599582,32.8719219 93.3150599,32.2702052 93.3130902,31.3699198 L93.3080685,31.1568088 C93.3080685,29.9830516 93.1267512,29.0894741 92.7895303,28.474795 C92.4446207,27.8461014 91.9961791,27.369279 91.4355086,27.0286196 C90.8389715,26.666168 90.1367321,26.4209521 89.3214473,26.2958608 C88.4320357,26.1593962 87.4699189,26.090784 86.4352078,26.090784 C84.2419325,26.090784 82.5696799,26.5526244 81.3921124,27.4469764 C80.3299092,28.2537102 79.6636454,29.6206319 79.4229713,31.6069119 L79.3868047,31.9437035 L79.3015629,32.8500688 L65.1786048,32.8500688 L65.2413595,31.7909223 C65.4223223,28.7367085 66.1855823,26.1706177 67.5437251,24.1076231 C68.8816718,22.075306 70.5895095,20.4385052 72.6593855,19.205523 C74.6982989,17.9909845 76.9864388,17.1277528 79.5191032,16.6148099 C82.0089287,16.1105431 84.5142733,15.8583219 87.0342298,15.8583219 Z M25.4111114,0 L40.5793684,0 L64.1663321,63.8734525 L48.0630335,63.8734525 L43.442,50.094 L22.024,50.094 L17.2317387,63.8734525 L1.55912565,63.8734525 L25.4111114,0 Z M87.0342298,17.8583219 C84.6478863,17.8583219 82.2755292,18.0971548 79.9161046,18.5750113 C77.599519,19.0441916 75.5233993,19.8274359 73.6829128,20.9237755 C71.8733888,22.0016715 70.3864744,23.4267382 69.2142211,25.20737 C68.3332362,26.5455704 67.7382581,28.1638517 67.4348957,30.0689741 L67.3700682,30.5137127 L67.329,30.85 L77.511,30.85 L77.5283599,30.7419311 C77.8599032,28.7970608 78.5961595,27.2764817 79.7535406,26.2128517 L79.9754886,26.018784 L80.1824597,25.8542616 C81.7432922,24.6688233 83.8362832,24.090784 86.4352078,24.090784 C87.5683967,24.090784 88.6315245,24.1665996 89.6247629,24.3189947 C90.6921282,24.4827633 91.6443139,24.8152583 92.4740268,25.3193859 C93.3396063,25.8453058 94.0321476,26.5816763 94.5429881,27.5128253 C95.0183064,28.3792254 95.2650878,29.4724193 95.3021425,30.7569297 L95.3070626,31.1119674 C95.3774026,32.6790306 94.8898815,33.9512331 93.8350982,34.8286268 C92.9113824,35.5969953 91.6936861,36.164873 90.1891864,36.5457577 C88.9262043,36.8654989 87.5076856,37.1128305 85.9326658,37.288832 L85.3346954,37.351491 C83.5859963,37.5228615 81.8085316,37.7514276 80.0022488,38.0372309 C78.2128859,38.320357 76.4373969,38.7025998 74.6755726,39.184029 C72.987597,39.6452785 71.4957319,40.3332067 70.1947256,41.2473697 C68.9276275,42.1377068 67.8899862,43.3329604 67.0778063,44.8452216 C66.278723,46.3330973 65.8704156,48.2670902 65.8704156,50.6547455 C65.8704156,52.8287626 66.2281746,54.6804479 66.9342663,56.2164323 C67.6403444,57.7523869 68.6138709,59.01427 69.8602152,60.0134455 C71.1233021,61.0260434 72.6008417,61.7741621 74.3008111,62.258329 C76.0347999,62.7521848 77.9109736,63 79.9315403,63 C82.5700289,63 85.152065,62.6105749 87.6810217,61.8311523 C89.9972482,61.117293 92.0249006,59.9021561 93.7749821,58.1776325 L94.0998723,57.8483129 L95.6491322,56.2333044 L95.8186432,58.4648341 C95.8727005,59.1764723 95.9671954,59.8736472 96.1020763,60.556586 L96.2106562,61.0654603 L96.3343556,61.569103 L96.419,61.873 L106.454,61.873 L106.369008,61.6099838 C106.190935,61.0308372 106.044336,60.3827944 105.927479,59.6650548 L105.86092,59.226041 L105.809488,58.8364008 C105.609496,57.2162172 105.495329,55.5328736 105.466792,53.7863609 L105.459658,52.9078404 L105.459658,29.5969739 C105.459658,27.0795568 104.916876,25.1034314 103.853995,23.6426957 C102.752352,22.1286898 101.338656,20.9489566 99.6008373,20.0957152 C97.8159404,19.2193592 95.8358772,18.62881 93.6567115,18.3253829 C91.4200127,18.0139449 89.2126335,17.8583219 87.0342298,17.8583219 Z M39.186,2 L26.798,2 L4.44,61.873 L15.809,61.873 L20.6020021,48.0949106 L44.8807318,48.0949106 L49.501,61.873 L61.295,61.873 L39.186,2 Z M95.3080685,38.7035139 L95.3080685,45.5419532 C95.3080685,46.2824275 95.2338203,47.2448311 95.0865995,48.4375013 C94.9277516,49.7243663 94.5011838,50.9882664 93.8124766,52.2246066 C93.0975145,53.5080784 92.0056316,54.5975186 90.5540632,55.4922632 C89.0627988,56.4114764 87.0330045,56.8541953 84.4669927,56.8541953 C83.4352114,56.8541953 82.4314634,56.7617908 81.4564918,56.5766702 C80.4240112,56.3806303 79.5071174,56.0324439 78.7121475,55.5293001 C77.8789567,55.001966 77.2179134,54.2797093 76.7380878,53.3773279 C76.2562026,52.4710733 76.0220049,51.3869067 76.0220049,50.1348006 C76.0220049,48.8263212 76.2549598,47.7142077 76.7380878,46.8056157 C77.2058503,45.9259207 77.8299255,45.1914658 78.6049335,44.6113848 C79.3514023,44.0526649 80.2192262,43.6132619 81.2041546,43.2915224 C82.1290189,42.9894036 83.0689524,42.7476695 84.0343521,42.5644258 C84.6936369,42.4466091 85.3529757,42.3418751 86.0123706,42.2502257 L87.0015051,42.1225653 C87.9470178,42.0099209 88.8494036,41.8693355 89.7086398,41.7009271 C90.5507762,41.5358703 91.3354762,41.3303626 92.0628181,41.0848472 C92.6165361,40.8979387 93.079592,40.6552308 93.457288,40.3586396 L93.6390472,40.2058626 L95.3080685,38.7035139 Z M93.3080685,42.746 L93.0315759,42.8606706 L92.7024631,42.9798021 C91.889455,43.2542343 91.0197298,43.4820096 90.0933162,43.6635846 C89.4113308,43.7972521 88.7054969,43.9140709 87.9757812,44.0140943 L87.2381037,44.1085213 C86.2875807,44.2217627 85.3369586,44.3633292 84.3968089,44.5312782 C83.5259855,44.6966238 82.668871,44.9170584 81.8251853,45.1926592 C81.0415636,45.4486392 80.3690607,45.7891459 79.8033794,46.2125492 C79.2662374,46.6145914 78.8349035,47.1222149 78.503966,47.7445907 C78.188394,48.3380694 78.0220049,49.1324017 78.0220049,50.1348006 C78.0220049,51.0780287 78.1871512,51.8425368 78.503966,52.4383529 C78.8228404,53.0380423 79.2457309,53.5000929 79.78174,53.8393381 C80.3559701,54.2027736 81.0364524,54.4611837 81.8295718,54.6117755 C82.6802002,54.7732866 83.5590739,54.8541953 84.4669927,54.8541953 C86.6931808,54.8541953 88.3715809,54.488119 89.5046165,53.7897175 C90.6773482,53.0668475 91.5251361,52.2209562 92.065274,51.2513219 C92.6316668,50.2345559 92.9752625,49.216498 93.1016645,48.192485 C93.2243572,47.1985224 93.2920142,46.3878184 93.3055343,45.7661897 L93.3080685,45.5419532 L93.3080685,42.746 Z M32.0708222,15.2517194 L33.66785,15.2517194 L42.0479989,39.9559835 L23.411335,39.9559835 L32.0708222,15.2517194 Z M32.851,19.07 L26.232,37.955 L39.257,37.955 L32.851,19.07 Z" id="Aa" fill="#1EA7FD" fill-rule="nonzero"></path>
        </g>
    </g>
</svg>