<svg width="160" height="160" viewBox="0 0 160 160" fill="none" xmlns="http://www.w3.org/2000/svg">
<rect x="0.5" y="0.5" width="159" height="159" rx="19.5" fill="#EBFBFB"/>
<circle cx="20" cy="20" r="9.5" fill="#9BEAE9" stroke="#37D5D3"/>
<circle cx="60" cy="20" r="9.5" fill="#9BEAE9" stroke="#37D5D3"/>
<circle cx="100" cy="20" r="9.5" fill="#9BEAE9" stroke="#37D5D3"/>
<circle cx="140" cy="20" r="9.5" fill="#9BEAE9" stroke="#37D5D3"/>
<circle cx="20" cy="60" r="9.5" fill="#9BEAE9" stroke="#37D5D3"/>
<circle cx="20" cy="140" r="9.5" fill="#9BEAE9" stroke="#37D5D3"/>
<circle cx="60" cy="60" r="9.5" fill="#9BEAE9" stroke="#37D5D3"/>
<circle cx="60" cy="140" r="9.5" fill="#9BEAE9" stroke="#37D5D3"/>
<circle cx="100" cy="60" r="9.5" fill="#9BEAE9" stroke="#37D5D3"/>
<circle cx="100" cy="140" r="9.5" fill="#9BEAE9" stroke="#37D5D3"/>
<circle cx="140" cy="60" r="9.5" fill="#9BEAE9" stroke="#37D5D3"/>
<circle cx="140" cy="140" r="9.5" fill="#9BEAE9" stroke="#37D5D3"/>
<circle cx="20" cy="100" r="9.5" fill="#9BEAE9" stroke="#37D5D3"/>
<circle cx="60" cy="100" r="9.5" fill="#9BEAE9" stroke="#37D5D3"/>
<circle cx="100" cy="100" r="9.5" fill="#9BEAE9" stroke="#37D5D3"/>
<circle cx="140" cy="100" r="9.5" fill="#9BEAE9" stroke="#37D5D3"/>
<rect x="44.5" y="44.5" width="31" height="31" rx="3.5" fill="#FF4785" fill-opacity="0.4" stroke="#FF4785" stroke-dasharray="4 2"/>
<rect x="0.5" y="0.5" width="159" height="159" rx="19.5" stroke="#37D5D3"/>
</svg>
