<svg width="160" height="160" viewBox="0 0 160 160" fill="none" xmlns="http://www.w3.org/2000/svg">
<rect width="160" height="160" rx="20" fill="#37D5D3" fill-opacity="0.2"/>
<path d="M145 80C145 115.899 115.899 145 80 145C44.1015 145 15 115.899 15 80C15 44.1015 44.1015 15 80 15C115.899 15 145 44.1015 145 80Z" fill="#37D5D3" fill-opacity="0.1"/>
<path fill-rule="evenodd" clip-rule="evenodd" d="M144.97 82.0065L143.97 81.9762C143.99 81.3199 144 80.6611 144 80C144 79.3389 143.99 78.6801 143.97 78.0238L144.97 77.9935C144.99 78.6599 145 79.3288 145 80C145 80.6712 144.99 81.3401 144.97 82.0065ZM144.879 75.9952L143.88 76.0559C143.8 74.7355 143.68 73.4261 143.521 72.1287L144.513 72.007C144.675 73.3246 144.797 74.6544 144.879 75.9952ZM144.24 70.0269L143.251 70.1791C143.05 68.8731 142.81 67.5802 142.531 66.3016L143.508 66.0886C143.791 67.3873 144.035 68.7005 144.24 70.0269ZM143.051 64.1401L142.081 64.3833C141.76 63.1037 141.401 61.8394 141.005 60.5917L141.958 60.2887C142.36 61.5561 142.725 62.8404 143.051 64.1401ZM141.321 58.3897L140.378 58.7221C139.94 57.4794 139.465 56.2543 138.954 55.048L139.875 54.6579C140.394 55.883 140.876 57.1274 141.321 58.3897ZM139.064 52.8255L138.156 53.2441C137.605 52.0482 137.018 50.8722 136.397 49.7175L137.277 49.2436C137.908 50.4165 138.505 51.6109 139.064 52.8255ZM136.301 47.4948L135.436 47.9956C134.777 46.8565 134.083 45.7396 133.357 44.6462L134.19 44.0931C134.928 45.2035 135.632 46.3379 136.301 47.4948ZM133.057 42.4421L132.242 43.0206C131.481 41.9476 130.688 40.8991 129.864 39.8764L130.642 39.249C131.479 40.2876 132.285 41.3524 133.057 42.4421ZM129.362 37.7093L128.603 38.3603C127.747 37.3622 126.861 36.3908 125.947 35.4475L126.664 34.7513C127.593 35.7093 128.493 36.6958 129.362 37.7093ZM125.249 33.3356L124.552 34.0535C123.609 33.1386 122.638 32.2525 121.64 31.3966L122.291 30.6375C123.304 31.5067 124.291 32.4065 125.249 33.3356ZM120.751 29.3576L120.124 30.1363C119.101 29.3124 118.052 28.5192 116.979 27.7583L117.558 26.9426C118.648 27.7153 119.712 28.5208 120.751 29.3576ZM115.907 25.8095L115.354 26.6426C114.26 25.9167 113.143 25.2235 112.004 24.5644L112.505 23.6988C113.662 24.3682 114.797 25.0723 115.907 25.8095ZM110.756 22.7227L110.283 23.6033C109.128 22.9819 107.952 22.395 106.756 21.8439L107.174 20.9357C108.389 21.4955 109.584 22.0916 110.756 22.7227ZM105.342 20.1255L104.952 21.0462C103.746 20.535 102.521 20.0598 101.278 19.6219L101.61 18.6787C102.873 19.1236 104.117 19.6063 105.342 20.1255ZM99.7112 18.0425L99.4083 18.9955C98.1606 18.5989 96.8963 18.2395 95.6167 17.9186L95.8599 16.9487C97.1596 17.2746 98.4439 17.6396 99.7112 18.0425ZM93.9114 16.4921L93.6984 17.4691C92.4198 17.1904 91.1269 16.9498 89.8209 16.7487L89.973 15.7603C91.2995 15.9646 92.6127 16.2089 93.9114 16.4921ZM87.993 15.4866L87.8712 16.4791C86.5739 16.32 85.2645 16.1998 83.9441 16.1195L84.0048 15.1214C85.3456 15.2029 86.6753 15.325 87.993 15.4866ZM82.0065 15.0304L81.9762 16.0299C81.3199 16.01 80.6611 16 80 16C79.3389 16 78.6801 16.01 78.0238 16.0299L77.9935 15.0304C78.6599 15.0102 79.3288 15 80 15C80.6712 15 81.3401 15.0102 82.0065 15.0304ZM75.9952 15.1214L76.0559 16.1195C74.7355 16.1998 73.4261 16.32 72.1287 16.4791L72.007 15.4866C73.3246 15.325 74.6544 15.2029 75.9952 15.1214ZM70.0269 15.7603L70.1791 16.7487C68.8731 16.9498 67.5802 17.1904 66.3016 17.4691L66.0886 16.4921C67.3873 16.2089 68.7005 15.9646 70.0269 15.7603ZM64.1401 16.9487L64.3833 17.9186C63.1037 18.2395 61.8394 18.5989 60.5917 18.9955L60.2887 18.0425C61.5561 17.6396 62.8404 17.2746 64.1401 16.9487ZM58.3897 18.6787L58.7221 19.6219C57.4794 20.0598 56.2543 20.535 55.048 21.0462L54.6579 20.1255C55.883 19.6063 57.1274 19.1236 58.3897 18.6787ZM52.8255 20.9357L53.2441 21.8439C52.0482 22.395 50.8722 22.9819 49.7175 23.6033L49.2436 22.7227C50.4165 22.0916 51.6109 21.4955 52.8255 20.9357ZM47.4948 23.6988L47.9956 24.5644C46.8565 25.2235 45.7396 25.9167 44.6462 26.6426L44.0931 25.8095C45.2035 25.0723 46.3379 24.3682 47.4948 23.6988ZM42.4421 26.9426L43.0206 27.7583C41.9476 28.5192 40.8991 29.3124 39.8764 30.1363L39.249 29.3577C40.2876 28.5209 41.3524 27.7154 42.4421 26.9426ZM37.7093 30.6375L38.3603 31.3966C37.3622 32.2525 36.3908 33.1386 35.4475 34.0535L34.7513 33.3356C35.7093 32.4066 36.6958 31.5067 37.7093 30.6375ZM33.3356 34.7513L34.0535 35.4475C33.1386 36.3908 32.2525 37.3623 31.3966 38.3603L30.6375 37.7094C31.5067 36.6958 32.4065 35.7093 33.3356 34.7513ZM29.3576 39.249L30.1363 39.8764C29.3124 40.8991 28.5192 41.9476 27.7583 43.0206L26.9426 42.4421C27.7153 41.3524 28.5208 40.2876 29.3576 39.249ZM25.8095 44.0931C25.0723 45.2035 24.3682 46.3379 23.6988 47.4948L24.5644 47.9956C25.2235 46.8565 25.9167 45.7396 26.6426 44.6462L25.8095 44.0931ZM22.7227 49.2436L23.6033 49.7175C22.9819 50.8722 22.395 52.0482 21.8439 53.2441L20.9357 52.8256C21.4955 51.6109 22.0916 50.4165 22.7227 49.2436ZM20.1255 54.6579L21.0462 55.0481C20.535 56.2543 20.0598 57.4794 19.6219 58.7221L18.6787 58.3897C19.1236 57.1274 19.6063 55.883 20.1255 54.6579ZM18.0425 60.2888C17.6396 61.5561 17.2746 62.8404 16.9487 64.1401L17.9186 64.3833C18.2395 63.1037 18.5989 61.8394 18.9955 60.5917L18.0425 60.2888ZM16.4921 66.0886L17.4691 66.3016C17.1904 67.5802 16.9498 68.8731 16.7487 70.1791L15.7603 70.027C15.9646 68.7005 16.2089 67.3873 16.4921 66.0886ZM15.4866 72.007L16.4791 72.1288C16.32 73.4261 16.1998 74.7355 16.1195 76.0559L15.1214 75.9952C15.2029 74.6544 15.325 73.3246 15.4866 72.007ZM15.0304 77.9935C15.0102 78.6599 15 79.3288 15 80C15 80.6712 15.0102 81.3401 15.0304 82.0065L16.0299 81.9762C16.01 81.3199 16 80.6611 16 80C16 79.3389 16.01 78.6801 16.0299 78.0238L15.0304 77.9935ZM15.1214 84.0048L16.1195 83.9441C16.1998 85.2645 16.32 86.5739 16.4791 87.8713L15.4866 87.993C15.325 86.6754 15.2029 85.3456 15.1214 84.0048ZM15.7603 89.9731L16.7487 89.8209C16.9498 91.1269 17.1904 92.4198 17.4691 93.6984L16.4921 93.9115C16.2089 92.6127 15.9646 91.2995 15.7603 89.9731ZM16.9487 95.8599L17.9186 95.6167C18.2395 96.8963 18.5989 98.1606 18.9955 99.4083L18.0425 99.7113C17.6396 98.4439 17.2746 97.1597 16.9487 95.8599ZM18.6787 101.61L19.6219 101.278C20.0598 102.521 20.535 103.746 21.0462 104.952L20.1255 105.342C19.6063 104.117 19.1236 102.873 18.6787 101.61ZM20.9357 107.174L21.8439 106.756C22.395 107.952 22.9819 109.128 23.6033 110.283L22.7227 110.756C22.0916 109.584 21.4955 108.389 20.9357 107.174ZM23.6988 112.505L24.5644 112.004C25.2235 113.144 25.9167 114.26 26.6426 115.354L25.8095 115.907C25.0723 114.797 24.3682 113.662 23.6988 112.505ZM26.9426 117.558L27.7583 116.979C28.5192 118.052 29.3124 119.101 30.1363 120.124L29.3577 120.751C28.5209 119.712 27.7154 118.648 26.9426 117.558ZM30.6375 122.291L31.3966 121.64C32.2525 122.638 33.1386 123.609 34.0535 124.552L33.3356 125.249C32.4066 124.291 31.5067 123.304 30.6375 122.291ZM34.7513 126.664L35.4475 125.947C36.3908 126.861 37.3623 127.747 38.3603 128.603L37.7094 129.362C36.6958 128.493 35.7093 127.593 34.7513 126.664ZM39.249 130.642L39.8764 129.864C40.8991 130.688 41.9476 131.481 43.0206 132.242L42.4421 133.057C41.3524 132.285 40.2876 131.479 39.249 130.642ZM44.0931 134.19C45.2035 134.928 46.3379 135.632 47.4948 136.301L47.9956 135.436C46.8565 134.777 45.7396 134.083 44.6462 133.357L44.0931 134.19ZM49.2436 137.277L49.7175 136.397C50.8722 137.018 52.0482 137.605 53.2441 138.156L52.8256 139.064C51.6109 138.505 50.4165 137.908 49.2436 137.277ZM54.6579 139.875L55.0481 138.954C56.2543 139.465 57.4794 139.94 58.7221 140.378L58.3897 141.321C57.1274 140.876 55.883 140.394 54.6579 139.875ZM60.2888 141.958L60.5917 141.005C61.8394 141.401 63.1037 141.761 64.3833 142.081L64.1401 143.051C62.8404 142.725 61.5561 142.36 60.2888 141.958ZM66.0886 143.508L66.3016 142.531C67.5802 142.81 68.8731 143.05 70.1791 143.251L70.027 144.24C68.7005 144.035 67.3873 143.791 66.0886 143.508ZM72.007 144.513L72.1288 143.521C73.4261 143.68 74.7355 143.8 76.0559 143.88L75.9952 144.879C74.6544 144.797 73.3246 144.675 72.007 144.513ZM77.9935 144.97L78.0238 143.97C78.6801 143.99 79.3389 144 80 144C80.6611 144 81.3199 143.99 81.9762 143.97L82.0065 144.97C81.3401 144.99 80.6712 145 80 145C79.3288 145 78.6599 144.99 77.9935 144.97ZM84.0048 144.879L83.9441 143.88C85.2645 143.8 86.5739 143.68 87.8713 143.521L87.993 144.513C86.6754 144.675 85.3456 144.797 84.0048 144.879ZM89.9731 144.24L89.8209 143.251C91.1269 143.05 92.4198 142.81 93.6984 142.531L93.9114 143.508C92.6127 143.791 91.2995 144.035 89.9731 144.24ZM95.8599 143.051L95.6167 142.081C96.8963 141.76 98.1606 141.401 99.4083 141.005L99.7113 141.958C98.4439 142.36 97.1596 142.725 95.8599 143.051ZM101.61 141.321L101.278 140.378C102.521 139.94 103.746 139.465 104.952 138.954L105.342 139.875C104.117 140.394 102.873 140.876 101.61 141.321ZM107.174 139.064L106.756 138.156C107.952 137.605 109.128 137.018 110.283 136.397L110.756 137.277C109.584 137.908 108.389 138.505 107.174 139.064ZM112.505 136.301L112.004 135.436C113.144 134.777 114.26 134.083 115.354 133.357L115.907 134.19C114.797 134.928 113.662 135.632 112.505 136.301ZM117.558 133.057L116.979 132.242C118.052 131.481 119.101 130.688 120.124 129.864L120.751 130.642C119.712 131.479 118.648 132.285 117.558 133.057ZM122.291 129.362L121.64 128.603C122.638 127.747 123.609 126.861 124.552 125.947L125.249 126.664C124.291 127.593 123.304 128.493 122.291 129.362ZM126.664 125.249L125.947 124.552C126.861 123.609 127.747 122.638 128.603 121.64L129.362 122.291C128.493 123.304 127.593 124.291 126.664 125.249ZM130.642 120.751L129.864 120.124C130.688 119.101 131.481 118.052 132.242 116.979L133.057 117.558C132.285 118.648 131.479 119.712 130.642 120.751ZM134.19 115.907L133.357 115.354C134.083 114.26 134.777 113.143 135.436 112.004L136.301 112.505C135.632 113.662 134.928 114.797 134.19 115.907ZM137.277 110.756L136.397 110.283C137.018 109.128 137.605 107.952 138.156 106.756L139.064 107.174C138.505 108.389 137.908 109.584 137.277 110.756ZM139.875 105.342L138.954 104.952C139.465 103.746 139.94 102.521 140.378 101.278L141.321 101.61C140.876 102.873 140.394 104.117 139.875 105.342ZM141.958 99.7112L141.005 99.4083C141.401 98.1606 141.761 96.8963 142.081 95.6167L143.051 95.8599C142.725 97.1596 142.36 98.4439 141.958 99.7112ZM143.508 93.9114L142.531 93.6984C142.81 92.4198 143.05 91.1269 143.251 89.8209L144.24 89.973C144.035 91.2995 143.791 92.6127 143.508 93.9114ZM144.513 87.993L143.521 87.8712C143.68 86.5739 143.8 85.2645 143.88 83.9441L144.879 84.0048C144.797 85.3456 144.675 86.6753 144.513 87.993Z" fill="#37D5D3"/>
<mask id="mask0_2155_25101" style="mask-type:alpha" maskUnits="userSpaceOnUse" x="15" y="15" width="130" height="130">
<path d="M145 80C145 115.899 115.899 145 80 145C44.1015 145 15 115.899 15 80C15 44.1015 44.1015 15 80 15C115.899 15 145 44.1015 145 80Z" fill="#37D5D3"/>
</mask>
<g mask="url(#mask0_2155_25101)">
<path d="M123 80C123 103.748 103.748 123 80 123C56.2518 123 37 103.748 37 80C37 56.2518 56.2518 37 80 37C103.748 37 123 56.2518 123 80Z" fill="#37D5D3" fill-opacity="0.2"/>
<path fill-rule="evenodd" clip-rule="evenodd" d="M80 122C103.196 122 122 103.196 122 80C122 56.804 103.196 38 80 38C56.804 38 38 56.804 38 80C38 103.196 56.804 122 80 122ZM80 123C103.748 123 123 103.748 123 80C123 56.2518 103.748 37 80 37C56.2518 37 37 56.2518 37 80C37 103.748 56.2518 123 80 123Z" fill="#37D5D3"/>
<path fill-rule="evenodd" clip-rule="evenodd" d="M80 97C89.3888 97 97 89.3888 97 80C97 70.6112 89.3888 63 80 63C70.6112 63 63 70.6112 63 80C63 89.3888 70.6112 97 80 97ZM80 98C89.9411 98 98 89.9411 98 80C98 70.0589 89.9411 62 80 62C70.0589 62 62 70.0589 62 80C62 89.9411 70.0589 98 80 98Z" fill="#37D5D3"/>
<path d="M15 80.5L145 80.5L145 79.5L15 79.5L15 80.5Z" fill="#37D5D3"/>
<path d="M80.5 145L80.5 15L79.5 15L79.5 145L80.5 145Z" fill="#37D5D3"/>
</g>
<path d="M86 80C86 83.3137 83.3137 86 80 86C76.6863 86 74 83.3137 74 80C74 76.6863 76.6863 74 80 74C83.3137 74 86 76.6863 86 80Z" fill="#37D5D3"/>
</svg>
