<svg xmlns="http://www.w3.org/2000/svg" xmlns:xlink="http://www.w3.org/1999/xlink" width="140" height="140" version="1.1" viewBox="0 0 140 140"><title>addons/links</title><defs><rect id="path-1" width="60" height="95" x="80" y="22.5" rx="3.714"/><mask id="mask-2" width="60" height="95" x="0" y="0" fill="#fff" maskContentUnits="userSpaceOnUse" maskUnits="objectBoundingBox"><use xlink:href="#path-1"/></mask></defs><g id="addons/links" fill="none" fill-rule="evenodd" stroke="none" stroke-width="1"><use id="bg" fill="#37D5D3" fill-opacity=".1" stroke="#37D5D3" stroke-dasharray="4 2" stroke-opacity=".3" stroke-width="2" mask="url(#mask-2)" xlink:href="#path-1"/><rect id="bg-copy-2" width="59" height="94" x=".5" y="23" fill="#37D5D3" fill-opacity=".5" stroke="#37D5D3" rx="3.714"/><path id="Path" fill="#37D5D3" fill-rule="nonzero" d="M59.493335,75 C56.7319113,75 54.493335,72.7614237 54.493335,70 C54.493335,67.2385763 56.7319113,65 59.493335,65 C62.2547588,65 64.493335,67.2385763 64.493335,70 C64.493335,72.7614237 62.2547588,75 59.493335,75 Z"/><path id="Combined-Shape" fill="#37D5D3" d="M72.1404739,66.1129036 L75.654,69.625457 L75.6760078,69.6444557 C75.762791,69.7312389 75.8110039,69.8419866 75.8206465,69.955397 L75.8206465,70.044603 C75.8110039,70.1580134 75.762791,70.2687611 75.6760078,70.3555443 L75.654,70.373457 L72.1404739,73.8870964 C71.9669076,74.0606628 71.6974832,74.0799479 71.502615,73.9449519 L71.4333672,73.8870964 C71.238105,73.6918343 71.238105,73.3752518 71.4333672,73.1799896 L71.4333672,73.1799896 L74.112,70.499457 L60,70.5 L60,69.5 L74.112,69.499457 L71.4333672,66.8200104 C71.238105,66.6247482 71.238105,66.3081657 71.4333672,66.1129036 C71.6286293,65.9176414 71.9452118,65.9176414 72.1404739,66.1129036 Z"/><path id="Path" fill="#FFF" fill-rule="nonzero" d="M59.493335,74 C61.702474,74 63.493335,72.209139 63.493335,70 C63.493335,67.790861 61.702474,66 59.493335,66 C57.284196,66 55.493335,67.790861 55.493335,70 C55.493335,72.209139 57.284196,74 59.493335,74 Z"/></g></svg>