<svg xmlns="http://www.w3.org/2000/svg" width="160" height="160" fill="none" viewBox="0 0 160 160"><g clip-path="url(#clip0_2014_25541)"><rect width="160" height="160" fill="#fff" rx="20"/><path fill="#37D5D3" fill-opacity=".1" d="M90 3.71428C90 1.66293 91.6629 0 93.7143 0H140C151.046 0 160 8.95431 160 20V140C160 151.046 151.046 160 140 160H93.7143C91.6629 160 90 158.337 90 156.286V3.71428Z"/><path stroke="#37D5D3" stroke-dasharray="4 2" stroke-opacity=".5" d="M93.7143 159.5C93.1279 159.5 92.5796 159.343 92.1073 159.07L91.8568 159.503C91.2932 159.177 90.8232 158.707 90.4971 158.143L90.9299 157.893C90.6566 157.42 90.5 156.872 90.5 156.286V154.251H90V152.217H90.5V148.149H90V146.114H90.5V142.046H90V140.011H90.5V135.943H90V133.909H90.5V129.84H90V127.806H90.5V123.737H90V121.703H90.5V117.634H90V115.6H90.5V111.531H90V109.497H90.5V105.429H90V103.394H90.5V99.3257H90V97.2914H90.5V93.2228H90V91.1886H90.5V87.12H90V85.0857H90.5V81.0171H90V78.9828H90.5V74.9143H90V72.88H90.5V68.8114H90V66.7771H90.5V62.7086H90V60.6743H90.5V56.6057H90V54.5714H90.5V50.5028H90V48.4685H90.5V44.4H90V42.3657H90.5V38.2971H90V36.2628H90.5V32.1943H90V30.16H90.5V26.0914H90V24.0571H90.5V19.9885H90V17.9543H90.5V13.8857H90V11.8514H90.5V7.78282H90V5.74853H90.5V3.71428C90.5 3.12788 90.6566 2.57957 90.9299 2.10724L90.4971 1.85684C90.8232 1.29319 91.2932 0.823195 91.8568 0.497073L92.1072 0.929854C92.5796 0.656571 93.1279 0.5 93.7143 0.5H95.6429V0H97.5714V0.5H101.429V0H103.357V0.5H107.214V0H109.143V0.5H113V0H114.929V0.5H118.786V0H120.714V0.5H124.571V0H126.5V0.5H130.357V0H132.286V0.5H136.143V0H138.071V0.5H140C140.689 0.5 141.369 0.535706 142.04 0.605337L142.091 0.108014C142.792 0.180837 143.482 0.289858 144.16 0.433177L144.056 0.922351C145.405 1.20775 146.703 1.63265 147.933 2.18128L148.137 1.72463C148.777 2.01001 149.399 2.32803 150.002 2.67657L149.751 3.10935C150.934 3.79383 152.039 4.59911 153.048 5.50837L153.383 5.1369C153.901 5.60434 154.396 6.09855 154.863 6.61736L154.492 6.95204C155.401 7.96123 156.206 9.06579 156.891 10.2488L157.323 9.9984C157.672 10.6008 157.99 11.223 158.275 11.8631L157.819 12.0667C158.367 13.297 158.792 14.5946 159.078 15.9438L159.567 15.8403C159.71 16.5178 159.819 17.2079 159.892 17.9088L159.395 17.9605C159.464 18.6307 159.5 19.3111 159.5 20V22H160V24H159.5V28H160V30H159.5V34H160V36H159.5V40H160V42H159.5V46H160V48H159.5V52H160V54H159.5V58H160V60H159.5V64H160V66H159.5V70H160V72H159.5V76H160V78H159.5V82H160V84H159.5V88H160V90H159.5V94H160V96H159.5V100H160V102H159.5V106H160V108H159.5V112H160V114H159.5V118H160V120H159.5V124H160V126H159.5V130H160V132H159.5V136H160V138H159.5V140C159.5 140.689 159.464 141.369 159.395 142.04L159.892 142.091C159.819 142.792 159.71 143.482 159.567 144.16L159.078 144.056C158.792 145.405 158.367 146.703 157.819 147.933L158.275 148.137C157.99 148.777 157.672 149.399 157.323 150.002L156.891 149.751C156.206 150.934 155.401 152.039 154.492 153.048L154.863 153.383C154.396 153.901 153.901 154.396 153.383 154.863L153.048 154.492C152.039 155.401 150.934 156.206 149.751 156.891L150.002 157.323C149.399 157.672 148.777 157.99 148.137 158.275L147.933 157.819C146.703 158.367 145.405 158.792 144.056 159.078L144.16 159.567C143.482 159.71 142.792 159.819 142.091 159.892L142.04 159.395C141.369 159.464 140.689 159.5 140 159.5H138.071V160H136.143V159.5H132.286V160H130.357V159.5H126.5V160H124.571V159.5H120.714V160H118.786V159.5H114.929V160H113V159.5H109.143V160H107.214V159.5H103.357V160H101.429V159.5H97.5714V160H95.6429V159.5H93.7143Z"/><path fill="#37D5D3" fill-opacity=".5" stroke="#37D5D3" d="M20 0.5H66.2857C68.0609 0.5 69.5 1.93908 69.5 3.71429V156.286C69.5 158.061 68.0609 159.5 66.2857 159.5H20C9.23045 159.5 0.5 150.77 0.5 140V20C0.5 9.23045 9.23045 0.5 20 0.5Z"/><path fill="#37D5D3" d="M69.4932 85C66.7317 85 64.4932 82.7614 64.4932 80C64.4932 77.2386 66.7317 75 69.4932 75C72.2546 75 74.4932 77.2386 74.4932 80C74.4932 82.7614 72.2546 85 69.4932 85Z"/><path fill="#37D5D3" fill-rule="evenodd" d="M82.4331 76.8201C82.2379 76.6248 82.2379 76.3083 82.4331 76.113C82.6284 75.9177 82.945 75.9177 83.1403 76.113L86.6363 79.6091C86.6499 79.6201 86.6631 79.6319 86.6758 79.6446C86.7739 79.7427 86.8227 79.8715 86.8222 80.0001C86.8227 80.1287 86.7739 80.2575 86.6758 80.3556C86.6631 80.3683 86.6499 80.3801 86.6363 80.3912L83.1403 83.8872C82.945 84.0825 82.6284 84.0825 82.4331 83.8872C82.2379 83.692 82.2379 83.3754 82.4331 83.1801L85.1132 80.5001H71V79.5001H85.1132L82.4331 76.8201Z" clip-rule="evenodd"/><path fill="#fff" d="M69.4932 84C71.7023 84 73.4932 82.2091 73.4932 80C73.4932 77.7909 71.7023 76 69.4932 76C67.284 76 65.4932 77.7909 65.4932 80C65.4932 82.2091 67.284 84 69.4932 84Z"/></g><defs><clipPath id="clip0_2014_25541"><rect width="160" height="160" fill="#fff" rx="20"/></clipPath></defs></svg>