<svg width="160" height="160" viewBox="0 0 160 160" fill="none" xmlns="http://www.w3.org/2000/svg">
<g clip-path="url(#clip0_2087_25986)">
<rect width="160" height="160" rx="20" fill="#37D5D3" fill-opacity="0.2"/>
<g filter="url(#filter0_d_2087_25986)">
<rect width="160" height="160" rx="4" fill="white"/>
</g>
<rect x="0.5" y="0.5" width="159" height="159" rx="19.5" fill="#F2CEA5" stroke="#E69D00" stroke-dasharray="4 2"/>
<rect x="22.8569" y="22.8572" width="114.286" height="114.286" rx="4" fill="#FEFAD2"/>
<rect x="23.3569" y="23.3572" width="113.286" height="113.286" rx="3.5" stroke="#FFAE00" stroke-opacity="0.5"/>
<rect x="46.2144" y="113.786" width="67.5714" height="67.5714" rx="3.5" transform="rotate(-90 46.2144 113.786)" fill="#B1E0FF" stroke="#FF4400"/>
<path fill-rule="evenodd" clip-rule="evenodd" d="M1.14286 86.8571C1.14286 87.1727 0.88702 87.4286 0.57143 87.4286C0.255836 87.4286 0 87.1727 0 86.8571V80.5714V79.4286V73.1428C0 72.8272 0.255835 72.5714 0.571429 72.5714C0.887019 72.5714 1.14286 72.8272 1.14286 73.1428L1.14286 79.4286L43.4857 79.4286C43.7504 78.1244 44.9034 77.1428 46.2857 77.1428C47.8637 77.1428 49.1429 78.422 49.1429 80C49.1429 81.5779 47.8637 82.8571 46.2857 82.8571C44.9035 82.8571 43.7505 81.8756 43.4857 80.5714L1.14286 80.5714L1.14286 86.8571Z" fill="#FF4400"/>
<path fill-rule="evenodd" clip-rule="evenodd" d="M158.857 86.8571C158.857 87.1727 159.113 87.4286 159.429 87.4286C159.744 87.4286 160 87.1727 160 86.8571V80.5714V79.4286V73.1428C160 72.8272 159.744 72.5714 159.429 72.5714C159.113 72.5714 158.857 72.8272 158.857 73.1428L158.857 79.4286L116.514 79.4286C116.25 78.1244 115.097 77.1428 113.714 77.1428C112.136 77.1428 110.857 78.422 110.857 80C110.857 81.5779 112.136 82.8571 113.714 82.8571C115.097 82.8571 116.25 81.8756 116.514 80.5714L158.857 80.5714L158.857 86.8571Z" fill="#FF4400"/>
<path fill-rule="evenodd" clip-rule="evenodd" d="M73.143 158.857C72.8274 158.857 72.5716 159.113 72.5716 159.429C72.5716 159.744 72.8274 160 73.143 160L79.4287 160L80.5715 160L86.8573 160C87.1729 160 87.4287 159.744 87.4287 159.429C87.4287 159.113 87.1729 158.857 86.8573 158.857L80.5715 158.857L80.5715 116.514C81.8757 116.25 82.8573 115.097 82.8573 113.714C82.8573 112.136 81.5781 110.857 80.0001 110.857C78.4222 110.857 77.143 112.136 77.143 113.714C77.143 115.097 78.1246 116.25 79.4287 116.514L79.4287 158.857L73.143 158.857Z" fill="#FF4400"/>
<path fill-rule="evenodd" clip-rule="evenodd" d="M86.857 1.14286C87.1726 1.14286 87.4284 0.887021 87.4284 0.571431C87.4284 0.255837 87.1726 6.38243e-07 86.857 6.24448e-07L80.5713 3.49692e-07L79.4285 2.99736e-07L73.1427 2.49777e-08C72.8271 1.11828e-08 72.5713 0.255835 72.5713 0.571429C72.5713 0.887019 72.8271 1.14286 73.1427 1.14286L79.4285 1.14286L79.4285 43.4857C78.1243 43.7504 77.1427 44.9034 77.1427 46.2857C77.1427 47.8637 78.4219 49.1429 79.9999 49.1429C81.5778 49.1429 82.857 47.8637 82.857 46.2857C82.857 44.9035 81.8754 43.7505 80.5713 43.4857L80.5713 1.14286L86.857 1.14286Z" fill="#FF4400"/>
</g>
<defs>
<filter id="filter0_d_2087_25986" x="-15" y="-10" width="190" height="190" filterUnits="userSpaceOnUse" color-interpolation-filters="sRGB">
<feFlood flood-opacity="0" result="BackgroundImageFix"/>
<feColorMatrix in="SourceAlpha" type="matrix" values="0 0 0 0 0 0 0 0 0 0 0 0 0 0 0 0 0 0 127 0" result="hardAlpha"/>
<feOffset dy="5"/>
<feGaussianBlur stdDeviation="7.5"/>
<feColorMatrix type="matrix" values="0 0 0 0 0 0 0 0 0 0 0 0 0 0 0 0 0 0 0.1 0"/>
<feBlend mode="normal" in2="BackgroundImageFix" result="effect1_dropShadow_2087_25986"/>
<feBlend mode="normal" in="SourceGraphic" in2="effect1_dropShadow_2087_25986" result="shape"/>
</filter>
<clipPath id="clip0_2087_25986">
<rect width="160" height="160" rx="20" fill="white"/>
</clipPath>
</defs>
</svg>
