<?xml version="1.0" encoding="UTF-8"?>
<svg width="140px" height="140px" viewBox="0 0 140 140" version="1.1" xmlns="http://www.w3.org/2000/svg" xmlns:xlink="http://www.w3.org/1999/xlink">
    <title>addons/source</title>
    <g id="addons/source" stroke="none" stroke-width="1" fill="none" fill-rule="evenodd">
        <rect id="Rectangle-49" fill="#2E1A5A" x="0" y="0" width="140" height="140" rx="4"></rect>
        <path d="M50.6294955,114.266683 C53.7806054,114.266683 56.3350848,116.82463 56.3350848,119.980017 C56.3350848,123.135405 53.7806054,125.693351 50.6294955,125.693351 L24.9543437,125.693351 C21.8032338,125.693351 19.2487544,123.135405 19.2487544,119.980017 C19.2487544,116.82463 21.8032338,114.266683 24.9543437,114.266683 L50.6294955,114.266683 Z M59.1878794,94.2700136 C62.3389894,94.2700136 64.8934687,96.8279604 64.8934687,99.9833477 C64.8934687,103.138735 62.3389894,105.696682 59.1878794,105.696682 L39.2183169,105.696682 C36.067207,105.696682 33.5127276,103.138735 33.5127276,99.9833477 C33.5127276,96.8279604 36.067207,94.2700136 39.2183169,94.2700136 L59.1878794,94.2700136 Z M91.9950178,94.2700136 C95.1461277,94.2700136 97.700607,96.8279604 97.700607,99.9833477 C97.700607,103.138735 95.1461277,105.696682 91.9950178,105.696682 L79.1574419,105.696682 C76.0063319,105.696682 73.4518526,103.138735 73.4518526,99.9833477 C73.4518526,96.8279604 76.0063319,94.2700136 79.1574419,94.2700136 L91.9950178,94.2700136 Z M121.949361,74.273344 C125.100471,74.273344 127.654951,76.8312908 127.654951,79.9866782 C127.654951,83.1420655 125.100471,85.7000123 121.949361,85.7000123 L39.2183169,85.7000123 C36.067207,85.7000123 33.5127276,83.1420655 33.5127276,79.9866782 C33.5127276,76.8312908 36.067207,74.273344 39.2183169,74.273344 L121.949361,74.273344 Z M97.700607,54.2766745 C100.851717,54.2766745 103.406196,56.8346213 103.406196,59.9900086 C103.406196,63.1453959 100.851717,65.7033428 97.700607,65.7033428 L39.2183169,65.7033428 C36.067207,65.7033428 33.5127276,63.1453959 33.5127276,59.9900086 C33.5127276,56.8346213 36.067207,54.2766745 39.2183169,54.2766745 L97.700607,54.2766745 Z M74.8782499,34.2800049 C78.0293599,34.2800049 80.5838392,36.8379518 80.5838392,39.9933391 C80.5838392,43.1487264 78.0293599,45.7066732 74.8782499,45.7066732 L24.9543437,45.7066732 C21.8032338,45.7066732 19.2487544,43.1487264 19.2487544,39.9933391 C19.2487544,36.8379518 21.8032338,34.2800049 24.9543437,34.2800049 L74.8782499,34.2800049 Z M50.6294955,14.2833354 C53.7806054,14.2833354 56.3350848,16.8412822 56.3350848,19.9966695 C56.3350848,23.1520569 53.7806054,25.7100037 50.6294955,25.7100037 L14.9695625,25.7100037 C11.8184525,25.7100037 9.2639732,23.1520569 9.2639732,19.9966695 C9.2639732,16.8412822 11.8184525,14.2833354 14.9695625,14.2833354 L50.6294955,14.2833354 Z" id="Combined-Shape" fill="#FFFFFF"></path>
        <path d="M14.9695625,14.2833354 L50.6294955,14.2833354 C53.7806054,14.2833354 56.3350848,16.8412822 56.3350848,19.9966695 C56.3350848,23.1520569 53.7806054,25.7100037 50.6294955,25.7100037 L14.9695625,25.7100037 C11.8184525,25.7100037 9.2639732,23.1520569 9.2639732,19.9966695 C9.2639732,16.8412822 11.8184525,14.2833354 14.9695625,14.2833354 Z" id="Rectangle-7" fill="#FC521F" opacity="0.800000012"></path>
        <path d="M39.2183169,54.2766745 L97.700607,54.2766745 C100.851717,54.2766745 103.406196,56.8346213 103.406196,59.9900086 C103.406196,63.1453959 100.851717,65.7033428 97.700607,65.7033428 L39.2183169,65.7033428 C36.067207,65.7033428 33.5127276,63.1453959 33.5127276,59.9900086 C33.5127276,56.8346213 36.067207,54.2766745 39.2183169,54.2766745 Z" id="Rectangle-7-Copy-2" fill="#FFAE00" opacity="0.800000012"></path>
        <path d="M24.9543437,114.266683 L50.6294955,114.266683 C53.7806054,114.266683 56.3350848,116.82463 56.3350848,119.980017 C56.3350848,123.135405 53.7806054,125.693351 50.6294955,125.693351 L24.9543437,125.693351 C21.8032338,125.693351 19.2487544,123.135405 19.2487544,119.980017 C19.2487544,116.82463 21.8032338,114.266683 24.9543437,114.266683 Z" id="Rectangle-7-Copy-3" fill="#1EA7FD" opacity="0.800000012"></path>
        <path d="M24.9543437,34.2800049 L74.8782499,34.2800049 C78.0293599,34.2800049 80.5838392,36.8379518 80.5838392,39.9933391 C80.5838392,43.1487264 78.0293599,45.7066732 74.8782499,45.7066732 L24.9543437,45.7066732 C21.8032338,45.7066732 19.2487544,43.1487264 19.2487544,39.9933391 C19.2487544,36.8379518 21.8032338,34.2800049 24.9543437,34.2800049 Z" id="Rectangle-7-Copy-4" fill="#1EA7FD" opacity="0.800000012"></path>
        <path d="M39.2183169,74.273344 L121.949361,74.273344 C125.100471,74.273344 127.654951,76.8312908 127.654951,79.9866782 C127.654951,83.1420655 125.100471,85.7000123 121.949361,85.7000123 L39.2183169,85.7000123 C36.067207,85.7000123 33.5127276,83.1420655 33.5127276,79.9866782 C33.5127276,76.8312908 36.067207,74.273344 39.2183169,74.273344 Z" id="Rectangle-7-Copy-8" fill="#37D5D3" opacity="0.800000012"></path>
        <path d="M39.2183169,94.2700136 L59.1878794,94.2700136 C62.3389894,94.2700136 64.8934687,96.8279604 64.8934687,99.9833477 C64.8934687,103.138735 62.3389894,105.696682 59.1878794,105.696682 L39.2183169,105.696682 C36.067207,105.696682 33.5127276,103.138735 33.5127276,99.9833477 C33.5127276,96.8279604 36.067207,94.2700136 39.2183169,94.2700136 Z" id="Rectangle-7-Copy-9" fill="#66BF3C" opacity="0.800000012"></path>
        <path d="M79.1574419,94.2700136 L91.9950178,94.2700136 C95.1461277,94.2700136 97.700607,96.8279604 97.700607,99.9833477 C97.700607,103.138735 95.1461277,105.696682 91.9950178,105.696682 L79.1574419,105.696682 C76.0063319,105.696682 73.4518526,103.138735 73.4518526,99.9833477 C73.4518526,96.8279604 76.0063319,94.2700136 79.1574419,94.2700136 Z" id="Rectangle-7-Copy-10" fill="#FC521F" opacity="0.800000012"></path>
    </g>
</svg>