<?xml version="1.0" encoding="UTF-8"?>
<svg width="140px" height="140px" viewBox="0 0 140 140" version="1.1" xmlns="http://www.w3.org/2000/svg" xmlns:xlink="http://www.w3.org/1999/xlink">
    <title>addons/storyshots</title>
    <defs>
        <radialGradient cx="50%" cy="50%" fx="50%" fy="50%" r="100%" id="radialGradient-1">
            <stop stop-color="#FD8460" stop-opacity="0" offset="0%"></stop>
            <stop stop-color="#FC521F" offset="100%"></stop>
        </radialGradient>
    </defs>
    <g id="addons/storyshots" stroke="none" stroke-width="1" fill="none" fill-rule="evenodd">
        <g id="Group-7" transform="translate(0.000000, 2.000000)" fill="#6F2CAC" opacity="0.200000003">
            <path d="M51.3635478,122.578947 C55.0696691,122.578947 58.0740741,125.583352 58.0740741,129.289474 C58.0740741,132.995595 55.0696691,136 51.3635478,136 L19.41423,136 C15.7081087,136 12.7037037,132.995595 12.7037037,129.289474 C12.7037037,125.583352 15.7081087,122.578947 19.41423,122.578947 L51.3635478,122.578947 Z M62.2524366,98.4210526 C65.958558,98.4210526 68.962963,101.425458 68.962963,105.131579 C68.962963,108.8377 65.958558,111.842105 62.2524366,111.842105 L37.5623782,111.842105 C33.8562568,111.842105 30.8518519,108.8377 30.8518519,105.131579 C30.8518519,101.425458 33.8562568,98.4210526 37.5623782,98.4210526 L62.2524366,98.4210526 Z M102.178363,98.4210526 C105.884484,98.4210526 108.888889,101.425458 108.888889,105.131579 C108.888889,108.8377 105.884484,111.842105 102.178363,111.842105 L85.6549708,111.842105 C81.9488494,111.842105 78.9444444,108.8377 78.9444444,105.131579 C78.9444444,101.425458 81.9488494,98.4210526 85.6549708,98.4210526 L102.178363,98.4210526 Z M140.289474,74.2631579 C143.995595,74.2631579 147,77.2675629 147,80.9736842 C147,84.6798056 143.995595,87.6842105 140.289474,87.6842105 L36.6549708,87.6842105 C32.9488494,87.6842105 29.9444444,84.6798056 29.9444444,80.9736842 C29.9444444,77.2675629 32.9488494,74.2631579 36.6549708,74.2631579 L140.289474,74.2631579 Z M110.345029,48.3157895 C114.051151,48.3157895 117.055556,51.3201944 117.055556,55.0263158 C117.055556,58.7324371 114.051151,61.7368421 110.345029,61.7368421 L37.5623782,61.7368421 C33.8562568,61.7368421 30.8518519,58.7324371 30.8518519,55.0263158 C30.8518519,51.3201944 33.8562568,48.3157895 37.5623782,48.3157895 L110.345029,48.3157895 Z M82.2153996,24.1578947 C85.921521,24.1578947 88.9259259,27.1622997 88.9259259,30.8684211 C88.9259259,34.5745424 85.921521,37.5789474 82.2153996,37.5789474 L19.41423,37.5789474 C15.7081087,37.5789474 12.7037037,34.5745424 12.7037037,30.8684211 C12.7037037,27.1622997 15.7081087,24.1578947 19.41423,24.1578947 L82.2153996,24.1578947 Z M51.3635478,0 C55.0696691,4.6839165e-16 58.0740741,3.00440497 58.0740741,6.71052632 C58.0740741,10.4166477 55.0696691,13.4210526 51.3635478,13.4210526 L6.71052632,13.4210526 C3.00440497,13.4210526 4.53868965e-16,10.4166477 0,6.71052632 C-4.53868965e-16,3.00440497 3.00440497,-2.07374973e-16 6.71052632,0 L51.3635478,0 Z" id="Combined-Shape"></path>
        </g>
        <g id="Group-3-Copy" transform="translate(42.000000, 8.000000)">
            <circle id="Oval-3" fill="url(#radialGradient-1)" opacity="0.200000003" cx="49" cy="49" r="49"></circle>
            <circle id="Oval-3" fill="url(#radialGradient-1)" opacity="0.349999994" cx="49.5" cy="49.5" r="28.5"></circle>
            <circle id="Oval-3" fill="#FC521F" cx="49" cy="49" r="8"></circle>
        </g>
    </g>
</svg>