<svg width="160" height="160" viewBox="0 0 160 160" fill="none" xmlns="http://www.w3.org/2000/svg">
<rect width="160" height="160" rx="20" fill="#BBE4FE"/>
<path fill-rule="evenodd" clip-rule="evenodd" d="M97.8782 78.3074L71.7847 61.439C71.3675 61.1692 70.9724 61.0415 70.6215 61.0416C69.761 61.0417 69.1665 61.8091 69.1665 63.1315V96.8684C69.1665 98.1909 69.7609 98.9583 70.6215 98.9583C70.9724 98.9583 71.3676 98.8306 71.7847 98.5609L97.8782 81.6926C99.3182 80.7616 99.3182 79.2383 97.8782 78.3074" fill="#1EA7FD"/>
<path fill-rule="evenodd" clip-rule="evenodd" d="M81.9999 34.2502V22.4507C112.876 23.5046 137.583 48.8669 137.583 79.9999C137.583 111.802 111.802 137.583 79.9999 137.583C48.8669 137.583 23.5046 112.876 22.4507 81.9999H34.2502C35.2972 106.363 55.3795 125.793 79.9999 125.793C105.29 125.793 125.793 105.29 125.793 79.9999C125.793 55.3795 106.363 35.2972 81.9999 34.2502Z" fill="#1EA7FD"/>
<path fill-rule="evenodd" clip-rule="evenodd" d="M22.4507 77.9999C23.4819 47.7875 47.7875 23.4819 77.9999 22.4507V34.2502C54.3004 35.2687 35.2687 54.3004 34.2502 77.9999H22.4507Z" fill="#8CD2FE"/>
</svg>
