<svg xmlns="http://www.w3.org/2000/svg" xmlns:xlink="http://www.w3.org/1999/xlink" width="140" height="140" version="1.1" viewBox="0 0 140 140"><title>addons/toolbars</title><defs><path id="path-1" d="M17.3333333,0.666666667 L46.6666667,0.666666667 C56.2396023,0.666666667 64,8.42706434 64,18 C64,27.5729357 56.2396023,35.3333333 46.6666667,35.3333333 L17.3333333,35.3333333 C7.76039767,35.3333333 4.54747351e-13,27.5729357 4.54747351e-13,18 C4.54747351e-13,8.42706434 7.76039767,0.666666667 17.3333333,0.666666667 Z"/><path id="path-3" d="M17.3333333,0.666666667 L46.6666667,0.666666667 C56.2396023,0.666666667 64,8.42706434 64,18 C64,27.5729357 56.2396023,35.3333333 46.6666667,35.3333333 L17.3333333,35.3333333 C7.76039767,35.3333333 4.54747351e-13,27.5729357 4.54747351e-13,18 C4.54747351e-13,8.42706434 7.76039767,0.666666667 17.3333333,0.666666667 Z"/></defs><g id="addons/toolbars" fill="none" fill-rule="evenodd" stroke="none" stroke-width="1"><rect id="Rectangle-9" width="140" height="140" x="0" y="0" fill="#FFAE00" fill-opacity=".3" rx="4"/><g id="illustration/knob" transform="translate(38.000000, 28.000000)"><mask id="mask-2" fill="#fff"><use xlink:href="#path-1"/></mask><use id="Rectangle" fill="#85CC63" xlink:href="#path-1"/><circle id="Oval" cx="46.667" cy="18" r="14.667" fill="#FFF"/></g><g id="illustration/knob-copy" transform="translate(70.000000, 94.000000) scale(-1, 1) translate(-70.000000, -94.000000) translate(38.000000, 76.000000)"><mask id="mask-4" fill="#fff"><use xlink:href="#path-3"/></mask><use id="Rectangle" fill="#FD754C" transform="translate(32.000000, 18.000000) scale(-1, 1) translate(-32.000000, -18.000000)" xlink:href="#path-3"/><circle id="Oval" cx="46.667" cy="18" r="14.667" fill="#FFF"/></g></g></svg>