<svg xmlns="http://www.w3.org/2000/svg" xmlns:xlink="http://www.w3.org/1999/xlink" width="140" height="140" version="1.1" viewBox="0 0 140 140"><title>addons/viewports</title><g id="addons/viewports" fill="none" fill-rule="evenodd" stroke="none" stroke-width="1"><g id="Group-5"><rect id="Rectangle-9" width="140" height="140" x="0" y="0" fill="#1EA7FD" fill-opacity=".3" stroke="#1EA7FD" rx="4"/><path id="Rectangle-9" fill="#1EA7FD" fill-opacity=".3" stroke="#1EA7FD" stroke-dasharray="4 2" d="M4,35 L101,35 C103.209139,35 105,36.790861 105,39 L105,136 C105,138.209139 103.209139,140 101,140 L4,140 C1.790861,140 2.705415e-16,138.209139 0,136 L0,39 C-2.705415e-16,36.790861 1.790861,35 4,35 Z"/><path id="Rectangle-9" fill="#1EA7FD" fill-opacity=".3" stroke="#1EA7FD" stroke-dasharray="4 2" d="M4,70 L41.3703704,70 C43.5795094,70 45.3703704,71.790861 45.3703704,74 L45.3703704,136 C45.3703704,138.209139 43.5795094,140 41.3703704,140 L4,140 C1.790861,140 2.705415e-16,138.209139 0,136 L0,74 C-7.1463071e-16,71.790861 1.790861,70 4,70 Z"/><rect id="Rectangle-7" width="10.37" height="10.37" x="9.074" y="7.778" fill="#FC521F" rx="5.185"/><rect id="Rectangle-7-Copy-4" width="10.37" height="10.37" x="23.333" y="7.778" fill="#FFAE00" rx="5.185"/><rect id="Rectangle-7-Copy-5" width="10.37" height="10.37" x="37.593" y="7.778" fill="#66BF3C" rx="5.185"/></g></g></svg>