<svg width="1282" height="992" viewBox="0 0 1282 992" fill="none" xmlns="http://www.w3.org/2000/svg">
<g filter="url(#filter0_dddd_1514_45168)">
<g clip-path="url(#clip0_1514_45168)">
<rect x="40" y="20" width="1202" height="902" rx="8" fill="#E5E5E5"/>
<g filter="url(#filter1_dd_1514_45168)">
<rect x="386" y="342" width="340" height="273" rx="10" fill="white"/>
</g>
<path d="M424.619 544.835H425.932V554H424.45V547.942L422.032 552.518H420.914L418.483 548.007L418.496 554H417.014V544.835H418.34L421.486 550.828L424.619 544.835ZM427.776 554V547.643H429.401V554H427.776ZM427.685 544.692H429.479V546.291H427.685V544.692ZM434.768 547.487C435.531 547.487 436.099 547.704 436.471 548.137C436.844 548.57 437.03 549.225 437.03 550.1V554H435.405V550.191C435.405 549.697 435.31 549.337 435.119 549.112C434.937 548.887 434.647 548.774 434.248 548.774C433.78 548.774 433.403 548.921 433.117 549.216C432.84 549.511 432.701 549.905 432.701 550.399V554H431.076V547.643H432.662V548.592C432.879 548.237 433.169 547.964 433.533 547.773C433.897 547.582 434.309 547.487 434.768 547.487ZM438.681 554V547.643H440.306V554H438.681ZM438.59 544.692H440.384V546.291H438.59V544.692ZM449.535 547.487C450.254 547.487 450.791 547.704 451.147 548.137C451.502 548.562 451.68 549.216 451.68 550.1V554H450.055V550.165C450.055 549.68 449.972 549.329 449.808 549.112C449.643 548.887 449.379 548.774 449.015 548.774C448.581 548.774 448.243 548.921 448.001 549.216C447.758 549.511 447.637 549.922 447.637 550.451V554H446.012V550.165C446.012 549.68 445.929 549.329 445.765 549.112C445.609 548.887 445.344 548.774 444.972 548.774C444.547 548.774 444.213 548.921 443.971 549.216C443.728 549.511 443.607 549.922 443.607 550.451V554H441.982V547.643H443.568V548.54C443.758 548.193 444.023 547.933 444.361 547.76C444.699 547.578 445.084 547.487 445.518 547.487C446.48 547.487 447.117 547.886 447.429 548.683C447.628 548.31 447.914 548.02 448.287 547.812C448.659 547.595 449.075 547.487 449.535 547.487ZM459.168 547.643V554H457.582V553.025C457.383 553.372 457.114 553.64 456.776 553.831C456.438 554.013 456.057 554.104 455.632 554.104C454.072 554.104 453.292 553.229 453.292 551.478V547.643H454.917V551.491C454.917 551.942 455.008 552.275 455.19 552.492C455.372 552.709 455.658 552.817 456.048 552.817C456.499 552.817 456.859 552.67 457.127 552.375C457.405 552.072 457.543 551.673 457.543 551.179V547.643H459.168ZM468.413 547.487C469.132 547.487 469.669 547.704 470.025 548.137C470.38 548.562 470.558 549.216 470.558 550.1V554H468.933V550.165C468.933 549.68 468.85 549.329 468.686 549.112C468.521 548.887 468.257 548.774 467.893 548.774C467.459 548.774 467.121 548.921 466.879 549.216C466.636 549.511 466.515 549.922 466.515 550.451V554H464.89V550.165C464.89 549.68 464.807 549.329 464.643 549.112C464.487 548.887 464.222 548.774 463.85 548.774C463.425 548.774 463.091 548.921 462.849 549.216C462.606 549.511 462.485 549.922 462.485 550.451V554H460.86V547.643H462.446V548.54C462.636 548.193 462.901 547.933 463.239 547.76C463.577 547.578 463.962 547.487 464.396 547.487C465.358 547.487 465.995 547.886 466.307 548.683C466.506 548.31 466.792 548.02 467.165 547.812C467.537 547.595 467.953 547.487 468.413 547.487Z" fill="#333333"/>
<path d="M584.619 544.835H585.932V554H584.45V547.942L582.032 552.518H580.914L578.483 548.007L578.496 554H577.014V544.835H578.34L581.486 550.828L584.619 544.835ZM590.506 547.487C591.398 547.487 592.061 547.704 592.495 548.137C592.928 548.57 593.145 549.238 593.145 550.139V554H591.598V553.025C591.45 553.363 591.216 553.627 590.896 553.818C590.584 554.009 590.22 554.104 589.804 554.104C589.379 554.104 588.993 554.017 588.647 553.844C588.3 553.671 588.027 553.432 587.828 553.129C587.628 552.826 587.529 552.488 587.529 552.115C587.529 551.647 587.646 551.279 587.88 551.01C588.122 550.741 588.512 550.546 589.05 550.425C589.587 550.304 590.328 550.243 591.273 550.243H591.598V549.944C591.598 549.511 591.502 549.199 591.312 549.008C591.13 548.817 590.822 548.722 590.389 548.722C590.051 548.722 589.695 548.783 589.323 548.904C588.959 549.017 588.599 549.177 588.244 549.385L587.789 548.267C588.144 548.042 588.573 547.855 589.076 547.708C589.578 547.561 590.055 547.487 590.506 547.487ZM590.129 552.934C590.562 552.934 590.913 552.791 591.182 552.505C591.459 552.21 591.598 551.833 591.598 551.374V551.101H591.364C590.783 551.101 590.332 551.127 590.012 551.179C589.691 551.231 589.461 551.322 589.323 551.452C589.184 551.582 589.115 551.76 589.115 551.985C589.115 552.262 589.21 552.492 589.401 552.674C589.591 552.847 589.834 552.934 590.129 552.934ZM598.345 550.724L601.023 554H599.099L597.409 551.881L595.732 554H593.808L596.473 550.724L593.951 547.643H595.888L597.409 549.58L598.93 547.643H600.867L598.345 550.724ZM601.715 554V547.643H603.34V554H601.715ZM601.624 544.692H603.418V546.291H601.624V544.692ZM612.569 547.487C613.288 547.487 613.826 547.704 614.181 548.137C614.536 548.562 614.714 549.216 614.714 550.1V554H613.089V550.165C613.089 549.68 613.007 549.329 612.842 549.112C612.677 548.887 612.413 548.774 612.049 548.774C611.616 548.774 611.278 548.921 611.035 549.216C610.792 549.511 610.671 549.922 610.671 550.451V554H609.046V550.165C609.046 549.68 608.964 549.329 608.799 549.112C608.643 548.887 608.379 548.774 608.006 548.774C607.581 548.774 607.248 548.921 607.005 549.216C606.762 549.511 606.641 549.922 606.641 550.451V554H605.016V547.643H606.602V548.54C606.793 548.193 607.057 547.933 607.395 547.76C607.733 547.578 608.119 547.487 608.552 547.487C609.514 547.487 610.151 547.886 610.463 548.683C610.662 548.31 610.948 548.02 611.321 547.812C611.694 547.595 612.11 547.487 612.569 547.487ZM622.203 547.643V554H620.617V553.025C620.417 553.372 620.149 553.64 619.811 553.831C619.473 554.013 619.091 554.104 618.667 554.104C617.107 554.104 616.327 553.229 616.327 551.478V547.643H617.952V551.491C617.952 551.942 618.043 552.275 618.225 552.492C618.407 552.709 618.693 552.817 619.083 552.817C619.533 552.817 619.893 552.67 620.162 552.375C620.439 552.072 620.578 551.673 620.578 551.179V547.643H622.203ZM631.447 547.487C632.166 547.487 632.703 547.704 633.059 548.137C633.414 548.562 633.592 549.216 633.592 550.1V554H631.967V550.165C631.967 549.68 631.884 549.329 631.72 549.112C631.555 548.887 631.291 548.774 630.927 548.774C630.493 548.774 630.155 548.921 629.913 549.216C629.67 549.511 629.549 549.922 629.549 550.451V554H627.924V550.165C627.924 549.68 627.841 549.329 627.677 549.112C627.521 548.887 627.256 548.774 626.884 548.774C626.459 548.774 626.125 548.921 625.883 549.216C625.64 549.511 625.519 549.922 625.519 550.451V554H623.894V547.643H625.48V548.54C625.67 548.193 625.935 547.933 626.273 547.76C626.611 547.578 626.996 547.487 627.43 547.487C628.392 547.487 629.029 547.886 629.341 548.683C629.54 548.31 629.826 548.02 630.199 547.812C630.571 547.595 630.987 547.487 631.447 547.487Z" fill="#333333"/>
<rect x="576" y="563" width="120" height="32" rx="4" fill="white"/>
<path d="M590.771 582.103H592.786V583H587.69V582.103H589.705V575.161L588.093 576.175L587.599 575.356L590.004 573.835H590.771V582.103ZM597.695 583.104C596.646 583.104 595.849 582.705 595.303 581.908C594.757 581.111 594.484 579.949 594.484 578.424C594.484 576.89 594.757 575.724 595.303 574.927C595.849 574.13 596.646 573.731 597.695 573.731C598.744 573.731 599.541 574.13 600.087 574.927C600.633 575.716 600.906 576.877 600.906 578.411C600.906 579.945 600.633 581.111 600.087 581.908C599.541 582.705 598.744 583.104 597.695 583.104ZM597.695 582.207C598.423 582.207 598.96 581.899 599.307 581.284C599.654 580.669 599.827 579.711 599.827 578.411C599.827 577.102 599.654 576.149 599.307 575.551C598.969 574.944 598.432 574.641 597.695 574.641C596.967 574.641 596.43 574.944 596.083 575.551C595.736 576.158 595.563 577.111 595.563 578.411C595.563 579.711 595.736 580.669 596.083 581.284C596.43 581.899 596.967 582.207 597.695 582.207ZM605.49 583.104C604.441 583.104 603.644 582.705 603.098 581.908C602.552 581.111 602.279 579.949 602.279 578.424C602.279 576.89 602.552 575.724 603.098 574.927C603.644 574.13 604.441 573.731 605.49 573.731C606.539 573.731 607.336 574.13 607.882 574.927C608.428 575.716 608.701 576.877 608.701 578.411C608.701 579.945 608.428 581.111 607.882 581.908C607.336 582.705 606.539 583.104 605.49 583.104ZM605.49 582.207C606.218 582.207 606.755 581.899 607.102 581.284C607.449 580.669 607.622 579.711 607.622 578.411C607.622 577.102 607.449 576.149 607.102 575.551C606.764 574.944 606.227 574.641 605.49 574.641C604.762 574.641 604.225 574.944 603.878 575.551C603.531 576.158 603.358 577.111 603.358 578.411C603.358 579.711 603.531 580.669 603.878 581.284C604.225 581.899 604.762 582.207 605.49 582.207Z" fill="#999999"/>
<rect x="576.5" y="563.5" width="119" height="31" rx="3.5" stroke="black" stroke-opacity="0.1"/>
<rect x="552" y="578" width="8" height="1" fill="black" fill-opacity="0.1"/>
<rect x="416" y="563" width="120" height="32" rx="4" fill="white"/>
<path d="M433.332 580.127V581.011H431.954V583H430.901V581.011H426.663V580.205L431.083 573.835H431.954V580.127H433.332ZM427.768 580.127H430.901V575.616L427.768 580.127ZM438.956 578.294C439.493 578.45 439.905 578.719 440.191 579.1C440.477 579.473 440.62 579.945 440.62 580.517C440.62 581.314 440.347 581.943 439.801 582.402C439.264 582.861 438.531 583.091 437.604 583.091C437.015 583.091 436.447 582.991 435.901 582.792C435.355 582.593 434.896 582.315 434.523 581.96L434.926 581.141C435.758 581.843 436.642 582.194 437.578 582.194C438.228 582.194 438.722 582.051 439.06 581.765C439.398 581.47 439.567 581.041 439.567 580.478C439.567 579.36 438.865 578.801 437.461 578.801H436.408V577.904H437.253C437.929 577.904 438.449 577.757 438.813 577.462C439.177 577.159 439.359 576.725 439.359 576.162C439.359 575.668 439.212 575.291 438.917 575.031C438.622 574.762 438.202 574.628 437.656 574.628C436.772 574.628 435.905 574.979 435.056 575.681L434.653 574.862C435.026 574.507 435.481 574.229 436.018 574.03C436.555 573.831 437.114 573.731 437.695 573.731C438.527 573.731 439.186 573.943 439.671 574.368C440.165 574.784 440.412 575.347 440.412 576.058C440.412 576.587 440.282 577.05 440.022 577.449C439.771 577.839 439.415 578.121 438.956 578.294Z" fill="#333333"/>
<rect x="416.5" y="563.5" width="119" height="31" rx="3.5" stroke="black" stroke-opacity="0.1"/>
<path d="M386 352C386 346.477 390.477 342 396 342H716C721.523 342 726 346.477 726 352V499H386V352Z" fill="url(#paint0_linear_1514_45168)"/>
<rect width="16.5" height="6.32541" transform="matrix(-1 0 0 1 432.5 492.686)" fill="url(#paint1_linear_1514_45168)"/>
<rect width="16.5" height="14.2169" transform="matrix(-1 0 0 1 450 484.794)" fill="url(#paint2_linear_1514_45168)"/>
<rect width="16.5" height="11.3736" transform="matrix(-1 0 0 1 467.5 487.637)" fill="url(#paint3_linear_1514_45168)"/>
<rect width="16.5" height="21.3254" transform="matrix(-1 0 0 1 485 477.686)" fill="url(#paint4_linear_1514_45168)"/>
<rect width="16.5" height="14.2169" transform="matrix(-1 0 0 1 502.5 484.794)" fill="url(#paint5_linear_1514_45168)"/>
<rect width="16.5" height="12.7952" transform="matrix(-1 0 0 1 520 486.216)" fill="url(#paint6_linear_1514_45168)"/>
<rect width="16.5" height="25.5905" transform="matrix(-1 0 0 1 537.5 473.42)" fill="url(#paint7_linear_1514_45168)"/>
<rect width="16.5" height="31.2773" transform="matrix(-1 0 0 1 555 467.733)" fill="url(#paint8_linear_1514_45168)"/>
<rect width="16.5" height="54.0244" transform="matrix(-1 0 0 1 572.5 444.986)" fill="url(#paint9_linear_1514_45168)"/>
<rect width="16.5" height="71.0847" transform="matrix(-1 0 0 1 590 427.926)" fill="url(#paint10_linear_1514_45168)"/>
<rect width="16.5" height="85.3016" transform="matrix(-1 0 0 1 607.5 413.709)" fill="url(#paint11_linear_1514_45168)"/>
<rect width="16.5" height="48.3376" transform="matrix(-1 0 0 1 625 450.673)" fill="url(#paint12_linear_1514_45168)"/>
<rect width="16.5" height="25.5905" transform="matrix(-1 0 0 1 642.5 473.42)" fill="url(#paint13_linear_1514_45168)"/>
<rect width="16.5" height="31.2773" transform="matrix(-1 0 0 1 660 467.733)" fill="url(#paint14_linear_1514_45168)"/>
<rect width="16" height="17" transform="matrix(-1 0 0 1 677 482.011)" fill="url(#paint15_linear_1514_45168)"/>
<rect width="17" height="21" transform="matrix(-1 0 0 1 695 478.011)" fill="url(#paint16_linear_1514_45168)"/>
<path fill-rule="evenodd" clip-rule="evenodd" d="M416 505H415V509H416V505ZM640 505H639V509H640V505ZM527 505H528V509H527V505ZM696 505H695V509H696V505ZM471 505H472V509H471V505ZM584 505H583V509H584V505Z" fill="black" fill-opacity="0.1"/>
<path d="M470.394 521.31V522H465.854V521.38L468.324 518.66C468.657 518.287 468.897 517.953 469.044 517.66C469.197 517.36 469.274 517.06 469.274 516.76C469.274 516.373 469.161 516.077 468.934 515.87C468.707 515.663 468.387 515.56 467.974 515.56C467.294 515.56 466.627 515.83 465.974 516.37L465.664 515.74C465.944 515.473 466.294 515.263 466.714 515.11C467.141 514.95 467.567 514.87 467.994 514.87C468.641 514.87 469.151 515.037 469.524 515.37C469.904 515.703 470.094 516.153 470.094 516.72C470.094 517.127 470.001 517.517 469.814 517.89C469.634 518.263 469.334 518.68 468.914 519.14L466.914 521.31H470.394ZM474 522.08C473.193 522.08 472.58 521.773 472.16 521.16C471.74 520.547 471.53 519.653 471.53 518.48C471.53 517.3 471.74 516.403 472.16 515.79C472.58 515.177 473.193 514.87 474 514.87C474.807 514.87 475.42 515.177 475.84 515.79C476.26 516.397 476.47 517.29 476.47 518.47C476.47 519.65 476.26 520.547 475.84 521.16C475.42 521.773 474.807 522.08 474 522.08ZM474 521.39C474.56 521.39 474.973 521.153 475.24 520.68C475.507 520.207 475.64 519.47 475.64 518.47C475.64 517.463 475.507 516.73 475.24 516.27C474.98 515.803 474.567 515.57 474 515.57C473.44 515.57 473.027 515.803 472.76 516.27C472.493 516.737 472.36 517.47 472.36 518.47C472.36 519.47 472.493 520.207 472.76 520.68C473.027 521.153 473.44 521.39 474 521.39Z" fill="#999999"/>
<path d="M526.644 519.79V520.47H525.584V522H524.774V520.47H521.514V519.85L524.914 514.95H525.584V519.79H526.644ZM522.364 519.79H524.774V516.32L522.364 519.79ZM530 522.08C529.193 522.08 528.58 521.773 528.16 521.16C527.74 520.547 527.53 519.653 527.53 518.48C527.53 517.3 527.74 516.403 528.16 515.79C528.58 515.177 529.193 514.87 530 514.87C530.807 514.87 531.42 515.177 531.84 515.79C532.26 516.397 532.47 517.29 532.47 518.47C532.47 519.65 532.26 520.547 531.84 521.16C531.42 521.773 530.807 522.08 530 522.08ZM530 521.39C530.56 521.39 530.973 521.153 531.24 520.68C531.507 520.207 531.64 519.47 531.64 518.47C531.64 517.463 531.507 516.73 531.24 516.27C530.98 515.803 530.567 515.57 530 515.57C529.44 515.57 529.027 515.803 528.76 516.27C528.493 516.737 528.36 517.47 528.36 518.47C528.36 519.47 528.493 520.207 528.76 520.68C529.027 521.153 529.44 521.39 530 521.39Z" fill="#999999"/>
<path d="M581.309 517.57C581.735 517.57 582.115 517.663 582.449 517.85C582.782 518.037 583.042 518.3 583.229 518.64C583.415 518.98 583.509 519.37 583.509 519.81C583.509 520.243 583.412 520.633 583.219 520.98C583.025 521.327 582.755 521.597 582.409 521.79C582.062 521.983 581.672 522.08 581.239 522.08C580.385 522.08 579.725 521.783 579.259 521.19C578.799 520.597 578.569 519.75 578.569 518.65C578.569 517.857 578.675 517.177 578.889 516.61C579.109 516.043 579.422 515.613 579.829 515.32C580.235 515.02 580.722 514.87 581.289 514.87C581.695 514.87 582.092 514.947 582.479 515.1C582.865 515.247 583.205 515.46 583.499 515.74L583.189 516.37C582.855 516.09 582.535 515.887 582.229 515.76C581.929 515.627 581.622 515.56 581.309 515.56C580.702 515.56 580.229 515.83 579.889 516.37C579.555 516.903 579.389 517.66 579.389 518.64V518.79C579.542 518.417 579.789 518.12 580.129 517.9C580.469 517.68 580.862 517.57 581.309 517.57ZM581.199 521.39C581.652 521.39 582.015 521.247 582.289 520.96C582.562 520.673 582.699 520.293 582.699 519.82C582.699 519.353 582.559 518.977 582.279 518.69C582.005 518.403 581.642 518.26 581.189 518.26C580.729 518.26 580.352 518.407 580.059 518.7C579.772 518.987 579.629 519.36 579.629 519.82C579.629 520.287 579.772 520.667 580.059 520.96C580.352 521.247 580.732 521.39 581.199 521.39ZM586.995 522.08C586.188 522.08 585.575 521.773 585.155 521.16C584.735 520.547 584.525 519.653 584.525 518.48C584.525 517.3 584.735 516.403 585.155 515.79C585.575 515.177 586.188 514.87 586.995 514.87C587.802 514.87 588.415 515.177 588.835 515.79C589.255 516.397 589.465 517.29 589.465 518.47C589.465 519.65 589.255 520.547 588.835 521.16C588.415 521.773 587.802 522.08 586.995 522.08ZM586.995 521.39C587.555 521.39 587.968 521.153 588.235 520.68C588.502 520.207 588.635 519.47 588.635 518.47C588.635 517.463 588.502 516.73 588.235 516.27C587.975 515.803 587.562 515.57 586.995 515.57C586.435 515.57 586.022 515.803 585.755 516.27C585.488 516.737 585.355 517.47 585.355 518.47C585.355 519.47 585.488 520.207 585.755 520.68C586.022 521.153 586.435 521.39 586.995 521.39Z" fill="#999999"/>
<path d="M638.224 518.38C638.637 518.507 638.957 518.723 639.184 519.03C639.417 519.337 639.534 519.703 639.534 520.13C639.534 520.737 639.314 521.213 638.874 521.56C638.434 521.9 637.811 522.07 637.004 522.07C636.197 522.07 635.574 521.9 635.134 521.56C634.694 521.213 634.474 520.737 634.474 520.13C634.474 519.697 634.591 519.327 634.824 519.02C635.057 518.713 635.381 518.5 635.794 518.38C635.441 518.247 635.161 518.037 634.954 517.75C634.747 517.463 634.644 517.127 634.644 516.74C634.644 516.167 634.851 515.713 635.264 515.38C635.684 515.04 636.264 514.87 637.004 514.87C637.744 514.87 638.321 515.04 638.734 515.38C639.154 515.713 639.364 516.167 639.364 516.74C639.364 517.127 639.261 517.467 639.054 517.76C638.847 518.047 638.571 518.253 638.224 518.38ZM635.454 516.8C635.454 517.213 635.584 517.53 635.844 517.75C636.111 517.97 636.497 518.08 637.004 518.08C637.511 518.08 637.894 517.97 638.154 517.75C638.421 517.53 638.554 517.213 638.554 516.8C638.554 516.407 638.421 516.1 638.154 515.88C637.894 515.66 637.511 515.55 637.004 515.55C636.497 515.55 636.111 515.66 635.844 515.88C635.584 516.1 635.454 516.407 635.454 516.8ZM637.004 521.39C638.151 521.39 638.724 520.953 638.724 520.08C638.724 519.207 638.151 518.77 637.004 518.77C635.857 518.77 635.284 519.207 635.284 520.08C635.284 520.953 635.857 521.39 637.004 521.39ZM643 522.08C642.193 522.08 641.58 521.773 641.16 521.16C640.74 520.547 640.53 519.653 640.53 518.48C640.53 517.3 640.74 516.403 641.16 515.79C641.58 515.177 642.193 514.87 643 514.87C643.807 514.87 644.42 515.177 644.84 515.79C645.26 516.397 645.47 517.29 645.47 518.47C645.47 519.65 645.26 520.547 644.84 521.16C644.42 521.773 643.807 522.08 643 522.08ZM643 521.39C643.56 521.39 643.973 521.153 644.24 520.68C644.507 520.207 644.64 519.47 644.64 518.47C644.64 517.463 644.507 516.73 644.24 516.27C643.98 515.803 643.567 515.57 643 515.57C642.44 515.57 642.027 515.803 641.76 516.27C641.493 516.737 641.36 517.47 641.36 518.47C641.36 519.47 641.493 520.207 641.76 520.68C642.027 521.153 642.44 521.39 643 521.39Z" fill="#999999"/>
<path d="M686.676 521.31H688.226V522H684.306V521.31H685.856V515.97L684.616 516.75L684.236 516.12L686.086 514.95H686.676V521.31ZM692.002 522.08C691.195 522.08 690.582 521.773 690.162 521.16C689.742 520.547 689.532 519.653 689.532 518.48C689.532 517.3 689.742 516.403 690.162 515.79C690.582 515.177 691.195 514.87 692.002 514.87C692.809 514.87 693.422 515.177 693.842 515.79C694.262 516.397 694.472 517.29 694.472 518.47C694.472 519.65 694.262 520.547 693.842 521.16C693.422 521.773 692.809 522.08 692.002 522.08ZM692.002 521.39C692.562 521.39 692.975 521.153 693.242 520.68C693.509 520.207 693.642 519.47 693.642 518.47C693.642 517.463 693.509 516.73 693.242 516.27C692.982 515.803 692.569 515.57 692.002 515.57C691.442 515.57 691.029 515.803 690.762 516.27C690.495 516.737 690.362 517.47 690.362 518.47C690.362 519.47 690.495 520.207 690.762 520.68C691.029 521.153 691.442 521.39 692.002 521.39ZM697.998 522.08C697.191 522.08 696.578 521.773 696.158 521.16C695.738 520.547 695.528 519.653 695.528 518.48C695.528 517.3 695.738 516.403 696.158 515.79C696.578 515.177 697.191 514.87 697.998 514.87C698.805 514.87 699.418 515.177 699.838 515.79C700.258 516.397 700.468 517.29 700.468 518.47C700.468 519.65 700.258 520.547 699.838 521.16C699.418 521.773 698.805 522.08 697.998 522.08ZM697.998 521.39C698.558 521.39 698.971 521.153 699.238 520.68C699.505 520.207 699.638 519.47 699.638 518.47C699.638 517.463 699.505 516.73 699.238 516.27C698.978 515.803 698.565 515.57 697.998 515.57C697.438 515.57 697.025 515.803 696.758 516.27C696.491 516.737 696.358 517.47 696.358 518.47C696.358 519.47 696.491 520.207 696.758 520.68C697.025 521.153 697.438 521.39 697.998 521.39Z" fill="#999999"/>
<path d="M416.002 522.08C415.195 522.08 414.582 521.773 414.162 521.16C413.742 520.547 413.532 519.653 413.532 518.48C413.532 517.3 413.742 516.403 414.162 515.79C414.582 515.177 415.195 514.87 416.002 514.87C416.809 514.87 417.422 515.177 417.842 515.79C418.262 516.397 418.472 517.29 418.472 518.47C418.472 519.65 418.262 520.547 417.842 521.16C417.422 521.773 416.809 522.08 416.002 522.08ZM416.002 521.39C416.562 521.39 416.975 521.153 417.242 520.68C417.509 520.207 417.642 519.47 417.642 518.47C417.642 517.463 417.509 516.73 417.242 516.27C416.982 515.803 416.569 515.57 416.002 515.57C415.442 515.57 415.029 515.803 414.762 516.27C414.495 516.737 414.362 517.47 414.362 518.47C414.362 519.47 414.495 520.207 414.762 520.68C415.029 521.153 415.442 521.39 416.002 521.39Z" fill="#999999"/>
<path d="M423.995 385L423.072 382.855H418.613L417.69 385H416L420.147 375.835H421.512L425.659 385H423.995ZM419.159 381.555H422.513L420.836 377.655L419.159 381.555ZM430.597 378.656H432.196L429.414 385H427.997L425.241 378.656H426.957L428.751 383.141L430.597 378.656ZM438.456 382.114H434.127C434.179 382.703 434.357 383.141 434.66 383.427C434.964 383.713 435.397 383.856 435.96 383.856C436.662 383.856 437.304 383.631 437.884 383.18L438.352 384.298C438.058 384.541 437.685 384.736 437.234 384.883C436.792 385.03 436.346 385.104 435.895 385.104C434.855 385.104 434.032 384.809 433.425 384.22C432.827 383.631 432.528 382.825 432.528 381.802C432.528 381.152 432.658 380.576 432.918 380.073C433.178 379.57 433.542 379.18 434.01 378.903C434.487 378.626 435.024 378.487 435.622 378.487C436.498 378.487 437.187 378.769 437.689 379.332C438.201 379.895 438.456 380.671 438.456 381.659V382.114ZM435.661 379.631C435.228 379.631 434.877 379.77 434.608 380.047C434.348 380.324 434.188 380.723 434.127 381.243H437.065C437.048 380.714 436.918 380.316 436.675 380.047C436.433 379.77 436.095 379.631 435.661 379.631ZM443.971 379.839L443.022 379.93C441.948 380.043 441.41 380.589 441.41 381.568V385H439.785V378.643H441.332V379.761C441.662 378.998 442.342 378.582 443.373 378.513L443.867 378.474L443.971 379.839ZM447.467 378.487C448.359 378.487 449.022 378.704 449.456 379.137C449.889 379.57 450.106 380.238 450.106 381.139V385H448.559V384.025C448.411 384.363 448.177 384.627 447.857 384.818C447.545 385.009 447.181 385.104 446.765 385.104C446.34 385.104 445.954 385.017 445.608 384.844C445.261 384.671 444.988 384.432 444.789 384.129C444.589 383.826 444.49 383.488 444.49 383.115C444.49 382.647 444.607 382.279 444.841 382.01C445.083 381.741 445.473 381.546 446.011 381.425C446.548 381.304 447.289 381.243 448.234 381.243H448.559V380.944C448.559 380.511 448.463 380.199 448.273 380.008C448.091 379.817 447.783 379.722 447.35 379.722C447.012 379.722 446.656 379.783 446.284 379.904C445.92 380.017 445.56 380.177 445.205 380.385L444.75 379.267C445.105 379.042 445.534 378.855 446.037 378.708C446.539 378.561 447.016 378.487 447.467 378.487ZM447.09 383.934C447.523 383.934 447.874 383.791 448.143 383.505C448.42 383.21 448.559 382.833 448.559 382.374V382.101H448.325C447.744 382.101 447.293 382.127 446.973 382.179C446.652 382.231 446.422 382.322 446.284 382.452C446.145 382.582 446.076 382.76 446.076 382.985C446.076 383.262 446.171 383.492 446.362 383.674C446.552 383.847 446.795 383.934 447.09 383.934ZM457.945 378.643V384.415C457.945 385.412 457.668 386.166 457.113 386.677C456.567 387.188 455.757 387.444 454.682 387.444C454.127 387.444 453.594 387.37 453.083 387.223C452.572 387.084 452.125 386.885 451.744 386.625L452.199 385.481C452.988 385.958 453.802 386.196 454.643 386.196C455.77 386.196 456.333 385.641 456.333 384.532V383.7C456.142 384.055 455.865 384.333 455.501 384.532C455.137 384.723 454.721 384.818 454.253 384.818C453.698 384.818 453.204 384.688 452.771 384.428C452.346 384.159 452.013 383.787 451.77 383.31C451.527 382.833 451.406 382.283 451.406 381.659C451.406 381.035 451.523 380.485 451.757 380.008C452 379.523 452.338 379.15 452.771 378.89C453.204 378.621 453.698 378.487 454.253 378.487C454.721 378.487 455.137 378.587 455.501 378.786C455.865 378.977 456.142 379.25 456.333 379.605V378.643H457.945ZM454.682 383.557C455.202 383.557 455.605 383.388 455.891 383.05C456.186 382.712 456.333 382.248 456.333 381.659C456.333 381.061 456.186 380.593 455.891 380.255C455.605 379.917 455.202 379.748 454.682 379.748C454.171 379.748 453.768 379.917 453.473 380.255C453.178 380.593 453.031 381.061 453.031 381.659C453.031 382.24 453.178 382.703 453.473 383.05C453.768 383.388 454.171 383.557 454.682 383.557ZM465.205 382.114H460.876C460.928 382.703 461.106 383.141 461.409 383.427C461.713 383.713 462.146 383.856 462.709 383.856C463.411 383.856 464.053 383.631 464.633 383.18L465.101 384.298C464.807 384.541 464.434 384.736 463.983 384.883C463.541 385.03 463.095 385.104 462.644 385.104C461.604 385.104 460.781 384.809 460.174 384.22C459.576 383.631 459.277 382.825 459.277 381.802C459.277 381.152 459.407 380.576 459.667 380.073C459.927 379.57 460.291 379.18 460.759 378.903C461.236 378.626 461.773 378.487 462.371 378.487C463.247 378.487 463.936 378.769 464.438 379.332C464.95 379.895 465.205 380.671 465.205 381.659V382.114ZM462.41 379.631C461.977 379.631 461.626 379.77 461.357 380.047C461.097 380.324 460.937 380.723 460.876 381.243H463.814C463.797 380.714 463.667 380.316 463.424 380.047C463.182 379.77 462.844 379.631 462.41 379.631ZM473.756 378.487C474.518 378.487 475.086 378.704 475.459 379.137C475.831 379.57 476.018 380.225 476.018 381.1V385H474.393V381.191C474.393 380.697 474.297 380.337 474.107 380.112C473.925 379.887 473.634 379.774 473.236 379.774C472.768 379.774 472.391 379.921 472.105 380.216C471.827 380.511 471.689 380.905 471.689 381.399V385H470.064V378.643H471.65V379.592C471.866 379.237 472.157 378.964 472.521 378.773C472.885 378.582 473.296 378.487 473.756 378.487ZM477.668 385V378.643H479.293V385H477.668ZM477.577 375.692H479.371V377.291H477.577V375.692ZM487.157 378.643V384.415C487.157 385.412 486.88 386.166 486.325 386.677C485.779 387.188 484.969 387.444 483.894 387.444C483.339 387.444 482.806 387.37 482.295 387.223C481.784 387.084 481.337 386.885 480.956 386.625L481.411 385.481C482.2 385.958 483.014 386.196 483.855 386.196C484.982 386.196 485.545 385.641 485.545 384.532V383.7C485.354 384.055 485.077 384.333 484.713 384.532C484.349 384.723 483.933 384.818 483.465 384.818C482.91 384.818 482.416 384.688 481.983 384.428C481.558 384.159 481.225 383.787 480.982 383.31C480.739 382.833 480.618 382.283 480.618 381.659C480.618 381.035 480.735 380.485 480.969 380.008C481.212 379.523 481.55 379.15 481.983 378.89C482.416 378.621 482.91 378.487 483.465 378.487C483.933 378.487 484.349 378.587 484.713 378.786C485.077 378.977 485.354 379.25 485.545 379.605V378.643H487.157ZM483.894 383.557C484.414 383.557 484.817 383.388 485.103 383.05C485.398 382.712 485.545 382.248 485.545 381.659C485.545 381.061 485.398 380.593 485.103 380.255C484.817 379.917 484.414 379.748 483.894 379.748C483.383 379.748 482.98 379.917 482.685 380.255C482.39 380.593 482.243 381.061 482.243 381.659C482.243 382.24 482.39 382.703 482.685 383.05C482.98 383.388 483.383 383.557 483.894 383.557ZM492.532 378.487C493.295 378.487 493.862 378.704 494.235 379.137C494.608 379.57 494.794 380.225 494.794 381.1V385H493.169V381.191C493.169 380.697 493.074 380.337 492.883 380.112C492.701 379.887 492.411 379.774 492.012 379.774C491.544 379.774 491.167 379.921 490.881 380.216C490.604 380.511 490.465 380.905 490.465 381.399V385H488.84V375.835H490.465V379.527C490.682 379.189 490.968 378.933 491.323 378.76C491.687 378.578 492.09 378.487 492.532 378.487ZM499.695 383.882C499.885 383.882 500.085 383.869 500.293 383.843L500.215 385.052C499.955 385.078 499.716 385.091 499.5 385.091C498.607 385.091 497.948 384.887 497.524 384.48C497.099 384.064 496.887 383.449 496.887 382.634V379.865H495.665V378.643H496.887V376.745H498.512V378.643H500.189V379.865H498.512V382.608C498.512 383.457 498.906 383.882 499.695 383.882ZM501.243 385V375.835H502.868V385H501.243ZM509.003 378.656H510.602L506.78 387.34H505.142L506.299 384.753L503.647 378.656H505.363L507.157 383.141L509.003 378.656ZM518.569 378.487C519.115 378.487 519.601 378.626 520.025 378.903C520.459 379.18 520.792 379.575 521.026 380.086C521.269 380.589 521.39 381.169 521.39 381.828C521.39 382.487 521.269 383.063 521.026 383.557C520.792 384.051 520.463 384.432 520.038 384.701C519.614 384.97 519.124 385.104 518.569 385.104C518.119 385.104 517.716 385.009 517.36 384.818C517.005 384.627 516.732 384.363 516.541 384.025V387.34H514.916V378.643H516.515V379.605C516.706 379.25 516.979 378.977 517.334 378.786C517.698 378.587 518.11 378.487 518.569 378.487ZM518.14 383.843C518.652 383.843 519.05 383.67 519.336 383.323C519.622 382.968 519.765 382.469 519.765 381.828C519.765 381.169 519.622 380.658 519.336 380.294C519.05 379.93 518.652 379.748 518.14 379.748C517.62 379.748 517.217 379.926 516.931 380.281C516.654 380.636 516.515 381.143 516.515 381.802C516.515 382.452 516.654 382.955 516.931 383.31C517.217 383.665 517.62 383.843 518.14 383.843ZM526.91 379.839L525.961 379.93C524.886 380.043 524.349 380.589 524.349 381.568V385H522.724V378.643H524.271V379.761C524.6 378.998 525.281 378.582 526.312 378.513L526.806 378.474L526.91 379.839ZM527.7 385V378.643H529.325V385H527.7ZM527.609 375.692H529.403V377.291H527.609V375.692ZM533.9 385.104C533.233 385.104 532.652 384.97 532.158 384.701C531.673 384.432 531.3 384.051 531.04 383.557C530.78 383.063 530.65 382.487 530.65 381.828C530.65 381.169 530.785 380.589 531.053 380.086C531.331 379.575 531.721 379.18 532.223 378.903C532.726 378.626 533.307 378.487 533.965 378.487C534.416 378.487 534.854 378.561 535.278 378.708C535.712 378.847 536.058 379.037 536.318 379.28L535.85 380.424C535.582 380.207 535.296 380.043 534.992 379.93C534.698 379.817 534.403 379.761 534.108 379.761C533.545 379.761 533.107 379.939 532.795 380.294C532.483 380.641 532.327 381.143 532.327 381.802C532.327 382.452 532.483 382.955 532.795 383.31C533.107 383.657 533.545 383.83 534.108 383.83C534.403 383.83 534.698 383.774 534.992 383.661C535.296 383.548 535.582 383.384 535.85 383.167L536.318 384.298C536.041 384.549 535.686 384.749 535.252 384.896C534.819 385.035 534.368 385.104 533.9 385.104ZM542.926 382.114H538.597C538.649 382.703 538.827 383.141 539.13 383.427C539.433 383.713 539.867 383.856 540.43 383.856C541.132 383.856 541.773 383.631 542.354 383.18L542.822 384.298C542.527 384.541 542.155 384.736 541.704 384.883C541.262 385.03 540.816 385.104 540.365 385.104C539.325 385.104 538.502 384.809 537.895 384.22C537.297 383.631 536.998 382.825 536.998 381.802C536.998 381.152 537.128 380.576 537.388 380.073C537.648 379.57 538.012 379.18 538.48 378.903C538.957 378.626 539.494 378.487 540.092 378.487C540.967 378.487 541.656 378.769 542.159 379.332C542.67 379.895 542.926 380.671 542.926 381.659V382.114ZM540.131 379.631C539.698 379.631 539.347 379.77 539.078 380.047C538.818 380.324 538.658 380.723 538.597 381.243H541.535C541.518 380.714 541.388 380.316 541.145 380.047C540.902 379.77 540.564 379.631 540.131 379.631ZM544.112 378.643H545.932V380.437H544.112V378.643ZM544.112 383.206H545.932V385H544.112V383.206ZM557.522 382.4C557.522 383.093 557.279 383.683 556.794 384.168C556.309 384.645 555.663 384.944 554.857 385.065V386.495H553.531V385.091C552.95 385.048 552.413 384.935 551.919 384.753C551.434 384.571 551.009 384.328 550.645 384.025L551.204 382.816C551.646 383.145 552.092 383.388 552.543 383.544C553.002 383.7 553.496 383.778 554.025 383.778C554.614 383.778 555.065 383.665 555.377 383.44C555.698 383.215 555.858 382.89 555.858 382.465C555.858 382.214 555.771 382.01 555.598 381.854C555.425 381.698 555.208 381.577 554.948 381.49C554.697 381.395 554.337 381.286 553.869 381.165C553.21 381 552.677 380.836 552.27 380.671C551.863 380.498 551.512 380.238 551.217 379.891C550.922 379.536 550.775 379.063 550.775 378.474C550.775 377.781 551.026 377.187 551.529 376.693C552.04 376.199 552.699 375.891 553.505 375.77V374.34H554.831V375.757C555.325 375.818 555.793 375.939 556.235 376.121C556.686 376.303 557.058 376.528 557.353 376.797L556.794 378.006C555.988 377.373 555.126 377.057 554.207 377.057C553.67 377.057 553.241 377.174 552.92 377.408C552.608 377.642 552.452 377.967 552.452 378.383C552.452 378.669 552.543 378.903 552.725 379.085C552.907 379.258 553.137 379.397 553.414 379.501C553.7 379.605 554.081 379.713 554.558 379.826C555.191 379.982 555.702 380.142 556.092 380.307C556.491 380.463 556.829 380.71 557.106 381.048C557.383 381.386 557.522 381.837 557.522 382.4ZM562.353 379.137C562.925 379.137 563.428 379.263 563.861 379.514C564.303 379.757 564.641 380.099 564.875 380.541C565.118 380.983 565.239 381.49 565.239 382.062C565.239 382.669 565.1 383.202 564.823 383.661C564.546 384.12 564.151 384.476 563.64 384.727C563.137 384.978 562.544 385.104 561.859 385.104C561.287 385.104 560.719 385.009 560.156 384.818C559.601 384.619 559.142 384.359 558.778 384.038L559.337 382.816C560.169 383.449 561.018 383.765 561.885 383.765C562.457 383.765 562.895 383.622 563.198 383.336C563.501 383.05 563.653 382.643 563.653 382.114C563.653 381.603 563.497 381.2 563.185 380.905C562.882 380.602 562.466 380.45 561.937 380.45C561.582 380.45 561.244 380.519 560.923 380.658C560.611 380.788 560.329 380.979 560.078 381.23H559.077V375.835H564.823V377.135H560.715V379.605C561.157 379.293 561.703 379.137 562.353 379.137ZM573.203 381.906V383.206H571.916V385H570.278V383.206H566.3V381.971L570.564 375.835H571.916V381.906H573.203ZM567.86 381.906H570.278V378.409L567.86 381.906Z" fill="#333333"/>
<rect x="726" y="501" width="340" height="2" transform="rotate(-180 726 501)" fill="black" fill-opacity="0.1"/>
<g filter="url(#filter2_d_1514_45168)">
<circle cx="694" cy="500" r="8" fill="white"/>
<circle cx="694" cy="500" r="8" stroke="black" stroke-opacity="0.1"/>
</g>
<rect x="692" y="496" width="1" height="8" rx="0.5" fill="#CCCCCC"/>
<rect x="695" y="496" width="1" height="8" rx="0.5" fill="#CCCCCC"/>
<g filter="url(#filter3_d_1514_45168)">
<circle cx="538" cy="500" r="8" fill="white"/>
<circle cx="538" cy="500" r="8" stroke="black" stroke-opacity="0.1"/>
</g>
<rect x="536" y="496" width="1" height="8" rx="0.5" fill="#CCCCCC"/>
<rect x="539" y="496" width="1" height="8" rx="0.5" fill="#CCCCCC"/>
<rect x="385.5" y="341.5" width="341" height="274" stroke="#7762F6"/>
<rect x="382.5" y="338.5" width="7" height="7" fill="white" stroke="#7762F6"/>
<rect x="382.5" y="611.5" width="7" height="7" fill="white" stroke="#7762F6"/>
<rect x="722.5" y="338.5" width="7" height="7" fill="white" stroke="#7762F6"/>
<rect x="722.5" y="611.5" width="7" height="7" fill="white" stroke="#7762F6"/>
<rect x="40" y="20" width="1202" height="38" fill="#222222"/>
<circle cx="60" cy="39" r="5.5" stroke="#666666"/>
<circle cx="80" cy="39" r="5.5" stroke="#666666"/>
<circle cx="100" cy="39" r="5.5" stroke="#666666"/>
<rect x="40" y="58" width="1202" height="48" fill="#2C2C2B"/>
<g clip-path="url(#clip1_1514_45168)">
<path d="M58.5996 81.9997C58.5996 81.2924 58.8946 80.6142 59.4197 80.1141C59.9448 79.614 60.657 79.333 61.3996 79.333C62.1422 79.333 62.8544 79.614 63.3795 80.1141C63.9046 80.6142 64.1996 81.2924 64.1996 81.9997C64.1996 82.7069 63.9046 83.3852 63.3795 83.8853C62.8544 84.3854 62.1422 84.6663 61.3996 84.6663C60.657 84.6663 59.9448 84.3854 59.4197 83.8853C58.8946 83.3852 58.5996 82.7069 58.5996 81.9997Z" fill="#1ABCFE"/>
<path d="M53 87.3337C53 86.6264 53.295 85.9481 53.8201 85.448C54.3452 84.9479 55.0574 84.667 55.8 84.667H58.6V87.3337C58.6 88.0409 58.305 88.7192 57.7799 89.2193C57.2548 89.7194 56.5426 90.0003 55.8 90.0003C55.0574 90.0003 54.3452 89.7194 53.8201 89.2193C53.295 88.7192 53 88.0409 53 87.3337V87.3337Z" fill="#0ACF83"/>
<path d="M58.5996 74V79.3333H61.3996C62.1422 79.3333 62.8544 79.0524 63.3795 78.5523C63.9046 78.0522 64.1996 77.3739 64.1996 76.6667C64.1996 75.9594 63.9046 75.2811 63.3795 74.781C62.8544 74.281 62.1422 74 61.3996 74H58.5996Z" fill="#FF7262"/>
<path d="M53 76.6667C53 77.3739 53.295 78.0522 53.8201 78.5523C54.3452 79.0524 55.0574 79.3333 55.8 79.3333H58.6V74H55.8C55.0574 74 54.3452 74.281 53.8201 74.781C53.295 75.2811 53 75.9594 53 76.6667V76.6667Z" fill="#F24E1E"/>
<path d="M53 81.9997C53 82.7069 53.295 83.3852 53.8201 83.8853C54.3452 84.3854 55.0574 84.6663 55.8 84.6663H58.6V79.333H55.8C55.0574 79.333 54.3452 79.614 53.8201 80.1141C53.295 80.6142 53 81.2924 53 81.9997V81.9997Z" fill="#A259FF"/>
</g>
<rect x="1002" y="106" width="240" height="824" fill="white"/>
<path d="M1020.19 339.416L1019.71 326.503C1019.69 326.076 1020.02 325.715 1020.44 325.688L1031.43 325.002C1031.86 324.974 1032.24 325.304 1032.26 325.738C1032.26 325.754 1032.26 325.77 1032.26 325.787V339.858C1032.26 340.292 1031.91 340.644 1031.48 340.644C1031.47 340.644 1031.45 340.644 1031.44 340.644L1020.94 340.172C1020.53 340.154 1020.21 339.825 1020.19 339.416Z" fill="#FF4785"/>
<path fill-rule="evenodd" clip-rule="evenodd" d="M1030.57 325.056L1029.05 325.15L1028.98 326.923C1028.98 326.95 1028.99 326.977 1029 326.999C1029.04 327.05 1029.12 327.061 1029.17 327.021L1029.86 326.499L1030.44 326.957C1030.46 326.974 1030.49 326.983 1030.52 326.982C1030.58 326.98 1030.63 326.926 1030.63 326.861L1030.57 325.056ZM1029.39 330.993C1029.11 331.208 1027.05 331.355 1027.05 331.049C1027.09 329.881 1026.57 329.83 1026.28 329.83C1026.01 329.83 1025.54 329.913 1025.54 330.539C1025.54 331.176 1026.22 331.536 1027.02 331.958C1028.15 332.558 1029.52 333.285 1029.52 335.112C1029.52 336.864 1028.1 337.831 1026.28 337.831C1024.41 337.831 1022.77 337.073 1022.96 334.446C1023.03 334.137 1025.41 334.21 1025.41 334.446C1025.38 335.53 1025.63 335.849 1026.25 335.849C1026.73 335.849 1026.95 335.585 1026.95 335.14C1026.95 334.467 1026.24 334.069 1025.43 333.612C1024.33 332.994 1023.03 332.265 1023.03 330.594C1023.03 328.926 1024.18 327.814 1026.22 327.814C1028.27 327.814 1029.39 328.909 1029.39 330.993Z" fill="white"/>
<rect x="1002" y="146" width="240" height="1" fill="#E4E5E5"/>
<rect x="1002" y="227" width="240" height="1" fill="#E4E5E5"/>
<rect x="1002" y="276" width="240" height="1" fill="#E4E5E5"/>
<rect x="1002" y="389" width="240" height="1" fill="#E4E5E5"/>
<path d="M1018.94 130H1021.99C1024.31 130 1025.63 128.582 1025.63 126.079V126.068C1025.63 123.641 1024.29 122.25 1021.99 122.25H1018.94V130ZM1020.56 128.663V123.587H1021.73C1023.14 123.587 1023.97 124.5 1023.97 126.095V126.106C1023.97 127.76 1023.17 128.663 1021.73 128.663H1020.56ZM1029.61 130.124C1031.34 130.124 1032.1 129.125 1032.29 128.383L1032.3 128.33H1030.84L1030.82 128.362C1030.71 128.587 1030.33 128.953 1029.64 128.953C1028.81 128.953 1028.29 128.389 1028.27 127.417H1032.35V126.928C1032.35 125.139 1031.27 123.958 1029.55 123.958C1027.82 123.958 1026.72 125.166 1026.72 127.046V127.051C1026.72 128.947 1027.81 130.124 1029.61 130.124ZM1029.57 125.134C1030.26 125.134 1030.75 125.574 1030.84 126.434H1028.29C1028.39 125.596 1028.89 125.134 1029.57 125.134ZM1035.98 130.124C1037.5 130.124 1038.58 129.361 1038.58 128.19V128.185C1038.58 127.309 1038.02 126.815 1036.84 126.562L1035.86 126.353C1035.25 126.219 1035.03 126.036 1035.03 125.719V125.714C1035.03 125.316 1035.41 125.064 1035.96 125.064C1036.54 125.064 1036.89 125.359 1036.98 125.676L1036.98 125.703H1038.44V125.682C1038.37 124.731 1037.51 123.958 1035.96 123.958C1034.48 123.958 1033.5 124.699 1033.5 125.811V125.816C1033.5 126.702 1034.05 127.255 1035.18 127.497L1036.17 127.707C1036.77 127.841 1037.01 128.04 1037.01 128.356V128.367C1037.01 128.759 1036.6 129.017 1036 129.017C1035.38 129.017 1035.02 128.754 1034.9 128.389L1034.89 128.367H1033.35L1033.35 128.389C1033.46 129.404 1034.38 130.124 1035.98 130.124ZM1040.66 123.179C1041.14 123.179 1041.54 122.792 1041.54 122.309C1041.54 121.82 1041.14 121.433 1040.66 121.433C1040.18 121.433 1039.77 121.82 1039.77 122.309C1039.77 122.792 1040.18 123.179 1040.66 123.179ZM1039.87 130H1041.44V124.086H1039.87V130ZM1045.63 132.079C1047.42 132.079 1048.55 131.203 1048.55 129.817V124.086H1046.98V125.053H1046.91C1046.59 124.387 1045.96 123.99 1045.15 123.99C1043.63 123.99 1042.71 125.161 1042.71 126.901V126.912C1042.71 128.593 1043.63 129.742 1045.12 129.742C1045.94 129.742 1046.56 129.404 1046.89 128.781H1046.99V129.882C1046.99 130.569 1046.5 130.961 1045.66 130.961C1044.96 130.961 1044.55 130.725 1044.47 130.381L1044.46 130.36H1042.91V130.387C1043.04 131.391 1043.99 132.079 1045.63 132.079ZM1045.65 128.539C1044.8 128.539 1044.32 127.878 1044.32 126.906V126.896C1044.32 125.923 1044.81 125.263 1045.65 125.263C1046.49 125.263 1047 125.923 1047 126.896V126.906C1047 127.878 1046.5 128.539 1045.65 128.539ZM1050.12 130H1051.69V126.579C1051.69 125.778 1052.13 125.257 1052.85 125.257C1053.59 125.257 1053.94 125.698 1053.94 126.53V130H1055.51V126.176C1055.51 124.763 1054.8 123.958 1053.48 123.958C1052.64 123.958 1052.05 124.36 1051.78 125H1051.69V124.086H1050.12V130Z" fill="#333333"/>
<path d="M1018.94 175H1022.42C1024.07 175 1025.1 174.146 1025.1 172.787V172.776C1025.1 171.783 1024.35 171.015 1023.33 170.934V170.837C1024.12 170.719 1024.73 170.005 1024.73 169.188V169.178C1024.73 167.985 1023.83 167.25 1022.33 167.25H1018.94V175ZM1021.92 168.453C1022.69 168.453 1023.13 168.829 1023.13 169.457V169.468C1023.13 170.107 1022.66 170.472 1021.78 170.472H1020.56V168.453H1021.92ZM1021.97 171.541C1022.93 171.541 1023.45 171.928 1023.45 172.647V172.658C1023.45 173.394 1022.94 173.792 1022.01 173.792H1020.56V171.541H1021.97ZM1028.02 175.091C1028.8 175.091 1029.42 174.764 1029.72 174.216H1029.82V175H1031.36V170.961C1031.36 169.699 1030.48 168.958 1028.91 168.958C1027.42 168.958 1026.44 169.645 1026.32 170.682L1026.31 170.73H1027.76L1027.78 170.708C1027.9 170.359 1028.26 170.161 1028.82 170.161C1029.47 170.161 1029.82 170.451 1029.82 170.961V171.45L1028.39 171.536C1026.92 171.622 1026.09 172.245 1026.09 173.308V173.319C1026.09 174.393 1026.89 175.091 1028.02 175.091ZM1027.62 173.222V173.211C1027.62 172.782 1027.95 172.529 1028.62 172.486L1029.82 172.411V172.846C1029.82 173.469 1029.27 173.947 1028.55 173.947C1028.01 173.947 1027.62 173.673 1027.62 173.222ZM1035.5 175.124C1037.05 175.124 1037.97 174.296 1038.13 173.007L1038.14 172.975H1036.69L1036.68 172.997C1036.54 173.587 1036.15 173.894 1035.51 173.894C1034.67 173.894 1034.2 173.233 1034.2 172.035V172.024C1034.2 170.843 1034.67 170.188 1035.51 170.188C1036.18 170.188 1036.57 170.563 1036.68 171.138L1036.68 171.149H1038.14V171.133C1038 169.812 1037.07 168.958 1035.5 168.958C1033.65 168.958 1032.61 170.08 1032.61 172.024V172.035C1032.61 174.001 1033.66 175.124 1035.5 175.124ZM1039.42 175H1040.99V173.018L1041.42 172.562L1043.14 175H1045L1042.57 171.595L1044.84 169.086H1043.06L1041.08 171.423H1040.99V166.825H1039.42V175ZM1048.24 177.079C1050.03 177.079 1051.16 176.203 1051.16 174.817V169.086H1049.59V170.053H1049.52C1049.2 169.387 1048.57 168.99 1047.76 168.99C1046.24 168.99 1045.32 170.161 1045.32 171.901V171.912C1045.32 173.593 1046.24 174.742 1047.73 174.742C1048.55 174.742 1049.17 174.404 1049.5 173.781H1049.6V174.882C1049.6 175.569 1049.11 175.961 1048.27 175.961C1047.57 175.961 1047.17 175.725 1047.08 175.381L1047.07 175.36H1045.52V175.387C1045.65 176.391 1046.6 177.079 1048.24 177.079ZM1048.26 173.539C1047.41 173.539 1046.93 172.878 1046.93 171.906V171.896C1046.93 170.923 1047.42 170.263 1048.26 170.263C1049.1 170.263 1049.61 170.923 1049.61 171.896V171.906C1049.61 172.878 1049.11 173.539 1048.26 173.539ZM1052.73 175H1054.3V171.691C1054.3 170.854 1054.86 170.343 1055.75 170.343C1056 170.343 1056.24 170.381 1056.47 170.435V169.065C1056.32 169.022 1056.1 168.99 1055.89 168.99C1055.12 168.99 1054.58 169.366 1054.39 170.005H1054.3V169.086H1052.73V175ZM1060.01 175.124C1061.83 175.124 1062.92 173.974 1062.92 172.046V172.035C1062.92 170.123 1061.81 168.958 1060.01 168.958C1058.2 168.958 1057.09 170.128 1057.09 172.035V172.046C1057.09 173.969 1058.19 175.124 1060.01 175.124ZM1060.01 173.894C1059.17 173.894 1058.7 173.211 1058.7 172.046V172.035C1058.7 170.88 1059.17 170.188 1060.01 170.188C1060.83 170.188 1061.32 170.88 1061.32 172.035V172.046C1061.32 173.211 1060.84 173.894 1060.01 173.894ZM1066.16 175.124C1067 175.124 1067.6 174.731 1067.87 174.087H1067.97V175H1069.54V169.086H1067.97V172.502C1067.97 173.303 1067.55 173.824 1066.77 173.824C1066.03 173.824 1065.72 173.389 1065.72 172.551V169.086H1064.15V172.911C1064.15 174.318 1064.83 175.124 1066.16 175.124ZM1071.11 175H1072.68V171.579C1072.68 170.778 1073.12 170.257 1073.84 170.257C1074.58 170.257 1074.93 170.698 1074.93 171.53V175H1076.5V171.176C1076.5 169.763 1075.79 168.958 1074.47 168.958C1073.63 168.958 1073.04 169.36 1072.77 170H1072.68V169.086H1071.11V175ZM1080.13 175.091C1080.96 175.091 1081.59 174.721 1081.89 174.082H1081.99V175H1083.56V166.825H1081.99V170.032H1081.89C1081.6 169.387 1080.94 168.99 1080.13 168.99C1078.63 168.99 1077.73 170.134 1077.73 172.035V172.046C1077.73 173.937 1078.65 175.091 1080.13 175.091ZM1080.66 173.792C1079.83 173.792 1079.32 173.136 1079.32 172.046V172.035C1079.32 170.956 1079.83 170.29 1080.66 170.29C1081.49 170.29 1082.01 170.956 1082.01 172.041V172.051C1082.01 173.136 1081.49 173.792 1080.66 173.792Z" fill="#333333"/>
<path d="M1021.71 305.199C1023.65 305.199 1024.84 304.227 1024.84 302.69V302.685C1024.84 301.477 1024.12 300.821 1022.48 300.483L1021.66 300.316C1020.75 300.128 1020.37 299.828 1020.37 299.323V299.317C1020.37 298.737 1020.91 298.372 1021.71 298.367C1022.52 298.367 1023.06 298.753 1023.15 299.307L1023.16 299.371H1024.69L1024.68 299.301C1024.58 298.007 1023.52 297.051 1021.71 297.051C1019.99 297.051 1018.75 298.001 1018.75 299.441V299.446C1018.75 300.623 1019.44 301.375 1021.06 301.702L1021.87 301.869C1022.83 302.067 1023.22 302.352 1023.22 302.862V302.868C1023.22 303.464 1022.62 303.877 1021.75 303.877C1020.85 303.877 1020.22 303.485 1020.16 302.905L1020.15 302.852H1018.59L1018.6 302.938C1018.69 304.312 1019.86 305.199 1021.71 305.199ZM1028.67 305.021C1028.97 305.021 1029.26 304.989 1029.46 304.952V303.786C1029.31 303.802 1029.2 303.813 1028.99 303.813C1028.46 303.813 1028.24 303.577 1028.24 303.045V300.268H1029.46V299.086H1028.24V297.674H1026.65V299.086H1025.74V300.268H1026.65V303.405C1026.65 304.554 1027.23 305.021 1028.67 305.021ZM1033.35 305.124C1035.17 305.124 1036.26 303.974 1036.26 302.046V302.035C1036.26 300.123 1035.15 298.958 1033.35 298.958C1031.54 298.958 1030.43 300.128 1030.43 302.035V302.046C1030.43 303.969 1031.52 305.124 1033.35 305.124ZM1033.35 303.894C1032.51 303.894 1032.03 303.211 1032.03 302.046V302.035C1032.03 300.88 1032.51 300.188 1033.35 300.188C1034.17 300.188 1034.66 300.88 1034.66 302.035V302.046C1034.66 303.211 1034.18 303.894 1033.35 303.894ZM1037.54 305H1039.11V301.691C1039.11 300.854 1039.67 300.343 1040.56 300.343C1040.81 300.343 1041.05 300.381 1041.28 300.435V299.065C1041.13 299.022 1040.91 298.99 1040.7 298.99C1039.93 298.99 1039.39 299.366 1039.21 300.005H1039.11V299.086H1037.54V305ZM1043.12 307.084C1044.58 307.084 1045.36 306.558 1045.89 304.995L1047.9 299.086H1046.25L1045.01 303.566H1044.9L1043.66 299.086H1041.93L1044.01 305L1043.96 305.226C1043.85 305.688 1043.52 305.902 1042.96 305.902C1042.82 305.902 1042.66 305.897 1042.56 305.886V307.068C1042.74 307.079 1042.94 307.084 1043.12 307.084ZM1052.48 305.091C1053.96 305.091 1054.88 303.937 1054.88 302.046V302.035C1054.88 300.134 1053.98 298.99 1052.48 298.99C1051.67 298.99 1051.01 299.387 1050.71 300.032H1050.61V296.825H1049.04V305H1050.61V304.082H1050.71C1051.02 304.721 1051.64 305.091 1052.48 305.091ZM1051.95 303.792C1051.12 303.792 1050.6 303.136 1050.6 302.051V302.041C1050.6 300.956 1051.12 300.29 1051.95 300.29C1052.77 300.29 1053.29 300.956 1053.29 302.035V302.046C1053.29 303.136 1052.78 303.792 1051.95 303.792ZM1058.78 305.124C1060.6 305.124 1061.7 303.974 1061.7 302.046V302.035C1061.7 300.123 1060.59 298.958 1058.78 298.958C1056.98 298.958 1055.87 300.128 1055.87 302.035V302.046C1055.87 303.969 1056.96 305.124 1058.78 305.124ZM1058.78 303.894C1057.94 303.894 1057.47 303.211 1057.47 302.046V302.035C1057.47 300.88 1057.95 300.188 1058.78 300.188C1059.61 300.188 1060.09 300.88 1060.09 302.035V302.046C1060.09 303.211 1059.62 303.894 1058.78 303.894ZM1065.6 305.124C1067.42 305.124 1068.52 303.974 1068.52 302.046V302.035C1068.52 300.123 1067.41 298.958 1065.6 298.958C1063.8 298.958 1062.69 300.128 1062.69 302.035V302.046C1062.69 303.969 1063.78 305.124 1065.6 305.124ZM1065.6 303.894C1064.77 303.894 1064.29 303.211 1064.29 302.046V302.035C1064.29 300.88 1064.77 300.188 1065.6 300.188C1066.43 300.188 1066.91 300.88 1066.91 302.035V302.046C1066.91 303.211 1066.44 303.894 1065.6 303.894ZM1069.85 305H1071.42V303.018L1071.85 302.562L1073.57 305H1075.43L1073 301.595L1075.27 299.086H1073.49L1071.52 301.423H1071.42V296.825H1069.85V305ZM1082.7 305.199C1084.57 305.199 1085.9 304.092 1086.06 302.47L1086.07 302.411H1084.49L1084.48 302.454C1084.31 303.281 1083.63 303.824 1082.71 303.824C1081.48 303.824 1080.72 302.792 1080.72 301.127V301.117C1080.72 299.452 1081.48 298.426 1082.7 298.426C1083.62 298.426 1084.32 299.017 1084.48 299.887V299.924H1086.06V299.86C1085.91 298.222 1084.54 297.051 1082.7 297.051C1080.45 297.051 1079.06 298.603 1079.06 301.117V301.127C1079.06 303.641 1080.46 305.199 1082.7 305.199ZM1090.03 305.124C1091.85 305.124 1092.95 303.974 1092.95 302.046V302.035C1092.95 300.123 1091.84 298.958 1090.03 298.958C1088.23 298.958 1087.12 300.128 1087.12 302.035V302.046C1087.12 303.969 1088.21 305.124 1090.03 305.124ZM1090.03 303.894C1089.19 303.894 1088.72 303.211 1088.72 302.046V302.035C1088.72 300.88 1089.2 300.188 1090.03 300.188C1090.86 300.188 1091.34 300.88 1091.34 302.035V302.046C1091.34 303.211 1090.86 303.894 1090.03 303.894ZM1094.23 305H1095.79V301.579C1095.79 300.778 1096.24 300.257 1096.96 300.257C1097.7 300.257 1098.05 300.698 1098.05 301.53V305H1099.61V301.176C1099.61 299.763 1098.9 298.958 1097.59 298.958C1096.75 298.958 1096.16 299.36 1095.89 300H1095.79V299.086H1094.23V305ZM1101.13 305H1102.7V301.579C1102.7 300.778 1103.14 300.257 1103.87 300.257C1104.61 300.257 1104.95 300.698 1104.95 301.53V305H1106.52V301.176C1106.52 299.763 1105.81 298.958 1104.5 298.958C1103.65 298.958 1103.07 299.36 1102.8 300H1102.7V299.086H1101.13V305ZM1110.64 305.124C1112.37 305.124 1113.13 304.125 1113.32 303.383L1113.33 303.33H1111.87L1111.85 303.362C1111.74 303.587 1111.36 303.953 1110.67 303.953C1109.84 303.953 1109.32 303.389 1109.3 302.417H1113.37V301.928C1113.37 300.139 1112.3 298.958 1110.58 298.958C1108.85 298.958 1107.75 300.166 1107.75 302.046V302.051C1107.75 303.947 1108.84 305.124 1110.64 305.124ZM1110.6 300.134C1111.29 300.134 1111.77 300.574 1111.87 301.434H1109.32C1109.42 300.596 1109.92 300.134 1110.6 300.134ZM1117.26 305.124C1118.8 305.124 1119.73 304.296 1119.89 303.007L1119.9 302.975H1118.44L1118.43 302.997C1118.29 303.587 1117.91 303.894 1117.27 303.894C1116.43 303.894 1115.96 303.233 1115.96 302.035V302.024C1115.96 300.843 1116.43 300.188 1117.27 300.188C1117.94 300.188 1118.33 300.563 1118.43 301.138L1118.44 301.149H1119.9V301.133C1119.76 299.812 1118.83 298.958 1117.26 298.958C1115.41 298.958 1114.37 300.08 1114.37 302.024V302.035C1114.37 304.001 1115.42 305.124 1117.26 305.124ZM1123.63 305.021C1123.93 305.021 1124.22 304.989 1124.42 304.952V303.786C1124.27 303.802 1124.16 303.813 1123.96 303.813C1123.42 303.813 1123.2 303.577 1123.2 303.045V300.268H1124.42V299.086H1123.2V297.674H1121.61V299.086H1120.7V300.268H1121.61V303.405C1121.61 304.554 1122.19 305.021 1123.63 305.021Z" fill="#333333"/>
<path d="M1042.99 207H1047.79V206.13H1043.96V203.466H1047.59V202.606H1043.96V200.12H1047.79V199.25H1042.99V207ZM1051.96 207.183C1053.54 207.183 1054.66 206.092 1054.66 204.529V204.519C1054.66 203.02 1053.61 201.93 1052.16 201.93C1051.45 201.93 1050.85 202.214 1050.5 202.735H1050.42L1050.68 200.114H1054.23V199.25H1049.92L1049.51 203.702H1050.35C1050.44 203.52 1050.57 203.369 1050.7 203.24C1051.03 202.923 1051.47 202.768 1051.99 202.768C1052.99 202.768 1053.71 203.503 1053.71 204.535V204.545C1053.71 205.593 1053.01 206.329 1051.97 206.329C1051.07 206.329 1050.4 205.738 1050.3 204.997L1050.3 204.954H1049.37L1049.37 205.013C1049.49 206.253 1050.52 207.183 1051.96 207.183ZM1056.34 207H1061.14V206.13H1057.31V203.466H1060.94V202.606H1057.31V200.12H1061.14V199.25H1056.34V207ZM1065.32 207.183C1066.89 207.183 1068.01 206.092 1068.01 204.529V204.519C1068.01 203.02 1066.96 201.93 1065.51 201.93C1064.81 201.93 1064.2 202.214 1063.85 202.735H1063.77L1064.03 200.114H1067.58V199.25H1063.27L1062.86 203.702H1063.7C1063.8 203.52 1063.92 203.369 1064.05 203.24C1064.39 202.923 1064.83 202.768 1065.34 202.768C1066.35 202.768 1067.07 203.503 1067.07 204.535V204.545C1067.07 205.593 1066.36 206.329 1065.33 206.329C1064.42 206.329 1063.75 205.738 1063.66 204.997L1063.65 204.954H1062.72L1062.73 205.013C1062.84 206.253 1063.87 207.183 1065.32 207.183ZM1069.69 207H1074.5V206.13H1070.66V203.466H1074.3V202.606H1070.66V200.12H1074.5V199.25H1069.69V207ZM1078.67 207.183C1080.24 207.183 1081.36 206.092 1081.36 204.529V204.519C1081.36 203.02 1080.32 201.93 1078.86 201.93C1078.16 201.93 1077.55 202.214 1077.21 202.735H1077.12L1077.38 200.114H1080.94V199.25H1076.62L1076.21 203.702H1077.05C1077.15 203.52 1077.27 203.369 1077.41 203.24C1077.74 202.923 1078.18 202.768 1078.7 202.768C1079.7 202.768 1080.42 203.503 1080.42 204.535V204.545C1080.42 205.593 1079.71 206.329 1078.68 206.329C1077.77 206.329 1077.1 205.738 1077.01 204.997L1077 204.954H1076.07L1076.08 205.013C1076.19 206.253 1077.22 207.183 1078.67 207.183Z" fill="#333333"/>
<path d="M1018.94 256H1024.07V254.663H1020.56V252.702H1023.88V251.456H1020.56V249.587H1024.07V248.25H1018.94V256ZM1025.2 256H1026.85L1027.95 254.045H1028.05L1029.16 256H1030.89L1029.02 253.008L1030.88 250.086H1029.17L1028.12 252.047H1028.03L1026.98 250.086H1025.18L1027.05 253.073L1025.2 256ZM1032.02 257.96H1033.59V255.055H1033.68C1033.98 255.699 1034.65 256.091 1035.46 256.091C1036.95 256.091 1037.86 254.947 1037.86 253.046V253.035C1037.86 251.15 1036.93 249.99 1035.46 249.99C1034.62 249.99 1033.99 250.366 1033.68 251H1033.59V250.086H1032.02V257.96ZM1034.92 254.792C1034.1 254.792 1033.57 254.131 1033.57 253.046V253.035C1033.57 251.95 1034.09 251.29 1034.92 251.29C1035.75 251.29 1036.26 251.95 1036.26 253.035V253.046C1036.26 254.131 1035.75 254.792 1034.92 254.792ZM1041.77 256.124C1043.59 256.124 1044.68 254.974 1044.68 253.046V253.035C1044.68 251.123 1043.57 249.958 1041.77 249.958C1039.96 249.958 1038.85 251.128 1038.85 253.035V253.046C1038.85 254.969 1039.95 256.124 1041.77 256.124ZM1041.77 254.894C1040.93 254.894 1040.46 254.211 1040.46 253.046V253.035C1040.46 251.88 1040.93 251.188 1041.77 251.188C1042.59 251.188 1043.08 251.88 1043.08 253.035V253.046C1043.08 254.211 1042.6 254.894 1041.77 254.894ZM1045.96 256H1047.53V252.691C1047.53 251.854 1048.09 251.343 1048.99 251.343C1049.23 251.343 1049.47 251.381 1049.71 251.435V250.065C1049.55 250.022 1049.33 249.99 1049.12 249.99C1048.35 249.99 1047.81 250.366 1047.63 251.005H1047.53V250.086H1045.96V256ZM1053.45 256.021C1053.76 256.021 1054.05 255.989 1054.24 255.952V254.786C1054.09 254.802 1053.98 254.813 1053.78 254.813C1053.25 254.813 1053.02 254.577 1053.02 254.045V251.268H1054.24V250.086H1053.02V248.674H1051.44V250.086H1050.52V251.268H1051.44V254.405C1051.44 255.554 1052.02 256.021 1053.45 256.021Z" fill="#B3B3B2"/>
<path d="M1045.23 337H1046.18L1049.04 329.25H1048.03L1045.75 335.749H1045.66L1043.39 329.25H1042.37L1045.23 337ZM1050.78 330.093C1051.13 330.093 1051.42 329.803 1051.42 329.448C1051.42 329.094 1051.13 328.804 1050.78 328.804C1050.42 328.804 1050.13 329.094 1050.13 329.448C1050.13 329.803 1050.42 330.093 1050.78 330.093ZM1050.3 337H1051.24V331.21H1050.3V337ZM1055.36 337.102C1056.73 337.102 1057.55 336.329 1057.75 335.544L1057.76 335.501H1056.83L1056.81 335.55C1056.65 335.899 1056.17 336.27 1055.38 336.27C1054.35 336.27 1053.69 335.571 1053.67 334.374H1057.83V334.008C1057.83 332.279 1056.88 331.108 1055.3 331.108C1053.73 331.108 1052.71 332.333 1052.71 334.121V334.126C1052.71 335.942 1053.71 337.102 1055.36 337.102ZM1055.3 331.94C1056.15 331.94 1056.79 332.483 1056.88 333.627H1053.68C1053.78 332.526 1054.44 331.94 1055.3 331.94ZM1060.4 337H1061.34L1062.62 332.521H1062.71L1064.01 337H1064.95L1066.57 331.21H1065.64L1064.5 335.84H1064.41L1063.12 331.21H1062.23L1060.94 335.84H1060.85L1059.71 331.21H1058.78L1060.4 337ZM1072.88 337.102C1074.2 337.102 1075.2 336.388 1075.2 335.356V335.346C1075.2 334.519 1074.68 334.046 1073.59 333.783L1072.7 333.568C1072.01 333.401 1071.72 333.154 1071.72 332.762V332.751C1071.72 332.241 1072.23 331.887 1072.92 331.887C1073.61 331.887 1074.07 332.204 1074.19 332.66H1075.11C1074.98 331.715 1074.14 331.108 1072.92 331.108C1071.69 331.108 1070.77 331.833 1070.77 332.794V332.8C1070.77 333.632 1071.26 334.105 1072.34 334.363L1073.24 334.578C1073.95 334.75 1074.25 335.023 1074.25 335.416V335.426C1074.25 335.953 1073.69 336.323 1072.92 336.323C1072.17 336.323 1071.71 336.006 1071.56 335.523H1070.6C1070.71 336.479 1071.59 337.102 1072.88 337.102ZM1078.66 337.043C1078.84 337.043 1079.02 337.021 1079.2 336.989V336.194C1079.03 336.21 1078.94 336.216 1078.77 336.216C1078.17 336.216 1077.93 335.942 1077.93 335.26V331.983H1079.2V331.21H1077.93V329.711H1076.97V331.21H1076.05V331.983H1076.97V335.496C1076.97 336.603 1077.47 337.043 1078.66 337.043ZM1082.89 337.102C1084.54 337.102 1085.56 335.963 1085.56 334.11V334.1C1085.56 332.241 1084.54 331.108 1082.89 331.108C1081.24 331.108 1080.22 332.241 1080.22 334.1V334.11C1080.22 335.963 1081.24 337.102 1082.89 337.102ZM1082.89 336.275C1081.79 336.275 1081.18 335.475 1081.18 334.11V334.1C1081.18 332.73 1081.79 331.935 1082.89 331.935C1083.99 331.935 1084.6 332.73 1084.6 334.1V334.11C1084.6 335.475 1083.99 336.275 1082.89 336.275ZM1087.01 337H1087.94V333.412C1087.94 332.563 1088.58 332 1089.47 332C1089.67 332 1089.85 332.021 1090.04 332.053V331.146C1089.95 331.129 1089.75 331.108 1089.58 331.108C1088.79 331.108 1088.25 331.462 1088.03 332.069H1087.94V331.21H1087.01V337ZM1091.69 339.03C1092.72 339.03 1093.2 338.654 1093.68 337.354L1095.94 331.21H1094.95L1093.37 335.974H1093.28L1091.69 331.21H1090.69L1092.84 337.005L1092.73 337.349C1092.52 338.015 1092.2 338.257 1091.67 338.257C1091.54 338.257 1091.39 338.251 1091.28 338.23V338.998C1091.41 339.02 1091.57 339.03 1091.69 339.03Z" fill="#333333"/>
<path d="M1020.19 371.416L1019.71 358.503C1019.69 358.076 1020.02 357.715 1020.44 357.688L1031.43 357.002C1031.86 356.974 1032.24 357.304 1032.26 357.738C1032.26 357.754 1032.26 357.77 1032.26 357.787V371.858C1032.26 372.292 1031.91 372.644 1031.48 372.644C1031.47 372.644 1031.45 372.644 1031.44 372.644L1020.94 372.172C1020.53 372.154 1020.21 371.825 1020.19 371.416Z" fill="#FF4785"/>
<path fill-rule="evenodd" clip-rule="evenodd" d="M1030.57 357.056L1029.05 357.15L1028.98 358.923C1028.98 358.95 1028.99 358.977 1029 358.999C1029.04 359.05 1029.12 359.061 1029.17 359.021L1029.86 358.499L1030.44 358.957C1030.46 358.974 1030.49 358.983 1030.52 358.982C1030.58 358.98 1030.63 358.926 1030.63 358.861L1030.57 357.056ZM1029.39 362.993C1029.11 363.208 1027.05 363.355 1027.05 363.049C1027.09 361.881 1026.57 361.83 1026.28 361.83C1026.01 361.83 1025.54 361.913 1025.54 362.539C1025.54 363.176 1026.22 363.536 1027.02 363.958C1028.15 364.558 1029.52 365.285 1029.52 367.112C1029.52 368.864 1028.1 369.831 1026.28 369.831C1024.41 369.831 1022.77 369.073 1022.96 366.446C1023.03 366.137 1025.41 366.21 1025.41 366.446C1025.38 367.53 1025.63 367.849 1026.25 367.849C1026.73 367.849 1026.95 367.585 1026.95 367.14C1026.95 366.467 1026.24 366.069 1025.43 365.612C1024.33 364.994 1023.03 364.265 1023.03 362.594C1023.03 360.926 1024.18 359.814 1026.22 359.814C1028.27 359.814 1029.39 360.909 1029.39 362.993Z" fill="white"/>
<path d="M1046.24 369.183C1048.46 369.183 1049.8 367.598 1049.8 365.127V365.117C1049.8 362.635 1048.45 361.067 1046.24 361.067C1044.05 361.067 1042.69 362.63 1042.69 365.117V365.127C1042.69 367.604 1044.02 369.183 1046.24 369.183ZM1046.24 368.291C1044.63 368.291 1043.68 367.045 1043.68 365.127V365.117C1043.68 363.183 1044.66 361.958 1046.24 361.958C1047.83 361.958 1048.81 363.183 1048.81 365.117V365.127C1048.81 367.045 1047.83 368.291 1046.24 368.291ZM1051.36 370.934H1052.29V368.087H1052.38C1052.69 368.705 1053.39 369.102 1054.18 369.102C1055.65 369.102 1056.61 367.926 1056.61 366.11V366.1C1056.61 364.295 1055.65 363.108 1054.18 363.108C1053.38 363.108 1052.73 363.489 1052.38 364.134H1052.29V363.21H1051.36V370.934ZM1053.97 368.275C1052.91 368.275 1052.27 367.448 1052.27 366.11V366.1C1052.27 364.762 1052.91 363.935 1053.97 363.935C1055.02 363.935 1055.65 364.751 1055.65 366.1V366.11C1055.65 367.458 1055.02 368.275 1053.97 368.275ZM1060.43 369.102C1061.8 369.102 1062.62 368.329 1062.82 367.544L1062.83 367.501H1061.9L1061.88 367.55C1061.72 367.899 1061.24 368.27 1060.46 368.27C1059.42 368.27 1058.76 367.571 1058.74 366.374H1062.9V366.008C1062.9 364.279 1061.95 363.108 1060.37 363.108C1058.8 363.108 1057.78 364.333 1057.78 366.121V366.126C1057.78 367.942 1058.78 369.102 1060.43 369.102ZM1060.37 363.94C1061.22 363.94 1061.86 364.483 1061.95 365.627H1058.75C1058.85 364.526 1059.51 363.94 1060.37 363.94ZM1064.35 369H1065.29V365.573C1065.29 364.558 1065.87 363.935 1066.8 363.935C1067.72 363.935 1068.15 364.435 1068.15 365.477V369H1069.09V365.251C1069.09 363.876 1068.36 363.108 1067.06 363.108C1066.21 363.108 1065.67 363.468 1065.38 364.08H1065.29V363.21H1064.35V369ZM1075.86 369.102C1077.18 369.102 1078.18 368.388 1078.18 367.356V367.346C1078.18 366.519 1077.65 366.046 1076.56 365.783L1075.67 365.568C1074.99 365.401 1074.7 365.154 1074.7 364.762V364.751C1074.7 364.241 1075.2 363.887 1075.89 363.887C1076.59 363.887 1077.04 364.204 1077.16 364.66H1078.08C1077.95 363.715 1077.11 363.108 1075.9 363.108C1074.67 363.108 1073.74 363.833 1073.74 364.794V364.8C1073.74 365.632 1074.23 366.105 1075.32 366.363L1076.21 366.578C1076.93 366.75 1077.22 367.023 1077.22 367.416V367.426C1077.22 367.953 1076.67 368.323 1075.89 368.323C1075.15 368.323 1074.69 368.006 1074.53 367.523H1073.58C1073.68 368.479 1074.57 369.102 1075.86 369.102ZM1081.63 369.043C1081.82 369.043 1081.99 369.021 1082.18 368.989V368.194C1082 368.21 1081.91 368.216 1081.75 368.216C1081.14 368.216 1080.91 367.942 1080.91 367.26V363.983H1082.18V363.21H1080.91V361.711H1079.94V363.21H1079.03V363.983H1079.94V367.496C1079.94 368.603 1080.44 369.043 1081.63 369.043ZM1085.87 369.102C1087.51 369.102 1088.54 367.963 1088.54 366.11V366.1C1088.54 364.241 1087.51 363.108 1085.87 363.108C1084.22 363.108 1083.2 364.241 1083.2 366.1V366.11C1083.2 367.963 1084.22 369.102 1085.87 369.102ZM1085.87 368.275C1084.77 368.275 1084.15 367.475 1084.15 366.11V366.1C1084.15 364.73 1084.77 363.935 1085.87 363.935C1086.96 363.935 1087.58 364.73 1087.58 366.1V366.11C1087.58 367.475 1086.96 368.275 1085.87 368.275ZM1089.99 369H1090.92V365.412C1090.92 364.563 1091.55 364 1092.45 364C1092.65 364 1092.83 364.021 1093.02 364.053V363.146C1092.93 363.129 1092.73 363.108 1092.55 363.108C1091.77 363.108 1091.23 363.462 1091.01 364.069H1090.92V363.21H1089.99V369ZM1094.67 371.03C1095.69 371.03 1096.17 370.654 1096.65 369.354L1098.91 363.21H1097.93L1096.34 367.974H1096.26L1094.67 363.21H1093.67L1095.81 369.005L1095.71 369.349C1095.5 370.015 1095.17 370.257 1094.64 370.257C1094.51 370.257 1094.37 370.251 1094.26 370.23V370.998C1094.38 371.02 1094.55 371.03 1094.67 371.03ZM1103.74 362.093C1104.09 362.093 1104.38 361.803 1104.38 361.448C1104.38 361.094 1104.09 360.804 1103.74 360.804C1103.38 360.804 1103.09 361.094 1103.09 361.448C1103.09 361.803 1103.38 362.093 1103.74 362.093ZM1103.26 369H1104.2V363.21H1103.26V369ZM1105.96 369H1106.89V365.573C1106.89 364.558 1107.48 363.935 1108.4 363.935C1109.33 363.935 1109.76 364.435 1109.76 365.477V369H1110.69V365.251C1110.69 363.876 1109.97 363.108 1108.67 363.108C1107.81 363.108 1107.27 363.468 1106.98 364.08H1106.89V363.21H1105.96V369ZM1118.36 369.102C1119.82 369.102 1120.78 367.915 1120.78 366.11V366.1C1120.78 364.284 1119.83 363.108 1118.36 363.108C1117.56 363.108 1116.87 363.505 1116.55 364.123H1116.46V360.911H1115.53V369H1116.46V368.076H1116.55C1116.91 368.721 1117.55 369.102 1118.36 369.102ZM1118.14 368.275C1117.09 368.275 1116.44 367.448 1116.44 366.11V366.1C1116.44 364.762 1117.09 363.935 1118.14 363.935C1119.2 363.935 1119.83 364.751 1119.83 366.1V366.11C1119.83 367.458 1119.2 368.275 1118.14 368.275ZM1122.23 369H1123.17V365.412C1123.17 364.563 1123.8 364 1124.69 364C1124.9 364 1125.07 364.021 1125.27 364.053V363.146C1125.18 363.129 1124.98 363.108 1124.8 363.108C1124.02 363.108 1123.47 363.462 1123.25 364.069H1123.17V363.21H1122.23V369ZM1128.64 369.102C1130.29 369.102 1131.31 367.963 1131.31 366.11V366.1C1131.31 364.241 1130.29 363.108 1128.64 363.108C1126.99 363.108 1125.97 364.241 1125.97 366.1V366.11C1125.97 367.963 1126.99 369.102 1128.64 369.102ZM1128.64 368.275C1127.55 368.275 1126.93 367.475 1126.93 366.11V366.1C1126.93 364.73 1127.55 363.935 1128.64 363.935C1129.74 363.935 1130.35 364.73 1130.35 366.1V366.11C1130.35 367.475 1129.74 368.275 1128.64 368.275ZM1133.66 369H1134.6L1135.89 364.521H1135.97L1137.27 369H1138.21L1139.83 363.21H1138.9L1137.76 367.84H1137.68L1136.38 363.21H1135.49L1134.2 367.84H1134.11L1132.98 363.21H1132.04L1133.66 369ZM1142.89 369.102C1144.21 369.102 1145.21 368.388 1145.21 367.356V367.346C1145.21 366.519 1144.68 366.046 1143.59 365.783L1142.7 365.568C1142.02 365.401 1141.73 365.154 1141.73 364.762V364.751C1141.73 364.241 1142.24 363.887 1142.92 363.887C1143.62 363.887 1144.07 364.204 1144.2 364.66H1145.11C1144.99 363.715 1144.14 363.108 1142.93 363.108C1141.7 363.108 1140.77 363.833 1140.77 364.794V364.8C1140.77 365.632 1141.26 366.105 1142.35 366.363L1143.25 366.578C1143.96 366.75 1144.25 367.023 1144.25 367.416V367.426C1144.25 367.953 1143.7 368.323 1142.92 368.323C1142.18 368.323 1141.72 368.006 1141.56 367.523H1140.61C1140.72 368.479 1141.6 369.102 1142.89 369.102ZM1149.02 369.102C1150.39 369.102 1151.22 368.329 1151.41 367.544L1151.43 367.501H1150.49L1150.47 367.55C1150.31 367.899 1149.83 368.27 1149.05 368.27C1148.01 368.27 1147.35 367.571 1147.33 366.374H1151.5V366.008C1151.5 364.279 1150.54 363.108 1148.97 363.108C1147.39 363.108 1146.37 364.333 1146.37 366.121V366.126C1146.37 367.942 1147.37 369.102 1149.02 369.102ZM1148.96 363.94C1149.81 363.94 1150.45 364.483 1150.54 365.627H1147.34C1147.45 364.526 1148.1 363.94 1148.96 363.94ZM1152.95 369H1153.88V365.412C1153.88 364.563 1154.51 364 1155.41 364C1155.61 364 1155.79 364.021 1155.98 364.053V363.146C1155.89 363.129 1155.69 363.108 1155.51 363.108C1154.73 363.108 1154.19 363.462 1153.97 364.069H1153.88V363.21H1152.95V369Z" fill="#333333"/>
<path d="M1117.76 207H1118.73V199.25H1117.77L1115.7 200.732V201.752L1117.67 200.324H1117.76V207ZM1123.56 207.183C1125.27 207.183 1126.31 205.62 1126.31 203.127V203.117C1126.31 200.625 1125.27 199.067 1123.56 199.067C1121.85 199.067 1120.83 200.625 1120.83 203.117V203.127C1120.83 205.62 1121.85 207.183 1123.56 207.183ZM1123.56 206.339C1122.45 206.339 1121.8 205.104 1121.8 203.127V203.117C1121.8 201.14 1122.45 199.916 1123.56 199.916C1124.67 199.916 1125.33 201.14 1125.33 203.117V203.127C1125.33 205.104 1124.67 206.339 1123.56 206.339ZM1130.49 207.183C1132.2 207.183 1133.23 205.62 1133.23 203.127V203.117C1133.23 200.625 1132.2 199.067 1130.49 199.067C1128.78 199.067 1127.76 200.625 1127.76 203.117V203.127C1127.76 205.62 1128.78 207.183 1130.49 207.183ZM1130.49 206.339C1129.38 206.339 1128.73 205.104 1128.73 203.127V203.117C1128.73 201.14 1129.38 199.916 1130.49 199.916C1131.6 199.916 1132.26 201.14 1132.26 203.117V203.127C1132.26 205.104 1131.6 206.339 1130.49 206.339ZM1136.27 203.326C1137.26 203.326 1137.86 202.521 1137.86 201.237V201.231C1137.86 199.948 1137.26 199.147 1136.27 199.147C1135.28 199.147 1134.69 199.948 1134.69 201.231V201.237C1134.69 202.521 1135.28 203.326 1136.27 203.326ZM1136.85 207L1142.12 199.25H1141.25L1135.98 207H1136.85ZM1136.27 202.687C1135.74 202.687 1135.43 202.145 1135.43 201.237V201.231C1135.43 200.324 1135.74 199.787 1136.27 199.787C1136.8 199.787 1137.11 200.324 1137.11 201.231V201.237C1137.11 202.145 1136.8 202.687 1136.27 202.687ZM1141.82 207.102C1142.81 207.102 1143.41 206.296 1143.41 205.013V205.007C1143.41 203.724 1142.81 202.923 1141.82 202.923C1140.83 202.923 1140.24 203.724 1140.24 205.007V205.013C1140.24 206.296 1140.83 207.102 1141.82 207.102ZM1141.82 206.463C1141.29 206.463 1140.99 205.92 1140.99 205.013V205.007C1140.99 204.1 1141.29 203.562 1141.82 203.562C1142.35 203.562 1142.67 204.1 1142.67 205.007V205.013C1142.67 205.92 1142.35 206.463 1141.82 206.463Z" fill="#333333"/>
<path d="M1070.94 130H1072.56V127.556H1074.14C1075.77 127.556 1076.86 126.503 1076.86 124.908V124.897C1076.86 123.302 1075.77 122.25 1074.14 122.25H1070.94V130ZM1073.74 123.533C1074.67 123.533 1075.22 124.022 1075.22 124.903V124.914C1075.22 125.794 1074.67 126.289 1073.74 126.289H1072.56V123.533H1073.74ZM1078.2 130H1079.76V126.691C1079.76 125.854 1080.33 125.343 1081.22 125.343C1081.46 125.343 1081.7 125.381 1081.94 125.435V124.065C1081.78 124.022 1081.56 123.99 1081.35 123.99C1080.59 123.99 1080.05 124.366 1079.86 125.005H1079.76V124.086H1078.2V130ZM1085.47 130.124C1087.29 130.124 1088.39 128.974 1088.39 127.046V127.035C1088.39 125.123 1087.28 123.958 1085.47 123.958C1083.67 123.958 1082.56 125.128 1082.56 127.035V127.046C1082.56 128.969 1083.65 130.124 1085.47 130.124ZM1085.47 128.894C1084.64 128.894 1084.16 128.211 1084.16 127.046V127.035C1084.16 125.88 1084.64 125.188 1085.47 125.188C1086.3 125.188 1086.78 125.88 1086.78 127.035V127.046C1086.78 128.211 1086.31 128.894 1085.47 128.894ZM1092.12 130.021C1092.42 130.021 1092.71 129.989 1092.91 129.952V128.786C1092.76 128.802 1092.65 128.813 1092.45 128.813C1091.91 128.813 1091.69 128.577 1091.69 128.045V125.268H1092.91V124.086H1091.69V122.674H1090.1V124.086H1089.19V125.268H1090.1V128.405C1090.1 129.554 1090.68 130.021 1092.12 130.021ZM1096.8 130.124C1098.62 130.124 1099.71 128.974 1099.71 127.046V127.035C1099.71 125.123 1098.6 123.958 1096.8 123.958C1094.99 123.958 1093.88 125.128 1093.88 127.035V127.046C1093.88 128.969 1094.98 130.124 1096.8 130.124ZM1096.8 128.894C1095.96 128.894 1095.49 128.211 1095.49 127.046V127.035C1095.49 125.88 1095.96 125.188 1096.8 125.188C1097.62 125.188 1098.11 125.88 1098.11 127.035V127.046C1098.11 128.211 1097.63 128.894 1096.8 128.894ZM1103.45 130.021C1103.75 130.021 1104.04 129.989 1104.23 129.952V128.786C1104.08 128.802 1103.97 128.813 1103.77 128.813C1103.24 128.813 1103.01 128.577 1103.01 128.045V125.268H1104.23V124.086H1103.01V122.674H1101.43V124.086H1100.51V125.268H1101.43V128.405C1101.43 129.554 1102.01 130.021 1103.45 130.021ZM1106.24 132.084C1107.7 132.084 1108.48 131.558 1109 129.995L1111.02 124.086H1109.36L1108.12 128.566H1108.02L1106.78 124.086H1105.05L1107.13 130L1107.08 130.226C1106.96 130.688 1106.64 130.902 1106.08 130.902C1105.94 130.902 1105.78 130.897 1105.67 130.886V132.068C1105.86 132.079 1106.06 132.084 1106.24 132.084ZM1112.11 131.96H1113.68V129.055H1113.77C1114.08 129.699 1114.74 130.091 1115.55 130.091C1117.05 130.091 1117.95 128.947 1117.95 127.046V127.035C1117.95 125.15 1117.02 123.99 1115.55 123.99C1114.71 123.99 1114.08 124.366 1113.77 125H1113.68V124.086H1112.11V131.96ZM1115.01 128.792C1114.19 128.792 1113.66 128.131 1113.66 127.046V127.035C1113.66 125.95 1114.18 125.29 1115.01 125.29C1115.84 125.29 1116.35 125.95 1116.35 127.035V127.046C1116.35 128.131 1115.84 128.792 1115.01 128.792ZM1121.83 130.124C1123.56 130.124 1124.32 129.125 1124.51 128.383L1124.52 128.33H1123.06L1123.04 128.362C1122.93 128.587 1122.55 128.953 1121.86 128.953C1121.03 128.953 1120.51 128.389 1120.49 127.417H1124.56V126.928C1124.56 125.139 1123.49 123.958 1121.77 123.958C1120.04 123.958 1118.94 125.166 1118.94 127.046V127.051C1118.94 128.947 1120.03 130.124 1121.83 130.124ZM1121.79 125.134C1122.48 125.134 1122.96 125.574 1123.06 126.434H1120.51C1120.61 125.596 1121.11 125.134 1121.79 125.134Z" fill="#B2B3B3"/>
<path d="M1138.94 130H1140.56V122.25H1138.94V130ZM1142.29 130H1143.85V126.579C1143.85 125.778 1144.29 125.257 1145.02 125.257C1145.76 125.257 1146.1 125.698 1146.1 126.53V130H1147.67V126.176C1147.67 124.763 1146.96 123.958 1145.65 123.958C1144.81 123.958 1144.22 124.36 1143.95 125H1143.85V124.086H1142.29V130ZM1151.55 130.124C1153.06 130.124 1154.14 129.361 1154.14 128.19V128.185C1154.14 127.309 1153.59 126.815 1152.41 126.562L1151.42 126.353C1150.81 126.219 1150.59 126.036 1150.59 125.719V125.714C1150.59 125.316 1150.98 125.064 1151.52 125.064C1152.1 125.064 1152.45 125.359 1152.54 125.676L1152.54 125.703H1154V125.682C1153.94 124.731 1153.08 123.958 1151.52 123.958C1150.05 123.958 1149.06 124.699 1149.06 125.811V125.816C1149.06 126.702 1149.62 127.255 1150.75 127.497L1151.73 127.707C1152.34 127.841 1152.57 128.04 1152.57 128.356V128.367C1152.57 128.759 1152.16 129.017 1151.56 129.017C1150.94 129.017 1150.58 128.754 1150.46 128.389L1150.45 128.367H1148.91L1148.91 128.389C1149.03 129.404 1149.94 130.124 1151.55 130.124ZM1155.42 131.96H1156.99V129.055H1157.09C1157.39 129.699 1158.05 130.091 1158.86 130.091C1160.36 130.091 1161.26 128.947 1161.26 127.046V127.035C1161.26 125.15 1160.34 123.99 1158.86 123.99C1158.02 123.99 1157.4 124.366 1157.09 125H1156.99V124.086H1155.42V131.96ZM1158.32 128.792C1157.5 128.792 1156.98 128.131 1156.98 127.046V127.035C1156.98 125.95 1157.5 125.29 1158.32 125.29C1159.16 125.29 1159.67 125.95 1159.67 127.035V127.046C1159.67 128.131 1159.15 128.792 1158.32 128.792ZM1165.15 130.124C1166.88 130.124 1167.64 129.125 1167.82 128.383L1167.83 128.33H1166.37L1166.35 128.362C1166.25 128.587 1165.87 128.953 1165.18 128.953C1164.35 128.953 1163.82 128.389 1163.81 127.417H1167.88V126.928C1167.88 125.139 1166.81 123.958 1165.08 123.958C1163.36 123.958 1162.26 125.166 1162.26 127.046V127.051C1162.26 128.947 1163.35 130.124 1165.15 130.124ZM1165.11 125.134C1165.79 125.134 1166.28 125.574 1166.38 126.434H1163.82C1163.92 125.596 1164.43 125.134 1165.11 125.134ZM1171.77 130.124C1173.31 130.124 1174.23 129.296 1174.39 128.007L1174.4 127.975H1172.95L1172.94 127.997C1172.8 128.587 1172.42 128.894 1171.77 128.894C1170.94 128.894 1170.47 128.233 1170.47 127.035V127.024C1170.47 125.843 1170.93 125.188 1171.77 125.188C1172.44 125.188 1172.84 125.563 1172.94 126.138L1172.94 126.149H1174.41V126.133C1174.27 124.812 1173.34 123.958 1171.77 123.958C1169.92 123.958 1168.87 125.08 1168.87 127.024V127.035C1168.87 129.001 1169.92 130.124 1171.77 130.124ZM1178.14 130.021C1178.44 130.021 1178.73 129.989 1178.92 129.952V128.786C1178.77 128.802 1178.66 128.813 1178.46 128.813C1177.93 128.813 1177.7 128.577 1177.7 128.045V125.268H1178.92V124.086H1177.7V122.674H1176.12V124.086H1175.21V125.268H1176.12V128.405C1176.12 129.554 1176.7 130.021 1178.14 130.021Z" fill="#B2B3B3"/>
<rect x="1018" y="195" width="16" height="16" fill="#E5E5E5"/>
<path d="M1218 230.224C1219.38 230.224 1220.5 228.826 1220.5 227.103C1220.5 225.379 1219.38 223.981 1218 223.981C1216.62 223.981 1215.5 225.379 1215.5 227.103C1215.5 228.826 1216.62 230.224 1218 230.224Z" fill="#333333"/>
<path fill-rule="evenodd" clip-rule="evenodd" d="M1225 227.103L1224.79 227.468C1224.67 227.683 1221.74 232.721 1218 232.721C1214.26 232.721 1211.33 227.683 1211.21 227.468L1211 227.103L1211.21 226.737C1211.33 226.523 1214.26 221.484 1218 221.484C1221.74 221.484 1224.67 226.523 1224.79 226.737L1225 227.103ZM1213.9 224.983C1213.12 225.805 1212.54 226.64 1212.24 227.103C1212.54 227.565 1213.12 228.4 1213.9 229.223C1215.04 230.436 1216.48 231.472 1218 231.472C1219.52 231.472 1220.96 230.436 1222.1 229.223C1222.88 228.4 1223.46 227.565 1223.76 227.103C1223.46 226.64 1222.88 225.805 1222.1 224.983C1220.96 223.769 1219.52 222.733 1218 222.733C1216.48 222.733 1215.04 223.769 1213.9 224.983Z" fill="#333333"/>
<g clip-path="url(#clip2_1514_45168)">
<path d="M1218.5 280.163C1218.5 279.819 1218.28 279.539 1218 279.539C1217.72 279.539 1217.5 279.819 1217.5 280.163V287.654H1211.5C1211.22 287.654 1211 287.934 1211 288.278C1211 288.623 1211.22 288.903 1211.5 288.903H1217.5V296.394C1217.5 296.738 1217.72 297.018 1218 297.018C1218.28 297.018 1218.5 296.738 1218.5 296.394V288.903H1224.5C1224.78 288.903 1225 288.623 1225 288.278C1225 287.934 1224.78 287.654 1224.5 287.654H1218.5V280.163Z" fill="#B3B3B2"/>
</g>
</g>
</g>
<defs>
<filter id="filter0_dddd_1514_45168" x="0" y="0" width="1282" height="992" filterUnits="userSpaceOnUse" color-interpolation-filters="sRGB">
<feFlood flood-opacity="0" result="BackgroundImageFix"/>
<feColorMatrix in="SourceAlpha" type="matrix" values="0 0 0 0 0 0 0 0 0 0 0 0 0 0 0 0 0 0 127 0" result="hardAlpha"/>
<feOffset dy="1"/>
<feGaussianBlur stdDeviation="1.5"/>
<feColorMatrix type="matrix" values="0 0 0 0 0 0 0 0 0 0 0 0 0 0 0 0 0 0 0.1 0"/>
<feBlend mode="normal" in2="BackgroundImageFix" result="effect1_dropShadow_1514_45168"/>
<feColorMatrix in="SourceAlpha" type="matrix" values="0 0 0 0 0 0 0 0 0 0 0 0 0 0 0 0 0 0 127 0" result="hardAlpha"/>
<feOffset dy="10"/>
<feGaussianBlur stdDeviation="10"/>
<feColorMatrix type="matrix" values="0 0 0 0 0 0 0 0 0 0 0 0 0 0 0 0 0 0 0.1 0"/>
<feBlend mode="normal" in2="effect1_dropShadow_1514_45168" result="effect2_dropShadow_1514_45168"/>
<feColorMatrix in="SourceAlpha" type="matrix" values="0 0 0 0 0 0 0 0 0 0 0 0 0 0 0 0 0 0 127 0" result="hardAlpha"/>
<feOffset dy="20"/>
<feGaussianBlur stdDeviation="20"/>
<feColorMatrix type="matrix" values="0 0 0 0 0 0 0 0 0 0 0 0 0 0 0 0 0 0 0.05 0"/>
<feBlend mode="normal" in2="effect2_dropShadow_1514_45168" result="effect3_dropShadow_1514_45168"/>
<feColorMatrix in="SourceAlpha" type="matrix" values="0 0 0 0 0 0 0 0 0 0 0 0 0 0 0 0 0 0 127 0" result="hardAlpha"/>
<feOffset dy="40"/>
<feGaussianBlur stdDeviation="15"/>
<feColorMatrix type="matrix" values="0 0 0 0 0 0 0 0 0 0 0 0 0 0 0 0 0 0 0.05 0"/>
<feBlend mode="normal" in2="effect3_dropShadow_1514_45168" result="effect4_dropShadow_1514_45168"/>
<feBlend mode="normal" in="SourceGraphic" in2="effect4_dropShadow_1514_45168" result="shape"/>
</filter>
<filter id="filter1_dd_1514_45168" x="371" y="332" width="370" height="303" filterUnits="userSpaceOnUse" color-interpolation-filters="sRGB">
<feFlood flood-opacity="0" result="BackgroundImageFix"/>
<feColorMatrix in="SourceAlpha" type="matrix" values="0 0 0 0 0 0 0 0 0 0 0 0 0 0 0 0 0 0 127 0" result="hardAlpha"/>
<feOffset dy="5"/>
<feGaussianBlur stdDeviation="7.5"/>
<feColorMatrix type="matrix" values="0 0 0 0 0 0 0 0 0 0 0 0 0 0 0 0 0 0 0.1 0"/>
<feBlend mode="normal" in2="BackgroundImageFix" result="effect1_dropShadow_1514_45168"/>
<feColorMatrix in="SourceAlpha" type="matrix" values="0 0 0 0 0 0 0 0 0 0 0 0 0 0 0 0 0 0 127 0" result="hardAlpha"/>
<feOffset dy="1"/>
<feGaussianBlur stdDeviation="1.5"/>
<feColorMatrix type="matrix" values="0 0 0 0 0 0 0 0 0 0 0 0 0 0 0 0 0 0 0.05 0"/>
<feBlend mode="normal" in2="effect1_dropShadow_1514_45168" result="effect2_dropShadow_1514_45168"/>
<feBlend mode="normal" in="SourceGraphic" in2="effect2_dropShadow_1514_45168" result="shape"/>
</filter>
<filter id="filter2_d_1514_45168" x="682.5" y="489.5" width="23" height="23" filterUnits="userSpaceOnUse" color-interpolation-filters="sRGB">
<feFlood flood-opacity="0" result="BackgroundImageFix"/>
<feColorMatrix in="SourceAlpha" type="matrix" values="0 0 0 0 0 0 0 0 0 0 0 0 0 0 0 0 0 0 127 0" result="hardAlpha"/>
<feOffset dy="1"/>
<feGaussianBlur stdDeviation="1.5"/>
<feColorMatrix type="matrix" values="0 0 0 0 0 0 0 0 0 0 0 0 0 0 0 0 0 0 0.1 0"/>
<feBlend mode="normal" in2="BackgroundImageFix" result="effect1_dropShadow_1514_45168"/>
<feBlend mode="normal" in="SourceGraphic" in2="effect1_dropShadow_1514_45168" result="shape"/>
</filter>
<filter id="filter3_d_1514_45168" x="526.5" y="489.5" width="23" height="23" filterUnits="userSpaceOnUse" color-interpolation-filters="sRGB">
<feFlood flood-opacity="0" result="BackgroundImageFix"/>
<feColorMatrix in="SourceAlpha" type="matrix" values="0 0 0 0 0 0 0 0 0 0 0 0 0 0 0 0 0 0 127 0" result="hardAlpha"/>
<feOffset dy="1"/>
<feGaussianBlur stdDeviation="1.5"/>
<feColorMatrix type="matrix" values="0 0 0 0 0 0 0 0 0 0 0 0 0 0 0 0 0 0 0.1 0"/>
<feBlend mode="normal" in2="BackgroundImageFix" result="effect1_dropShadow_1514_45168"/>
<feBlend mode="normal" in="SourceGraphic" in2="effect1_dropShadow_1514_45168" result="shape"/>
</filter>
<linearGradient id="paint0_linear_1514_45168" x1="556" y1="342" x2="556" y2="499" gradientUnits="userSpaceOnUse">
<stop stop-color="#E7FBFB"/>
<stop offset="1" stop-color="#F4F8FA"/>
</linearGradient>
<linearGradient id="paint1_linear_1514_45168" x1="-2.15152" y1="0.889947" x2="-2.10506" y2="8.42279" gradientUnits="userSpaceOnUse">
<stop stop-color="#E2E2E2"/>
<stop offset="1" stop-color="#F0F0F0"/>
</linearGradient>
<linearGradient id="paint2_linear_1514_45168" x1="-2.15152" y1="2.00024" x2="-1.91685" y2="18.9284" gradientUnits="userSpaceOnUse">
<stop stop-color="#E2E2E2"/>
<stop offset="1" stop-color="#F0F0F0"/>
</linearGradient>
<linearGradient id="paint3_linear_1514_45168" x1="-2.15152" y1="1.60019" x2="-2.00132" y2="15.1436" gradientUnits="userSpaceOnUse">
<stop stop-color="#E2E2E2"/>
<stop offset="1" stop-color="#F0F0F0"/>
</linearGradient>
<linearGradient id="paint4_linear_1514_45168" x1="-2.15152" y1="3.00036" x2="-1.62363" y2="28.3865" gradientUnits="userSpaceOnUse">
<stop stop-color="#E2E2E2"/>
<stop offset="1" stop-color="#F0F0F0"/>
</linearGradient>
<linearGradient id="paint5_linear_1514_45168" x1="-2.15152" y1="2.00024" x2="-1.91685" y2="18.9284" gradientUnits="userSpaceOnUse">
<stop stop-color="#E2E2E2"/>
<stop offset="1" stop-color="#F0F0F0"/>
</linearGradient>
<linearGradient id="paint6_linear_1514_45168" x1="-2.15152" y1="1.80021" x2="-1.96143" y2="17.0361" gradientUnits="userSpaceOnUse">
<stop stop-color="#E2E2E2"/>
<stop offset="1" stop-color="#F0F0F0"/>
</linearGradient>
<linearGradient id="paint7_linear_1514_45168" x1="-2.15152" y1="3.60043" x2="-1.3915" y2="34.058" gradientUnits="userSpaceOnUse">
<stop stop-color="#E2E2E2"/>
<stop offset="1" stop-color="#F0F0F0"/>
</linearGradient>
<linearGradient id="paint8_linear_1514_45168" x1="-2.15152" y1="4.40052" x2="-1.01653" y2="41.615" gradientUnits="userSpaceOnUse">
<stop stop-color="#FA8961"/>
<stop offset="1" stop-color="#FFBD58"/>
</linearGradient>
<linearGradient id="paint9_linear_1514_45168" x1="-2.15152" y1="7.60091" x2="1.22847" y2="71.7622" gradientUnits="userSpaceOnUse">
<stop stop-color="#FA8961"/>
<stop offset="1" stop-color="#FFBD58"/>
</linearGradient>
<linearGradient id="paint10_linear_1514_45168" x1="-2.15152" y1="10.0012" x2="3.68844" y2="94.2534" gradientUnits="userSpaceOnUse">
<stop stop-color="#FA8961"/>
<stop offset="1" stop-color="#FFBD58"/>
</linearGradient>
<linearGradient id="paint11_linear_1514_45168" x1="-2.15152" y1="12.0014" x2="6.24037" y2="112.892" gradientUnits="userSpaceOnUse">
<stop stop-color="#FA8961"/>
<stop offset="1" stop-color="#FFBD58"/>
</linearGradient>
<linearGradient id="paint12_linear_1514_45168" x1="-2.15152" y1="6.80081" x2="0.555837" y2="64.24" gradientUnits="userSpaceOnUse">
<stop stop-color="#FA8961"/>
<stop offset="1" stop-color="#FFBD58"/>
</linearGradient>
<linearGradient id="paint13_linear_1514_45168" x1="-2.15152" y1="3.60043" x2="-1.3915" y2="34.058" gradientUnits="userSpaceOnUse">
<stop stop-color="#FA8961"/>
<stop offset="1" stop-color="#FFBD58"/>
</linearGradient>
<linearGradient id="paint14_linear_1514_45168" x1="-2.15152" y1="4.40052" x2="-1.01653" y2="41.615" gradientUnits="userSpaceOnUse">
<stop stop-color="#FA8961"/>
<stop offset="1" stop-color="#FFBD58"/>
</linearGradient>
<linearGradient id="paint15_linear_1514_45168" x1="-2.08632" y1="2.3918" x2="-1.74032" y2="22.6317" gradientUnits="userSpaceOnUse">
<stop stop-color="#FA8961"/>
<stop offset="1" stop-color="#FFBD58"/>
</linearGradient>
<linearGradient id="paint16_linear_1514_45168" x1="-2.21672" y1="2.95457" x2="-1.71985" y2="27.9543" gradientUnits="userSpaceOnUse">
<stop stop-color="#FA8961"/>
<stop offset="1" stop-color="#FFBD58"/>
</linearGradient>
<clipPath id="clip0_1514_45168">
<rect x="40" y="20" width="1202" height="902" rx="8" fill="white"/>
</clipPath>
<clipPath id="clip1_1514_45168">
<rect width="11.2" height="16" fill="white" transform="translate(53 74)"/>
</clipPath>
<clipPath id="clip2_1514_45168">
<rect width="14" height="17.4788" fill="white" transform="translate(1211 279.539)"/>
</clipPath>
</defs>
</svg>
