<svg xmlns="http://www.w3.org/2000/svg" width="458" height="244" fill="none" viewBox="0 0 458 244"><g filter="url(#filter0_dd_5565_79654)"><path fill="#fff" d="M9.86719 12.4316C9.86719 9.35847 12.3585 6.86719 15.4316 6.86719H442.567C445.64 6.86719 448.132 9.35848 448.132 12.4316V226.076C448.132 229.149 445.64 231.64 442.567 231.64H15.4316C12.3585 231.64 9.86719 229.149 9.86719 226.076V12.4316Z"/><path stroke="#000" stroke-opacity=".1" stroke-width=".868" d="M442.567 6.43326H15.4316C12.1188 6.43326 9.43326 9.11882 9.43326 12.4316V226.076C9.43326 229.389 12.1188 232.074 15.4316 232.074H442.567C445.88 232.074 448.566 229.389 448.566 226.076V12.4316C448.566 9.11883 445.88 6.43326 442.567 6.43326Z"/></g><path fill="#333" d="M31.3651 27.5156C30.2745 27.5156 29.4472 27.2335 28.8831 26.6694C28.319 26.1053 28.0369 25.2818 28.0369 24.1987V19.4602H29.4585V24.2777C29.4585 24.9621 29.6202 25.4811 29.9436 25.8346C30.267 26.1806 30.7408 26.3535 31.3651 26.3535C31.9819 26.3535 32.452 26.1768 32.7754 25.8233C33.0988 25.4698 33.2605 24.9546 33.2605 24.2777V19.4602H34.682V24.1987C34.682 25.2742 34.4 26.0978 33.8359 26.6694C33.2718 27.2335 32.4482 27.5156 31.3651 27.5156ZM38.263 27.5043C37.7741 27.5043 37.3228 27.4441 36.9091 27.3238C36.503 27.2035 36.157 27.0305 35.8712 26.8048L36.266 25.8233C36.8527 26.252 37.5259 26.4664 38.2855 26.4664C38.6089 26.4664 38.8534 26.4137 39.0189 26.3084C39.1918 26.2031 39.2783 26.0527 39.2783 25.8571C39.2783 25.6917 39.2182 25.5638 39.0978 25.4735C38.985 25.3833 38.7782 25.3006 38.4773 25.2253L37.5747 25.0223C37.0633 24.9094 36.6835 24.7252 36.4353 24.4694C36.1871 24.2137 36.063 23.8828 36.063 23.4766C36.063 23.1382 36.157 22.8411 36.345 22.5853C36.5406 22.3221 36.8076 22.119 37.146 21.9761C37.492 21.8332 37.8906 21.7618 38.3419 21.7618C38.733 21.7618 39.1091 21.8219 39.4701 21.9423C39.8387 22.0626 40.1621 22.2318 40.4404 22.45L40.0455 23.4089C39.4739 22.9953 38.9023 22.7884 38.3306 22.7884C38.0223 22.7884 37.7816 22.8448 37.6086 22.9577C37.4356 23.0705 37.3491 23.2284 37.3491 23.4315C37.3491 23.5819 37.4018 23.706 37.5071 23.8038C37.6199 23.9016 37.7966 23.9768 38.0373 24.0294L38.9737 24.2438C39.5228 24.3641 39.9252 24.5559 40.1809 24.8192C40.4366 25.0749 40.5645 25.4134 40.5645 25.8346C40.5645 26.346 40.3577 26.7522 39.944 27.053C39.5303 27.3539 38.97 27.5043 38.263 27.5043ZM44.0772 21.7618C44.8519 21.7618 45.4273 21.9498 45.8033 22.3259C46.1794 22.7019 46.3674 23.2811 46.3674 24.0633V27.4141H45.0249V26.5679C44.897 26.8612 44.6939 27.0906 44.4156 27.2561C44.1449 27.4216 43.829 27.5043 43.4679 27.5043C43.0994 27.5043 42.7647 27.4291 42.4638 27.2787C42.163 27.1283 41.9261 26.9214 41.7531 26.6582C41.5801 26.3949 41.4936 26.1016 41.4936 25.7782C41.4936 25.372 41.5951 25.0524 41.7982 24.8192C42.0088 24.586 42.3473 24.4168 42.8136 24.3115C43.2799 24.2062 43.923 24.1535 44.7428 24.1535H45.0249V23.8941C45.0249 23.518 44.9421 23.2472 44.7767 23.0818C44.6187 22.9163 44.3517 22.8335 43.9756 22.8335C43.6823 22.8335 43.3739 22.8862 43.0505 22.9915C42.7346 23.0893 42.4225 23.2284 42.1141 23.4089L41.7192 22.4387C42.0276 22.2431 42.3999 22.0814 42.8362 21.9535C43.2724 21.8257 43.6861 21.7618 44.0772 21.7618ZM43.75 26.4889C44.1261 26.4889 44.4307 26.3648 44.6638 26.1166C44.9045 25.8609 45.0249 25.5337 45.0249 25.1351V24.8982H44.8218C44.3179 24.8982 43.9267 24.9207 43.6485 24.9659C43.3702 25.011 43.1709 25.09 43.0505 25.2028C42.9302 25.3156 42.87 25.4698 42.87 25.6653C42.87 25.906 42.9527 26.1053 43.1182 26.2633C43.2837 26.4137 43.4943 26.4889 43.75 26.4889ZM53.171 21.8971V26.9064C53.171 27.7713 52.9303 28.4257 52.4489 28.8694C51.9751 29.3132 51.2718 29.5351 50.3392 29.5351C49.8578 29.5351 49.3952 29.4712 48.9515 29.3433C48.5077 29.223 48.1204 29.05 47.7894 28.8243L48.1843 27.8315C48.8687 28.2452 49.5757 28.452 50.3053 28.452C51.2831 28.452 51.772 27.9706 51.772 27.0079V26.2859C51.6065 26.5942 51.3658 26.8349 51.0499 27.0079C50.734 27.1734 50.373 27.2561 49.9668 27.2561C49.4855 27.2561 49.0568 27.1433 48.6807 26.9177C48.3121 26.6845 48.0226 26.3611 47.812 25.9474C47.6014 25.5337 47.4961 25.0561 47.4961 24.5146C47.4961 23.973 47.5976 23.4954 47.8007 23.0818C48.0113 22.6606 48.3046 22.3371 48.6807 22.1115C49.0568 21.8783 49.4855 21.7618 49.9668 21.7618C50.373 21.7618 50.734 21.8482 51.0499 22.0212C51.3658 22.1867 51.6065 22.4236 51.772 22.732V21.8971H53.171ZM50.3392 26.1618C50.7904 26.1618 51.1402 26.0151 51.3884 25.7218C51.6441 25.4284 51.772 25.026 51.772 24.5146C51.772 23.9956 51.6441 23.5894 51.3884 23.2961C51.1402 23.0028 50.7904 22.8561 50.3392 22.8561C49.8954 22.8561 49.5457 23.0028 49.2899 23.2961C49.0342 23.5894 48.9063 23.9956 48.9063 24.5146C48.9063 25.0185 49.0342 25.4209 49.2899 25.7218C49.5457 26.0151 49.8954 26.1618 50.3392 26.1618ZM59.4716 24.9094H55.7147C55.7598 25.4209 55.914 25.8007 56.1773 26.0489C56.4405 26.2971 56.8166 26.4212 57.3055 26.4212C57.9147 26.4212 58.4713 26.2257 58.9752 25.8346L59.3814 26.8048C59.1256 27.0154 58.8022 27.1847 58.4111 27.3125C58.0275 27.4404 57.6402 27.5043 57.2491 27.5043C56.3465 27.5043 55.632 27.2486 55.1055 26.7371C54.5865 26.2257 54.327 25.5262 54.327 24.6387C54.327 24.0746 54.4398 23.5744 54.6655 23.1382C54.8911 22.7019 55.207 22.3635 55.6132 22.1228C56.0268 21.8821 56.4932 21.7618 57.0121 21.7618C57.7718 21.7618 58.3697 22.0062 58.806 22.4951C59.2497 22.984 59.4716 23.6571 59.4716 24.5146V24.9094ZM57.046 22.7546C56.6699 22.7546 56.3653 22.8749 56.1321 23.1156C55.9065 23.3563 55.7674 23.7023 55.7147 24.1535H58.2644C58.2494 23.6947 58.1366 23.3488 57.926 23.1156C57.7154 22.8749 57.4221 22.7546 57.046 22.7546ZM65.482 21.8971H66.9373V22.9577H65.482V27.4141H64.0717V22.9577H63.0112V21.8971H64.0717C64.0717 21.1074 64.2748 20.5132 64.6809 20.1146C65.0946 19.7159 65.7339 19.4941 66.5989 19.4489L67.1517 19.4151L67.242 20.4643L66.7117 20.4869C66.2679 20.5094 65.9521 20.611 65.764 20.7915C65.576 20.9645 65.482 21.2465 65.482 21.6377V21.8971ZM71.3644 22.9351L70.5408 23.0141C69.6082 23.1118 69.1418 23.5857 69.1418 24.4356V27.4141H67.7316V21.8971H69.0742V22.8674C69.36 22.2055 69.9504 21.8445 70.8454 21.7843L71.2742 21.7505L71.3644 22.9351ZM76.7803 24.9094H73.0234C73.0685 25.4209 73.2227 25.8007 73.486 26.0489C73.7492 26.2971 74.1253 26.4212 74.6142 26.4212C75.2234 26.4212 75.78 26.2257 76.2839 25.8346L76.6901 26.8048C76.4343 27.0154 76.1109 27.1847 75.7198 27.3125C75.3362 27.4404 74.9489 27.5043 74.5578 27.5043C73.6552 27.5043 72.9407 27.2486 72.4142 26.7371C71.8952 26.2257 71.6357 25.5262 71.6357 24.6387C71.6357 24.0746 71.7485 23.5744 71.9742 23.1382C72.1998 22.7019 72.5157 22.3635 72.9219 22.1228C73.3355 21.8821 73.8019 21.7618 74.3208 21.7618C75.0805 21.7618 75.6784 22.0062 76.1147 22.4951C76.5584 22.984 76.7803 23.6571 76.7803 24.5146V24.9094ZM74.3547 22.7546C73.9786 22.7546 73.674 22.8749 73.4408 23.1156C73.2152 23.3563 73.0761 23.7023 73.0234 24.1535H75.5731C75.5581 23.6947 75.4453 23.3488 75.2347 23.1156C75.0241 22.8749 74.7308 22.7546 74.3547 22.7546ZM83.259 21.8971V29.4448H81.8488V26.5453C81.6833 26.8462 81.4426 27.0831 81.1267 27.2561C80.8184 27.4216 80.4686 27.5043 80.0775 27.5043C79.5961 27.5043 79.1712 27.3877 78.8026 27.1546C78.4341 26.9214 78.1445 26.5905 77.9339 26.1618C77.7308 25.733 77.6293 25.2329 77.6293 24.6612C77.6293 24.0896 77.7308 23.5857 77.9339 23.1494C78.1445 22.7057 78.4341 22.3635 78.8026 22.1228C79.1787 21.8821 79.6037 21.7618 80.0775 21.7618C80.4761 21.7618 80.8296 21.8482 81.138 22.0212C81.4539 22.1867 81.6946 22.4236 81.8601 22.732V21.8971H83.259ZM80.4611 26.41C80.9049 26.41 81.2471 26.2558 81.4878 25.9474C81.736 25.639 81.8601 25.2028 81.8601 24.6387C81.8601 24.0671 81.736 23.6271 81.4878 23.3187C81.2471 23.0103 80.9011 22.8561 80.4498 22.8561C80.0061 22.8561 79.6601 23.0141 79.4119 23.33C79.1637 23.6459 79.0396 24.0896 79.0396 24.6612C79.0396 25.2178 79.1637 25.6503 79.4119 25.9587C79.6601 26.2595 80.0098 26.41 80.4611 26.41ZM89.5498 24.9094H85.7928C85.838 25.4209 85.9922 25.8007 86.2554 26.0489C86.5186 26.2971 86.8947 26.4212 87.3836 26.4212C87.9928 26.4212 88.5494 26.2257 89.0533 25.8346L89.4595 26.8048C89.2038 27.0154 88.8804 27.1847 88.4892 27.3125C88.1057 27.4404 87.7183 27.5043 87.3272 27.5043C86.4246 27.5043 85.7101 27.2486 85.1836 26.7371C84.6646 26.2257 84.4051 25.5262 84.4051 24.6387C84.4051 24.0746 84.518 23.5744 84.7436 23.1382C84.9692 22.7019 85.2851 22.3635 85.6913 22.1228C86.105 21.8821 86.5713 21.7618 87.0903 21.7618C87.8499 21.7618 88.4479 22.0062 88.8841 22.4951C89.3279 22.984 89.5498 23.6571 89.5498 24.5146V24.9094ZM87.1241 22.7546C86.748 22.7546 86.4434 22.8749 86.2103 23.1156C85.9846 23.3563 85.8455 23.7023 85.7928 24.1535H88.3426C88.3275 23.6947 88.2147 23.3488 88.0041 23.1156C87.7935 22.8749 87.5002 22.7546 87.1241 22.7546ZM93.9075 21.7618C94.5693 21.7618 95.062 21.9498 95.3854 22.3259C95.7088 22.7019 95.8705 23.2698 95.8705 24.0294V27.4141H94.4603V24.1084C94.4603 23.6797 94.3775 23.3676 94.2121 23.172C94.0541 22.9765 93.8022 22.8787 93.4562 22.8787C93.05 22.8787 92.7228 23.0065 92.4746 23.2623C92.2339 23.518 92.1136 23.8602 92.1136 24.2889V27.4141H90.7034V21.8971H92.0798V22.7207C92.2678 22.4124 92.5198 22.1754 92.8357 22.01C93.1516 21.8445 93.5088 21.7618 93.9075 21.7618ZM99.8188 27.5043C99.2397 27.5043 98.7357 27.3877 98.307 27.1546C97.8858 26.9214 97.5624 26.5905 97.3368 26.1618C97.1111 25.733 96.9983 25.2329 96.9983 24.6612C96.9983 24.0896 97.1149 23.5857 97.348 23.1494C97.5887 22.7057 97.9272 22.3635 98.3634 22.1228C98.7997 21.8821 99.3036 21.7618 99.8752 21.7618C100.266 21.7618 100.646 21.8257 101.015 21.9535C101.391 22.0739 101.692 22.2394 101.917 22.45L101.511 23.4428C101.278 23.2547 101.03 23.1118 100.767 23.0141C100.511 22.9163 100.255 22.8674 99.9993 22.8674C99.5104 22.8674 99.1306 23.0216 98.8598 23.33C98.5891 23.6308 98.4537 24.0671 98.4537 24.6387C98.4537 25.2028 98.5891 25.639 98.8598 25.9474C99.1306 26.2483 99.5104 26.3987 99.9993 26.3987C100.255 26.3987 100.511 26.3498 100.767 26.252C101.03 26.1542 101.278 26.0113 101.511 25.8233L101.917 26.8048C101.677 27.023 101.368 27.1959 100.992 27.3238C100.616 27.4441 100.225 27.5043 99.8188 27.5043ZM106.681 21.9084H108.069L104.752 29.4448H103.331L104.335 27.1997L102.033 21.9084H103.522L105.079 25.8007L106.681 21.9084Z"/><rect width="438.264" height="156.213" fill="url(#paint0_linear_5565_79654)" transform="translate(9.86719 42.4492)"/><rect width=".868" height="156.213" x="155.668" y="42.451" fill="#000" fill-opacity=".1"/><rect width=".868" height="156.213" x="301.467" y="42.451" fill="#000" fill-opacity=".1"/><rect width=".868" height="156.213" x="46.318" y="42.451" fill="#000" fill-opacity=".1"/><rect width=".868" height="156.213" x="192.117" y="42.451" fill="#000" fill-opacity=".1"/><rect width=".868" height="156.213" x="337.916" y="42.451" fill="#000" fill-opacity=".1"/><rect width=".868" height="156.213" x="82.768" y="42.451" fill="#000" fill-opacity=".1"/><rect width=".868" height="156.213" x="228.566" y="42.451" fill="#000" fill-opacity=".1"/><rect width=".868" height="156.213" x="374.365" y="42.451" fill="#000" fill-opacity=".1"/><rect width=".868" height="156.213" x="119.219" y="42.451" fill="#000" fill-opacity=".1"/><rect width=".868" height="156.213" x="265.018" y="42.451" fill="#000" fill-opacity=".1"/><rect width=".868" height="156.213" x="410.816" y="42.451" fill="#000" fill-opacity=".1"/><rect width=".868" height="156.213" x="28.094" y="42.451" fill="#000" fill-opacity=".1"/><rect width=".868" height="156.213" x="173.893" y="42.451" fill="#000" fill-opacity=".1"/><rect width=".868" height="156.213" x="319.691" y="42.451" fill="#000" fill-opacity=".1"/><rect width=".868" height="156.213" x="64.543" y="42.451" fill="#000" fill-opacity=".1"/><rect width=".868" height="156.213" x="210.342" y="42.451" fill="#000" fill-opacity=".1"/><rect width=".868" height="156.213" x="356.141" y="42.451" fill="#000" fill-opacity=".1"/><rect width=".868" height="156.213" x="100.994" y="42.451" fill="#000" fill-opacity=".1"/><rect width=".868" height="156.213" x="246.793" y="42.451" fill="#000" fill-opacity=".1"/><rect width=".868" height="156.213" x="392.592" y="42.451" fill="#000" fill-opacity=".1"/><rect width=".868" height="156.213" x="137.443" y="42.451" fill="#000" fill-opacity=".1"/><rect width=".868" height="156.213" x="283.242" y="42.451" fill="#000" fill-opacity=".1"/><rect width=".868" height="156.213" x="429.041" y="42.451" fill="#000" fill-opacity=".1"/><circle cx="28.618" cy="171.901" r="2.702" fill="#CBDFDC"/><circle cx="246.776" cy="152.989" r="2.702" fill="#CBDFDC"/><circle cx="192.741" cy="134.077" r="2.702" fill="#CBDFDC"/><circle cx="155.594" cy="115.166" r="2.702" fill="#CBDFDC"/><circle cx="192.741" cy="77.344" r="2.702" fill="#CBDFDC"/><circle cx="83.327" cy="77.344" r="2.702" fill="#CBDFDC"/><circle cx="210.979" cy="58.432" r="2.702" fill="#CBDFDC"/><circle cx="46.852" cy="171.901" r="2.702" fill="#CBDFDC"/><circle cx="265.01" cy="152.989" r="2.702" fill="#CBDFDC"/><circle cx="337.956" cy="152.989" r="2.702" fill="#CBDFDC"/><circle cx="210.979" cy="134.077" r="2.702" fill="#CBDFDC"/><circle cx="337.956" cy="115.166" r="2.702" fill="#CBDFDC"/><circle cx="356.868" cy="96.254" r="2.702" fill="#CBDFDC"/><circle cx="375.104" cy="77.344" r="2.702" fill="#CBDFDC"/><circle cx="393.338" cy="58.432" r="2.702" fill="#CBDFDC"/><circle cx="173.831" cy="115.166" r="2.702" fill="#CBDFDC"/><circle cx="210.979" cy="77.344" r="2.702" fill="#CBDFDC"/><circle cx="228.54" cy="58.432" r="2.702" fill="#CBDFDC"/><circle cx="173.831" cy="96.254" r="2.702" fill="#CBDFDC"/><circle cx="46.852" cy="115.166" r="2.702" fill="#CBDFDC"/><circle cx="65.09" cy="96.254" r="2.702" fill="#CBDFDC"/><circle cx="65.766" cy="171.901" r="2.702" fill="#CBDFDC"/><circle cx="283.922" cy="152.989" r="2.702" fill="#37D5D3"/><circle cx="283.922" cy="171.901" r="2.702" fill="#37D5D3"/><circle cx="356.868" cy="152.989" r="2.702" fill="#CBDFDC"/><circle cx="228.54" cy="134.077" r="2.702" fill="#CBDFDC"/><circle cx="356.868" cy="115.166" r="2.702" fill="#CBDFDC"/><circle cx="375.104" cy="96.254" r="2.702" fill="#CBDFDC"/><circle cx="393.338" cy="77.344" r="2.702" fill="#CBDFDC"/><circle cx="411.575" cy="58.432" r="2.702" fill="#CBDFDC"/><circle cx="192.741" cy="115.166" r="2.702" fill="#CBDFDC"/><circle cx="228.54" cy="77.344" r="2.702" fill="#CBDFDC"/><circle cx="246.776" cy="58.432" r="2.702" fill="#CBDFDC"/><circle cx="192.741" cy="96.254" r="2.702" fill="#CBDFDC"/><circle cx="320.395" cy="171.901" r="2.702" fill="#CBDFDC"/><circle cx="337.956" cy="171.901" r="2.702" fill="#CBDFDC"/><circle cx="429.811" cy="171.901" r="2.702" fill="#CBDFDC"/><circle cx="375.103" cy="171.902" r="4.728" fill="#CBDFDC"/><circle cx="337.956" cy="134.077" r="4.728" fill="#CBDFDC"/><circle cx="320.394" cy="115.166" r="4.052" fill="#CBDFDC"/><circle cx="320.394" cy="96.256" r="4.052" fill="#CBDFDC"/><circle cx="356.867" cy="58.431" r="4.052" fill="#CBDFDC"/><circle cx="337.955" cy="96.256" r="4.052" fill="#CBDFDC"/><circle cx="337.955" cy="77.344" r="4.052" fill="#CBDFDC"/><circle cx="356.867" cy="77.344" r="4.052" fill="#CBDFDC"/><circle cx="375.103" cy="58.431" r="4.052" fill="#CBDFDC"/><circle cx="320.394" cy="134.077" r="4.728" fill="#CBDFDC"/><circle cx="302.158" cy="134.077" r="4.728" fill="#37D5D3"/><circle cx="302.158" cy="171.9" r="3.377" fill="#37D5D3"/><circle cx="283.922" cy="134.078" r="7.429" fill="#37D5D3"/><circle cx="265.012" cy="134.076" r="6.754" fill="#CBDFDC"/><circle cx="246.776" cy="115.166" r="6.754" fill="#CBDFDC"/><circle cx="265.012" cy="96.254" r="6.754" fill="#CBDFDC"/><circle cx="283.922" cy="96.256" r="7.429" fill="#37D5D3"/><circle cx="320.395" cy="58.432" r="6.754" fill="#CBDFDC"/><circle cx="265.012" cy="115.166" r="6.754" fill="#CBDFDC"/><circle cx="246.774" cy="134.077" r="5.403" fill="#CBDFDC"/><circle cx="228.54" cy="115.167" r="6.079" fill="#CBDFDC"/><circle cx="302.159" cy="152.989" r="6.079" fill="#37D5D3"/><circle cx="246.776" cy="96.254" r="6.079" fill="#CBDFDC"/><circle cx="283.924" cy="58.432" r="6.079" fill="#37D5D3"/><circle cx="265.01" cy="77.342" r="6.079" fill="#CBDFDC"/><circle cx="283.922" cy="77.344" r="6.754" fill="#37D5D3"/><circle cx="302.158" cy="77.344" r="6.754" fill="#37D5D3"/><circle cx="265.013" cy="58.433" r="5.403" fill="#CBDFDC"/><circle cx="246.774" cy="77.343" r="5.403" fill="#CBDFDC"/><circle cx="210.977" cy="115.165" r="5.403" fill="#CBDFDC"/><circle cx="228.538" cy="96.255" r="5.403" fill="#CBDFDC"/><circle cx="283.923" cy="115.165" r="5.403" fill="#37D5D3"/><circle cx="302.157" cy="115.165" r="5.403" fill="#37D5D3"/><circle cx="302.158" cy="96.255" r="4.728" fill="#37D5D3"/><circle cx="302.157" cy="58.433" r="5.403" fill="#37D5D3"/><circle cx="337.956" cy="58.431" r="4.728" fill="#CBDFDC"/><circle cx="320.394" cy="77.343" r="4.728" fill="#CBDFDC"/><circle cx="356.867" cy="134.078" r="4.052" fill="#CBDFDC"/><circle cx="393.34" cy="171.9" r="4.052" fill="#CBDFDC"/><circle cx="411.576" cy="171.9" r="4.052" fill="#CBDFDC"/><rect width=".868" height="157.949" x="273.693" y="42.451" fill="#F40" fill-opacity=".7"/><rect width=".868" height="157.949" x="310.143" y="42.451" fill="#F40" fill-opacity=".7"/><rect width="438.264" height="1.736" x="9.867" y="198.662" fill="#000" fill-opacity=".1"/><rect width="438.264" height=".868" x="9.867" y="41.582" fill="#000" fill-opacity=".1"/><path fill="#999" d="M25.4903 218.579C24.7671 218.579 24.2377 218.304 23.9021 217.754C23.5723 217.205 23.4074 216.435 23.4074 215.446C23.4074 214.456 23.5723 213.687 23.9021 213.137C24.2377 212.588 24.7671 212.313 25.4903 212.313C26.2135 212.313 26.74 212.588 27.0698 213.137C27.4053 213.687 27.5731 214.456 27.5731 215.446C27.5731 216.435 27.4053 217.205 27.0698 217.754C26.74 218.304 26.2135 218.579 25.4903 218.579ZM25.4903 217.945C25.7275 217.945 25.93 217.896 26.0978 217.798C26.2655 217.699 26.4015 217.56 26.5057 217.381C26.6098 217.202 26.685 216.991 26.7313 216.748C26.7834 216.505 26.8094 216.236 26.8094 215.94V214.951C26.8094 214.656 26.7834 214.387 26.7313 214.144C26.685 213.901 26.6098 213.69 26.5057 213.511C26.4015 213.331 26.2655 213.192 26.0978 213.094C25.93 212.996 25.7275 212.946 25.4903 212.946C25.2531 212.946 25.0506 212.996 24.8828 213.094C24.715 213.192 24.579 213.331 24.4749 213.511C24.3707 213.69 24.2926 213.901 24.2406 214.144C24.1943 214.387 24.1711 214.656 24.1711 214.951V215.94C24.1711 216.236 24.1943 216.505 24.2406 216.748C24.2926 216.991 24.3707 217.202 24.4749 217.381C24.579 217.56 24.715 217.699 24.8828 217.798C25.0506 217.896 25.2531 217.945 25.4903 217.945ZM29.3575 218.579C29.1724 218.579 29.0364 218.532 28.9496 218.44C28.8686 218.347 28.8281 218.226 28.8281 218.075V217.963C28.8281 217.812 28.8686 217.691 28.9496 217.598C29.0364 217.506 29.1724 217.459 29.3575 217.459C29.5426 217.459 29.6757 217.506 29.7567 217.598C29.8435 217.691 29.8869 217.812 29.8869 217.963V218.075C29.8869 218.226 29.8435 218.347 29.7567 218.44C29.6757 218.532 29.5426 218.579 29.3575 218.579ZM29.3575 215.012C29.1724 215.012 29.0364 214.966 28.9496 214.873C28.8686 214.78 28.8281 214.659 28.8281 214.509V214.396C28.8281 214.245 28.8686 214.124 28.9496 214.031C29.0364 213.939 29.1724 213.892 29.3575 213.892C29.5426 213.892 29.6757 213.939 29.7567 214.031C29.8435 214.124 29.8869 214.245 29.8869 214.396V214.509C29.8869 214.659 29.8435 214.78 29.7567 214.873C29.6757 214.966 29.5426 215.012 29.3575 215.012ZM33.228 218.579C32.5048 218.579 31.9754 218.304 31.6399 217.754C31.3101 217.205 31.1452 216.435 31.1452 215.446C31.1452 214.456 31.3101 213.687 31.6399 213.137C31.9754 212.588 32.5048 212.313 33.228 212.313C33.9512 212.313 34.4777 212.588 34.8075 213.137C35.1431 213.687 35.3109 214.456 35.3109 215.446C35.3109 216.435 35.1431 217.205 34.8075 217.754C34.4777 218.304 33.9512 218.579 33.228 218.579ZM33.228 217.945C33.4652 217.945 33.6677 217.896 33.8355 217.798C34.0033 217.699 34.1393 217.56 34.2434 217.381C34.3476 217.202 34.4228 216.991 34.4691 216.748C34.5211 216.505 34.5472 216.236 34.5472 215.94V214.951C34.5472 214.656 34.5211 214.387 34.4691 214.144C34.4228 213.901 34.3476 213.69 34.2434 213.511C34.1393 213.331 34.0033 213.192 33.8355 213.094C33.6677 212.996 33.4652 212.946 33.228 212.946C32.9908 212.946 32.7883 212.996 32.6205 213.094C32.4528 213.192 32.3168 213.331 32.2127 213.511C32.1085 213.69 32.0304 213.901 31.9783 214.144C31.932 214.387 31.9089 214.656 31.9089 214.951V215.94C31.9089 216.236 31.932 216.505 31.9783 216.748C32.0304 216.991 32.1085 217.202 32.2127 217.381C32.3168 217.56 32.4528 217.699 32.6205 217.798C32.7883 217.896 32.9908 217.945 33.228 217.945ZM38.4317 218.579C37.7085 218.579 37.1792 218.304 36.8436 217.754C36.5138 217.205 36.3489 216.435 36.3489 215.446C36.3489 214.456 36.5138 213.687 36.8436 213.137C37.1792 212.588 37.7085 212.313 38.4317 212.313C39.155 212.313 39.6815 212.588 40.0112 213.137C40.3468 213.687 40.5146 214.456 40.5146 215.446C40.5146 216.435 40.3468 217.205 40.0112 217.754C39.6815 218.304 39.155 218.579 38.4317 218.579ZM38.4317 217.945C38.669 217.945 38.8715 217.896 39.0392 217.798C39.207 217.699 39.343 217.56 39.4471 217.381C39.5513 217.202 39.6265 216.991 39.6728 216.748C39.7248 216.505 39.7509 216.236 39.7509 215.94V214.951C39.7509 214.656 39.7248 214.387 39.6728 214.144C39.6265 213.901 39.5513 213.69 39.4471 213.511C39.343 213.331 39.207 213.192 39.0392 213.094C38.8715 212.996 38.669 212.946 38.4317 212.946C38.1945 212.946 37.992 212.996 37.8243 213.094C37.6565 213.192 37.5205 213.331 37.4164 213.511C37.3122 213.69 37.2341 213.901 37.182 214.144C37.1358 214.387 37.1126 214.656 37.1126 214.951V215.94C37.1126 216.236 37.1358 216.505 37.182 216.748C37.2341 216.991 37.3122 217.202 37.4164 217.381C37.5205 217.56 37.6565 217.699 37.8243 217.798C37.992 217.896 38.1945 217.945 38.4317 217.945Z"/><path fill="#999" d="M101.645 218.475V217.286H98.7204V216.643L101.255 212.417H102.339V216.678H103.216V217.286H102.339V218.475H101.645ZM99.406 216.678H101.645V212.981H101.602L99.406 216.678ZM104.861 218.579C104.676 218.579 104.54 218.532 104.454 218.44C104.373 218.347 104.332 218.226 104.332 218.075V217.963C104.332 217.812 104.373 217.691 104.454 217.598C104.54 217.506 104.676 217.459 104.861 217.459C105.047 217.459 105.18 217.506 105.261 217.598C105.347 217.691 105.391 217.812 105.391 217.963V218.075C105.391 218.226 105.347 218.347 105.261 218.44C105.18 218.532 105.047 218.579 104.861 218.579ZM104.861 215.012C104.676 215.012 104.54 214.966 104.454 214.873C104.373 214.78 104.332 214.659 104.332 214.509V214.396C104.332 214.245 104.373 214.124 104.454 214.031C104.54 213.939 104.676 213.892 104.861 213.892C105.047 213.892 105.18 213.939 105.261 214.031C105.347 214.124 105.391 214.245 105.391 214.396V214.509C105.391 214.659 105.347 214.78 105.261 214.873C105.18 214.966 105.047 215.012 104.861 215.012ZM108.732 218.579C108.009 218.579 107.479 218.304 107.144 217.754C106.814 217.205 106.649 216.435 106.649 215.446C106.649 214.456 106.814 213.687 107.144 213.137C107.479 212.588 108.009 212.313 108.732 212.313C109.455 212.313 109.982 212.588 110.311 213.137C110.647 213.687 110.815 214.456 110.815 215.446C110.815 216.435 110.647 217.205 110.311 217.754C109.982 218.304 109.455 218.579 108.732 218.579ZM108.732 217.945C108.969 217.945 109.172 217.896 109.339 217.798C109.507 217.699 109.643 217.56 109.747 217.381C109.851 217.202 109.927 216.991 109.973 216.748C110.025 216.505 110.051 216.236 110.051 215.94V214.951C110.051 214.656 110.025 214.387 109.973 214.144C109.927 213.901 109.851 213.69 109.747 213.511C109.643 213.331 109.507 213.192 109.339 213.094C109.172 212.996 108.969 212.946 108.732 212.946C108.495 212.946 108.292 212.996 108.124 213.094C107.957 213.192 107.821 213.331 107.717 213.511C107.612 213.69 107.534 213.901 107.482 214.144C107.436 214.387 107.413 214.656 107.413 214.951V215.94C107.413 216.236 107.436 216.505 107.482 216.748C107.534 216.991 107.612 217.202 107.717 217.381C107.821 217.56 107.957 217.699 108.124 217.798C108.292 217.896 108.495 217.945 108.732 217.945ZM113.936 218.579C113.212 218.579 112.683 218.304 112.347 217.754C112.018 217.205 111.853 216.435 111.853 215.446C111.853 214.456 112.018 213.687 112.347 213.137C112.683 212.588 113.212 212.313 113.936 212.313C114.659 212.313 115.185 212.588 115.515 213.137C115.851 213.687 116.018 214.456 116.018 215.446C116.018 216.435 115.851 217.205 115.515 217.754C115.185 218.304 114.659 218.579 113.936 218.579ZM113.936 217.945C114.173 217.945 114.375 217.896 114.543 217.798C114.711 217.699 114.847 217.56 114.951 217.381C115.055 217.202 115.13 216.991 115.177 216.748C115.229 216.505 115.255 216.236 115.255 215.94V214.951C115.255 214.656 115.229 214.387 115.177 214.144C115.13 213.901 115.055 213.69 114.951 213.511C114.847 213.331 114.711 213.192 114.543 213.094C114.375 212.996 114.173 212.946 113.936 212.946C113.698 212.946 113.496 212.996 113.328 213.094C113.16 213.192 113.024 213.331 112.92 213.511C112.816 213.69 112.738 213.901 112.686 214.144C112.64 214.387 112.617 214.656 112.617 214.951V215.94C112.617 216.236 112.64 216.505 112.686 216.748C112.738 216.991 112.816 217.202 112.92 217.381C113.024 217.56 113.16 217.699 113.328 217.798C113.496 217.896 113.698 217.945 113.936 217.945Z"/><path fill="#999" d="M176.496 218.579C176.149 218.579 175.845 218.535 175.585 218.449C175.325 218.356 175.105 218.232 174.925 218.075C174.752 217.919 174.619 217.734 174.526 217.52C174.439 217.306 174.396 217.074 174.396 216.826C174.396 216.409 174.509 216.079 174.734 215.836C174.96 215.593 175.255 215.423 175.62 215.324V215.255C175.301 215.145 175.047 214.968 174.856 214.725C174.671 214.477 174.578 214.179 174.578 213.832C174.578 213.369 174.746 213.001 175.082 212.729C175.417 212.452 175.889 212.313 176.496 212.313C177.104 212.313 177.575 212.452 177.911 212.729C178.246 213.001 178.414 213.369 178.414 213.832C178.414 214.179 178.319 214.477 178.128 214.725C177.943 214.968 177.691 215.145 177.373 215.255V215.324C177.737 215.423 178.032 215.593 178.258 215.836C178.484 216.079 178.596 216.409 178.596 216.826C178.596 217.074 178.55 217.306 178.457 217.52C178.371 217.734 178.238 217.919 178.058 218.075C177.885 218.232 177.668 218.356 177.407 218.449C177.147 218.535 176.843 218.579 176.496 218.579ZM176.496 217.945C176.918 217.945 177.245 217.853 177.477 217.668C177.708 217.477 177.824 217.208 177.824 216.86V216.678C177.824 216.331 177.708 216.065 177.477 215.88C177.245 215.689 176.918 215.593 176.496 215.593C176.074 215.593 175.747 215.689 175.515 215.88C175.284 216.065 175.168 216.331 175.168 216.678V216.86C175.168 217.208 175.284 217.477 175.515 217.668C175.747 217.853 176.074 217.945 176.496 217.945ZM176.496 214.986C176.878 214.986 177.167 214.905 177.364 214.743C177.561 214.581 177.659 214.344 177.659 214.031V213.901C177.659 213.589 177.561 213.351 177.364 213.189C177.167 213.027 176.878 212.946 176.496 212.946C176.114 212.946 175.825 213.027 175.628 213.189C175.432 213.351 175.333 213.589 175.333 213.901V214.031C175.333 214.344 175.432 214.581 175.628 214.743C175.825 214.905 176.114 214.986 176.496 214.986ZM180.363 218.579C180.178 218.579 180.042 218.532 179.955 218.44C179.874 218.347 179.834 218.226 179.834 218.075V217.963C179.834 217.812 179.874 217.691 179.955 217.598C180.042 217.506 180.178 217.459 180.363 217.459C180.548 217.459 180.682 217.506 180.763 217.598C180.849 217.691 180.893 217.812 180.893 217.963V218.075C180.893 218.226 180.849 218.347 180.763 218.44C180.682 218.532 180.548 218.579 180.363 218.579ZM180.363 215.012C180.178 215.012 180.042 214.966 179.955 214.873C179.874 214.78 179.834 214.659 179.834 214.509V214.396C179.834 214.245 179.874 214.124 179.955 214.031C180.042 213.939 180.178 213.892 180.363 213.892C180.548 213.892 180.682 213.939 180.763 214.031C180.849 214.124 180.893 214.245 180.893 214.396V214.509C180.893 214.659 180.849 214.78 180.763 214.873C180.682 214.966 180.548 215.012 180.363 215.012ZM184.234 218.579C183.511 218.579 182.981 218.304 182.646 217.754C182.316 217.205 182.151 216.435 182.151 215.446C182.151 214.456 182.316 213.687 182.646 213.137C182.981 212.588 183.511 212.313 184.234 212.313C184.957 212.313 185.484 212.588 185.813 213.137C186.149 213.687 186.317 214.456 186.317 215.446C186.317 216.435 186.149 217.205 185.813 217.754C185.484 218.304 184.957 218.579 184.234 218.579ZM184.234 217.945C184.471 217.945 184.674 217.896 184.841 217.798C185.009 217.699 185.145 217.56 185.249 217.381C185.353 217.202 185.429 216.991 185.475 216.748C185.527 216.505 185.553 216.236 185.553 215.94V214.951C185.553 214.656 185.527 214.387 185.475 214.144C185.429 213.901 185.353 213.69 185.249 213.511C185.145 213.331 185.009 213.192 184.841 213.094C184.674 212.996 184.471 212.946 184.234 212.946C183.997 212.946 183.794 212.996 183.626 213.094C183.459 213.192 183.323 213.331 183.219 213.511C183.114 213.69 183.036 213.901 182.984 214.144C182.938 214.387 182.915 214.656 182.915 214.951V215.94C182.915 216.236 182.938 216.505 182.984 216.748C183.036 216.991 183.114 217.202 183.219 217.381C183.323 217.56 183.459 217.699 183.626 217.798C183.794 217.896 183.997 217.945 184.234 217.945ZM189.438 218.579C188.714 218.579 188.185 218.304 187.849 217.754C187.52 217.205 187.355 216.435 187.355 215.446C187.355 214.456 187.52 213.687 187.849 213.137C188.185 212.588 188.714 212.313 189.438 212.313C190.161 212.313 190.687 212.588 191.017 213.137C191.353 213.687 191.52 214.456 191.52 215.446C191.52 216.435 191.353 217.205 191.017 217.754C190.687 218.304 190.161 218.579 189.438 218.579ZM189.438 217.945C189.675 217.945 189.877 217.896 190.045 217.798C190.213 217.699 190.349 217.56 190.453 217.381C190.557 217.202 190.632 216.991 190.679 216.748C190.731 216.505 190.757 216.236 190.757 215.94V214.951C190.757 214.656 190.731 214.387 190.679 214.144C190.632 213.901 190.557 213.69 190.453 213.511C190.349 213.331 190.213 213.192 190.045 213.094C189.877 212.996 189.675 212.946 189.438 212.946C189.2 212.946 188.998 212.996 188.83 213.094C188.662 213.192 188.526 213.331 188.422 213.511C188.318 213.69 188.24 213.901 188.188 214.144C188.142 214.387 188.118 214.656 188.118 214.951V215.94C188.118 216.236 188.142 216.505 188.188 216.748C188.24 216.991 188.318 217.202 188.422 217.381C188.526 217.56 188.662 217.699 188.83 217.798C188.998 217.896 189.2 217.945 189.438 217.945Z"/><path fill="#999" d="M250.16 218.475V217.832H251.853V212.955H251.792L250.264 214.378L249.839 213.918L251.445 212.417H252.581V217.832H254.144V218.475H250.16ZM259.226 218.475H255.251V217.728L257.23 215.906C257.513 215.645 257.75 215.371 257.941 215.081C258.132 214.786 258.228 214.491 258.228 214.196V214.092C258.228 213.756 258.135 213.484 257.95 213.276C257.765 213.068 257.484 212.964 257.108 212.964C256.923 212.964 256.761 212.99 256.622 213.042C256.483 213.094 256.362 213.166 256.258 213.259C256.159 213.351 256.076 213.461 256.006 213.589C255.942 213.71 255.89 213.843 255.85 213.988L255.199 213.736C255.257 213.557 255.335 213.383 255.433 213.215C255.537 213.042 255.665 212.889 255.815 212.755C255.971 212.622 256.157 212.515 256.371 212.434C256.59 212.353 256.848 212.313 257.143 212.313C257.438 212.313 257.701 212.356 257.933 212.443C258.164 212.53 258.358 212.651 258.514 212.808C258.67 212.964 258.789 213.149 258.87 213.363C258.957 213.577 259 213.814 259 214.075C259 214.312 258.965 214.532 258.896 214.734C258.832 214.937 258.743 215.13 258.627 215.316C258.511 215.495 258.37 215.671 258.202 215.845C258.04 216.019 257.863 216.192 257.672 216.366L256.041 217.832H259.226V218.475ZM261.071 218.579C260.886 218.579 260.75 218.532 260.663 218.44C260.582 218.347 260.542 218.226 260.542 218.075V217.963C260.542 217.812 260.582 217.691 260.663 217.598C260.75 217.506 260.886 217.459 261.071 217.459C261.256 217.459 261.389 217.506 261.47 217.598C261.557 217.691 261.6 217.812 261.6 217.963V218.075C261.6 218.226 261.557 218.347 261.47 218.44C261.389 218.532 261.256 218.579 261.071 218.579ZM261.071 215.012C260.886 215.012 260.75 214.966 260.663 214.873C260.582 214.78 260.542 214.659 260.542 214.509V214.396C260.542 214.245 260.582 214.124 260.663 214.031C260.75 213.939 260.886 213.892 261.071 213.892C261.256 213.892 261.389 213.939 261.47 214.031C261.557 214.124 261.6 214.245 261.6 214.396V214.509C261.6 214.659 261.557 214.78 261.47 214.873C261.389 214.966 261.256 215.012 261.071 215.012ZM264.942 218.579C264.218 218.579 263.689 218.304 263.353 217.754C263.024 217.205 262.859 216.435 262.859 215.446C262.859 214.456 263.024 213.687 263.353 213.137C263.689 212.588 264.218 212.313 264.942 212.313C265.665 212.313 266.191 212.588 266.521 213.137C266.857 213.687 267.024 214.456 267.024 215.446C267.024 216.435 266.857 217.205 266.521 217.754C266.191 218.304 265.665 218.579 264.942 218.579ZM264.942 217.945C265.179 217.945 265.381 217.896 265.549 217.798C265.717 217.699 265.853 217.56 265.957 217.381C266.061 217.202 266.136 216.991 266.183 216.748C266.235 216.505 266.261 216.236 266.261 215.94V214.951C266.261 214.656 266.235 214.387 266.183 214.144C266.136 213.901 266.061 213.69 265.957 213.511C265.853 213.331 265.717 213.192 265.549 213.094C265.381 212.996 265.179 212.946 264.942 212.946C264.704 212.946 264.502 212.996 264.334 213.094C264.166 213.192 264.03 213.331 263.926 213.511C263.822 213.69 263.744 213.901 263.692 214.144C263.646 214.387 263.622 214.656 263.622 214.951V215.94C263.622 216.236 263.646 216.505 263.692 216.748C263.744 216.991 263.822 217.202 263.926 217.381C264.03 217.56 264.166 217.699 264.334 217.798C264.502 217.896 264.704 217.945 264.942 217.945ZM270.145 218.579C269.422 218.579 268.893 218.304 268.557 217.754C268.227 217.205 268.062 216.435 268.062 215.446C268.062 214.456 268.227 213.687 268.557 213.137C268.893 212.588 269.422 212.313 270.145 212.313C270.868 212.313 271.395 212.588 271.725 213.137C272.06 213.687 272.228 214.456 272.228 215.446C272.228 216.435 272.06 217.205 271.725 217.754C271.395 218.304 270.868 218.579 270.145 218.579ZM270.145 217.945C270.382 217.945 270.585 217.896 270.753 217.798C270.921 217.699 271.056 217.56 271.161 217.381C271.265 217.202 271.34 216.991 271.386 216.748C271.438 216.505 271.464 216.236 271.464 215.94V214.951C271.464 214.656 271.438 214.387 271.386 214.144C271.34 213.901 271.265 213.69 271.161 213.511C271.056 213.331 270.921 213.192 270.753 213.094C270.585 212.996 270.382 212.946 270.145 212.946C269.908 212.946 269.706 212.996 269.538 213.094C269.37 213.192 269.234 213.331 269.13 213.511C269.026 213.69 268.948 213.901 268.896 214.144C268.849 214.387 268.826 214.656 268.826 214.951V215.94C268.826 216.236 268.849 216.505 268.896 216.748C268.948 216.991 269.026 217.202 269.13 217.381C269.234 217.56 269.37 217.699 269.538 217.798C269.706 217.896 269.908 217.945 270.145 217.945Z"/><path fill="#999" d="M330.869 218.475V217.832H332.561V212.955H332.501L330.973 214.378L330.548 213.918L332.154 212.417H333.29V217.832H334.853V218.475H330.869ZM337.921 218.579C337.609 218.579 337.325 218.527 337.071 218.423C336.822 218.313 336.608 218.159 336.429 217.963C336.255 217.76 336.122 217.514 336.029 217.225C335.937 216.936 335.891 216.612 335.891 216.253C335.891 215.802 335.957 215.379 336.09 214.986C336.223 214.587 336.394 214.225 336.602 213.901C336.816 213.571 337.051 213.282 337.305 213.033C337.56 212.779 337.809 212.573 338.052 212.417H338.989C338.665 212.654 338.376 212.886 338.121 213.111C337.866 213.337 337.644 213.574 337.453 213.823C337.262 214.066 337.1 214.329 336.967 214.613C336.834 214.89 336.727 215.206 336.646 215.559L336.689 215.576C336.834 215.327 337.019 215.122 337.244 214.96C337.476 214.792 337.777 214.708 338.147 214.708C338.407 214.708 338.648 214.752 338.867 214.838C339.087 214.925 339.275 215.049 339.431 215.211C339.588 215.373 339.709 215.57 339.796 215.802C339.889 216.033 339.935 216.291 339.935 216.574C339.935 216.869 339.886 217.141 339.787 217.39C339.695 217.633 339.559 217.844 339.379 218.023C339.206 218.197 338.995 218.333 338.746 218.431C338.497 218.53 338.222 218.579 337.921 218.579ZM337.913 217.945C338.312 217.945 338.621 217.835 338.841 217.615C339.067 217.396 339.18 217.08 339.18 216.669V216.6C339.18 216.189 339.067 215.874 338.841 215.654C338.621 215.434 338.312 215.324 337.913 215.324C337.514 215.324 337.201 215.434 336.975 215.654C336.756 215.874 336.646 216.189 336.646 216.6V216.669C336.646 217.08 336.756 217.396 336.975 217.615C337.201 217.835 337.514 217.945 337.913 217.945ZM341.78 218.579C341.595 218.579 341.459 218.532 341.372 218.44C341.291 218.347 341.251 218.226 341.251 218.075V217.963C341.251 217.812 341.291 217.691 341.372 217.598C341.459 217.506 341.595 217.459 341.78 217.459C341.965 217.459 342.098 217.506 342.179 217.598C342.266 217.691 342.309 217.812 342.309 217.963V218.075C342.309 218.226 342.266 218.347 342.179 218.44C342.098 218.532 341.965 218.579 341.78 218.579ZM341.78 215.012C341.595 215.012 341.459 214.966 341.372 214.873C341.291 214.78 341.251 214.659 341.251 214.509V214.396C341.251 214.245 341.291 214.124 341.372 214.031C341.459 213.939 341.595 213.892 341.78 213.892C341.965 213.892 342.098 213.939 342.179 214.031C342.266 214.124 342.309 214.245 342.309 214.396V214.509C342.309 214.659 342.266 214.78 342.179 214.873C342.098 214.966 341.965 215.012 341.78 215.012ZM345.65 218.579C344.927 218.579 344.398 218.304 344.062 217.754C343.733 217.205 343.568 216.435 343.568 215.446C343.568 214.456 343.733 213.687 344.062 213.137C344.398 212.588 344.927 212.313 345.65 212.313C346.374 212.313 346.9 212.588 347.23 213.137C347.566 213.687 347.733 214.456 347.733 215.446C347.733 216.435 347.566 217.205 347.23 217.754C346.9 218.304 346.374 218.579 345.65 218.579ZM345.65 217.945C345.888 217.945 346.09 217.896 346.258 217.798C346.426 217.699 346.562 217.56 346.666 217.381C346.77 217.202 346.845 216.991 346.892 216.748C346.944 216.505 346.97 216.236 346.97 215.94V214.951C346.97 214.656 346.944 214.387 346.892 214.144C346.845 213.901 346.77 213.69 346.666 213.511C346.562 213.331 346.426 213.192 346.258 213.094C346.09 212.996 345.888 212.946 345.65 212.946C345.413 212.946 345.211 212.996 345.043 213.094C344.875 213.192 344.739 213.331 344.635 213.511C344.531 213.69 344.453 213.901 344.401 214.144C344.355 214.387 344.331 214.656 344.331 214.951V215.94C344.331 216.236 344.355 216.505 344.401 216.748C344.453 216.991 344.531 217.202 344.635 217.381C344.739 217.56 344.875 217.699 345.043 217.798C345.211 217.896 345.413 217.945 345.65 217.945ZM350.854 218.579C350.131 218.579 349.602 218.304 349.266 217.754C348.936 217.205 348.771 216.435 348.771 215.446C348.771 214.456 348.936 213.687 349.266 213.137C349.602 212.588 350.131 212.313 350.854 212.313C351.577 212.313 352.104 212.588 352.434 213.137C352.769 213.687 352.937 214.456 352.937 215.446C352.937 216.435 352.769 217.205 352.434 217.754C352.104 218.304 351.577 218.579 350.854 218.579ZM350.854 217.945C351.091 217.945 351.294 217.896 351.462 217.798C351.629 217.699 351.765 217.56 351.87 217.381C351.974 217.202 352.049 216.991 352.095 216.748C352.147 216.505 352.173 216.236 352.173 215.94V214.951C352.173 214.656 352.147 214.387 352.095 214.144C352.049 213.901 351.974 213.69 351.87 213.511C351.765 213.331 351.629 213.192 351.462 213.094C351.294 212.996 351.091 212.946 350.854 212.946C350.617 212.946 350.415 212.996 350.247 213.094C350.079 213.192 349.943 213.331 349.839 213.511C349.735 213.69 349.657 213.901 349.605 214.144C349.558 214.387 349.535 214.656 349.535 214.951V215.94C349.535 216.236 349.558 216.505 349.605 216.748C349.657 216.991 349.735 217.202 349.839 217.381C349.943 217.56 350.079 217.699 350.247 217.798C350.415 217.896 350.617 217.945 350.854 217.945Z"/><path fill="#999" d="M415.442 218.475H411.467V217.728L413.446 215.906C413.729 215.645 413.967 215.371 414.158 215.081C414.349 214.786 414.444 214.491 414.444 214.196V214.092C414.444 213.756 414.351 213.484 414.166 213.276C413.981 213.068 413.701 212.964 413.324 212.964C413.139 212.964 412.977 212.99 412.838 213.042C412.7 213.094 412.578 213.166 412.474 213.259C412.376 213.351 412.292 213.461 412.222 213.589C412.159 213.71 412.107 213.843 412.066 213.988L411.415 213.736C411.473 213.557 411.551 213.383 411.65 213.215C411.754 213.042 411.881 212.889 412.031 212.755C412.188 212.622 412.373 212.515 412.587 212.434C412.807 212.353 413.064 212.313 413.359 212.313C413.654 212.313 413.918 212.356 414.149 212.443C414.38 212.53 414.574 212.651 414.73 212.808C414.887 212.964 415.005 213.149 415.086 213.363C415.173 213.577 415.216 213.814 415.216 214.075C415.216 214.312 415.182 214.532 415.112 214.734C415.049 214.937 414.959 215.13 414.843 215.316C414.728 215.495 414.586 215.671 414.418 215.845C414.256 216.019 414.08 216.192 413.889 216.366L412.257 217.832H415.442V218.475ZM418.624 218.579C417.9 218.579 417.371 218.304 417.036 217.754C416.706 217.205 416.541 216.435 416.541 215.446C416.541 214.456 416.706 213.687 417.036 213.137C417.371 212.588 417.9 212.313 418.624 212.313C419.347 212.313 419.873 212.588 420.203 213.137C420.539 213.687 420.707 214.456 420.707 215.446C420.707 216.435 420.539 217.205 420.203 217.754C419.873 218.304 419.347 218.579 418.624 218.579ZM418.624 217.945C418.861 217.945 419.063 217.896 419.231 217.798C419.399 217.699 419.535 217.56 419.639 217.381C419.743 217.202 419.818 216.991 419.865 216.748C419.917 216.505 419.943 216.236 419.943 215.94V214.951C419.943 214.656 419.917 214.387 419.865 214.144C419.818 213.901 419.743 213.69 419.639 213.511C419.535 213.331 419.399 213.192 419.231 213.094C419.063 212.996 418.861 212.946 418.624 212.946C418.386 212.946 418.184 212.996 418.016 213.094C417.848 213.192 417.712 213.331 417.608 213.511C417.504 213.69 417.426 213.901 417.374 214.144C417.328 214.387 417.305 214.656 417.305 214.951V215.94C417.305 216.236 417.328 216.505 417.374 216.748C417.426 216.991 417.504 217.202 417.608 217.381C417.712 217.56 417.848 217.699 418.016 217.798C418.184 217.896 418.386 217.945 418.624 217.945ZM422.491 218.579C422.306 218.579 422.17 218.532 422.083 218.44C422.002 218.347 421.962 218.226 421.962 218.075V217.963C421.962 217.812 422.002 217.691 422.083 217.598C422.17 217.506 422.306 217.459 422.491 217.459C422.676 217.459 422.809 217.506 422.89 217.598C422.977 217.691 423.02 217.812 423.02 217.963V218.075C423.02 218.226 422.977 218.347 422.89 218.44C422.809 218.532 422.676 218.579 422.491 218.579ZM422.491 215.012C422.306 215.012 422.17 214.966 422.083 214.873C422.002 214.78 421.962 214.659 421.962 214.509V214.396C421.962 214.245 422.002 214.124 422.083 214.031C422.17 213.939 422.306 213.892 422.491 213.892C422.676 213.892 422.809 213.939 422.89 214.031C422.977 214.124 423.02 214.245 423.02 214.396V214.509C423.02 214.659 422.977 214.78 422.89 214.873C422.809 214.966 422.676 215.012 422.491 215.012ZM426.361 218.579C425.638 218.579 425.109 218.304 424.773 217.754C424.443 217.205 424.279 216.435 424.279 215.446C424.279 214.456 424.443 213.687 424.773 213.137C425.109 212.588 425.638 212.313 426.361 212.313C427.085 212.313 427.611 212.588 427.941 213.137C428.276 213.687 428.444 214.456 428.444 215.446C428.444 216.435 428.276 217.205 427.941 217.754C427.611 218.304 427.085 218.579 426.361 218.579ZM426.361 217.945C426.599 217.945 426.801 217.896 426.969 217.798C427.137 217.699 427.273 217.56 427.377 217.381C427.481 217.202 427.556 216.991 427.602 216.748C427.655 216.505 427.681 216.236 427.681 215.94V214.951C427.681 214.656 427.655 214.387 427.602 214.144C427.556 213.901 427.481 213.69 427.377 213.511C427.273 213.331 427.137 213.192 426.969 213.094C426.801 212.996 426.599 212.946 426.361 212.946C426.124 212.946 425.922 212.996 425.754 213.094C425.586 213.192 425.45 213.331 425.346 213.511C425.242 213.69 425.164 213.901 425.112 214.144C425.065 214.387 425.042 214.656 425.042 214.951V215.94C425.042 216.236 425.065 216.505 425.112 216.748C425.164 216.991 425.242 217.202 425.346 217.381C425.45 217.56 425.586 217.699 425.754 217.798C425.922 217.896 426.124 217.945 426.361 217.945ZM431.565 218.579C430.842 218.579 430.313 218.304 429.977 217.754C429.647 217.205 429.482 216.435 429.482 215.446C429.482 214.456 429.647 213.687 429.977 213.137C430.313 212.588 430.842 212.313 431.565 212.313C432.288 212.313 432.815 212.588 433.145 213.137C433.48 213.687 433.648 214.456 433.648 215.446C433.648 216.435 433.48 217.205 433.145 217.754C432.815 218.304 432.288 218.579 431.565 218.579ZM431.565 217.945C431.802 217.945 432.005 217.896 432.173 217.798C432.34 217.699 432.476 217.56 432.581 217.381C432.685 217.202 432.76 216.991 432.806 216.748C432.858 216.505 432.884 216.236 432.884 215.94V214.951C432.884 214.656 432.858 214.387 432.806 214.144C432.76 213.901 432.685 213.69 432.581 213.511C432.476 213.331 432.34 213.192 432.173 213.094C432.005 212.996 431.802 212.946 431.565 212.946C431.328 212.946 431.125 212.996 430.958 213.094C430.79 213.192 430.654 213.331 430.55 213.511C430.446 213.69 430.368 213.901 430.315 214.144C430.269 214.387 430.246 214.656 430.246 214.951V215.94C430.246 216.236 430.269 216.505 430.315 216.748C430.368 216.991 430.446 217.202 430.55 217.381C430.654 217.56 430.79 217.699 430.958 217.798C431.125 217.896 431.328 217.945 431.565 217.945Z"/><g filter="url(#filter1_d_5565_79654)"><circle cx="273.695" cy="200.4" r="6.943" fill="#fff"/><circle cx="273.695" cy="200.4" r="6.943" stroke="#000" stroke-opacity=".1" stroke-width=".868"/></g><rect width=".868" height="6.943" x="271.959" y="196.928" fill="#CCC" rx=".434"/><rect width=".868" height="6.943" x="274.562" y="196.928" fill="#CCC" rx=".434"/><g filter="url(#filter2_d_5565_79654)"><circle cx="311.013" cy="200.4" r="6.943" fill="#fff"/><circle cx="311.013" cy="200.4" r="6.943" stroke="#000" stroke-opacity=".1" stroke-width=".868"/></g><rect width=".868" height="6.943" x="309.277" y="196.928" fill="#CCC" rx=".434"/><rect width=".868" height="6.943" x="311.881" y="196.928" fill="#CCC" rx=".434"/><rect width="77.564" height="18.207" x="357.875" y="15.547" fill="#000" fill-opacity=".05" rx="2.604"/><g clip-path="url(#clip0_5565_79654)"><path fill="#666" d="M367.423 21.5523C367.594 21.5523 367.733 21.6911 367.733 21.8622V24.3418L369.283 24.3418C369.454 24.3418 369.593 24.4806 369.593 24.6518C369.593 24.8229 369.454 24.9617 369.283 24.9617L367.423 24.9617C367.252 24.9617 367.113 24.8229 367.113 24.6518V21.8622C367.113 21.6911 367.252 21.5523 367.423 21.5523Z"/><path fill="#666" fill-rule="evenodd" d="M367.423 28.991C369.82 28.991 371.762 27.0483 371.762 24.6518C371.762 22.2552 369.82 20.3125 367.423 20.3125C365.027 20.3125 363.084 22.2552 363.084 24.6518C363.084 27.0483 365.027 28.991 367.423 28.991ZM367.423 28.3711C369.477 28.3711 371.143 26.7059 371.143 24.6518C371.143 22.5976 369.477 20.9324 367.423 20.9324C365.369 20.9324 363.704 22.5976 363.704 24.6518C363.704 26.7059 365.369 28.3711 367.423 28.3711Z" clip-rule="evenodd"/></g><path fill="#666" d="M378.712 26.5516H380.058V27.1504H376.656V26.5516H378.001V21.9173L376.925 22.5942L376.595 22.0474L378.2 21.032H378.712V26.5516ZM384.176 24.0088C384.535 24.1129 384.81 24.2923 385.001 24.5468C385.192 24.7956 385.287 25.1109 385.287 25.4928C385.287 26.0251 385.105 26.4445 384.741 26.7512C384.382 27.0578 383.893 27.2111 383.274 27.2111C382.88 27.2111 382.501 27.1446 382.137 27.0115C381.772 26.8785 381.466 26.6933 381.217 26.4561L381.486 25.9094C382.042 26.378 382.632 26.6123 383.257 26.6123C383.69 26.6123 384.02 26.5169 384.246 26.3259C384.471 26.1292 384.584 25.8428 384.584 25.4668C384.584 24.7204 384.116 24.3472 383.178 24.3472H382.475V23.7484H383.04C383.491 23.7484 383.838 23.6501 384.081 23.4533C384.324 23.2508 384.445 22.9616 384.445 22.5855C384.445 22.2557 384.347 22.004 384.15 21.8305C383.954 21.6511 383.673 21.5614 383.309 21.5614C382.718 21.5614 382.14 21.7958 381.573 22.2644L381.304 21.7176C381.553 21.4804 381.856 21.2953 382.215 21.1622C382.574 21.0292 382.947 20.9626 383.335 20.9626C383.89 20.9626 384.33 21.1044 384.654 21.3879C384.984 21.6656 385.148 22.0416 385.148 22.5161C385.148 22.869 385.062 23.1785 384.888 23.4447C384.72 23.705 384.483 23.8931 384.176 24.0088ZM386.482 22.924H387.367V23.8178H386.482V22.924ZM386.482 26.2652H387.367V27.1504H386.482V26.2652ZM391.363 24.0088C391.722 24.1129 391.997 24.2923 392.188 24.5468C392.379 24.7956 392.474 25.1109 392.474 25.4928C392.474 26.0251 392.292 26.4445 391.927 26.7512C391.569 27.0578 391.08 27.2111 390.461 27.2111C390.067 27.2111 389.688 27.1446 389.324 27.0115C388.959 26.8785 388.653 26.6933 388.404 26.4561L388.673 25.9094C389.228 26.378 389.819 26.6123 390.443 26.6123C390.877 26.6123 391.207 26.5169 391.433 26.3259C391.658 26.1292 391.771 25.8428 391.771 25.4668C391.771 24.7204 391.303 24.3472 390.365 24.3472H389.662V23.7484H390.226C390.678 23.7484 391.025 23.6501 391.268 23.4533C391.511 23.2508 391.632 22.9616 391.632 22.5855C391.632 22.2557 391.534 22.004 391.337 21.8305C391.141 21.6511 390.86 21.5614 390.495 21.5614C389.905 21.5614 389.327 21.7958 388.76 22.2644L388.491 21.7176C388.74 21.4804 389.043 21.2953 389.402 21.1622C389.761 21.0292 390.134 20.9626 390.521 20.9626C391.077 20.9626 391.517 21.1044 391.841 21.3879C392.17 21.6656 392.335 22.0416 392.335 22.5161C392.335 22.869 392.249 23.1785 392.075 23.4447C391.907 23.705 391.67 23.8931 391.363 24.0088ZM395.725 27.2198C395.025 27.2198 394.493 26.9537 394.128 26.4214C393.764 25.8891 393.582 25.1138 393.582 24.0956C393.582 23.0715 393.764 22.2933 394.128 21.761C394.493 21.2288 395.025 20.9626 395.725 20.9626C396.425 20.9626 396.958 21.2288 397.322 21.761C397.687 22.2875 397.869 23.0628 397.869 24.0869C397.869 25.1109 397.687 25.8891 397.322 26.4214C396.958 26.9537 396.425 27.2198 395.725 27.2198ZM395.725 26.621C396.211 26.621 396.57 26.4156 396.801 26.0048C397.033 25.594 397.148 24.9547 397.148 24.0869C397.148 23.2132 397.033 22.5768 396.801 22.1776C396.576 21.7726 396.217 21.5701 395.725 21.5701C395.239 21.5701 394.88 21.7726 394.649 22.1776C394.418 22.5826 394.302 23.219 394.302 24.0869C394.302 24.9547 394.418 25.594 394.649 26.0048C394.88 26.4156 395.239 26.621 395.725 26.621ZM400.563 25.0675V24.6163H404.902V25.0675H400.563ZM410.324 26.5516H411.67V27.1504H408.268V26.5516H409.613V21.9173L408.537 22.5942L408.207 22.0474L409.812 21.032H410.324V26.5516ZM417.238 25.2324V25.8226H416.318V27.1504H415.615V25.8226H412.786V25.2845L415.736 21.032H416.318V25.2324H417.238ZM413.523 25.2324H415.615V22.221L413.523 25.2324ZM418.094 22.924H418.979V23.8178H418.094V22.924ZM418.094 26.2652H418.979V27.1504H418.094V26.2652ZM422.975 24.0088C423.334 24.1129 423.609 24.2923 423.8 24.5468C423.991 24.7956 424.086 25.1109 424.086 25.4928C424.086 26.0251 423.904 26.4445 423.54 26.7512C423.181 27.0578 422.692 27.2111 422.073 27.2111C421.679 27.2111 421.3 27.1446 420.936 27.0115C420.571 26.8785 420.265 26.6933 420.016 26.4561L420.285 25.9094C420.841 26.378 421.431 26.6123 422.056 26.6123C422.489 26.6123 422.819 26.5169 423.045 26.3259C423.271 26.1292 423.383 25.8428 423.383 25.4668C423.383 24.7204 422.915 24.3472 421.977 24.3472H421.274V23.7484H421.839C422.29 23.7484 422.637 23.6501 422.88 23.4533C423.123 23.2508 423.244 22.9616 423.244 22.5855C423.244 22.2557 423.146 22.004 422.949 21.8305C422.753 21.6511 422.472 21.5614 422.108 21.5614C421.517 21.5614 420.939 21.7958 420.372 22.2644L420.103 21.7176C420.352 21.4804 420.655 21.2953 421.014 21.1622C421.373 21.0292 421.746 20.9626 422.134 20.9626C422.689 20.9626 423.129 21.1044 423.453 21.3879C423.783 21.6656 423.947 22.0416 423.947 22.5161C423.947 22.869 423.861 23.1785 423.687 23.4447C423.519 23.705 423.282 23.8931 422.975 24.0088ZM427.337 27.2198C426.637 27.2198 426.105 26.9537 425.74 26.4214C425.376 25.8891 425.194 25.1138 425.194 24.0956C425.194 23.0715 425.376 22.2933 425.74 21.761C426.105 21.2288 426.637 20.9626 427.337 20.9626C428.037 20.9626 428.57 21.2288 428.934 21.761C429.299 22.2875 429.481 23.0628 429.481 24.0869C429.481 25.1109 429.299 25.8891 428.934 26.4214C428.57 26.9537 428.037 27.2198 427.337 27.2198ZM427.337 26.621C427.823 26.621 428.182 26.4156 428.413 26.0048C428.645 25.594 428.761 24.9547 428.761 24.0869C428.761 23.2132 428.645 22.5768 428.413 22.1776C428.188 21.7726 427.829 21.5701 427.337 21.5701C426.851 21.5701 426.493 21.7726 426.261 22.1776C426.03 22.5826 425.914 23.219 425.914 24.0869C425.914 24.9547 426.03 25.594 426.261 26.0048C426.493 26.4156 426.851 26.621 427.337 26.621Z"/><defs><filter id="filter0_dd_5565_79654" width="456.693" height="243.201" x=".653" y=".436" color-interpolation-filters="sRGB" filterUnits="userSpaceOnUse"><feFlood flood-opacity="0" result="BackgroundImageFix"/><feColorMatrix in="SourceAlpha" result="hardAlpha" type="matrix" values="0 0 0 0 0 0 0 0 0 0 0 0 0 0 0 0 0 0 127 0"/><feOffset dy="2.782"/><feGaussianBlur stdDeviation="4.173"/><feColorMatrix type="matrix" values="0 0 0 0 0 0 0 0 0 0 0 0 0 0 0 0 0 0 0.1 0"/><feBlend in2="BackgroundImageFix" mode="normal" result="effect1_dropShadow_5565_79654"/><feColorMatrix in="SourceAlpha" result="hardAlpha" type="matrix" values="0 0 0 0 0 0 0 0 0 0 0 0 0 0 0 0 0 0 127 0"/><feOffset dy=".556"/><feGaussianBlur stdDeviation=".835"/><feColorMatrix type="matrix" values="0 0 0 0 0 0 0 0 0 0 0 0 0 0 0 0 0 0 0.05 0"/><feBlend in2="effect1_dropShadow_5565_79654" mode="normal" result="effect2_dropShadow_5565_79654"/><feBlend in="SourceGraphic" in2="effect2_dropShadow_5565_79654" mode="normal" result="shape"/></filter><filter id="filter1_d_5565_79654" width="19.961" height="19.961" x="263.715" y="191.288" color-interpolation-filters="sRGB" filterUnits="userSpaceOnUse"><feFlood flood-opacity="0" result="BackgroundImageFix"/><feColorMatrix in="SourceAlpha" result="hardAlpha" type="matrix" values="0 0 0 0 0 0 0 0 0 0 0 0 0 0 0 0 0 0 127 0"/><feOffset dy=".868"/><feGaussianBlur stdDeviation="1.302"/><feColorMatrix type="matrix" values="0 0 0 0 0 0 0 0 0 0 0 0 0 0 0 0 0 0 0.1 0"/><feBlend in2="BackgroundImageFix" mode="normal" result="effect1_dropShadow_5565_79654"/><feBlend in="SourceGraphic" in2="effect1_dropShadow_5565_79654" mode="normal" result="shape"/></filter><filter id="filter2_d_5565_79654" width="19.961" height="19.961" x="301.033" y="191.288" color-interpolation-filters="sRGB" filterUnits="userSpaceOnUse"><feFlood flood-opacity="0" result="BackgroundImageFix"/><feColorMatrix in="SourceAlpha" result="hardAlpha" type="matrix" values="0 0 0 0 0 0 0 0 0 0 0 0 0 0 0 0 0 0 127 0"/><feOffset dy=".868"/><feGaussianBlur stdDeviation="1.302"/><feColorMatrix type="matrix" values="0 0 0 0 0 0 0 0 0 0 0 0 0 0 0 0 0 0 0.1 0"/><feBlend in2="BackgroundImageFix" mode="normal" result="effect1_dropShadow_5565_79654"/><feBlend in="SourceGraphic" in2="effect1_dropShadow_5565_79654" mode="normal" result="shape"/></filter><linearGradient id="paint0_linear_5565_79654" x1="219.132" x2="219.132" y1="0" y2="156.213" gradientUnits="userSpaceOnUse"><stop stop-color="#E7FBFB"/><stop offset="1" stop-color="#F4F8FA"/></linearGradient><clipPath id="clip0_5565_79654"><rect width="8.678" height="8.678" fill="#fff" transform="translate(363.082 20.3105)"/></clipPath></defs></svg>