<svg width="20" height="20" viewBox="0 0 20 20" fill="none" xmlns="http://www.w3.org/2000/svg">
<path fill-rule="evenodd" clip-rule="evenodd" d="M5.00042 0H15.0004C15.3949 0 15.7147 0.319797 15.7147 0.714286V19.2857C15.7147 19.6579 15.43 19.9636 15.0665 19.997C14.8941 20.0212 14.7078 19.9757 14.5356 19.8281L10.0006 15.9409L5.46522 19.8283C5.2894 19.9791 5.09904 20.0233 4.92365 19.9957C4.56526 19.9574 4.28613 19.654 4.28613 19.2854V0.714286C4.28613 0.319797 4.60593 0 5.00042 0ZM5.7147 17.733L9.52099 14.4704C9.53923 14.4539 9.55815 14.4384 9.57766 14.4241C9.73533 14.3053 9.90257 14.268 10.0589 14.2881C10.2038 14.2998 10.3464 14.3558 10.4653 14.4577L14.2861 17.7327V1.42857H5.7147V17.733Z" fill="#1EA7FD"/>
</svg>
