<svg width="20" height="20" viewBox="0 0 20 20" fill="none" xmlns="http://www.w3.org/2000/svg">
<path d="M2.85728 1.43408C2.0683 1.43408 1.42871 2.07368 1.42871 2.86265V17.1484C1.42871 17.9373 2.0683 18.5769 2.85728 18.5769H17.143C17.932 18.5769 18.5716 17.9373 18.5716 17.1484V10.7198C18.5716 10.3253 18.2518 10.0055 17.8573 10.0055C17.4628 10.0055 17.143 10.3253 17.143 10.7198V17.1484H2.85728V2.86265L9.28585 2.86265C9.68034 2.86265 10.0001 2.54286 10.0001 2.14837C10.0001 1.75388 9.68034 1.43408 9.28585 1.43408H2.85728Z" fill="#FF4785"/>
<path d="M10.5052 10.5106L17.143 3.87281V6.43408C17.143 6.82857 17.4628 7.14837 17.8573 7.14837C18.2518 7.14837 18.5716 6.82857 18.5716 6.43408V2.14837C18.5716 1.75388 18.2518 1.43408 17.8573 1.43408H13.5716C13.1771 1.43408 12.8573 1.75388 12.8573 2.14837C12.8573 2.54286 13.1771 2.86265 13.5716 2.86265H16.1328L9.49506 9.50043C9.21612 9.77938 9.21612 10.2316 9.49506 10.5106C9.77401 10.7895 10.2263 10.7895 10.5052 10.5106Z" fill="#FF4785"/>
</svg>
