<svg width="20" height="20" viewBox="0 0 20 20" fill="none" xmlns="http://www.w3.org/2000/svg">
<path fill-rule="evenodd" clip-rule="evenodd" d="M18.5716 2.85714C18.5716 1.27919 17.2924 0 15.7144 0H2.143C1.74851 0 1.42871 0.319796 1.42871 0.714285V19.2857C1.42871 19.6802 1.74851 20 2.143 20H15.7144C17.2924 20 18.5716 18.7208 18.5716 17.1429V2.85714ZM4.28585 18.5714H15.7144C16.5034 18.5714 17.143 17.9318 17.143 17.1429V2.85714C17.143 2.06816 16.5034 1.42857 15.7144 1.42857H10.0001V10.0056C10.0001 10.4001 9.68029 10.7199 9.2858 10.7199C9.08714 10.7199 8.90742 10.6388 8.77794 10.5079L8.77514 10.5051L7.85546 9.58539L6.93477 10.5097C6.65637 10.7892 6.20411 10.79 5.92462 10.5116C5.78649 10.3741 5.71642 10.194 5.71447 10.0133L5.71442 10.0056V1.42857H4.28585V18.5714ZM7.143 1.42857V8.27638L7.35122 8.06734C7.62962 7.78785 8.08188 7.78697 8.36137 8.06537C8.37987 8.0838 8.39715 8.10298 8.41321 8.12283L8.57152 8.28114V1.42857H7.143Z" fill="#FFAE00"/>
</svg>
