<svg xmlns="http://www.w3.org/2000/svg" width="140" height="140"><g fill="#66BF3C" fill-rule="evenodd"><path d="M51.8699337 40.4247788H45.821297c-3.6079768 0-6.2608611.3893766-7.9587325 1.1681416-1.6978714.7787649-3.121586 2.327422-4.2711865 4.6460177-1.1496004 2.3185956-1.8481933 5.0707805-2.0957995 8.2566371H25.5V34h72v20.4955752h-5.9955785c-1.1319143-5.5221515-2.7236448-9.2477779-4.7752395-11.1769911-2.0515946-1.9292132-5.3234853-2.8938053-9.8157701-2.8938053h-6.2078113v50.8672566c0 3.2920519.5571057 5.5840643 1.6713338 6.8761062s3.4576093 1.9380534 7.0302137 1.9380534h1.8570376V106H41.5235814v-5.893805h1.697863c3.6079767 0 5.9513579-.6637105 7.0302137-1.9911508 1.0788558-1.3274402 1.6182756-3.6017538 1.6182756-6.8230088V40.4247788zM122.5 10h4v120h-4z"/></g></svg>