<svg xmlns="http://www.w3.org/2000/svg" xmlns:xlink="http://www.w3.org/1999/xlink" width="140" height="140"><defs><path id="a" d="M3.10139626 92.146689L.00360047 9.6044623c-.10230804-2.72604596 1.9879264-5.03633815 4.71057899-5.20650394L74.9221252.00996175c2.7713354-.17320846 5.1583598 1.93298953 5.3315682 4.70432488a5.02775823 5.02775823 0 0 1 .0097911.31362166V94.9722623c0 2.7767429-2.2509948 5.0277377-5.0277376 5.0277377a5.02775101 5.02775101 0 0 1-.2255843-.0050633L7.90001259 96.980806c-2.61367494-.1173885-4.70049575-2.2196478-4.79861633-4.834117z"/></defs><g fill="none" fill-rule="evenodd"><g transform="translate(30 6.333333)"><mask id="b" fill="#fff"><use xlink:href="#a"/></mask><use fill="#FF4785" fill-rule="nonzero" xlink:href="#a"/><path fill="#FFF" fill-rule="nonzero" d="M59.2685205 12.291593L59.7480787.75755915 69.3897408 0l.4153704 11.8946502c.0144558.4139613-.3094073.7612619-.7233685.7757178-.1772529.0061898-.3509639-.0506377-.4902872-.1603916l-3.7181347-2.92901385-4.4021806 3.33932245c-.3300098.2503326-.8004702.1857414-1.0508028-.1442684-.1053776-.1389178-.1590603-.3102108-.1518169-.4844236zM46.937759 37.6913677c0 1.9560839 13.1759156 1.0185839 14.9446661-.3554302 0-13.3204651-7.147449-20.3201599-20.2356349-20.3201599-13.0881859 0-20.421283 7.1086004-20.421283 17.7715065 0 18.5712282 25.0624837 18.9266584 25.0624837 29.0564192 0 2.8434416-1.3923602 4.5317351-4.4555527 4.5317351-3.9914326 0-5.5694408-2.038452-5.3837928-8.969341 0-1.5035656-15.2231382-1.9723156-15.6872583 0-1.1818386 16.7960109 9.2824014 21.640625 21.2566991 21.640625 11.6030017 0 20.6997551-6.1846828 20.6997551-17.3807342 0-19.9040914-25.4337798-19.3709461-25.4337798-29.2341343 0-3.9985898 2.9703685-4.5317351 4.7340247-4.5317351 1.8564803 0 5.1981448.3272146 4.9196728 7.7912489z" mask="url(#b)"/></g><g transform="translate(31 118.333333)"><rect width="14" height="14" fill="#2A0481" rx="7"/><rect width="14" height="14" x="22" fill="#1EA7FD" rx="7"/><rect width="14" height="14" x="44" fill="#37D5D3" rx="7"/><rect width="14" height="14" x="66" fill="#FF4785" rx="7"/></g></g></svg>