<svg xmlns="http://www.w3.org/2000/svg" width="140" height="140"><defs><radialGradient id="a" r="100%" fx="50%" fy="50%"><stop offset="0%" stop-color="#FD8460" stop-opacity="0"/><stop offset="100%" stop-color="#FD8460"/></radialGradient></defs><g fill="none" fill-rule="evenodd"><g fill="url(#a)"><circle cx="69.937" cy="69.937" r="69.489" opacity=".2"/><circle cx="69.937" cy="69.937" r="49.051" opacity=".35"/><circle cx="69.937" cy="69.937" r="28.613" opacity=".5"/></g><path fill="#FC521F" d="M68.5846347 80.3899241l2.51555163-9.38816654 7.18214178 1.92444909c-1.4809255 4.6878385-5.5532295 7.74956838-9.69769342 7.46371745zm-2.87749178-.7710216c-3.73213642-1.82467777-5.72799023-6.51236564-4.66659005-11.3126156l7.1821417 1.92444906-2.51555165 9.38816654zm13.11987384-9.62511854l-16.79196675-4.49939393c1.09077796-2.1777471 2.78049053-3.86457905 4.72546595-4.82565267l-.68752296-2.55764861c-.2132534-.7933223.25785912-1.60843933 1.05225928-1.82061488.79440015-.21217553 1.61126477.258937 1.82451817 1.05225928l.66623499 2.47845537c.95114553-.1048301 1.92159328-.0396513 2.87979119.21709706.8411148.22537604 1.61659721.5833088 2.31525674 1.05049782l1.71795742-1.71519892c.58134403-.58041055 1.52432577-.57997366 2.10620876.00097583.5818829.58094948.58231985 1.52241782.00097582 2.10282837l-1.689028 1.68631587c1.33491556 1.8441239 2.03187753 4.26728614 1.87984939 6.83007941z"/></g></svg>