<svg xmlns="http://www.w3.org/2000/svg" xmlns:xlink="http://www.w3.org/1999/xlink" width="140" height="140"><defs><path id="a" d="M67.4843053 0L101 33.6665305V114c0 5.522847-4.4771525 10-10 10H10c-5.5228475 0-10-4.477153-10-10V10C0 4.4771525 4.4771525 0 10 0h57.4843053z"/><filter id="b" width="132.7%" height="126.6%" x="-16.3%" y="-10.9%" filterUnits="objectBoundingBox"><feOffset dy="3" in="SourceAlpha" result="shadowOffsetOuter1"/><feGaussianBlur in="shadowOffsetOuter1" result="shadowBlurOuter1" stdDeviation="5"/><feComposite in="shadowBlurOuter1" in2="SourceAlpha" operator="out" result="shadowBlurOuter1"/><feColorMatrix in="shadowBlurOuter1" result="shadowMatrixOuter1" values="0 0 0 0 0 0 0 0 0 0 0 0 0 0 0 0 0 0 0.05 0"/><feOffset in="SourceAlpha" result="shadowOffsetOuter2"/><feGaussianBlur in="shadowOffsetOuter2" result="shadowBlurOuter2" stdDeviation="1.5"/><feComposite in="shadowBlurOuter2" in2="SourceAlpha" operator="out" result="shadowBlurOuter2"/><feColorMatrix in="shadowBlurOuter2" result="shadowMatrixOuter2" values="0 0 0 0 0 0 0 0 0 0 0 0 0 0 0 0 0 0 0.1 0"/><feMerge><feMergeNode in="shadowMatrixOuter1"/><feMergeNode in="shadowMatrixOuter2"/></feMerge></filter><linearGradient id="f" x1="65.088%" x2="65.088%" y1="100%" y2="0%"><stop offset="0%" stop-color="#F8F8F8" stop-opacity=".97"/><stop offset="100%" stop-color="#FFF" stop-opacity=".8"/></linearGradient><path id="e" d="M67 0h24c5.5228475 0 10 4.4771525 10 10v24H77c-5.5228475 0-10-4.4771525-10-10V0z"/><filter id="d" width="247.1%" height="247.1%" x="-73.5%" y="-58.8%" filterUnits="objectBoundingBox"><feOffset dy="5" in="SourceAlpha" result="shadowOffsetOuter1"/><feGaussianBlur in="shadowOffsetOuter1" result="shadowBlurOuter1" stdDeviation="7.5"/><feComposite in="shadowBlurOuter1" in2="SourceAlpha" operator="out" result="shadowBlurOuter1"/><feColorMatrix in="shadowBlurOuter1" result="shadowMatrixOuter1" values="0 0 0 0 0 0 0 0 0 0 0 0 0 0 0 0 0 0 0.1 0"/><feOffset dy="2" in="SourceAlpha" result="shadowOffsetOuter2"/><feGaussianBlur in="shadowOffsetOuter2" result="shadowBlurOuter2" stdDeviation="2.5"/><feComposite in="shadowBlurOuter2" in2="SourceAlpha" operator="out" result="shadowBlurOuter2"/><feColorMatrix in="shadowBlurOuter2" result="shadowMatrixOuter2" values="0 0 0 0 0 0 0 0 0 0 0 0 0 0 0 0 0 0 0.05 0"/><feMerge><feMergeNode in="shadowMatrixOuter1"/><feMergeNode in="shadowMatrixOuter2"/></feMerge></filter></defs><g fill="none" fill-rule="evenodd" transform="translate(20 8)"><mask id="c" fill="#fff"><use xlink:href="#a"/></mask><use fill="#000" filter="url(#b)" xlink:href="#a"/><path fill="#FFF" stroke="#FFF" stroke-linejoin="square" stroke-opacity=".05" d="M67.2765406.5H10C4.75329488.5.5 4.75329488.5 10v104c0 5.246705 4.25329488 9.5 9.5 9.5h81c5.2467051 0 9.5-4.253295 9.5-9.5V33.8729799L67.2765406.5z"/><g mask="url(#c)"><use fill="#000" filter="url(#d)" xlink:href="#e"/><use fill="url(#f)" fill-opacity=".7" xlink:href="#e"/></g><rect width="74" height="9" x="14" y="52" fill="#79C9FC" mask="url(#c)" rx="4.5"/><rect width="64" height="9" x="14" y="69" fill="#FD8460" mask="url(#c)" rx="4.5"/><rect width="30" height="9" x="14" y="86" fill="#66BF3C" mask="url(#c)" rx="4.5"/><rect width="22" height="23" x="14" y="21" fill="#37D5D3" mask="url(#c)" rx="3"/><rect width="16" height="9" x="48" y="86" fill="#37D5D3" mask="url(#c)" rx="4.5"/></g></svg>