<svg xmlns="http://www.w3.org/2000/svg" xmlns:xlink="http://www.w3.org/1999/xlink" width="140" height="140"><defs><rect id="b" width="107" height="67" x="29" y="53" rx="4"/><filter id="a" width="109.3%" height="114.9%" x="-4.7%" y="-6%" filterUnits="objectBoundingBox"><feOffset dy="1" in="SourceAlpha" result="shadowOffsetOuter1"/><feGaussianBlur in="shadowOffsetOuter1" result="shadowBlurOuter1" stdDeviation="1.5"/><feComposite in="shadowBlurOuter1" in2="SourceAlpha" operator="out" result="shadowBlurOuter1"/><feColorMatrix in="shadowBlurOuter1" values="0 0 0 0 0 0 0 0 0 0 0 0 0 0 0 0 0 0 0.1 0"/></filter><rect id="d" width="106.946" height="66.859" x="4" y="20" rx="4"/><filter id="c" width="116.8%" height="126.9%" x="-7.5%" y="-9%" filterUnits="objectBoundingBox"><feOffset dx="1" dy="3" in="SourceAlpha" result="shadowOffsetOuter1"/><feGaussianBlur in="shadowOffsetOuter1" result="shadowBlurOuter1" stdDeviation="2.5"/><feComposite in="shadowBlurOuter1" in2="SourceAlpha" operator="out" result="shadowBlurOuter1"/><feColorMatrix in="shadowBlurOuter1" result="shadowMatrixOuter1" values="0 0 0 0 0 0 0 0 0 0 0 0 0 0 0 0 0 0 0.1 0"/><feOffset dy="1" in="SourceAlpha" result="shadowOffsetOuter2"/><feGaussianBlur in="shadowOffsetOuter2" result="shadowBlurOuter2" stdDeviation="1.5"/><feComposite in="shadowBlurOuter2" in2="SourceAlpha" operator="out" result="shadowBlurOuter2"/><feColorMatrix in="shadowBlurOuter2" result="shadowMatrixOuter2" values="0 0 0 0 0 0 0 0 0 0 0 0 0 0 0 0 0 0 0.05 0"/><feMerge><feMergeNode in="shadowMatrixOuter1"/><feMergeNode in="shadowMatrixOuter2"/></feMerge></filter></defs><g fill="none" fill-rule="evenodd"><use fill="#000" filter="url(#a)" xlink:href="#b"/><rect width="106" height="66" x="29.5" y="53.5" fill="#FFF" fill-opacity=".9" stroke="#FFF" stroke-linejoin="square" stroke-opacity=".05" rx="4"/><path fill="#96D07C" d="M105.863779 78.4807638l12.258963 21.0153652c.27828.4770519.117144 1.08937-.359908 1.36765-.152936.089213-.326816.136221-.503871.136221H92.741037c-.5522848 0-1-.447715-1-1 0-.1770546.0470084-.350935.1362211-.503871l12.2589629-21.0153652c.27828-.4770519.890598-.6381881 1.36765-.3599078.149004.0869187.272989.2109042.359908.3599078z"/><path fill="#FFC445" d="M51 78h24c.5522847 0 1 .4477153 1 1v24c0 .552285-.4477153 1-1 1H51c-.5522847 0-1-.447715-1-1V79c0-.5522847.4477153-1 1-1z"/><use fill="#000" filter="url(#c)" xlink:href="#d"/><use fill="#FFF" fill-opacity=".9" xlink:href="#d"/><path fill="#FD8460" d="M54 54c0 11.045695-8.954305 20-20 20s-20-8.954305-20-20 8.954305-20 20-20v20h20z"/><path fill="#FD8460" d="M57 51H37V31c11.045695 0 20 8.954305 20 20z"/><rect width="36.34" height="14" x="65" y="33" fill="#79C9FC" rx="4"/><rect width="36.34" height="9" x="65" y="51" fill="#79C9FC" rx="4"/><rect width="19.75" height="9" x="65" y="64" fill="#79C9FC" rx="4"/></g></svg>