<svg width="140px" height="140px" xmlns="http://www.w3.org/2000/svg"><g fill="none" fill-rule="evenodd"><path fill="#37D5D3" d="M37 39h8.41961354v67H37z"/><path d="M41 127c-7.7319865 0-14-6.268014-14-14 0-7.7319865 6.2680135-14 14-14s14 6.2680135 14 14c0 7.731986-6.2680135 14-14 14zm0-8.4c3.0927946 0 5.6-2.507205 5.6-5.6 0-3.0927946-2.5072054-5.6-5.6-5.6-3.0927946 0-5.6 2.5072054-5.6 5.6 0 3.092795 2.5072054 5.6 5.6 5.6zM41 41c-7.7319865 0-14-6.2680135-14-14s6.2680135-14 14-14 14 6.2680135 14 14-6.2680135 14-14 14zm0-8.4c3.0927946 0 5.6-2.5072054 5.6-5.6 0-3.0927946-2.5072054-5.6-5.6-5.6-3.0927946 0-5.6 2.5072054-5.6 5.6 0 3.0927946 2.5072054 5.6 5.6 5.6z" fill="#61C1FD"/><path d="M90 31.4154842v.0041293H77V23h13v.0061682C90.1393696 23.0020656 90.2792503 23 90.4196135 23c7.7319865 0 14 6.2680135 14 14 0 .1673278-.0029355.33397-.0087578.4998779H95.997607c.0145675-.1646814.0220065-.3314109.0220065-.4998779 0-3.0927946-2.5072054-5.6-5.6-5.6-.1411518 0-.2810838.0052223-.4196135.0154842zM96 37.5h8.4196135v70H96v-70z" fill="#FFC445"/><path d="M100 127c-7.7319865 0-14-6.268014-14-14 0-7.7319865 6.2680135-14 14-14s14 6.2680135 14 14c0 7.731986-6.2680135 14-14 14zm0-8.4c3.0927946 0 5.6-2.507205 5.6-5.6 0-3.0927946-2.5072054-5.6-5.6-5.6-3.0927946 0-5.6 2.5072054-5.6 5.6 0 3.092795 2.5072054 5.6 5.6 5.6z" fill="#FC8562"/><path d="M65.4931392 26.1545144l17.0276917-10.01628926c.4760332-.28001949 1.0889349-.12111904 1.3689544.35491408.090398.15367665.1380658.32872735.1380658.50702013V37.0327378c0 .5522848-.4477153 1-1 1-.1782928 0-.3533435-.0476677-.5070202-.1380658L65.4931392 27.8783828c-.4760331-.2800195-.6349335-.8929212-.3549141-1.3689543.0862081-.1465537.2083605-.2687061.3549141-.3549141z" fill="#FFC445"/></g></svg>