<svg width="96" height="96" viewBox="0 0 96 96" xmlns="http://www.w3.org/2000/svg">
  <g transform="translate(11 2)" fill-rule="nonzero" fill="none">
    <path d="M44.022 41.707l8.538-20.194a.482.482 0 01.629-.256c.243.101.36.38.257.623l-7.524 17.795-1.9 2.032z" fill="#939598"/>
    <path d="M51.387 31.43s-4.086 5.355-6.97 8.448c-2.886 3.095-7.092 7.974-7.092 7.974v10.909c.03-.002.058-.008.089-.008.697 0 1.262.558 1.262 1.248s-.565 1.25-1.262 1.25c-.03 0-.058-.007-.089-.01v11.006s5.297-3.599 9.133-7.08c4.327-3.927 9.134-10.057 9.134-10.057l-4.205-23.68z" fill="#931A2B"/>
    <path fill="#A7A9AC" d="M34.326 11.47l-.04 4.252-15.434 6.183.272-3.779 15.203-6.657z"/>
    <path d="M55.768 17.977l.3 3.777-15.511-6.057-.073-4.252 15.284 6.532zm-18.37-7.852l.017 4.344L14.837 5.65l.468-4.97L37.4 10.125zM15.306.68l-.468 4.97-2.994 1.767.517-4.853L15.305.68z" fill="#BCBEC0"/>
    <path fill="#A7A9AC" d="M59.391.495l.506 4.967-22.482 9.007-.017-4.344z"/>
    <path fill="#BCBEC0" d="M62.358 2.356l.556 4.849-3.017-1.743-.505-4.966z"/>
    <path fill="#808285" d="M21.925 22.774l-3.073-.869 15.435-6.182-22.444-8.305 2.994-1.768 22.578 8.819 22.482-9.007 3.017 1.743-22.357 8.492 15.512 6.057-3.066.894-15.574-5.762-15.504 5.887z"/>
    <path d="M12.086 35.247c-.016 0-.032 0-.048-.003a.477.477 0 01-.43-.52L14.359 7.27a.476.476 0 01.526-.426.476.476 0 01.43.52l-2.75 27.453a.479.479 0 01-.478.43zm49.473 0a.479.479 0 01-.48-.448L59.418 7.157a.478.478 0 01.45-.504.475.475 0 01.51.447l1.662 27.64a.477.477 0 01-.45.505l-.03.002zM29.442 40.77l-7.959-18.764a.476.476 0 01.256-.624.484.484 0 01.63.255l8.834 20.827-1.761-1.694z" fill="#939598"/>
    <path d="M36.153 60.002c0-.66.518-1.195 1.173-1.24v-10.91s-4.208-4.879-7.092-7.974c-2.885-3.093-6.971-8.448-6.971-8.448l-4.206 23.682s4.807 6.13 9.133 10.056c3.837 3.482 9.135 7.08 9.135 7.08V61.242a1.25 1.25 0 01-1.172-1.24z" fill="#A81E2C"/>
    <path d="M37.414 60.715a.481.481 0 01-.327-.126L20.522 45.36l-.005-1.303 16.894 15.529L54.09 43.872l.067 1.25-16.412 15.462a.478.478 0 01-.332.132z" fill="#939598"/>
    <path d="M72.06 34.762L51.389 31.43s1.922 10.947 1.922 29.273c0 18.328-2.523 30.822-2.523 30.822L71.7 89.265s2.644-9.999 2.644-27.253c-.001-17.255-2.284-27.25-2.284-27.25zm-9.556 48.315a1.016 1.016 0 01-1.021-1.011c0-.557.457-1.011 1.021-1.011.565 0 1.021.454 1.021 1.011 0 .558-.455 1.011-1.02 1.011zM21.34 60.703c0-18.325 1.923-29.273 1.923-29.273L2.59 34.761S.307 44.758.307 62.013c0 17.256 2.644 27.253 2.644 27.253l20.913 2.262c0-.002-2.524-12.496-2.524-30.825zm-9.578 22.308a.949.949 0 01-.953-.944c0-.521.426-.944.952-.944s.953.423.953.943-.426.943-.953.943v.002z" fill="#CE2227"/>
    <circle fill="#A51724" cx="62.504" cy="40.772" r="1"/>
    <path d="M62.505 82.542a.475.475 0 01-.47-.587c.016-.059 1.43-6.141 1.43-20.229 0-14.114-1.417-20.79-1.43-20.854a.481.481 0 01.94-.2c.014.065 1.452 6.84 1.452 21.054 0 14.222-1.396 20.2-1.455 20.448a.48.48 0 01-.467.369z" fill="#939598"/>
    <ellipse fill="#A51724" cx="11.762" cy="40.772" rx="1.108" ry="1.097"/>
    <path d="M11.76 82.542a.481.481 0 01-.474-.406c-.012-.08-1.207-8.094-1.207-20.658 0-12.564 1.195-20.695 1.207-20.776a.48.48 0 01.546-.4c.262.037.444.28.406.54-.013.08-1.197 8.148-1.197 20.637 0 12.495 1.185 20.44 1.196 20.516a.478.478 0 01-.404.542c-.025.002-.049.005-.072.005z" fill="#939598"/>
  </g>
</svg>
