<svg xmlns="http://www.w3.org/2000/svg" width="24" height="24" fill="none" viewBox="0 0 24 24"><path fill="#166DA5" fill-rule="evenodd" d="M23.5413 12.1618L21.0325 16.392L17.5146 12.104L21.0319 7.93164L23.5413 12.1618Z" clip-rule="evenodd"/><path fill="#8FDB69" fill-rule="evenodd" d="M20.7573 17.1146L16.9378 12.5371L14.6455 16.3776L18.2068 21.5897L20.7573 17.1146Z" clip-rule="evenodd"/><path fill="#166DA5" fill-rule="evenodd" d="M20.7141 7.18079L16.9362 11.772L14.6445 7.9315L18.2058 2.77783L20.7141 7.18079Z" clip-rule="evenodd"/><path fill="url(#paint0_linear_1350_40335)" fill-rule="evenodd" d="M9.19531 7.18079H20.7156L18.1776 2.74805H11.7321L9.19531 7.18079ZM16.9378 11.7863H23.3095L21.0173 7.91661H14.6306" clip-rule="evenodd" opacity=".95"/><path fill="url(#paint1_linear_1350_40335)" fill-rule="evenodd" d="M20.7571 17.129H9.17969L11.7171 21.5319H18.2048L20.7571 17.129ZM16.9364 12.5234H23.3082L21.0171 16.392H14.6293" clip-rule="evenodd" opacity=".95"/><path fill="#fff" fill-rule="evenodd" d="M11.718 21.5323L6.29692 12.1472L11.79 2.76221H5.85012L0.443359 12.1472L5.85012 21.5323H11.718Z" clip-rule="evenodd"/><defs><linearGradient id="paint0_linear_1350_40335" x1="9.195" x2="23.309" y1="11.786" y2="11.786" gradientUnits="userSpaceOnUse"><stop stop-color="#2A3B8F"/><stop offset="1" stop-color="#29ABE2"/></linearGradient><linearGradient id="paint1_linear_1350_40335" x1="23.308" x2="9.18" y1="12.523" y2="12.523" gradientUnits="userSpaceOnUse"><stop stop-color="#B4D44E"/><stop offset="1" stop-color="#E7F716"/></linearGradient></defs></svg>