<svg width="96px" height="96px" xmlns="http://www.w3.org/2000/svg"><g fill="none" fill-rule="evenodd"><path d="M16 12h64c2.209139 0 4 1.790861 4 4v64c0 2.209139-1.790861 4-4 4H16c-2.209139 0-4-1.790861-4-4V16c0-2.209139 1.790861-4 4-4z" fill="#A91F24" opacity="0.870000005"/><path d="M51.3762667 74.01h-18.156c-.9520048 0-1.428-.4759952-1.428-1.428v-3.57c0-.8840044.4759952-1.326 1.428-1.326h17.136c5.3040265 0 7.956-1.9719803 7.956-5.916v-1.938c0-3.604018-1.7339827-6.0859932-5.202-7.446l-12.036-5.1c-3.4680174-1.4280071-5.9499925-3.1109903-7.446-5.049-1.4960075-1.9380097-2.244-4.504984-2.244-7.701 0-8.3640418 4.5899541-12.546 13.77-12.546h16.728c.9520047 0 1.428.4759952 1.428 1.428v3.57c0 .8840044-.4759953 1.326-1.428 1.326h-15.402c-2.4480123 0-4.3009937.5099949-5.559 1.53s-1.887 2.2099932-1.887 3.57v1.734c0 2.8560143 1.9379806 5.0319925 5.814 6.528l12.036 5.406c3.5360177 1.3600068 5.9329937 3.1619888 7.191 5.406 1.2580063 2.2440112 1.887 5.3379803 1.887 9.282 0 8.1600408-4.8619514 12.24-14.586 12.24z" fill="#F9F9F9"/></g></svg>