<svg xmlns="http://www.w3.org/2000/svg" width="22" height="22" fill="none" viewBox="0 0 22 22"><circle cx="11" cy="11" r="11" fill="#FC521F"/><path fill="#fff" fill-rule="evenodd" d="M13.5847 16.0587L11.8367 15.0503L17.0953 12.017C17.2968 11.9005 17.4866 11.7673 17.6635 11.6184C18.347 12.5916 18.4142 13.8734 17.8048 14.9284C17.2543 15.8808 16.2272 16.4724 15.1258 16.4724C14.5868 16.4724 14.0543 16.3293 13.5847 16.0587ZM13.1635 16.7872C13.3652 16.9038 13.5755 17.0017 13.7932 17.0804C13.2914 18.1583 12.2143 18.8568 10.9943 18.8568C9.29132 18.8568 7.90509 17.472 7.90509 15.7702V9.70337L10.5732 11.2429V15.05C10.5732 15.2003 10.6536 15.3393 10.7836 15.4144L13.1635 16.7872ZM6.87124 16.4717C5.76952 16.4717 4.74419 15.8806 4.1934 14.9287C3.7814 14.2147 3.67121 13.3831 3.8852 12.5864C4.09905 11.7896 4.60952 11.1239 5.32452 10.7118L7.07192 9.70365L7.07218 15.7692C7.07218 16.0019 7.09214 16.2327 7.13273 16.461C7.0457 16.4683 6.95827 16.4717 6.87124 16.4717ZM13.671 8.97487L11.0039 10.5136L7.70398 8.61026C7.63904 8.5729 7.56638 8.55388 7.49319 8.55388C7.42093 8.55388 7.34827 8.5729 7.28294 8.61026L4.90344 9.98307C4.70183 10.0989 4.51141 10.2319 4.33455 10.3815C3.65135 9.40836 3.58468 8.12664 4.19336 7.07124C4.74415 6.11903 5.77015 5.5269 6.87227 5.5269C7.41055 5.5269 7.94338 5.67051 8.4134 5.94124L13.671 8.97487ZM10.9944 3.14258C12.6981 3.14258 14.0834 4.52735 14.0834 6.22979V8.24645L8.82646 5.21375C8.62472 5.09687 8.41433 4.99874 8.19595 4.91975C8.69777 3.84148 9.77514 3.14258 10.9944 3.14258ZM17.805 7.07185C18.6561 8.54598 18.1491 10.4375 16.6737 11.2883L11.4161 14.3216V11.2436L14.7157 9.33995C14.8461 9.26482 14.9265 9.12587 14.9265 8.97548V6.22986C14.9267 5.99796 14.9057 5.76686 14.8659 5.53934C14.9523 5.53176 15.0393 5.52817 15.1266 5.52817C16.2285 5.52817 17.2547 6.11976 17.805 7.07185Z" clip-rule="evenodd"/></svg>