<svg width="1281" height="920" viewBox="0 0 1281 920" fill="none" xmlns="http://www.w3.org/2000/svg">
<g clip-path="url(#clip0_5704_92790)">
<g clip-path="url(#clip1_5704_92790)">
<mask id="path-3-outside-2_5704_92790" maskUnits="userSpaceOnUse" x="292" y="489" width="948" height="360" fill="black">
<rect fill="white" x="292" y="489" width="948" height="360"/>
<path d="M292 490H1240V841C1240 845.418 1236.42 849 1232 849H300C295.582 849 292 845.418 292 841V490Z"/>
</mask>
<path d="M292 490H1240V841C1240 845.418 1236.42 849 1232 849H300C295.582 849 292 845.418 292 841V490Z" fill="white"/>
<mask id="path-5-inside-3_5704_92790" fill="white">
<path d="M292 490H1240V531H292V490Z"/>
</mask>
<path d="M292 490H1240V531H292V490Z" fill="white"/>
<text fill="#7A858E" xml:space="preserve" style="white-space: pre" font-family="'Nunito Sans', 'Helvetica Neue', Helvetica, Arial, sans-serif" font-size="14" font-weight="bold" letter-spacing="0em"><tspan x="307" y="514.606">Controls</tspan></text>
<text fill="#7A858E" xml:space="preserve" style="white-space: pre" font-family="'Nunito Sans', 'Helvetica Neue', Helvetica, Arial, sans-serif" font-size="14" font-weight="bold" letter-spacing="0em"><tspan x="392" y="514.606">Interactions</tspan></text>
<text fill="#7A858E" xml:space="preserve" style="white-space: pre" font-family="'Nunito Sans', 'Helvetica Neue', Helvetica, Arial, sans-serif" font-size="14" font-weight="bold" letter-spacing="0em"><tspan x="499" y="514.606">Design</tspan></text>
<text fill="#1EA7FD" xml:space="preserve" style="white-space: pre" font-family="'Nunito Sans', 'Helvetica Neue', Helvetica, Arial, sans-serif" font-size="14" font-weight="bold" letter-spacing="0em"><tspan x="575" y="514.606">Accessibility</tspan></text>
<rect x="560" y="527" width="111" height="3" fill="#1EA7FD"/>
<text fill="#7A858E" xml:space="preserve" style="white-space: pre" font-family="'Nunito Sans', 'Helvetica Neue', Helvetica, Arial, sans-serif" font-size="14" font-weight="bold" letter-spacing="0em"><tspan x="686" y="514.606">Actions</tspan></text>
<path d="M1186.5 507.504C1186.5 507.228 1186.72 507.004 1187 507.004H1188C1188.28 507.004 1188.5 507.228 1188.5 507.504C1188.5 507.78 1188.28 508.004 1188 508.004H1187C1186.72 508.004 1186.5 507.78 1186.5 507.504Z" fill="#7A858E"/>
<path d="M1187 509.004C1186.72 509.004 1186.5 509.228 1186.5 509.504C1186.5 509.78 1186.72 510.004 1187 510.004H1188C1188.28 510.004 1188.5 509.78 1188.5 509.504C1188.5 509.228 1188.28 509.004 1188 509.004H1187Z" fill="#7A858E"/>
<path d="M1186.5 511.504C1186.5 511.228 1186.72 511.004 1187 511.004H1188C1188.28 511.004 1188.5 511.228 1188.5 511.504C1188.5 511.78 1188.28 512.004 1188 512.004H1187C1186.72 512.004 1186.5 511.78 1186.5 511.504Z" fill="#7A858E"/>
<path fill-rule="evenodd" clip-rule="evenodd" d="M1178.5 516.004C1178.22 516.004 1178 515.78 1178 515.504V504.504C1178 504.228 1178.22 504.004 1178.5 504.004H1189.5C1189.78 504.004 1190 504.228 1190 504.504V515.504C1190 515.78 1189.78 516.004 1189.5 516.004H1178.5ZM1179 515.004V505.004H1185V515.004H1179ZM1186 505.004H1189V515.004H1186V505.004Z" fill="#7A858E"/>
<g clip-path="url(#clip2_5704_92790)">
<path d="M1218.85 507.146C1219.05 507.342 1219.05 507.658 1218.85 507.854L1216.71 510L1218.85 512.146C1219.05 512.342 1219.05 512.658 1218.85 512.854C1218.66 513.049 1218.34 513.049 1218.15 512.854L1216 510.707L1213.85 512.854C1213.66 513.049 1213.34 513.049 1213.15 512.854C1212.95 512.658 1212.95 512.342 1213.15 512.146L1215.29 510L1213.15 507.854C1212.95 507.658 1212.95 507.342 1213.15 507.146C1213.34 506.951 1213.66 506.951 1213.85 507.146L1216 509.293L1218.15 507.146C1218.34 506.951 1218.66 506.951 1218.85 507.146Z" fill="#7A858E"/>
<path fill-rule="evenodd" clip-rule="evenodd" d="M1216 517C1219.87 517 1223 513.866 1223 510C1223 506.134 1219.87 503 1216 503C1212.13 503 1209 506.134 1209 510C1209 513.866 1212.13 517 1216 517ZM1216 516C1219.31 516 1222 513.314 1222 510C1222 506.686 1219.31 504 1216 504C1212.69 504 1210 506.686 1210 510C1210 513.314 1212.69 516 1216 516Z" fill="#7A858E"/>
</g>
<path d="M1240 530H292V532H1240V530Z" fill="#E1E5E8" mask="url(#path-5-inside-3_5704_92790)"/>
<g clip-path="url(#clip3_5704_92790)">
<rect width="948" height="40" transform="translate(292 531)" fill="#F6F9FC"/>
<rect x="292" y="570" width="948" height="1" fill="#DDDDDD"/>
<text fill="#D53900" xml:space="preserve" style="white-space: pre" font-family="'Nunito Sans', 'Helvetica Neue', Helvetica, Arial, sans-serif" font-size="13" font-weight="bold" letter-spacing="0em"><tspan x="307" y="555.277">Failed</tspan></text>
<rect x="349" y="541" width="20" height="20" rx="10" fill="#FEDED2"/>
<text fill="#D43900" xml:space="preserve" style="white-space: pre" font-family="'Nunito Sans', 'Helvetica Neue', Helvetica, Arial, sans-serif" font-size="12" font-weight="bold" letter-spacing="0em"><tspan x="355" y="554.948">2</tspan></text>
<rect x="349.5" y="541.5" width="19" height="19" rx="9.5" stroke="#D43900" stroke-opacity="0.1"/>
<rect x="292" y="568" width="92" height="3" fill="#FF4400"/>
<text fill="#7A858E" xml:space="preserve" style="white-space: pre" font-family="'Nunito Sans', 'Helvetica Neue', Helvetica, Arial, sans-serif" font-size="13" font-weight="bold" letter-spacing="0em"><tspan x="399" y="555.277">Inconclusive</tspan></text>
<rect x="479" y="541" width="20" height="20" rx="10" fill="#EEEEEE"/>
<text fill="#666666" xml:space="preserve" style="white-space: pre" font-family="'Nunito Sans', 'Helvetica Neue', Helvetica, Arial, sans-serif" font-size="12" font-weight="bold" letter-spacing="0em"><tspan x="485" y="554.948">1</tspan></text>
<rect x="479.5" y="541.5" width="19" height="19" rx="9.5" stroke="#666666" stroke-opacity="0.1"/>
<text fill="#7A858E" xml:space="preserve" style="white-space: pre" font-family="'Nunito Sans', 'Helvetica Neue', Helvetica, Arial, sans-serif" font-size="13" font-weight="bold" letter-spacing="0em"><tspan x="529" y="555.277">Passed</tspan></text>
<rect x="578" y="541" width="27" height="20" rx="10" fill="#EEEEEE"/>
<text fill="#666666" xml:space="preserve" style="white-space: pre" font-family="'Nunito Sans', 'Helvetica Neue', Helvetica, Arial, sans-serif" font-size="12" font-weight="bold" letter-spacing="0em"><tspan x="584" y="554.948">11</tspan></text>
<rect x="578.5" y="541.5" width="26" height="19" rx="9.5" stroke="#666666" stroke-opacity="0.1"/>
<text fill="#7A858E" xml:space="preserve" style="white-space: pre" font-family="'Nunito Sans', 'Helvetica Neue', Helvetica, Arial, sans-serif" font-size="13" letter-spacing="0em"><tspan x="1114.03" y="555.277">Show highlights</tspan></text>
<path d="M1220 553.143C1221.18 553.143 1222.14 552.183 1222.14 551C1222.14 549.816 1221.18 548.857 1220 548.857C1218.82 548.857 1217.86 549.816 1217.86 551C1217.86 552.183 1218.82 553.143 1220 553.143Z" fill="#7A858E"/>
<path fill-rule="evenodd" clip-rule="evenodd" d="M1226 551L1225.82 551.251C1225.72 551.398 1223.2 554.857 1220 554.857C1216.8 554.857 1214.28 551.398 1214.18 551.251L1214 551L1214.18 550.749C1214.28 550.602 1216.8 547.143 1220 547.143C1223.2 547.143 1225.72 550.602 1225.82 550.749L1226 551ZM1216.48 549.544C1215.82 550.109 1215.32 550.682 1215.07 551C1215.32 551.317 1215.82 551.891 1216.48 552.455C1217.46 553.288 1218.7 554 1220 554C1221.3 554 1222.54 553.288 1223.52 552.455C1224.18 551.891 1224.68 551.317 1224.93 551C1224.68 550.682 1224.18 550.109 1223.52 549.544C1222.54 548.711 1221.3 548 1220 548C1218.7 548 1217.46 548.711 1216.48 549.544Z" fill="#7A858E"/>
</g>
<text fill="#333333" xml:space="preserve" style="white-space: pre" font-family="'Nunito Sans', 'Helvetica Neue', Helvetica, Arial, sans-serif" font-size="13" font-weight="bold" letter-spacing="0em"><tspan x="307" y="594.277">Insufficient color contrast</tspan></text>
<rect x="1132" y="580" width="66" height="20" rx="10" fill="#FEDED2"/>
<text fill="#D43900" xml:space="preserve" style="white-space: pre" font-family="'Nunito Sans', 'Helvetica Neue', Helvetica, Arial, sans-serif" font-size="12" font-weight="bold" letter-spacing="0em"><tspan x="1144" y="593.948">Serious</tspan></text>
<rect x="1132.5" y="580.5" width="65" height="19" rx="9.5" stroke="#D43900" stroke-opacity="0.1"/>
<path d="M1219.35 583.146L1223.35 587.146C1223.55 587.342 1223.55 587.658 1223.35 587.854C1223.16 588.049 1222.84 588.049 1222.65 587.854L1219 584.207L1215.35 587.854C1215.16 588.049 1214.84 588.049 1214.65 587.854C1214.45 587.658 1214.45 587.342 1214.65 587.146L1218.65 583.146C1218.84 582.951 1219.16 582.951 1219.35 583.146Z" fill="#7A858E"/>
<path d="M1223.35 592.146C1223.55 592.342 1223.55 592.658 1223.35 592.854L1219.35 596.854C1219.16 597.049 1218.84 597.049 1218.65 596.854L1214.65 592.854C1214.45 592.658 1214.45 592.342 1214.65 592.146C1214.84 591.951 1215.16 591.951 1215.35 592.146L1219 595.793L1222.65 592.146C1222.84 591.951 1223.16 591.951 1223.35 592.146Z" fill="#7A858E"/>
<rect x="291.5" y="570.5" width="949" height="39" stroke="#EEEEEE"/>
<text fill="#333333" xml:space="preserve" style="white-space: pre" font-family="'Nunito Sans', 'Helvetica Neue', Helvetica, Arial, sans-serif" font-size="13" font-weight="bold" letter-spacing="0em"><tspan x="307" y="633.277">Incorrect tab order</tspan></text>
<rect x="1132" y="619" width="66" height="20" rx="10" fill="#FEDED2"/>
<text fill="#D43900" xml:space="preserve" style="white-space: pre" font-family="'Nunito Sans', 'Helvetica Neue', Helvetica, Arial, sans-serif" font-size="12" font-weight="bold" letter-spacing="0em"><tspan x="1144" y="632.948">Serious</tspan></text>
<rect x="1132.5" y="619.5" width="65" height="19" rx="9.5" stroke="#D43900" stroke-opacity="0.1"/>
<path d="M1219.35 622.146L1223.35 626.146C1223.55 626.342 1223.55 626.658 1223.35 626.854C1223.16 627.049 1222.84 627.049 1222.65 626.854L1219 623.207L1215.35 626.854C1215.16 627.049 1214.84 627.049 1214.65 626.854C1214.45 626.658 1214.45 626.342 1214.65 626.146L1218.65 622.146C1218.84 621.951 1219.16 621.951 1219.35 622.146Z" fill="#7A858E"/>
<path d="M1223.35 631.146C1223.55 631.342 1223.55 631.658 1223.35 631.854L1219.35 635.854C1219.16 636.049 1218.84 636.049 1218.65 635.854L1214.65 631.854C1214.45 631.658 1214.45 631.342 1214.65 631.146C1214.84 630.951 1215.16 630.951 1215.35 631.146L1219 634.793L1222.65 631.146C1222.84 630.951 1223.16 630.951 1223.35 631.146Z" fill="#7A858E"/>
<rect x="291.5" y="609.5" width="949" height="39" stroke="#EEEEEE"/>
<g clip-path="url(#clip4_5704_92790)">
<rect x="292" y="571" width="948" height="201" fill="white"/>
<text fill="#333333" xml:space="preserve" style="white-space: pre" font-family="'Nunito Sans', 'Helvetica Neue', Helvetica, Arial, sans-serif" font-size="13" font-weight="bold" letter-spacing="0em"><tspan x="307" y="594.277">Insufficient color contrast</tspan></text>
<rect x="1132" y="580" width="66" height="20" rx="10" fill="#FEDED2"/>
<text fill="#D43900" xml:space="preserve" style="white-space: pre" font-family="'Nunito Sans', 'Helvetica Neue', Helvetica, Arial, sans-serif" font-size="12" font-weight="bold" letter-spacing="0em"><tspan x="1144" y="593.948">Serious</tspan></text>
<rect x="1132.5" y="580.5" width="65" height="19" rx="9.5" stroke="#D43900" stroke-opacity="0.1"/>
<path d="M1215.35 583.146C1215.16 582.951 1214.84 582.951 1214.65 583.146C1214.45 583.342 1214.45 583.658 1214.65 583.854L1218.65 587.854C1218.84 588.049 1219.16 588.049 1219.35 587.854L1223.35 583.854C1223.55 583.658 1223.55 583.342 1223.35 583.146C1223.16 582.951 1222.84 582.951 1222.65 583.146L1219 586.793L1215.35 583.146Z" fill="#7A858E"/>
<path d="M1218.65 592.146C1218.84 591.951 1219.16 591.951 1219.35 592.146L1223.35 596.146C1223.55 596.342 1223.55 596.658 1223.35 596.854C1223.16 597.049 1222.84 597.049 1222.65 596.854L1219 593.207L1215.35 596.854C1215.16 597.049 1214.84 597.049 1214.65 596.854C1214.45 596.658 1214.45 596.342 1214.65 596.146L1218.65 592.146Z" fill="#7A858E"/>
<text fill="#666666" xml:space="preserve" style="white-space: pre" font-family="'Nunito Sans', 'Helvetica Neue', Helvetica, Arial, sans-serif" font-size="13" letter-spacing="0em"><tspan x="307" y="650.277">Text color contrast ratio does not meet WCAG 2 AA guidelines.</tspan></text>
<text fill="#333333" xml:space="preserve" style="white-space: pre" font-family="'Nunito Sans', 'Helvetica Neue', Helvetica, Arial, sans-serif" font-size="13" font-weight="bold" letter-spacing="0em"><tspan x="307" y="632.277">What&#x2019;s wrong?</tspan></text>
<text fill="#666666" xml:space="preserve" style="white-space: pre" font-family="'Nunito Sans', 'Helvetica Neue', Helvetica, Arial, sans-serif" font-size="13" letter-spacing="0em"><tspan x="307" y="701.277">Improve contrast ratio to 4.5:1</tspan></text>
<text fill="#333333" xml:space="preserve" style="white-space: pre" font-family="'Nunito Sans', 'Helvetica Neue', Helvetica, Arial, sans-serif" font-size="13" font-weight="bold" letter-spacing="0em"><tspan x="307" y="683.277">How to fix</tspan></text>
<text fill="#1EA7FD" xml:space="preserve" style="white-space: pre" font-family="'Nunito Sans', 'Helvetica Neue', Helvetica, Arial, sans-serif" font-size="13" letter-spacing="0em"><tspan x="307" y="734.277">Color contrast checker</tspan></text>
<g clip-path="url(#clip5_5704_92790)">
<path d="M443.714 723.86C443.241 723.86 442.857 724.244 442.857 724.717V733.289C442.857 733.762 443.241 734.146 443.714 734.146H452.286C452.759 734.146 453.143 733.762 453.143 733.289V729.432C453.143 729.195 452.951 729.003 452.714 729.003C452.478 729.003 452.286 729.195 452.286 729.432V733.289H443.714V724.717L447.571 724.717C447.808 724.717 448 724.526 448 724.289C448 724.052 447.808 723.86 447.571 723.86H443.714Z" fill="#1EA7FD"/>
<path d="M448.303 729.306L452.286 725.324V726.86C452.286 727.097 452.478 727.289 452.714 727.289C452.951 727.289 453.143 727.097 453.143 726.86V724.289C453.143 724.052 452.951 723.86 452.714 723.86H450.143C449.906 723.86 449.714 724.052 449.714 724.289C449.714 724.526 449.906 724.717 450.143 724.717H451.68L447.697 728.7C447.53 728.868 447.53 729.139 447.697 729.306C447.864 729.474 448.136 729.474 448.303 729.306Z" fill="#1EA7FD"/>
</g>
<text fill="#1EA7FD" xml:space="preserve" style="white-space: pre" font-family="'Nunito Sans', 'Helvetica Neue', Helvetica, Arial, sans-serif" font-size="13" letter-spacing="0em"><tspan x="307" y="752.277">WCAG 2 AA Guidelines</tspan></text>
<g clip-path="url(#clip6_5704_92790)">
<path d="M453.714 741.86C453.241 741.86 452.857 742.244 452.857 742.717V751.289C452.857 751.762 453.241 752.146 453.714 752.146H462.286C462.759 752.146 463.143 751.762 463.143 751.289V747.432C463.143 747.195 462.951 747.003 462.714 747.003C462.478 747.003 462.286 747.195 462.286 747.432V751.289H453.714V742.717L457.571 742.717C457.808 742.717 458 742.526 458 742.289C458 742.052 457.808 741.86 457.571 741.86H453.714Z" fill="#1EA7FD"/>
<path d="M458.303 747.306L462.286 743.324V744.86C462.286 745.097 462.478 745.289 462.714 745.289C462.951 745.289 463.143 745.097 463.143 744.86V742.289C463.143 742.052 462.951 741.86 462.714 741.86H460.143C459.906 741.86 459.714 742.052 459.714 742.289C459.714 742.526 459.906 742.717 460.143 742.717H461.68L457.697 746.7C457.53 746.868 457.53 747.139 457.697 747.306C457.864 747.474 458.136 747.474 458.303 747.306Z" fill="#1EA7FD"/>
</g>
<rect x="753" y="614" width="1" height="143" fill="black" fill-opacity="0.05"/>
<g clip-path="url(#clip7_5704_92790)">
<path d="M1215.59 622.983C1215.42 622.816 1215.15 622.816 1214.98 622.983C1214.82 623.15 1214.82 623.422 1214.98 623.589L1224.41 633.018C1224.58 633.185 1224.85 633.185 1225.02 633.018C1225.18 632.85 1225.18 632.579 1225.02 632.412L1215.59 622.983Z" fill="#7A858E"/>
<path d="M1223.52 629.456C1223.37 629.585 1223.21 629.711 1223.04 629.832L1223.66 630.444C1224.94 629.469 1225.76 628.334 1225.82 628.251L1226 628L1225.82 627.749C1225.72 627.602 1223.2 624.143 1220 624.143C1219.24 624.143 1218.51 624.339 1217.85 624.64L1218.51 625.295C1218.99 625.11 1219.49 625 1220 625C1221.3 625 1222.54 625.712 1223.52 626.545C1224.18 627.109 1224.68 627.683 1224.93 628C1224.68 628.318 1224.18 628.891 1223.52 629.456Z" fill="#7A858E"/>
<path d="M1214.18 627.749C1214.24 627.667 1215.06 626.531 1216.34 625.556L1216.96 626.169C1216.79 626.29 1216.63 626.416 1216.48 626.545C1215.82 627.109 1215.32 627.683 1215.07 628C1215.32 628.318 1215.82 628.891 1216.48 629.456C1217.46 630.289 1218.7 631 1220 631C1220.51 631 1221.01 630.89 1221.49 630.706L1222.15 631.36C1221.49 631.661 1220.76 631.857 1220 631.857C1216.8 631.857 1214.28 628.398 1214.18 628.251L1214 628L1214.18 627.749Z" fill="#7A858E"/>
<path d="M1217.86 628C1217.86 627.724 1217.91 627.46 1218 627.217L1220.78 629.996C1220.54 630.091 1220.28 630.143 1220 630.143C1218.82 630.143 1217.86 629.184 1217.86 628Z" fill="#7A858E"/>
<path d="M1222 628.783L1219.22 626.005C1219.46 625.91 1219.72 625.857 1220 625.857C1221.18 625.857 1222.14 626.817 1222.14 628C1222.14 628.277 1222.09 628.541 1222 628.783Z" fill="#7A858E"/>
</g>
<text fill="#333333" xml:space="preserve" style="white-space: pre" font-family="'Nunito Sans', 'Helvetica Neue', Helvetica, Arial, sans-serif" font-size="13" font-weight="bold" letter-spacing="0em"><tspan x="775" y="632.277">Selectors</tspan></text>
<text fill="#7A858E" xml:space="preserve" style="white-space: pre" font-family="'Nunito Sans', 'Helvetica Neue', Helvetica, Arial, sans-serif" font-size="13" letter-spacing="0em"><tspan x="1120.22" y="632.277">Hide highlights</tspan></text>
<text fill="#666666" xml:space="preserve" style="white-space: pre" font-family="'Nunito Sans', 'Helvetica Neue', Helvetica, Arial, sans-serif" font-size="13" font-weight="bold" letter-spacing="0em"><tspan x="775.98" y="660.777">1.</tspan></text>
<rect x="792" y="647" width="92" height="16" rx="2" fill="#F3F3F3"/>
<text fill="#444444" xml:space="preserve" style="white-space: pre" font-family="Menlo" font-size="12" letter-spacing="0em"><tspan x="798" y="659.154">span.uexA_u</tspan></text>
<rect x="792.5" y="647.5" width="91" height="15" rx="1.5" stroke="black" stroke-opacity="0.1"/>
<path d="M1220 658.143C1221.18 658.143 1222.14 657.183 1222.14 656C1222.14 654.816 1221.18 653.857 1220 653.857C1218.82 653.857 1217.86 654.816 1217.86 656C1217.86 657.183 1218.82 658.143 1220 658.143Z" fill="#1EA7FD"/>
<path fill-rule="evenodd" clip-rule="evenodd" d="M1226 656L1225.82 656.251C1225.72 656.398 1223.2 659.857 1220 659.857C1216.8 659.857 1214.28 656.398 1214.18 656.251L1214 656L1214.18 655.749C1214.28 655.602 1216.8 652.143 1220 652.143C1223.2 652.143 1225.72 655.602 1225.82 655.749L1226 656ZM1216.48 654.544C1215.82 655.109 1215.32 655.682 1215.07 656C1215.32 656.317 1215.82 656.891 1216.48 657.455C1217.46 658.288 1218.7 659 1220 659C1221.3 659 1222.54 658.288 1223.52 657.455C1224.18 656.891 1224.68 656.317 1224.93 656C1224.68 655.682 1224.18 655.109 1223.52 654.544C1222.54 653.711 1221.3 653 1220 653C1218.7 653 1217.46 653.711 1216.48 654.544Z" fill="#1EA7FD"/>
<text fill="#666666" xml:space="preserve" style="white-space: pre" font-family="'Nunito Sans', 'Helvetica Neue', Helvetica, Arial, sans-serif" font-size="13" font-weight="bold" letter-spacing="0em"><tspan x="775.968" y="688.777">2.</tspan></text>
<rect x="792" y="675" width="106" height="16" rx="2" fill="#F3F3F3"/>
<text fill="#444444" xml:space="preserve" style="white-space: pre" font-family="Menlo" font-size="12" letter-spacing="0em"><tspan x="798" y="687.154">button.feA_uL</tspan></text>
<rect x="792.5" y="675.5" width="105" height="15" rx="1.5" stroke="black" stroke-opacity="0.1"/>
<path d="M1220 686.143C1221.18 686.143 1222.14 685.183 1222.14 684C1222.14 682.816 1221.18 681.857 1220 681.857C1218.82 681.857 1217.86 682.816 1217.86 684C1217.86 685.183 1218.82 686.143 1220 686.143Z" fill="#1EA7FD"/>
<path fill-rule="evenodd" clip-rule="evenodd" d="M1226 684L1225.82 684.251C1225.72 684.398 1223.2 687.857 1220 687.857C1216.8 687.857 1214.28 684.398 1214.18 684.251L1214 684L1214.18 683.749C1214.28 683.602 1216.8 680.143 1220 680.143C1223.2 680.143 1225.72 683.602 1225.82 683.749L1226 684ZM1216.48 682.544C1215.82 683.109 1215.32 683.682 1215.07 684C1215.32 684.317 1215.82 684.891 1216.48 685.455C1217.46 686.288 1218.7 687 1220 687C1221.3 687 1222.54 686.288 1223.52 685.455C1224.18 684.891 1224.68 684.317 1224.93 684C1224.68 683.682 1224.18 683.109 1223.52 682.544C1222.54 681.711 1221.3 681 1220 681C1218.7 681 1217.46 681.711 1216.48 682.544Z" fill="#1EA7FD"/>
<text fill="#666666" xml:space="preserve" style="white-space: pre" font-family="'Nunito Sans', 'Helvetica Neue', Helvetica, Arial, sans-serif" font-size="13" font-weight="bold" letter-spacing="0em"><tspan x="775.98" y="716.777">3.</tspan></text>
<rect x="792" y="703" width="157" height="16" rx="2" fill="#F3F3F3"/>
<text fill="#444444" xml:space="preserve" style="white-space: pre" font-family="Menlo" font-size="12" letter-spacing="0em"><tspan x="798" y="715.154">button.feA_uL.hYaIqu</tspan></text>
<rect x="792.5" y="703.5" width="156" height="15" rx="1.5" stroke="black" stroke-opacity="0.1"/>
<path d="M1220 714.143C1221.18 714.143 1222.14 713.183 1222.14 712C1222.14 710.816 1221.18 709.857 1220 709.857C1218.82 709.857 1217.86 710.816 1217.86 712C1217.86 713.183 1218.82 714.143 1220 714.143Z" fill="#1EA7FD"/>
<path fill-rule="evenodd" clip-rule="evenodd" d="M1226 712L1225.82 712.251C1225.72 712.398 1223.2 715.857 1220 715.857C1216.8 715.857 1214.28 712.398 1214.18 712.251L1214 712L1214.18 711.749C1214.28 711.602 1216.8 708.143 1220 708.143C1223.2 708.143 1225.72 711.602 1225.82 711.749L1226 712ZM1216.48 710.544C1215.82 711.109 1215.32 711.682 1215.07 712C1215.32 712.317 1215.82 712.891 1216.48 713.455C1217.46 714.288 1218.7 715 1220 715C1221.3 715 1222.54 714.288 1223.52 713.455C1224.18 712.891 1224.68 712.317 1224.93 712C1224.68 711.682 1224.18 711.109 1223.52 710.544C1222.54 709.711 1221.3 709 1220 709C1218.7 709 1217.46 709.711 1216.48 710.544Z" fill="#1EA7FD"/>
<text fill="#666666" xml:space="preserve" style="white-space: pre" font-family="'Nunito Sans', 'Helvetica Neue', Helvetica, Arial, sans-serif" font-size="13" font-weight="bold" letter-spacing="0em"><tspan x="775.98" y="744.777">4.</tspan></text>
<rect x="792" y="731" width="70" height="16" rx="2" fill="#F3F3F3"/>
<text fill="#444444" xml:space="preserve" style="white-space: pre" font-family="Menlo" font-size="12" letter-spacing="0em"><tspan x="798" y="743.154">a.eNIcSW</tspan></text>
<rect x="792.5" y="731.5" width="69" height="15" rx="1.5" stroke="black" stroke-opacity="0.1"/>
<path d="M1220 742.143C1221.18 742.143 1222.14 741.183 1222.14 740C1222.14 738.816 1221.18 737.857 1220 737.857C1218.82 737.857 1217.86 738.816 1217.86 740C1217.86 741.183 1218.82 742.143 1220 742.143Z" fill="#1EA7FD"/>
<path fill-rule="evenodd" clip-rule="evenodd" d="M1226 740L1225.82 740.251C1225.72 740.398 1223.2 743.857 1220 743.857C1216.8 743.857 1214.28 740.398 1214.18 740.251L1214 740L1214.18 739.749C1214.28 739.602 1216.8 736.143 1220 736.143C1223.2 736.143 1225.72 739.602 1225.82 739.749L1226 740ZM1216.48 738.544C1215.82 739.109 1215.32 739.682 1215.07 740C1215.32 740.317 1215.82 740.891 1216.48 741.455C1217.46 742.288 1218.7 743 1220 743C1221.3 743 1222.54 742.288 1223.52 741.455C1224.18 740.891 1224.68 740.317 1224.93 740C1224.68 739.682 1224.18 739.109 1223.52 738.544C1222.54 737.711 1221.3 737 1220 737C1218.7 737 1217.46 737.711 1216.48 738.544Z" fill="#1EA7FD"/>
</g>
<rect x="291.5" y="570.5" width="949" height="202" stroke="#EEEEEE"/>
<rect x="291.5" y="772.5" width="949" height="39" fill="white"/>
<text fill="#333333" xml:space="preserve" style="white-space: pre" font-family="'Nunito Sans', 'Helvetica Neue', Helvetica, Arial, sans-serif" font-size="13" font-weight="bold" letter-spacing="0em"><tspan x="307" y="796.277">Incorrect tab order</tspan></text>
<rect x="1132" y="782" width="66" height="20" rx="10" fill="#FEDED2"/>
<text fill="#D43900" xml:space="preserve" style="white-space: pre" font-family="'Nunito Sans', 'Helvetica Neue', Helvetica, Arial, sans-serif" font-size="12" font-weight="bold" letter-spacing="0em"><tspan x="1144" y="795.948">Serious</tspan></text>
<rect x="1132.5" y="782.5" width="65" height="19" rx="9.5" stroke="#D43900" stroke-opacity="0.1"/>
<path d="M1219.35 785.146L1223.35 789.146C1223.55 789.342 1223.55 789.658 1223.35 789.854C1223.16 790.049 1222.84 790.049 1222.65 789.854L1219 786.207L1215.35 789.854C1215.16 790.049 1214.84 790.049 1214.65 789.854C1214.45 789.658 1214.45 789.342 1214.65 789.146L1218.65 785.146C1218.84 784.951 1219.16 784.951 1219.35 785.146Z" fill="#7A858E"/>
<path d="M1223.35 794.146C1223.55 794.342 1223.55 794.658 1223.35 794.854L1219.35 798.854C1219.16 799.049 1218.84 799.049 1218.65 798.854L1214.65 794.854C1214.45 794.658 1214.45 794.342 1214.65 794.146C1214.84 793.951 1215.16 793.951 1215.35 794.146L1219 797.793L1222.65 794.146C1222.84 793.951 1223.16 793.951 1223.35 794.146Z" fill="#7A858E"/>
<rect x="291.5" y="772.5" width="949" height="39" stroke="#EEEEEE"/>
</g>
<path d="M292 489H1240V491H292V489ZM1240 849H292H1240ZM292 849V490V849ZM1240 490V849V490Z" fill="#E1E5E8" mask="url(#path-3-outside-2_5704_92790)"/>
</g>
<path d="M292 489H1240V491H292V489ZM1240 849H292H1240ZM292 849V490V849ZM1240 490V849V490Z" fill="#E1E5E8" mask="url(#path-1-inside-1_5704_92790)"/>
<defs>
<clipPath id="clip0_5704_92790">
<path d="M292 490H1240V841C1240 845.418 1236.42 849 1232 849H300C295.582 849 292 845.418 292 841V490Z" fill="white"/>
</clipPath>
<clipPath id="clip1_5704_92790">
<path d="M292 490H1240V841C1240 845.418 1236.42 849 1232 849H300C295.582 849 292 845.418 292 841V490Z" fill="white"/>
</clipPath>
<clipPath id="clip2_5704_92790">
<rect width="14" height="14" fill="white" transform="translate(1209 503)"/>
</clipPath>
<clipPath id="clip3_5704_92790">
<rect width="948" height="40" fill="white" transform="translate(292 531)"/>
</clipPath>
<clipPath id="clip4_5704_92790">
<rect x="292" y="571" width="948" height="201" fill="white"/>
</clipPath>
<clipPath id="clip5_5704_92790">
<rect width="12" height="12" fill="white" transform="translate(442 723)"/>
</clipPath>
<clipPath id="clip6_5704_92790">
<rect width="12" height="12" fill="white" transform="translate(452 741)"/>
</clipPath>
<clipPath id="clip7_5704_92790">
<rect width="12" height="12" fill="white" transform="translate(1214 622)"/>
</clipPath>
</defs>
</svg>
