<svg width="1281" height="920" viewBox="0 0 1281 920" fill="none" xmlns="http://www.w3.org/2000/svg">
<g clip-path="url(#clip0_5704_91450)">
<g clip-path="url(#clip1_5704_91450)">
<mask id="path-3-outside-2_5704_91450" maskUnits="userSpaceOnUse" x="292" y="489" width="948" height="360" fill="black">
<rect fill="white" x="292" y="489" width="948" height="360"/>
<path d="M292 490H1240V841C1240 845.418 1236.42 849 1232 849H300C295.582 849 292 845.418 292 841V490Z"/>
</mask>
<path d="M292 490H1240V841C1240 845.418 1236.42 849 1232 849H300C295.582 849 292 845.418 292 841V490Z" fill="white"/>
<mask id="path-5-inside-3_5704_91450" fill="white">
<path d="M292 490H1240V531H292V490Z"/>
</mask>
<path d="M292 490H1240V531H292V490Z" fill="white"/>
<text fill="#7A858E" xml:space="preserve" style="white-space: pre" font-family="Nunito Sans" font-size="14" font-weight="bold" letter-spacing="0em"><tspan x="307" y="514.606">Controls</tspan></text>
<text fill="#1EA7FD" xml:space="preserve" style="white-space: pre" font-family="Nunito Sans" font-size="14" font-weight="bold" letter-spacing="0em"><tspan x="392" y="514.606">Interactions</tspan></text>
<rect x="377" y="527" width="107" height="3" fill="#1EA7FD"/>
<text fill="#7A858E" xml:space="preserve" style="white-space: pre" font-family="Nunito Sans" font-size="14" font-weight="bold" letter-spacing="0em"><tspan x="499" y="514.606">Design</tspan></text>
<text fill="#7A858E" xml:space="preserve" style="white-space: pre" font-family="Nunito Sans" font-size="14" font-weight="bold" letter-spacing="0em"><tspan x="575" y="514.606">Accessibility</tspan></text>
<text fill="#7A858E" xml:space="preserve" style="white-space: pre" font-family="Nunito Sans" font-size="14" font-weight="bold" letter-spacing="0em"><tspan x="686" y="514.606">Actions</tspan></text>
<path d="M1186.5 507.504C1186.5 507.228 1186.72 507.004 1187 507.004H1188C1188.28 507.004 1188.5 507.228 1188.5 507.504C1188.5 507.78 1188.28 508.004 1188 508.004H1187C1186.72 508.004 1186.5 507.78 1186.5 507.504Z" fill="#7A858E"/>
<path d="M1187 509.004C1186.72 509.004 1186.5 509.228 1186.5 509.504C1186.5 509.78 1186.72 510.004 1187 510.004H1188C1188.28 510.004 1188.5 509.78 1188.5 509.504C1188.5 509.228 1188.28 509.004 1188 509.004H1187Z" fill="#7A858E"/>
<path d="M1186.5 511.504C1186.5 511.228 1186.72 511.004 1187 511.004H1188C1188.28 511.004 1188.5 511.228 1188.5 511.504C1188.5 511.78 1188.28 512.004 1188 512.004H1187C1186.72 512.004 1186.5 511.78 1186.5 511.504Z" fill="#7A858E"/>
<path fill-rule="evenodd" clip-rule="evenodd" d="M1178.5 516.004C1178.22 516.004 1178 515.78 1178 515.504V504.504C1178 504.228 1178.22 504.004 1178.5 504.004H1189.5C1189.78 504.004 1190 504.228 1190 504.504V515.504C1190 515.78 1189.78 516.004 1189.5 516.004H1178.5ZM1179 515.004V505.004H1185V515.004H1179ZM1186 505.004H1189V515.004H1186V505.004Z" fill="#7A858E"/>
<g clip-path="url(#clip2_5704_91450)">
<path d="M1218.85 507.146C1219.05 507.342 1219.05 507.658 1218.85 507.854L1216.71 510L1218.85 512.146C1219.05 512.342 1219.05 512.658 1218.85 512.854C1218.66 513.049 1218.34 513.049 1218.15 512.854L1216 510.707L1213.85 512.854C1213.66 513.049 1213.34 513.049 1213.15 512.854C1212.95 512.658 1212.95 512.342 1213.15 512.146L1215.29 510L1213.15 507.854C1212.95 507.658 1212.95 507.342 1213.15 507.146C1213.34 506.951 1213.66 506.951 1213.85 507.146L1216 509.293L1218.15 507.146C1218.34 506.951 1218.66 506.951 1218.85 507.146Z" fill="#7A858E"/>
<path fill-rule="evenodd" clip-rule="evenodd" d="M1216 517C1219.87 517 1223 513.866 1223 510C1223 506.134 1219.87 503 1216 503C1212.13 503 1209 506.134 1209 510C1209 513.866 1212.13 517 1216 517ZM1216 516C1219.31 516 1222 513.314 1222 510C1222 506.686 1219.31 504 1216 504C1212.69 504 1210 506.686 1210 510C1210 513.314 1212.69 516 1216 516Z" fill="#7A858E"/>
</g>
<path d="M1240 530H292V532H1240V530Z" fill="#E1E5E8" mask="url(#path-5-inside-3_5704_91450)"/>
<rect width="948" height="40" transform="translate(292 531)" fill="#F6F9FC"/>
<rect x="292" y="570" width="948" height="1" fill="#DDDDDD"/>
<rect x="307" y="539" width="65" height="24" rx="5" fill="#66BF3C"/>
<text fill="white" xml:space="preserve" style="white-space: pre" font-family="Nunito Sans" font-size="11" font-weight="800" letter-spacing="0.4em"><tspan x="318.398" y="554.619">PASS</tspan></text>
<g opacity="0.5">
<text fill="#666666" xml:space="preserve" style="white-space: pre" font-family="Nunito Sans" font-size="13" font-weight="bold" letter-spacing="0em"><tspan x="387" y="555.277">Scroll to end</tspan></text>
</g>
<rect x="479" y="539" width="1" height="24" fill="black" fill-opacity="0.1"/>
<g opacity="0.4">
<path d="M509 546.419V548.735L513.228 545.999C513.561 545.784 514 546.023 514 546.419V555.581C514 555.977 513.561 556.216 513.228 556L509 553.264V555.581C509 555.977 508.561 556.216 508.228 556.001L501.5 551.647V555.25C501.5 555.664 501.164 556 500.75 556C500.336 556 500 555.664 500 555.25V546.75C500 546.336 500.336 546 500.75 546C501.164 546 501.5 546.336 501.5 546.75V550.353L508.228 545.999C508.561 545.784 509 546.023 509 546.419Z" fill="#999999"/>
</g>
<g opacity="0.4">
<path d="M540.239 556.035L532.698 551.427C532.605 551.369 532.539 551.289 532.5 551.2V555.25C532.5 555.664 532.164 556 531.75 556C531.336 556 531 555.664 531 555.25V546.75C531 546.336 531.336 546 531.75 546C532.164 546 532.5 546.336 532.5 546.75L532.5 550.8C532.539 550.71 532.605 550.63 532.698 550.573L540.239 545.965C540.572 545.761 541 546.001 541 546.391V555.608C541 555.999 540.572 556.239 540.239 556.035Z" fill="#999999"/>
</g>
<g opacity="0.5">
<path d="M560.761 556.035L568.302 551.427C568.395 551.369 568.461 551.289 568.5 551.2V555.25C568.5 555.664 568.836 556 569.25 556C569.664 556 570 555.664 570 555.25V546.75C570 546.336 569.664 546 569.25 546C568.836 546 568.5 546.336 568.5 546.75V550.8C568.461 550.71 568.395 550.63 568.302 550.573L560.761 545.965C560.428 545.761 560 546.001 560 546.391V555.608C560 555.999 560.428 556.239 560.761 556.035Z" fill="#999999"/>
</g>
<g opacity="0.5">
<path d="M592 546.419V548.735L587.772 545.999C587.439 545.784 587 546.023 587 546.419V555.581C587 555.977 587.439 556.216 587.772 556L592 553.264V555.581C592 555.977 592.439 556.216 592.772 556.001L599.5 551.647V555.25C599.5 555.664 599.836 556 600.25 556C600.664 556 601 555.664 601 555.25V546.75C601 546.336 600.664 546 600.25 546C599.836 546 599.5 546.336 599.5 546.75V550.353L592.772 545.999C592.439 545.784 592 546.023 592 546.419Z" fill="#999999"/>
</g>
<path d="M509 546.419V548.735L513.228 545.999C513.561 545.784 514 546.023 514 546.419V555.581C514 555.977 513.561 556.216 513.228 556L509 553.264V555.581C509 555.977 508.561 556.216 508.228 556.001L501.5 551.647V555.25C501.5 555.664 501.164 556 500.75 556C500.336 556 500 555.664 500 555.25V546.75C500 546.336 500.336 546 500.75 546C501.164 546 501.5 546.336 501.5 546.75V550.353L508.228 545.999C508.561 545.784 509 546.023 509 546.419Z" fill="#999999"/>
<path d="M540.239 556.035L532.698 551.427C532.605 551.369 532.539 551.289 532.5 551.2V555.25C532.5 555.664 532.164 556 531.75 556C531.336 556 531 555.664 531 555.25V546.75C531 546.336 531.336 546 531.75 546C532.164 546 532.5 546.336 532.5 546.75L532.5 550.8C532.539 550.71 532.605 550.63 532.698 550.573L540.239 545.965C540.572 545.761 541 546.001 541 546.391V555.608C541 555.999 540.572 556.239 540.239 556.035Z" fill="#999999"/>
<path d="M560.761 556.035L568.302 551.427C568.395 551.369 568.461 551.289 568.5 551.2V555.25C568.5 555.664 568.836 556 569.25 556C569.664 556 570 555.664 570 555.25V546.75C570 546.336 569.664 546 569.25 546C568.836 546 568.5 546.336 568.5 546.75V550.8C568.461 550.71 568.395 550.63 568.302 550.573L560.761 545.965C560.428 545.761 560 546.001 560 546.391V555.608C560 555.999 560.428 556.239 560.761 556.035Z" fill="#999999"/>
<path d="M592 546.419V548.735L587.772 545.999C587.439 545.784 587 546.023 587 546.419V555.581C587 555.977 587.439 556.216 587.772 556L592 553.264V555.581C592 555.977 592.439 556.216 592.772 556.001L599.5 551.647V555.25C599.5 555.664 599.836 556 600.25 556C600.664 556 601 555.664 601 555.25V546.75C601 546.336 600.664 546 600.25 546C599.836 546 599.5 546.336 599.5 546.75V550.353L592.772 545.999C592.439 545.784 592 546.023 592 546.419Z" fill="#999999"/>
<g clip-path="url(#clip3_5704_91450)">
<path d="M621.5 545C621.5 544.724 621.276 544.5 621 544.5H618C617.724 544.5 617.5 544.724 617.5 545C617.5 545.276 617.724 545.5 618 545.5H619.535C617.712 546.651 616.5 548.684 616.5 551C616.5 554.221 618.843 556.894 621.917 557.41C622.19 557.456 622.447 557.272 622.493 557C622.539 556.727 622.355 556.47 622.083 556.424C619.482 555.988 617.5 553.725 617.5 551C617.5 548.863 618.719 547.01 620.5 546.1V548C620.5 548.276 620.724 548.5 621 548.5C621.276 548.5 621.5 548.276 621.5 548V545.353C621.5 545.345 621.5 545.338 621.5 545.33V545Z" fill="#999999"/>
<path d="M623.507 545C623.553 544.728 623.81 544.544 624.083 544.59C627.157 545.106 629.5 547.779 629.5 551C629.5 553.316 628.288 555.349 626.466 556.5H628C628.276 556.5 628.5 556.724 628.5 557C628.5 557.276 628.276 557.5 628 557.5H625C624.724 557.5 624.5 557.276 624.5 557V554C624.5 553.724 624.724 553.5 625 553.5C625.276 553.5 625.5 553.724 625.5 554V555.9C627.281 554.99 628.5 553.137 628.5 551C628.5 548.275 626.518 546.012 623.917 545.576C623.645 545.53 623.461 545.273 623.507 545Z" fill="#999999"/>
</g>
<text fill="#666666" xml:space="preserve" style="white-space: pre" font-family="Nunito Sans" font-size="13" letter-spacing="0em"><tspan x="1093.17" y="555.277">RangeSlider.stories.tsx</tspan></text>
<circle cx="313" cy="591" r="3" fill="#CCCCCC"/>
<text fill="#999999" xml:space="preserve" style="white-space: pre" font-family="Nunito Sans" font-size="13" letter-spacing="0em"><tspan x="325" y="595.277">Raise the minimum value by dragging the slider thumb</tspan></text>
<rect x="291.5" y="570.5" width="949" height="41" stroke="#EEEEEE"/>
<rect x="291.5" y="570.5" width="949" height="41" fill="white"/>
<g clip-path="url(#clip4_5704_91450)">
<path d="M318.874 587.875C319.042 587.707 319.042 587.436 318.874 587.269C318.707 587.101 318.436 587.101 318.268 587.269L311.286 594.251L307.732 590.697C307.564 590.53 307.293 590.53 307.126 590.697C306.958 590.865 306.958 591.136 307.126 591.303L310.983 595.16C311.15 595.328 311.421 595.328 311.589 595.16L318.874 587.875Z" fill="#66BF3C"/>
</g>
<text fill="#333333" xml:space="preserve" style="white-space: pre" font-family="Nunito Sans" font-size="13" letter-spacing="0em"><tspan x="325" y="595.277">Raise the minimum value by dragging the slider thumb</tspan></text>
<rect x="291.5" y="570.5" width="949" height="41" stroke="#EEEEEE"/>
<circle cx="313" cy="632" r="3" fill="#CCCCCC"/>
<text fill="#999999" xml:space="preserve" style="white-space: pre" font-family="Nunito Sans" font-size="13" letter-spacing="0em"><tspan x="325" y="636.277">Lower the maximum value by dragging the slider thumb</tspan></text>
<rect x="291.5" y="611.5" width="949" height="41" stroke="#EEEEEE"/>
<rect x="291.5" y="611.5" width="949" height="41" fill="white"/>
<g clip-path="url(#clip5_5704_91450)">
<path d="M318.874 628.875C319.042 628.707 319.042 628.436 318.874 628.269C318.707 628.101 318.436 628.101 318.268 628.269L311.286 635.251L307.732 631.697C307.564 631.53 307.293 631.53 307.126 631.697C306.958 631.865 306.958 632.136 307.126 632.303L310.983 636.16C311.15 636.328 311.421 636.328 311.589 636.16L318.874 628.875Z" fill="#66BF3C"/>
</g>
<text fill="#333333" xml:space="preserve" style="white-space: pre" font-family="Nunito Sans" font-size="13" letter-spacing="0em"><tspan x="325" y="636.277">Lower the maximum value by dragging the slider thumb</tspan></text>
<rect x="291.5" y="611.5" width="949" height="41" stroke="#EEEEEE"/>
<circle cx="313" cy="673" r="3" fill="#CCCCCC"/>
<text fill="#999999" xml:space="preserve" style="white-space: pre" font-family="Nunito Sans" font-size="13" letter-spacing="0em"><tspan x="325" y="677.277">Average price should update</tspan></text>
<rect x="291.5" y="652.5" width="949" height="41" stroke="#EEEEEE"/>
<rect x="291.5" y="652.5" width="949" height="41" fill="white"/>
<g clip-path="url(#clip6_5704_91450)">
<path d="M318.874 669.875C319.042 669.707 319.042 669.436 318.874 669.269C318.707 669.101 318.436 669.101 318.268 669.269L311.286 676.251L307.732 672.697C307.564 672.53 307.293 672.53 307.126 672.697C306.958 672.865 306.958 673.136 307.126 673.303L310.983 677.16C311.15 677.328 311.421 677.328 311.589 677.16L318.874 669.875Z" fill="#66BF3C"/>
</g>
<text fill="#333333" xml:space="preserve" style="white-space: pre" font-family="Nunito Sans" font-size="13" letter-spacing="0em"><tspan x="325" y="677.277">Average price should update</tspan></text>
<rect x="291.5" y="652.5" width="949" height="41" stroke="#EEEEEE"/>
<rect width="948" height="1" transform="translate(292 652)" fill="#E69D00"/>
<path d="M292 648L298.5 652.5L292 657V648Z" fill="#E69D00"/>
<rect width="948" height="1" transform="translate(292 611)" fill="#E69D00"/>
<path d="M292 607L298.5 611.5L292 616V607Z" fill="#E69D00"/>
<rect width="948" height="1" transform="translate(292 570)" fill="#E69D00"/>
<path d="M292 566L298.5 570.5L292 575V566Z" fill="#E69D00"/>
</g>
<path d="M292 489H1240V491H292V489ZM1240 849H292H1240ZM292 849V490V849ZM1240 490V849V490Z" fill="#E1E5E8" mask="url(#path-3-outside-2_5704_91450)"/>
</g>
<path d="M292 489H1240V491H292V489ZM1240 849H292H1240ZM292 849V490V849ZM1240 490V849V490Z" fill="#E1E5E8" mask="url(#path-1-inside-1_5704_91450)"/>
<defs>
<clipPath id="clip0_5704_91450">
<path d="M292 490H1240V841C1240 845.418 1236.42 849 1232 849H300C295.582 849 292 845.418 292 841V490Z" fill="white"/>
</clipPath>
<clipPath id="clip1_5704_91450">
<path d="M292 490H1240V841C1240 845.418 1236.42 849 1232 849H300C295.582 849 292 845.418 292 841V490Z" fill="white"/>
</clipPath>
<clipPath id="clip2_5704_91450">
<rect width="14" height="14" fill="white" transform="translate(1209 503)"/>
</clipPath>
<clipPath id="clip3_5704_91450">
<rect width="14" height="14" fill="white" transform="translate(616 544)"/>
</clipPath>
<clipPath id="clip4_5704_91450">
<rect width="12" height="12" fill="white" transform="translate(307 585)"/>
</clipPath>
<clipPath id="clip5_5704_91450">
<rect width="12" height="12" fill="white" transform="translate(307 626)"/>
</clipPath>
<clipPath id="clip6_5704_91450">
<rect width="12" height="12" fill="white" transform="translate(307 667)"/>
</clipPath>
</defs>
</svg>
