<svg xmlns="http://www.w3.org/2000/svg" width="1201" height="830" fill="none" viewBox="0 0 1201 830"><g clip-path="url(#clip0_5704_90610)"><mask id="path-3-outside-2_5704_90610" width="948" height="360" x="252" y="469" fill="#000" maskUnits="userSpaceOnUse"><rect width="948" height="360" x="252" y="469" fill="#fff"/><path d="M252 470H1200V821C1200 825.418 1196.42 829 1192 829H260C255.582 829 252 825.418 252 821V470Z"/></mask><path fill="#fff" d="M252 470H1200V821C1200 825.418 1196.42 829 1192 829H260C255.582 829 252 825.418 252 821V470Z"/><mask id="path-5-inside-3_5704_90610" fill="#fff"><path d="M252 470H1200V511H252V470Z"/></mask><path fill="#fff" d="M252 470H1200V511H252V470Z"/><text fill="#1EA7FD" font-family="'Nunito Sans', 'Helvetica Neue', Helvetica, Arial, sans-serif" font-size="14" font-weight="bold" letter-spacing="0em" xml:space="preserve" style="white-space:pre"><tspan x="267" y="494.606">Controls</tspan></text><rect width="85" height="3" x="252" y="507" fill="#1EA7FD"/><text fill="#7A858E" font-family="'Nunito Sans', 'Helvetica Neue', Helvetica, Arial, sans-serif" font-size="14" font-weight="bold" letter-spacing="0em" xml:space="preserve" style="white-space:pre"><tspan x="352" y="494.606">Interactions</tspan></text><text fill="#7A858E" font-family="'Nunito Sans', 'Helvetica Neue', Helvetica, Arial, sans-serif" font-size="14" font-weight="bold" letter-spacing="0em" xml:space="preserve" style="white-space:pre"><tspan x="459" y="494.606">Design</tspan></text><text fill="#7A858E" font-family="'Nunito Sans', 'Helvetica Neue', Helvetica, Arial, sans-serif" font-size="14" font-weight="bold" letter-spacing="0em" xml:space="preserve" style="white-space:pre"><tspan x="535" y="494.606">Accessibility</tspan></text><text fill="#7A858E" font-family="'Nunito Sans', 'Helvetica Neue', Helvetica, Arial, sans-serif" font-size="14" font-weight="bold" letter-spacing="0em" xml:space="preserve" style="white-space:pre"><tspan x="646" y="494.606">Actions</tspan></text><path fill="#7A858E" d="M1146.5 487.504C1146.5 487.228 1146.72 487.004 1147 487.004H1148C1148.28 487.004 1148.5 487.228 1148.5 487.504C1148.5 487.78 1148.28 488.004 1148 488.004H1147C1146.72 488.004 1146.5 487.78 1146.5 487.504Z"/><path fill="#7A858E" d="M1147 489.004C1146.72 489.004 1146.5 489.228 1146.5 489.504C1146.5 489.78 1146.72 490.004 1147 490.004H1148C1148.28 490.004 1148.5 489.78 1148.5 489.504C1148.5 489.228 1148.28 489.004 1148 489.004H1147Z"/><path fill="#7A858E" d="M1146.5 491.504C1146.5 491.228 1146.72 491.004 1147 491.004H1148C1148.28 491.004 1148.5 491.228 1148.5 491.504C1148.5 491.78 1148.28 492.004 1148 492.004H1147C1146.72 492.004 1146.5 491.78 1146.5 491.504Z"/><path fill="#7A858E" fill-rule="evenodd" d="M1138.5 496.004C1138.22 496.004 1138 495.78 1138 495.504V484.504C1138 484.228 1138.22 484.004 1138.5 484.004H1149.5C1149.78 484.004 1150 484.228 1150 484.504V495.504C1150 495.78 1149.78 496.004 1149.5 496.004H1138.5ZM1139 495.004V485.004H1145V495.004H1139ZM1146 485.004H1149V495.004H1146V485.004Z" clip-rule="evenodd"/><g clip-path="url(#clip1_5704_90610)"><path fill="#7A858E" d="M1178.85 487.146C1179.05 487.342 1179.05 487.658 1178.85 487.854L1176.71 490L1178.85 492.146C1179.05 492.342 1179.05 492.658 1178.85 492.854C1178.66 493.049 1178.34 493.049 1178.15 492.854L1176 490.707L1173.85 492.854C1173.66 493.049 1173.34 493.049 1173.15 492.854C1172.95 492.658 1172.95 492.342 1173.15 492.146L1175.29 490L1173.15 487.854C1172.95 487.658 1172.95 487.342 1173.15 487.146C1173.34 486.951 1173.66 486.951 1173.85 487.146L1176 489.293L1178.15 487.146C1178.34 486.951 1178.66 486.951 1178.85 487.146Z"/><path fill="#7A858E" fill-rule="evenodd" d="M1176 497C1179.87 497 1183 493.866 1183 490C1183 486.134 1179.87 483 1176 483C1172.13 483 1169 486.134 1169 490C1169 493.866 1172.13 497 1176 497ZM1176 496C1179.31 496 1182 493.314 1182 490C1182 486.686 1179.31 484 1176 484C1172.69 484 1170 486.686 1170 490C1170 493.314 1172.69 496 1176 496Z" clip-rule="evenodd"/></g><path fill="#E1E5E8" d="M1200 510H252V512H1200V510Z" mask="url(#path-5-inside-3_5704_90610)"/><rect width="948" height="40" fill="#fff" transform="translate(252 511)"/><rect width="948" height="1" x="252" y="550" fill="#DDD"/><text fill="#666" font-family="'Nunito Sans', 'Helvetica Neue', Helvetica, Arial, sans-serif" font-size="13" font-weight="bold" letter-spacing="0em" xml:space="preserve" style="white-space:pre"><tspan x="272" y="535.277">Name</tspan></text><text fill="#666" font-family="'Nunito Sans', 'Helvetica Neue', Helvetica, Arial, sans-serif" font-size="13" font-weight="bold" letter-spacing="0em" xml:space="preserve" style="white-space:pre"><tspan x="494" y="535.277">Description</tspan></text><text fill="#666" font-family="'Nunito Sans', 'Helvetica Neue', Helvetica, Arial, sans-serif" font-size="13" font-weight="bold" letter-spacing="0em" xml:space="preserve" style="white-space:pre"><tspan x="736" y="535.277">Default</tspan></text><text fill="#666" font-family="'Nunito Sans', 'Helvetica Neue', Helvetica, Arial, sans-serif" font-size="13" font-weight="bold" letter-spacing="0em" xml:space="preserve" style="white-space:pre"><tspan x="978" y="535.277">Controls</tspan></text><g clip-path="url(#clip2_5704_90610)"><path fill="#7A858E" d="M1174.5 525C1174.5 524.724 1174.28 524.5 1174 524.5H1171C1170.72 524.5 1170.5 524.724 1170.5 525C1170.5 525.276 1170.72 525.5 1171 525.5H1172.53C1170.71 526.651 1169.5 528.684 1169.5 531C1169.5 534.221 1171.84 536.894 1174.92 537.41C1175.19 537.456 1175.45 537.272 1175.49 537C1175.54 536.727 1175.36 536.47 1175.08 536.424C1172.48 535.988 1170.5 533.725 1170.5 531C1170.5 528.863 1171.72 527.01 1173.5 526.1V528C1173.5 528.276 1173.72 528.5 1174 528.5C1174.28 528.5 1174.5 528.276 1174.5 528V525.353C1174.5 525.345 1174.5 525.338 1174.5 525.33V525Z"/><path fill="#7A858E" d="M1176.51 525C1176.55 524.728 1176.81 524.544 1177.08 524.59C1180.16 525.106 1182.5 527.779 1182.5 531C1182.5 533.316 1181.29 535.349 1179.47 536.5H1181C1181.28 536.5 1181.5 536.724 1181.5 537C1181.5 537.276 1181.28 537.5 1181 537.5H1178C1177.72 537.5 1177.5 537.276 1177.5 537V534C1177.5 533.724 1177.72 533.5 1178 533.5C1178.28 533.5 1178.5 533.724 1178.5 534V535.9C1180.28 534.99 1181.5 533.137 1181.5 531C1181.5 528.275 1179.52 526.012 1176.92 525.576C1176.64 525.53 1176.46 525.273 1176.51 525Z"/></g><rect width="948" height="40" fill="#F6F9FC" transform="translate(252 551)"/><rect width="948" height="1" x="252" y="590" fill="#DDD"/><text fill="#666" font-family="'Nunito Sans', 'Helvetica Neue', Helvetica, Arial, sans-serif" font-size="11" font-weight="800" letter-spacing=".38em" xml:space="preserve" style="white-space:pre"><tspan x="263" y="574.119">PROPS</tspan></text><mask id="path-26-inside-4_5704_90610" fill="#fff"><path d="M252 591H1200V649H252V591Z"/></mask><path fill="#fff" d="M252 591H1200V649H252V591Z"/><text fill="#666" font-family="'Nunito Sans', 'Helvetica Neue', Helvetica, Arial, sans-serif" font-size="13" font-weight="bold" letter-spacing="0em" xml:space="preserve" style="white-space:pre"><tspan x="272" y="614.277">label</tspan></text><rect width="56" height="16" x="494" y="601" fill="#F3F3F3" rx="2"/><text fill="#444" font-family="'SFMono-Regular', Consolas, 'Liberation Mono', Menlo, Courier, monospace" font-size="12" letter-spacing="0em" xml:space="preserve" style="white-space:pre"><tspan x="500" y="613.154">String</tspan></text><rect width="55" height="15" x="494.5" y="601.5" stroke="#000" stroke-opacity=".1" rx="1.5"/><text fill="#666" font-family="'Nunito Sans', 'Helvetica Neue', Helvetica, Arial, sans-serif" font-size="13" letter-spacing="0em" xml:space="preserve" style="white-space:pre"><tspan x="736" y="614.277">-</tspan></text><rect width="201" height="31" x="978.5" y="601.5" fill="#fff" rx="3.5"/><text fill="#333" font-family="'Nunito Sans', 'Helvetica Neue', Helvetica, Arial, sans-serif" font-size="12" letter-spacing="0em" xml:space="preserve" style="white-space:pre"><tspan x="990" y="621.948">Average nightly price:</tspan></text><rect width="201" height="31" x="978.5" y="601.5" stroke="#E1E5E8" rx="3.5"/><path fill="#E1E5E8" d="M1200 648H252V650H1200V648Z" mask="url(#path-26-inside-4_5704_90610)"/><mask id="path-35-inside-5_5704_90610" fill="#fff"><path d="M252 649H1200V707H252V649Z"/></mask><path fill="#fff" d="M252 649H1200V707H252V649Z"/><text fill="#666" font-family="'Nunito Sans', 'Helvetica Neue', Helvetica, Arial, sans-serif" font-size="13" font-weight="bold" letter-spacing="0em" xml:space="preserve" style="white-space:pre"><tspan x="272" y="672.277">mininumPrice</tspan></text><text fill="#666" font-family="'Nunito Sans', 'Helvetica Neue', Helvetica, Arial, sans-serif" font-size="13" letter-spacing="0em" xml:space="preserve" style="white-space:pre"><tspan x="494" y="672.277">Minimum price</tspan></text><rect width="56" height="16" x="494" y="679" fill="#F3F3F3" rx="2"/><text fill="#444" font-family="'SFMono-Regular', Consolas, 'Liberation Mono', Menlo, Courier, monospace" font-size="12" letter-spacing="0em" xml:space="preserve" style="white-space:pre"><tspan x="500" y="691.154">Number</tspan></text><rect width="55" height="15" x="494.5" y="679.5" stroke="#000" stroke-opacity=".1" rx="1.5"/><rect width="20" height="16" x="736" y="659" fill="#F3F3F3" rx="2"/><text fill="#444" font-family="'SFMono-Regular', Consolas, 'Liberation Mono', Menlo, Courier, monospace" font-size="12" letter-spacing="0em" xml:space="preserve" style="white-space:pre"><tspan x="742" y="671.154">0</tspan></text><rect width="19" height="15" x="736.5" y="659.5" stroke="#000" stroke-opacity=".1" rx="1.5"/><rect width="201" height="31" x="978.5" y="659.5" fill="#fff" rx="3.5"/><text fill="#7A858E" font-family="'Nunito Sans', 'Helvetica Neue', Helvetica, Arial, sans-serif" font-size="12" letter-spacing="0em" xml:space="preserve" style="white-space:pre"><tspan x="990" y="679.948">Edit number...</tspan></text><rect width="201" height="31" x="978.5" y="659.5" stroke="#E1E5E8" rx="3.5"/><path fill="#E1E5E8" d="M1200 706H252V708H1200V706Z" mask="url(#path-35-inside-5_5704_90610)"/><mask id="path-47-inside-6_5704_90610" fill="#fff"><path d="M252 707H1200V765H252V707Z"/></mask><path fill="#fff" d="M252 707H1200V765H252V707Z"/><text fill="#666" font-family="'Nunito Sans', 'Helvetica Neue', Helvetica, Arial, sans-serif" font-size="13" font-weight="bold" letter-spacing="0em" xml:space="preserve" style="white-space:pre"><tspan x="272" y="730.277">maximumPrice</tspan></text><text fill="#666" font-family="'Nunito Sans', 'Helvetica Neue', Helvetica, Arial, sans-serif" font-size="13" letter-spacing="0em" xml:space="preserve" style="white-space:pre"><tspan x="494" y="730.277">Maximum price</tspan></text><rect width="56" height="16" x="494" y="737" fill="#F3F3F3" rx="2"/><text fill="#444" font-family="'SFMono-Regular', Consolas, 'Liberation Mono', Menlo, Courier, monospace" font-size="12" letter-spacing="0em" xml:space="preserve" style="white-space:pre"><tspan x="500" y="749.154">Number</tspan></text><rect width="55" height="15" x="494.5" y="737.5" stroke="#000" stroke-opacity=".1" rx="1.5"/><rect width="20" height="16" x="736" y="717" fill="#F3F3F3" rx="2"/><text fill="#444" font-family="'SFMono-Regular', Consolas, 'Liberation Mono', Menlo, Courier, monospace" font-size="12" letter-spacing="0em" xml:space="preserve" style="white-space:pre"><tspan x="742" y="729.154">0</tspan></text><rect width="19" height="15" x="736.5" y="717.5" stroke="#000" stroke-opacity=".1" rx="1.5"/><rect width="201" height="31" x="978.5" y="717.5" fill="#fff" rx="3.5"/><text fill="#333" font-family="'Nunito Sans', 'Helvetica Neue', Helvetica, Arial, sans-serif" font-size="12" letter-spacing="0em" xml:space="preserve" style="white-space:pre"><tspan x="990" y="737.948">87</tspan></text><rect width="201" height="31" x="978.5" y="717.5" stroke="#E1E5E8" rx="3.5"/><path fill="#E1E5E8" d="M1200 764H252V766H1200V764Z" mask="url(#path-47-inside-6_5704_90610)"/><rect width="948" height="58" fill="#fff" transform="translate(252 765)"/><text fill="#666" font-family="'Nunito Sans', 'Helvetica Neue', Helvetica, Arial, sans-serif" font-size="13" font-weight="bold" letter-spacing="0em" xml:space="preserve" style="white-space:pre"><tspan x="272" y="788.277">availableStays</tspan></text><text fill="#666" font-family="'Nunito Sans', 'Helvetica Neue', Helvetica, Arial, sans-serif" font-size="13" letter-spacing="0em" xml:space="preserve" style="white-space:pre"><tspan x="494" y="788.277">TBD</tspan></text><rect width="69" height="18" x="494" y="795" fill="#F8F8F8" rx="3"/><text fill="#1EA7FD" font-family="'SFMono-Regular', Consolas, 'Liberation Mono', Menlo, Courier, monospace" font-size="12" letter-spacing="0" xml:space="preserve" style="white-space:pre"><tspan x="499" y="808.5">object</tspan></text><path fill="#666" fill-rule="evenodd" d="M552.693 807.195L548.96 803.139C548.791 802.955 548.791 802.656 548.96 802.472C549.129 802.288 549.404 802.288 549.574 802.472L552.999 806.195L556.426 802.472C556.595 802.287 556.87 802.287 557.039 802.472C557.209 802.656 557.209 802.954 557.039 803.138L553.306 807.195C553.221 807.287 553.11 807.333 552.999 807.333C552.888 807.333 552.777 807.287 552.693 807.195Z" clip-rule="evenodd"/><mask id="mask0_5704_90610" width="10" height="6" x="548" y="802" maskUnits="userSpaceOnUse" style="mask-type:alpha"><path fill="#fff" fill-rule="evenodd" d="M552.693 807.195L548.96 803.139C548.791 802.955 548.791 802.656 548.96 802.472C549.129 802.288 549.404 802.288 549.574 802.472L552.999 806.195L556.426 802.472C556.595 802.287 556.87 802.287 557.039 802.472C557.209 802.656 557.209 802.954 557.039 803.138L553.306 807.195C553.221 807.287 553.11 807.333 552.999 807.333C552.888 807.333 552.777 807.287 552.693 807.195Z" clip-rule="evenodd"/></mask><g mask="url(#mask0_5704_90610)"><rect width="10" height="10" x="548" y="799" fill="#1EA7FD"/></g><text fill="#666" font-family="'Nunito Sans', 'Helvetica Neue', Helvetica, Arial, sans-serif" font-size="13" letter-spacing="0em" xml:space="preserve" style="white-space:pre"><tspan x="736" y="788.277">-</tspan></text><rect width="79" height="31" x="978.5" y="775.5" fill="#F0F9FF" rx="3.5"/><text fill="#304756" font-family="'Nunito Sans', 'Helvetica Neue', Helvetica, Arial, sans-serif" font-size="12" font-weight="bold" letter-spacing="0em" xml:space="preserve" style="white-space:pre"><tspan x="990" y="794.948">Set object</tspan></text><rect width="79" height="31" x="978.5" y="775.5" stroke="#CBE1EE" rx="3.5"/><path fill="#E1E5E8" d="M252 469H1200V470H252V469ZM1200 829H252H1200ZM252 829V470V829ZM1200 470V829V470Z" mask="url(#path-3-outside-2_5704_90610)"/></g><path fill="#E1E5E8" d="M252 469H1200V470H252V469ZM1200 829H252H1200ZM252 829V470V829ZM1200 470V829V470Z" mask="url(#path-1-inside-1_5704_90610)"/><defs><clipPath id="clip0_5704_90610"><path fill="#fff" d="M252 470H1200V821C1200 825.418 1196.42 829 1192 829H260C255.582 829 252 825.418 252 821V470Z"/></clipPath><clipPath id="clip1_5704_90610"><rect width="14" height="14" fill="#fff" transform="translate(1169 483)"/></clipPath><clipPath id="clip2_5704_90610"><rect width="14" height="14" fill="#fff" transform="translate(1169 524)"/></clipPath></defs></svg>