<svg xmlns="http://www.w3.org/2000/svg" width="1201" height="830" fill="none" viewBox="0 0 1201 830"><g clip-path="url(#clip0_5704_92120)"><g clip-path="url(#clip1_5704_92120)"><mask id="path-3-outside-2_5704_92120" width="948" height="360" x="252" y="469" fill="#000" maskUnits="userSpaceOnUse"><rect width="948" height="360" x="252" y="469" fill="#fff"/><path d="M252 470H1200V821C1200 825.418 1196.42 829 1192 829H260C255.582 829 252 825.418 252 821V470Z"/></mask><path fill="#fff" d="M252 470H1200V821C1200 825.418 1196.42 829 1192 829H260C255.582 829 252 825.418 252 821V470Z"/><mask id="path-5-inside-3_5704_92120" fill="#fff"><path d="M252 470H1200V511H252V470Z"/></mask><path fill="#fff" d="M252 470H1200V511H252V470Z"/><text fill="#7A858E" font-family="'Nunito Sans', 'Helvetica Neue', Helvetica, Arial, sans-serif" font-size="14" font-weight="bold" letter-spacing="0em" xml:space="preserve" style="white-space:pre"><tspan x="267" y="494.606">Controls</tspan></text><text fill="#7A858E" font-family="'Nunito Sans', 'Helvetica Neue', Helvetica, Arial, sans-serif" font-size="14" font-weight="bold" letter-spacing="0em" xml:space="preserve" style="white-space:pre"><tspan x="352" y="494.606">Interactions</tspan></text><text fill="#1EA7FD" font-family="'Nunito Sans', 'Helvetica Neue', Helvetica, Arial, sans-serif" font-size="14" font-weight="bold" letter-spacing="0em" xml:space="preserve" style="white-space:pre"><tspan x="459" y="494.606">Design</tspan></text><rect width="76" height="3" x="444" y="507" fill="#1EA7FD"/><text fill="#7A858E" font-family="'Nunito Sans', 'Helvetica Neue', Helvetica, Arial, sans-serif" font-size="14" font-weight="bold" letter-spacing="0em" xml:space="preserve" style="white-space:pre"><tspan x="535" y="494.606">Accessibility</tspan></text><text fill="#7A858E" font-family="'Nunito Sans', 'Helvetica Neue', Helvetica, Arial, sans-serif" font-size="14" font-weight="bold" letter-spacing="0em" xml:space="preserve" style="white-space:pre"><tspan x="646" y="494.606">Actions</tspan></text><path fill="#7A858E" d="M1146.5 487.504C1146.5 487.228 1146.72 487.004 1147 487.004H1148C1148.28 487.004 1148.5 487.228 1148.5 487.504C1148.5 487.78 1148.28 488.004 1148 488.004H1147C1146.72 488.004 1146.5 487.78 1146.5 487.504Z"/><path fill="#7A858E" d="M1147 489.004C1146.72 489.004 1146.5 489.228 1146.5 489.504C1146.5 489.78 1146.72 490.004 1147 490.004H1148C1148.28 490.004 1148.5 489.78 1148.5 489.504C1148.5 489.228 1148.28 489.004 1148 489.004H1147Z"/><path fill="#7A858E" d="M1146.5 491.504C1146.5 491.228 1146.72 491.004 1147 491.004H1148C1148.28 491.004 1148.5 491.228 1148.5 491.504C1148.5 491.78 1148.28 492.004 1148 492.004H1147C1146.72 492.004 1146.5 491.78 1146.5 491.504Z"/><path fill="#7A858E" fill-rule="evenodd" d="M1138.5 496.004C1138.22 496.004 1138 495.78 1138 495.504V484.504C1138 484.228 1138.22 484.004 1138.5 484.004H1149.5C1149.78 484.004 1150 484.228 1150 484.504V495.504C1150 495.78 1149.78 496.004 1149.5 496.004H1138.5ZM1139 495.004V485.004H1145V495.004H1139ZM1146 485.004H1149V495.004H1146V485.004Z" clip-rule="evenodd"/><g clip-path="url(#clip2_5704_92120)"><path fill="#7A858E" d="M1178.85 487.146C1179.05 487.342 1179.05 487.658 1178.85 487.854L1176.71 490L1178.85 492.146C1179.05 492.342 1179.05 492.658 1178.85 492.854C1178.66 493.049 1178.34 493.049 1178.15 492.854L1176 490.707L1173.85 492.854C1173.66 493.049 1173.34 493.049 1173.15 492.854C1172.95 492.658 1172.95 492.342 1173.15 492.146L1175.29 490L1173.15 487.854C1172.95 487.658 1172.95 487.342 1173.15 487.146C1173.34 486.951 1173.66 486.951 1173.85 487.146L1176 489.293L1178.15 487.146C1178.34 486.951 1178.66 486.951 1178.85 487.146Z"/><path fill="#7A858E" fill-rule="evenodd" d="M1176 497C1179.87 497 1183 493.866 1183 490C1183 486.134 1179.87 483 1176 483C1172.13 483 1169 486.134 1169 490C1169 493.866 1172.13 497 1176 497ZM1176 496C1179.31 496 1182 493.314 1182 490C1182 486.686 1179.31 484 1176 484C1172.69 484 1170 486.686 1170 490C1170 493.314 1172.69 496 1176 496Z" clip-rule="evenodd"/></g><path fill="#E1E5E8" d="M1200 510H252V512H1200V510Z" mask="url(#path-5-inside-3_5704_92120)"/><rect width="948" height="270" fill="#E5E5E5" transform="translate(252 511)"/><g filter="url(#filter0_dd_5704_92120)"><rect width="207.985" height="167" x="301.008" y="563" fill="#fff" rx="6.117"/></g><text fill="#333" font-family="'Nunito Sans', 'Helvetica Neue', Helvetica, Arial, sans-serif" font-size="13" font-weight="bold" letter-spacing="0em" xml:space="preserve" style="white-space:pre"><tspan x="319.359" y="692.849">Minimum</tspan></text><text fill="#333" font-family="'Nunito Sans', 'Helvetica Neue', Helvetica, Arial, sans-serif" font-size="13" font-weight="bold" letter-spacing="0em" xml:space="preserve" style="white-space:pre"><tspan x="417.235" y="692.849">Maximum</tspan></text><rect width="72.795" height="18.963" x="417.541" y="698.496" fill="#fff" rx="2.141"/><text fill="#333" font-family="'Nunito Sans', 'Helvetica Neue', Helvetica, Arial, sans-serif" font-size="13" letter-spacing="0em" xml:space="preserve" style="white-space:pre"><tspan x="423.353" y="710.594">87</tspan></text><rect width="72.795" height="18.963" x="417.541" y="698.496" stroke="#1EA7FD" stroke-width=".612" rx="2.141"/><rect width="73.407" height="19.575" x="319.359" y="698.19" fill="#fff" rx="2.447"/><text fill="#999" font-family="'Nunito Sans', 'Helvetica Neue', Helvetica, Arial, sans-serif" font-size="13" letter-spacing="0em" xml:space="preserve" style="white-space:pre"><tspan x="325.477" y="710.594">0</tspan></text><rect width="72.795" height="18.963" x="319.665" y="698.496" stroke="#000" stroke-opacity=".1" stroke-width=".612" rx="2.141"/><rect width="4.894" height=".612" x="402.554" y="707.366" fill="#000" fill-opacity=".1"/><path fill="url(#paint0_linear_5704_92120)" d="M301.008 569.117C301.008 565.739 303.747 563 307.125 563H502.876C506.254 563 508.993 565.739 508.993 569.117V659.04H301.008V569.117Z"/><rect width="10.093" height="3.869" fill="url(#paint1_linear_5704_92120)" transform="matrix(-1 0 0 1 329.453 655.178)"/><rect width="10.093" height="8.697" fill="url(#paint2_linear_5704_92120)" transform="matrix(-1 0 0 1 340.158 650.35)"/><rect width="10.093" height="6.957" fill="url(#paint3_linear_5704_92120)" transform="matrix(-1 0 0 1 350.863 652.09)"/><rect width="10.093" height="13.045" fill="url(#paint4_linear_5704_92120)" transform="matrix(-1 0 0 1 361.568 646.002)"/><rect width="10.093" height="8.697" fill="url(#paint5_linear_5704_92120)" transform="matrix(-1 0 0 1 372.273 650.35)"/><rect width="10.093" height="7.827" fill="url(#paint6_linear_5704_92120)" transform="matrix(-1 0 0 1 382.979 651.22)"/><rect width="10.093" height="15.654" fill="url(#paint7_linear_5704_92120)" transform="matrix(-1 0 0 1 393.684 643.393)"/><rect width="10.093" height="19.133" fill="url(#paint8_linear_5704_92120)" transform="matrix(-1 0 0 1 404.389 639.914)"/><rect width="10.093" height="33.048" fill="url(#paint9_linear_5704_92120)" transform="matrix(-1 0 0 1 415.094 625.999)"/><rect width="10.093" height="43.484" fill="url(#paint10_linear_5704_92120)" transform="matrix(-1 0 0 1 425.799 615.563)"/><rect width="10.093" height="52.181" fill="url(#paint11_linear_5704_92120)" transform="matrix(-1 0 0 1 436.504 606.866)"/><rect width="10.093" height="29.569" fill="url(#paint12_linear_5704_92120)" transform="matrix(-1 0 0 1 447.209 629.478)"/><rect width="10.093" height="15.654" fill="url(#paint13_linear_5704_92120)" transform="matrix(-1 0 0 1 457.914 643.393)"/><rect width="10.093" height="19.133" fill="url(#paint14_linear_5704_92120)" transform="matrix(-1 0 0 1 468.619 639.914)"/><rect width="9.788" height="10.399" fill="url(#paint15_linear_5704_92120)" transform="matrix(-1 0 0 1 479.019 648.648)"/><rect width="10.399" height="12.846" fill="url(#paint16_linear_5704_92120)" transform="matrix(-1 0 0 1 490.03 646.201)"/><path fill="#000" fill-opacity=".1" fill-rule="evenodd" d="M319.36 662.71H318.748V665.157H319.36V662.71ZM456.385 662.711H455.774V665.158H456.385V662.711ZM387.261 662.711H387.873V665.158H387.261V662.711ZM490.642 662.711H490.03V665.158H490.642V662.711ZM353.004 662.711H353.616V665.158H353.004V662.711ZM422.129 662.711H421.517V665.158H422.129V662.711Z" clip-rule="evenodd"/><text fill="#999" font-family="'Nunito Sans', 'Helvetica Neue', Helvetica, Arial, sans-serif" font-size="6.117" letter-spacing="0" xml:space="preserve" style="white-space:pre"><tspan x="348.666" y="673.005">20</tspan></text><text fill="#999" font-family="'Nunito Sans', 'Helvetica Neue', Helvetica, Arial, sans-serif" font-size="6.117" letter-spacing="0" xml:space="preserve" style="white-space:pre"><tspan x="382.922" y="673.005">40</tspan></text><text fill="#999" font-family="'Nunito Sans', 'Helvetica Neue', Helvetica, Arial, sans-serif" font-size="6.117" letter-spacing="0" xml:space="preserve" style="white-space:pre"><tspan x="417.793" y="673.005">60</tspan></text><text fill="#999" font-family="'Nunito Sans', 'Helvetica Neue', Helvetica, Arial, sans-serif" font-size="6.117" letter-spacing="0" xml:space="preserve" style="white-space:pre"><tspan x="452.047" y="673.005">80</tspan></text><text fill="#999" font-family="'Nunito Sans', 'Helvetica Neue', Helvetica, Arial, sans-serif" font-size="6.117" letter-spacing="0" xml:space="preserve" style="white-space:pre"><tspan x="482.188" y="673.005">100</tspan></text><text fill="#999" font-family="'Nunito Sans', 'Helvetica Neue', Helvetica, Arial, sans-serif" font-size="6.117" letter-spacing="0" xml:space="preserve" style="white-space:pre"><tspan x="316.69" y="673.005">0</tspan></text><text fill="#333" font-family="'Nunito Sans', 'Helvetica Neue', Helvetica, Arial, sans-serif" font-size="13" font-weight="bold" letter-spacing="0em" xml:space="preserve" style="white-space:pre"><tspan x="319.359" y="589.468">Average nightly price: $42</tspan></text><rect width="207.985" height="1.223" x="508.993" y="660.264" fill="#000" fill-opacity=".1" transform="rotate(-180 508.993 660.264)"/><g filter="url(#filter1_d_5704_92120)"><circle cx="468.619" cy="659.652" r="4.894" fill="#fff"/><circle cx="468.619" cy="659.652" r="4.894" stroke="#000" stroke-opacity=".1" stroke-width=".612"/></g><rect width=".612" height="4.894" x="467.396" y="657.205" fill="#CCC" rx=".306"/><rect width=".612" height="4.894" x="469.231" y="657.205" fill="#CCC" rx=".306"/><g filter="url(#filter2_d_5704_92120)"><circle cx="319.36" cy="659.652" r="4.894" fill="#fff"/><circle cx="319.36" cy="659.652" r="4.894" stroke="#000" stroke-opacity=".1" stroke-width=".612"/></g><rect width=".612" height="4.894" x="318.137" y="657.205" fill="#CCC" rx=".306"/><rect width=".612" height="4.894" x="319.972" y="657.205" fill="#CCC" rx=".306"/><rect width="33" height="65" x="1150.5" y="699.5" fill="#222" rx="3.5"/><rect width="11" height="1" x="1162" y="747" fill="#fff"/><path fill="#fff" fill-rule="evenodd" d="M1168 710H1167V715H1162V716H1167V721H1168V716H1173V715H1168V710Z" clip-rule="evenodd"/><rect width="33" height="65" x="1150.5" y="699.5" stroke="#4E4E4E" rx="3.5"/><path fill="#000" d="M265 538.048V524H272.483V525.768H266.807V529.596H271.165V531.364H266.807V538.054L265 538.048Z"/><path fill="#000" d="M276.916 525.674C276.916 526.325 276.387 526.852 275.736 526.852C275.085 526.852 274.558 526.324 274.558 525.674C274.558 525.023 275.086 524.494 275.736 524.494C276.387 524.494 276.916 525.023 276.916 525.674Z"/><path fill="#000" d="M274.817 538.051V528.621H276.624V538.051H274.817Z"/><path fill="#000" fill-rule="evenodd" d="M279.253 532.786C279.253 530.376 280.928 528.346 283.328 528.346C284.427 528.346 285.333 528.771 285.992 529.464V528.621H287.8V537.363C287.8 539.924 285.723 542 283.163 542C282.238 542 281.377 541.729 280.654 541.263L281.559 539.695C282.015 540.009 282.587 540.232 283.163 540.232C284.765 540.232 285.992 538.926 285.992 537.363V536.108C285.333 536.8 284.428 537.226 283.328 537.226C280.928 537.226 279.253 535.196 279.253 532.786ZM283.525 530.114C282.205 530.114 281.061 531.29 281.061 532.786C281.061 534.282 282.205 535.458 283.525 535.458C284.845 535.458 285.989 534.282 285.989 532.786C285.989 531.29 284.845 530.114 283.525 530.114Z" clip-rule="evenodd"/><path fill="#000" d="M294.312 530.114C293.244 530.114 292.377 531.019 292.377 532.088V538.051H290.57V528.621H292.377V529.485C292.907 528.8 293.687 528.345 294.705 528.345C295.972 528.345 296.944 528.975 297.507 529.937C298.133 529.007 299.154 528.346 300.383 528.346C302.44 528.346 303.721 530.006 303.733 532.059V538.051H301.926V532.088C301.926 531.019 301.059 530.114 299.99 530.114C298.921 530.114 298.055 531.019 298.055 532.088V538.051H296.248V532.088C296.248 531.019 295.381 530.114 294.312 530.114Z"/><path fill="#000" fill-rule="evenodd" d="M310.177 528.346C311.455 528.346 312.556 528.86 313.36 529.69V528.621H315.167V538.051H313.36V536.982C312.556 537.812 311.455 538.326 310.177 538.326C307.488 538.326 305.58 536.049 305.58 533.336C305.58 530.622 307.488 528.346 310.177 528.346ZM310.374 530.114C308.766 530.114 307.387 531.536 307.387 533.336C307.387 535.136 308.766 536.558 310.374 536.558C311.981 536.558 313.36 535.136 313.36 533.336C313.36 531.536 311.981 530.114 310.374 530.114Z" clip-rule="evenodd"/><rect width="948" height="48" fill="#fff" transform="translate(252 781)"/><path fill="#333" fill-rule="evenodd" d="M276.515 798H271.49C270.701 798 269.944 798.313 269.386 798.871C268.828 799.429 268.515 800.186 268.515 800.975C268.515 801.764 268.828 802.521 269.386 803.079C269.542 803.235 269.713 803.371 269.896 803.488C269.713 803.604 269.542 803.74 269.386 803.896C268.828 804.454 268.515 805.211 268.515 806C268.515 806.789 268.828 807.546 269.386 808.104C269.542 808.26 269.713 808.396 269.896 808.512C269.713 808.629 269.542 808.765 269.386 808.921C268.828 809.479 268.515 810.236 268.515 811.025C268.515 811.814 268.828 812.571 269.386 813.129C269.944 813.687 270.701 814 271.49 814C272.279 814 273.036 813.687 273.594 813.129C274.152 812.571 274.465 811.814 274.465 811.025V808.157C275.017 808.682 275.751 808.975 276.515 808.975C277.304 808.975 278.061 808.662 278.618 808.104C279.176 807.546 279.49 806.789 279.49 806C279.49 805.211 279.176 804.454 278.618 803.896C278.463 803.74 278.291 803.604 278.108 803.488C278.291 803.371 278.463 803.235 278.618 803.079C279.176 802.521 279.49 801.764 279.49 800.975C279.49 800.186 279.176 799.429 278.618 798.871C278.061 798.313 277.304 798 276.515 798ZM274.465 806C274.465 806.544 274.681 807.065 275.065 807.449C275.45 807.834 275.971 808.05 276.515 808.05C277.058 808.05 277.58 807.834 277.964 807.449C278.348 807.065 278.564 806.544 278.564 806C278.564 805.456 278.348 804.935 277.964 804.551C277.58 804.166 277.058 803.95 276.515 803.95C275.971 803.95 275.45 804.166 275.065 804.551C274.681 804.935 274.465 805.456 274.465 806ZM273.539 808.975H271.49C270.946 808.975 270.425 809.191 270.041 809.576C269.656 809.96 269.44 810.481 269.44 811.025C269.44 811.568 269.656 812.09 270.041 812.474C270.425 812.859 270.946 813.074 271.49 813.074C272.033 813.074 272.555 812.859 272.939 812.474C273.324 812.09 273.539 811.568 273.539 811.025V808.975ZM271.49 803.025H273.539V798.926H271.49C270.946 798.926 270.425 799.142 270.041 799.526C269.656 799.91 269.44 800.432 269.44 800.975C269.44 801.519 269.656 802.04 270.041 802.425C270.425 802.809 270.946 803.025 271.49 803.025ZM271.49 803.95C270.946 803.95 270.425 804.166 270.041 804.551C269.656 804.935 269.44 805.456 269.44 806C269.44 806.544 269.656 807.065 270.041 807.449C270.425 807.834 270.946 808.05 271.49 808.05H273.539V803.95H271.49ZM276.515 803.025H274.465V798.926H276.515C277.058 798.926 277.58 799.142 277.964 799.526C278.348 799.91 278.564 800.432 278.564 800.975C278.564 801.519 278.348 802.04 277.964 802.425C277.58 802.809 277.058 803.025 276.515 803.025Z" clip-rule="evenodd"/><text fill="#000" font-family="-apple-system, BlinkMacSystemFont, 'avenir next', avenir, 'helvetica neue', helvetica, ubuntu, roboto, noto, 'segoe ui', arial, sans-serif" font-size="11" font-weight="bold" letter-spacing="0em" xml:space="preserve" style="white-space:pre"><tspan x="291" y="809.41">RangeSlider</tspan></text><text fill="#000" font-family="-apple-system, BlinkMacSystemFont, 'avenir next', avenir, 'helvetica neue', helvetica, ubuntu, roboto, noto, 'segoe ui', arial, sans-serif" font-size="11" letter-spacing="0em" xml:space="preserve" style="white-space:pre"><tspan x="360.964" y="809.41">Edited 2 weeks ago</tspan></text></g><path fill="#E1E5E8" d="M252 469H1200V470H252V469ZM1200 829H252H1200ZM252 829V470V829ZM1200 470V829V470Z" mask="url(#path-3-outside-2_5704_92120)"/></g><path fill="#E1E5E8" d="M252 469H1200V470H252V469ZM1200 829H252H1200ZM252 829V470V829ZM1200 470V829V470Z" mask="url(#path-1-inside-1_5704_92120)"/><defs><filter id="filter0_dd_5704_92120" width="226.337" height="185.352" x="291.832" y="556.883" color-interpolation-filters="sRGB" filterUnits="userSpaceOnUse"><feFlood flood-opacity="0" result="BackgroundImageFix"/><feColorMatrix in="SourceAlpha" result="hardAlpha" type="matrix" values="0 0 0 0 0 0 0 0 0 0 0 0 0 0 0 0 0 0 127 0"/><feOffset dy="3.059"/><feGaussianBlur stdDeviation="4.588"/><feColorMatrix type="matrix" values="0 0 0 0 0 0 0 0 0 0 0 0 0 0 0 0 0 0 0.1 0"/><feBlend in2="BackgroundImageFix" mode="normal" result="effect1_dropShadow_5704_92120"/><feColorMatrix in="SourceAlpha" result="hardAlpha" type="matrix" values="0 0 0 0 0 0 0 0 0 0 0 0 0 0 0 0 0 0 127 0"/><feOffset dy=".612"/><feGaussianBlur stdDeviation=".918"/><feColorMatrix type="matrix" values="0 0 0 0 0 0 0 0 0 0 0 0 0 0 0 0 0 0 0.05 0"/><feBlend in2="effect1_dropShadow_5704_92120" mode="normal" result="effect2_dropShadow_5704_92120"/><feBlend in="SourceGraphic" in2="effect2_dropShadow_5704_92120" mode="normal" result="shape"/></filter><filter id="filter1_d_5704_92120" width="14.07" height="14.069" x="461.585" y="653.229" color-interpolation-filters="sRGB" filterUnits="userSpaceOnUse"><feFlood flood-opacity="0" result="BackgroundImageFix"/><feColorMatrix in="SourceAlpha" result="hardAlpha" type="matrix" values="0 0 0 0 0 0 0 0 0 0 0 0 0 0 0 0 0 0 127 0"/><feOffset dy=".612"/><feGaussianBlur stdDeviation=".918"/><feColorMatrix type="matrix" values="0 0 0 0 0 0 0 0 0 0 0 0 0 0 0 0 0 0 0.1 0"/><feBlend in2="BackgroundImageFix" mode="normal" result="effect1_dropShadow_5704_92120"/><feBlend in="SourceGraphic" in2="effect1_dropShadow_5704_92120" mode="normal" result="shape"/></filter><filter id="filter2_d_5704_92120" width="14.07" height="14.069" x="312.325" y="653.229" color-interpolation-filters="sRGB" filterUnits="userSpaceOnUse"><feFlood flood-opacity="0" result="BackgroundImageFix"/><feColorMatrix in="SourceAlpha" result="hardAlpha" type="matrix" values="0 0 0 0 0 0 0 0 0 0 0 0 0 0 0 0 0 0 127 0"/><feOffset dy=".612"/><feGaussianBlur stdDeviation=".918"/><feColorMatrix type="matrix" values="0 0 0 0 0 0 0 0 0 0 0 0 0 0 0 0 0 0 0.1 0"/><feBlend in2="BackgroundImageFix" mode="normal" result="effect1_dropShadow_5704_92120"/><feBlend in="SourceGraphic" in2="effect1_dropShadow_5704_92120" mode="normal" result="shape"/></filter><linearGradient id="paint0_linear_5704_92120" x1="405" x2="405" y1="563" y2="659.04" gradientUnits="userSpaceOnUse"><stop stop-color="#E7FBFB"/><stop offset="1" stop-color="#F4F8FA"/></linearGradient><linearGradient id="paint1_linear_5704_92120" x1="-1.316" x2="-1.288" y1=".544" y2="5.152" gradientUnits="userSpaceOnUse"><stop stop-color="#FA8961"/><stop offset="1" stop-color="#FFBD58"/></linearGradient><linearGradient id="paint2_linear_5704_92120" x1="-1.316" x2="-1.173" y1="1.224" y2="11.579" gradientUnits="userSpaceOnUse"><stop stop-color="#FA8961"/><stop offset="1" stop-color="#FFBD58"/></linearGradient><linearGradient id="paint3_linear_5704_92120" x1="-1.316" x2="-1.224" y1=".979" y2="9.264" gradientUnits="userSpaceOnUse"><stop stop-color="#FA8961"/><stop offset="1" stop-color="#FFBD58"/></linearGradient><linearGradient id="paint4_linear_5704_92120" x1="-1.316" x2="-.993" y1="1.835" y2="17.365" gradientUnits="userSpaceOnUse"><stop stop-color="#FA8961"/><stop offset="1" stop-color="#FFBD58"/></linearGradient><linearGradient id="paint5_linear_5704_92120" x1="-1.316" x2="-1.173" y1="1.224" y2="11.579" gradientUnits="userSpaceOnUse"><stop stop-color="#FA8961"/><stop offset="1" stop-color="#FFBD58"/></linearGradient><linearGradient id="paint6_linear_5704_92120" x1="-1.316" x2="-1.2" y1="1.101" y2="10.421" gradientUnits="userSpaceOnUse"><stop stop-color="#FA8961"/><stop offset="1" stop-color="#FFBD58"/></linearGradient><linearGradient id="paint7_linear_5704_92120" x1="-1.316" x2="-.851" y1="2.202" y2="20.834" gradientUnits="userSpaceOnUse"><stop stop-color="#FA8961"/><stop offset="1" stop-color="#FFBD58"/></linearGradient><linearGradient id="paint8_linear_5704_92120" x1="-1.316" x2="-.622" y1="2.692" y2="25.457" gradientUnits="userSpaceOnUse"><stop stop-color="#FA8961"/><stop offset="1" stop-color="#FFBD58"/></linearGradient><linearGradient id="paint9_linear_5704_92120" x1="-1.316" x2=".751" y1="4.65" y2="43.898" gradientUnits="userSpaceOnUse"><stop stop-color="#FA8961"/><stop offset="1" stop-color="#FFBD58"/></linearGradient><linearGradient id="paint10_linear_5704_92120" x1="-1.316" x2="2.256" y1="6.118" y2="57.657" gradientUnits="userSpaceOnUse"><stop stop-color="#FA8961"/><stop offset="1" stop-color="#FFBD58"/></linearGradient><linearGradient id="paint11_linear_5704_92120" x1="-1.316" x2="3.817" y1="7.342" y2="69.058" gradientUnits="userSpaceOnUse"><stop stop-color="#FA8961"/><stop offset="1" stop-color="#FFBD58"/></linearGradient><linearGradient id="paint12_linear_5704_92120" x1="-1.316" x2=".34" y1="4.16" y2="39.297" gradientUnits="userSpaceOnUse"><stop stop-color="#FA8961"/><stop offset="1" stop-color="#FFBD58"/></linearGradient><linearGradient id="paint13_linear_5704_92120" x1="-1.316" x2="-.851" y1="2.202" y2="20.834" gradientUnits="userSpaceOnUse"><stop stop-color="#FA8961"/><stop offset="1" stop-color="#FFBD58"/></linearGradient><linearGradient id="paint14_linear_5704_92120" x1="-1.316" x2="-.622" y1="2.692" y2="25.457" gradientUnits="userSpaceOnUse"><stop stop-color="#FA8961"/><stop offset="1" stop-color="#FFBD58"/></linearGradient><linearGradient id="paint15_linear_5704_92120" x1="-1.276" x2="-1.065" y1="1.463" y2="13.844" gradientUnits="userSpaceOnUse"><stop stop-color="#E2E2E2"/><stop offset="1" stop-color="#F0F0F0"/></linearGradient><linearGradient id="paint16_linear_5704_92120" x1="-1.356" x2="-1.052" y1="1.807" y2="17.1" gradientUnits="userSpaceOnUse"><stop stop-color="#E2E2E2"/><stop offset="1" stop-color="#F0F0F0"/></linearGradient><clipPath id="clip0_5704_92120"><path fill="#fff" d="M252 470H1200V821C1200 825.418 1196.42 829 1192 829H260C255.582 829 252 825.418 252 821V470Z"/></clipPath><clipPath id="clip1_5704_92120"><path fill="#fff" d="M252 470H1200V821C1200 825.418 1196.42 829 1192 829H260C255.582 829 252 825.418 252 821V470Z"/></clipPath><clipPath id="clip2_5704_92120"><rect width="14" height="14" fill="#fff" transform="translate(1169 483)"/></clipPath></defs></svg>