<svg xmlns="http://www.w3.org/2000/svg" width="1201" height="830" fill="none" viewBox="0 0 1201 830"><g clip-path="url(#clip0_5704_91450)"><g clip-path="url(#clip1_5704_91450)"><mask id="path-3-outside-2_5704_91450" width="948" height="360" x="252" y="469" fill="#000" maskUnits="userSpaceOnUse"><rect width="948" height="360" x="252" y="469" fill="#fff"/><path d="M252 470H1200V821C1200 825.418 1196.42 829 1192 829H260C255.582 829 252 825.418 252 821V470Z"/></mask><path fill="#fff" d="M252 470H1200V821C1200 825.418 1196.42 829 1192 829H260C255.582 829 252 825.418 252 821V470Z"/><mask id="path-5-inside-3_5704_91450" fill="#fff"><path d="M252 470H1200V511H252V470Z"/></mask><path fill="#fff" d="M252 470H1200V511H252V470Z"/><text fill="#7A858E" font-family="'Nunito Sans', 'Helvetica Neue', Helvetica, Arial, sans-serif" font-size="14" font-weight="bold" letter-spacing="0em" xml:space="preserve" style="white-space:pre"><tspan x="267" y="494.606">Controls</tspan></text><text fill="#1EA7FD" font-family="'Nunito Sans', 'Helvetica Neue', Helvetica, Arial, sans-serif" font-size="14" font-weight="bold" letter-spacing="0em" xml:space="preserve" style="white-space:pre"><tspan x="352" y="494.606">Interactions</tspan></text><rect width="107" height="3" x="337" y="507" fill="#1EA7FD"/><text fill="#7A858E" font-family="'Nunito Sans', 'Helvetica Neue', Helvetica, Arial, sans-serif" font-size="14" font-weight="bold" letter-spacing="0em" xml:space="preserve" style="white-space:pre"><tspan x="459" y="494.606">Design</tspan></text><text fill="#7A858E" font-family="'Nunito Sans', 'Helvetica Neue', Helvetica, Arial, sans-serif" font-size="14" font-weight="bold" letter-spacing="0em" xml:space="preserve" style="white-space:pre"><tspan x="535" y="494.606">Accessibility</tspan></text><text fill="#7A858E" font-family="'Nunito Sans', 'Helvetica Neue', Helvetica, Arial, sans-serif" font-size="14" font-weight="bold" letter-spacing="0em" xml:space="preserve" style="white-space:pre"><tspan x="646" y="494.606">Actions</tspan></text><path fill="#7A858E" d="M1146.5 487.504C1146.5 487.228 1146.72 487.004 1147 487.004H1148C1148.28 487.004 1148.5 487.228 1148.5 487.504C1148.5 487.78 1148.28 488.004 1148 488.004H1147C1146.72 488.004 1146.5 487.78 1146.5 487.504Z"/><path fill="#7A858E" d="M1147 489.004C1146.72 489.004 1146.5 489.228 1146.5 489.504C1146.5 489.78 1146.72 490.004 1147 490.004H1148C1148.28 490.004 1148.5 489.78 1148.5 489.504C1148.5 489.228 1148.28 489.004 1148 489.004H1147Z"/><path fill="#7A858E" d="M1146.5 491.504C1146.5 491.228 1146.72 491.004 1147 491.004H1148C1148.28 491.004 1148.5 491.228 1148.5 491.504C1148.5 491.78 1148.28 492.004 1148 492.004H1147C1146.72 492.004 1146.5 491.78 1146.5 491.504Z"/><path fill="#7A858E" fill-rule="evenodd" d="M1138.5 496.004C1138.22 496.004 1138 495.78 1138 495.504V484.504C1138 484.228 1138.22 484.004 1138.5 484.004H1149.5C1149.78 484.004 1150 484.228 1150 484.504V495.504C1150 495.78 1149.78 496.004 1149.5 496.004H1138.5ZM1139 495.004V485.004H1145V495.004H1139ZM1146 485.004H1149V495.004H1146V485.004Z" clip-rule="evenodd"/><g clip-path="url(#clip2_5704_91450)"><path fill="#7A858E" d="M1178.85 487.146C1179.05 487.342 1179.05 487.658 1178.85 487.854L1176.71 490L1178.85 492.146C1179.05 492.342 1179.05 492.658 1178.85 492.854C1178.66 493.049 1178.34 493.049 1178.15 492.854L1176 490.707L1173.85 492.854C1173.66 493.049 1173.34 493.049 1173.15 492.854C1172.95 492.658 1172.95 492.342 1173.15 492.146L1175.29 490L1173.15 487.854C1172.95 487.658 1172.95 487.342 1173.15 487.146C1173.34 486.951 1173.66 486.951 1173.85 487.146L1176 489.293L1178.15 487.146C1178.34 486.951 1178.66 486.951 1178.85 487.146Z"/><path fill="#7A858E" fill-rule="evenodd" d="M1176 497C1179.87 497 1183 493.866 1183 490C1183 486.134 1179.87 483 1176 483C1172.13 483 1169 486.134 1169 490C1169 493.866 1172.13 497 1176 497ZM1176 496C1179.31 496 1182 493.314 1182 490C1182 486.686 1179.31 484 1176 484C1172.69 484 1170 486.686 1170 490C1170 493.314 1172.69 496 1176 496Z" clip-rule="evenodd"/></g><path fill="#E1E5E8" d="M1200 510H252V512H1200V510Z" mask="url(#path-5-inside-3_5704_91450)"/><rect width="948" height="40" fill="#F6F9FC" transform="translate(252 511)"/><rect width="948" height="1" x="252" y="550" fill="#DDD"/><rect width="65" height="24" x="267" y="519" fill="#66BF3C" rx="5"/><text fill="#fff" font-family="'Nunito Sans', 'Helvetica Neue', Helvetica, Arial, sans-serif" font-size="11" font-weight="800" letter-spacing=".4em" xml:space="preserve" style="white-space:pre"><tspan x="278.398" y="534.619">PASS</tspan></text><g opacity=".5"><text fill="#666" font-family="'Nunito Sans', 'Helvetica Neue', Helvetica, Arial, sans-serif" font-size="13" font-weight="bold" letter-spacing="0em" xml:space="preserve" style="white-space:pre"><tspan x="347" y="535.277">Scroll to end</tspan></text></g><rect width="1" height="24" x="439" y="519" fill="#000" fill-opacity=".1"/><g opacity=".4"><path fill="#999" d="M469 526.419V528.735L473.228 525.999C473.561 525.784 474 526.023 474 526.419V535.581C474 535.977 473.561 536.216 473.228 536L469 533.264V535.581C469 535.977 468.561 536.216 468.228 536.001L461.5 531.647V535.25C461.5 535.664 461.164 536 460.75 536C460.336 536 460 535.664 460 535.25V526.75C460 526.336 460.336 526 460.75 526C461.164 526 461.5 526.336 461.5 526.75V530.353L468.228 525.999C468.561 525.784 469 526.023 469 526.419Z"/></g><g opacity=".4"><path fill="#999" d="M500.239 536.035L492.698 531.427C492.605 531.369 492.539 531.289 492.5 531.2V535.25C492.5 535.664 492.164 536 491.75 536C491.336 536 491 535.664 491 535.25V526.75C491 526.336 491.336 526 491.75 526C492.164 526 492.5 526.336 492.5 526.75L492.5 530.8C492.539 530.71 492.605 530.63 492.698 530.573L500.239 525.965C500.572 525.761 501 526.001 501 526.391V535.608C501 535.999 500.572 536.239 500.239 536.035Z"/></g><g opacity=".5"><path fill="#999" d="M520.761 536.035L528.302 531.427C528.395 531.369 528.461 531.289 528.5 531.2V535.25C528.5 535.664 528.836 536 529.25 536C529.664 536 530 535.664 530 535.25V526.75C530 526.336 529.664 526 529.25 526C528.836 526 528.5 526.336 528.5 526.75V530.8C528.461 530.71 528.395 530.63 528.302 530.573L520.761 525.965C520.428 525.761 520 526.001 520 526.391V535.608C520 535.999 520.428 536.239 520.761 536.035Z"/></g><g opacity=".5"><path fill="#999" d="M552 526.419V528.735L547.772 525.999C547.439 525.784 547 526.023 547 526.419V535.581C547 535.977 547.439 536.216 547.772 536L552 533.264V535.581C552 535.977 552.439 536.216 552.772 536.001L559.5 531.647V535.25C559.5 535.664 559.836 536 560.25 536C560.664 536 561 535.664 561 535.25V526.75C561 526.336 560.664 526 560.25 526C559.836 526 559.5 526.336 559.5 526.75V530.353L552.772 525.999C552.439 525.784 552 526.023 552 526.419Z"/></g><path fill="#999" d="M469 526.419V528.735L473.228 525.999C473.561 525.784 474 526.023 474 526.419V535.581C474 535.977 473.561 536.216 473.228 536L469 533.264V535.581C469 535.977 468.561 536.216 468.228 536.001L461.5 531.647V535.25C461.5 535.664 461.164 536 460.75 536C460.336 536 460 535.664 460 535.25V526.75C460 526.336 460.336 526 460.75 526C461.164 526 461.5 526.336 461.5 526.75V530.353L468.228 525.999C468.561 525.784 469 526.023 469 526.419Z"/><path fill="#999" d="M500.239 536.035L492.698 531.427C492.605 531.369 492.539 531.289 492.5 531.2V535.25C492.5 535.664 492.164 536 491.75 536C491.336 536 491 535.664 491 535.25V526.75C491 526.336 491.336 526 491.75 526C492.164 526 492.5 526.336 492.5 526.75L492.5 530.8C492.539 530.71 492.605 530.63 492.698 530.573L500.239 525.965C500.572 525.761 501 526.001 501 526.391V535.608C501 535.999 500.572 536.239 500.239 536.035Z"/><path fill="#999" d="M520.761 536.035L528.302 531.427C528.395 531.369 528.461 531.289 528.5 531.2V535.25C528.5 535.664 528.836 536 529.25 536C529.664 536 530 535.664 530 535.25V526.75C530 526.336 529.664 526 529.25 526C528.836 526 528.5 526.336 528.5 526.75V530.8C528.461 530.71 528.395 530.63 528.302 530.573L520.761 525.965C520.428 525.761 520 526.001 520 526.391V535.608C520 535.999 520.428 536.239 520.761 536.035Z"/><path fill="#999" d="M552 526.419V528.735L547.772 525.999C547.439 525.784 547 526.023 547 526.419V535.581C547 535.977 547.439 536.216 547.772 536L552 533.264V535.581C552 535.977 552.439 536.216 552.772 536.001L559.5 531.647V535.25C559.5 535.664 559.836 536 560.25 536C560.664 536 561 535.664 561 535.25V526.75C561 526.336 560.664 526 560.25 526C559.836 526 559.5 526.336 559.5 526.75V530.353L552.772 525.999C552.439 525.784 552 526.023 552 526.419Z"/><g clip-path="url(#clip3_5704_91450)"><path fill="#999" d="M581.5 525C581.5 524.724 581.276 524.5 581 524.5H578C577.724 524.5 577.5 524.724 577.5 525C577.5 525.276 577.724 525.5 578 525.5H579.535C577.712 526.651 576.5 528.684 576.5 531C576.5 534.221 578.843 536.894 581.917 537.41C582.19 537.456 582.447 537.272 582.493 537C582.539 536.727 582.355 536.47 582.083 536.424C579.482 535.988 577.5 533.725 577.5 531C577.5 528.863 578.719 527.01 580.5 526.1V528C580.5 528.276 580.724 528.5 581 528.5C581.276 528.5 581.5 528.276 581.5 528V525.353C581.5 525.345 581.5 525.338 581.5 525.33V525Z"/><path fill="#999" d="M583.507 525C583.553 524.728 583.81 524.544 584.083 524.59C587.157 525.106 589.5 527.779 589.5 531C589.5 533.316 588.288 535.349 586.466 536.5H588C588.276 536.5 588.5 536.724 588.5 537C588.5 537.276 588.276 537.5 588 537.5H585C584.724 537.5 584.5 537.276 584.5 537V534C584.5 533.724 584.724 533.5 585 533.5C585.276 533.5 585.5 533.724 585.5 534V535.9C587.281 534.99 588.5 533.137 588.5 531C588.5 528.275 586.518 526.012 583.917 525.576C583.645 525.53 583.461 525.273 583.507 525Z"/></g><text fill="#666" font-family="'Nunito Sans', 'Helvetica Neue', Helvetica, Arial, sans-serif" font-size="13" letter-spacing="0em" xml:space="preserve" style="white-space:pre"><tspan x="1053.17" y="535.277">RangeSlider.stories.tsx</tspan></text><circle cx="273" cy="571" r="3" fill="#CCC"/><text fill="#999" font-family="'Nunito Sans', 'Helvetica Neue', Helvetica, Arial, sans-serif" font-size="13" letter-spacing="0em" xml:space="preserve" style="white-space:pre"><tspan x="285" y="575.277">Raise the minimum value by dragging the slider thumb</tspan></text><rect width="949" height="41" x="251.5" y="550.5" stroke="#EEE"/><rect width="949" height="41" x="251.5" y="550.5" fill="#fff"/><g clip-path="url(#clip4_5704_91450)"><path fill="#66BF3C" d="M278.874 567.875C279.042 567.707 279.042 567.436 278.874 567.269C278.707 567.101 278.436 567.101 278.268 567.269L271.286 574.251L267.732 570.697C267.564 570.53 267.293 570.53 267.126 570.697C266.958 570.865 266.958 571.136 267.126 571.303L270.983 575.16C271.15 575.328 271.421 575.328 271.589 575.16L278.874 567.875Z"/></g><text fill="#333" font-family="'Nunito Sans', 'Helvetica Neue', Helvetica, Arial, sans-serif" font-size="13" letter-spacing="0em" xml:space="preserve" style="white-space:pre"><tspan x="285" y="575.277">Raise the minimum value by dragging the slider thumb</tspan></text><rect width="949" height="41" x="251.5" y="550.5" stroke="#EEE"/><circle cx="273" cy="612" r="3" fill="#CCC"/><text fill="#999" font-family="'Nunito Sans', 'Helvetica Neue', Helvetica, Arial, sans-serif" font-size="13" letter-spacing="0em" xml:space="preserve" style="white-space:pre"><tspan x="285" y="616.277">Lower the maximum value by dragging the slider thumb</tspan></text><rect width="949" height="41" x="251.5" y="591.5" stroke="#EEE"/><rect width="949" height="41" x="251.5" y="591.5" fill="#fff"/><g clip-path="url(#clip5_5704_91450)"><path fill="#66BF3C" d="M278.874 608.875C279.042 608.707 279.042 608.436 278.874 608.269C278.707 608.101 278.436 608.101 278.268 608.269L271.286 615.251L267.732 611.697C267.564 611.53 267.293 611.53 267.126 611.697C266.958 611.865 266.958 612.136 267.126 612.303L270.983 616.16C271.15 616.328 271.421 616.328 271.589 616.16L278.874 608.875Z"/></g><text fill="#333" font-family="'Nunito Sans', 'Helvetica Neue', Helvetica, Arial, sans-serif" font-size="13" letter-spacing="0em" xml:space="preserve" style="white-space:pre"><tspan x="285" y="616.277">Lower the maximum value by dragging the slider thumb</tspan></text><rect width="949" height="41" x="251.5" y="591.5" stroke="#EEE"/><circle cx="273" cy="653" r="3" fill="#CCC"/><text fill="#999" font-family="'Nunito Sans', 'Helvetica Neue', Helvetica, Arial, sans-serif" font-size="13" letter-spacing="0em" xml:space="preserve" style="white-space:pre"><tspan x="285" y="657.277">Average price should update</tspan></text><rect width="949" height="41" x="251.5" y="632.5" stroke="#EEE"/><rect width="949" height="41" x="251.5" y="632.5" fill="#fff"/><g clip-path="url(#clip6_5704_91450)"><path fill="#66BF3C" d="M278.874 649.875C279.042 649.707 279.042 649.436 278.874 649.269C278.707 649.101 278.436 649.101 278.268 649.269L271.286 656.251L267.732 652.697C267.564 652.53 267.293 652.53 267.126 652.697C266.958 652.865 266.958 653.136 267.126 653.303L270.983 657.16C271.15 657.328 271.421 657.328 271.589 657.16L278.874 649.875Z"/></g><text fill="#333" font-family="'Nunito Sans', 'Helvetica Neue', Helvetica, Arial, sans-serif" font-size="13" letter-spacing="0em" xml:space="preserve" style="white-space:pre"><tspan x="285" y="657.277">Average price should update</tspan></text><rect width="949" height="41" x="251.5" y="632.5" stroke="#EEE"/></g><path fill="#E1E5E8" d="M252 469H1200V470H252V469ZM1200 829H252H1200ZM252 829V470V829ZM1200 470V829V470Z" mask="url(#path-3-outside-2_5704_91450)"/></g><path fill="#E1E5E8" d="M252 469H1200V470H252V469ZM1200 829H252H1200ZM252 829V470V829ZM1200 470V829V470Z" mask="url(#path-1-inside-1_5704_91450)"/><defs><clipPath id="clip0_5704_91450"><path fill="#fff" d="M252 470H1200V821C1200 825.418 1196.42 829 1192 829H260C255.582 829 252 825.418 252 821V470Z"/></clipPath><clipPath id="clip1_5704_91450"><path fill="#fff" d="M252 470H1200V821C1200 825.418 1196.42 829 1192 829H260C255.582 829 252 825.418 252 821V470Z"/></clipPath><clipPath id="clip2_5704_91450"><rect width="14" height="14" fill="#fff" transform="translate(1169 483)"/></clipPath><clipPath id="clip3_5704_91450"><rect width="14" height="14" fill="#fff" transform="translate(576 524)"/></clipPath><clipPath id="clip4_5704_91450"><rect width="12" height="12" fill="#fff" transform="translate(267 565)"/></clipPath><clipPath id="clip5_5704_91450"><rect width="12" height="12" fill="#fff" transform="translate(267 606)"/></clipPath><clipPath id="clip6_5704_91450"><rect width="12" height="12" fill="#fff" transform="translate(267 647)"/></clipPath></defs></svg>