<svg width="1281" height="920" viewBox="0 0 1281 920" fill="none" xmlns="http://www.w3.org/2000/svg">
<g clip-path="url(#clip0_5704_92120)">
<g clip-path="url(#clip1_5704_92120)">
<mask id="path-3-outside-2_5704_92120" maskUnits="userSpaceOnUse" x="292" y="489" width="948" height="360" fill="black">
<rect fill="white" x="292" y="489" width="948" height="360"/>
<path d="M292 490H1240V841C1240 845.418 1236.42 849 1232 849H300C295.582 849 292 845.418 292 841V490Z"/>
</mask>
<path d="M292 490H1240V841C1240 845.418 1236.42 849 1232 849H300C295.582 849 292 845.418 292 841V490Z" fill="white"/>
<mask id="path-5-inside-3_5704_92120" fill="white">
<path d="M292 490H1240V531H292V490Z"/>
</mask>
<path d="M292 490H1240V531H292V490Z" fill="white"/>
<text fill="#7A858E" xml:space="preserve" style="white-space: pre" font-family="'Nunito Sans', 'Helvetica Neue', Helvetica, Arial, sans-serif" font-size="14" font-weight="bold" letter-spacing="0em"><tspan x="307" y="514.606">Controls</tspan></text>
<text fill="#7A858E" xml:space="preserve" style="white-space: pre" font-family="'Nunito Sans', 'Helvetica Neue', Helvetica, Arial, sans-serif" font-size="14" font-weight="bold" letter-spacing="0em"><tspan x="392" y="514.606">Interactions</tspan></text>
<text fill="#1EA7FD" xml:space="preserve" style="white-space: pre" font-family="'Nunito Sans', 'Helvetica Neue', Helvetica, Arial, sans-serif" font-size="14" font-weight="bold" letter-spacing="0em"><tspan x="499" y="514.606">Design</tspan></text>
<rect x="484" y="527" width="76" height="3" fill="#1EA7FD"/>
<text fill="#7A858E" xml:space="preserve" style="white-space: pre" font-family="'Nunito Sans', 'Helvetica Neue', Helvetica, Arial, sans-serif" font-size="14" font-weight="bold" letter-spacing="0em"><tspan x="575" y="514.606">Accessibility</tspan></text>
<text fill="#7A858E" xml:space="preserve" style="white-space: pre" font-family="'Nunito Sans', 'Helvetica Neue', Helvetica, Arial, sans-serif" font-size="14" font-weight="bold" letter-spacing="0em"><tspan x="686" y="514.606">Actions</tspan></text>
<path d="M1186.5 507.504C1186.5 507.228 1186.72 507.004 1187 507.004H1188C1188.28 507.004 1188.5 507.228 1188.5 507.504C1188.5 507.78 1188.28 508.004 1188 508.004H1187C1186.72 508.004 1186.5 507.78 1186.5 507.504Z" fill="#7A858E"/>
<path d="M1187 509.004C1186.72 509.004 1186.5 509.228 1186.5 509.504C1186.5 509.78 1186.72 510.004 1187 510.004H1188C1188.28 510.004 1188.5 509.78 1188.5 509.504C1188.5 509.228 1188.28 509.004 1188 509.004H1187Z" fill="#7A858E"/>
<path d="M1186.5 511.504C1186.5 511.228 1186.72 511.004 1187 511.004H1188C1188.28 511.004 1188.5 511.228 1188.5 511.504C1188.5 511.78 1188.28 512.004 1188 512.004H1187C1186.72 512.004 1186.5 511.78 1186.5 511.504Z" fill="#7A858E"/>
<path fill-rule="evenodd" clip-rule="evenodd" d="M1178.5 516.004C1178.22 516.004 1178 515.78 1178 515.504V504.504C1178 504.228 1178.22 504.004 1178.5 504.004H1189.5C1189.78 504.004 1190 504.228 1190 504.504V515.504C1190 515.78 1189.78 516.004 1189.5 516.004H1178.5ZM1179 515.004V505.004H1185V515.004H1179ZM1186 505.004H1189V515.004H1186V505.004Z" fill="#7A858E"/>
<g clip-path="url(#clip2_5704_92120)">
<path d="M1218.85 507.146C1219.05 507.342 1219.05 507.658 1218.85 507.854L1216.71 510L1218.85 512.146C1219.05 512.342 1219.05 512.658 1218.85 512.854C1218.66 513.049 1218.34 513.049 1218.15 512.854L1216 510.707L1213.85 512.854C1213.66 513.049 1213.34 513.049 1213.15 512.854C1212.95 512.658 1212.95 512.342 1213.15 512.146L1215.29 510L1213.15 507.854C1212.95 507.658 1212.95 507.342 1213.15 507.146C1213.34 506.951 1213.66 506.951 1213.85 507.146L1216 509.293L1218.15 507.146C1218.34 506.951 1218.66 506.951 1218.85 507.146Z" fill="#7A858E"/>
<path fill-rule="evenodd" clip-rule="evenodd" d="M1216 517C1219.87 517 1223 513.866 1223 510C1223 506.134 1219.87 503 1216 503C1212.13 503 1209 506.134 1209 510C1209 513.866 1212.13 517 1216 517ZM1216 516C1219.31 516 1222 513.314 1222 510C1222 506.686 1219.31 504 1216 504C1212.69 504 1210 506.686 1210 510C1210 513.314 1212.69 516 1216 516Z" fill="#7A858E"/>
</g>
<path d="M1240 530H292V532H1240V530Z" fill="#E1E5E8" mask="url(#path-5-inside-3_5704_92120)"/>
<rect width="948" height="270" transform="translate(292 531)" fill="#E5E5E5"/>
<g filter="url(#filter0_dd_5704_92120)">
<rect x="341.007" y="583" width="207.985" height="167" rx="6.11722" fill="white"/>
</g>
<text fill="#333333" xml:space="preserve" style="white-space: pre" font-family="'Nunito Sans', 'Helvetica Neue', Helvetica, Arial, sans-serif" font-size="13" font-weight="bold" letter-spacing="0em"><tspan x="359.359" y="712.849">Minimum</tspan></text>
<text fill="#333333" xml:space="preserve" style="white-space: pre" font-family="'Nunito Sans', 'Helvetica Neue', Helvetica, Arial, sans-serif" font-size="13" font-weight="bold" letter-spacing="0em"><tspan x="457.234" y="712.849">Maximum</tspan></text>
<rect x="457.54" y="718.496" width="72.7949" height="18.9634" rx="2.14103" fill="white"/>
<text fill="#333333" xml:space="preserve" style="white-space: pre" font-family="'Nunito Sans', 'Helvetica Neue', Helvetica, Arial, sans-serif" font-size="13" letter-spacing="0em"><tspan x="463.352" y="730.594">87</tspan></text>
<rect x="457.54" y="718.496" width="72.7949" height="18.9634" rx="2.14103" stroke="#1EA7FD" stroke-width="0.611722"/>
<rect x="359.359" y="718.19" width="73.4066" height="19.5751" rx="2.44689" fill="white"/>
<text fill="#999999" xml:space="preserve" style="white-space: pre" font-family="'Nunito Sans', 'Helvetica Neue', Helvetica, Arial, sans-serif" font-size="13" letter-spacing="0em"><tspan x="365.476" y="730.594">0</tspan></text>
<rect x="359.665" y="718.496" width="72.7949" height="18.9634" rx="2.14103" stroke="black" stroke-opacity="0.1" stroke-width="0.611722"/>
<rect x="442.553" y="727.366" width="4.89377" height="0.611722" fill="black" fill-opacity="0.1"/>
<path d="M341.007 593C341.007 587.477 345.484 583 351.007 583H538.993C544.516 583 548.993 587.477 548.993 593V679.04H341.007V593Z" fill="url(#paint0_linear_5704_92120)"/>
<rect width="10.0934" height="3.86939" transform="matrix(-1 0 0 1 369.452 675.178)" fill="url(#paint1_linear_5704_92120)"/>
<rect width="10.0934" height="8.69681" transform="matrix(-1 0 0 1 380.157 670.35)" fill="url(#paint2_linear_5704_92120)"/>
<rect width="10.0934" height="6.95745" transform="matrix(-1 0 0 1 390.863 672.09)" fill="url(#paint3_linear_5704_92120)"/>
<rect width="10.0934" height="13.0452" transform="matrix(-1 0 0 1 401.568 666.002)" fill="url(#paint4_linear_5704_92120)"/>
<rect width="10.0934" height="8.69681" transform="matrix(-1 0 0 1 412.273 670.35)" fill="url(#paint5_linear_5704_92120)"/>
<rect width="10.0934" height="7.82713" transform="matrix(-1 0 0 1 422.978 671.22)" fill="url(#paint6_linear_5704_92120)"/>
<rect width="10.0934" height="15.6543" transform="matrix(-1 0 0 1 433.683 663.393)" fill="url(#paint7_linear_5704_92120)"/>
<rect width="10.0934" height="19.133" transform="matrix(-1 0 0 1 444.388 659.914)" fill="url(#paint8_linear_5704_92120)"/>
<rect width="10.0934" height="33.0479" transform="matrix(-1 0 0 1 455.094 645.999)" fill="url(#paint9_linear_5704_92120)"/>
<rect width="10.0934" height="43.484" transform="matrix(-1 0 0 1 465.799 635.563)" fill="url(#paint10_linear_5704_92120)"/>
<rect width="10.0934" height="52.1809" transform="matrix(-1 0 0 1 476.504 626.866)" fill="url(#paint11_linear_5704_92120)"/>
<rect width="10.0934" height="29.5692" transform="matrix(-1 0 0 1 487.209 649.478)" fill="url(#paint12_linear_5704_92120)"/>
<rect width="10.0934" height="15.6543" transform="matrix(-1 0 0 1 497.914 663.393)" fill="url(#paint13_linear_5704_92120)"/>
<rect width="10.0934" height="19.133" transform="matrix(-1 0 0 1 508.619 659.914)" fill="url(#paint14_linear_5704_92120)"/>
<rect width="9.78755" height="10.3993" transform="matrix(-1 0 0 1 519.018 668.648)" fill="url(#paint15_linear_5704_92120)"/>
<rect width="10.3993" height="12.8462" transform="matrix(-1 0 0 1 530.029 666.201)" fill="url(#paint16_linear_5704_92120)"/>
<path fill-rule="evenodd" clip-rule="evenodd" d="M359.359 682.71H358.747V685.157H359.359V682.71ZM496.385 682.711H495.773V685.158H496.385V682.711ZM427.26 682.711H427.872V685.158H427.26V682.711ZM530.641 682.711H530.029V685.158H530.641V682.711ZM393.004 682.711H393.615V685.158H393.004V682.711ZM462.128 682.711H461.516V685.158H462.128V682.711Z" fill="black" fill-opacity="0.1"/>
<text fill="#999999" xml:space="preserve" style="white-space: pre" font-family="'Nunito Sans', 'Helvetica Neue', Helvetica, Arial, sans-serif" font-size="6.11722" letter-spacing="0px"><tspan x="388.665" y="693.005">20</tspan></text>
<text fill="#999999" xml:space="preserve" style="white-space: pre" font-family="'Nunito Sans', 'Helvetica Neue', Helvetica, Arial, sans-serif" font-size="6.11722" letter-spacing="0px"><tspan x="422.922" y="693.005">40</tspan></text>
<text fill="#999999" xml:space="preserve" style="white-space: pre" font-family="'Nunito Sans', 'Helvetica Neue', Helvetica, Arial, sans-serif" font-size="6.11722" letter-spacing="0px"><tspan x="457.793" y="693.005">60</tspan></text>
<text fill="#999999" xml:space="preserve" style="white-space: pre" font-family="'Nunito Sans', 'Helvetica Neue', Helvetica, Arial, sans-serif" font-size="6.11722" letter-spacing="0px"><tspan x="492.046" y="693.005">80</tspan></text>
<text fill="#999999" xml:space="preserve" style="white-space: pre" font-family="'Nunito Sans', 'Helvetica Neue', Helvetica, Arial, sans-serif" font-size="6.11722" letter-spacing="0px"><tspan x="522.187" y="693.005">100</tspan></text>
<text fill="#999999" xml:space="preserve" style="white-space: pre" font-family="'Nunito Sans', 'Helvetica Neue', Helvetica, Arial, sans-serif" font-size="6.11722" letter-spacing="0px"><tspan x="356.69" y="693.005">0</tspan></text>
<text fill="#333333" xml:space="preserve" style="white-space: pre" font-family="'Nunito Sans', 'Helvetica Neue', Helvetica, Arial, sans-serif" font-size="13" font-weight="bold" letter-spacing="0em"><tspan x="359.359" y="609.468">Average nightly price: $42</tspan></text>
<rect x="548.993" y="680.264" width="207.985" height="1.22344" transform="rotate(-180 548.993 680.264)" fill="black" fill-opacity="0.1"/>
<g filter="url(#filter1_d_5704_92120)">
<circle cx="508.619" cy="679.652" r="4.89377" fill="white"/>
<circle cx="508.619" cy="679.652" r="4.89377" stroke="black" stroke-opacity="0.1" stroke-width="0.611722"/>
</g>
<rect x="507.396" y="677.205" width="0.611722" height="4.89377" rx="0.305861" fill="#CCCCCC"/>
<rect x="509.231" y="677.205" width="0.611722" height="4.89377" rx="0.305861" fill="#CCCCCC"/>
<g filter="url(#filter2_d_5704_92120)">
<circle cx="359.359" cy="679.652" r="4.89377" fill="white"/>
<circle cx="359.359" cy="679.652" r="4.89377" stroke="black" stroke-opacity="0.1" stroke-width="0.611722"/>
</g>
<rect x="358.135" y="677.205" width="0.611722" height="4.89377" rx="0.305861" fill="#CCCCCC"/>
<rect x="359.971" y="677.205" width="0.611722" height="4.89377" rx="0.305861" fill="#CCCCCC"/>
<rect x="1190.5" y="719.5" width="33" height="65" rx="3.5" fill="#222222"/>
<rect x="1202" y="767" width="11" height="1" fill="white"/>
<path fill-rule="evenodd" clip-rule="evenodd" d="M1208 730H1207V735H1202V736H1207V741H1208V736H1213V735H1208V730Z" fill="white"/>
<rect x="1190.5" y="719.5" width="33" height="65" rx="3.5" stroke="#4E4E4E"/>
<path d="M305 558.048V544H312.483V545.768H306.807V549.596H311.165V551.364H306.807V558.054L305 558.048Z" fill="black"/>
<path d="M316.916 545.674C316.916 546.325 316.387 546.852 315.736 546.852C315.085 546.852 314.558 546.324 314.558 545.674C314.558 545.023 315.086 544.494 315.736 544.494C316.387 544.494 316.916 545.023 316.916 545.674Z" fill="black"/>
<path d="M314.817 558.051V548.621H316.624V558.051H314.817Z" fill="black"/>
<path fill-rule="evenodd" clip-rule="evenodd" d="M319.253 552.786C319.253 550.376 320.928 548.346 323.328 548.346C324.427 548.346 325.333 548.771 325.992 549.464V548.621H327.8V557.363C327.8 559.924 325.723 562 323.163 562C322.238 562 321.377 561.729 320.654 561.263L321.559 559.695C322.015 560.009 322.587 560.232 323.163 560.232C324.765 560.232 325.992 558.926 325.992 557.363V556.108C325.333 556.8 324.428 557.226 323.328 557.226C320.928 557.226 319.253 555.196 319.253 552.786ZM323.525 550.114C322.205 550.114 321.061 551.29 321.061 552.786C321.061 554.282 322.205 555.458 323.525 555.458C324.845 555.458 325.989 554.282 325.989 552.786C325.989 551.29 324.845 550.114 323.525 550.114Z" fill="black"/>
<path d="M334.312 550.114C333.244 550.114 332.377 551.019 332.377 552.088V558.051H330.57V548.621H332.377V549.485C332.907 548.8 333.687 548.345 334.705 548.345C335.972 548.345 336.944 548.975 337.507 549.937C338.133 549.007 339.154 548.346 340.383 548.346C342.44 548.346 343.721 550.006 343.733 552.059V558.051H341.926V552.088C341.926 551.019 341.059 550.114 339.99 550.114C338.921 550.114 338.055 551.019 338.055 552.088V558.051H336.248V552.088C336.248 551.019 335.381 550.114 334.312 550.114Z" fill="black"/>
<path fill-rule="evenodd" clip-rule="evenodd" d="M350.177 548.346C351.455 548.346 352.556 548.86 353.36 549.69V548.621H355.167V558.051H353.36V556.982C352.556 557.812 351.455 558.326 350.177 558.326C347.488 558.326 345.58 556.049 345.58 553.336C345.58 550.622 347.488 548.346 350.177 548.346ZM350.374 550.114C348.766 550.114 347.387 551.536 347.387 553.336C347.387 555.136 348.766 556.558 350.374 556.558C351.981 556.558 353.36 555.136 353.36 553.336C353.36 551.536 351.981 550.114 350.374 550.114Z" fill="black"/>
<rect width="948" height="48" transform="translate(292 801)" fill="white"/>
<path fill-rule="evenodd" clip-rule="evenodd" d="M316.514 818H311.49C310.701 818 309.944 818.313 309.386 818.871C308.828 819.429 308.514 820.186 308.514 820.975C308.514 821.764 308.828 822.521 309.386 823.079C309.542 823.235 309.713 823.371 309.896 823.488C309.713 823.604 309.542 823.74 309.386 823.896C308.828 824.454 308.514 825.211 308.514 826C308.514 826.789 308.828 827.546 309.386 828.104C309.542 828.26 309.713 828.396 309.896 828.512C309.713 828.629 309.542 828.765 309.386 828.921C308.828 829.479 308.514 830.236 308.514 831.025C308.514 831.814 308.828 832.571 309.386 833.129C309.944 833.687 310.701 834 311.49 834C312.279 834 313.035 833.687 313.593 833.129C314.151 832.571 314.465 831.814 314.465 831.025V828.157C315.017 828.682 315.751 828.975 316.514 828.975C317.304 828.975 318.06 828.662 318.618 828.104C319.176 827.546 319.49 826.789 319.49 826C319.49 825.211 319.176 824.454 318.618 823.896C318.462 823.74 318.291 823.604 318.108 823.488C318.291 823.371 318.462 823.235 318.618 823.079C319.176 822.521 319.49 821.764 319.49 820.975C319.49 820.186 319.176 819.429 318.618 818.871C318.06 818.313 317.304 818 316.514 818ZM314.465 826C314.465 826.544 314.681 827.065 315.065 827.449C315.45 827.834 315.971 828.05 316.514 828.05C317.058 828.05 317.579 827.834 317.964 827.449C318.348 827.065 318.564 826.544 318.564 826C318.564 825.456 318.348 824.935 317.964 824.551C317.579 824.166 317.058 823.95 316.514 823.95C315.971 823.95 315.45 824.166 315.065 824.551C314.681 824.935 314.465 825.456 314.465 826ZM313.539 828.975H311.49C310.946 828.975 310.425 829.191 310.04 829.576C309.656 829.96 309.44 830.481 309.44 831.025C309.44 831.568 309.656 832.09 310.04 832.474C310.425 832.859 310.946 833.074 311.49 833.074C312.033 833.074 312.555 832.859 312.939 832.474C313.323 832.09 313.539 831.568 313.539 831.025V828.975ZM311.49 823.025H313.539V818.926H311.49C310.946 818.926 310.425 819.142 310.04 819.526C309.656 819.91 309.44 820.432 309.44 820.975C309.44 821.519 309.656 822.04 310.04 822.425C310.425 822.809 310.946 823.025 311.49 823.025ZM311.49 823.95C310.946 823.95 310.425 824.166 310.04 824.551C309.656 824.935 309.44 825.456 309.44 826C309.44 826.544 309.656 827.065 310.04 827.449C310.425 827.834 310.946 828.05 311.49 828.05H313.539V823.95H311.49ZM316.514 823.025H314.465V818.926H316.514C317.058 818.926 317.579 819.142 317.964 819.526C318.348 819.91 318.564 820.432 318.564 820.975C318.564 821.519 318.348 822.04 317.964 822.425C317.579 822.809 317.058 823.025 316.514 823.025Z" fill="#333333"/>
<text fill="black" xml:space="preserve" style="white-space: pre" font-family="SF Pro Text" font-size="11" font-weight="bold" letter-spacing="0em"><tspan x="331" y="829.41">RangeSlider </tspan></text>
<text fill="black" xml:space="preserve" style="white-space: pre" font-family="SF Pro Text" font-size="11" letter-spacing="0em"><tspan x="400.964" y="829.41">Edited 2 weeks ago</tspan></text>
</g>
<path d="M292 489H1240V491H292V489ZM1240 849H292H1240ZM292 849V490V849ZM1240 490V849V490Z" fill="#E1E5E8" mask="url(#path-3-outside-2_5704_92120)"/>
</g>
<path d="M292 489H1240V491H292V489ZM1240 849H292H1240ZM292 849V490V849ZM1240 490V849V490Z" fill="#E1E5E8" mask="url(#path-1-inside-1_5704_92120)"/>
<defs>
<filter id="filter0_dd_5704_92120" x="331.832" y="576.883" width="226.337" height="185.352" filterUnits="userSpaceOnUse" color-interpolation-filters="sRGB">
<feFlood flood-opacity="0" result="BackgroundImageFix"/>
<feColorMatrix in="SourceAlpha" type="matrix" values="0 0 0 0 0 0 0 0 0 0 0 0 0 0 0 0 0 0 127 0" result="hardAlpha"/>
<feOffset dy="3.05861"/>
<feGaussianBlur stdDeviation="4.58791"/>
<feColorMatrix type="matrix" values="0 0 0 0 0 0 0 0 0 0 0 0 0 0 0 0 0 0 0.1 0"/>
<feBlend mode="normal" in2="BackgroundImageFix" result="effect1_dropShadow_5704_92120"/>
<feColorMatrix in="SourceAlpha" type="matrix" values="0 0 0 0 0 0 0 0 0 0 0 0 0 0 0 0 0 0 127 0" result="hardAlpha"/>
<feOffset dy="0.611722"/>
<feGaussianBlur stdDeviation="0.917582"/>
<feColorMatrix type="matrix" values="0 0 0 0 0 0 0 0 0 0 0 0 0 0 0 0 0 0 0.05 0"/>
<feBlend mode="normal" in2="effect1_dropShadow_5704_92120" result="effect2_dropShadow_5704_92120"/>
<feBlend mode="normal" in="SourceGraphic" in2="effect2_dropShadow_5704_92120" result="shape"/>
</filter>
<filter id="filter1_d_5704_92120" x="501.584" y="673.229" width="14.0697" height="14.0693" filterUnits="userSpaceOnUse" color-interpolation-filters="sRGB">
<feFlood flood-opacity="0" result="BackgroundImageFix"/>
<feColorMatrix in="SourceAlpha" type="matrix" values="0 0 0 0 0 0 0 0 0 0 0 0 0 0 0 0 0 0 127 0" result="hardAlpha"/>
<feOffset dy="0.611722"/>
<feGaussianBlur stdDeviation="0.917582"/>
<feColorMatrix type="matrix" values="0 0 0 0 0 0 0 0 0 0 0 0 0 0 0 0 0 0 0.1 0"/>
<feBlend mode="normal" in2="BackgroundImageFix" result="effect1_dropShadow_5704_92120"/>
<feBlend mode="normal" in="SourceGraphic" in2="effect1_dropShadow_5704_92120" result="shape"/>
</filter>
<filter id="filter2_d_5704_92120" x="352.324" y="673.229" width="14.0697" height="14.0693" filterUnits="userSpaceOnUse" color-interpolation-filters="sRGB">
<feFlood flood-opacity="0" result="BackgroundImageFix"/>
<feColorMatrix in="SourceAlpha" type="matrix" values="0 0 0 0 0 0 0 0 0 0 0 0 0 0 0 0 0 0 127 0" result="hardAlpha"/>
<feOffset dy="0.611722"/>
<feGaussianBlur stdDeviation="0.917582"/>
<feColorMatrix type="matrix" values="0 0 0 0 0 0 0 0 0 0 0 0 0 0 0 0 0 0 0.1 0"/>
<feBlend mode="normal" in2="BackgroundImageFix" result="effect1_dropShadow_5704_92120"/>
<feBlend mode="normal" in="SourceGraphic" in2="effect1_dropShadow_5704_92120" result="shape"/>
</filter>
<linearGradient id="paint0_linear_5704_92120" x1="445" y1="583" x2="445" y2="679.04" gradientUnits="userSpaceOnUse">
<stop stop-color="#E7FBFB"/>
<stop offset="1" stop-color="#F4F8FA"/>
</linearGradient>
<linearGradient id="paint1_linear_5704_92120" x1="-1.31613" y1="0.5444" x2="-1.28771" y2="5.1524" gradientUnits="userSpaceOnUse">
<stop stop-color="#FA8961"/>
<stop offset="1" stop-color="#FFBD58"/>
</linearGradient>
<linearGradient id="paint2_linear_5704_92120" x1="-1.31613" y1="1.22359" x2="-1.17258" y2="11.5789" gradientUnits="userSpaceOnUse">
<stop stop-color="#FA8961"/>
<stop offset="1" stop-color="#FFBD58"/>
</linearGradient>
<linearGradient id="paint3_linear_5704_92120" x1="-1.31613" y1="0.978871" x2="-1.22425" y2="9.26369" gradientUnits="userSpaceOnUse">
<stop stop-color="#FA8961"/>
<stop offset="1" stop-color="#FFBD58"/>
</linearGradient>
<linearGradient id="paint4_linear_5704_92120" x1="-1.31613" y1="1.83538" x2="-0.993208" y2="17.3646" gradientUnits="userSpaceOnUse">
<stop stop-color="#FA8961"/>
<stop offset="1" stop-color="#FFBD58"/>
</linearGradient>
<linearGradient id="paint5_linear_5704_92120" x1="-1.31613" y1="1.22359" x2="-1.17258" y2="11.5789" gradientUnits="userSpaceOnUse">
<stop stop-color="#FA8961"/>
<stop offset="1" stop-color="#FFBD58"/>
</linearGradient>
<linearGradient id="paint6_linear_5704_92120" x1="-1.31613" y1="1.10123" x2="-1.19985" y2="10.4214" gradientUnits="userSpaceOnUse">
<stop stop-color="#FA8961"/>
<stop offset="1" stop-color="#FFBD58"/>
</linearGradient>
<linearGradient id="paint7_linear_5704_92120" x1="-1.31613" y1="2.20246" x2="-0.85121" y2="20.834" gradientUnits="userSpaceOnUse">
<stop stop-color="#FA8961"/>
<stop offset="1" stop-color="#FFBD58"/>
</linearGradient>
<linearGradient id="paint8_linear_5704_92120" x1="-1.31613" y1="2.6919" x2="-0.621832" y2="25.4568" gradientUnits="userSpaceOnUse">
<stop stop-color="#FA8961"/>
<stop offset="1" stop-color="#FFBD58"/>
</linearGradient>
<linearGradient id="paint9_linear_5704_92120" x1="-1.31613" y1="4.64964" x2="0.751481" y2="43.8985" gradientUnits="userSpaceOnUse">
<stop stop-color="#FA8961"/>
<stop offset="1" stop-color="#FFBD58"/>
</linearGradient>
<linearGradient id="paint10_linear_5704_92120" x1="-1.31613" y1="6.11794" x2="2.2563" y2="57.6568" gradientUnits="userSpaceOnUse">
<stop stop-color="#FA8961"/>
<stop offset="1" stop-color="#FFBD58"/>
</linearGradient>
<linearGradient id="paint11_linear_5704_92120" x1="-1.31613" y1="7.34153" x2="3.81737" y2="69.0584" gradientUnits="userSpaceOnUse">
<stop stop-color="#FA8961"/>
<stop offset="1" stop-color="#FFBD58"/>
</linearGradient>
<linearGradient id="paint12_linear_5704_92120" x1="-1.31613" y1="4.1602" x2="0.340018" y2="39.297" gradientUnits="userSpaceOnUse">
<stop stop-color="#FA8961"/>
<stop offset="1" stop-color="#FFBD58"/>
</linearGradient>
<linearGradient id="paint13_linear_5704_92120" x1="-1.31613" y1="2.20246" x2="-0.85121" y2="20.834" gradientUnits="userSpaceOnUse">
<stop stop-color="#FA8961"/>
<stop offset="1" stop-color="#FFBD58"/>
</linearGradient>
<linearGradient id="paint14_linear_5704_92120" x1="-1.31613" y1="2.6919" x2="-0.621832" y2="25.4568" gradientUnits="userSpaceOnUse">
<stop stop-color="#FA8961"/>
<stop offset="1" stop-color="#FFBD58"/>
</linearGradient>
<linearGradient id="paint15_linear_5704_92120" x1="-1.27625" y1="1.46311" x2="-1.06459" y2="13.8443" gradientUnits="userSpaceOnUse">
<stop stop-color="#E2E2E2"/>
<stop offset="1" stop-color="#F0F0F0"/>
</linearGradient>
<linearGradient id="paint16_linear_5704_92120" x1="-1.35601" y1="1.80738" x2="-1.05207" y2="17.1002" gradientUnits="userSpaceOnUse">
<stop stop-color="#E2E2E2"/>
<stop offset="1" stop-color="#F0F0F0"/>
</linearGradient>
<clipPath id="clip0_5704_92120">
<path d="M292 490H1240V841C1240 845.418 1236.42 849 1232 849H300C295.582 849 292 845.418 292 841V490Z" fill="white"/>
</clipPath>
<clipPath id="clip1_5704_92120">
<path d="M292 490H1240V841C1240 845.418 1236.42 849 1232 849H300C295.582 849 292 845.418 292 841V490Z" fill="white"/>
</clipPath>
<clipPath id="clip2_5704_92120">
<rect width="14" height="14" fill="white" transform="translate(1209 503)"/>
</clipPath>
</defs>
</svg>
