<svg width="948" height="360" viewBox="0 0 948 360" fill="none" xmlns="http://www.w3.org/2000/svg">
<mask id="path-2-outside-1_5692_95565" maskUnits="userSpaceOnUse" x="0" y="0" width="948" height="360" fill="black">
<rect fill="white" width="948" height="360"/>
<path d="M0 1H948V355C948 357.761 945.761 360 943 360H4.99998C2.23855 360 0 357.761 0 355V1Z"/>
</mask>
<path d="M0 1H948V355C948 357.761 945.761 360 943 360H4.99998C2.23855 360 0 357.761 0 355V1Z" fill="white"/>
<mask id="path-4-inside-2_5692_95565" fill="white">
<path d="M0 1H948V42H0V1Z"/>
</mask>
<path d="M0 1H948V42H0V1Z" fill="white"/>
<text fill="#7A858E" xml:space="preserve" style="white-space: pre" font-family="'Nunito Sans', 'Helvetica Neue', Helvetica, Arial, sans-serif" font-size="14" font-weight="bold" letter-spacing="0em"><tspan x="15" y="25.606">Controls</tspan></text>
<text fill="#7A858E" xml:space="preserve" style="white-space: pre" font-family="'Nunito Sans', 'Helvetica Neue', Helvetica, Arial, sans-serif" font-size="14" font-weight="bold" letter-spacing="0em"><tspan x="100" y="25.606">Interactions</tspan></text>
<text fill="#1EA7FD" xml:space="preserve" style="white-space: pre" font-family="'Nunito Sans', 'Helvetica Neue', Helvetica, Arial, sans-serif" font-size="14" font-weight="bold" letter-spacing="0em"><tspan x="207" y="25.606">Design</tspan></text>
<rect x="192" y="38" width="76" height="3" fill="#1EA7FD"/>
<text fill="#7A858E" xml:space="preserve" style="white-space: pre" font-family="'Nunito Sans', 'Helvetica Neue', Helvetica, Arial, sans-serif" font-size="14" font-weight="bold" letter-spacing="0em"><tspan x="283" y="25.606">Accessibility</tspan></text>
<text fill="#7A858E" xml:space="preserve" style="white-space: pre" font-family="'Nunito Sans', 'Helvetica Neue', Helvetica, Arial, sans-serif" font-size="14" font-weight="bold" letter-spacing="0em"><tspan x="394" y="25.606">Actions</tspan></text>
<path d="M894.5 18.5039C894.5 18.2278 894.724 18.0039 895 18.0039H896C896.276 18.0039 896.5 18.2278 896.5 18.5039C896.5 18.78 896.276 19.0039 896 19.0039H895C894.724 19.0039 894.5 18.78 894.5 18.5039Z" fill="#7A858E"/>
<path d="M895 20.0039C894.724 20.0039 894.5 20.2278 894.5 20.5039C894.5 20.78 894.724 21.0039 895 21.0039H896C896.276 21.0039 896.5 20.78 896.5 20.5039C896.5 20.2278 896.276 20.0039 896 20.0039H895Z" fill="#7A858E"/>
<path d="M894.5 22.5039C894.5 22.2278 894.724 22.0039 895 22.0039H896C896.276 22.0039 896.5 22.2278 896.5 22.5039C896.5 22.78 896.276 23.0039 896 23.0039H895C894.724 23.0039 894.5 22.78 894.5 22.5039Z" fill="#7A858E"/>
<path fill-rule="evenodd" clip-rule="evenodd" d="M886.5 27.0039C886.224 27.0039 886 26.78 886 26.5039V15.5039C886 15.2278 886.224 15.0039 886.5 15.0039H897.5C897.776 15.0039 898 15.2278 898 15.5039V26.5039C898 26.78 897.776 27.0039 897.5 27.0039H886.5ZM887 26.0039V16.0039H893V26.0039H887ZM894 16.0039H897V26.0039H894V16.0039Z" fill="#7A858E"/>
<g clip-path="url(#clip0_5692_95565)">
<path d="M926.854 18.1464C927.049 18.3417 927.049 18.6583 926.854 18.8536L924.707 21L926.854 23.1464C927.049 23.3417 927.049 23.6583 926.854 23.8536C926.658 24.0488 926.342 24.0488 926.146 23.8536L924 21.7071L921.854 23.8536C921.658 24.0488 921.342 24.0488 921.146 23.8536C920.951 23.6583 920.951 23.3417 921.146 23.1464L923.293 21L921.146 18.8536C920.951 18.6583 920.951 18.3417 921.146 18.1464C921.342 17.9512 921.658 17.9512 921.854 18.1464L924 20.2929L926.146 18.1464C926.342 17.9512 926.658 17.9512 926.854 18.1464Z" fill="#7A858E"/>
<path fill-rule="evenodd" clip-rule="evenodd" d="M924 28C927.866 28 931 24.866 931 21C931 17.134 927.866 14 924 14C920.134 14 917 17.134 917 21C917 24.866 920.134 28 924 28ZM924 27C927.314 27 930 24.3137 930 21C930 17.6863 927.314 15 924 15C920.686 15 918 17.6863 918 21C918 24.3137 920.686 27 924 27Z" fill="#7A858E"/>
</g>
<path d="M948 41H0V43H948V41Z" fill="#E1E5E8" mask="url(#path-4-inside-2_5692_95565)"/>
<rect width="948" height="270" transform="translate(0 42)" fill="#E5E5E5"/>
<g filter="url(#filter0_dd_5692_95565)">
<rect x="369.007" y="94" width="207.985" height="167" rx="6.11722" fill="white"/>
</g>
<text fill="#333333" xml:space="preserve" style="white-space: pre" font-family="'Nunito Sans', 'Helvetica Neue', Helvetica, Arial, sans-serif" font-size="13" font-weight="bold" letter-spacing="0em"><tspan x="387.359" y="223.849">Minimum</tspan></text>
<text fill="#333333" xml:space="preserve" style="white-space: pre" font-family="'Nunito Sans', 'Helvetica Neue', Helvetica, Arial, sans-serif" font-size="13" font-weight="bold" letter-spacing="0em"><tspan x="485.234" y="223.849">Maximum</tspan></text>
<rect x="485.54" y="229.496" width="72.7949" height="18.9634" rx="2.14103" fill="white"/>
<text fill="#333333" xml:space="preserve" style="white-space: pre" font-family="'Nunito Sans', 'Helvetica Neue', Helvetica, Arial, sans-serif" font-size="13" letter-spacing="0em"><tspan x="491.352" y="241.594">87</tspan></text>
<rect x="485.54" y="229.496" width="72.7949" height="18.9634" rx="2.14103" stroke="#1EA7FD" stroke-width="0.611722"/>
<rect x="387.359" y="229.19" width="73.4066" height="19.5751" rx="2.44689" fill="white"/>
<text fill="#999999" xml:space="preserve" style="white-space: pre" font-family="'Nunito Sans', 'Helvetica Neue', Helvetica, Arial, sans-serif" font-size="13" letter-spacing="0em"><tspan x="393.476" y="241.594">0</tspan></text>
<rect x="387.665" y="229.496" width="72.7949" height="18.9634" rx="2.14103" stroke="black" stroke-opacity="0.1" stroke-width="0.611722"/>
<rect x="470.553" y="238.366" width="4.89377" height="0.611722" fill="black" fill-opacity="0.1"/>
<path d="M369.007 100.117C369.007 96.7388 371.746 94 375.125 94H570.875C574.254 94 576.993 96.7388 576.993 100.117V190.04H369.007V100.117Z" fill="url(#paint0_linear_5692_95565)"/>
<rect width="10.0934" height="3.86939" transform="matrix(-1 0 0 1 397.452 186.178)" fill="url(#paint1_linear_5692_95565)"/>
<rect width="10.0934" height="8.69681" transform="matrix(-1 0 0 1 408.157 181.35)" fill="url(#paint2_linear_5692_95565)"/>
<rect width="10.0934" height="6.95745" transform="matrix(-1 0 0 1 418.863 183.09)" fill="url(#paint3_linear_5692_95565)"/>
<rect width="10.0934" height="13.0452" transform="matrix(-1 0 0 1 429.568 177.002)" fill="url(#paint4_linear_5692_95565)"/>
<rect width="10.0934" height="8.69681" transform="matrix(-1 0 0 1 440.273 181.35)" fill="url(#paint5_linear_5692_95565)"/>
<rect width="10.0934" height="7.82713" transform="matrix(-1 0 0 1 450.978 182.22)" fill="url(#paint6_linear_5692_95565)"/>
<rect width="10.0934" height="15.6543" transform="matrix(-1 0 0 1 461.683 174.393)" fill="url(#paint7_linear_5692_95565)"/>
<rect width="10.0934" height="19.133" transform="matrix(-1 0 0 1 472.388 170.914)" fill="url(#paint8_linear_5692_95565)"/>
<rect width="10.0934" height="33.0479" transform="matrix(-1 0 0 1 483.094 156.999)" fill="url(#paint9_linear_5692_95565)"/>
<rect width="10.0934" height="43.484" transform="matrix(-1 0 0 1 493.799 146.563)" fill="url(#paint10_linear_5692_95565)"/>
<rect width="10.0934" height="52.1809" transform="matrix(-1 0 0 1 504.504 137.866)" fill="url(#paint11_linear_5692_95565)"/>
<rect width="10.0934" height="29.5692" transform="matrix(-1 0 0 1 515.209 160.478)" fill="url(#paint12_linear_5692_95565)"/>
<rect width="10.0934" height="15.6543" transform="matrix(-1 0 0 1 525.914 174.393)" fill="url(#paint13_linear_5692_95565)"/>
<rect width="10.0934" height="19.133" transform="matrix(-1 0 0 1 536.619 170.914)" fill="url(#paint14_linear_5692_95565)"/>
<rect width="9.78755" height="10.3993" transform="matrix(-1 0 0 1 547.018 179.648)" fill="url(#paint15_linear_5692_95565)"/>
<rect width="10.3993" height="12.8462" transform="matrix(-1 0 0 1 558.029 177.201)" fill="url(#paint16_linear_5692_95565)"/>
<path fill-rule="evenodd" clip-rule="evenodd" d="M387.359 193.71H386.747V196.157H387.359V193.71ZM524.385 193.711H523.773V196.158H524.385V193.711ZM455.26 193.711H455.872V196.158H455.26V193.711ZM558.641 193.711H558.029V196.158H558.641V193.711ZM421.004 193.711H421.615V196.158H421.004V193.711ZM490.128 193.711H489.516V196.158H490.128V193.711Z" fill="black" fill-opacity="0.1"/>
<text fill="#999999" xml:space="preserve" style="white-space: pre" font-family="'Nunito Sans', 'Helvetica Neue', Helvetica, Arial, sans-serif" font-size="6.11722" letter-spacing="0px"><tspan x="416.665" y="204.005">20</tspan></text>
<text fill="#999999" xml:space="preserve" style="white-space: pre" font-family="'Nunito Sans', 'Helvetica Neue', Helvetica, Arial, sans-serif" font-size="6.11722" letter-spacing="0px"><tspan x="450.922" y="204.005">40</tspan></text>
<text fill="#999999" xml:space="preserve" style="white-space: pre" font-family="'Nunito Sans', 'Helvetica Neue', Helvetica, Arial, sans-serif" font-size="6.11722" letter-spacing="0px"><tspan x="485.793" y="204.005">60</tspan></text>
<text fill="#999999" xml:space="preserve" style="white-space: pre" font-family="'Nunito Sans', 'Helvetica Neue', Helvetica, Arial, sans-serif" font-size="6.11722" letter-spacing="0px"><tspan x="520.046" y="204.005">80</tspan></text>
<text fill="#999999" xml:space="preserve" style="white-space: pre" font-family="'Nunito Sans', 'Helvetica Neue', Helvetica, Arial, sans-serif" font-size="6.11722" letter-spacing="0px"><tspan x="550.187" y="204.005">100</tspan></text>
<text fill="#999999" xml:space="preserve" style="white-space: pre" font-family="'Nunito Sans', 'Helvetica Neue', Helvetica, Arial, sans-serif" font-size="6.11722" letter-spacing="0px"><tspan x="384.69" y="204.005">0</tspan></text>
<text fill="#333333" xml:space="preserve" style="white-space: pre" font-family="'Nunito Sans', 'Helvetica Neue', Helvetica, Arial, sans-serif" font-size="13" font-weight="bold" letter-spacing="0em"><tspan x="387.359" y="120.468">Average nightly price: $42</tspan></text>
<rect x="576.993" y="191.264" width="207.985" height="1.22344" transform="rotate(-180 576.993 191.264)" fill="black" fill-opacity="0.1"/>
<g filter="url(#filter1_d_5692_95565)">
<circle cx="536.619" cy="190.652" r="4.89377" fill="white"/>
<circle cx="536.619" cy="190.652" r="4.89377" stroke="black" stroke-opacity="0.1" stroke-width="0.611722"/>
</g>
<rect x="535.396" y="188.205" width="0.611722" height="4.89377" rx="0.305861" fill="#CCCCCC"/>
<rect x="537.231" y="188.205" width="0.611722" height="4.89377" rx="0.305861" fill="#CCCCCC"/>
<g filter="url(#filter2_d_5692_95565)">
<circle cx="387.359" cy="190.652" r="4.89377" fill="white"/>
<circle cx="387.359" cy="190.652" r="4.89377" stroke="black" stroke-opacity="0.1" stroke-width="0.611722"/>
</g>
<rect x="386.135" y="188.205" width="0.611722" height="4.89377" rx="0.305861" fill="#CCCCCC"/>
<rect x="387.971" y="188.205" width="0.611722" height="4.89377" rx="0.305861" fill="#CCCCCC"/>
<rect x="898.5" y="230.5" width="33" height="65" rx="3.5" fill="#222222"/>
<rect x="910" y="278" width="11" height="1" fill="white"/>
<path fill-rule="evenodd" clip-rule="evenodd" d="M916 241H915V246H910V247H915V252H916V247H921V246H916V241Z" fill="white"/>
<rect x="898.5" y="230.5" width="33" height="65" rx="3.5" stroke="#4E4E4E"/>
<path d="M13 69.048V55H20.483V56.768H14.807V60.596H19.165V62.364H14.807V69.054L13 69.048Z" fill="black"/>
<path d="M24.916 56.674C24.916 57.325 24.387 57.852 23.736 57.852C23.085 57.852 22.558 57.324 22.558 56.674C22.558 56.023 23.086 55.494 23.736 55.494C24.387 55.494 24.916 56.023 24.916 56.674Z" fill="black"/>
<path d="M22.817 69.051V59.621H24.624V69.051H22.817Z" fill="black"/>
<path fill-rule="evenodd" clip-rule="evenodd" d="M27.2531 63.7859C27.2531 61.3759 28.9281 59.3459 31.3281 59.3459C32.4271 59.3459 33.3331 59.7709 33.9921 60.4639V59.6209H35.8001V68.3629C35.8001 70.9239 33.7231 72.9999 31.1631 72.9999C30.2381 72.9999 29.3771 72.7289 28.6541 72.2629L29.5591 70.6949C30.0151 71.0089 30.5871 71.2319 31.1631 71.2319C32.7651 71.2319 33.9921 69.9259 33.9921 68.3629V67.1079C33.3331 67.7999 32.4281 68.2259 31.3281 68.2259C28.9281 68.2259 27.2531 66.1959 27.2531 63.7859ZM31.5251 61.1139C30.2051 61.1139 29.0611 62.2899 29.0611 63.7859C29.0611 65.2819 30.2051 66.4579 31.5251 66.4579C32.8451 66.4579 33.9891 65.2819 33.9891 63.7859C33.9891 62.2899 32.8451 61.1139 31.5251 61.1139Z" fill="black"/>
<path d="M42.3119 61.114C41.2439 61.114 40.3769 62.019 40.3769 63.088V69.051H38.5699V59.621H40.3769V60.485C40.9069 59.8 41.6869 59.345 42.7049 59.345C43.9719 59.345 44.9439 59.975 45.5069 60.937C46.1329 60.007 47.1539 59.346 48.3829 59.346C50.4399 59.346 51.7209 61.006 51.7329 63.059V69.051H49.9259V63.088C49.9259 62.019 49.0589 61.114 47.9899 61.114C46.9209 61.114 46.0549 62.019 46.0549 63.088V69.051H44.2479V63.088C44.2479 62.019 43.3809 61.114 42.3119 61.114Z" fill="black"/>
<path fill-rule="evenodd" clip-rule="evenodd" d="M58.177 59.3459C59.455 59.3459 60.556 59.8599 61.36 60.6899V59.6209H63.167V69.0509H61.36V67.9819C60.556 68.8119 59.455 69.3259 58.177 69.3259C55.488 69.3259 53.58 67.0489 53.58 64.3359C53.58 61.6219 55.488 59.3459 58.177 59.3459ZM58.374 61.1139C56.766 61.1139 55.387 62.5359 55.387 64.3359C55.387 66.1359 56.766 67.5579 58.374 67.5579C59.981 67.5579 61.36 66.1359 61.36 64.3359C61.36 62.5359 59.981 61.1139 58.374 61.1139Z" fill="black"/>
<path d="M0 312H948V355C948 357.761 945.761 360 943 360H4.99998C2.23855 360 0 357.761 0 355V312Z" fill="white"/>
<path fill-rule="evenodd" clip-rule="evenodd" d="M24.5144 329H19.4896C18.7005 329 17.9438 329.313 17.3858 329.871C16.8279 330.429 16.5144 331.186 16.5144 331.975C16.5144 332.764 16.8279 333.521 17.3858 334.079C17.5416 334.235 17.7128 334.371 17.8959 334.488C17.7128 334.604 17.5416 334.74 17.3858 334.896C16.8279 335.454 16.5144 336.211 16.5144 337C16.5144 337.789 16.8279 338.546 17.3858 339.104C17.5416 339.26 17.7128 339.396 17.8959 339.512C17.7128 339.629 17.5416 339.765 17.3858 339.921C16.8279 340.479 16.5144 341.236 16.5144 342.025C16.5144 342.814 16.8279 343.571 17.3858 344.129C17.9438 344.687 18.7005 345 19.4896 345C20.2787 345 21.0355 344.687 21.5934 344.129C22.1514 343.571 22.4648 342.814 22.4648 342.025V339.157C23.0171 339.682 23.7506 339.975 24.5144 339.975C25.3035 339.975 26.0603 339.662 26.6182 339.104C27.1762 338.546 27.4897 337.789 27.4897 337C27.4897 336.211 27.1762 335.454 26.6182 334.896C26.4625 334.74 26.2912 334.604 26.1081 334.488C26.2912 334.371 26.4625 334.235 26.6182 334.079C27.1762 333.521 27.4897 332.764 27.4897 331.975C27.4897 331.186 27.1762 330.429 26.6182 329.871C26.0603 329.313 25.3035 329 24.5144 329ZM22.4648 337C22.4648 337.544 22.6808 338.065 23.0652 338.449C23.4495 338.834 23.9709 339.05 24.5144 339.05C25.058 339.05 25.5793 338.834 25.9637 338.449C26.3481 338.065 26.564 337.544 26.564 337C26.564 336.456 26.3481 335.935 25.9637 335.551C25.5793 335.166 25.058 334.95 24.5144 334.95C23.9709 334.95 23.4495 335.166 23.0652 335.551C22.6808 335.935 22.4648 336.456 22.4648 337ZM21.5392 339.975H19.4896C18.946 339.975 18.4247 340.191 18.0403 340.576C17.656 340.96 17.44 341.481 17.44 342.025C17.44 342.568 17.656 343.09 18.0403 343.474C18.4247 343.859 18.946 344.074 19.4896 344.074C20.0332 344.074 20.5545 343.859 20.9389 343.474C21.3233 343.09 21.5392 342.568 21.5392 342.025V339.975ZM19.4896 334.025H21.5392V329.926H19.4896C18.946 329.926 18.4247 330.142 18.0403 330.526C17.656 330.91 17.44 331.432 17.44 331.975C17.44 332.519 17.656 333.04 18.0403 333.425C18.4247 333.809 18.946 334.025 19.4896 334.025ZM19.4896 334.95C18.946 334.95 18.4247 335.166 18.0403 335.551C17.656 335.935 17.44 336.456 17.44 337C17.44 337.544 17.656 338.065 18.0403 338.449C18.4247 338.834 18.946 339.05 19.4896 339.05H21.5392V334.95H19.4896ZM24.5144 334.025H22.4648V329.926H24.5144C25.058 329.926 25.5793 330.142 25.9637 330.526C26.3481 330.91 26.564 331.432 26.564 331.975C26.564 332.519 26.3481 333.04 25.9637 333.425C25.5793 333.809 25.058 334.025 24.5144 334.025Z" fill="#333333"/>
<text fill="black" xml:space="preserve" style="white-space: pre" font-family="SF Pro Text" font-size="11" font-weight="bold" letter-spacing="0em"><tspan x="39" y="340.41">RangeSlider </tspan></text>
<text fill="black" xml:space="preserve" style="white-space: pre" font-family="SF Pro Text" font-size="11" letter-spacing="0em"><tspan x="108.964" y="340.41">Edited 2 weeks ago</tspan></text>
<path d="M0 0H948V2H0V0ZM948 360H0H948ZM0 360V1V360ZM948 1V360V1Z" fill="#E1E5E8" mask="url(#path-2-outside-1_5692_95565)"/>
<defs>
<filter id="filter0_dd_5692_95565" x="359.832" y="87.8828" width="226.337" height="185.352" filterUnits="userSpaceOnUse" color-interpolation-filters="sRGB">
<feFlood flood-opacity="0" result="BackgroundImageFix"/>
<feColorMatrix in="SourceAlpha" type="matrix" values="0 0 0 0 0 0 0 0 0 0 0 0 0 0 0 0 0 0 127 0" result="hardAlpha"/>
<feOffset dy="3.05861"/>
<feGaussianBlur stdDeviation="4.58791"/>
<feColorMatrix type="matrix" values="0 0 0 0 0 0 0 0 0 0 0 0 0 0 0 0 0 0 0.1 0"/>
<feBlend mode="normal" in2="BackgroundImageFix" result="effect1_dropShadow_5692_95565"/>
<feColorMatrix in="SourceAlpha" type="matrix" values="0 0 0 0 0 0 0 0 0 0 0 0 0 0 0 0 0 0 127 0" result="hardAlpha"/>
<feOffset dy="0.611722"/>
<feGaussianBlur stdDeviation="0.917582"/>
<feColorMatrix type="matrix" values="0 0 0 0 0 0 0 0 0 0 0 0 0 0 0 0 0 0 0.05 0"/>
<feBlend mode="normal" in2="effect1_dropShadow_5692_95565" result="effect2_dropShadow_5692_95565"/>
<feBlend mode="normal" in="SourceGraphic" in2="effect2_dropShadow_5692_95565" result="shape"/>
</filter>
<filter id="filter1_d_5692_95565" x="529.584" y="184.229" width="14.0697" height="14.0693" filterUnits="userSpaceOnUse" color-interpolation-filters="sRGB">
<feFlood flood-opacity="0" result="BackgroundImageFix"/>
<feColorMatrix in="SourceAlpha" type="matrix" values="0 0 0 0 0 0 0 0 0 0 0 0 0 0 0 0 0 0 127 0" result="hardAlpha"/>
<feOffset dy="0.611722"/>
<feGaussianBlur stdDeviation="0.917582"/>
<feColorMatrix type="matrix" values="0 0 0 0 0 0 0 0 0 0 0 0 0 0 0 0 0 0 0.1 0"/>
<feBlend mode="normal" in2="BackgroundImageFix" result="effect1_dropShadow_5692_95565"/>
<feBlend mode="normal" in="SourceGraphic" in2="effect1_dropShadow_5692_95565" result="shape"/>
</filter>
<filter id="filter2_d_5692_95565" x="380.324" y="184.229" width="14.0697" height="14.0693" filterUnits="userSpaceOnUse" color-interpolation-filters="sRGB">
<feFlood flood-opacity="0" result="BackgroundImageFix"/>
<feColorMatrix in="SourceAlpha" type="matrix" values="0 0 0 0 0 0 0 0 0 0 0 0 0 0 0 0 0 0 127 0" result="hardAlpha"/>
<feOffset dy="0.611722"/>
<feGaussianBlur stdDeviation="0.917582"/>
<feColorMatrix type="matrix" values="0 0 0 0 0 0 0 0 0 0 0 0 0 0 0 0 0 0 0.1 0"/>
<feBlend mode="normal" in2="BackgroundImageFix" result="effect1_dropShadow_5692_95565"/>
<feBlend mode="normal" in="SourceGraphic" in2="effect1_dropShadow_5692_95565" result="shape"/>
</filter>
<linearGradient id="paint0_linear_5692_95565" x1="473" y1="94" x2="473" y2="190.04" gradientUnits="userSpaceOnUse">
<stop stop-color="#E7FBFB"/>
<stop offset="1" stop-color="#F4F8FA"/>
</linearGradient>
<linearGradient id="paint1_linear_5692_95565" x1="-1.31613" y1="0.5444" x2="-1.28771" y2="5.1524" gradientUnits="userSpaceOnUse">
<stop stop-color="#FA8961"/>
<stop offset="1" stop-color="#FFBD58"/>
</linearGradient>
<linearGradient id="paint2_linear_5692_95565" x1="-1.31613" y1="1.22359" x2="-1.17258" y2="11.5789" gradientUnits="userSpaceOnUse">
<stop stop-color="#FA8961"/>
<stop offset="1" stop-color="#FFBD58"/>
</linearGradient>
<linearGradient id="paint3_linear_5692_95565" x1="-1.31613" y1="0.978871" x2="-1.22425" y2="9.26369" gradientUnits="userSpaceOnUse">
<stop stop-color="#FA8961"/>
<stop offset="1" stop-color="#FFBD58"/>
</linearGradient>
<linearGradient id="paint4_linear_5692_95565" x1="-1.31613" y1="1.83538" x2="-0.993208" y2="17.3646" gradientUnits="userSpaceOnUse">
<stop stop-color="#FA8961"/>
<stop offset="1" stop-color="#FFBD58"/>
</linearGradient>
<linearGradient id="paint5_linear_5692_95565" x1="-1.31613" y1="1.22359" x2="-1.17258" y2="11.5789" gradientUnits="userSpaceOnUse">
<stop stop-color="#FA8961"/>
<stop offset="1" stop-color="#FFBD58"/>
</linearGradient>
<linearGradient id="paint6_linear_5692_95565" x1="-1.31613" y1="1.10123" x2="-1.19985" y2="10.4214" gradientUnits="userSpaceOnUse">
<stop stop-color="#FA8961"/>
<stop offset="1" stop-color="#FFBD58"/>
</linearGradient>
<linearGradient id="paint7_linear_5692_95565" x1="-1.31613" y1="2.20246" x2="-0.85121" y2="20.834" gradientUnits="userSpaceOnUse">
<stop stop-color="#FA8961"/>
<stop offset="1" stop-color="#FFBD58"/>
</linearGradient>
<linearGradient id="paint8_linear_5692_95565" x1="-1.31613" y1="2.6919" x2="-0.621832" y2="25.4568" gradientUnits="userSpaceOnUse">
<stop stop-color="#FA8961"/>
<stop offset="1" stop-color="#FFBD58"/>
</linearGradient>
<linearGradient id="paint9_linear_5692_95565" x1="-1.31613" y1="4.64964" x2="0.751481" y2="43.8985" gradientUnits="userSpaceOnUse">
<stop stop-color="#FA8961"/>
<stop offset="1" stop-color="#FFBD58"/>
</linearGradient>
<linearGradient id="paint10_linear_5692_95565" x1="-1.31613" y1="6.11794" x2="2.2563" y2="57.6568" gradientUnits="userSpaceOnUse">
<stop stop-color="#FA8961"/>
<stop offset="1" stop-color="#FFBD58"/>
</linearGradient>
<linearGradient id="paint11_linear_5692_95565" x1="-1.31613" y1="7.34153" x2="3.81737" y2="69.0584" gradientUnits="userSpaceOnUse">
<stop stop-color="#FA8961"/>
<stop offset="1" stop-color="#FFBD58"/>
</linearGradient>
<linearGradient id="paint12_linear_5692_95565" x1="-1.31613" y1="4.1602" x2="0.340018" y2="39.297" gradientUnits="userSpaceOnUse">
<stop stop-color="#FA8961"/>
<stop offset="1" stop-color="#FFBD58"/>
</linearGradient>
<linearGradient id="paint13_linear_5692_95565" x1="-1.31613" y1="2.20246" x2="-0.85121" y2="20.834" gradientUnits="userSpaceOnUse">
<stop stop-color="#FA8961"/>
<stop offset="1" stop-color="#FFBD58"/>
</linearGradient>
<linearGradient id="paint14_linear_5692_95565" x1="-1.31613" y1="2.6919" x2="-0.621832" y2="25.4568" gradientUnits="userSpaceOnUse">
<stop stop-color="#FA8961"/>
<stop offset="1" stop-color="#FFBD58"/>
</linearGradient>
<linearGradient id="paint15_linear_5692_95565" x1="-1.27625" y1="1.46311" x2="-1.06459" y2="13.8443" gradientUnits="userSpaceOnUse">
<stop stop-color="#E2E2E2"/>
<stop offset="1" stop-color="#F0F0F0"/>
</linearGradient>
<linearGradient id="paint16_linear_5692_95565" x1="-1.35601" y1="1.80738" x2="-1.05207" y2="17.1002" gradientUnits="userSpaceOnUse">
<stop stop-color="#E2E2E2"/>
<stop offset="1" stop-color="#F0F0F0"/>
</linearGradient>
<clipPath id="clip0_5692_95565">
<rect width="14" height="14" fill="white" transform="translate(917 14)"/>
</clipPath>
</defs>
</svg>
