<svg width="948" height="360" viewBox="0 0 948 360" fill="none" xmlns="http://www.w3.org/2000/svg">
<mask id="path-2-outside-1_5691_94895" maskUnits="userSpaceOnUse" x="0" y="0" width="948" height="360" fill="black">
<rect fill="white" width="948" height="360"/>
<path d="M0 1H948V355C948 357.761 945.761 360 943 360H4.99998C2.23855 360 0 357.761 0 355V1Z"/>
</mask>
<path d="M0 1H948V355C948 357.761 945.761 360 943 360H4.99998C2.23855 360 0 357.761 0 355V1Z" fill="white"/>
<mask id="path-4-inside-2_5691_94895" fill="white">
<path d="M0 1H948V42H0V1Z"/>
</mask>
<path d="M0 1H948V42H0V1Z" fill="white"/>
<text fill="#1EA7FD" xml:space="preserve" style="white-space: pre" font-family="'Nunito Sans', 'Helvetica Neue', Helvetica, Arial, sans-serif" font-size="14" font-weight="bold" letter-spacing="0em"><tspan x="15" y="25.606">Controls</tspan></text>
<rect y="38" width="85" height="3" fill="#1EA7FD"/>
<text fill="#7A858E" xml:space="preserve" style="white-space: pre" font-family="'Nunito Sans', 'Helvetica Neue', Helvetica, Arial, sans-serif" font-size="14" font-weight="bold" letter-spacing="0em"><tspan x="100" y="25.606">Interactions</tspan></text>
<text fill="#7A858E" xml:space="preserve" style="white-space: pre" font-family="'Nunito Sans', 'Helvetica Neue', Helvetica, Arial, sans-serif" font-size="14" font-weight="bold" letter-spacing="0em"><tspan x="207" y="25.606">Design</tspan></text>
<text fill="#7A858E" xml:space="preserve" style="white-space: pre" font-family="'Nunito Sans', 'Helvetica Neue', Helvetica, Arial, sans-serif" font-size="14" font-weight="bold" letter-spacing="0em"><tspan x="283" y="25.606">Accessibility</tspan></text>
<text fill="#7A858E" xml:space="preserve" style="white-space: pre" font-family="'Nunito Sans', 'Helvetica Neue', Helvetica, Arial, sans-serif" font-size="14" font-weight="bold" letter-spacing="0em"><tspan x="394" y="25.606">Actions</tspan></text>
<path d="M894.5 18.5039C894.5 18.2278 894.724 18.0039 895 18.0039H896C896.276 18.0039 896.5 18.2278 896.5 18.5039C896.5 18.78 896.276 19.0039 896 19.0039H895C894.724 19.0039 894.5 18.78 894.5 18.5039Z" fill="#7A858E"/>
<path d="M895 20.0039C894.724 20.0039 894.5 20.2278 894.5 20.5039C894.5 20.78 894.724 21.0039 895 21.0039H896C896.276 21.0039 896.5 20.78 896.5 20.5039C896.5 20.2278 896.276 20.0039 896 20.0039H895Z" fill="#7A858E"/>
<path d="M894.5 22.5039C894.5 22.2278 894.724 22.0039 895 22.0039H896C896.276 22.0039 896.5 22.2278 896.5 22.5039C896.5 22.78 896.276 23.0039 896 23.0039H895C894.724 23.0039 894.5 22.78 894.5 22.5039Z" fill="#7A858E"/>
<path fill-rule="evenodd" clip-rule="evenodd" d="M886.5 27.0039C886.224 27.0039 886 26.78 886 26.5039V15.5039C886 15.2278 886.224 15.0039 886.5 15.0039H897.5C897.776 15.0039 898 15.2278 898 15.5039V26.5039C898 26.78 897.776 27.0039 897.5 27.0039H886.5ZM887 26.0039V16.0039H893V26.0039H887ZM894 16.0039H897V26.0039H894V16.0039Z" fill="#7A858E"/>
<g clip-path="url(#clip0_5691_94895)">
<path d="M926.854 18.1464C927.049 18.3417 927.049 18.6583 926.854 18.8536L924.707 21L926.854 23.1464C927.049 23.3417 927.049 23.6583 926.854 23.8536C926.658 24.0488 926.342 24.0488 926.146 23.8536L924 21.7071L921.854 23.8536C921.658 24.0488 921.342 24.0488 921.146 23.8536C920.951 23.6583 920.951 23.3417 921.146 23.1464L923.293 21L921.146 18.8536C920.951 18.6583 920.951 18.3417 921.146 18.1464C921.342 17.9512 921.658 17.9512 921.854 18.1464L924 20.2929L926.146 18.1464C926.342 17.9512 926.658 17.9512 926.854 18.1464Z" fill="#7A858E"/>
<path fill-rule="evenodd" clip-rule="evenodd" d="M924 28C927.866 28 931 24.866 931 21C931 17.134 927.866 14 924 14C920.134 14 917 17.134 917 21C917 24.866 920.134 28 924 28ZM924 27C927.314 27 930 24.3137 930 21C930 17.6863 927.314 15 924 15C920.686 15 918 17.6863 918 21C918 24.3137 920.686 27 924 27Z" fill="#7A858E"/>
</g>
<path d="M948 41H0V43H948V41Z" fill="#E1E5E8" mask="url(#path-4-inside-2_5691_94895)"/>
<rect width="948" height="40" transform="translate(0 42)" fill="white"/>
<rect y="81" width="948" height="1" fill="#DDDDDD"/>
<text fill="#666666" xml:space="preserve" style="white-space: pre" font-family="'Nunito Sans', 'Helvetica Neue', Helvetica, Arial, sans-serif" font-size="13" font-weight="bold" letter-spacing="0em"><tspan x="20" y="66.277">Name</tspan></text>
<text fill="#666666" xml:space="preserve" style="white-space: pre" font-family="'Nunito Sans', 'Helvetica Neue', Helvetica, Arial, sans-serif" font-size="13" font-weight="bold" letter-spacing="0em"><tspan x="242" y="66.277">Description</tspan></text>
<text fill="#666666" xml:space="preserve" style="white-space: pre" font-family="'Nunito Sans', 'Helvetica Neue', Helvetica, Arial, sans-serif" font-size="13" font-weight="bold" letter-spacing="0em"><tspan x="484" y="66.277">Default</tspan></text>
<text fill="#666666" xml:space="preserve" style="white-space: pre" font-family="'Nunito Sans', 'Helvetica Neue', Helvetica, Arial, sans-serif" font-size="13" font-weight="bold" letter-spacing="0em"><tspan x="726" y="66.277">Controls</tspan></text>
<g clip-path="url(#clip1_5691_94895)">
<path d="M922.5 56C922.5 55.7239 922.276 55.5 922 55.5H919C918.724 55.5 918.5 55.7239 918.5 56C918.5 56.2761 918.724 56.5 919 56.5H920.535C918.712 57.651 917.5 59.6836 917.5 62C917.5 65.2213 919.843 67.8944 922.917 68.4102C923.19 68.4559 923.447 68.2722 923.493 67.9998C923.539 67.7275 923.355 67.4697 923.083 67.424C920.482 66.9876 918.5 64.7248 918.5 62C918.5 59.8633 919.719 58.0102 921.5 57.0996V59C921.5 59.2761 921.724 59.5 922 59.5C922.276 59.5 922.5 59.2761 922.5 59V56.3531C922.5 56.3454 922.5 56.3376 922.5 56.3298V56Z" fill="#7A858E"/>
<path d="M924.507 56.0003C924.553 55.7279 924.81 55.5442 925.083 55.5899C928.157 56.1057 930.5 58.7788 930.5 62C930.5 64.3165 929.288 66.349 927.466 67.5H929C929.276 67.5 929.5 67.7239 929.5 68C929.5 68.2761 929.276 68.5 929 68.5H926C925.724 68.5 925.5 68.2761 925.5 68V65C925.5 64.7239 925.724 64.5 926 64.5C926.276 64.5 926.5 64.7239 926.5 65V66.9005C928.281 65.9898 929.5 64.1367 929.5 62C929.5 59.2753 927.518 57.0125 924.917 56.5761C924.645 56.5304 924.461 56.2726 924.507 56.0003Z" fill="#7A858E"/>
</g>
<rect width="948" height="40" transform="translate(0 82)" fill="#F6F9FC"/>
<rect y="121" width="948" height="1" fill="#DDDDDD"/>
<text fill="#666666" xml:space="preserve" style="white-space: pre" font-family="'Nunito Sans', 'Helvetica Neue', Helvetica, Arial, sans-serif" font-size="11" font-weight="800" letter-spacing="0.38em"><tspan x="11" y="105.119">PROPS</tspan></text>
<mask id="path-25-inside-3_5691_94895" fill="white">
<path d="M0 122H948V180H0V122Z"/>
</mask>
<path d="M0 122H948V180H0V122Z" fill="white"/>
<text fill="#666666" xml:space="preserve" style="white-space: pre" font-family="'Nunito Sans', 'Helvetica Neue', Helvetica, Arial, sans-serif" font-size="13" font-weight="bold" letter-spacing="0em"><tspan x="20" y="145.277">label</tspan></text>
<rect x="242" y="132" width="56" height="16" rx="2" fill="#F3F3F3"/>
<text fill="#444444" xml:space="preserve" style="white-space: pre" font-family="Menlo" font-size="12" letter-spacing="0em"><tspan x="248" y="144.154">String</tspan></text>
<rect x="242.5" y="132.5" width="55" height="15" rx="1.5" stroke="black" stroke-opacity="0.1"/>
<text fill="#666666" xml:space="preserve" style="white-space: pre" font-family="'Nunito Sans', 'Helvetica Neue', Helvetica, Arial, sans-serif" font-size="13" letter-spacing="0em"><tspan x="484" y="145.277">-</tspan></text>
<rect x="726.5" y="132.5" width="201" height="31" rx="3.5" fill="white"/>
<text fill="#333333" xml:space="preserve" style="white-space: pre" font-family="'Nunito Sans', 'Helvetica Neue', Helvetica, Arial, sans-serif" font-size="12" letter-spacing="0em"><tspan x="738" y="152.948">Average nightly price:</tspan></text>
<rect x="726.5" y="132.5" width="201" height="31" rx="3.5" stroke="#E1E5E8"/>
<path d="M948 179H0V181H948V179Z" fill="#E1E5E8" mask="url(#path-25-inside-3_5691_94895)"/>
<mask id="path-34-inside-4_5691_94895" fill="white">
<path d="M0 180H948V238H0V180Z"/>
</mask>
<path d="M0 180H948V238H0V180Z" fill="white"/>
<text fill="#666666" xml:space="preserve" style="white-space: pre" font-family="'Nunito Sans', 'Helvetica Neue', Helvetica, Arial, sans-serif" font-size="13" font-weight="bold" letter-spacing="0em"><tspan x="20" y="203.277">mininumPrice</tspan></text>
<text fill="#666666" xml:space="preserve" style="white-space: pre" font-family="'Nunito Sans', 'Helvetica Neue', Helvetica, Arial, sans-serif" font-size="13" letter-spacing="0em"><tspan x="242" y="203.277">Minimum price</tspan></text>
<rect x="242" y="210" width="56" height="16" rx="2" fill="#F3F3F3"/>
<text fill="#444444" xml:space="preserve" style="white-space: pre" font-family="Menlo" font-size="12" letter-spacing="0em"><tspan x="248" y="222.154">Number</tspan></text>
<rect x="242.5" y="210.5" width="55" height="15" rx="1.5" stroke="black" stroke-opacity="0.1"/>
<rect x="484" y="190" width="20" height="16" rx="2" fill="#F3F3F3"/>
<text fill="#444444" xml:space="preserve" style="white-space: pre" font-family="Menlo" font-size="12" letter-spacing="0em"><tspan x="490" y="202.154">0</tspan></text>
<rect x="484.5" y="190.5" width="19" height="15" rx="1.5" stroke="black" stroke-opacity="0.1"/>
<rect x="726.5" y="190.5" width="201" height="31" rx="3.5" fill="white"/>
<text fill="#7A858E" xml:space="preserve" style="white-space: pre" font-family="'Nunito Sans', 'Helvetica Neue', Helvetica, Arial, sans-serif" font-size="12" letter-spacing="0em"><tspan x="738" y="210.948">Edit number...</tspan></text>
<rect x="726.5" y="190.5" width="201" height="31" rx="3.5" stroke="#E1E5E8"/>
<path d="M948 237H0V239H948V237Z" fill="#E1E5E8" mask="url(#path-34-inside-4_5691_94895)"/>
<mask id="path-46-inside-5_5691_94895" fill="white">
<path d="M0 238H948V296H0V238Z"/>
</mask>
<path d="M0 238H948V296H0V238Z" fill="white"/>
<text fill="#666666" xml:space="preserve" style="white-space: pre" font-family="'Nunito Sans', 'Helvetica Neue', Helvetica, Arial, sans-serif" font-size="13" font-weight="bold" letter-spacing="0em"><tspan x="20" y="261.277">maximumPrice</tspan></text>
<text fill="#666666" xml:space="preserve" style="white-space: pre" font-family="'Nunito Sans', 'Helvetica Neue', Helvetica, Arial, sans-serif" font-size="13" letter-spacing="0em"><tspan x="242" y="261.277">Maximum price</tspan></text>
<rect x="242" y="268" width="56" height="16" rx="2" fill="#F3F3F3"/>
<text fill="#444444" xml:space="preserve" style="white-space: pre" font-family="Menlo" font-size="12" letter-spacing="0em"><tspan x="248" y="280.154">Number</tspan></text>
<rect x="242.5" y="268.5" width="55" height="15" rx="1.5" stroke="black" stroke-opacity="0.1"/>
<rect x="484" y="248" width="20" height="16" rx="2" fill="#F3F3F3"/>
<text fill="#444444" xml:space="preserve" style="white-space: pre" font-family="Menlo" font-size="12" letter-spacing="0em"><tspan x="490" y="260.154">0</tspan></text>
<rect x="484.5" y="248.5" width="19" height="15" rx="1.5" stroke="black" stroke-opacity="0.1"/>
<rect x="726.5" y="248.5" width="201" height="31" rx="3.5" fill="white"/>
<text fill="#333333" xml:space="preserve" style="white-space: pre" font-family="'Nunito Sans', 'Helvetica Neue', Helvetica, Arial, sans-serif" font-size="12" letter-spacing="0em"><tspan x="738" y="268.948">87</tspan></text>
<rect x="726.5" y="248.5" width="201" height="31" rx="3.5" stroke="#E1E5E8"/>
<path d="M948 295H0V297H948V295Z" fill="#E1E5E8" mask="url(#path-46-inside-5_5691_94895)"/>
<rect width="948" height="58" transform="translate(0 296)" fill="white"/>
<text fill="#666666" xml:space="preserve" style="white-space: pre" font-family="'Nunito Sans', 'Helvetica Neue', Helvetica, Arial, sans-serif" font-size="13" font-weight="bold" letter-spacing="0em"><tspan x="20" y="319.277">availableStays</tspan></text>
<text fill="#666666" xml:space="preserve" style="white-space: pre" font-family="'Nunito Sans', 'Helvetica Neue', Helvetica, Arial, sans-serif" font-size="13" letter-spacing="0em"><tspan x="242" y="319.277">TBD</tspan></text>
<rect x="242" y="326" width="69" height="18" rx="3" fill="#F8F8F8"/>
<text fill="#1EA7FD" xml:space="preserve" style="white-space: pre" font-family="Monaco" font-size="12" letter-spacing="0px"><tspan x="247" y="339.5">object</tspan></text>
<path fill-rule="evenodd" clip-rule="evenodd" d="M300.693 338.195L296.96 334.139C296.791 333.955 296.791 333.656 296.96 333.472C297.13 333.288 297.404 333.288 297.574 333.472L301 337.195L304.426 333.472C304.595 333.287 304.87 333.287 305.04 333.472C305.209 333.656 305.209 333.954 305.039 334.138L301.306 338.195C301.222 338.287 301.111 338.333 301 338.333C300.889 338.333 300.778 338.287 300.693 338.195Z" fill="#666666"/>
<mask id="mask0_5691_94895" style="mask-type:alpha" maskUnits="userSpaceOnUse" x="296" y="333" width="10" height="6">
<path fill-rule="evenodd" clip-rule="evenodd" d="M300.693 338.195L296.96 334.139C296.791 333.955 296.791 333.656 296.96 333.472C297.13 333.288 297.404 333.288 297.574 333.472L301 337.195L304.426 333.472C304.595 333.287 304.87 333.287 305.04 333.472C305.209 333.656 305.209 333.954 305.039 334.138L301.306 338.195C301.222 338.287 301.111 338.333 301 338.333C300.889 338.333 300.778 338.287 300.693 338.195Z" fill="white"/>
</mask>
<g mask="url(#mask0_5691_94895)">
<rect x="296" y="330" width="10" height="10" fill="#1EA7FD"/>
</g>
<text fill="#666666" xml:space="preserve" style="white-space: pre" font-family="'Nunito Sans', 'Helvetica Neue', Helvetica, Arial, sans-serif" font-size="13" letter-spacing="0em"><tspan x="484" y="319.277">-</tspan></text>
<rect x="726.5" y="306.5" width="79" height="31" rx="3.5" fill="#F0F9FF"/>
<text fill="#304756" xml:space="preserve" style="white-space: pre" font-family="'Nunito Sans', 'Helvetica Neue', Helvetica, Arial, sans-serif" font-size="12" font-weight="bold" letter-spacing="0em"><tspan x="738" y="325.948">Set object</tspan></text>
<rect x="726.5" y="306.5" width="79" height="31" rx="3.5" stroke="#CBE1EE"/>
<path d="M0 0H948V2H0V0ZM948 360H0H948ZM0 360V1V360ZM948 1V360V1Z" fill="#E1E5E8" mask="url(#path-2-outside-1_5691_94895)"/>
<defs>
<clipPath id="clip0_5691_94895">
<rect width="14" height="14" fill="white" transform="translate(917 14)"/>
</clipPath>
<clipPath id="clip1_5691_94895">
<rect width="14" height="14" fill="white" transform="translate(917 55)"/>
</clipPath>
</defs>
</svg>
