<svg xmlns="http://www.w3.org/2000/svg" width="68" height="74" fill="none" viewBox="0 0 68 74"><g filter="url(#filter0_d_1805_68754)"><path fill="#fff" d="M59.0226 39.9336C58.779 45.4385 57.9352 51.3603 54.3886 55.8703C50.6172 60.6662 44.6031 62.9282 36.2716 62.9282C29.5262 62.9282 24.642 59.2007 21.6735 55.9714C20.1636 54.3288 19.0396 52.7026 18.292 51.4902C17.9156 50.8798 17.6276 50.363 17.4278 49.986C17.3277 49.7973 17.2492 49.6427 17.1924 49.528L17.1658 49.4735L9.99136 38.6912C9.05782 37.2904 8.68286 35.5794 8.91978 33.9506C9.15578 32.3281 10.0575 30.5548 11.8762 29.4852C12.7122 28.9574 13.955 28.4943 15.5455 28.6909C17.0747 28.8799 18.4641 29.6275 19.7285 30.6034C20.3165 31.0546 20.8945 31.5407 21.443 32.0211V11.5005C21.4428 10.6354 21.6172 9.77821 21.9557 8.98206C22.2948 8.18487 22.7914 7.46442 23.4159 6.86398C24.0403 6.26354 24.7797 5.79551 25.5896 5.488C26.3974 5.18126 27.2587 5.04055 28.1221 5.07422C32.1112 5.22552 34.2573 8.74001 34.2573 11.7139V17.4357C34.9913 17.2105 35.7606 17.1183 36.5287 17.1645L36.5645 17.1666L36.6003 17.1694C38.7945 17.3382 40.5209 18.5626 41.5415 20.2115C41.7471 20.1068 41.9587 20.0131 42.1753 19.9309C42.9841 19.6237 43.8466 19.4831 44.711 19.5172C47.5362 19.6272 49.4944 21.4795 50.3531 23.6508C50.4136 23.6268 50.4745 23.6036 50.5357 23.5814C51.3608 23.282 52.2383 23.1547 53.1144 23.2073L53.1502 23.2095L53.186 23.2122C56.8556 23.4945 59.1573 26.6988 59.1573 29.8853C59.1573 30.5521 59.1614 31.2392 59.1656 31.9412L59.1656 31.9429C59.1808 34.4953 59.1972 37.2449 59.0226 39.9336Z"/><path fill="#333" fill-rule="evenodd" d="M54.8681 29.7468C54.8661 29.707 54.8632 29.6674 54.8594 29.6282L54.8587 29.6205C54.7451 28.4608 53.8939 27.5651 52.8573 27.4853C52.5653 27.4678 52.2727 27.5102 51.9977 27.61C51.7227 27.7098 51.4711 27.8649 51.2582 28.0656C51.0916 28.2229 50.9515 28.4056 50.843 28.6065C50.813 28.6621 50.7854 28.7191 50.7604 28.7773C50.6447 29.0461 50.5853 29.3356 50.5859 29.6282V35.6711C50.5859 36.7425 49.643 37.6853 48.5716 37.6853C48.0408 37.6744 47.5348 37.4587 47.1594 37.0833C46.784 36.7078 46.5682 36.2018 46.5573 35.6711V26.1568C46.5573 26.0847 46.5543 26.0132 46.5484 25.9425C46.4508 24.7946 45.5917 23.84 44.543 23.7996C44.2545 23.7881 43.9666 23.835 43.6966 23.9375C43.4267 24.04 43.1802 24.196 42.9721 24.3961C42.8118 24.5502 42.6768 24.728 42.5716 24.923C42.5401 24.9812 42.5113 25.041 42.4853 25.1022C42.3723 25.3679 42.3142 25.6537 42.3144 25.9425V33.0139C42.3144 33.1482 42.2996 33.2806 42.2716 33.4092C42.076 34.3069 41.2372 35.0282 40.3001 35.0282C39.7694 35.0172 39.2634 34.8015 38.8879 34.4261C38.5125 34.0507 38.2968 33.5447 38.2859 33.0139V23.7996C38.2859 23.7614 38.285 23.7234 38.2833 23.6856C38.2818 23.652 38.2797 23.6186 38.2769 23.5853L38.2762 23.5776C38.1767 22.4363 37.3188 21.523 36.2716 21.4425C35.9795 21.4249 35.687 21.4674 35.412 21.5672C35.137 21.667 34.8853 21.822 34.6725 22.0228C34.5058 22.18 34.3658 22.3627 34.2573 22.5637C34.2273 22.6193 34.1997 22.6762 34.1746 22.7345C34.059 23.0032 33.9996 23.2928 34.0001 23.5853V33.0139C34.0001 34.0853 33.0573 35.0282 31.9859 35.0282C31.4584 35.0071 30.9582 34.7881 30.585 34.4148C30.2946 34.1244 30.0976 33.7572 30.0144 33.3601C29.9907 33.2468 29.9763 33.131 29.9716 33.0139V11.7139C29.9716 11.6418 29.9687 11.5704 29.963 11.4996C29.8698 10.3518 29.0463 9.3971 27.9573 9.35677C27.6688 9.34521 27.3809 9.3921 27.1109 9.49461C26.841 9.59711 26.5945 9.75312 26.3863 9.95327C26.1782 10.1534 26.0126 10.3936 25.8996 10.6593C25.7866 10.925 25.7285 11.2109 25.7287 11.4996V40.5568C25.7287 41.6282 24.7859 42.5711 23.7144 42.5711C23.3365 42.5633 22.9711 42.4516 22.6564 42.2524C22.5292 42.1719 22.4103 42.077 22.3022 41.969C21.9987 41.6654 21.7995 41.2764 21.7286 40.858C21.7118 40.759 21.7022 40.6583 21.7001 40.5568C21.7001 40.4133 21.7025 40.2699 21.7049 40.127C21.7087 39.9034 21.7124 39.6813 21.7068 39.463C21.6948 38.9874 21.6387 38.5297 21.443 38.1139C21.2835 37.7548 21.0498 37.4335 20.7573 37.1711C20.4573 36.9032 20.16 36.6327 19.8627 36.3621C19.0029 35.5798 18.1431 34.7975 17.2186 34.08L17.2034 34.0682C17.1738 34.0453 17.1442 34.0224 17.1144 33.9996C17.1022 33.9901 17.09 33.9808 17.0778 33.9714C15.2204 32.5503 14.4123 32.9297 14.1144 33.1425C13.0001 33.7425 12.8716 35.2853 13.5573 36.3139L20.9716 47.4568V47.4996H20.9072L20.7573 47.5993C20.8274 47.5667 20.8988 47.5335 20.9716 47.4996C20.9716 47.4996 26.1573 58.6425 36.2716 58.6425C51.443 58.6425 54.2716 50.4996 54.743 39.6996C54.9098 37.1651 54.8948 34.6047 54.88 32.0587C54.8758 31.3327 54.8716 30.608 54.8716 29.8853C54.8716 29.8388 54.8704 29.7926 54.8681 29.7468ZM59.0226 39.9336C58.779 45.4385 57.9352 51.3603 54.3886 55.8703C50.6172 60.6662 44.6031 62.9282 36.2716 62.9282C29.5262 62.9282 24.642 59.2007 21.6735 55.9714C20.1636 54.3288 19.0396 52.7026 18.292 51.4902C17.9156 50.8798 17.6276 50.363 17.4278 49.986C17.3277 49.7973 17.2492 49.6427 17.1924 49.528L17.1658 49.4735L9.99136 38.6912C9.05782 37.2904 8.68286 35.5794 8.91978 33.9506C9.15578 32.3281 10.0575 30.5548 11.8762 29.4852C12.7122 28.9574 13.955 28.4943 15.5455 28.6909C17.0747 28.8799 18.4641 29.6275 19.7285 30.6034C20.3165 31.0546 20.8945 31.5407 21.443 32.0211V11.5005C21.4428 10.6354 21.6172 9.77821 21.9557 8.98207C22.2948 8.18487 22.7914 7.46442 23.4159 6.86398C24.0403 6.26355 24.7797 5.79551 25.5896 5.488C26.3974 5.18127 27.2587 5.04055 28.1221 5.07422C32.1112 5.22552 34.2573 8.74001 34.2573 11.7139V17.4357C34.9913 17.2105 35.7606 17.1183 36.5287 17.1645L36.5645 17.1666L36.6003 17.1694C38.7945 17.3382 40.5209 18.5626 41.5415 20.2115C41.7472 20.1068 41.9587 20.0131 42.1753 19.9309C42.9841 19.6237 43.8466 19.4831 44.711 19.5172C47.5362 19.6272 49.4944 21.4795 50.3531 23.6508C50.4136 23.6268 50.4745 23.6036 50.5357 23.5814C51.3608 23.282 52.2383 23.1547 53.1144 23.2073L53.1502 23.2095L53.186 23.2122C56.8556 23.4945 59.1573 26.6988 59.1573 29.8853C59.1573 30.5526 59.1614 31.2403 59.1656 31.9429C59.1808 34.4953 59.1972 37.2449 59.0226 39.9336Z" clip-rule="evenodd"/></g><defs><filter id="filter0_d_1805_68754" width="76" height="76" x="-4" y="-1" color-interpolation-filters="sRGB" filterUnits="userSpaceOnUse"><feFlood flood-opacity="0" result="BackgroundImageFix"/><feColorMatrix in="SourceAlpha" result="hardAlpha" type="matrix" values="0 0 0 0 0 0 0 0 0 0 0 0 0 0 0 0 0 0 127 0"/><feOffset dy="3"/><feGaussianBlur stdDeviation="4"/><feComposite in2="hardAlpha" operator="out"/><feColorMatrix type="matrix" values="0 0 0 0 0 0 0 0 0 0 0 0 0 0 0 0 0 0 0.1 0"/><feBlend in2="BackgroundImageFix" mode="normal" result="effect1_dropShadow_1805_68754"/><feBlend in="SourceGraphic" in2="effect1_dropShadow_1805_68754" mode="normal" result="shape"/></filter></defs></svg>