<svg width="370" height="303" viewBox="0 0 370 303" fill="none" xmlns="http://www.w3.org/2000/svg">
<rect width="370" height="303" fill="#EEEEEE"/>
<g id="RangeSlider">
<g id="Rectangle 160" filter="url(#filter0_dd_3666_63519)">
<rect x="15" y="10" width="340" height="273" rx="10" fill="white"/>
</g>
<g id="Group 74">
<path id="Requests" d="M46.027 222V212.835H47.418L50.668 218.828L53.905 212.835H55.27V222H53.762V215.825L51.136 220.609H50.161L47.535 215.851V222H46.027ZM57.0271 214.278V212.692H58.8471V214.278H57.0271ZM57.1311 222V215.643H58.7561V222H57.1311ZM60.4446 222V215.643H62.0306V216.631C62.2473 216.267 62.5376 215.99 62.9016 215.799C63.2743 215.608 63.6903 215.513 64.1496 215.513C65.6489 215.513 66.3986 216.384 66.3986 218.126V222H64.7736V218.204C64.7736 217.71 64.6783 217.35 64.4876 217.125C64.3056 216.9 64.0196 216.787 63.6296 216.787C63.1529 216.787 62.7716 216.939 62.4856 217.242C62.2083 217.537 62.0696 217.931 62.0696 218.425V222H60.4446ZM67.9451 214.278V212.692H69.7651V214.278H67.9451ZM68.0491 222V215.643H69.6741V222H68.0491ZM71.3886 222V215.643H72.9746V216.618C73.1652 216.271 73.4296 216.003 73.7676 215.812C74.1056 215.613 74.4956 215.513 74.9376 215.513C75.8909 215.513 76.5149 215.929 76.8096 216.761C77.0089 216.371 77.2949 216.068 77.6676 215.851C78.0402 215.626 78.4649 215.513 78.9416 215.513C80.3716 215.513 81.0866 216.384 81.0866 218.126V222H79.4616V218.191C79.4616 217.706 79.3792 217.35 79.2146 217.125C79.0586 216.9 78.7899 216.787 78.4086 216.787C77.9839 216.787 77.6502 216.939 77.4076 217.242C77.1649 217.537 77.0436 217.948 77.0436 218.477V222H75.4186V218.191C75.4186 217.706 75.3362 217.35 75.1716 217.125C75.0156 216.9 74.7512 216.787 74.3786 216.787C73.9539 216.787 73.6202 216.939 73.3776 217.242C73.1349 217.537 73.0136 217.948 73.0136 218.477V222H71.3886ZM85.064 222.13C83.504 222.13 82.724 221.255 82.724 219.504V215.643H84.349V219.53C84.349 219.981 84.44 220.314 84.622 220.531C84.804 220.748 85.0943 220.856 85.493 220.856C85.9263 220.856 86.2816 220.709 86.559 220.414C86.8363 220.111 86.975 219.712 86.975 219.218V215.643H88.6V222H87.014V221.051C86.5893 221.77 85.9393 222.13 85.064 222.13ZM90.3173 222V215.643H91.9033V216.618C92.094 216.271 92.3583 216.003 92.6963 215.812C93.0343 215.613 93.4243 215.513 93.8663 215.513C94.8196 215.513 95.4436 215.929 95.7383 216.761C95.9376 216.371 96.2236 216.068 96.5963 215.851C96.969 215.626 97.3936 215.513 97.8703 215.513C99.3003 215.513 100.015 216.384 100.015 218.126V222H98.3903V218.191C98.3903 217.706 98.308 217.35 98.1433 217.125C97.9873 216.9 97.7186 216.787 97.3373 216.787C96.9126 216.787 96.579 216.939 96.3363 217.242C96.0936 217.537 95.9723 217.948 95.9723 218.477V222H94.3473V218.191C94.3473 217.706 94.265 217.35 94.1003 217.125C93.9443 216.9 93.68 216.787 93.3073 216.787C92.8826 216.787 92.549 216.939 92.3063 217.242C92.0636 217.537 91.9423 217.948 91.9423 218.477V222H90.3173Z" fill="#333333"/>
<path id="Requests_2" d="M206.027 222V212.835H207.418L210.668 218.828L213.905 212.835H215.27V222H213.762V215.825L211.136 220.609H210.161L207.535 215.851V222H206.027ZM219.224 222.13C218.765 222.13 218.353 222.043 217.989 221.87C217.634 221.688 217.352 221.445 217.144 221.142C216.945 220.839 216.845 220.496 216.845 220.115C216.845 219.647 216.966 219.279 217.209 219.01C217.452 218.733 217.846 218.533 218.392 218.412C218.938 218.291 219.67 218.23 220.589 218.23H221.044V217.957C221.044 217.524 220.949 217.212 220.758 217.021C220.567 216.83 220.247 216.735 219.796 216.735C219.441 216.735 219.077 216.791 218.704 216.904C218.331 217.008 217.954 217.173 217.573 217.398L217.105 216.293C217.33 216.137 217.595 216.003 217.898 215.89C218.21 215.769 218.535 215.678 218.873 215.617C219.22 215.548 219.545 215.513 219.848 215.513C220.775 215.513 221.464 215.73 221.915 216.163C222.366 216.588 222.591 217.251 222.591 218.152V222H221.07V220.986C220.923 221.341 220.689 221.623 220.368 221.831C220.047 222.03 219.666 222.13 219.224 222.13ZM219.562 221.012C219.987 221.012 220.338 220.865 220.615 220.57C220.901 220.275 221.044 219.903 221.044 219.452V219.166H220.602C219.787 219.166 219.22 219.231 218.899 219.361C218.587 219.482 218.431 219.708 218.431 220.037C218.431 220.323 218.531 220.557 218.73 220.739C218.929 220.921 219.207 221.012 219.562 221.012ZM223.357 222L226.022 218.711L223.526 215.643H225.424L226.958 217.606L228.492 215.643H230.39L227.881 218.724L230.559 222H228.648L226.945 219.855L225.255 222H223.357ZM231.233 214.278V212.692H233.053V214.278H231.233ZM231.337 222V215.643H232.962V222H231.337ZM234.677 222V215.643H236.263V216.618C236.453 216.271 236.718 216.003 237.056 215.812C237.394 215.613 237.784 215.513 238.226 215.513C239.179 215.513 239.803 215.929 240.098 216.761C240.297 216.371 240.583 216.068 240.956 215.851C241.328 215.626 241.753 215.513 242.23 215.513C243.66 215.513 244.375 216.384 244.375 218.126V222H242.75V218.191C242.75 217.706 242.667 217.35 242.503 217.125C242.347 216.9 242.078 216.787 241.697 216.787C241.272 216.787 240.938 216.939 240.696 217.242C240.453 217.537 240.332 217.948 240.332 218.477V222H238.707V218.191C238.707 217.706 238.624 217.35 238.46 217.125C238.304 216.9 238.039 216.787 237.667 216.787C237.242 216.787 236.908 216.939 236.666 217.242C236.423 217.537 236.302 217.948 236.302 218.477V222H234.677ZM248.352 222.13C246.792 222.13 246.012 221.255 246.012 219.504V215.643H247.637V219.53C247.637 219.981 247.728 220.314 247.91 220.531C248.092 220.748 248.382 220.856 248.781 220.856C249.214 220.856 249.57 220.709 249.847 220.414C250.124 220.111 250.263 219.712 250.263 219.218V215.643H251.888V222H250.302V221.051C249.877 221.77 249.227 222.13 248.352 222.13ZM253.605 222V215.643H255.191V216.618C255.382 216.271 255.646 216.003 255.984 215.812C256.322 215.613 256.712 215.513 257.154 215.513C258.108 215.513 258.732 215.929 259.026 216.761C259.226 216.371 259.512 216.068 259.884 215.851C260.257 215.626 260.682 215.513 261.158 215.513C262.588 215.513 263.303 216.384 263.303 218.126V222H261.678V218.191C261.678 217.706 261.596 217.35 261.431 217.125C261.275 216.9 261.007 216.787 260.625 216.787C260.201 216.787 259.867 216.939 259.624 217.242C259.382 217.537 259.26 217.948 259.26 218.477V222H257.635V218.191C257.635 217.706 257.553 217.35 257.388 217.125C257.232 216.9 256.968 216.787 256.595 216.787C256.171 216.787 255.837 216.939 255.594 217.242C255.352 217.537 255.23 217.948 255.23 218.477V222H253.605Z" fill="#333333"/>
<g id="Input / Text">
<g id="_Input / Text">
<rect x="205" y="231" width="120" height="32" rx="4" fill="white"/>
<path id="Text" d="M216.612 251V250.09H218.705V243.122L217.054 244.162L216.599 243.369L219.004 241.835H219.771V250.09H221.734V251H216.612ZM226.695 251.117C225.646 251.117 224.849 250.714 224.303 249.908C223.757 249.102 223.484 247.936 223.484 246.411C223.484 244.877 223.757 243.711 224.303 242.914C224.849 242.117 225.646 241.718 226.695 241.718C227.752 241.718 228.55 242.117 229.087 242.914C229.633 243.703 229.906 244.864 229.906 246.398C229.906 247.932 229.629 249.102 229.074 249.908C228.528 250.714 227.735 251.117 226.695 251.117ZM226.695 250.194C227.423 250.194 227.96 249.886 228.307 249.271C228.662 248.656 228.84 247.698 228.84 246.398C228.84 245.098 228.667 244.149 228.32 243.551C227.973 242.944 227.432 242.641 226.695 242.641C225.967 242.641 225.425 242.944 225.07 243.551C224.723 244.158 224.55 245.107 224.55 246.398C224.55 247.698 224.723 248.656 225.07 249.271C225.425 249.886 225.967 250.194 226.695 250.194ZM234.49 251.117C233.441 251.117 232.644 250.714 232.098 249.908C231.552 249.102 231.279 247.936 231.279 246.411C231.279 244.877 231.552 243.711 232.098 242.914C232.644 242.117 233.441 241.718 234.49 241.718C235.547 241.718 236.345 242.117 236.882 242.914C237.428 243.703 237.701 244.864 237.701 246.398C237.701 247.932 237.424 249.102 236.869 249.908C236.323 250.714 235.53 251.117 234.49 251.117ZM234.49 250.194C235.218 250.194 235.755 249.886 236.102 249.271C236.457 248.656 236.635 247.698 236.635 246.398C236.635 245.098 236.462 244.149 236.115 243.551C235.768 242.944 235.227 242.641 234.49 242.641C233.762 242.641 233.22 242.944 232.865 243.551C232.518 244.158 232.345 245.107 232.345 246.398C232.345 247.698 232.518 248.656 232.865 249.271C233.22 249.886 233.762 250.194 234.49 250.194Z" fill="#999999"/>
<rect x="205.5" y="231.5" width="119" height="31" rx="3.5" stroke="black" stroke-opacity="0.1"/>
</g>
</g>
<rect id="Rectangle 163" x="181" y="246" width="8" height="1" fill="black" fill-opacity="0.1"/>
<g id="Input / Text_2">
<g id="_Input / Text_2">
<rect x="45" y="231" width="120" height="32" rx="4" fill="white"/>
<path id="Text_2" d="M58.9 251.117C57.8513 251.117 57.054 250.714 56.508 249.908C55.962 249.102 55.689 247.936 55.689 246.411C55.689 244.877 55.962 243.711 56.508 242.914C57.054 242.117 57.8513 241.718 58.9 241.718C59.9573 241.718 60.7547 242.117 61.292 242.914C61.838 243.703 62.111 244.864 62.111 246.398C62.111 247.932 61.8337 249.102 61.279 249.908C60.733 250.714 59.94 251.117 58.9 251.117ZM58.9 250.194C59.628 250.194 60.1653 249.886 60.512 249.271C60.8673 248.656 61.045 247.698 61.045 246.398C61.045 245.098 60.8717 244.149 60.525 243.551C60.1783 242.944 59.6367 242.641 58.9 242.641C58.172 242.641 57.6303 242.944 57.275 243.551C56.9283 244.158 56.755 245.107 56.755 246.398C56.755 247.698 56.9283 248.656 57.275 249.271C57.6303 249.886 58.172 250.194 58.9 250.194Z" fill="#999999"/>
<rect x="45.5" y="231.5" width="119" height="31" rx="3.5" stroke="black" stroke-opacity="0.1"/>
</g>
</g>
</g>
<path id="Rectangle 161" d="M15 20C15 14.4771 19.4772 10 25 10H345C350.523 10 355 14.4772 355 20V167H15V20Z" fill="url(#paint0_linear_3666_63519)"/>
<g id="Frame 141">
<rect id="Rectangle 34 Copy 21" width="16.5" height="6.32541" transform="matrix(-1 0 0 1 61.5 160.686)" fill="url(#paint1_linear_3666_63519)"/>
<rect id="Rectangle 34 Copy 20" width="16.5" height="14.2169" transform="matrix(-1 0 0 1 79 152.794)" fill="url(#paint2_linear_3666_63519)"/>
<rect id="Rectangle 34 Copy 15" width="16.5" height="11.3736" transform="matrix(-1 0 0 1 96.5 155.638)" fill="url(#paint3_linear_3666_63519)"/>
<rect id="Rectangle 34 Copy 13" width="16.5" height="21.3254" transform="matrix(-1 0 0 1 114 145.686)" fill="url(#paint4_linear_3666_63519)"/>
<rect id="Rectangle 34 Copy 12" width="16.5" height="14.2169" transform="matrix(-1 0 0 1 131.5 152.794)" fill="url(#paint5_linear_3666_63519)"/>
<rect id="Rectangle 34 Copy 11" width="16.5" height="12.7952" transform="matrix(-1 0 0 1 149 154.216)" fill="url(#paint6_linear_3666_63519)"/>
<rect id="Rectangle 34 Copy 10" width="16.5" height="25.5905" transform="matrix(-1 0 0 1 166.5 141.421)" fill="url(#paint7_linear_3666_63519)"/>
<rect id="Rectangle 34 Copy 8" width="16.5" height="31.2773" transform="matrix(-1 0 0 1 184 135.734)" fill="url(#paint8_linear_3666_63519)"/>
<rect id="Rectangle 34 Copy 6" width="16.5" height="54.0244" transform="matrix(-1 0 0 1 201.5 112.987)" fill="url(#paint9_linear_3666_63519)"/>
<rect id="Rectangle 34 Copy 5" width="16.5" height="71.0847" transform="matrix(-1 0 0 1 219 95.9264)" fill="url(#paint10_linear_3666_63519)"/>
<rect id="Rectangle 34 Copy 4" width="16.5" height="85.3016" transform="matrix(-1 0 0 1 236.5 81.7095)" fill="url(#paint11_linear_3666_63519)"/>
<rect id="Rectangle 34 Copy 2" width="16.5" height="48.3376" transform="matrix(-1 0 0 1 254 118.674)" fill="url(#paint12_linear_3666_63519)"/>
<rect id="Rectangle 34" width="16.5" height="25.5905" transform="matrix(-1 0 0 1 271.5 141.421)" fill="url(#paint13_linear_3666_63519)"/>
<rect id="Rectangle 34 Copy 30" width="16.5" height="31.2773" transform="matrix(-1 0 0 1 289 135.734)" fill="url(#paint14_linear_3666_63519)"/>
<rect id="Rectangle 34 Copy 31" width="16" height="17" transform="matrix(-1 0 0 1 306 150.011)" fill="url(#paint15_linear_3666_63519)"/>
<rect id="Rectangle 34 Copy 32" width="17" height="21" transform="matrix(-1 0 0 1 324 146.011)" fill="url(#paint16_linear_3666_63519)"/>
</g>
<path id="xticks" fill-rule="evenodd" clip-rule="evenodd" d="M45 173H44V177H45V173ZM269 173H268V177H269V173ZM156 173H157V177H156V173ZM325 173H324V177H325V173ZM100 173H101V177H100V173ZM213 173H212V177H213V173Z" fill="black" fill-opacity="0.1"/>
<g id="xaxis">
<path id="30ms" d="M94.9039 190V189.38L97.3139 186.78C97.6539 186.407 97.8972 186.067 98.0439 185.76C98.1972 185.453 98.2739 185.14 98.2739 184.82C98.2739 184 97.7972 183.59 96.8439 183.59C96.1306 183.59 95.5006 183.857 94.9539 184.39L94.6439 183.75C94.9039 183.483 95.2339 183.27 95.6339 183.11C96.0406 182.943 96.4672 182.86 96.9139 182.86C97.6206 182.86 98.1606 183.027 98.5339 183.36C98.9139 183.687 99.1039 184.153 99.1039 184.76C99.1039 185.18 99.0006 185.593 98.7939 186C98.5872 186.4 98.2706 186.827 97.8439 187.28L95.9539 189.3H99.3939V190H94.9039ZM103 190.09C102.193 190.09 101.58 189.78 101.16 189.16C100.74 188.54 100.53 187.643 100.53 186.47C100.53 185.29 100.74 184.393 101.16 183.78C101.58 183.167 102.193 182.86 103 182.86C103.813 182.86 104.427 183.167 104.84 183.78C105.26 184.387 105.47 185.28 105.47 186.46C105.47 187.64 105.257 188.54 104.83 189.16C104.41 189.78 103.8 190.09 103 190.09ZM103 189.38C103.56 189.38 103.973 189.143 104.24 188.67C104.513 188.197 104.65 187.46 104.65 186.46C104.65 185.46 104.517 184.73 104.25 184.27C103.983 183.803 103.567 183.57 103 183.57C102.44 183.57 102.023 183.803 101.75 184.27C101.483 184.737 101.35 185.467 101.35 186.46C101.35 187.46 101.483 188.197 101.75 188.67C102.023 189.143 102.44 189.38 103 189.38Z" fill="#999999"/>
<path id="40ms" d="M153.774 190V188.49H150.524V187.87L153.914 182.95H154.604V187.79H155.654V188.49H154.604V190H153.774ZM153.774 187.79V184.3L151.374 187.79H153.774ZM159 190.09C158.193 190.09 157.58 189.78 157.16 189.16C156.74 188.54 156.53 187.643 156.53 186.47C156.53 185.29 156.74 184.393 157.16 183.78C157.58 183.167 158.193 182.86 159 182.86C159.813 182.86 160.427 183.167 160.84 183.78C161.26 184.387 161.47 185.28 161.47 186.46C161.47 187.64 161.257 188.54 160.83 189.16C160.41 189.78 159.8 190.09 159 190.09ZM159 189.38C159.56 189.38 159.973 189.143 160.24 188.67C160.513 188.197 160.65 187.46 160.65 186.46C160.65 185.46 160.517 184.73 160.25 184.27C159.983 183.803 159.567 183.57 159 183.57C158.44 183.57 158.023 183.803 157.75 184.27C157.483 184.737 157.35 185.467 157.35 186.46C157.35 187.46 157.483 188.197 157.75 188.67C158.023 189.143 158.44 189.38 159 189.38Z" fill="#999999"/>
<path id="50ms" d="M210.244 190.09C209.411 190.09 208.767 189.79 208.314 189.19C207.867 188.583 207.644 187.737 207.644 186.65C207.644 185.43 207.894 184.493 208.394 183.84C208.894 183.187 209.594 182.86 210.494 182.86C210.854 182.86 211.214 182.937 211.574 183.09C211.941 183.243 212.241 183.45 212.474 183.71L212.174 184.35C211.927 184.097 211.657 183.907 211.364 183.78C211.077 183.653 210.781 183.59 210.474 183.59C209.821 183.59 209.317 183.833 208.964 184.32C208.617 184.807 208.444 185.53 208.444 186.49V186.98C208.571 186.54 208.804 186.197 209.144 185.95C209.491 185.703 209.897 185.58 210.364 185.58C210.777 185.58 211.144 185.677 211.464 185.87C211.784 186.057 212.034 186.317 212.214 186.65C212.394 186.983 212.484 187.367 212.484 187.8C212.484 188.247 212.387 188.643 212.194 188.99C212.007 189.33 211.744 189.6 211.404 189.8C211.071 189.993 210.684 190.09 210.244 190.09ZM210.194 189.39C210.641 189.39 211.001 189.247 211.274 188.96C211.554 188.673 211.694 188.297 211.694 187.83C211.694 187.37 211.554 186.997 211.274 186.71C211.001 186.417 210.641 186.27 210.194 186.27C209.747 186.27 209.384 186.417 209.104 186.71C208.831 186.997 208.694 187.37 208.694 187.83C208.694 188.297 208.831 188.673 209.104 188.96C209.384 189.247 209.747 189.39 210.194 189.39ZM216 190.09C215.193 190.09 214.58 189.78 214.16 189.16C213.74 188.54 213.53 187.643 213.53 186.47C213.53 185.29 213.74 184.393 214.16 183.78C214.58 183.167 215.193 182.86 216 182.86C216.813 182.86 217.427 183.167 217.84 183.78C218.26 184.387 218.47 185.28 218.47 186.46C218.47 187.64 218.257 188.54 217.83 189.16C217.41 189.78 216.8 190.09 216 190.09ZM216 189.38C216.56 189.38 216.973 189.143 217.24 188.67C217.513 188.197 217.65 187.46 217.65 186.46C217.65 185.46 217.517 184.73 217.25 184.27C216.983 183.803 216.567 183.57 216 183.57C215.44 183.57 215.023 183.803 214.75 184.27C214.483 184.737 214.35 185.467 214.35 186.46C214.35 187.46 214.483 188.197 214.75 188.67C215.023 189.143 215.44 189.38 216 189.38Z" fill="#999999"/>
<path id="60ms" d="M266.004 190.09C265.211 190.09 264.594 189.92 264.154 189.58C263.714 189.233 263.494 188.75 263.494 188.13C263.494 187.697 263.611 187.327 263.844 187.02C264.084 186.713 264.401 186.503 264.794 186.39C264.441 186.257 264.164 186.043 263.964 185.75C263.764 185.457 263.664 185.12 263.664 184.74C263.664 184.147 263.874 183.687 264.294 183.36C264.721 183.027 265.291 182.86 266.004 182.86C266.717 182.86 267.287 183.027 267.714 183.36C268.141 183.687 268.354 184.147 268.354 184.74C268.354 185.12 268.251 185.46 268.044 185.76C267.844 186.053 267.571 186.263 267.224 186.39C267.617 186.503 267.931 186.713 268.164 187.02C268.397 187.327 268.514 187.697 268.514 188.13C268.514 188.75 268.294 189.233 267.854 189.58C267.414 189.92 266.797 190.09 266.004 190.09ZM266.004 186.09C266.491 186.09 266.871 185.977 267.144 185.75C267.424 185.517 267.564 185.203 267.564 184.81C267.564 184.41 267.424 184.1 267.144 183.88C266.871 183.653 266.491 183.54 266.004 183.54C265.517 183.54 265.137 183.653 264.864 183.88C264.591 184.1 264.454 184.41 264.454 184.81C264.454 185.203 264.591 185.517 264.864 185.75C265.137 185.977 265.517 186.09 266.004 186.09ZM266.004 189.41C267.151 189.41 267.724 188.967 267.724 188.08C267.724 187.207 267.151 186.77 266.004 186.77C264.857 186.77 264.284 187.207 264.284 188.08C264.284 188.967 264.857 189.41 266.004 189.41ZM272 190.09C271.193 190.09 270.58 189.78 270.16 189.16C269.74 188.54 269.53 187.643 269.53 186.47C269.53 185.29 269.74 184.393 270.16 183.78C270.58 183.167 271.193 182.86 272 182.86C272.813 182.86 273.427 183.167 273.84 183.78C274.26 184.387 274.47 185.28 274.47 186.46C274.47 187.64 274.257 188.54 273.83 189.16C273.41 189.78 272.8 190.09 272 190.09ZM272 189.38C272.56 189.38 272.973 189.143 273.24 188.67C273.513 188.197 273.65 187.46 273.65 186.46C273.65 185.46 273.517 184.73 273.25 184.27C272.983 183.803 272.567 183.57 272 183.57C271.44 183.57 271.023 183.803 270.75 184.27C270.483 184.737 270.35 185.467 270.35 186.46C270.35 187.46 270.483 188.197 270.75 188.67C271.023 189.143 271.44 189.38 272 189.38Z" fill="#999999"/>
<path id="80ms" d="M313.246 190V189.3H314.856V183.94L313.586 184.74L313.236 184.13L315.086 182.95H315.676V189.3H317.186V190H313.246ZM321.002 190.09C320.195 190.09 319.582 189.78 319.162 189.16C318.742 188.54 318.532 187.643 318.532 186.47C318.532 185.29 318.742 184.393 319.162 183.78C319.582 183.167 320.195 182.86 321.002 182.86C321.815 182.86 322.429 183.167 322.842 183.78C323.262 184.387 323.472 185.28 323.472 186.46C323.472 187.64 323.259 188.54 322.832 189.16C322.412 189.78 321.802 190.09 321.002 190.09ZM321.002 189.38C321.562 189.38 321.975 189.143 322.242 188.67C322.515 188.197 322.652 187.46 322.652 186.46C322.652 185.46 322.519 184.73 322.252 184.27C321.985 183.803 321.569 183.57 321.002 183.57C320.442 183.57 320.025 183.803 319.752 184.27C319.485 184.737 319.352 185.467 319.352 186.46C319.352 187.46 319.485 188.197 319.752 188.67C320.025 189.143 320.442 189.38 321.002 189.38ZM326.998 190.09C326.191 190.09 325.578 189.78 325.158 189.16C324.738 188.54 324.528 187.643 324.528 186.47C324.528 185.29 324.738 184.393 325.158 183.78C325.578 183.167 326.191 182.86 326.998 182.86C327.811 182.86 328.425 183.167 328.838 183.78C329.258 184.387 329.468 185.28 329.468 186.46C329.468 187.64 329.255 188.54 328.828 189.16C328.408 189.78 327.798 190.09 326.998 190.09ZM326.998 189.38C327.558 189.38 327.971 189.143 328.238 188.67C328.511 188.197 328.648 187.46 328.648 186.46C328.648 185.46 328.515 184.73 328.248 184.27C327.981 183.803 327.565 183.57 326.998 183.57C326.438 183.57 326.021 183.803 325.748 184.27C325.481 184.737 325.348 185.467 325.348 186.46C325.348 187.46 325.481 188.197 325.748 188.67C326.021 189.143 326.438 189.38 326.998 189.38Z" fill="#999999"/>
<path id="20ms" d="M45.002 190.09C44.1953 190.09 43.582 189.78 43.162 189.16C42.742 188.54 42.532 187.643 42.532 186.47C42.532 185.29 42.742 184.393 43.162 183.78C43.582 183.167 44.1953 182.86 45.002 182.86C45.8153 182.86 46.4286 183.167 46.842 183.78C47.262 184.387 47.472 185.28 47.472 186.46C47.472 187.64 47.2586 188.54 46.832 189.16C46.412 189.78 45.802 190.09 45.002 190.09ZM45.002 189.38C45.562 189.38 45.9753 189.143 46.242 188.67C46.5153 188.197 46.652 187.46 46.652 186.46C46.652 185.46 46.5186 184.73 46.252 184.27C45.9853 183.803 45.5686 183.57 45.002 183.57C44.442 183.57 44.0253 183.803 43.752 184.27C43.4853 184.737 43.352 185.467 43.352 186.46C43.352 187.46 43.4853 188.197 43.752 188.67C44.0253 189.143 44.442 189.38 45.002 189.38Z" fill="#999999"/>
</g>
<path id="Latency distribution" d="M45.013 53L49.16 43.835H50.525L54.672 53H52.982L52.072 50.881H47.6L46.703 53H45.013ZM49.823 45.642L48.172 49.555H51.5L49.849 45.642H49.823ZM57.0227 53L54.2667 46.643H55.9957L57.7637 51.089L59.5967 46.643H61.2217L58.4267 53H57.0227ZM65.0122 53.13C64.2928 53.13 63.6732 52.9957 63.1532 52.727C62.6332 52.4583 62.2302 52.077 61.9442 51.583C61.6668 51.089 61.5282 50.504 61.5282 49.828C61.5282 49.1693 61.6625 48.593 61.9312 48.099C62.2085 47.605 62.5855 47.2193 63.0622 46.942C63.5475 46.656 64.0978 46.513 64.7132 46.513C65.6145 46.513 66.3252 46.799 66.8452 47.371C67.3738 47.943 67.6382 48.723 67.6382 49.711V50.192H63.0882C63.2095 51.3273 63.8595 51.895 65.0382 51.895C65.3935 51.895 65.7488 51.843 66.1042 51.739C66.4595 51.6263 66.7845 51.453 67.0792 51.219L67.5342 52.311C67.2308 52.5623 66.8495 52.7617 66.3902 52.909C65.9308 53.0563 65.4715 53.13 65.0122 53.13ZM64.7782 47.618C64.3015 47.618 63.9158 47.7653 63.6212 48.06C63.3265 48.3547 63.1488 48.7533 63.0882 49.256H66.2862C66.2515 48.7273 66.1042 48.3243 65.8442 48.047C65.5928 47.761 65.2375 47.618 64.7782 47.618ZM68.9251 53V46.643H70.5111V47.761C70.8231 47.007 71.4904 46.591 72.5131 46.513L73.0071 46.474L73.1111 47.852L72.1751 47.943C71.1091 48.047 70.5761 48.593 70.5761 49.581V53H68.9251ZM76.0454 53.13C75.5861 53.13 75.1744 53.0433 74.8104 52.87C74.4551 52.688 74.1734 52.4453 73.9654 52.142C73.7661 51.8387 73.6664 51.4963 73.6664 51.115C73.6664 50.647 73.7878 50.2787 74.0304 50.01C74.2731 49.7327 74.6674 49.5333 75.2134 49.412C75.7594 49.2907 76.4918 49.23 77.4104 49.23H77.8654V48.957C77.8654 48.5237 77.7701 48.2117 77.5794 48.021C77.3888 47.8303 77.0681 47.735 76.6174 47.735C76.2621 47.735 75.8981 47.7913 75.5254 47.904C75.1528 48.008 74.7758 48.1727 74.3944 48.398L73.9264 47.293C74.1518 47.137 74.4161 47.0027 74.7194 46.89C75.0314 46.7687 75.3564 46.6777 75.6944 46.617C76.0411 46.5477 76.3661 46.513 76.6694 46.513C77.5968 46.513 78.2858 46.7297 78.7364 47.163C79.1871 47.5877 79.4124 48.2507 79.4124 49.152V53H77.8914V51.986C77.7441 52.3413 77.5101 52.623 77.1894 52.831C76.8688 53.0303 76.4874 53.13 76.0454 53.13ZM76.3834 52.012C76.8081 52.012 77.1591 51.8647 77.4364 51.57C77.7224 51.2753 77.8654 50.9027 77.8654 50.452V50.166H77.4234C76.6088 50.166 76.0411 50.231 75.7204 50.361C75.4084 50.4823 75.2524 50.7077 75.2524 51.037C75.2524 51.323 75.3521 51.557 75.5514 51.739C75.7508 51.921 76.0281 52.012 76.3834 52.012ZM84.0258 55.47C83.4365 55.47 82.8818 55.4007 82.3618 55.262C81.8505 55.132 81.3998 54.9283 81.0098 54.651L81.4778 53.52C81.8418 53.7627 82.2318 53.9403 82.6478 54.053C83.0638 54.1743 83.4798 54.235 83.8958 54.235C85.0571 54.235 85.6378 53.676 85.6378 52.558V51.687C85.4558 52.0423 85.1741 52.324 84.7928 52.532C84.4201 52.74 84.0041 52.844 83.5448 52.844C82.9728 52.844 82.4745 52.714 82.0498 52.454C81.6251 52.1853 81.2958 51.8127 81.0618 51.336C80.8278 50.8593 80.7108 50.3047 80.7108 49.672C80.7108 49.0393 80.8278 48.489 81.0618 48.021C81.2958 47.5443 81.6251 47.176 82.0498 46.916C82.4745 46.6473 82.9728 46.513 83.5448 46.513C84.0215 46.513 84.4461 46.6213 84.8188 46.838C85.1915 47.046 85.4645 47.3277 85.6378 47.683V46.643H87.2238V52.363C87.2238 53.3943 86.9508 54.17 86.4048 54.69C85.8588 55.21 85.0658 55.47 84.0258 55.47ZM83.9868 51.609C84.4895 51.609 84.8881 51.4357 85.1828 51.089C85.4775 50.7423 85.6248 50.27 85.6248 49.672C85.6248 49.074 85.4775 48.606 85.1828 48.268C84.8881 47.9213 84.4895 47.748 83.9868 47.748C83.4841 47.748 83.0855 47.9213 82.7908 48.268C82.4961 48.606 82.3488 49.074 82.3488 49.672C82.3488 50.27 82.4961 50.7423 82.7908 51.089C83.0855 51.4357 83.4841 51.609 83.9868 51.609ZM92.0405 53.13C91.3212 53.13 90.7015 52.9957 90.1815 52.727C89.6615 52.4583 89.2585 52.077 88.9725 51.583C88.6952 51.089 88.5565 50.504 88.5565 49.828C88.5565 49.1693 88.6908 48.593 88.9595 48.099C89.2368 47.605 89.6138 47.2193 90.0905 46.942C90.5758 46.656 91.1262 46.513 91.7415 46.513C92.6428 46.513 93.3535 46.799 93.8735 47.371C94.4022 47.943 94.6665 48.723 94.6665 49.711V50.192H90.1165C90.2378 51.3273 90.8878 51.895 92.0665 51.895C92.4218 51.895 92.7772 51.843 93.1325 51.739C93.4878 51.6263 93.8128 51.453 94.1075 51.219L94.5625 52.311C94.2592 52.5623 93.8778 52.7617 93.4185 52.909C92.9592 53.0563 92.4998 53.13 92.0405 53.13ZM91.8065 47.618C91.3298 47.618 90.9442 47.7653 90.6495 48.06C90.3548 48.3547 90.1772 48.7533 90.1165 49.256H93.3145C93.2798 48.7273 93.1325 48.3243 92.8725 48.047C92.6212 47.761 92.2658 47.618 91.8065 47.618ZM99.4573 53V46.643H101.043V47.631C101.26 47.267 101.55 46.9897 101.914 46.799C102.287 46.6083 102.703 46.513 103.162 46.513C104.662 46.513 105.411 47.384 105.411 49.126V53H103.786V49.204C103.786 48.71 103.691 48.3503 103.5 48.125C103.318 47.8997 103.032 47.787 102.642 47.787C102.166 47.787 101.784 47.9387 101.498 48.242C101.221 48.5367 101.082 48.931 101.082 49.425V53H99.4573ZM106.958 45.278V43.692H108.778V45.278H106.958ZM107.062 53V46.643H108.687V53H107.062ZM113.339 55.47C112.75 55.47 112.195 55.4007 111.675 55.262C111.164 55.132 110.713 54.9283 110.323 54.651L110.791 53.52C111.155 53.7627 111.545 53.9403 111.961 54.053C112.377 54.1743 112.793 54.235 113.209 54.235C114.371 54.235 114.951 53.676 114.951 52.558V51.687C114.769 52.0423 114.488 52.324 114.106 52.532C113.734 52.74 113.318 52.844 112.858 52.844C112.286 52.844 111.788 52.714 111.363 52.454C110.939 52.1853 110.609 51.8127 110.375 51.336C110.141 50.8593 110.024 50.3047 110.024 49.672C110.024 49.0393 110.141 48.489 110.375 48.021C110.609 47.5443 110.939 47.176 111.363 46.916C111.788 46.6473 112.286 46.513 112.858 46.513C113.335 46.513 113.76 46.6213 114.132 46.838C114.505 47.046 114.778 47.3277 114.951 47.683V46.643H116.537V52.363C116.537 53.3943 116.264 54.17 115.718 54.69C115.172 55.21 114.379 55.47 113.339 55.47ZM113.3 51.609C113.803 51.609 114.202 51.4357 114.496 51.089C114.791 50.7423 114.938 50.27 114.938 49.672C114.938 49.074 114.791 48.606 114.496 48.268C114.202 47.9213 113.803 47.748 113.3 47.748C112.798 47.748 112.399 47.9213 112.104 48.268C111.81 48.606 111.662 49.074 111.662 49.672C111.662 50.27 111.81 50.7423 112.104 51.089C112.399 51.4357 112.798 51.609 113.3 51.609ZM118.221 53V43.835H119.846V47.566C120.063 47.2193 120.353 46.9593 120.717 46.786C121.081 46.604 121.484 46.513 121.926 46.513C123.425 46.513 124.175 47.384 124.175 49.126V53H122.55V49.204C122.55 48.71 122.455 48.3503 122.264 48.125C122.082 47.8997 121.796 47.787 121.406 47.787C120.929 47.787 120.548 47.9387 120.262 48.242C119.985 48.5367 119.846 48.931 119.846 49.425V53H118.221ZM128.737 53.13C127.056 53.13 126.215 52.298 126.215 50.634V47.865H124.993V46.643H126.215V44.745H127.84V46.643H129.764V47.865H127.84V50.543C127.84 50.959 127.931 51.271 128.113 51.479C128.295 51.687 128.59 51.791 128.997 51.791C129.119 51.791 129.244 51.778 129.374 51.752C129.504 51.7173 129.639 51.6827 129.777 51.648L130.024 52.844C129.868 52.9307 129.669 53 129.426 53.052C129.192 53.104 128.963 53.13 128.737 53.13ZM133.025 53.13C132.271 53.13 131.712 52.9263 131.348 52.519C130.992 52.103 130.815 51.4963 130.815 50.699V43.835H132.44V50.621C132.44 51.401 132.769 51.791 133.428 51.791C133.523 51.791 133.618 51.7867 133.714 51.778C133.809 51.7693 133.9 51.752 133.987 51.726L133.961 53.013C133.649 53.091 133.337 53.13 133.025 53.13ZM135.373 55.34L136.543 52.74L133.904 46.643H135.633L137.414 51.089L139.234 46.643H140.872L137.05 55.34H135.373ZM145.148 55.34V46.643H146.734V47.657C146.916 47.3103 147.189 47.033 147.553 46.825C147.925 46.617 148.346 46.513 148.814 46.513C149.368 46.513 149.854 46.6473 150.27 46.916C150.694 47.1847 151.024 47.566 151.258 48.06C151.492 48.5453 151.609 49.1303 151.609 49.815C151.609 50.491 151.492 51.0803 151.258 51.583C151.024 52.077 150.699 52.4583 150.283 52.727C149.867 52.9957 149.377 53.13 148.814 53.13C148.363 53.13 147.956 53.0347 147.592 52.844C147.236 52.6447 146.963 52.3803 146.773 52.051V55.34H145.148ZM148.359 51.895C148.844 51.895 149.234 51.7217 149.529 51.375C149.823 51.0197 149.971 50.4997 149.971 49.815C149.971 49.1217 149.823 48.606 149.529 48.268C149.234 47.9213 148.844 47.748 148.359 47.748C147.873 47.748 147.483 47.9213 147.189 48.268C146.894 48.606 146.747 49.1217 146.747 49.815C146.747 50.4997 146.894 51.0197 147.189 51.375C147.483 51.7217 147.873 51.895 148.359 51.895ZM152.943 53V46.643H154.529V47.761C154.841 47.007 155.508 46.591 156.531 46.513L157.025 46.474L157.129 47.852L156.193 47.943C155.127 48.047 154.594 48.593 154.594 49.581V53H152.943ZM157.929 45.278V43.692H159.749V45.278H157.929ZM158.033 53V46.643H159.658V53H158.033ZM164.285 53.13C163.618 53.13 163.037 52.9957 162.543 52.727C162.049 52.4497 161.668 52.0597 161.399 51.557C161.13 51.0543 160.996 50.465 160.996 49.789C160.996 49.113 161.13 48.5323 161.399 48.047C161.668 47.553 162.049 47.176 162.543 46.916C163.037 46.6473 163.618 46.513 164.285 46.513C164.692 46.513 165.095 46.578 165.494 46.708C165.893 46.838 166.222 47.02 166.482 47.254L166.001 48.385C165.776 48.1857 165.52 48.034 165.234 47.93C164.957 47.826 164.688 47.774 164.428 47.774C163.865 47.774 163.427 47.9517 163.115 48.307C162.812 48.6537 162.66 49.152 162.66 49.802C162.66 50.4433 162.812 50.9503 163.115 51.323C163.427 51.687 163.865 51.869 164.428 51.869C164.679 51.869 164.948 51.817 165.234 51.713C165.52 51.609 165.776 51.453 166.001 51.245L166.482 52.389C166.222 52.6143 165.888 52.7963 165.481 52.935C165.082 53.065 164.684 53.13 164.285 53.13ZM170.485 53.13C169.766 53.13 169.146 52.9957 168.626 52.727C168.106 52.4583 167.703 52.077 167.417 51.583C167.14 51.089 167.001 50.504 167.001 49.828C167.001 49.1693 167.135 48.593 167.404 48.099C167.681 47.605 168.058 47.2193 168.535 46.942C169.02 46.656 169.571 46.513 170.186 46.513C171.087 46.513 171.798 46.799 172.318 47.371C172.847 47.943 173.111 48.723 173.111 49.711V50.192H168.561C168.682 51.3273 169.332 51.895 170.511 51.895C170.866 51.895 171.222 51.843 171.577 51.739C171.932 51.6263 172.257 51.453 172.552 51.219L173.007 52.311C172.704 52.5623 172.322 52.7617 171.863 52.909C171.404 53.0563 170.944 53.13 170.485 53.13ZM170.251 47.618C169.774 47.618 169.389 47.7653 169.094 48.06C168.799 48.3547 168.622 48.7533 168.561 49.256H171.759C171.724 48.7273 171.577 48.3243 171.317 48.047C171.066 47.761 170.71 47.618 170.251 47.618ZM174.255 48.437V46.643H176.075V48.437H174.255ZM174.255 53V51.193H176.075V53H174.255ZM183.661 54.495V53.065C183.089 53.0217 182.548 52.9177 182.036 52.753C181.534 52.5797 181.096 52.3413 180.723 52.038L181.23 50.725C181.638 51.0283 182.084 51.2623 182.569 51.427C183.055 51.5917 183.588 51.674 184.168 51.674C184.801 51.674 185.265 51.5613 185.559 51.336C185.854 51.1107 186.001 50.829 186.001 50.491C186.001 50.1877 185.902 49.945 185.702 49.763C185.503 49.581 185.148 49.4337 184.636 49.321L183.258 49.022C182.478 48.8487 181.889 48.5627 181.49 48.164C181.1 47.7567 180.905 47.2193 180.905 46.552C180.905 45.824 181.152 45.213 181.646 44.719C182.149 44.2163 182.821 43.913 183.661 43.809V42.34H184.961V43.796C185.412 43.8393 185.85 43.9477 186.274 44.121C186.699 44.2943 187.059 44.5283 187.353 44.823L186.859 46.071C186.201 45.4643 185.36 45.161 184.337 45.161C183.8 45.161 183.367 45.2867 183.037 45.538C182.717 45.7807 182.556 46.1013 182.556 46.5C182.556 46.7947 182.656 47.033 182.855 47.215C183.055 47.397 183.375 47.5357 183.817 47.631L185.195 47.93C186.027 48.112 186.643 48.4023 187.041 48.801C187.449 49.191 187.652 49.711 187.652 50.361C187.652 51.089 187.401 51.687 186.898 52.155C186.404 52.6143 185.759 52.9047 184.961 53.026V54.495H183.661ZM192.054 53.13C191.456 53.13 190.876 53.039 190.312 52.857C189.749 52.6663 189.29 52.4107 188.934 52.09L189.48 50.816C190.269 51.4227 191.118 51.726 192.028 51.726C192.574 51.726 192.999 51.5873 193.302 51.31C193.614 51.024 193.77 50.6427 193.77 50.166C193.77 49.6807 193.623 49.2907 193.328 48.996C193.034 48.6927 192.631 48.541 192.119 48.541C191.391 48.541 190.789 48.8313 190.312 49.412H189.194V43.835H194.823V45.213H190.819V47.696C191.279 47.3493 191.842 47.176 192.509 47.176C193.09 47.176 193.593 47.3017 194.017 47.553C194.451 47.7957 194.784 48.138 195.018 48.58C195.261 49.0133 195.382 49.5203 195.382 50.101C195.382 50.699 195.248 51.2277 194.979 51.687C194.711 52.1377 194.325 52.493 193.822 52.753C193.328 53.0043 192.739 53.13 192.054 53.13ZM200.408 53V51.258H196.417V50.036L200.694 43.835H202.072V49.88H203.359V51.258H202.072V53H200.408ZM200.408 49.88V46.383L198.016 49.88H200.408Z" fill="#333333"/>
<rect id="Rectangle 162" x="355" y="169" width="340" height="2" transform="rotate(-180 355 169)" fill="black" fill-opacity="0.1"/>
<g id="Group 72">
<g id="Oval" filter="url(#filter1_d_3666_63519)">
<circle cx="323" cy="168" r="8" fill="white"/>
<circle cx="323" cy="168" r="8" stroke="black" stroke-opacity="0.1"/>
</g>
<rect id="Rectangle 160_2" x="321" y="164" width="1" height="8" rx="0.5" fill="#CCCCCC"/>
<rect id="Rectangle 161_2" x="324" y="164" width="1" height="8" rx="0.5" fill="#CCCCCC"/>
</g>
<g id="Group 73">
<g id="Oval_2" filter="url(#filter2_d_3666_63519)">
<circle cx="45" cy="168" r="8" fill="white"/>
<circle cx="45" cy="168" r="8" stroke="black" stroke-opacity="0.1"/>
</g>
<rect id="Rectangle 160_3" x="43" y="164" width="1" height="8" rx="0.5" fill="#CCCCCC"/>
<rect id="Rectangle 161_3" x="46" y="164" width="1" height="8" rx="0.5" fill="#CCCCCC"/>
</g>
</g>
<defs>
<filter id="filter0_dd_3666_63519" x="0" y="0" width="370" height="303" filterUnits="userSpaceOnUse" color-interpolation-filters="sRGB">
<feFlood flood-opacity="0" result="BackgroundImageFix"/>
<feColorMatrix in="SourceAlpha" type="matrix" values="0 0 0 0 0 0 0 0 0 0 0 0 0 0 0 0 0 0 127 0" result="hardAlpha"/>
<feOffset dy="5"/>
<feGaussianBlur stdDeviation="7.5"/>
<feColorMatrix type="matrix" values="0 0 0 0 0 0 0 0 0 0 0 0 0 0 0 0 0 0 0.1 0"/>
<feBlend mode="normal" in2="BackgroundImageFix" result="effect1_dropShadow_3666_63519"/>
<feColorMatrix in="SourceAlpha" type="matrix" values="0 0 0 0 0 0 0 0 0 0 0 0 0 0 0 0 0 0 127 0" result="hardAlpha"/>
<feOffset dy="1"/>
<feGaussianBlur stdDeviation="1.5"/>
<feColorMatrix type="matrix" values="0 0 0 0 0 0 0 0 0 0 0 0 0 0 0 0 0 0 0.05 0"/>
<feBlend mode="normal" in2="effect1_dropShadow_3666_63519" result="effect2_dropShadow_3666_63519"/>
<feBlend mode="normal" in="SourceGraphic" in2="effect2_dropShadow_3666_63519" result="shape"/>
</filter>
<filter id="filter1_d_3666_63519" x="311.5" y="157.5" width="23" height="23" filterUnits="userSpaceOnUse" color-interpolation-filters="sRGB">
<feFlood flood-opacity="0" result="BackgroundImageFix"/>
<feColorMatrix in="SourceAlpha" type="matrix" values="0 0 0 0 0 0 0 0 0 0 0 0 0 0 0 0 0 0 127 0" result="hardAlpha"/>
<feOffset dy="1"/>
<feGaussianBlur stdDeviation="1.5"/>
<feColorMatrix type="matrix" values="0 0 0 0 0 0 0 0 0 0 0 0 0 0 0 0 0 0 0.1 0"/>
<feBlend mode="normal" in2="BackgroundImageFix" result="effect1_dropShadow_3666_63519"/>
<feBlend mode="normal" in="SourceGraphic" in2="effect1_dropShadow_3666_63519" result="shape"/>
</filter>
<filter id="filter2_d_3666_63519" x="33.5" y="157.5" width="23" height="23" filterUnits="userSpaceOnUse" color-interpolation-filters="sRGB">
<feFlood flood-opacity="0" result="BackgroundImageFix"/>
<feColorMatrix in="SourceAlpha" type="matrix" values="0 0 0 0 0 0 0 0 0 0 0 0 0 0 0 0 0 0 127 0" result="hardAlpha"/>
<feOffset dy="1"/>
<feGaussianBlur stdDeviation="1.5"/>
<feColorMatrix type="matrix" values="0 0 0 0 0 0 0 0 0 0 0 0 0 0 0 0 0 0 0.1 0"/>
<feBlend mode="normal" in2="BackgroundImageFix" result="effect1_dropShadow_3666_63519"/>
<feBlend mode="normal" in="SourceGraphic" in2="effect1_dropShadow_3666_63519" result="shape"/>
</filter>
<linearGradient id="paint0_linear_3666_63519" x1="185" y1="10" x2="185" y2="167" gradientUnits="userSpaceOnUse">
<stop stop-color="#E7FBFB"/>
<stop offset="1" stop-color="#F4F8FA"/>
</linearGradient>
<linearGradient id="paint1_linear_3666_63519" x1="-2.15152" y1="0.889947" x2="-2.10506" y2="8.42279" gradientUnits="userSpaceOnUse">
<stop stop-color="#FA8961"/>
<stop offset="1" stop-color="#FFBD58"/>
</linearGradient>
<linearGradient id="paint2_linear_3666_63519" x1="-2.15152" y1="2.00024" x2="-1.91685" y2="18.9284" gradientUnits="userSpaceOnUse">
<stop stop-color="#FA8961"/>
<stop offset="1" stop-color="#FFBD58"/>
</linearGradient>
<linearGradient id="paint3_linear_3666_63519" x1="-2.15152" y1="1.60019" x2="-2.00132" y2="15.1436" gradientUnits="userSpaceOnUse">
<stop stop-color="#FA8961"/>
<stop offset="1" stop-color="#FFBD58"/>
</linearGradient>
<linearGradient id="paint4_linear_3666_63519" x1="-2.15152" y1="3.00036" x2="-1.62363" y2="28.3865" gradientUnits="userSpaceOnUse">
<stop stop-color="#FA8961"/>
<stop offset="1" stop-color="#FFBD58"/>
</linearGradient>
<linearGradient id="paint5_linear_3666_63519" x1="-2.15152" y1="2.00024" x2="-1.91685" y2="18.9284" gradientUnits="userSpaceOnUse">
<stop stop-color="#FA8961"/>
<stop offset="1" stop-color="#FFBD58"/>
</linearGradient>
<linearGradient id="paint6_linear_3666_63519" x1="-2.15152" y1="1.80021" x2="-1.96143" y2="17.0361" gradientUnits="userSpaceOnUse">
<stop stop-color="#FA8961"/>
<stop offset="1" stop-color="#FFBD58"/>
</linearGradient>
<linearGradient id="paint7_linear_3666_63519" x1="-2.15152" y1="3.60043" x2="-1.3915" y2="34.058" gradientUnits="userSpaceOnUse">
<stop stop-color="#FA8961"/>
<stop offset="1" stop-color="#FFBD58"/>
</linearGradient>
<linearGradient id="paint8_linear_3666_63519" x1="-2.15152" y1="4.40052" x2="-1.01653" y2="41.615" gradientUnits="userSpaceOnUse">
<stop stop-color="#FA8961"/>
<stop offset="1" stop-color="#FFBD58"/>
</linearGradient>
<linearGradient id="paint9_linear_3666_63519" x1="-2.15152" y1="7.60091" x2="1.22847" y2="71.7622" gradientUnits="userSpaceOnUse">
<stop stop-color="#FA8961"/>
<stop offset="1" stop-color="#FFBD58"/>
</linearGradient>
<linearGradient id="paint10_linear_3666_63519" x1="-2.15152" y1="10.0012" x2="3.68844" y2="94.2534" gradientUnits="userSpaceOnUse">
<stop stop-color="#FA8961"/>
<stop offset="1" stop-color="#FFBD58"/>
</linearGradient>
<linearGradient id="paint11_linear_3666_63519" x1="-2.15152" y1="12.0014" x2="6.24037" y2="112.892" gradientUnits="userSpaceOnUse">
<stop stop-color="#FA8961"/>
<stop offset="1" stop-color="#FFBD58"/>
</linearGradient>
<linearGradient id="paint12_linear_3666_63519" x1="-2.15152" y1="6.80081" x2="0.555837" y2="64.24" gradientUnits="userSpaceOnUse">
<stop stop-color="#FA8961"/>
<stop offset="1" stop-color="#FFBD58"/>
</linearGradient>
<linearGradient id="paint13_linear_3666_63519" x1="-2.15152" y1="3.60043" x2="-1.3915" y2="34.058" gradientUnits="userSpaceOnUse">
<stop stop-color="#FA8961"/>
<stop offset="1" stop-color="#FFBD58"/>
</linearGradient>
<linearGradient id="paint14_linear_3666_63519" x1="-2.15152" y1="4.40052" x2="-1.01653" y2="41.615" gradientUnits="userSpaceOnUse">
<stop stop-color="#FA8961"/>
<stop offset="1" stop-color="#FFBD58"/>
</linearGradient>
<linearGradient id="paint15_linear_3666_63519" x1="-2.08632" y1="2.3918" x2="-1.74032" y2="22.6317" gradientUnits="userSpaceOnUse">
<stop stop-color="#FA8961"/>
<stop offset="1" stop-color="#FFBD58"/>
</linearGradient>
<linearGradient id="paint16_linear_3666_63519" x1="-2.21672" y1="2.95457" x2="-1.71985" y2="27.9543" gradientUnits="userSpaceOnUse">
<stop stop-color="#FA8961"/>
<stop offset="1" stop-color="#FFBD58"/>
</linearGradient>
</defs>
</svg>
