<svg xmlns="http://www.w3.org/2000/svg" width="370" height="303" fill="none" viewBox="0 0 370 303"><g id="RangeSlider"><g id="Rectangle 160" filter="url(#filter0_dd_3666_63519)"><rect width="340" height="273" x="15" y="10" fill="#fff" rx="10"/></g><g id="Group 74"><text id="Requests" fill="#333" font-family="'Nunito Sans', 'Helvetica Neue', Helvetica, Arial, sans-serif" font-size="13" font-weight="bold" letter-spacing="0em" xml:space="preserve" style="white-space:pre"><tspan x="45" y="222.277">Minimum</tspan></text><text id="Requests_2" fill="#333" font-family="'Nunito Sans', 'Helvetica Neue', Helvetica, Arial, sans-serif" font-size="13" font-weight="bold" letter-spacing="0em" xml:space="preserve" style="white-space:pre"><tspan x="205" y="222.277">Maximum</tspan></text><g id="Input / Text"><g id="_Input / Text"><rect width="120" height="32" x="205" y="231" fill="#fff" rx="4"/><text id="Text" fill="#999" font-family="'Nunito Sans', 'Helvetica Neue', Helvetica, Arial, sans-serif" font-size="13" letter-spacing="0em" xml:space="preserve" style="white-space:pre"><tspan x="215" y="251.277">100</tspan></text><rect width="119" height="31" x="205.5" y="231.5" stroke="#000" stroke-opacity=".1" rx="3.5"/></g></g><rect id="Rectangle 163" width="8" height="1" x="181" y="246" fill="#000" fill-opacity=".1"/><g id="Input / Text_2"><g id="_Input / Text_2"><rect width="120" height="32" x="45" y="231" fill="#fff" rx="4"/><text id="Text_2" fill="#999" font-family="'Nunito Sans', 'Helvetica Neue', Helvetica, Arial, sans-serif" font-size="13" letter-spacing="0em" xml:space="preserve" style="white-space:pre"><tspan x="55" y="251.277">0</tspan></text><rect width="119" height="31" x="45.5" y="231.5" stroke="#000" stroke-opacity=".1" rx="3.5"/></g></g></g><path id="Rectangle 161" fill="url(#paint0_linear_3666_63519)" d="M15 20C15 14.4771 19.4772 10 25 10H345C350.523 10 355 14.4772 355 20V167H15V20Z"/><g id="Frame 141"><rect id="Rectangle 34 Copy 21" width="16.5" height="6.325" fill="url(#paint1_linear_3666_63519)" transform="matrix(-1 0 0 1 61.5 160.686)"/><rect id="Rectangle 34 Copy 20" width="16.5" height="14.217" fill="url(#paint2_linear_3666_63519)" transform="matrix(-1 0 0 1 79 152.794)"/><rect id="Rectangle 34 Copy 15" width="16.5" height="11.374" fill="url(#paint3_linear_3666_63519)" transform="matrix(-1 0 0 1 96.5 155.638)"/><rect id="Rectangle 34 Copy 13" width="16.5" height="21.325" fill="url(#paint4_linear_3666_63519)" transform="matrix(-1 0 0 1 114 145.686)"/><rect id="Rectangle 34 Copy 12" width="16.5" height="14.217" fill="url(#paint5_linear_3666_63519)" transform="matrix(-1 0 0 1 131.5 152.794)"/><rect id="Rectangle 34 Copy 11" width="16.5" height="12.795" fill="url(#paint6_linear_3666_63519)" transform="matrix(-1 0 0 1 149 154.216)"/><rect id="Rectangle 34 Copy 10" width="16.5" height="25.59" fill="url(#paint7_linear_3666_63519)" transform="matrix(-1 0 0 1 166.5 141.421)"/><rect id="Rectangle 34 Copy 8" width="16.5" height="31.277" fill="url(#paint8_linear_3666_63519)" transform="matrix(-1 0 0 1 184 135.734)"/><rect id="Rectangle 34 Copy 6" width="16.5" height="54.024" fill="url(#paint9_linear_3666_63519)" transform="matrix(-1 0 0 1 201.5 112.987)"/><rect id="Rectangle 34 Copy 5" width="16.5" height="71.085" fill="url(#paint10_linear_3666_63519)" transform="matrix(-1 0 0 1 219 95.9264)"/><rect id="Rectangle 34 Copy 4" width="16.5" height="85.302" fill="url(#paint11_linear_3666_63519)" transform="matrix(-1 0 0 1 236.5 81.7095)"/><rect id="Rectangle 34 Copy 2" width="16.5" height="48.338" fill="url(#paint12_linear_3666_63519)" transform="matrix(-1 0 0 1 254 118.674)"/><rect id="Rectangle 34" width="16.5" height="25.59" fill="url(#paint13_linear_3666_63519)" transform="matrix(-1 0 0 1 271.5 141.421)"/><rect id="Rectangle 34 Copy 30" width="16.5" height="31.277" fill="url(#paint14_linear_3666_63519)" transform="matrix(-1 0 0 1 289 135.734)"/><rect id="Rectangle 34 Copy 31" width="16" height="17" fill="url(#paint15_linear_3666_63519)" transform="matrix(-1 0 0 1 306 150.011)"/><rect id="Rectangle 34 Copy 32" width="17" height="21" fill="url(#paint16_linear_3666_63519)" transform="matrix(-1 0 0 1 324 146.011)"/></g><path id="xticks" fill="#000" fill-opacity=".1" fill-rule="evenodd" d="M45 173H44V177H45V173ZM269 173H268V177H269V173ZM156 173H157V177H156V173ZM325 173H324V177H325V173ZM100 173H101V177H100V173ZM213 173H212V177H213V173Z" clip-rule="evenodd"/><g id="xaxis"><text id="30ms" fill="#999" font-family="'Nunito Sans', 'Helvetica Neue', Helvetica, Arial, sans-serif" font-size="10" letter-spacing="0" xml:space="preserve" style="white-space:pre"><tspan x="94.004" y="190.29">20</tspan></text><text id="40ms" fill="#999" font-family="'Nunito Sans', 'Helvetica Neue', Helvetica, Arial, sans-serif" font-size="10" letter-spacing="0" xml:space="preserve" style="white-space:pre"><tspan x="150.004" y="190.29">40</tspan></text><text id="50ms" fill="#999" font-family="'Nunito Sans', 'Helvetica Neue', Helvetica, Arial, sans-serif" font-size="10" letter-spacing="0" xml:space="preserve" style="white-space:pre"><tspan x="207.004" y="190.29">60</tspan></text><text id="60ms" fill="#999" font-family="'Nunito Sans', 'Helvetica Neue', Helvetica, Arial, sans-serif" font-size="10" letter-spacing="0" xml:space="preserve" style="white-space:pre"><tspan x="263.004" y="190.29">80</tspan></text><text id="80ms" fill="#999" font-family="'Nunito Sans', 'Helvetica Neue', Helvetica, Arial, sans-serif" font-size="10" letter-spacing="0" xml:space="preserve" style="white-space:pre"><tspan x="312.006" y="190.29">100</tspan></text><text id="20ms" fill="#999" font-family="'Nunito Sans', 'Helvetica Neue', Helvetica, Arial, sans-serif" font-size="10" letter-spacing="0" xml:space="preserve" style="white-space:pre"><tspan x="42.002" y="190.29">0</tspan></text></g><text id="Latency distribution" fill="#333" font-family="'Nunito Sans', 'Helvetica Neue', Helvetica, Arial, sans-serif" font-size="13" font-weight="bold" letter-spacing="0em" xml:space="preserve" style="white-space:pre"><tspan x="45" y="53.277">Average nightly price: $54</tspan></text><rect id="Rectangle 162" width="340" height="2" x="355" y="169" fill="#000" fill-opacity=".1" transform="rotate(-180 355 169)"/><g id="Group 72"><g id="Oval" filter="url(#filter1_d_3666_63519)"><circle cx="323" cy="168" r="8" fill="#fff"/><circle cx="323" cy="168" r="8" stroke="#000" stroke-opacity=".1"/></g><rect id="Rectangle 160_2" width="1" height="8" x="321" y="164" fill="#CCC" rx=".5"/><rect id="Rectangle 161_2" width="1" height="8" x="324" y="164" fill="#CCC" rx=".5"/></g><g id="Group 73"><g id="Oval_2" filter="url(#filter2_d_3666_63519)"><circle cx="45" cy="168" r="8" fill="#fff"/><circle cx="45" cy="168" r="8" stroke="#000" stroke-opacity=".1"/></g><rect id="Rectangle 160_3" width="1" height="8" x="43" y="164" fill="#CCC" rx=".5"/><rect id="Rectangle 161_3" width="1" height="8" x="46" y="164" fill="#CCC" rx=".5"/></g></g><defs><filter id="filter0_dd_3666_63519" width="370" height="303" x="0" y="0" color-interpolation-filters="sRGB" filterUnits="userSpaceOnUse"><feFlood flood-opacity="0" result="BackgroundImageFix"/><feColorMatrix in="SourceAlpha" result="hardAlpha" type="matrix" values="0 0 0 0 0 0 0 0 0 0 0 0 0 0 0 0 0 0 127 0"/><feOffset dy="5"/><feGaussianBlur stdDeviation="7.5"/><feColorMatrix type="matrix" values="0 0 0 0 0 0 0 0 0 0 0 0 0 0 0 0 0 0 0.1 0"/><feBlend in2="BackgroundImageFix" mode="normal" result="effect1_dropShadow_3666_63519"/><feColorMatrix in="SourceAlpha" result="hardAlpha" type="matrix" values="0 0 0 0 0 0 0 0 0 0 0 0 0 0 0 0 0 0 127 0"/><feOffset dy="1"/><feGaussianBlur stdDeviation="1.5"/><feColorMatrix type="matrix" values="0 0 0 0 0 0 0 0 0 0 0 0 0 0 0 0 0 0 0.05 0"/><feBlend in2="effect1_dropShadow_3666_63519" mode="normal" result="effect2_dropShadow_3666_63519"/><feBlend in="SourceGraphic" in2="effect2_dropShadow_3666_63519" mode="normal" result="shape"/></filter><filter id="filter1_d_3666_63519" width="23" height="23" x="311.5" y="157.5" color-interpolation-filters="sRGB" filterUnits="userSpaceOnUse"><feFlood flood-opacity="0" result="BackgroundImageFix"/><feColorMatrix in="SourceAlpha" result="hardAlpha" type="matrix" values="0 0 0 0 0 0 0 0 0 0 0 0 0 0 0 0 0 0 127 0"/><feOffset dy="1"/><feGaussianBlur stdDeviation="1.5"/><feColorMatrix type="matrix" values="0 0 0 0 0 0 0 0 0 0 0 0 0 0 0 0 0 0 0.1 0"/><feBlend in2="BackgroundImageFix" mode="normal" result="effect1_dropShadow_3666_63519"/><feBlend in="SourceGraphic" in2="effect1_dropShadow_3666_63519" mode="normal" result="shape"/></filter><filter id="filter2_d_3666_63519" width="23" height="23" x="33.5" y="157.5" color-interpolation-filters="sRGB" filterUnits="userSpaceOnUse"><feFlood flood-opacity="0" result="BackgroundImageFix"/><feColorMatrix in="SourceAlpha" result="hardAlpha" type="matrix" values="0 0 0 0 0 0 0 0 0 0 0 0 0 0 0 0 0 0 127 0"/><feOffset dy="1"/><feGaussianBlur stdDeviation="1.5"/><feColorMatrix type="matrix" values="0 0 0 0 0 0 0 0 0 0 0 0 0 0 0 0 0 0 0.1 0"/><feBlend in2="BackgroundImageFix" mode="normal" result="effect1_dropShadow_3666_63519"/><feBlend in="SourceGraphic" in2="effect1_dropShadow_3666_63519" mode="normal" result="shape"/></filter><linearGradient id="paint0_linear_3666_63519" x1="185" x2="185" y1="10" y2="167" gradientUnits="userSpaceOnUse"><stop stop-color="#E7FBFB"/><stop offset="1" stop-color="#F4F8FA"/></linearGradient><linearGradient id="paint1_linear_3666_63519" x1="-2.152" x2="-2.105" y1=".89" y2="8.423" gradientUnits="userSpaceOnUse"><stop stop-color="#FA8961"/><stop offset="1" stop-color="#FFBD58"/></linearGradient><linearGradient id="paint2_linear_3666_63519" x1="-2.152" x2="-1.917" y1="2" y2="18.928" gradientUnits="userSpaceOnUse"><stop stop-color="#FA8961"/><stop offset="1" stop-color="#FFBD58"/></linearGradient><linearGradient id="paint3_linear_3666_63519" x1="-2.152" x2="-2.001" y1="1.6" y2="15.144" gradientUnits="userSpaceOnUse"><stop stop-color="#FA8961"/><stop offset="1" stop-color="#FFBD58"/></linearGradient><linearGradient id="paint4_linear_3666_63519" x1="-2.152" x2="-1.624" y1="3" y2="28.387" gradientUnits="userSpaceOnUse"><stop stop-color="#FA8961"/><stop offset="1" stop-color="#FFBD58"/></linearGradient><linearGradient id="paint5_linear_3666_63519" x1="-2.152" x2="-1.917" y1="2" y2="18.928" gradientUnits="userSpaceOnUse"><stop stop-color="#FA8961"/><stop offset="1" stop-color="#FFBD58"/></linearGradient><linearGradient id="paint6_linear_3666_63519" x1="-2.152" x2="-1.961" y1="1.8" y2="17.036" gradientUnits="userSpaceOnUse"><stop stop-color="#FA8961"/><stop offset="1" stop-color="#FFBD58"/></linearGradient><linearGradient id="paint7_linear_3666_63519" x1="-2.152" x2="-1.391" y1="3.6" y2="34.058" gradientUnits="userSpaceOnUse"><stop stop-color="#FA8961"/><stop offset="1" stop-color="#FFBD58"/></linearGradient><linearGradient id="paint8_linear_3666_63519" x1="-2.152" x2="-1.017" y1="4.401" y2="41.615" gradientUnits="userSpaceOnUse"><stop stop-color="#FA8961"/><stop offset="1" stop-color="#FFBD58"/></linearGradient><linearGradient id="paint9_linear_3666_63519" x1="-2.152" x2="1.228" y1="7.601" y2="71.762" gradientUnits="userSpaceOnUse"><stop stop-color="#FA8961"/><stop offset="1" stop-color="#FFBD58"/></linearGradient><linearGradient id="paint10_linear_3666_63519" x1="-2.152" x2="3.688" y1="10.001" y2="94.253" gradientUnits="userSpaceOnUse"><stop stop-color="#FA8961"/><stop offset="1" stop-color="#FFBD58"/></linearGradient><linearGradient id="paint11_linear_3666_63519" x1="-2.152" x2="6.24" y1="12.001" y2="112.892" gradientUnits="userSpaceOnUse"><stop stop-color="#FA8961"/><stop offset="1" stop-color="#FFBD58"/></linearGradient><linearGradient id="paint12_linear_3666_63519" x1="-2.152" x2=".556" y1="6.801" y2="64.24" gradientUnits="userSpaceOnUse"><stop stop-color="#FA8961"/><stop offset="1" stop-color="#FFBD58"/></linearGradient><linearGradient id="paint13_linear_3666_63519" x1="-2.152" x2="-1.391" y1="3.6" y2="34.058" gradientUnits="userSpaceOnUse"><stop stop-color="#FA8961"/><stop offset="1" stop-color="#FFBD58"/></linearGradient><linearGradient id="paint14_linear_3666_63519" x1="-2.152" x2="-1.017" y1="4.401" y2="41.615" gradientUnits="userSpaceOnUse"><stop stop-color="#FA8961"/><stop offset="1" stop-color="#FFBD58"/></linearGradient><linearGradient id="paint15_linear_3666_63519" x1="-2.086" x2="-1.74" y1="2.392" y2="22.632" gradientUnits="userSpaceOnUse"><stop stop-color="#FA8961"/><stop offset="1" stop-color="#FFBD58"/></linearGradient><linearGradient id="paint16_linear_3666_63519" x1="-2.217" x2="-1.72" y1="2.955" y2="27.954" gradientUnits="userSpaceOnUse"><stop stop-color="#FA8961"/><stop offset="1" stop-color="#FFBD58"/></linearGradient></defs></svg>