<svg xmlns="http://www.w3.org/2000/svg" width="251" height="830" fill="none" viewBox="0 0 251 830"><g clip-path="url(#clip0_5691_88418)"><path fill="#F6F9FC" d="M1 32H251V830H9C4.58172 830 1 826.418 1 822V32Z"/><rect width="251" height="1049" fill="#F6F9FC" transform="translate(1 32)"/><path fill="#333" fill-rule="evenodd" d="M47.64 69.8314C46.7867 69.8314 45.9653 69.7168 45.176 69.4874C44.3867 69.2581 43.7307 68.9408 43.208 68.5354L44.008 66.7594C45.096 67.5168 46.3173 67.8954 47.672 67.8954C48.376 67.8954 48.9173 67.7808 49.296 67.5514C49.6747 67.3221 49.864 67.0048 49.864 66.5994C49.864 66.2368 49.6907 65.9541 49.344 65.7514C48.9973 65.5488 48.3813 65.3514 47.496 65.1594C46.504 64.9568 45.712 64.7114 45.12 64.4234C44.528 64.1354 44.096 63.7808 43.824 63.3594C43.552 62.9381 43.416 62.4181 43.416 61.7994C43.416 61.1168 43.6053 60.5088 43.984 59.9754C44.3627 59.4421 44.8933 59.0234 45.576 58.7194C46.2587 58.4154 47.048 58.2634 47.944 58.2634C48.744 58.2634 49.5147 58.3808 50.256 58.6154C50.9973 58.8501 51.5867 59.1648 52.024 59.5594L51.224 61.3354C50.1893 60.5781 49.1013 60.1994 47.96 60.1994C47.3093 60.1994 46.7973 60.3248 46.424 60.5754C46.0507 60.8261 45.864 61.1701 45.864 61.6074C45.864 61.8634 45.936 62.0741 46.08 62.2394C46.224 62.4048 46.464 62.5514 46.8 62.6794C47.136 62.8074 47.6133 62.9408 48.232 63.0794C49.6827 63.3994 50.7253 63.8101 51.36 64.3114C51.9947 64.8128 52.312 65.5061 52.312 66.3914C52.312 67.4581 51.9013 68.2981 51.08 68.9114C50.2587 69.5248 49.112 69.8314 47.64 69.8314ZM58.1042 68.0393C58.3495 68.0393 58.6055 68.0233 58.8722 67.9913L58.7442 69.7513C58.4348 69.794 58.1255 69.8153 57.8162 69.8153C56.6215 69.8153 55.7495 69.554 55.2002 69.0313C54.6508 68.5087 54.3762 67.714 54.3762 66.6473V63.6393H52.8882V61.8313H54.3762V59.5273H56.7922V61.8313H58.7602V63.6393H56.7922V66.6313C56.7922 67.57 57.2295 68.0393 58.1042 68.0393ZM63.72 69.8154C62.888 69.8154 62.1573 69.6474 61.528 69.3114C60.8987 68.9754 60.4133 68.5008 60.072 67.8874C59.7307 67.2741 59.56 66.5514 59.56 65.7194C59.56 64.8874 59.7307 64.1648 60.072 63.5514C60.4133 62.9381 60.8987 62.4661 61.528 62.1354C62.1573 61.8048 62.888 61.6394 63.72 61.6394C64.552 61.6394 65.2827 61.8048 65.912 62.1354C66.5413 62.4661 67.0267 62.9381 67.368 63.5514C67.7093 64.1648 67.88 64.8874 67.88 65.7194C67.88 66.5514 67.7093 67.2741 67.368 67.8874C67.0267 68.5008 66.5413 68.9754 65.912 69.3114C65.2827 69.6474 64.552 69.8154 63.72 69.8154ZM63.72 67.9754C64.8933 67.9754 65.48 67.2234 65.48 65.7194C65.48 64.9621 65.328 64.3968 65.024 64.0234C64.72 63.6501 64.2853 63.4634 63.72 63.4634C62.5467 63.4634 61.96 64.2154 61.96 65.7194C61.96 67.2234 62.5467 67.9754 63.72 67.9754ZM74.5681 63.6235L73.2081 63.7675C72.5361 63.8315 72.0615 64.0209 71.7841 64.3355C71.5068 64.6502 71.3681 65.0689 71.3681 65.5915V69.6875H68.9521V61.8315H71.2721V63.1595C71.6668 62.2529 72.4828 61.7569 73.7201 61.6715L74.4241 61.6235L74.5681 63.6235ZM81.588 61.8474H83.956L79.22 72.5674H76.772L78.276 69.2554L75.044 61.8474H77.556L79.54 66.8394L81.588 61.8474ZM89.5559 61.6395C90.2386 61.6395 90.8412 61.8048 91.3639 62.1355C91.8866 62.4661 92.2946 62.9381 92.5879 63.5515C92.8812 64.1648 93.0279 64.8768 93.0279 65.6875C93.0279 66.4981 92.8812 67.2155 92.5879 67.8395C92.2946 68.4635 91.8839 68.9488 91.3559 69.2955C90.8279 69.6421 90.2279 69.8155 89.5559 69.8155C89.0119 69.8155 88.5212 69.7008 88.0839 69.4715C87.6466 69.2421 87.3106 68.9248 87.0759 68.5195V69.6875H84.6919V58.4075H87.1079V62.8875C87.3426 62.4928 87.6759 62.1861 88.1079 61.9675C88.5399 61.7488 89.0226 61.6395 89.5559 61.6395ZM88.8522 67.9755C89.4175 67.9755 89.8548 67.7755 90.1642 67.3755C90.4735 66.9755 90.6282 66.4128 90.6282 65.6875C90.6282 64.9728 90.4735 64.4262 90.1642 64.0475C89.8548 63.6688 89.4175 63.4795 88.8522 63.4795C88.2868 63.4795 87.8495 63.6742 87.5402 64.0635C87.2308 64.4528 87.0762 65.0048 87.0762 65.7195C87.0762 66.4448 87.2308 67.0022 87.5402 67.3915C87.8495 67.7808 88.2868 67.9755 88.8522 67.9755ZM98.2762 69.8154C97.4442 69.8154 96.7135 69.6474 96.0842 69.3114C95.4549 68.9754 94.9695 68.5007 94.6282 67.8874C94.2869 67.2741 94.1162 66.5514 94.1162 65.7194C94.1162 64.8874 94.2869 64.1647 94.6282 63.5514C94.9695 62.9381 95.4549 62.4661 96.0842 62.1354C96.7135 61.8047 97.4442 61.6394 98.2762 61.6394C99.1082 61.6394 99.8389 61.8047 100.468 62.1354C101.098 62.4661 101.583 62.9381 101.924 63.5514C102.266 64.1647 102.436 64.8874 102.436 65.7194C102.436 66.5514 102.266 67.2741 101.924 67.8874C101.583 68.5007 101.098 68.9754 100.468 69.3114C99.8389 69.6474 99.1082 69.8154 98.2762 69.8154ZM98.2761 67.9754C99.4495 67.9754 100.036 67.2234 100.036 65.7194C100.036 64.962 99.8841 64.3967 99.5801 64.0234C99.2761 63.65 98.8414 63.4634 98.2761 63.4634C97.1028 63.4634 96.5161 64.2154 96.5161 65.7194C96.5161 67.2234 97.1028 67.9754 98.2761 67.9754ZM107.284 69.8154C106.452 69.8154 105.721 69.6474 105.092 69.3114C104.463 68.9754 103.977 68.5008 103.636 67.8874C103.295 67.2741 103.124 66.5514 103.124 65.7194C103.124 64.8874 103.295 64.1648 103.636 63.5514C103.977 62.9381 104.463 62.4661 105.092 62.1354C105.721 61.8048 106.452 61.6394 107.284 61.6394C108.116 61.6394 108.847 61.8048 109.476 62.1354C110.105 62.4661 110.591 62.9381 110.932 63.5514C111.273 64.1648 111.444 64.8874 111.444 65.7194C111.444 66.5514 111.273 67.2741 110.932 67.8874C110.591 68.5008 110.105 68.9754 109.476 69.3114C108.847 69.6474 108.116 69.8154 107.284 69.8154ZM107.284 67.9754C108.457 67.9754 109.044 67.2234 109.044 65.7194C109.044 64.9621 108.892 64.3968 108.588 64.0234C108.284 63.6501 107.849 63.4634 107.284 63.4634C106.111 63.4634 105.524 64.2154 105.524 65.7194C105.524 67.2234 106.111 67.9754 107.284 67.9754ZM121 69.6875H118.04L115.032 66.1835V69.6875H112.616V58.4075H115.032V65.1915L117.928 61.8475H120.808L117.512 65.5915L121 69.6875Z" clip-rule="evenodd"/><path fill="#FF4785" d="M21.6203 72.4293L21.0007 55.9209C20.9803 55.3757 21.3983 54.9136 21.9428 54.8796L35.9844 54.002C36.5387 53.9674 37.0161 54.3886 37.0507 54.9429C37.052 54.9637 37.0527 54.9847 37.0527 55.0056V72.9945C37.0527 73.5498 36.6025 74 36.0471 74C36.0321 74 36.0171 73.9997 36.002 73.999L22.58 73.3962C22.0573 73.3727 21.6399 72.9522 21.6203 72.4293Z"/><path fill="#fff" fill-rule="evenodd" d="M34.8804 54.071L32.9479 54.1918L32.8536 56.4584C32.8522 56.4932 32.8629 56.5275 32.884 56.5553C32.9341 56.6213 33.0282 56.6342 33.0942 56.5841L33.9746 55.9162L34.7182 56.502C34.7461 56.524 34.7808 56.5354 34.8163 56.5341C34.8991 56.5312 34.9639 56.4618 34.961 56.379L34.8804 54.071ZM33.3763 61.661C33.0225 61.9358 30.3873 62.1233 30.3873 61.7321C30.443 60.2393 29.7747 60.1738 29.4034 60.1738C29.0507 60.1738 28.4566 60.2805 28.4566 61.0802C28.4566 61.8951 29.3248 62.3552 30.3438 62.8952C31.7914 63.6623 33.5433 64.5908 33.5433 66.927C33.5433 69.1662 31.724 70.4031 29.4034 70.4031C27.0085 70.4031 24.9157 69.4342 25.1521 66.075C25.2449 65.6806 28.2895 65.7743 28.2895 66.075C28.2524 67.4612 28.568 67.8689 29.3663 67.8689C29.9789 67.8689 30.2574 67.5312 30.2574 66.9625C30.2574 66.1019 29.3528 65.594 28.3122 65.0098C26.9032 64.2187 25.2449 63.2877 25.2449 61.1513C25.2449 59.0187 26.7115 57.597 29.3291 57.597C31.9468 57.597 33.3763 58.9969 33.3763 61.661Z" clip-rule="evenodd"/><g clip-path="url(#clip1_5691_88418)"><path fill="#7A858E" d="M216.586 62.5858C217.367 61.8047 218.633 61.8047 219.414 62.5858C219.994 63.1652 220.144 64.0124 219.862 64.7311C219.761 64.9882 219.888 65.2783 220.145 65.3791C220.402 65.4799 220.693 65.3531 220.793 65.096C221.215 64.0205 220.992 62.7491 220.121 61.8787C218.95 60.7071 217.05 60.7071 215.879 61.8787C214.707 63.0503 214.707 64.9497 215.879 66.1213C216.749 66.9917 218.021 67.2148 219.096 66.7933C219.353 66.6926 219.48 66.4025 219.379 66.1454C219.278 65.8882 218.988 65.7615 218.731 65.8622C218.012 66.1439 217.165 65.9936 216.586 65.4142C215.805 64.6332 215.805 63.3668 216.586 62.5858Z"/><path fill="#7A858E" fill-rule="evenodd" d="M211.939 63.5268C212.066 63.6547 212.128 63.8236 212.124 63.9912C212.128 64.1591 212.067 64.3281 211.939 64.4562L211 65.3948C211.186 66.3309 211.554 67.2011 212.067 67.9667H213.388C213.569 67.9667 213.732 68.0426 213.848 68.1639C213.969 68.2799 214.045 68.4429 214.045 68.6239L214.045 69.9412C214.807 70.4495 215.672 70.8151 216.602 71L217.542 70.06C217.666 69.9355 217.829 69.8738 217.992 69.8738L218.007 69.8739L218.021 69.8738C218.184 69.8738 218.347 69.9355 218.471 70.06L219.41 70.9981C220.336 70.8126 221.198 70.4477 221.957 69.9413V68.6092C221.957 68.428 222.032 68.2649 222.154 68.1489C222.27 68.0277 222.433 67.9519 222.614 67.952L223.945 67.9519C224.451 67.192 224.815 66.3297 225 65.4024L224.054 64.4562C223.926 64.3281 223.864 64.1591 223.868 63.9912C223.864 63.8236 223.926 63.6547 224.054 63.5268L224.997 62.5831C224.813 61.6665 224.453 60.8136 223.953 60.0607L222.614 60.0607C222.433 60.0607 222.27 59.9849 222.154 59.8637C222.032 59.7477 221.957 59.5846 221.957 59.4034V58.058C221.199 57.5522 220.338 57.1876 219.413 57.0019L218.471 57.9439C218.347 58.0684 218.184 58.1301 218.021 58.1301L218.007 58.1299L217.992 58.1301C217.829 58.1301 217.666 58.0684 217.542 57.9439L216.598 57C215.669 57.1851 214.806 57.5504 214.045 58.058L214.045 59.3888C214.045 59.5697 213.969 59.7327 213.848 59.8487C213.732 59.9701 213.569 60.046 213.388 60.046H212.058C211.552 60.8045 211.188 61.6653 211.003 62.5908L211.939 63.5268ZM212.646 65.1632C212.97 64.8387 213.128 64.4114 213.125 63.9909C213.128 63.5709 212.97 63.144 212.646 62.8197L212.107 62.2812C212.233 61.8479 212.406 61.4342 212.62 61.046H213.388C213.847 61.046 214.261 60.8555 214.555 60.5556C214.855 60.2612 215.045 59.8476 215.045 59.3888L215.045 58.6195C215.435 58.4044 215.852 58.2307 216.288 58.1041L216.835 58.6507C217.155 58.9718 217.577 59.1301 217.992 59.1301L218.007 59.13L218.021 59.1301C218.436 59.1301 218.857 58.9721 219.178 58.6511L219.723 58.1067C220.156 58.233 220.569 58.4058 220.957 58.6194V59.4034C220.957 59.8626 221.147 60.2766 221.447 60.5712C221.741 60.8704 222.155 61.0607 222.614 61.0607L223.39 61.0607C223.599 61.4426 223.768 61.8488 223.892 62.2741L223.347 62.8195C223.023 63.1439 222.864 63.5711 222.868 63.9909C222.864 64.4112 223.022 64.8386 223.347 65.1633L223.896 65.7125C223.77 66.1474 223.597 66.5624 223.383 66.9519L222.614 66.952C222.155 66.9519 221.741 67.142 221.447 67.4415C221.147 67.7361 220.957 68.15 220.957 68.6092V69.3798C220.568 69.594 220.153 69.7672 219.719 69.8935L219.179 69.3532C218.858 69.0322 218.436 68.8738 218.021 68.8738L218.007 68.8738L217.992 68.8738C217.577 68.8738 217.155 69.0319 216.835 69.3531L216.292 69.8961C215.854 69.7695 215.436 69.5955 215.045 69.3797L215.045 68.6242C215.045 68.1655 214.855 67.7514 214.555 67.457C214.261 67.1571 213.847 66.9667 213.388 66.9667H212.627C212.408 66.5708 212.231 66.1484 212.104 65.7054L212.646 65.1632Z" clip-rule="evenodd"/></g><g clip-path="url(#clip2_5691_88418)"><path fill="#7A858E" fill-rule="evenodd" d="M41.1809 113.748C40.3604 114.44 39.3004 114.857 38.143 114.857C35.5394 114.857 33.4287 112.746 33.4287 110.143C33.4287 107.539 35.5394 105.428 38.143 105.428C40.7466 105.428 42.8573 107.539 42.8573 110.143C42.8573 111.3 42.4402 112.36 41.7481 113.181C41.7939 113.201 41.8369 113.231 41.8746 113.268L44.446 115.84C44.6134 116.007 44.6134 116.278 44.446 116.446C44.2787 116.613 44.0073 116.613 43.8399 116.446L41.2685 113.874C41.2308 113.837 41.2016 113.794 41.1809 113.748ZM42.0001 110.143C42.0001 112.273 40.2732 114 38.143 114C36.0128 114 34.2859 112.273 34.2859 110.143C34.2859 108.013 36.0128 106.286 38.143 106.286C40.2732 106.286 42.0001 108.013 42.0001 110.143Z" clip-rule="evenodd"/></g><text fill="#7A858E" font-family="'Nunito Sans', 'Helvetica Neue', Helvetica, Arial, sans-serif" font-size="13" letter-spacing="0em" xml:space="preserve" style="white-space:pre"><tspan x="51" y="115.277">Find by name</tspan></text><rect width="16" height="16" x="200" y="103" fill="#000" fill-opacity=".05" rx="3"/><text fill="#666" font-family="-apple-system, BlinkMacSystemFont, 'avenir next', avenir, 'helvetica neue', helvetica, ubuntu, roboto, noto, 'segoe ui', arial, sans-serif" font-size="10" letter-spacing="0" xml:space="preserve" style="white-space:pre"><tspan x="206.335" y="114.695">/</tspan></text><rect width="210" height="31" x="21.5" y="95.5" stroke="#E1E5E8" rx="15.5"/><path fill="#FFAE00" d="M25.5716 157.574C25.3743 157.574 25.2144 157.734 25.2144 157.931C25.2144 158.129 25.3743 158.288 25.5716 158.288H28.4287C28.626 158.288 28.7859 158.129 28.7859 157.931C28.7859 157.734 28.626 157.574 28.4287 157.574H25.5716Z"/><path fill="#FFAE00" d="M25.5716 159.003C25.3743 159.003 25.2144 159.163 25.2144 159.36C25.2144 159.557 25.3743 159.717 25.5716 159.717H28.4287C28.626 159.717 28.7859 159.557 28.7859 159.36C28.7859 159.163 28.626 159.003 28.4287 159.003H25.5716Z"/><path fill="#FFAE00" d="M25.2144 160.788C25.2144 160.591 25.3743 160.431 25.5716 160.431H28.4287C28.626 160.431 28.7859 160.591 28.7859 160.788C28.7859 160.986 28.626 161.146 28.4287 161.146H25.5716C25.3743 161.146 25.2144 160.986 25.2144 160.788Z"/><path fill="#FFAE00" fill-rule="evenodd" d="M28.7858 154.717C28.8465 154.717 28.9073 154.732 28.9617 154.763C28.9774 154.772 28.9925 154.782 29.007 154.794C29.019 154.803 29.0303 154.813 29.0409 154.824L30.4644 156.248C30.5305 156.313 30.5716 156.403 30.5716 156.503L30.5715 156.507L30.5716 162.931C30.5716 163.129 30.4117 163.288 30.2144 163.288H23.7859C23.5886 163.288 23.4287 163.129 23.4287 162.931V155.074C23.4287 154.877 23.5886 154.717 23.7859 154.717H28.7858ZM24.143 162.574V155.431H28.4287V156.503C28.4287 156.7 28.5886 156.86 28.7859 156.86H29.8573V162.574H24.143Z" clip-rule="evenodd"/><text fill="#333" font-family="'Nunito Sans', 'Helvetica Neue', Helvetica, Arial, sans-serif" font-size="13" letter-spacing="0em" xml:space="preserve" style="white-space:pre"><tspan x="37" y="163.277">Introduction</tspan></text><path fill="#FFAE00" d="M25.5716 181.574C25.3743 181.574 25.2144 181.734 25.2144 181.931C25.2144 182.129 25.3743 182.288 25.5716 182.288H28.4287C28.626 182.288 28.7859 182.129 28.7859 181.931C28.7859 181.734 28.626 181.574 28.4287 181.574H25.5716Z"/><path fill="#FFAE00" d="M25.5716 183.003C25.3743 183.003 25.2144 183.163 25.2144 183.36C25.2144 183.557 25.3743 183.717 25.5716 183.717H28.4287C28.626 183.717 28.7859 183.557 28.7859 183.36C28.7859 183.163 28.626 183.003 28.4287 183.003H25.5716Z"/><path fill="#FFAE00" d="M25.2144 184.788C25.2144 184.591 25.3743 184.431 25.5716 184.431H28.4287C28.626 184.431 28.7859 184.591 28.7859 184.788C28.7859 184.986 28.626 185.146 28.4287 185.146H25.5716C25.3743 185.146 25.2144 184.986 25.2144 184.788Z"/><path fill="#FFAE00" fill-rule="evenodd" d="M28.7858 178.717C28.8465 178.717 28.9073 178.732 28.9617 178.763C28.9774 178.772 28.9925 178.782 29.007 178.794C29.019 178.803 29.0303 178.813 29.0409 178.824L30.4644 180.248C30.5305 180.313 30.5716 180.403 30.5716 180.503L30.5715 180.507L30.5716 186.931C30.5716 187.129 30.4117 187.288 30.2144 187.288H23.7859C23.5886 187.288 23.4287 187.129 23.4287 186.931V179.074C23.4287 178.877 23.5886 178.717 23.7859 178.717H28.7858ZM24.143 186.574V179.431H28.4287V180.503C28.4287 180.7 28.5886 180.86 28.7859 180.86H29.8573V186.574H24.143Z" clip-rule="evenodd"/><text fill="#333" font-family="'Nunito Sans', 'Helvetica Neue', Helvetica, Arial, sans-serif" font-size="13" letter-spacing="0em" xml:space="preserve" style="white-space:pre"><tspan x="37" y="187.277">Setup and configure</tspan></text><path fill="#FFAE00" d="M25.5716 205.574C25.3743 205.574 25.2144 205.734 25.2144 205.931C25.2144 206.129 25.3743 206.288 25.5716 206.288H28.4287C28.626 206.288 28.7859 206.129 28.7859 205.931C28.7859 205.734 28.626 205.574 28.4287 205.574H25.5716Z"/><path fill="#FFAE00" d="M25.5716 207.003C25.3743 207.003 25.2144 207.163 25.2144 207.36C25.2144 207.557 25.3743 207.717 25.5716 207.717H28.4287C28.626 207.717 28.7859 207.557 28.7859 207.36C28.7859 207.163 28.626 207.003 28.4287 207.003H25.5716Z"/><path fill="#FFAE00" d="M25.2144 208.788C25.2144 208.591 25.3743 208.431 25.5716 208.431H28.4287C28.626 208.431 28.7859 208.591 28.7859 208.788C28.7859 208.986 28.626 209.146 28.4287 209.146H25.5716C25.3743 209.146 25.2144 208.986 25.2144 208.788Z"/><path fill="#FFAE00" fill-rule="evenodd" d="M28.7858 202.717C28.8465 202.717 28.9073 202.732 28.9617 202.763C28.9774 202.772 28.9925 202.782 29.007 202.794C29.019 202.803 29.0303 202.813 29.0409 202.824L30.4644 204.248C30.5305 204.313 30.5716 204.403 30.5716 204.503L30.5715 204.507L30.5716 210.931C30.5716 211.129 30.4117 211.288 30.2144 211.288H23.7859C23.5886 211.288 23.4287 211.129 23.4287 210.931V203.074C23.4287 202.877 23.5886 202.717 23.7859 202.717H28.7858ZM24.143 210.574V203.431H28.4287V204.503C28.4287 204.7 28.5886 204.86 28.7859 204.86H29.8573V210.574H24.143Z" clip-rule="evenodd"/><text fill="#333" font-family="'Nunito Sans', 'Helvetica Neue', Helvetica, Arial, sans-serif" font-size="13" letter-spacing="0em" xml:space="preserve" style="white-space:pre"><tspan x="37" y="211.277">Changelog</tspan></text><text fill="#7A858E" font-family="'Nunito Sans', 'Helvetica Neue', Helvetica, Arial, sans-serif" font-size="11" font-weight="800" letter-spacing=".38em" xml:space="preserve" style="white-space:pre"><tspan x="22" y="252.619">LIBRARY</tspan></text><g clip-path="url(#clip3_5691_88418)"><path fill="#7A858E" d="M227.202 245.084L229.488 247.369C229.599 247.481 229.599 247.662 229.488 247.773C229.376 247.885 229.195 247.885 229.084 247.773L227 245.69L224.916 247.773C224.805 247.885 224.624 247.885 224.512 247.773C224.401 247.662 224.401 247.481 224.512 247.369L226.798 245.084C226.91 244.972 227.091 244.972 227.202 245.084Z"/><path fill="#7A858E" d="M229.488 250.227C229.599 250.338 229.599 250.519 229.488 250.631L227.202 252.916C227.091 253.028 226.91 253.028 226.798 252.916L224.512 250.631C224.401 250.519 224.401 250.338 224.512 250.227C224.624 250.115 224.805 250.115 224.916 250.227L227 252.31L229.084 250.227C229.195 250.115 229.376 250.115 229.488 250.227Z"/></g><path fill="#7A858E" fill-opacity=".5" fill-rule="evenodd" d="M13 277L16.5 273.5H9.5L13 277Z" clip-rule="evenodd"/><path fill="#6F2CAC" fill-rule="evenodd" d="M26.7037 273.217L25.6323 272.146H23.4282V277.86H30.571V273.217H26.7037ZM26.9996 272.503L26.1374 271.641C26.0034 271.507 25.8217 271.431 25.6323 271.431H23.071C22.8738 271.431 22.7139 271.591 22.7139 271.789V278.217C22.7139 278.414 22.8738 278.574 23.071 278.574H30.9282C31.1254 278.574 31.2853 278.414 31.2853 278.217V272.86C31.2853 272.663 31.1254 272.503 30.9282 272.503H26.9996Z" clip-rule="evenodd"/><text fill="#333" font-family="'Nunito Sans', 'Helvetica Neue', Helvetica, Arial, sans-serif" font-size="13" letter-spacing="0em" xml:space="preserve" style="white-space:pre"><tspan x="37" y="279.277">Charts</tspan></text><path fill="#7A858E" fill-opacity=".5" fill-rule="evenodd" d="M31.1875 299L27.6875 295.5V302.5L31.1875 299Z" clip-rule="evenodd"/><g clip-path="url(#clip4_5691_88418)"><path fill="#1EA7FD" fill-rule="evenodd" d="M40.4996 294.717C39.5134 294.717 38.7139 295.517 38.7139 296.503V301.503C38.7139 302.489 39.5134 303.288 40.4996 303.288H45.4996C46.4858 303.288 47.2853 302.489 47.2853 301.503V296.503C47.2853 295.517 46.4858 294.717 45.4996 294.717H40.4996ZM46.571 298.646H43.3567V295.431H45.4996C46.0913 295.431 46.571 295.911 46.571 296.503V298.646ZM46.571 299.36V301.503C46.571 302.094 46.0913 302.574 45.4996 302.574H43.3567V299.36H46.571ZM42.6424 302.574V299.36H39.4282V301.503C39.4282 302.094 39.9078 302.574 40.4996 302.574H42.6424ZM39.4282 298.646H42.6424V295.431H40.4996C39.9078 295.431 39.4282 295.911 39.4282 296.503V298.646Z" clip-rule="evenodd"/></g><text fill="#333" font-family="'Nunito Sans', 'Helvetica Neue', Helvetica, Arial, sans-serif" font-size="13" letter-spacing="0em" xml:space="preserve" style="white-space:pre"><tspan x="53" y="303.277">PieChart</tspan></text><path fill="#7A858E" fill-opacity=".5" fill-rule="evenodd" d="M31.1875 323L27.6875 319.5V326.5L31.1875 323Z" clip-rule="evenodd"/><g clip-path="url(#clip5_5691_88418)"><path fill="#1EA7FD" fill-rule="evenodd" d="M40.4996 318.717C39.5134 318.717 38.7139 319.517 38.7139 320.503V325.503C38.7139 326.489 39.5134 327.288 40.4996 327.288H45.4996C46.4858 327.288 47.2853 326.489 47.2853 325.503V320.503C47.2853 319.517 46.4858 318.717 45.4996 318.717H40.4996ZM46.571 322.646H43.3567V319.431H45.4996C46.0913 319.431 46.571 319.911 46.571 320.503V322.646ZM46.571 323.36V325.503C46.571 326.094 46.0913 326.574 45.4996 326.574H43.3567V323.36H46.571ZM42.6424 326.574V323.36H39.4282V325.503C39.4282 326.094 39.9078 326.574 40.4996 326.574H42.6424ZM39.4282 322.646H42.6424V319.431H40.4996C39.9078 319.431 39.4282 319.911 39.4282 320.503V322.646Z" clip-rule="evenodd"/></g><text fill="#333" font-family="'Nunito Sans', 'Helvetica Neue', Helvetica, Arial, sans-serif" font-size="13" letter-spacing="0em" xml:space="preserve" style="white-space:pre"><tspan x="53" y="327.277">SparkLine</tspan></text><path fill="#7A858E" fill-opacity=".5" fill-rule="evenodd" d="M31.1875 347L27.6875 343.5V350.5L31.1875 347Z" clip-rule="evenodd"/><g clip-path="url(#clip6_5691_88418)"><path fill="#1EA7FD" fill-rule="evenodd" d="M40.4996 342.717C39.5134 342.717 38.7139 343.517 38.7139 344.503V349.503C38.7139 350.489 39.5134 351.288 40.4996 351.288H45.4996C46.4858 351.288 47.2853 350.489 47.2853 349.503V344.503C47.2853 343.517 46.4858 342.717 45.4996 342.717H40.4996ZM46.571 346.646H43.3567V343.431H45.4996C46.0913 343.431 46.571 343.911 46.571 344.503V346.646ZM46.571 347.36V349.503C46.571 350.094 46.0913 350.574 45.4996 350.574H43.3567V347.36H46.571ZM42.6424 350.574V347.36H39.4282V349.503C39.4282 350.094 39.9078 350.574 40.4996 350.574H42.6424ZM39.4282 346.646H42.6424V343.431H40.4996C39.9078 343.431 39.4282 343.911 39.4282 344.503V346.646Z" clip-rule="evenodd"/></g><text fill="#333" font-family="'Nunito Sans', 'Helvetica Neue', Helvetica, Arial, sans-serif" font-size="13" letter-spacing="0em" xml:space="preserve" style="white-space:pre"><tspan x="53" y="351.277">RangeSlider</tspan></text><rect width="251" height="24" fill="#F6F9FC" transform="translate(1 335)"/><path fill="#7A858E" fill-opacity=".5" fill-rule="evenodd" d="M29 349L32.5 345.5H25.5L29 349Z" clip-rule="evenodd"/><g clip-path="url(#clip7_5691_88418)"><path fill="#1EA7FD" fill-rule="evenodd" d="M40.4996 342.717C39.5134 342.717 38.7139 343.517 38.7139 344.503V349.503C38.7139 350.489 39.5134 351.288 40.4996 351.288H45.4996C46.4858 351.288 47.2853 350.489 47.2853 349.503V344.503C47.2853 343.517 46.4858 342.717 45.4996 342.717H40.4996ZM46.571 346.646H43.3567V343.431H45.4996C46.0913 343.431 46.571 343.911 46.571 344.503V346.646ZM46.571 347.36V349.503C46.571 350.094 46.0913 350.574 45.4996 350.574H43.3567V347.36H46.571ZM42.6424 350.574V347.36H39.4282V349.503C39.4282 350.094 39.9078 350.574 40.4996 350.574H42.6424ZM39.4282 346.646H42.6424V343.431H40.4996C39.9078 343.431 39.4282 343.911 39.4282 344.503V346.646Z" clip-rule="evenodd"/></g><text fill="#333" font-family="'Nunito Sans', 'Helvetica Neue', Helvetica, Arial, sans-serif" font-size="13" letter-spacing="0em" xml:space="preserve" style="white-space:pre"><tspan x="53" y="351.277">RangeSlider</tspan></text><path fill="#FFAE00" d="M58.5716 369.574C58.3743 369.574 58.2144 369.734 58.2144 369.931C58.2144 370.129 58.3743 370.288 58.5716 370.288H61.4287C61.626 370.288 61.7859 370.129 61.7859 369.931C61.7859 369.734 61.626 369.574 61.4287 369.574H58.5716Z"/><path fill="#FFAE00" d="M58.5716 371.003C58.3743 371.003 58.2144 371.163 58.2144 371.36C58.2144 371.557 58.3743 371.717 58.5716 371.717H61.4287C61.626 371.717 61.7859 371.557 61.7859 371.36C61.7859 371.163 61.626 371.003 61.4287 371.003H58.5716Z"/><path fill="#FFAE00" d="M58.2144 372.788C58.2144 372.591 58.3743 372.431 58.5716 372.431H61.4287C61.626 372.431 61.7859 372.591 61.7859 372.788C61.7859 372.986 61.626 373.146 61.4287 373.146H58.5716C58.3743 373.146 58.2144 372.986 58.2144 372.788Z"/><path fill="#FFAE00" fill-rule="evenodd" d="M61.7858 366.717C61.8465 366.717 61.9073 366.732 61.9617 366.763C61.9774 366.772 61.9925 366.782 62.007 366.794C62.019 366.803 62.0303 366.813 62.0409 366.824L63.4644 368.248C63.5305 368.313 63.5716 368.403 63.5716 368.503L63.5715 368.507L63.5716 374.931C63.5716 375.129 63.4117 375.288 63.2144 375.288H56.7859C56.5886 375.288 56.4287 375.129 56.4287 374.931V367.074C56.4287 366.877 56.5886 366.717 56.7859 366.717H61.7858ZM57.143 374.574V367.431H61.4287V368.503C61.4287 368.7 61.5886 368.86 61.7859 368.86H62.8573V374.574H57.143Z" clip-rule="evenodd"/><text fill="#333" font-family="'Nunito Sans', 'Helvetica Neue', Helvetica, Arial, sans-serif" font-size="13" letter-spacing="0em" xml:space="preserve" style="white-space:pre"><tspan x="70" y="375.277">Overview</tspan></text><path fill="#FFAE00" d="M58.5716 369.574C58.3743 369.574 58.2144 369.734 58.2144 369.931C58.2144 370.129 58.3743 370.288 58.5716 370.288H61.4287C61.626 370.288 61.7859 370.129 61.7859 369.931C61.7859 369.734 61.626 369.574 61.4287 369.574H58.5716Z"/><path fill="#FFAE00" d="M58.5716 371.003C58.3743 371.003 58.2144 371.163 58.2144 371.36C58.2144 371.557 58.3743 371.717 58.5716 371.717H61.4287C61.626 371.717 61.7859 371.557 61.7859 371.36C61.7859 371.163 61.626 371.003 61.4287 371.003H58.5716Z"/><path fill="#FFAE00" d="M58.2144 372.788C58.2144 372.591 58.3743 372.431 58.5716 372.431H61.4287C61.626 372.431 61.7859 372.591 61.7859 372.788C61.7859 372.986 61.626 373.146 61.4287 373.146H58.5716C58.3743 373.146 58.2144 372.986 58.2144 372.788Z"/><path fill="#FFAE00" fill-rule="evenodd" d="M61.7858 366.717C61.8465 366.717 61.9073 366.732 61.9617 366.763C61.9774 366.772 61.9925 366.782 62.007 366.794C62.019 366.803 62.0303 366.813 62.0409 366.824L63.4644 368.248C63.5305 368.313 63.5716 368.403 63.5716 368.503L63.5715 368.507L63.5716 374.931C63.5716 375.129 63.4117 375.288 63.2144 375.288H56.7859C56.5886 375.288 56.4287 375.129 56.4287 374.931V367.074C56.4287 366.877 56.5886 366.717 56.7859 366.717H61.7858ZM57.143 374.574V367.431H61.4287V368.503C61.4287 368.7 61.5886 368.86 61.7859 368.86H62.8573V374.574H57.143Z" clip-rule="evenodd"/><text fill="#333" font-family="'Nunito Sans', 'Helvetica Neue', Helvetica, Arial, sans-serif" font-size="13" letter-spacing="0em" xml:space="preserve" style="white-space:pre"><tspan x="70" y="375.277">Overview</tspan></text><path fill="#37D5D3" fill-rule="evenodd" d="M57.1426 391.071C57.1426 390.874 57.3025 390.714 57.4997 390.714H62.4997C62.697 390.714 62.8569 390.874 62.8569 391.071V399.643C62.8569 399.643 62.8569 399.644 62.8569 399.645C62.8566 399.693 62.847 399.738 62.8298 399.78C62.8123 399.822 62.7865 399.861 62.7523 399.895C62.718 399.93 62.6786 399.956 62.6364 399.973C62.5949 399.99 62.5495 400 62.5019 400C62.5012 400 62.5004 400 62.4997 400C62.499 400 62.4983 400 62.4976 400C62.4069 400 62.3164 399.965 62.2472 399.895L59.9997 397.648L57.7523 399.895C57.6831 399.965 57.5925 400 57.5019 400L57.4997 400L57.4976 400C57.4499 400 57.4045 399.99 57.363 399.973C57.3209 399.956 57.2814 399.93 57.2472 399.895C57.2129 399.861 57.1871 399.822 57.1697 399.78C57.1522 399.738 57.1426 399.691 57.1426 399.643V391.071ZM59.7472 396.89C59.8867 396.751 60.1128 396.751 60.2523 396.89L62.1426 398.781V391.429H57.8569V398.781L59.7472 396.89Z" clip-rule="evenodd"/><text fill="#333" font-family="'Nunito Sans', 'Helvetica Neue', Helvetica, Arial, sans-serif" font-size="13" letter-spacing="0em" xml:space="preserve" style="white-space:pre"><tspan x="70" y="399.277">Default</tspan></text><path fill="#37D5D3" fill-rule="evenodd" d="M57.1426 391.071C57.1426 390.874 57.3025 390.714 57.4997 390.714H62.4997C62.697 390.714 62.8569 390.874 62.8569 391.071V399.643C62.8569 399.643 62.8569 399.644 62.8569 399.645C62.8566 399.693 62.847 399.738 62.8298 399.78C62.8123 399.822 62.7865 399.861 62.7523 399.895C62.718 399.93 62.6786 399.956 62.6364 399.973C62.5949 399.99 62.5495 400 62.5019 400C62.5012 400 62.5004 400 62.4997 400C62.499 400 62.4983 400 62.4976 400C62.4069 400 62.3164 399.965 62.2472 399.895L59.9997 397.648L57.7523 399.895C57.6831 399.965 57.5925 400 57.5019 400L57.4997 400L57.4976 400C57.4499 400 57.4045 399.99 57.363 399.973C57.3209 399.956 57.2814 399.93 57.2472 399.895C57.2129 399.861 57.1871 399.822 57.1697 399.78C57.1522 399.738 57.1426 399.691 57.1426 399.643V391.071ZM59.7472 396.89C59.8867 396.751 60.1128 396.751 60.2523 396.89L62.1426 398.781V391.429H57.8569V398.781L59.7472 396.89Z" clip-rule="evenodd"/><text fill="#333" font-family="'Nunito Sans', 'Helvetica Neue', Helvetica, Arial, sans-serif" font-size="13" letter-spacing="0em" xml:space="preserve" style="white-space:pre"><tspan x="70" y="399.277">Default</tspan></text><path fill="#37D5D3" fill-rule="evenodd" d="M57.1426 415.071C57.1426 414.874 57.3025 414.714 57.4997 414.714H62.4997C62.697 414.714 62.8569 414.874 62.8569 415.071V423.643C62.8569 423.643 62.8569 423.644 62.8569 423.645C62.8566 423.693 62.847 423.738 62.8298 423.78C62.8123 423.822 62.7865 423.861 62.7523 423.895C62.718 423.93 62.6786 423.956 62.6364 423.973C62.5949 423.99 62.5495 424 62.5019 424C62.5012 424 62.5004 424 62.4997 424C62.499 424 62.4983 424 62.4976 424C62.4069 424 62.3164 423.965 62.2472 423.895L59.9997 421.648L57.7523 423.895C57.6831 423.965 57.5925 424 57.5019 424L57.4997 424L57.4976 424C57.4499 424 57.4045 423.99 57.363 423.973C57.3209 423.956 57.2814 423.93 57.2472 423.895C57.2129 423.861 57.1871 423.822 57.1697 423.78C57.1522 423.738 57.1426 423.691 57.1426 423.643V415.071ZM59.7472 420.89C59.8867 420.751 60.1128 420.751 60.2523 420.89L62.1426 422.781V415.429H57.8569V422.781L59.7472 420.89Z" clip-rule="evenodd"/><text fill="#333" font-family="'Nunito Sans', 'Helvetica Neue', Helvetica, Arial, sans-serif" font-size="13" letter-spacing="0em" xml:space="preserve" style="white-space:pre"><tspan x="70" y="423.277">No selection</tspan></text><rect width="251" height="24" fill="#1EA7FD" transform="translate(1 407)"/><path fill="#fff" fill-rule="evenodd" d="M57.1426 415.071C57.1426 414.874 57.3025 414.714 57.4997 414.714H62.4997C62.697 414.714 62.8569 414.874 62.8569 415.071V423.643C62.8569 423.643 62.8569 423.644 62.8569 423.645C62.8566 423.693 62.847 423.738 62.8298 423.78C62.8123 423.822 62.7865 423.861 62.7523 423.895C62.718 423.93 62.6786 423.956 62.6364 423.973C62.5949 423.99 62.5495 424 62.5019 424C62.5012 424 62.5004 424 62.4997 424C62.499 424 62.4983 424 62.4976 424C62.4069 424 62.3164 423.965 62.2472 423.895L59.9997 421.648L57.7523 423.895C57.6831 423.965 57.5925 424 57.5019 424L57.4997 424L57.4976 424C57.4499 424 57.4045 423.99 57.363 423.973C57.3209 423.956 57.2814 423.93 57.2472 423.895C57.2129 423.861 57.1871 423.822 57.1697 423.78C57.1522 423.738 57.1426 423.691 57.1426 423.643V415.071ZM59.7472 420.89C59.8867 420.751 60.1128 420.751 60.2523 420.89L62.1426 422.781V415.429H57.8569V422.781L59.7472 420.89Z" clip-rule="evenodd"/><text fill="#fff" font-family="'Nunito Sans', 'Helvetica Neue', Helvetica, Arial, sans-serif" font-size="13" font-weight="bold" letter-spacing="0em" xml:space="preserve" style="white-space:pre"><tspan x="70" y="423.277">No selection</tspan></text><path fill="#37D5D3" fill-rule="evenodd" d="M57.1426 439.071C57.1426 438.874 57.3025 438.714 57.4997 438.714H62.4997C62.697 438.714 62.8569 438.874 62.8569 439.071V447.643C62.8569 447.643 62.8569 447.644 62.8569 447.645C62.8566 447.693 62.847 447.738 62.8298 447.78C62.8123 447.822 62.7865 447.861 62.7523 447.895C62.718 447.93 62.6786 447.956 62.6364 447.973C62.5949 447.99 62.5495 448 62.5019 448C62.5012 448 62.5004 448 62.4997 448C62.499 448 62.4983 448 62.4976 448C62.4069 448 62.3164 447.965 62.2472 447.895L59.9997 445.648L57.7523 447.895C57.6831 447.965 57.5925 448 57.5019 448L57.4997 448L57.4976 448C57.4499 448 57.4045 447.99 57.363 447.973C57.3209 447.956 57.2814 447.93 57.2472 447.895C57.2129 447.861 57.1871 447.822 57.1697 447.78C57.1522 447.738 57.1426 447.691 57.1426 447.643V439.071ZM59.7472 444.89C59.8867 444.751 60.1128 444.751 60.2523 444.89L62.1426 446.781V439.429H57.8569V446.781L59.7472 444.89Z" clip-rule="evenodd"/><text fill="#333" font-family="'Nunito Sans', 'Helvetica Neue', Helvetica, Arial, sans-serif" font-size="13" letter-spacing="0em" xml:space="preserve" style="white-space:pre"><tspan x="70" y="447.277">Input range</tspan></text><path fill="#37D5D3" fill-rule="evenodd" d="M57.1426 439.071C57.1426 438.874 57.3025 438.714 57.4997 438.714H62.4997C62.697 438.714 62.8569 438.874 62.8569 439.071V447.643C62.8569 447.643 62.8569 447.644 62.8569 447.645C62.8566 447.693 62.847 447.738 62.8298 447.78C62.8123 447.822 62.7865 447.861 62.7523 447.895C62.718 447.93 62.6786 447.956 62.6364 447.973C62.5949 447.99 62.5495 448 62.5019 448C62.5012 448 62.5004 448 62.4997 448C62.499 448 62.4983 448 62.4976 448C62.4069 448 62.3164 447.965 62.2472 447.895L59.9997 445.648L57.7523 447.895C57.6831 447.965 57.5925 448 57.5019 448L57.4997 448L57.4976 448C57.4499 448 57.4045 447.99 57.363 447.973C57.3209 447.956 57.2814 447.93 57.2472 447.895C57.2129 447.861 57.1871 447.822 57.1697 447.78C57.1522 447.738 57.1426 447.691 57.1426 447.643V439.071ZM59.7472 444.89C59.8867 444.751 60.1128 444.751 60.2523 444.89L62.1426 446.781V439.429H57.8569V446.781L59.7472 444.89Z" clip-rule="evenodd"/><text fill="#333" font-family="'Nunito Sans', 'Helvetica Neue', Helvetica, Arial, sans-serif" font-size="13" letter-spacing="0em" xml:space="preserve" style="white-space:pre"><tspan x="70" y="447.277">Input range</tspan></text><path fill="#7A858E" fill-opacity=".5" fill-rule="evenodd" d="M31.1875 467L27.6875 463.5V470.5L31.1875 467Z" clip-rule="evenodd"/><g clip-path="url(#clip8_5691_88418)"><path fill="#1EA7FD" fill-rule="evenodd" d="M40.4996 462.717C39.5134 462.717 38.7139 463.517 38.7139 464.503V469.503C38.7139 470.489 39.5134 471.288 40.4996 471.288H45.4996C46.4858 471.288 47.2853 470.489 47.2853 469.503V464.503C47.2853 463.517 46.4858 462.717 45.4996 462.717H40.4996ZM46.571 466.646H43.3567V463.431H45.4996C46.0913 463.431 46.571 463.911 46.571 464.503V466.646ZM46.571 467.36V469.503C46.571 470.094 46.0913 470.574 45.4996 470.574H43.3567V467.36H46.571ZM42.6424 470.574V467.36H39.4282V469.503C39.4282 470.094 39.9078 470.574 40.4996 470.574H42.6424ZM39.4282 466.646H42.6424V463.431H40.4996C39.9078 463.431 39.4282 463.911 39.4282 464.503V466.646Z" clip-rule="evenodd"/></g><text fill="#333" font-family="'Nunito Sans', 'Helvetica Neue', Helvetica, Arial, sans-serif" font-size="13" letter-spacing="0em" xml:space="preserve" style="white-space:pre"><tspan x="53" y="471.277">TimeFrame</tspan></text><rect width="251" height="24" fill="#F6F9FC" transform="translate(1 455)"/><path fill="#7A858E" fill-opacity=".5" fill-rule="evenodd" d="M29 469L32.5 465.5H25.5L29 469Z" clip-rule="evenodd"/><g clip-path="url(#clip9_5691_88418)"><path fill="#1EA7FD" fill-rule="evenodd" d="M40.4996 462.717C39.5134 462.717 38.7139 463.517 38.7139 464.503V469.503C38.7139 470.489 39.5134 471.288 40.4996 471.288H45.4996C46.4858 471.288 47.2853 470.489 47.2853 469.503V464.503C47.2853 463.517 46.4858 462.717 45.4996 462.717H40.4996ZM46.571 466.646H43.3567V463.431H45.4996C46.0913 463.431 46.571 463.911 46.571 464.503V466.646ZM46.571 467.36V469.503C46.571 470.094 46.0913 470.574 45.4996 470.574H43.3567V467.36H46.571ZM42.6424 470.574V467.36H39.4282V469.503C39.4282 470.094 39.9078 470.574 40.4996 470.574H42.6424ZM39.4282 466.646H42.6424V463.431H40.4996C39.9078 463.431 39.4282 463.911 39.4282 464.503V466.646Z" clip-rule="evenodd"/></g><text fill="#333" font-family="'Nunito Sans', 'Helvetica Neue', Helvetica, Arial, sans-serif" font-size="13" letter-spacing="0em" xml:space="preserve" style="white-space:pre"><tspan x="53" y="471.277">TimeFrame</tspan></text><path fill="#FFAE00" d="M58.5716 489.574C58.3743 489.574 58.2144 489.734 58.2144 489.931C58.2144 490.129 58.3743 490.288 58.5716 490.288H61.4287C61.626 490.288 61.7859 490.129 61.7859 489.931C61.7859 489.734 61.626 489.574 61.4287 489.574H58.5716Z"/><path fill="#FFAE00" d="M58.5716 491.003C58.3743 491.003 58.2144 491.163 58.2144 491.36C58.2144 491.557 58.3743 491.717 58.5716 491.717H61.4287C61.626 491.717 61.7859 491.557 61.7859 491.36C61.7859 491.163 61.626 491.003 61.4287 491.003H58.5716Z"/><path fill="#FFAE00" d="M58.2144 492.788C58.2144 492.591 58.3743 492.431 58.5716 492.431H61.4287C61.626 492.431 61.7859 492.591 61.7859 492.788C61.7859 492.986 61.626 493.146 61.4287 493.146H58.5716C58.3743 493.146 58.2144 492.986 58.2144 492.788Z"/><path fill="#FFAE00" fill-rule="evenodd" d="M61.7858 486.717C61.8465 486.717 61.9073 486.732 61.9617 486.763C61.9774 486.772 61.9925 486.782 62.007 486.794C62.019 486.803 62.0303 486.813 62.0409 486.824L63.4644 488.248C63.5305 488.313 63.5716 488.403 63.5716 488.503L63.5715 488.507L63.5716 494.931C63.5716 495.129 63.4117 495.288 63.2144 495.288H56.7859C56.5886 495.288 56.4287 495.129 56.4287 494.931V487.074C56.4287 486.877 56.5886 486.717 56.7859 486.717H61.7858ZM57.143 494.574V487.431H61.4287V488.503C61.4287 488.7 61.5886 488.86 61.7859 488.86H62.8573V494.574H57.143Z" clip-rule="evenodd"/><text fill="#333" font-family="'Nunito Sans', 'Helvetica Neue', Helvetica, Arial, sans-serif" font-size="13" letter-spacing="0em" xml:space="preserve" style="white-space:pre"><tspan x="70" y="495.277">Overview</tspan></text><path fill="#FFAE00" d="M58.5716 489.574C58.3743 489.574 58.2144 489.734 58.2144 489.931C58.2144 490.129 58.3743 490.288 58.5716 490.288H61.4287C61.626 490.288 61.7859 490.129 61.7859 489.931C61.7859 489.734 61.626 489.574 61.4287 489.574H58.5716Z"/><path fill="#FFAE00" d="M58.5716 491.003C58.3743 491.003 58.2144 491.163 58.2144 491.36C58.2144 491.557 58.3743 491.717 58.5716 491.717H61.4287C61.626 491.717 61.7859 491.557 61.7859 491.36C61.7859 491.163 61.626 491.003 61.4287 491.003H58.5716Z"/><path fill="#FFAE00" d="M58.2144 492.788C58.2144 492.591 58.3743 492.431 58.5716 492.431H61.4287C61.626 492.431 61.7859 492.591 61.7859 492.788C61.7859 492.986 61.626 493.146 61.4287 493.146H58.5716C58.3743 493.146 58.2144 492.986 58.2144 492.788Z"/><path fill="#FFAE00" fill-rule="evenodd" d="M61.7858 486.717C61.8465 486.717 61.9073 486.732 61.9617 486.763C61.9774 486.772 61.9925 486.782 62.007 486.794C62.019 486.803 62.0303 486.813 62.0409 486.824L63.4644 488.248C63.5305 488.313 63.5716 488.403 63.5716 488.503L63.5715 488.507L63.5716 494.931C63.5716 495.129 63.4117 495.288 63.2144 495.288H56.7859C56.5886 495.288 56.4287 495.129 56.4287 494.931V487.074C56.4287 486.877 56.5886 486.717 56.7859 486.717H61.7858ZM57.143 494.574V487.431H61.4287V488.503C61.4287 488.7 61.5886 488.86 61.7859 488.86H62.8573V494.574H57.143Z" clip-rule="evenodd"/><text fill="#333" font-family="'Nunito Sans', 'Helvetica Neue', Helvetica, Arial, sans-serif" font-size="13" letter-spacing="0em" xml:space="preserve" style="white-space:pre"><tspan x="70" y="495.277">Overview</tspan></text><path fill="#37D5D3" fill-rule="evenodd" d="M57.1426 511.071C57.1426 510.874 57.3025 510.714 57.4997 510.714H62.4997C62.697 510.714 62.8569 510.874 62.8569 511.071V519.643C62.8569 519.643 62.8569 519.644 62.8569 519.645C62.8566 519.693 62.847 519.738 62.8298 519.78C62.8123 519.822 62.7865 519.861 62.7523 519.895C62.718 519.93 62.6786 519.956 62.6364 519.973C62.5949 519.99 62.5495 520 62.5019 520C62.5012 520 62.5004 520 62.4997 520C62.499 520 62.4983 520 62.4976 520C62.4069 520 62.3164 519.965 62.2472 519.895L59.9997 517.648L57.7523 519.895C57.6831 519.965 57.5925 520 57.5019 520L57.4997 520L57.4976 520C57.4499 520 57.4045 519.99 57.363 519.973C57.3209 519.956 57.2814 519.93 57.2472 519.895C57.2129 519.861 57.1871 519.822 57.1697 519.78C57.1522 519.738 57.1426 519.691 57.1426 519.643V511.071ZM59.7472 516.89C59.8867 516.751 60.1128 516.751 60.2523 516.89L62.1426 518.781V511.429H57.8569V518.781L59.7472 516.89Z" clip-rule="evenodd"/><text fill="#333" font-family="'Nunito Sans', 'Helvetica Neue', Helvetica, Arial, sans-serif" font-size="13" letter-spacing="0em" xml:space="preserve" style="white-space:pre"><tspan x="70" y="519.277">No selection</tspan></text><path fill="#37D5D3" fill-rule="evenodd" d="M57.1426 511.071C57.1426 510.874 57.3025 510.714 57.4997 510.714H62.4997C62.697 510.714 62.8569 510.874 62.8569 511.071V519.643C62.8569 519.643 62.8569 519.644 62.8569 519.645C62.8566 519.693 62.847 519.738 62.8298 519.78C62.8123 519.822 62.7865 519.861 62.7523 519.895C62.718 519.93 62.6786 519.956 62.6364 519.973C62.5949 519.99 62.5495 520 62.5019 520C62.5012 520 62.5004 520 62.4997 520C62.499 520 62.4983 520 62.4976 520C62.4069 520 62.3164 519.965 62.2472 519.895L59.9997 517.648L57.7523 519.895C57.6831 519.965 57.5925 520 57.5019 520L57.4997 520L57.4976 520C57.4499 520 57.4045 519.99 57.363 519.973C57.3209 519.956 57.2814 519.93 57.2472 519.895C57.2129 519.861 57.1871 519.822 57.1697 519.78C57.1522 519.738 57.1426 519.691 57.1426 519.643V511.071ZM59.7472 516.89C59.8867 516.751 60.1128 516.751 60.2523 516.89L62.1426 518.781V511.429H57.8569V518.781L59.7472 516.89Z" clip-rule="evenodd"/><text fill="#333" font-family="'Nunito Sans', 'Helvetica Neue', Helvetica, Arial, sans-serif" font-size="13" letter-spacing="0em" xml:space="preserve" style="white-space:pre"><tspan x="70" y="519.277">No selection</tspan></text><path fill="#37D5D3" fill-rule="evenodd" d="M57.1426 535.071C57.1426 534.874 57.3025 534.714 57.4997 534.714H62.4997C62.697 534.714 62.8569 534.874 62.8569 535.071V543.643C62.8569 543.643 62.8569 543.644 62.8569 543.645C62.8566 543.693 62.847 543.738 62.8298 543.78C62.8123 543.822 62.7865 543.861 62.7523 543.895C62.718 543.93 62.6786 543.956 62.6364 543.973C62.5949 543.99 62.5495 544 62.5019 544C62.5012 544 62.5004 544 62.4997 544C62.499 544 62.4983 544 62.4976 544C62.4069 544 62.3164 543.965 62.2472 543.895L59.9997 541.648L57.7523 543.895C57.6831 543.965 57.5925 544 57.5019 544L57.4997 544L57.4976 544C57.4499 544 57.4045 543.99 57.363 543.973C57.3209 543.956 57.2814 543.93 57.2472 543.895C57.2129 543.861 57.1871 543.822 57.1697 543.78C57.1522 543.738 57.1426 543.691 57.1426 543.643V535.071ZM59.7472 540.89C59.8867 540.751 60.1128 540.751 60.2523 540.89L62.1426 542.781V535.429H57.8569V542.781L59.7472 540.89Z" clip-rule="evenodd"/><text fill="#333" font-family="'Nunito Sans', 'Helvetica Neue', Helvetica, Arial, sans-serif" font-size="13" letter-spacing="0em" xml:space="preserve" style="white-space:pre"><tspan x="70" y="543.277">Last hour</tspan></text><path fill="#37D5D3" fill-rule="evenodd" d="M57.1426 559.071C57.1426 558.874 57.3025 558.714 57.4997 558.714H62.4997C62.697 558.714 62.8569 558.874 62.8569 559.071V567.643C62.8569 567.643 62.8569 567.644 62.8569 567.645C62.8566 567.693 62.847 567.738 62.8298 567.78C62.8123 567.822 62.7865 567.861 62.7523 567.895C62.718 567.93 62.6786 567.956 62.6364 567.973C62.5949 567.99 62.5495 568 62.5019 568C62.5012 568 62.5004 568 62.4997 568C62.499 568 62.4983 568 62.4976 568C62.4069 568 62.3164 567.965 62.2472 567.895L59.9997 565.648L57.7523 567.895C57.6831 567.965 57.5925 568 57.5019 568L57.4997 568L57.4976 568C57.4499 568 57.4045 567.99 57.363 567.973C57.3209 567.956 57.2814 567.93 57.2472 567.895C57.2129 567.861 57.1871 567.822 57.1697 567.78C57.1522 567.738 57.1426 567.691 57.1426 567.643V559.071ZM59.7472 564.89C59.8867 564.751 60.1128 564.751 60.2523 564.89L62.1426 566.781V559.429H57.8569V566.781L59.7472 564.89Z" clip-rule="evenodd"/><text fill="#333" font-family="'Nunito Sans', 'Helvetica Neue', Helvetica, Arial, sans-serif" font-size="13" letter-spacing="0em" xml:space="preserve" style="white-space:pre"><tspan x="70" y="567.277">All day</tspan></text><path fill="#37D5D3" fill-rule="evenodd" d="M57.1426 559.071C57.1426 558.874 57.3025 558.714 57.4997 558.714H62.4997C62.697 558.714 62.8569 558.874 62.8569 559.071V567.643C62.8569 567.643 62.8569 567.644 62.8569 567.645C62.8566 567.693 62.847 567.738 62.8298 567.78C62.8123 567.822 62.7865 567.861 62.7523 567.895C62.718 567.93 62.6786 567.956 62.6364 567.973C62.5949 567.99 62.5495 568 62.5019 568C62.5012 568 62.5004 568 62.4997 568C62.499 568 62.4983 568 62.4976 568C62.4069 568 62.3164 567.965 62.2472 567.895L59.9997 565.648L57.7523 567.895C57.6831 567.965 57.5925 568 57.5019 568L57.4997 568L57.4976 568C57.4499 568 57.4045 567.99 57.363 567.973C57.3209 567.956 57.2814 567.93 57.2472 567.895C57.2129 567.861 57.1871 567.822 57.1697 567.78C57.1522 567.738 57.1426 567.691 57.1426 567.643V559.071ZM59.7472 564.89C59.8867 564.751 60.1128 564.751 60.2523 564.89L62.1426 566.781V559.429H57.8569V566.781L59.7472 564.89Z" clip-rule="evenodd"/><text fill="#333" font-family="'Nunito Sans', 'Helvetica Neue', Helvetica, Arial, sans-serif" font-size="13" letter-spacing="0em" xml:space="preserve" style="white-space:pre"><tspan x="70" y="567.277">All day</tspan></text><path fill="#7A858E" fill-opacity=".5" fill-rule="evenodd" d="M31.1875 587L27.6875 583.5V590.5L31.1875 587Z" clip-rule="evenodd"/><g clip-path="url(#clip10_5691_88418)"><path fill="#1EA7FD" fill-rule="evenodd" d="M40.4996 582.717C39.5134 582.717 38.7139 583.517 38.7139 584.503V589.503C38.7139 590.489 39.5134 591.288 40.4996 591.288H45.4996C46.4858 591.288 47.2853 590.489 47.2853 589.503V584.503C47.2853 583.517 46.4858 582.717 45.4996 582.717H40.4996ZM46.571 586.646H43.3567V583.431H45.4996C46.0913 583.431 46.571 583.911 46.571 584.503V586.646ZM46.571 587.36V589.503C46.571 590.094 46.0913 590.574 45.4996 590.574H43.3567V587.36H46.571ZM42.6424 590.574V587.36H39.4282V589.503C39.4282 590.094 39.9078 590.574 40.4996 590.574H42.6424ZM39.4282 586.646H42.6424V583.431H40.4996C39.9078 583.431 39.4282 583.911 39.4282 584.503V586.646Z" clip-rule="evenodd"/></g><text fill="#333" font-family="'Nunito Sans', 'Helvetica Neue', Helvetica, Arial, sans-serif" font-size="13" letter-spacing="0em" xml:space="preserve" style="white-space:pre"><tspan x="53" y="591.277">DatePicker</tspan></text><rect width="251" height="24" fill="#F6F9FC" transform="translate(1 575)"/><path fill="#7A858E" fill-opacity=".5" fill-rule="evenodd" d="M29 589L32.5 585.5H25.5L29 589Z" clip-rule="evenodd"/><g clip-path="url(#clip11_5691_88418)"><path fill="#1EA7FD" fill-rule="evenodd" d="M40.4996 582.717C39.5134 582.717 38.7139 583.517 38.7139 584.503V589.503C38.7139 590.489 39.5134 591.288 40.4996 591.288H45.4996C46.4858 591.288 47.2853 590.489 47.2853 589.503V584.503C47.2853 583.517 46.4858 582.717 45.4996 582.717H40.4996ZM46.571 586.646H43.3567V583.431H45.4996C46.0913 583.431 46.571 583.911 46.571 584.503V586.646ZM46.571 587.36V589.503C46.571 590.094 46.0913 590.574 45.4996 590.574H43.3567V587.36H46.571ZM42.6424 590.574V587.36H39.4282V589.503C39.4282 590.094 39.9078 590.574 40.4996 590.574H42.6424ZM39.4282 586.646H42.6424V583.431H40.4996C39.9078 583.431 39.4282 583.911 39.4282 584.503V586.646Z" clip-rule="evenodd"/></g><text fill="#333" font-family="'Nunito Sans', 'Helvetica Neue', Helvetica, Arial, sans-serif" font-size="13" letter-spacing="0em" xml:space="preserve" style="white-space:pre"><tspan x="53" y="591.277">DatePicker</tspan></text><path fill="#FFAE00" d="M58.5716 609.574C58.3743 609.574 58.2144 609.734 58.2144 609.931C58.2144 610.129 58.3743 610.288 58.5716 610.288H61.4287C61.626 610.288 61.7859 610.129 61.7859 609.931C61.7859 609.734 61.626 609.574 61.4287 609.574H58.5716Z"/><path fill="#FFAE00" d="M58.5716 611.003C58.3743 611.003 58.2144 611.163 58.2144 611.36C58.2144 611.557 58.3743 611.717 58.5716 611.717H61.4287C61.626 611.717 61.7859 611.557 61.7859 611.36C61.7859 611.163 61.626 611.003 61.4287 611.003H58.5716Z"/><path fill="#FFAE00" d="M58.2144 612.788C58.2144 612.591 58.3743 612.431 58.5716 612.431H61.4287C61.626 612.431 61.7859 612.591 61.7859 612.788C61.7859 612.986 61.626 613.146 61.4287 613.146H58.5716C58.3743 613.146 58.2144 612.986 58.2144 612.788Z"/><path fill="#FFAE00" fill-rule="evenodd" d="M61.7858 606.717C61.8465 606.717 61.9073 606.732 61.9617 606.763C61.9774 606.772 61.9925 606.782 62.007 606.794C62.019 606.803 62.0303 606.813 62.0409 606.824L63.4644 608.248C63.5305 608.313 63.5716 608.403 63.5716 608.503L63.5715 608.507L63.5716 614.931C63.5716 615.129 63.4117 615.288 63.2144 615.288H56.7859C56.5886 615.288 56.4287 615.129 56.4287 614.931V607.074C56.4287 606.877 56.5886 606.717 56.7859 606.717H61.7858ZM57.143 614.574V607.431H61.4287V608.503C61.4287 608.7 61.5886 608.86 61.7859 608.86H62.8573V614.574H57.143Z" clip-rule="evenodd"/><text fill="#333" font-family="'Nunito Sans', 'Helvetica Neue', Helvetica, Arial, sans-serif" font-size="13" letter-spacing="0em" xml:space="preserve" style="white-space:pre"><tspan x="70" y="615.277">Overview</tspan></text><path fill="#37D5D3" fill-rule="evenodd" d="M57.1426 631.071C57.1426 630.874 57.3025 630.714 57.4997 630.714H62.4997C62.697 630.714 62.8569 630.874 62.8569 631.071V639.643C62.8569 639.643 62.8569 639.644 62.8569 639.645C62.8566 639.693 62.847 639.738 62.8298 639.78C62.8123 639.822 62.7865 639.861 62.7523 639.895C62.718 639.93 62.6786 639.956 62.6364 639.973C62.5949 639.99 62.5495 640 62.5019 640C62.5012 640 62.5004 640 62.4997 640C62.499 640 62.4983 640 62.4976 640C62.4069 640 62.3164 639.965 62.2472 639.895L59.9997 637.648L57.7523 639.895C57.6831 639.965 57.5925 640 57.5019 640L57.4997 640L57.4976 640C57.4499 640 57.4045 639.99 57.363 639.973C57.3209 639.956 57.2814 639.93 57.2472 639.895C57.2129 639.861 57.1871 639.822 57.1697 639.78C57.1522 639.738 57.1426 639.691 57.1426 639.643V631.071ZM59.7472 636.89C59.8867 636.751 60.1128 636.751 60.2523 636.89L62.1426 638.781V631.429H57.8569V638.781L59.7472 636.89Z" clip-rule="evenodd"/><text fill="#333" font-family="'Nunito Sans', 'Helvetica Neue', Helvetica, Arial, sans-serif" font-size="13" letter-spacing="0em" xml:space="preserve" style="white-space:pre"><tspan x="70" y="639.277">No selection</tspan></text><path fill="#37D5D3" fill-rule="evenodd" d="M57.1426 655.071C57.1426 654.874 57.3025 654.714 57.4997 654.714H62.4997C62.697 654.714 62.8569 654.874 62.8569 655.071V663.643C62.8569 663.643 62.8569 663.644 62.8569 663.645C62.8566 663.693 62.847 663.738 62.8298 663.78C62.8123 663.822 62.7865 663.861 62.7523 663.895C62.718 663.93 62.6786 663.956 62.6364 663.973C62.5949 663.99 62.5495 664 62.5019 664C62.5012 664 62.5004 664 62.4997 664C62.499 664 62.4983 664 62.4976 664C62.4069 664 62.3164 663.965 62.2472 663.895L59.9997 661.648L57.7523 663.895C57.6831 663.965 57.5925 664 57.5019 664L57.4997 664L57.4976 664C57.4499 664 57.4045 663.99 57.363 663.973C57.3209 663.956 57.2814 663.93 57.2472 663.895C57.2129 663.861 57.1871 663.822 57.1697 663.78C57.1522 663.738 57.1426 663.691 57.1426 663.643V655.071ZM59.7472 660.89C59.8867 660.751 60.1128 660.751 60.2523 660.89L62.1426 662.781V655.429H57.8569V662.781L59.7472 660.89Z" clip-rule="evenodd"/><text fill="#333" font-family="'Nunito Sans', 'Helvetica Neue', Helvetica, Arial, sans-serif" font-size="13" letter-spacing="0em" xml:space="preserve" style="white-space:pre"><tspan x="70" y="663.277">One week</tspan></text><path fill="#37D5D3" fill-rule="evenodd" d="M57.1426 679.071C57.1426 678.874 57.3025 678.714 57.4997 678.714H62.4997C62.697 678.714 62.8569 678.874 62.8569 679.071V687.643C62.8569 687.643 62.8569 687.644 62.8569 687.645C62.8566 687.693 62.847 687.738 62.8298 687.78C62.8123 687.822 62.7865 687.861 62.7523 687.895C62.718 687.93 62.6786 687.956 62.6364 687.973C62.5949 687.99 62.5495 688 62.5019 688C62.5012 688 62.5004 688 62.4997 688C62.499 688 62.4983 688 62.4976 688C62.4069 688 62.3164 687.965 62.2472 687.895L59.9997 685.648L57.7523 687.895C57.6831 687.965 57.5925 688 57.5019 688L57.4997 688L57.4976 688C57.4499 688 57.4045 687.99 57.363 687.973C57.3209 687.956 57.2814 687.93 57.2472 687.895C57.2129 687.861 57.1871 687.822 57.1697 687.78C57.1522 687.738 57.1426 687.691 57.1426 687.643V679.071ZM59.7472 684.89C59.8867 684.751 60.1128 684.751 60.2523 684.89L62.1426 686.781V679.429H57.8569V686.781L59.7472 684.89Z" clip-rule="evenodd"/><text fill="#333" font-family="'Nunito Sans', 'Helvetica Neue', Helvetica, Arial, sans-serif" font-size="13" letter-spacing="0em" xml:space="preserve" style="white-space:pre"><tspan x="70" y="687.277">Last day</tspan></text><path fill="#7A858E" fill-opacity=".5" fill-rule="evenodd" d="M13 709L16.5 705.5H9.5L13 709Z" clip-rule="evenodd"/><path fill="#6F2CAC" fill-rule="evenodd" d="M26.7037 705.217L25.6323 704.146H23.4282V709.86H30.571V705.217H26.7037ZM26.9996 704.503L26.1374 703.641C26.0034 703.507 25.8217 703.431 25.6323 703.431H23.071C22.8738 703.431 22.7139 703.591 22.7139 703.789V710.217C22.7139 710.414 22.8738 710.574 23.071 710.574H30.9282C31.1254 710.574 31.2853 710.414 31.2853 710.217V704.86C31.2853 704.663 31.1254 704.503 30.9282 704.503H26.9996Z" clip-rule="evenodd"/><text fill="#333" font-family="'Nunito Sans', 'Helvetica Neue', Helvetica, Arial, sans-serif" font-size="13" letter-spacing="0em" xml:space="preserve" style="white-space:pre"><tspan x="37" y="711.277">Interstitial</tspan></text><path fill="#7A858E" fill-opacity=".5" fill-rule="evenodd" d="M31.1875 731L27.6875 727.5V734.5L31.1875 731Z" clip-rule="evenodd"/><path fill="#6F2CAC" fill-rule="evenodd" d="M42.7037 729.217L41.6323 728.146H39.4282V733.86H46.571V729.217H42.7037ZM42.9996 728.503L42.1374 727.641C42.0034 727.507 41.8217 727.431 41.6323 727.431H39.071C38.8738 727.431 38.7139 727.591 38.7139 727.789V734.217C38.7139 734.414 38.8738 734.574 39.071 734.574H46.9282C47.1254 734.574 47.2853 734.414 47.2853 734.217V728.86C47.2853 728.663 47.1254 728.503 46.9282 728.503H42.9996Z" clip-rule="evenodd"/><text fill="#333" font-family="'Nunito Sans', 'Helvetica Neue', Helvetica, Arial, sans-serif" font-size="13" letter-spacing="0em" xml:space="preserve" style="white-space:pre"><tspan x="53" y="735.277">Spinners</tspan></text><path fill="#7A858E" fill-opacity=".5" fill-rule="evenodd" d="M29 757L32.5 753.5H25.5L29 757Z" clip-rule="evenodd"/><path fill="#6F2CAC" fill-rule="evenodd" d="M42.7037 753.217L41.6323 752.146H39.4282V757.86H46.571V753.217H42.7037ZM42.9996 752.503L42.1374 751.641C42.0034 751.507 41.8217 751.431 41.6323 751.431H39.071C38.8738 751.431 38.7139 751.591 38.7139 751.789V758.217C38.7139 758.414 38.8738 758.574 39.071 758.574H46.9282C47.1254 758.574 47.2853 758.414 47.2853 758.217V752.86C47.2853 752.663 47.1254 752.503 46.9282 752.503H42.9996Z" clip-rule="evenodd"/><text fill="#333" font-family="'Nunito Sans', 'Helvetica Neue', Helvetica, Arial, sans-serif" font-size="13" letter-spacing="0em" xml:space="preserve" style="white-space:pre"><tspan x="53" y="759.277">Progress indicators</tspan></text><path fill="#7A858E" fill-opacity=".5" fill-rule="evenodd" d="M48.1875 779L44.6875 775.5V782.5L48.1875 779Z" clip-rule="evenodd"/><g clip-path="url(#clip12_5691_88418)"><path fill="#1EA7FD" fill-rule="evenodd" d="M57.4996 774.717C56.5134 774.717 55.7139 775.517 55.7139 776.503V781.503C55.7139 782.489 56.5134 783.288 57.4996 783.288H62.4996C63.4858 783.288 64.2853 782.489 64.2853 781.503V776.503C64.2853 775.517 63.4858 774.717 62.4996 774.717H57.4996ZM63.571 778.646H60.3567V775.431H62.4996C63.0913 775.431 63.571 775.911 63.571 776.503V778.646ZM63.571 779.36V781.503C63.571 782.094 63.0913 782.574 62.4996 782.574H60.3567V779.36H63.571ZM59.6424 782.574V779.36H56.4282V781.503C56.4282 782.094 56.9078 782.574 57.4996 782.574H59.6424ZM56.4282 778.646H59.6424V775.431H57.4996C56.9078 775.431 56.4282 775.911 56.4282 776.503V778.646Z" clip-rule="evenodd"/></g><text fill="#333" font-family="'Nunito Sans', 'Helvetica Neue', Helvetica, Arial, sans-serif" font-size="13" letter-spacing="0em" xml:space="preserve" style="white-space:pre"><tspan x="70" y="783.277">ProgressBar</tspan></text><path fill="#7A858E" fill-opacity=".5" fill-rule="evenodd" d="M48.1875 803L44.6875 799.5V806.5L48.1875 803Z" clip-rule="evenodd"/><g clip-path="url(#clip13_5691_88418)"><path fill="#1EA7FD" fill-rule="evenodd" d="M57.4996 798.717C56.5134 798.717 55.7139 799.517 55.7139 800.503V805.503C55.7139 806.489 56.5134 807.288 57.4996 807.288H62.4996C63.4858 807.288 64.2853 806.489 64.2853 805.503V800.503C64.2853 799.517 63.4858 798.717 62.4996 798.717H57.4996ZM63.571 802.646H60.3567V799.431H62.4996C63.0913 799.431 63.571 799.911 63.571 800.503V802.646ZM63.571 803.36V805.503C63.571 806.094 63.0913 806.574 62.4996 806.574H60.3567V803.36H63.571ZM59.6424 806.574V803.36H56.4282V805.503C56.4282 806.094 56.9078 806.574 57.4996 806.574H59.6424ZM56.4282 802.646H59.6424V799.431H57.4996C56.9078 799.431 56.4282 799.911 56.4282 800.503V802.646Z" clip-rule="evenodd"/></g><text fill="#333" font-family="'Nunito Sans', 'Helvetica Neue', Helvetica, Arial, sans-serif" font-size="13" letter-spacing="0em" xml:space="preserve" style="white-space:pre"><tspan x="70" y="807.277">ProgressCircle</tspan></text><path fill="#7A858E" fill-opacity=".5" fill-rule="evenodd" d="M31.1875 827L27.6875 823.5V830.5L31.1875 827Z" clip-rule="evenodd"/><path fill="#6F2CAC" fill-rule="evenodd" d="M42.7037 825.217L41.6323 824.146H39.4282V829.86H46.571V825.217H42.7037ZM42.9996 824.503L42.1374 823.641C42.0034 823.507 41.8217 823.431 41.6323 823.431H39.071C38.8738 823.431 38.7139 823.591 38.7139 823.789V830.217C38.7139 830.414 38.8738 830.574 39.071 830.574H46.9282C47.1254 830.574 47.2853 830.414 47.2853 830.217V824.86C47.2853 824.663 47.1254 824.503 46.9282 824.503H42.9996Z" clip-rule="evenodd"/><text fill="#333" font-family="'Nunito Sans', 'Helvetica Neue', Helvetica, Arial, sans-serif" font-size="13" letter-spacing="0em" xml:space="preserve" style="white-space:pre"><tspan x="53" y="831.277">Modal</tspan></text></g><defs><clipPath id="clip0_5691_88418"><path fill="#fff" d="M1 32H251V830H9C4.58172 830 1 826.418 1 822V32Z"/></clipPath><clipPath id="clip1_5691_88418"><rect width="14" height="14" fill="#fff" transform="translate(211 57)"/></clipPath><clipPath id="clip2_5691_88418"><rect width="12" height="12" fill="#fff" transform="translate(33 105)"/></clipPath><clipPath id="clip3_5691_88418"><rect width="8" height="8" fill="#fff" transform="translate(223 245)"/></clipPath><clipPath id="clip4_5691_88418"><rect width="10" height="10" fill="#fff" transform="translate(38 294)"/></clipPath><clipPath id="clip5_5691_88418"><rect width="10" height="10" fill="#fff" transform="translate(38 318)"/></clipPath><clipPath id="clip6_5691_88418"><rect width="10" height="10" fill="#fff" transform="translate(38 342)"/></clipPath><clipPath id="clip7_5691_88418"><rect width="10" height="10" fill="#fff" transform="translate(38 342)"/></clipPath><clipPath id="clip8_5691_88418"><rect width="10" height="10" fill="#fff" transform="translate(38 462)"/></clipPath><clipPath id="clip9_5691_88418"><rect width="10" height="10" fill="#fff" transform="translate(38 462)"/></clipPath><clipPath id="clip10_5691_88418"><rect width="10" height="10" fill="#fff" transform="translate(38 582)"/></clipPath><clipPath id="clip11_5691_88418"><rect width="10" height="10" fill="#fff" transform="translate(38 582)"/></clipPath><clipPath id="clip12_5691_88418"><rect width="10" height="10" fill="#fff" transform="translate(55 774)"/></clipPath><clipPath id="clip13_5691_88418"><rect width="10" height="10" fill="#fff" transform="translate(55 798)"/></clipPath></defs></svg>