<svg width="292" height="920" viewBox="0 0 292 920" fill="none" xmlns="http://www.w3.org/2000/svg">
<g clip-path="url(#clip0_5691_83126)">
<path xmlns="http://www.w3.org/2000/svg" d="M41 52H291V850H49C44.5817 850 41 846.418 41 842V52Z" fill="#F6F9FC"/>
<path fill-rule="evenodd" clip-rule="evenodd" d="M87.64 89.8314C86.7867 89.8314 85.9653 89.7168 85.176 89.4874C84.3867 89.2581 83.7307 88.9408 83.208 88.5354L84.008 86.7594C85.096 87.5168 86.3173 87.8954 87.672 87.8954C88.376 87.8954 88.9173 87.7808 89.296 87.5514C89.6747 87.3221 89.864 87.0048 89.864 86.5994C89.864 86.2368 89.6907 85.9541 89.344 85.7514C88.9973 85.5488 88.3813 85.3514 87.496 85.1594C86.504 84.9568 85.712 84.7114 85.12 84.4234C84.528 84.1354 84.096 83.7808 83.824 83.3594C83.552 82.9381 83.416 82.4181 83.416 81.7994C83.416 81.1168 83.6053 80.5088 83.984 79.9754C84.3627 79.4421 84.8933 79.0234 85.576 78.7194C86.2587 78.4154 87.048 78.2634 87.944 78.2634C88.744 78.2634 89.5147 78.3808 90.256 78.6154C90.9973 78.8501 91.5867 79.1648 92.024 79.5594L91.224 81.3354C90.1893 80.5781 89.1013 80.1994 87.96 80.1994C87.3093 80.1994 86.7973 80.3248 86.424 80.5754C86.0507 80.8261 85.864 81.1701 85.864 81.6074C85.864 81.8634 85.936 82.0741 86.08 82.2394C86.224 82.4048 86.464 82.5514 86.8 82.6794C87.136 82.8074 87.6133 82.9408 88.232 83.0794C89.6827 83.3994 90.7253 83.8101 91.36 84.3114C91.9947 84.8128 92.312 85.5061 92.312 86.3914C92.312 87.4581 91.9013 88.2981 91.08 88.9114C90.2587 89.5248 89.112 89.8314 87.64 89.8314ZM98.1042 88.0393C98.3495 88.0393 98.6055 88.0233 98.8722 87.9913L98.7442 89.7513C98.4348 89.794 98.1255 89.8153 97.8162 89.8153C96.6215 89.8153 95.7495 89.554 95.2002 89.0313C94.6508 88.5087 94.3762 87.714 94.3762 86.6473V83.6393H92.8882V81.8313H94.3762V79.5273H96.7922V81.8313H98.7602V83.6393H96.7922V86.6313C96.7922 87.57 97.2295 88.0393 98.1042 88.0393ZM103.72 89.8154C102.888 89.8154 102.157 89.6474 101.528 89.3114C100.899 88.9754 100.413 88.5008 100.072 87.8874C99.7307 87.2741 99.56 86.5514 99.56 85.7194C99.56 84.8874 99.7307 84.1648 100.072 83.5514C100.413 82.9381 100.899 82.4661 101.528 82.1354C102.157 81.8048 102.888 81.6394 103.72 81.6394C104.552 81.6394 105.283 81.8048 105.912 82.1354C106.541 82.4661 107.027 82.9381 107.368 83.5514C107.709 84.1648 107.88 84.8874 107.88 85.7194C107.88 86.5514 107.709 87.2741 107.368 87.8874C107.027 88.5008 106.541 88.9754 105.912 89.3114C105.283 89.6474 104.552 89.8154 103.72 89.8154ZM103.72 87.9754C104.893 87.9754 105.48 87.2234 105.48 85.7194C105.48 84.9621 105.328 84.3968 105.024 84.0234C104.72 83.6501 104.285 83.4634 103.72 83.4634C102.547 83.4634 101.96 84.2154 101.96 85.7194C101.96 87.2234 102.547 87.9754 103.72 87.9754ZM114.568 83.6235L113.208 83.7675C112.536 83.8315 112.061 84.0209 111.784 84.3355C111.507 84.6502 111.368 85.0689 111.368 85.5915V89.6875H108.952V81.8315H111.272V83.1595C111.667 82.2529 112.483 81.7569 113.72 81.6715L114.424 81.6235L114.568 83.6235ZM121.588 81.8474H123.956L119.22 92.5674H116.772L118.276 89.2554L115.044 81.8474H117.556L119.54 86.8394L121.588 81.8474ZM129.556 81.6395C130.239 81.6395 130.841 81.8048 131.364 82.1355C131.887 82.4661 132.295 82.9381 132.588 83.5515C132.881 84.1648 133.028 84.8768 133.028 85.6875C133.028 86.4981 132.881 87.2155 132.588 87.8395C132.295 88.4635 131.884 88.9488 131.356 89.2955C130.828 89.6421 130.228 89.8155 129.556 89.8155C129.012 89.8155 128.521 89.7008 128.084 89.4715C127.647 89.2421 127.311 88.9248 127.076 88.5195V89.6875H124.692V78.4075H127.108V82.8875C127.343 82.4928 127.676 82.1861 128.108 81.9675C128.54 81.7488 129.023 81.6395 129.556 81.6395ZM128.852 87.9755C129.418 87.9755 129.855 87.7755 130.164 87.3755C130.474 86.9755 130.628 86.4128 130.628 85.6875C130.628 84.9728 130.474 84.4262 130.164 84.0475C129.855 83.6688 129.418 83.4795 128.852 83.4795C128.287 83.4795 127.85 83.6742 127.54 84.0635C127.231 84.4528 127.076 85.0048 127.076 85.7195C127.076 86.4448 127.231 87.0022 127.54 87.3915C127.85 87.7808 128.287 87.9755 128.852 87.9755ZM138.276 89.8154C137.444 89.8154 136.714 89.6474 136.084 89.3114C135.455 88.9754 134.97 88.5007 134.628 87.8874C134.287 87.2741 134.116 86.5514 134.116 85.7194C134.116 84.8874 134.287 84.1647 134.628 83.5514C134.97 82.9381 135.455 82.4661 136.084 82.1354C136.714 81.8047 137.444 81.6394 138.276 81.6394C139.108 81.6394 139.839 81.8047 140.468 82.1354C141.098 82.4661 141.583 82.9381 141.924 83.5514C142.266 84.1647 142.436 84.8874 142.436 85.7194C142.436 86.5514 142.266 87.2741 141.924 87.8874C141.583 88.5007 141.098 88.9754 140.468 89.3114C139.839 89.6474 139.108 89.8154 138.276 89.8154ZM138.276 87.9754C139.449 87.9754 140.036 87.2234 140.036 85.7194C140.036 84.962 139.884 84.3967 139.58 84.0234C139.276 83.65 138.841 83.4634 138.276 83.4634C137.103 83.4634 136.516 84.2154 136.516 85.7194C136.516 87.2234 137.103 87.9754 138.276 87.9754ZM147.284 89.8154C146.452 89.8154 145.721 89.6474 145.092 89.3114C144.463 88.9754 143.977 88.5008 143.636 87.8874C143.295 87.2741 143.124 86.5514 143.124 85.7194C143.124 84.8874 143.295 84.1648 143.636 83.5514C143.977 82.9381 144.463 82.4661 145.092 82.1354C145.721 81.8048 146.452 81.6394 147.284 81.6394C148.116 81.6394 148.847 81.8048 149.476 82.1354C150.105 82.4661 150.591 82.9381 150.932 83.5514C151.273 84.1648 151.444 84.8874 151.444 85.7194C151.444 86.5514 151.273 87.2741 150.932 87.8874C150.591 88.5008 150.105 88.9754 149.476 89.3114C148.847 89.6474 148.116 89.8154 147.284 89.8154ZM147.284 87.9754C148.457 87.9754 149.044 87.2234 149.044 85.7194C149.044 84.9621 148.892 84.3968 148.588 84.0234C148.284 83.6501 147.849 83.4634 147.284 83.4634C146.111 83.4634 145.524 84.2154 145.524 85.7194C145.524 87.2234 146.111 87.9754 147.284 87.9754ZM161 89.6875H158.04L155.032 86.1835V89.6875H152.616V78.4075H155.032V85.1915L157.928 81.8475H160.808L157.512 85.5915L161 89.6875Z" fill="#333333"/>
<path d="M61.6203 92.4293L61.0007 75.9209C60.9803 75.3757 61.3983 74.9136 61.9428 74.8796L75.9844 74.002C76.5387 73.9674 77.0161 74.3886 77.0507 74.9429C77.052 74.9637 77.0527 74.9847 77.0527 75.0056V92.9945C77.0527 93.5498 76.6025 94 76.0471 94C76.0321 94 76.0171 93.9997 76.002 93.999L62.58 93.3962C62.0573 93.3727 61.6399 92.9522 61.6203 92.4293Z" fill="#FF4785"/>
<path fill-rule="evenodd" clip-rule="evenodd" d="M74.8804 74.071L72.9479 74.1918L72.8536 76.4584C72.8522 76.4932 72.8629 76.5275 72.884 76.5553C72.9341 76.6213 73.0282 76.6342 73.0942 76.5841L73.9746 75.9162L74.7182 76.502C74.7461 76.524 74.7808 76.5354 74.8163 76.5341C74.8991 76.5312 74.9639 76.4618 74.961 76.379L74.8804 74.071ZM73.3763 81.661C73.0225 81.9358 70.3873 82.1233 70.3873 81.7321C70.443 80.2393 69.7747 80.1738 69.4034 80.1738C69.0507 80.1738 68.4566 80.2805 68.4566 81.0802C68.4566 81.8951 69.3248 82.3552 70.3438 82.8952C71.7914 83.6623 73.5433 84.5908 73.5433 86.927C73.5433 89.1662 71.724 90.4031 69.4034 90.4031C67.0085 90.4031 64.9157 89.4342 65.1521 86.075C65.2449 85.6806 68.2895 85.7743 68.2895 86.075C68.2524 87.4612 68.568 87.8689 69.3663 87.8689C69.9789 87.8689 70.2574 87.5312 70.2574 86.9625C70.2574 86.1019 69.3528 85.594 68.3122 85.0098C66.9032 84.2187 65.2449 83.2877 65.2449 81.1513C65.2449 79.0187 66.7115 77.597 69.3291 77.597C71.9468 77.597 73.3763 78.9969 73.3763 81.661Z" fill="white"/>
<g clip-path="url(#clip1_5691_83126)">
<path d="M256.586 82.5858C257.367 81.8047 258.633 81.8047 259.414 82.5858C259.994 83.1652 260.144 84.0124 259.862 84.7311C259.761 84.9882 259.888 85.2783 260.145 85.3791C260.402 85.4799 260.693 85.3531 260.793 85.096C261.215 84.0205 260.992 82.7491 260.121 81.8787C258.95 80.7071 257.05 80.7071 255.879 81.8787C254.707 83.0503 254.707 84.9497 255.879 86.1213C256.749 86.9917 258.021 87.2148 259.096 86.7933C259.353 86.6926 259.48 86.4025 259.379 86.1454C259.278 85.8882 258.988 85.7615 258.731 85.8622C258.012 86.1439 257.165 85.9936 256.586 85.4142C255.805 84.6332 255.805 83.3668 256.586 82.5858Z" fill="#7A858E"/>
<path fill-rule="evenodd" clip-rule="evenodd" d="M251.939 83.5268C252.066 83.6547 252.128 83.8236 252.124 83.9912C252.128 84.1591 252.067 84.3281 251.939 84.4562L251 85.3948C251.186 86.3309 251.554 87.2011 252.067 87.9667H253.388C253.569 87.9667 253.732 88.0426 253.848 88.1639C253.969 88.2799 254.045 88.4429 254.045 88.6239L254.045 89.9412C254.807 90.4495 255.672 90.8151 256.602 91L257.542 90.06C257.666 89.9355 257.829 89.8738 257.992 89.8738L258.007 89.8739L258.021 89.8738C258.184 89.8738 258.347 89.9355 258.471 90.06L259.41 90.9981C260.336 90.8126 261.198 90.4477 261.957 89.9413V88.6092C261.957 88.428 262.032 88.2649 262.154 88.1489C262.27 88.0277 262.433 87.9519 262.614 87.952L263.945 87.9519C264.451 87.192 264.815 86.3297 265 85.4024L264.054 84.4562C263.926 84.3281 263.864 84.1591 263.868 83.9912C263.864 83.8236 263.926 83.6547 264.054 83.5268L264.997 82.5831C264.813 81.6665 264.453 80.8136 263.953 80.0607L262.614 80.0607C262.433 80.0607 262.27 79.9849 262.154 79.8637C262.032 79.7477 261.957 79.5846 261.957 79.4034V78.058C261.199 77.5522 260.338 77.1876 259.413 77.0019L258.471 77.9439C258.347 78.0684 258.184 78.1301 258.021 78.1301L258.007 78.1299L257.992 78.1301C257.829 78.1301 257.666 78.0684 257.542 77.9439L256.598 77C255.669 77.1851 254.806 77.5504 254.045 78.058L254.045 79.3888C254.045 79.5697 253.969 79.7327 253.848 79.8487C253.732 79.9701 253.569 80.046 253.388 80.046H252.058C251.552 80.8045 251.188 81.6653 251.003 82.5908L251.939 83.5268ZM252.646 85.1632C252.97 84.8387 253.128 84.4114 253.125 83.9909C253.128 83.5709 252.97 83.144 252.646 82.8197L252.107 82.2812C252.233 81.8479 252.406 81.4342 252.62 81.046H253.388C253.847 81.046 254.261 80.8555 254.555 80.5556C254.855 80.2612 255.045 79.8476 255.045 79.3888L255.045 78.6195C255.435 78.4044 255.852 78.2307 256.288 78.1041L256.835 78.6507C257.155 78.9718 257.577 79.1301 257.992 79.1301L258.007 79.13L258.021 79.1301C258.436 79.1301 258.857 78.9721 259.178 78.6511L259.723 78.1067C260.156 78.233 260.569 78.4058 260.957 78.6194V79.4034C260.957 79.8626 261.147 80.2766 261.447 80.5712C261.741 80.8704 262.155 81.0607 262.614 81.0607L263.39 81.0607C263.599 81.4426 263.768 81.8488 263.892 82.2741L263.347 82.8195C263.023 83.1439 262.864 83.5711 262.868 83.9909C262.864 84.4112 263.022 84.8386 263.347 85.1633L263.896 85.7125C263.77 86.1474 263.597 86.5624 263.383 86.9519L262.614 86.952C262.155 86.9519 261.741 87.142 261.447 87.4415C261.147 87.7361 260.957 88.15 260.957 88.6092V89.3798C260.568 89.594 260.153 89.7672 259.719 89.8935L259.179 89.3532C258.858 89.0322 258.436 88.8738 258.021 88.8738L258.007 88.8738L257.992 88.8738C257.577 88.8738 257.155 89.0319 256.835 89.3531L256.292 89.8961C255.854 89.7695 255.436 89.5955 255.045 89.3797L255.045 88.6242C255.045 88.1655 254.855 87.7514 254.555 87.457C254.261 87.1571 253.847 86.9667 253.388 86.9667H252.627C252.408 86.5708 252.231 86.1484 252.104 85.7054L252.646 85.1632Z" fill="#7A858E"/>
</g>
<g clip-path="url(#clip2_5691_83126)">
<path fill-rule="evenodd" clip-rule="evenodd" d="M81.1807 133.748C80.3602 134.44 79.3002 134.857 78.1428 134.857C75.5391 134.857 73.4285 132.746 73.4285 130.143C73.4285 127.539 75.5391 125.428 78.1428 125.428C80.7464 125.428 82.857 127.539 82.857 130.143C82.857 131.3 82.4399 132.36 81.7478 133.181C81.7937 133.201 81.8367 133.231 81.8744 133.268L84.4458 135.84C84.6132 136.007 84.6132 136.278 84.4458 136.446C84.2784 136.613 84.0071 136.613 83.8397 136.446L81.2683 133.874C81.2306 133.837 81.2014 133.794 81.1807 133.748ZM81.9999 130.143C81.9999 132.273 80.273 134 78.1428 134C76.0125 134 74.2856 132.273 74.2856 130.143C74.2856 128.013 76.0125 126.286 78.1428 126.286C80.273 126.286 81.9999 128.013 81.9999 130.143Z" fill="#7A858E"/>
</g>
<text fill="#7A858E" xml:space="preserve" style="white-space: pre" font-family="'Nunito Sans', 'Helvetica Neue', Helvetica, Arial, sans-serif" font-size="13" letter-spacing="0em"><tspan x="91" y="135.277">Find by name</tspan></text>
<rect x="240" y="123" width="16" height="16" rx="3" fill="black" fill-opacity="0.05"/>
<text fill="#666666" xml:space="preserve" style="white-space: pre" font-family="Helvetica Neue" font-size="10" letter-spacing="0px"><tspan x="246.335" y="134.695">/</tspan></text>
<rect x="61.5" y="115.5" width="210" height="31" rx="15.5" stroke="#E1E5E8"/>
<path d="M65.5713 177.574C65.3741 177.574 65.2142 177.734 65.2142 177.931C65.2142 178.129 65.3741 178.288 65.5713 178.288H68.4285C68.6257 178.288 68.7856 178.129 68.7856 177.931C68.7856 177.734 68.6257 177.574 68.4285 177.574H65.5713Z" fill="#FFAE00"/>
<path d="M65.5713 179.003C65.3741 179.003 65.2142 179.163 65.2142 179.36C65.2142 179.557 65.3741 179.717 65.5713 179.717H68.4285C68.6257 179.717 68.7856 179.557 68.7856 179.36C68.7856 179.163 68.6257 179.003 68.4285 179.003H65.5713Z" fill="#FFAE00"/>
<path d="M65.2142 180.788C65.2142 180.591 65.3741 180.431 65.5713 180.431H68.4285C68.6257 180.431 68.7856 180.591 68.7856 180.788C68.7856 180.986 68.6257 181.146 68.4285 181.146H65.5713C65.3741 181.146 65.2142 180.986 65.2142 180.788Z" fill="#FFAE00"/>
<path fill-rule="evenodd" clip-rule="evenodd" d="M68.7855 174.717C68.8462 174.717 68.907 174.732 68.9614 174.763C68.9771 174.772 68.9923 174.782 69.0068 174.794C69.0187 174.803 69.03 174.813 69.0406 174.824L70.4642 176.248C70.5303 176.313 70.5713 176.403 70.5713 176.503L70.5713 176.507L70.5713 182.931C70.5713 183.129 70.4114 183.288 70.2142 183.288H63.7856C63.5884 183.288 63.4285 183.129 63.4285 182.931V175.074C63.4285 174.877 63.5884 174.717 63.7856 174.717H68.7855ZM64.1428 182.574V175.431H68.4285V176.503C68.4285 176.7 68.5884 176.86 68.7856 176.86H69.857V182.574H64.1428Z" fill="#FFAE00"/>
<text fill="#333333" xml:space="preserve" style="white-space: pre" font-family="'Nunito Sans', 'Helvetica Neue', Helvetica, Arial, sans-serif" font-size="13" letter-spacing="0em"><tspan x="77" y="183.277">Introduction</tspan></text>
<path d="M65.5713 201.574C65.3741 201.574 65.2142 201.734 65.2142 201.931C65.2142 202.129 65.3741 202.288 65.5713 202.288H68.4285C68.6257 202.288 68.7856 202.129 68.7856 201.931C68.7856 201.734 68.6257 201.574 68.4285 201.574H65.5713Z" fill="#FFAE00"/>
<path d="M65.5713 203.003C65.3741 203.003 65.2142 203.163 65.2142 203.36C65.2142 203.557 65.3741 203.717 65.5713 203.717H68.4285C68.6257 203.717 68.7856 203.557 68.7856 203.36C68.7856 203.163 68.6257 203.003 68.4285 203.003H65.5713Z" fill="#FFAE00"/>
<path d="M65.2142 204.788C65.2142 204.591 65.3741 204.431 65.5713 204.431H68.4285C68.6257 204.431 68.7856 204.591 68.7856 204.788C68.7856 204.986 68.6257 205.146 68.4285 205.146H65.5713C65.3741 205.146 65.2142 204.986 65.2142 204.788Z" fill="#FFAE00"/>
<path fill-rule="evenodd" clip-rule="evenodd" d="M68.7855 198.717C68.8462 198.717 68.907 198.732 68.9614 198.763C68.9771 198.772 68.9923 198.782 69.0068 198.794C69.0187 198.803 69.03 198.813 69.0406 198.824L70.4642 200.248C70.5303 200.313 70.5713 200.403 70.5713 200.503L70.5713 200.507L70.5713 206.931C70.5713 207.129 70.4114 207.288 70.2142 207.288H63.7856C63.5884 207.288 63.4285 207.129 63.4285 206.931V199.074C63.4285 198.877 63.5884 198.717 63.7856 198.717H68.7855ZM64.1428 206.574V199.431H68.4285V200.503C68.4285 200.7 68.5884 200.86 68.7856 200.86H69.857V206.574H64.1428Z" fill="#FFAE00"/>
<text fill="#333333" xml:space="preserve" style="white-space: pre" font-family="'Nunito Sans', 'Helvetica Neue', Helvetica, Arial, sans-serif" font-size="13" letter-spacing="0em"><tspan x="77" y="207.277">Setup and configure</tspan></text>
<path d="M65.5713 225.574C65.3741 225.574 65.2142 225.734 65.2142 225.931C65.2142 226.129 65.3741 226.288 65.5713 226.288H68.4285C68.6257 226.288 68.7856 226.129 68.7856 225.931C68.7856 225.734 68.6257 225.574 68.4285 225.574H65.5713Z" fill="#FFAE00"/>
<path d="M65.5713 227.003C65.3741 227.003 65.2142 227.163 65.2142 227.36C65.2142 227.557 65.3741 227.717 65.5713 227.717H68.4285C68.6257 227.717 68.7856 227.557 68.7856 227.36C68.7856 227.163 68.6257 227.003 68.4285 227.003H65.5713Z" fill="#FFAE00"/>
<path d="M65.2142 228.788C65.2142 228.591 65.3741 228.431 65.5713 228.431H68.4285C68.6257 228.431 68.7856 228.591 68.7856 228.788C68.7856 228.986 68.6257 229.146 68.4285 229.146H65.5713C65.3741 229.146 65.2142 228.986 65.2142 228.788Z" fill="#FFAE00"/>
<path fill-rule="evenodd" clip-rule="evenodd" d="M68.7855 222.717C68.8462 222.717 68.907 222.732 68.9614 222.763C68.9771 222.772 68.9923 222.782 69.0068 222.794C69.0187 222.803 69.03 222.813 69.0406 222.824L70.4642 224.248C70.5303 224.313 70.5713 224.403 70.5713 224.503L70.5713 224.507L70.5713 230.931C70.5713 231.129 70.4114 231.288 70.2142 231.288H63.7856C63.5884 231.288 63.4285 231.129 63.4285 230.931V223.074C63.4285 222.877 63.5884 222.717 63.7856 222.717H68.7855ZM64.1428 230.574V223.431H68.4285V224.503C68.4285 224.7 68.5884 224.86 68.7856 224.86H69.857V230.574H64.1428Z" fill="#FFAE00"/>
<text fill="#333333" xml:space="preserve" style="white-space: pre" font-family="'Nunito Sans', 'Helvetica Neue', Helvetica, Arial, sans-serif" font-size="13" letter-spacing="0em"><tspan x="77" y="231.277">Changelog</tspan></text>
<text fill="#7A858E" xml:space="preserve" style="white-space: pre" font-family="'Nunito Sans', 'Helvetica Neue', Helvetica, Arial, sans-serif" font-size="11" font-weight="800" letter-spacing="0.38em"><tspan x="62" y="272.619">LIBRARY</tspan></text>
<g clip-path="url(#clip3_5691_83126)">
<path d="M267.202 265.084L269.488 267.369C269.599 267.481 269.599 267.662 269.488 267.773C269.376 267.885 269.195 267.885 269.084 267.773L267 265.69L264.916 267.773C264.805 267.885 264.624 267.885 264.512 267.773C264.401 267.662 264.401 267.481 264.512 267.369L266.798 265.084C266.909 264.972 267.09 264.972 267.202 265.084Z" fill="#7A858E"/>
<path d="M269.488 270.227C269.599 270.338 269.599 270.519 269.488 270.631L267.202 272.916C267.09 273.028 266.909 273.028 266.798 272.916L264.512 270.631C264.401 270.519 264.401 270.338 264.512 270.227C264.624 270.115 264.805 270.115 264.916 270.227L267 272.31L269.084 270.227C269.195 270.115 269.376 270.115 269.488 270.227Z" fill="#7A858E"/>
</g>
<path fill-rule="evenodd" clip-rule="evenodd" d="M53 297L56.5 293.5H49.5L53 297Z" fill="#7A858E" fill-opacity="0.5"/>
<path fill-rule="evenodd" clip-rule="evenodd" d="M66.7042 293.217L65.6328 292.146H63.4286V297.86H70.5715V293.217H66.7042ZM67.0001 292.503L66.1379 291.641C66.0039 291.507 65.8222 291.431 65.6328 291.431H63.0715C62.8743 291.431 62.7144 291.591 62.7144 291.789V298.217C62.7144 298.414 62.8743 298.574 63.0715 298.574H70.9286C71.1259 298.574 71.2858 298.414 71.2858 298.217V292.86C71.2858 292.663 71.1259 292.503 70.9286 292.503H67.0001Z" fill="#6F2CAC"/>
<text fill="#333333" xml:space="preserve" style="white-space: pre" font-family="'Nunito Sans', 'Helvetica Neue', Helvetica, Arial, sans-serif" font-size="13" letter-spacing="0em"><tspan x="77" y="299.277">Charts</tspan></text>
<path fill-rule="evenodd" clip-rule="evenodd" d="M71.1875 319L67.6875 315.5V322.5L71.1875 319Z" fill="#7A858E" fill-opacity="0.5"/>
<g clip-path="url(#clip4_5691_83126)">
<path fill-rule="evenodd" clip-rule="evenodd" d="M80.5001 314.717C79.5138 314.717 78.7144 315.517 78.7144 316.503V321.503C78.7144 322.489 79.5138 323.288 80.5001 323.288H85.5001C86.4863 323.288 87.2858 322.489 87.2858 321.503V316.503C87.2858 315.517 86.4863 314.717 85.5001 314.717H80.5001ZM86.5715 318.646H83.3572V315.431H85.5001C86.0918 315.431 86.5715 315.911 86.5715 316.503V318.646ZM86.5715 319.36V321.503C86.5715 322.094 86.0918 322.574 85.5001 322.574H83.3572V319.36H86.5715ZM82.6429 322.574V319.36H79.4286V321.503C79.4286 322.094 79.9083 322.574 80.5001 322.574H82.6429ZM79.4286 318.646H82.6429V315.431H80.5001C79.9083 315.431 79.4286 315.911 79.4286 316.503V318.646Z" fill="#1EA7FD"/>
</g>
<text fill="#333333" xml:space="preserve" style="white-space: pre" font-family="'Nunito Sans', 'Helvetica Neue', Helvetica, Arial, sans-serif" font-size="13" letter-spacing="0em"><tspan x="93" y="323.277">PieChart</tspan></text>
<path fill-rule="evenodd" clip-rule="evenodd" d="M71.1875 343L67.6875 339.5V346.5L71.1875 343Z" fill="#7A858E" fill-opacity="0.5"/>
<g clip-path="url(#clip5_5691_83126)">
<path fill-rule="evenodd" clip-rule="evenodd" d="M80.5001 338.717C79.5138 338.717 78.7144 339.517 78.7144 340.503V345.503C78.7144 346.489 79.5138 347.288 80.5001 347.288H85.5001C86.4863 347.288 87.2858 346.489 87.2858 345.503V340.503C87.2858 339.517 86.4863 338.717 85.5001 338.717H80.5001ZM86.5715 342.646H83.3572V339.431H85.5001C86.0918 339.431 86.5715 339.911 86.5715 340.503V342.646ZM86.5715 343.36V345.503C86.5715 346.094 86.0918 346.574 85.5001 346.574H83.3572V343.36H86.5715ZM82.6429 346.574V343.36H79.4286V345.503C79.4286 346.094 79.9083 346.574 80.5001 346.574H82.6429ZM79.4286 342.646H82.6429V339.431H80.5001C79.9083 339.431 79.4286 339.911 79.4286 340.503V342.646Z" fill="#1EA7FD"/>
</g>
<text fill="#333333" xml:space="preserve" style="white-space: pre" font-family="'Nunito Sans', 'Helvetica Neue', Helvetica, Arial, sans-serif" font-size="13" letter-spacing="0em"><tspan x="93" y="347.277">SparkLine</tspan></text>
<path fill-rule="evenodd" clip-rule="evenodd" d="M71.1875 367L67.6875 363.5V370.5L71.1875 367Z" fill="#7A858E" fill-opacity="0.5"/>
<g clip-path="url(#clip6_5691_83126)">
<path fill-rule="evenodd" clip-rule="evenodd" d="M80.5001 362.717C79.5138 362.717 78.7144 363.517 78.7144 364.503V369.503C78.7144 370.489 79.5138 371.288 80.5001 371.288H85.5001C86.4863 371.288 87.2858 370.489 87.2858 369.503V364.503C87.2858 363.517 86.4863 362.717 85.5001 362.717H80.5001ZM86.5715 366.646H83.3572V363.431H85.5001C86.0918 363.431 86.5715 363.911 86.5715 364.503V366.646ZM86.5715 367.36V369.503C86.5715 370.094 86.0918 370.574 85.5001 370.574H83.3572V367.36H86.5715ZM82.6429 370.574V367.36H79.4286V369.503C79.4286 370.094 79.9083 370.574 80.5001 370.574H82.6429ZM79.4286 366.646H82.6429V363.431H80.5001C79.9083 363.431 79.4286 363.911 79.4286 364.503V366.646Z" fill="#1EA7FD"/>
</g>
<text fill="#333333" xml:space="preserve" style="white-space: pre" font-family="'Nunito Sans', 'Helvetica Neue', Helvetica, Arial, sans-serif" font-size="13" letter-spacing="0em"><tspan x="93" y="371.277">RangeSlider</tspan></text>
<rect width="251" height="24" transform="translate(41 355)" fill="#F6F9FC"/>
<path fill-rule="evenodd" clip-rule="evenodd" d="M69 369L72.5 365.5H65.5L69 369Z" fill="#7A858E" fill-opacity="0.5"/>
<g clip-path="url(#clip7_5691_83126)">
<path fill-rule="evenodd" clip-rule="evenodd" d="M80.5001 362.717C79.5138 362.717 78.7144 363.517 78.7144 364.503V369.503C78.7144 370.489 79.5138 371.288 80.5001 371.288H85.5001C86.4863 371.288 87.2858 370.489 87.2858 369.503V364.503C87.2858 363.517 86.4863 362.717 85.5001 362.717H80.5001ZM86.5715 366.646H83.3572V363.431H85.5001C86.0918 363.431 86.5715 363.911 86.5715 364.503V366.646ZM86.5715 367.36V369.503C86.5715 370.094 86.0918 370.574 85.5001 370.574H83.3572V367.36H86.5715ZM82.6429 370.574V367.36H79.4286V369.503C79.4286 370.094 79.9083 370.574 80.5001 370.574H82.6429ZM79.4286 366.646H82.6429V363.431H80.5001C79.9083 363.431 79.4286 363.911 79.4286 364.503V366.646Z" fill="#1EA7FD"/>
</g>
<text fill="#333333" xml:space="preserve" style="white-space: pre" font-family="'Nunito Sans', 'Helvetica Neue', Helvetica, Arial, sans-serif" font-size="13" letter-spacing="0em"><tspan x="93" y="371.277">RangeSlider</tspan></text>
<path d="M98.5713 389.574C98.3741 389.574 98.2142 389.734 98.2142 389.931C98.2142 390.129 98.3741 390.288 98.5713 390.288H101.428C101.626 390.288 101.786 390.129 101.786 389.931C101.786 389.734 101.626 389.574 101.428 389.574H98.5713Z" fill="#FFAE00"/>
<path d="M98.5713 391.003C98.3741 391.003 98.2142 391.163 98.2142 391.36C98.2142 391.557 98.3741 391.717 98.5713 391.717H101.428C101.626 391.717 101.786 391.557 101.786 391.36C101.786 391.163 101.626 391.003 101.428 391.003H98.5713Z" fill="#FFAE00"/>
<path d="M98.2142 392.788C98.2142 392.591 98.3741 392.431 98.5713 392.431H101.428C101.626 392.431 101.786 392.591 101.786 392.788C101.786 392.986 101.626 393.146 101.428 393.146H98.5713C98.3741 393.146 98.2142 392.986 98.2142 392.788Z" fill="#FFAE00"/>
<path fill-rule="evenodd" clip-rule="evenodd" d="M101.786 386.717C101.846 386.717 101.907 386.732 101.961 386.763C101.977 386.772 101.992 386.782 102.007 386.794C102.019 386.803 102.03 386.813 102.041 386.824L103.464 388.248C103.53 388.313 103.571 388.403 103.571 388.503L103.571 388.507L103.571 394.931C103.571 395.129 103.411 395.288 103.214 395.288H96.7856C96.5884 395.288 96.4285 395.129 96.4285 394.931V387.074C96.4285 386.877 96.5884 386.717 96.7856 386.717H101.786ZM97.1428 394.574V387.431H101.428V388.503C101.428 388.7 101.588 388.86 101.786 388.86H102.857V394.574H97.1428Z" fill="#FFAE00"/>
<text fill="#333333" xml:space="preserve" style="white-space: pre" font-family="'Nunito Sans', 'Helvetica Neue', Helvetica, Arial, sans-serif" font-size="13" letter-spacing="0em"><tspan x="110" y="395.277">Overview</tspan></text>
<path d="M98.5713 389.574C98.3741 389.574 98.2142 389.734 98.2142 389.931C98.2142 390.129 98.3741 390.288 98.5713 390.288H101.428C101.626 390.288 101.786 390.129 101.786 389.931C101.786 389.734 101.626 389.574 101.428 389.574H98.5713Z" fill="#FFAE00"/>
<path d="M98.5713 391.003C98.3741 391.003 98.2142 391.163 98.2142 391.36C98.2142 391.557 98.3741 391.717 98.5713 391.717H101.428C101.626 391.717 101.786 391.557 101.786 391.36C101.786 391.163 101.626 391.003 101.428 391.003H98.5713Z" fill="#FFAE00"/>
<path d="M98.2142 392.788C98.2142 392.591 98.3741 392.431 98.5713 392.431H101.428C101.626 392.431 101.786 392.591 101.786 392.788C101.786 392.986 101.626 393.146 101.428 393.146H98.5713C98.3741 393.146 98.2142 392.986 98.2142 392.788Z" fill="#FFAE00"/>
<path fill-rule="evenodd" clip-rule="evenodd" d="M101.786 386.717C101.846 386.717 101.907 386.732 101.961 386.763C101.977 386.772 101.992 386.782 102.007 386.794C102.019 386.803 102.03 386.813 102.041 386.824L103.464 388.248C103.53 388.313 103.571 388.403 103.571 388.503L103.571 388.507L103.571 394.931C103.571 395.129 103.411 395.288 103.214 395.288H96.7856C96.5884 395.288 96.4285 395.129 96.4285 394.931V387.074C96.4285 386.877 96.5884 386.717 96.7856 386.717H101.786ZM97.1428 394.574V387.431H101.428V388.503C101.428 388.7 101.588 388.86 101.786 388.86H102.857V394.574H97.1428Z" fill="#FFAE00"/>
<text fill="#333333" xml:space="preserve" style="white-space: pre" font-family="'Nunito Sans', 'Helvetica Neue', Helvetica, Arial, sans-serif" font-size="13" letter-spacing="0em"><tspan x="110" y="395.277">Overview</tspan></text>
<path fill-rule="evenodd" clip-rule="evenodd" d="M97.1428 411.071C97.1428 410.874 97.3027 410.714 97.5 410.714H102.5C102.697 410.714 102.857 410.874 102.857 411.071V419.643C102.857 419.643 102.857 419.644 102.857 419.645C102.857 419.693 102.847 419.738 102.83 419.78C102.813 419.822 102.787 419.861 102.753 419.895C102.718 419.93 102.679 419.956 102.637 419.973C102.595 419.99 102.55 420 102.502 420C102.501 420 102.501 420 102.5 420C102.499 420 102.499 420 102.498 420C102.407 420 102.317 419.965 102.247 419.895L100 417.648L97.7525 419.895C97.6833 419.965 97.5928 420 97.5021 420L97.5 420L97.4978 420C97.4502 420 97.4047 419.99 97.3633 419.973C97.3211 419.956 97.2817 419.93 97.2474 419.895C97.2132 419.861 97.1874 419.822 97.1699 419.78C97.1525 419.738 97.1428 419.691 97.1428 419.643V411.071ZM99.7474 416.89C99.8869 416.751 100.113 416.751 100.253 416.89L102.143 418.781V411.429H97.8571V418.781L99.7474 416.89Z" fill="#37D5D3"/>
<text fill="#333333" xml:space="preserve" style="white-space: pre" font-family="'Nunito Sans', 'Helvetica Neue', Helvetica, Arial, sans-serif" font-size="13" letter-spacing="0em"><tspan x="110" y="419.277">Default</tspan></text>
<rect width="251" height="24" transform="translate(41 403)" fill="#1EA7FD"/>
<path fill-rule="evenodd" clip-rule="evenodd" d="M97.1428 411.071C97.1428 410.874 97.3027 410.714 97.5 410.714H102.5C102.697 410.714 102.857 410.874 102.857 411.071V419.643C102.857 419.643 102.857 419.644 102.857 419.645C102.857 419.693 102.847 419.738 102.83 419.78C102.813 419.822 102.787 419.861 102.753 419.895C102.718 419.93 102.679 419.956 102.637 419.973C102.595 419.99 102.55 420 102.502 420C102.501 420 102.501 420 102.5 420C102.499 420 102.499 420 102.498 420C102.407 420 102.317 419.965 102.247 419.895L100 417.648L97.7525 419.895C97.6833 419.965 97.5928 420 97.5021 420L97.5 420L97.4978 420C97.4502 420 97.4047 419.99 97.3633 419.973C97.3211 419.956 97.2817 419.93 97.2474 419.895C97.2132 419.861 97.1874 419.822 97.1699 419.78C97.1525 419.738 97.1428 419.691 97.1428 419.643V411.071ZM99.7474 416.89C99.8869 416.751 100.113 416.751 100.253 416.89L102.143 418.781V411.429H97.8571V418.781L99.7474 416.89Z" fill="white"/>
<text fill="white" xml:space="preserve" style="white-space: pre" font-family="'Nunito Sans', 'Helvetica Neue', Helvetica, Arial, sans-serif" font-size="13" font-weight="bold" letter-spacing="0em"><tspan x="110" y="419.277">Default</tspan></text>
<path fill-rule="evenodd" clip-rule="evenodd" d="M97.1428 435.071C97.1428 434.874 97.3027 434.714 97.5 434.714H102.5C102.697 434.714 102.857 434.874 102.857 435.071V443.643C102.857 443.643 102.857 443.644 102.857 443.645C102.857 443.693 102.847 443.738 102.83 443.78C102.813 443.822 102.787 443.861 102.753 443.895C102.718 443.93 102.679 443.956 102.637 443.973C102.595 443.99 102.55 444 102.502 444C102.501 444 102.501 444 102.5 444C102.499 444 102.499 444 102.498 444C102.407 444 102.317 443.965 102.247 443.895L100 441.648L97.7525 443.895C97.6833 443.965 97.5928 444 97.5021 444L97.5 444L97.4978 444C97.4502 444 97.4047 443.99 97.3633 443.973C97.3211 443.956 97.2817 443.93 97.2474 443.895C97.2132 443.861 97.1874 443.822 97.1699 443.78C97.1525 443.738 97.1428 443.691 97.1428 443.643V435.071ZM99.7474 440.89C99.8869 440.751 100.113 440.751 100.253 440.89L102.143 442.781V435.429H97.8571V442.781L99.7474 440.89Z" fill="#37D5D3"/>
<text fill="#333333" xml:space="preserve" style="white-space: pre" font-family="'Nunito Sans', 'Helvetica Neue', Helvetica, Arial, sans-serif" font-size="13" letter-spacing="0em"><tspan x="110" y="443.277">No selection</tspan></text>
<path fill-rule="evenodd" clip-rule="evenodd" d="M97.1428 435.071C97.1428 434.874 97.3027 434.714 97.5 434.714H102.5C102.697 434.714 102.857 434.874 102.857 435.071V443.643C102.857 443.643 102.857 443.644 102.857 443.645C102.857 443.693 102.847 443.738 102.83 443.78C102.813 443.822 102.787 443.861 102.753 443.895C102.718 443.93 102.679 443.956 102.637 443.973C102.595 443.99 102.55 444 102.502 444C102.501 444 102.501 444 102.5 444C102.499 444 102.499 444 102.498 444C102.407 444 102.317 443.965 102.247 443.895L100 441.648L97.7525 443.895C97.6833 443.965 97.5928 444 97.5021 444L97.5 444L97.4978 444C97.4502 444 97.4047 443.99 97.3633 443.973C97.3211 443.956 97.2817 443.93 97.2474 443.895C97.2132 443.861 97.1874 443.822 97.1699 443.78C97.1525 443.738 97.1428 443.691 97.1428 443.643V435.071ZM99.7474 440.89C99.8869 440.751 100.113 440.751 100.253 440.89L102.143 442.781V435.429H97.8571V442.781L99.7474 440.89Z" fill="#37D5D3"/>
<text fill="#333333" xml:space="preserve" style="white-space: pre" font-family="'Nunito Sans', 'Helvetica Neue', Helvetica, Arial, sans-serif" font-size="13" letter-spacing="0em"><tspan x="110" y="443.277">No selection</tspan></text>
<path fill-rule="evenodd" clip-rule="evenodd" d="M97.1428 459.071C97.1428 458.874 97.3027 458.714 97.5 458.714H102.5C102.697 458.714 102.857 458.874 102.857 459.071V467.643C102.857 467.643 102.857 467.644 102.857 467.645C102.857 467.693 102.847 467.738 102.83 467.78C102.813 467.822 102.787 467.861 102.753 467.895C102.718 467.93 102.679 467.956 102.637 467.973C102.595 467.99 102.55 468 102.502 468C102.501 468 102.501 468 102.5 468C102.499 468 102.499 468 102.498 468C102.407 468 102.317 467.965 102.247 467.895L100 465.648L97.7525 467.895C97.6833 467.965 97.5928 468 97.5021 468L97.5 468L97.4978 468C97.4502 468 97.4047 467.99 97.3633 467.973C97.3211 467.956 97.2817 467.93 97.2474 467.895C97.2132 467.861 97.1874 467.822 97.1699 467.78C97.1525 467.738 97.1428 467.691 97.1428 467.643V459.071ZM99.7474 464.89C99.8869 464.751 100.113 464.751 100.253 464.89L102.143 466.781V459.429H97.8571V466.781L99.7474 464.89Z" fill="#37D5D3"/>
<text fill="#333333" xml:space="preserve" style="white-space: pre" font-family="'Nunito Sans', 'Helvetica Neue', Helvetica, Arial, sans-serif" font-size="13" letter-spacing="0em"><tspan x="110" y="467.277">Input range</tspan></text>
<path fill-rule="evenodd" clip-rule="evenodd" d="M97.1428 459.071C97.1428 458.874 97.3027 458.714 97.5 458.714H102.5C102.697 458.714 102.857 458.874 102.857 459.071V467.643C102.857 467.643 102.857 467.644 102.857 467.645C102.857 467.693 102.847 467.738 102.83 467.78C102.813 467.822 102.787 467.861 102.753 467.895C102.718 467.93 102.679 467.956 102.637 467.973C102.595 467.99 102.55 468 102.502 468C102.501 468 102.501 468 102.5 468C102.499 468 102.499 468 102.498 468C102.407 468 102.317 467.965 102.247 467.895L100 465.648L97.7525 467.895C97.6833 467.965 97.5928 468 97.5021 468L97.5 468L97.4978 468C97.4502 468 97.4047 467.99 97.3633 467.973C97.3211 467.956 97.2817 467.93 97.2474 467.895C97.2132 467.861 97.1874 467.822 97.1699 467.78C97.1525 467.738 97.1428 467.691 97.1428 467.643V459.071ZM99.7474 464.89C99.8869 464.751 100.113 464.751 100.253 464.89L102.143 466.781V459.429H97.8571V466.781L99.7474 464.89Z" fill="#37D5D3"/>
<text fill="#333333" xml:space="preserve" style="white-space: pre" font-family="'Nunito Sans', 'Helvetica Neue', Helvetica, Arial, sans-serif" font-size="13" letter-spacing="0em"><tspan x="110" y="467.277">Input range</tspan></text>
<path fill-rule="evenodd" clip-rule="evenodd" d="M71.1875 487L67.6875 483.5V490.5L71.1875 487Z" fill="#7A858E" fill-opacity="0.5"/>
<g clip-path="url(#clip8_5691_83126)">
<path fill-rule="evenodd" clip-rule="evenodd" d="M80.5001 482.717C79.5138 482.717 78.7144 483.517 78.7144 484.503V489.503C78.7144 490.489 79.5138 491.288 80.5001 491.288H85.5001C86.4863 491.288 87.2858 490.489 87.2858 489.503V484.503C87.2858 483.517 86.4863 482.717 85.5001 482.717H80.5001ZM86.5715 486.646H83.3572V483.431H85.5001C86.0918 483.431 86.5715 483.911 86.5715 484.503V486.646ZM86.5715 487.36V489.503C86.5715 490.094 86.0918 490.574 85.5001 490.574H83.3572V487.36H86.5715ZM82.6429 490.574V487.36H79.4286V489.503C79.4286 490.094 79.9083 490.574 80.5001 490.574H82.6429ZM79.4286 486.646H82.6429V483.431H80.5001C79.9083 483.431 79.4286 483.911 79.4286 484.503V486.646Z" fill="#1EA7FD"/>
</g>
<text fill="#333333" xml:space="preserve" style="white-space: pre" font-family="'Nunito Sans', 'Helvetica Neue', Helvetica, Arial, sans-serif" font-size="13" letter-spacing="0em"><tspan x="93" y="491.277">TimeFrame</tspan></text>
<rect width="251" height="24" transform="translate(41 475)" fill="#F6F9FC"/>
<path fill-rule="evenodd" clip-rule="evenodd" d="M69 489L72.5 485.5H65.5L69 489Z" fill="#7A858E" fill-opacity="0.5"/>
<g clip-path="url(#clip9_5691_83126)">
<path fill-rule="evenodd" clip-rule="evenodd" d="M80.5001 482.717C79.5138 482.717 78.7144 483.517 78.7144 484.503V489.503C78.7144 490.489 79.5138 491.288 80.5001 491.288H85.5001C86.4863 491.288 87.2858 490.489 87.2858 489.503V484.503C87.2858 483.517 86.4863 482.717 85.5001 482.717H80.5001ZM86.5715 486.646H83.3572V483.431H85.5001C86.0918 483.431 86.5715 483.911 86.5715 484.503V486.646ZM86.5715 487.36V489.503C86.5715 490.094 86.0918 490.574 85.5001 490.574H83.3572V487.36H86.5715ZM82.6429 490.574V487.36H79.4286V489.503C79.4286 490.094 79.9083 490.574 80.5001 490.574H82.6429ZM79.4286 486.646H82.6429V483.431H80.5001C79.9083 483.431 79.4286 483.911 79.4286 484.503V486.646Z" fill="#1EA7FD"/>
</g>
<text fill="#333333" xml:space="preserve" style="white-space: pre" font-family="'Nunito Sans', 'Helvetica Neue', Helvetica, Arial, sans-serif" font-size="13" letter-spacing="0em"><tspan x="93" y="491.277">TimeFrame</tspan></text>
<path d="M98.5713 509.574C98.3741 509.574 98.2142 509.734 98.2142 509.931C98.2142 510.129 98.3741 510.288 98.5713 510.288H101.428C101.626 510.288 101.786 510.129 101.786 509.931C101.786 509.734 101.626 509.574 101.428 509.574H98.5713Z" fill="#FFAE00"/>
<path d="M98.5713 511.003C98.3741 511.003 98.2142 511.163 98.2142 511.36C98.2142 511.557 98.3741 511.717 98.5713 511.717H101.428C101.626 511.717 101.786 511.557 101.786 511.36C101.786 511.163 101.626 511.003 101.428 511.003H98.5713Z" fill="#FFAE00"/>
<path d="M98.2142 512.788C98.2142 512.591 98.3741 512.431 98.5713 512.431H101.428C101.626 512.431 101.786 512.591 101.786 512.788C101.786 512.986 101.626 513.146 101.428 513.146H98.5713C98.3741 513.146 98.2142 512.986 98.2142 512.788Z" fill="#FFAE00"/>
<path fill-rule="evenodd" clip-rule="evenodd" d="M101.786 506.717C101.846 506.717 101.907 506.732 101.961 506.763C101.977 506.772 101.992 506.782 102.007 506.794C102.019 506.803 102.03 506.813 102.041 506.824L103.464 508.248C103.53 508.313 103.571 508.403 103.571 508.503L103.571 508.507L103.571 514.931C103.571 515.129 103.411 515.288 103.214 515.288H96.7856C96.5884 515.288 96.4285 515.129 96.4285 514.931V507.074C96.4285 506.877 96.5884 506.717 96.7856 506.717H101.786ZM97.1428 514.574V507.431H101.428V508.503C101.428 508.7 101.588 508.86 101.786 508.86H102.857V514.574H97.1428Z" fill="#FFAE00"/>
<text fill="#333333" xml:space="preserve" style="white-space: pre" font-family="'Nunito Sans', 'Helvetica Neue', Helvetica, Arial, sans-serif" font-size="13" letter-spacing="0em"><tspan x="110" y="515.277">Overview</tspan></text>
<path d="M98.5713 509.574C98.3741 509.574 98.2142 509.734 98.2142 509.931C98.2142 510.129 98.3741 510.288 98.5713 510.288H101.428C101.626 510.288 101.786 510.129 101.786 509.931C101.786 509.734 101.626 509.574 101.428 509.574H98.5713Z" fill="#FFAE00"/>
<path d="M98.5713 511.003C98.3741 511.003 98.2142 511.163 98.2142 511.36C98.2142 511.557 98.3741 511.717 98.5713 511.717H101.428C101.626 511.717 101.786 511.557 101.786 511.36C101.786 511.163 101.626 511.003 101.428 511.003H98.5713Z" fill="#FFAE00"/>
<path d="M98.2142 512.788C98.2142 512.591 98.3741 512.431 98.5713 512.431H101.428C101.626 512.431 101.786 512.591 101.786 512.788C101.786 512.986 101.626 513.146 101.428 513.146H98.5713C98.3741 513.146 98.2142 512.986 98.2142 512.788Z" fill="#FFAE00"/>
<path fill-rule="evenodd" clip-rule="evenodd" d="M101.786 506.717C101.846 506.717 101.907 506.732 101.961 506.763C101.977 506.772 101.992 506.782 102.007 506.794C102.019 506.803 102.03 506.813 102.041 506.824L103.464 508.248C103.53 508.313 103.571 508.403 103.571 508.503L103.571 508.507L103.571 514.931C103.571 515.129 103.411 515.288 103.214 515.288H96.7856C96.5884 515.288 96.4285 515.129 96.4285 514.931V507.074C96.4285 506.877 96.5884 506.717 96.7856 506.717H101.786ZM97.1428 514.574V507.431H101.428V508.503C101.428 508.7 101.588 508.86 101.786 508.86H102.857V514.574H97.1428Z" fill="#FFAE00"/>
<text fill="#333333" xml:space="preserve" style="white-space: pre" font-family="'Nunito Sans', 'Helvetica Neue', Helvetica, Arial, sans-serif" font-size="13" letter-spacing="0em"><tspan x="110" y="515.277">Overview</tspan></text>
<path fill-rule="evenodd" clip-rule="evenodd" d="M97.1428 531.071C97.1428 530.874 97.3027 530.714 97.5 530.714H102.5C102.697 530.714 102.857 530.874 102.857 531.071V539.643C102.857 539.643 102.857 539.644 102.857 539.645C102.857 539.693 102.847 539.738 102.83 539.78C102.813 539.822 102.787 539.861 102.753 539.895C102.718 539.93 102.679 539.956 102.637 539.973C102.595 539.99 102.55 540 102.502 540C102.501 540 102.501 540 102.5 540C102.499 540 102.499 540 102.498 540C102.407 540 102.317 539.965 102.247 539.895L100 537.648L97.7525 539.895C97.6833 539.965 97.5928 540 97.5021 540L97.5 540L97.4978 540C97.4502 540 97.4047 539.99 97.3633 539.973C97.3211 539.956 97.2817 539.93 97.2474 539.895C97.2132 539.861 97.1874 539.822 97.1699 539.78C97.1525 539.738 97.1428 539.691 97.1428 539.643V531.071ZM99.7474 536.89C99.8869 536.751 100.113 536.751 100.253 536.89L102.143 538.781V531.429H97.8571V538.781L99.7474 536.89Z" fill="#37D5D3"/>
<text fill="#333333" xml:space="preserve" style="white-space: pre" font-family="'Nunito Sans', 'Helvetica Neue', Helvetica, Arial, sans-serif" font-size="13" letter-spacing="0em"><tspan x="110" y="539.277">No selection</tspan></text>
<path fill-rule="evenodd" clip-rule="evenodd" d="M97.1428 531.071C97.1428 530.874 97.3027 530.714 97.5 530.714H102.5C102.697 530.714 102.857 530.874 102.857 531.071V539.643C102.857 539.643 102.857 539.644 102.857 539.645C102.857 539.693 102.847 539.738 102.83 539.78C102.813 539.822 102.787 539.861 102.753 539.895C102.718 539.93 102.679 539.956 102.637 539.973C102.595 539.99 102.55 540 102.502 540C102.501 540 102.501 540 102.5 540C102.499 540 102.499 540 102.498 540C102.407 540 102.317 539.965 102.247 539.895L100 537.648L97.7525 539.895C97.6833 539.965 97.5928 540 97.5021 540L97.5 540L97.4978 540C97.4502 540 97.4047 539.99 97.3633 539.973C97.3211 539.956 97.2817 539.93 97.2474 539.895C97.2132 539.861 97.1874 539.822 97.1699 539.78C97.1525 539.738 97.1428 539.691 97.1428 539.643V531.071ZM99.7474 536.89C99.8869 536.751 100.113 536.751 100.253 536.89L102.143 538.781V531.429H97.8571V538.781L99.7474 536.89Z" fill="#37D5D3"/>
<text fill="#333333" xml:space="preserve" style="white-space: pre" font-family="'Nunito Sans', 'Helvetica Neue', Helvetica, Arial, sans-serif" font-size="13" letter-spacing="0em"><tspan x="110" y="539.277">No selection</tspan></text>
<path fill-rule="evenodd" clip-rule="evenodd" d="M97.1428 555.071C97.1428 554.874 97.3027 554.714 97.5 554.714H102.5C102.697 554.714 102.857 554.874 102.857 555.071V563.643C102.857 563.643 102.857 563.644 102.857 563.645C102.857 563.693 102.847 563.738 102.83 563.78C102.813 563.822 102.787 563.861 102.753 563.895C102.718 563.93 102.679 563.956 102.637 563.973C102.595 563.99 102.55 564 102.502 564C102.501 564 102.501 564 102.5 564C102.499 564 102.499 564 102.498 564C102.407 564 102.317 563.965 102.247 563.895L100 561.648L97.7525 563.895C97.6833 563.965 97.5928 564 97.5021 564L97.5 564L97.4978 564C97.4502 564 97.4047 563.99 97.3633 563.973C97.3211 563.956 97.2817 563.93 97.2474 563.895C97.2132 563.861 97.1874 563.822 97.1699 563.78C97.1525 563.738 97.1428 563.691 97.1428 563.643V555.071ZM99.7474 560.89C99.8869 560.751 100.113 560.751 100.253 560.89L102.143 562.781V555.429H97.8571V562.781L99.7474 560.89Z" fill="#37D5D3"/>
<text fill="#333333" xml:space="preserve" style="white-space: pre" font-family="'Nunito Sans', 'Helvetica Neue', Helvetica, Arial, sans-serif" font-size="13" letter-spacing="0em"><tspan x="110" y="563.277">Last hour</tspan></text>
<path fill-rule="evenodd" clip-rule="evenodd" d="M97.1428 555.071C97.1428 554.874 97.3027 554.714 97.5 554.714H102.5C102.697 554.714 102.857 554.874 102.857 555.071V563.643C102.857 563.643 102.857 563.644 102.857 563.645C102.857 563.693 102.847 563.738 102.83 563.78C102.813 563.822 102.787 563.861 102.753 563.895C102.718 563.93 102.679 563.956 102.637 563.973C102.595 563.99 102.55 564 102.502 564C102.501 564 102.501 564 102.5 564C102.499 564 102.499 564 102.498 564C102.407 564 102.317 563.965 102.247 563.895L100 561.648L97.7525 563.895C97.6833 563.965 97.5928 564 97.5021 564L97.5 564L97.4978 564C97.4502 564 97.4047 563.99 97.3633 563.973C97.3211 563.956 97.2817 563.93 97.2474 563.895C97.2132 563.861 97.1874 563.822 97.1699 563.78C97.1525 563.738 97.1428 563.691 97.1428 563.643V555.071ZM99.7474 560.89C99.8869 560.751 100.113 560.751 100.253 560.89L102.143 562.781V555.429H97.8571V562.781L99.7474 560.89Z" fill="#37D5D3"/>
<text fill="#333333" xml:space="preserve" style="white-space: pre" font-family="'Nunito Sans', 'Helvetica Neue', Helvetica, Arial, sans-serif" font-size="13" letter-spacing="0em"><tspan x="110" y="563.277">Last hour</tspan></text>
<path fill-rule="evenodd" clip-rule="evenodd" d="M97.1428 579.071C97.1428 578.874 97.3027 578.714 97.5 578.714H102.5C102.697 578.714 102.857 578.874 102.857 579.071V587.643C102.857 587.643 102.857 587.644 102.857 587.645C102.857 587.693 102.847 587.738 102.83 587.78C102.813 587.822 102.787 587.861 102.753 587.895C102.718 587.93 102.679 587.956 102.637 587.973C102.595 587.99 102.55 588 102.502 588C102.501 588 102.501 588 102.5 588C102.499 588 102.499 588 102.498 588C102.407 588 102.317 587.965 102.247 587.895L100 585.648L97.7525 587.895C97.6833 587.965 97.5928 588 97.5021 588L97.5 588L97.4978 588C97.4502 588 97.4047 587.99 97.3633 587.973C97.3211 587.956 97.2817 587.93 97.2474 587.895C97.2132 587.861 97.1874 587.822 97.1699 587.78C97.1525 587.738 97.1428 587.691 97.1428 587.643V579.071ZM99.7474 584.89C99.8869 584.751 100.113 584.751 100.253 584.89L102.143 586.781V579.429H97.8571V586.781L99.7474 584.89Z" fill="#37D5D3"/>
<text fill="#333333" xml:space="preserve" style="white-space: pre" font-family="'Nunito Sans', 'Helvetica Neue', Helvetica, Arial, sans-serif" font-size="13" letter-spacing="0em"><tspan x="110" y="587.277">All day</tspan></text>
<path fill-rule="evenodd" clip-rule="evenodd" d="M97.1428 579.071C97.1428 578.874 97.3027 578.714 97.5 578.714H102.5C102.697 578.714 102.857 578.874 102.857 579.071V587.643C102.857 587.643 102.857 587.644 102.857 587.645C102.857 587.693 102.847 587.738 102.83 587.78C102.813 587.822 102.787 587.861 102.753 587.895C102.718 587.93 102.679 587.956 102.637 587.973C102.595 587.99 102.55 588 102.502 588C102.501 588 102.501 588 102.5 588C102.499 588 102.499 588 102.498 588C102.407 588 102.317 587.965 102.247 587.895L100 585.648L97.7525 587.895C97.6833 587.965 97.5928 588 97.5021 588L97.5 588L97.4978 588C97.4502 588 97.4047 587.99 97.3633 587.973C97.3211 587.956 97.2817 587.93 97.2474 587.895C97.2132 587.861 97.1874 587.822 97.1699 587.78C97.1525 587.738 97.1428 587.691 97.1428 587.643V579.071ZM99.7474 584.89C99.8869 584.751 100.113 584.751 100.253 584.89L102.143 586.781V579.429H97.8571V586.781L99.7474 584.89Z" fill="#37D5D3"/>
<text fill="#333333" xml:space="preserve" style="white-space: pre" font-family="'Nunito Sans', 'Helvetica Neue', Helvetica, Arial, sans-serif" font-size="13" letter-spacing="0em"><tspan x="110" y="587.277">All day</tspan></text>
<path fill-rule="evenodd" clip-rule="evenodd" d="M71.1875 607L67.6875 603.5V610.5L71.1875 607Z" fill="#7A858E" fill-opacity="0.5"/>
<g clip-path="url(#clip10_5691_83126)">
<path fill-rule="evenodd" clip-rule="evenodd" d="M80.5001 602.717C79.5138 602.717 78.7144 603.517 78.7144 604.503V609.503C78.7144 610.489 79.5138 611.289 80.5001 611.289H85.5001C86.4863 611.289 87.2858 610.489 87.2858 609.503V604.503C87.2858 603.517 86.4863 602.717 85.5001 602.717H80.5001ZM86.5715 606.646H83.3572V603.432H85.5001C86.0918 603.432 86.5715 603.911 86.5715 604.503V606.646ZM86.5715 607.36V609.503C86.5715 610.095 86.0918 610.574 85.5001 610.574H83.3572V607.36H86.5715ZM82.6429 610.574V607.36H79.4286V609.503C79.4286 610.095 79.9083 610.574 80.5001 610.574H82.6429ZM79.4286 606.646H82.6429V603.432H80.5001C79.9083 603.432 79.4286 603.911 79.4286 604.503V606.646Z" fill="#1EA7FD"/>
</g>
<text fill="#333333" xml:space="preserve" style="white-space: pre" font-family="'Nunito Sans', 'Helvetica Neue', Helvetica, Arial, sans-serif" font-size="13" letter-spacing="0em"><tspan x="93" y="611.277">DatePicker</tspan></text>
<rect width="251" height="24" transform="translate(41 595)" fill="#F6F9FC"/>
<path fill-rule="evenodd" clip-rule="evenodd" d="M69 609L72.5 605.5H65.5L69 609Z" fill="#7A858E" fill-opacity="0.5"/>
<g clip-path="url(#clip11_5691_83126)">
<path fill-rule="evenodd" clip-rule="evenodd" d="M80.5001 602.717C79.5138 602.717 78.7144 603.517 78.7144 604.503V609.503C78.7144 610.489 79.5138 611.289 80.5001 611.289H85.5001C86.4863 611.289 87.2858 610.489 87.2858 609.503V604.503C87.2858 603.517 86.4863 602.717 85.5001 602.717H80.5001ZM86.5715 606.646H83.3572V603.432H85.5001C86.0918 603.432 86.5715 603.911 86.5715 604.503V606.646ZM86.5715 607.36V609.503C86.5715 610.095 86.0918 610.574 85.5001 610.574H83.3572V607.36H86.5715ZM82.6429 610.574V607.36H79.4286V609.503C79.4286 610.095 79.9083 610.574 80.5001 610.574H82.6429ZM79.4286 606.646H82.6429V603.432H80.5001C79.9083 603.432 79.4286 603.911 79.4286 604.503V606.646Z" fill="#1EA7FD"/>
</g>
<text fill="#333333" xml:space="preserve" style="white-space: pre" font-family="'Nunito Sans', 'Helvetica Neue', Helvetica, Arial, sans-serif" font-size="13" letter-spacing="0em"><tspan x="93" y="611.277">DatePicker</tspan></text>
<path d="M98.5713 629.574C98.3741 629.574 98.2142 629.734 98.2142 629.932C98.2142 630.129 98.3741 630.289 98.5713 630.289H101.428C101.626 630.289 101.786 630.129 101.786 629.932C101.786 629.734 101.626 629.574 101.428 629.574H98.5713Z" fill="#FFAE00"/>
<path d="M98.5713 631.003C98.3741 631.003 98.2142 631.163 98.2142 631.36C98.2142 631.557 98.3741 631.717 98.5713 631.717H101.428C101.626 631.717 101.786 631.557 101.786 631.36C101.786 631.163 101.626 631.003 101.428 631.003H98.5713Z" fill="#FFAE00"/>
<path d="M98.2142 632.789C98.2142 632.591 98.3741 632.432 98.5713 632.432H101.428C101.626 632.432 101.786 632.591 101.786 632.789C101.786 632.986 101.626 633.146 101.428 633.146H98.5713C98.3741 633.146 98.2142 632.986 98.2142 632.789Z" fill="#FFAE00"/>
<path fill-rule="evenodd" clip-rule="evenodd" d="M101.786 626.717C101.846 626.717 101.907 626.733 101.961 626.763C101.977 626.772 101.992 626.783 102.007 626.794C102.019 626.803 102.03 626.814 102.041 626.824L103.464 628.248C103.53 628.313 103.571 628.403 103.571 628.503L103.571 628.507L103.571 634.932C103.571 635.129 103.411 635.289 103.214 635.289H96.7856C96.5884 635.289 96.4285 635.129 96.4285 634.932V627.074C96.4285 626.877 96.5884 626.717 96.7856 626.717H101.786ZM97.1428 634.574V627.432H101.428V628.503C101.428 628.7 101.588 628.86 101.786 628.86H102.857V634.574H97.1428Z" fill="#FFAE00"/>
<text fill="#333333" xml:space="preserve" style="white-space: pre" font-family="'Nunito Sans', 'Helvetica Neue', Helvetica, Arial, sans-serif" font-size="13" letter-spacing="0em"><tspan x="110" y="635.277">Overview</tspan></text>
<path fill-rule="evenodd" clip-rule="evenodd" d="M97.1428 651.071C97.1428 650.874 97.3027 650.714 97.5 650.714H102.5C102.697 650.714 102.857 650.874 102.857 651.071V659.643C102.857 659.643 102.857 659.644 102.857 659.645C102.857 659.693 102.847 659.738 102.83 659.78C102.813 659.822 102.787 659.861 102.753 659.895C102.718 659.93 102.679 659.956 102.637 659.973C102.595 659.99 102.55 660 102.502 660C102.501 660 102.501 660 102.5 660C102.499 660 102.499 660 102.498 660C102.407 660 102.317 659.965 102.247 659.895L100 657.648L97.7525 659.895C97.6833 659.965 97.5928 660 97.5021 660L97.5 660L97.4978 660C97.4502 660 97.4047 659.99 97.3633 659.973C97.3211 659.956 97.2817 659.93 97.2474 659.895C97.2132 659.861 97.1874 659.822 97.1699 659.78C97.1525 659.738 97.1428 659.691 97.1428 659.643V651.071ZM99.7474 656.89C99.8869 656.751 100.113 656.751 100.253 656.89L102.143 658.781V651.429H97.8571V658.781L99.7474 656.89Z" fill="#37D5D3"/>
<text fill="#333333" xml:space="preserve" style="white-space: pre" font-family="'Nunito Sans', 'Helvetica Neue', Helvetica, Arial, sans-serif" font-size="13" letter-spacing="0em"><tspan x="110" y="659.277">No selection</tspan></text>
<path fill-rule="evenodd" clip-rule="evenodd" d="M97.1428 675.071C97.1428 674.874 97.3027 674.714 97.5 674.714H102.5C102.697 674.714 102.857 674.874 102.857 675.071V683.643C102.857 683.643 102.857 683.644 102.857 683.645C102.857 683.693 102.847 683.738 102.83 683.78C102.813 683.822 102.787 683.861 102.753 683.895C102.718 683.93 102.679 683.956 102.637 683.973C102.595 683.99 102.55 684 102.502 684C102.501 684 102.501 684 102.5 684C102.499 684 102.499 684 102.498 684C102.407 684 102.317 683.965 102.247 683.895L100 681.648L97.7525 683.895C97.6833 683.965 97.5928 684 97.5021 684L97.5 684L97.4978 684C97.4502 684 97.4047 683.99 97.3633 683.973C97.3211 683.956 97.2817 683.93 97.2474 683.895C97.2132 683.861 97.1874 683.822 97.1699 683.78C97.1525 683.738 97.1428 683.691 97.1428 683.643V675.071ZM99.7474 680.89C99.8869 680.751 100.113 680.751 100.253 680.89L102.143 682.781V675.429H97.8571V682.781L99.7474 680.89Z" fill="#37D5D3"/>
<text fill="#333333" xml:space="preserve" style="white-space: pre" font-family="'Nunito Sans', 'Helvetica Neue', Helvetica, Arial, sans-serif" font-size="13" letter-spacing="0em"><tspan x="110" y="683.277">One week</tspan></text>
<path fill-rule="evenodd" clip-rule="evenodd" d="M97.1428 699.071C97.1428 698.874 97.3027 698.714 97.5 698.714H102.5C102.697 698.714 102.857 698.874 102.857 699.071V707.643C102.857 707.643 102.857 707.644 102.857 707.645C102.857 707.693 102.847 707.738 102.83 707.78C102.813 707.822 102.787 707.861 102.753 707.895C102.718 707.93 102.679 707.956 102.637 707.973C102.595 707.99 102.55 708 102.502 708C102.501 708 102.501 708 102.5 708C102.499 708 102.499 708 102.498 708C102.407 708 102.317 707.965 102.247 707.895L100 705.648L97.7525 707.895C97.6833 707.965 97.5928 708 97.5021 708L97.5 708L97.4978 708C97.4502 708 97.4047 707.99 97.3633 707.973C97.3211 707.956 97.2817 707.93 97.2474 707.895C97.2132 707.861 97.1874 707.822 97.1699 707.78C97.1525 707.738 97.1428 707.691 97.1428 707.643V699.071ZM99.7474 704.89C99.8869 704.751 100.113 704.751 100.253 704.89L102.143 706.781V699.429H97.8571V706.781L99.7474 704.89Z" fill="#37D5D3"/>
<text fill="#333333" xml:space="preserve" style="white-space: pre" font-family="'Nunito Sans', 'Helvetica Neue', Helvetica, Arial, sans-serif" font-size="13" letter-spacing="0em"><tspan x="110" y="707.277">Last day</tspan></text>
<path fill-rule="evenodd" clip-rule="evenodd" d="M53 729L56.5 725.5H49.5L53 729Z" fill="#7A858E" fill-opacity="0.5"/>
<path fill-rule="evenodd" clip-rule="evenodd" d="M66.7042 725.217L65.6328 724.145H63.4286V729.86H70.5715V725.217H66.7042ZM67.0001 724.503L66.1379 723.64C66.0039 723.506 65.8222 723.431 65.6328 723.431H63.0715C62.8743 723.431 62.7144 723.591 62.7144 723.788V730.217C62.7144 730.414 62.8743 730.574 63.0715 730.574H70.9286C71.1259 730.574 71.2858 730.414 71.2858 730.217V724.86C71.2858 724.662 71.1259 724.503 70.9286 724.503H67.0001Z" fill="#6F2CAC"/>
<text fill="#333333" xml:space="preserve" style="white-space: pre" font-family="'Nunito Sans', 'Helvetica Neue', Helvetica, Arial, sans-serif" font-size="13" letter-spacing="0em"><tspan x="77" y="731.277">Interstitial</tspan></text>
<path fill-rule="evenodd" clip-rule="evenodd" d="M71.1875 751L67.6875 747.5V754.5L71.1875 751Z" fill="#7A858E" fill-opacity="0.5"/>
<path fill-rule="evenodd" clip-rule="evenodd" d="M82.7042 749.217L81.6328 748.145H79.4286V753.86H86.5715V749.217H82.7042ZM83.0001 748.503L82.1379 747.64C82.0039 747.506 81.8222 747.431 81.6328 747.431H79.0715C78.8743 747.431 78.7144 747.591 78.7144 747.788V754.217C78.7144 754.414 78.8743 754.574 79.0715 754.574H86.9286C87.1259 754.574 87.2858 754.414 87.2858 754.217V748.86C87.2858 748.662 87.1259 748.503 86.9286 748.503H83.0001Z" fill="#6F2CAC"/>
<text fill="#333333" xml:space="preserve" style="white-space: pre" font-family="'Nunito Sans', 'Helvetica Neue', Helvetica, Arial, sans-serif" font-size="13" letter-spacing="0em"><tspan x="93" y="755.277">Spinners</tspan></text>
<path fill-rule="evenodd" clip-rule="evenodd" d="M69 777L72.5 773.5H65.5L69 777Z" fill="#7A858E" fill-opacity="0.5"/>
<path fill-rule="evenodd" clip-rule="evenodd" d="M82.7042 773.217L81.6328 772.145H79.4286V777.86H86.5715V773.217H82.7042ZM83.0001 772.503L82.1379 771.64C82.0039 771.506 81.8222 771.431 81.6328 771.431H79.0715C78.8743 771.431 78.7144 771.591 78.7144 771.788V778.217C78.7144 778.414 78.8743 778.574 79.0715 778.574H86.9286C87.1259 778.574 87.2858 778.414 87.2858 778.217V772.86C87.2858 772.662 87.1259 772.503 86.9286 772.503H83.0001Z" fill="#6F2CAC"/>
<text fill="#333333" xml:space="preserve" style="white-space: pre" font-family="'Nunito Sans', 'Helvetica Neue', Helvetica, Arial, sans-serif" font-size="13" letter-spacing="0em"><tspan x="93" y="779.277">Progress indicators</tspan></text>
<path fill-rule="evenodd" clip-rule="evenodd" d="M88.1875 799L84.6875 795.5V802.5L88.1875 799Z" fill="#7A858E" fill-opacity="0.5"/>
<g clip-path="url(#clip12_5691_83126)">
<path fill-rule="evenodd" clip-rule="evenodd" d="M97.5001 794.717C96.5138 794.717 95.7144 795.517 95.7144 796.503V801.503C95.7144 802.489 96.5138 803.289 97.5001 803.289H102.5C103.486 803.289 104.286 802.489 104.286 801.503V796.503C104.286 795.517 103.486 794.717 102.5 794.717H97.5001ZM103.571 798.646H100.357V795.432H102.5C103.092 795.432 103.571 795.911 103.571 796.503V798.646ZM103.571 799.36V801.503C103.571 802.095 103.092 802.574 102.5 802.574H100.357V799.36H103.571ZM99.6429 802.574V799.36H96.4286V801.503C96.4286 802.095 96.9083 802.574 97.5001 802.574H99.6429ZM96.4286 798.646H99.6429V795.432H97.5001C96.9083 795.432 96.4286 795.911 96.4286 796.503V798.646Z" fill="#1EA7FD"/>
</g>
<text fill="#333333" xml:space="preserve" style="white-space: pre" font-family="'Nunito Sans', 'Helvetica Neue', Helvetica, Arial, sans-serif" font-size="13" letter-spacing="0em"><tspan x="110" y="803.277">ProgressBar</tspan></text>
<path fill-rule="evenodd" clip-rule="evenodd" d="M88.1875 823L84.6875 819.5V826.5L88.1875 823Z" fill="#7A858E" fill-opacity="0.5"/>
<g clip-path="url(#clip13_5691_83126)">
<path fill-rule="evenodd" clip-rule="evenodd" d="M97.5001 818.717C96.5138 818.717 95.7144 819.517 95.7144 820.503V825.503C95.7144 826.489 96.5138 827.289 97.5001 827.289H102.5C103.486 827.289 104.286 826.489 104.286 825.503V820.503C104.286 819.517 103.486 818.717 102.5 818.717H97.5001ZM103.571 822.646H100.357V819.432H102.5C103.092 819.432 103.571 819.911 103.571 820.503V822.646ZM103.571 823.36V825.503C103.571 826.095 103.092 826.574 102.5 826.574H100.357V823.36H103.571ZM99.6429 826.574V823.36H96.4286V825.503C96.4286 826.095 96.9083 826.574 97.5001 826.574H99.6429ZM96.4286 822.646H99.6429V819.432H97.5001C96.9083 819.432 96.4286 819.911 96.4286 820.503V822.646Z" fill="#1EA7FD"/>
</g>
<text fill="#333333" xml:space="preserve" style="white-space: pre" font-family="'Nunito Sans', 'Helvetica Neue', Helvetica, Arial, sans-serif" font-size="13" letter-spacing="0em"><tspan x="110" y="827.277">ProgressCircle</tspan></text>
<path fill-rule="evenodd" clip-rule="evenodd" d="M71.1875 847L67.6875 843.5V850.5L71.1875 847Z" fill="#7A858E" fill-opacity="0.5"/>
<path fill-rule="evenodd" clip-rule="evenodd" d="M82.7042 845.217L81.6328 844.145H79.4286V849.86H86.5715V845.217H82.7042ZM83.0001 844.503L82.1379 843.64C82.0039 843.506 81.8222 843.431 81.6328 843.431H79.0715C78.8743 843.431 78.7144 843.591 78.7144 843.788V850.217C78.7144 850.414 78.8743 850.574 79.0715 850.574H86.9286C87.1259 850.574 87.2858 850.414 87.2858 850.217V844.86C87.2858 844.662 87.1259 844.503 86.9286 844.503H83.0001Z" fill="#6F2CAC"/>
<text fill="#333333" xml:space="preserve" style="white-space: pre" font-family="'Nunito Sans', 'Helvetica Neue', Helvetica, Arial, sans-serif" font-size="13" letter-spacing="0em"><tspan x="93" y="851.277">Modal</tspan></text>
</g>
<defs>
<clipPath id="clip0_5691_83126">
<rect width="250" height="798" fill="white" transform="translate(41 52)"/>
</clipPath>
<clipPath id="clip1_5691_83126">
<rect width="14" height="14" fill="white" transform="translate(251 77)"/>
</clipPath>
<clipPath id="clip2_5691_83126">
<rect width="12" height="12" fill="white" transform="translate(73 125)"/>
</clipPath>
<clipPath id="clip3_5691_83126">
<rect width="8" height="8" fill="white" transform="translate(263 265)"/>
</clipPath>
<clipPath id="clip4_5691_83126">
<rect width="10" height="10" fill="white" transform="translate(78 314)"/>
</clipPath>
<clipPath id="clip5_5691_83126">
<rect width="10" height="10" fill="white" transform="translate(78 338)"/>
</clipPath>
<clipPath id="clip6_5691_83126">
<rect width="10" height="10" fill="white" transform="translate(78 362)"/>
</clipPath>
<clipPath id="clip7_5691_83126">
<rect width="10" height="10" fill="white" transform="translate(78 362)"/>
</clipPath>
<clipPath id="clip8_5691_83126">
<rect width="10" height="10" fill="white" transform="translate(78 482)"/>
</clipPath>
<clipPath id="clip9_5691_83126">
<rect width="10" height="10" fill="white" transform="translate(78 482)"/>
</clipPath>
<clipPath id="clip10_5691_83126">
<rect width="10" height="10" fill="white" transform="translate(78 602)"/>
</clipPath>
<clipPath id="clip11_5691_83126">
<rect width="10" height="10" fill="white" transform="translate(78 602)"/>
</clipPath>
<clipPath id="clip12_5691_83126">
<rect width="10" height="10" fill="white" transform="translate(95 794)"/>
</clipPath>
<clipPath id="clip13_5691_83126">
<rect width="10" height="10" fill="white" transform="translate(95 818)"/>
</clipPath>
</defs>
</svg>
