<svg width="1281" height="920" viewBox="0 0 1281 920" fill="none" xmlns="http://www.w3.org/2000/svg">
<g filter="url(#filter0_dddd_5668_83409)">
<g clip-path="url(#clip0_5668_83409)">
<rect x="40" y="20" width="1201" height="830" rx="8" fill="#ddd"/>
<g clip-path="url(#clip1_5668_83409)">
<path d="M123.589 31.8399C123.756 32.0072 123.756 32.2786 123.589 32.446L120.463 35.5715H130.571C130.808 35.5715 131 35.7634 131 36.0001C131 36.2368 130.808 36.4286 130.571 36.4286H120.463L123.589 39.5542C123.756 39.7215 123.756 39.9929 123.589 40.1603C123.421 40.3276 123.15 40.3276 122.983 40.1603L119.126 36.3031C118.958 36.1357 118.958 35.8644 119.126 35.697L122.983 31.8399C123.15 31.6725 123.421 31.6725 123.589 31.8399Z" fill="#333333"/>
</g>
<g clip-path="url(#clip2_5668_83409)">
<path d="M148.411 31.8399C148.579 31.6725 148.85 31.6725 149.017 31.8399L152.874 35.697C153.042 35.8644 153.042 36.1357 152.874 36.3031L149.017 40.1603C148.85 40.3276 148.579 40.3276 148.411 40.1603C148.244 39.9929 148.244 39.7215 148.411 39.5542L151.537 36.4286H141.429C141.192 36.4286 141 36.2368 141 36.0001C141 35.7634 141.192 35.5715 141.429 35.5715H151.537L148.411 32.446C148.244 32.2786 148.244 32.0072 148.411 31.8399Z" fill="#333333"/>
</g>
<g clip-path="url(#clip3_5668_83409)">
<path d="M169.079 30.429C169.053 30.4286 169.026 30.4285 169 30.4285C165.923 30.4285 163.429 32.9229 163.429 35.9999C163.429 39.065 165.904 41.552 168.964 41.5712C168.976 41.5713 168.988 41.5714 169 41.5714C170.135 41.5714 171.191 41.2321 172.071 40.6494C172.125 40.6136 172.178 40.577 172.231 40.5394C172.936 40.0368 173.519 39.3741 173.927 38.6044C174.2 38.0884 174.394 37.5243 174.494 36.928C174.534 36.6946 174.376 36.4736 174.143 36.4344C173.909 36.3953 173.688 36.5528 173.649 36.7862C173.538 37.4495 173.288 38.0658 172.93 38.6044C172.086 39.876 170.641 40.7142 169 40.7142C166.397 40.7142 164.286 38.6035 164.286 35.9999C164.286 33.3963 166.397 31.2856 169 31.2856L169.005 31.2856C170.834 31.2875 172.421 32.3316 173.2 33.857L171.572 33.857C171.335 33.857 171.143 34.0489 171.143 34.2856C171.143 34.5223 171.335 34.7142 171.572 34.7142H173.84C173.847 34.7143 173.854 34.7143 173.86 34.7142H174.143C174.38 34.7142 174.572 34.5223 174.572 34.2856V31.7142C174.572 31.4775 174.38 31.2856 174.143 31.2856C173.906 31.2856 173.714 31.4775 173.714 31.7142V33.0296C172.741 31.4876 171.032 30.456 169.079 30.429Z" fill="#333333"/>
</g>
<circle cx="58" cy="36" r="5" fill="#FC521F"/>
<circle cx="76" cy="36" r="5" fill="#FFAE00"/>
<circle cx="94" cy="36" r="5" fill="#66BF3C"/>
<rect x="41" y="51" width="1199" height="1" fill="#E1E5E8"/>
<rect x="543.5" y="26" width="194" height="20" rx="5" fill="black" fill-opacity="0.1"/>
<g clip-path="url(#clip4_5668_83409)">
<path d="M599.214 36.717C599.214 36.9814 599.071 37.2122 598.857 37.3357V38.5027C598.857 38.6999 598.697 38.8598 598.5 38.8598C598.303 38.8598 598.143 38.6999 598.143 38.5027V37.3357C597.929 37.2122 597.786 36.9814 597.786 36.717C597.786 36.3225 598.106 36.0027 598.5 36.0027C598.895 36.0027 599.214 36.3225 599.214 36.717Z" fill="#333333"/>
<path fill-rule="evenodd" clip-rule="evenodd" d="M595.643 33.8598C595.643 32.2819 596.922 31.0027 598.5 31.0027C600.078 31.0027 601.357 32.2819 601.357 33.8598V34.5741H602.429C602.626 34.5741 602.786 34.734 602.786 34.9313V40.6455C602.786 40.8428 602.626 41.0027 602.429 41.0027H594.571C594.374 41.0027 594.214 40.8428 594.214 40.6455V34.9313C594.214 34.734 594.374 34.5741 594.571 34.5741H595.643V33.8598ZM600.643 34.5741V33.8598C600.643 32.6764 599.684 31.717 598.5 31.717C597.317 31.717 596.357 32.6764 596.357 33.8598V34.5741H600.643ZM602.071 35.2884H594.929V40.2884H602.071V35.2884Z" fill="#333333"/>
</g>
<text fill="black" xml:space="preserve" style="white-space: pre" font-family="'Nunito Sans', 'Helvetica Neue', Helvetica, Arial, sans-serif" font-size="12" letter-spacing="0em"><tspan x="609.5" y="39.948">chromatic.com</tspan></text>
<g clip-path="url(#clip5_5668_83409)">
<rect width="1200" height="800" transform="translate(41 52)" fill="#F6F9FC"/>
<g filter="url(#filter1_d_5668_83409)">
<path d="M291 57C291 54.2386 293.239 52 296 52H1241V852H296C293.239 852 291 849.761 291 847V57Z" fill="white"/>
<mask id="path-15-outside-1_5668_83409" maskUnits="userSpaceOnUse" x="291" y="52" width="949" height="41" fill="black">
<rect fill="white" x="291" y="52" width="949" height="41"/>
<path d="M291 52H1240V92H291V52Z"/>
</mask>
<path d="M291 52H1240V92H291V52Z" fill="white"/>
<g clip-path="url(#clip6_5668_83409)">
<path d="M313.5 66C313.5 65.7239 313.276 65.5 313 65.5H310C309.724 65.5 309.5 65.7239 309.5 66C309.5 66.2761 309.724 66.5 310 66.5H311.535C309.712 67.651 308.5 69.6836 308.5 72C308.5 75.2213 310.843 77.8944 313.917 78.4102C314.19 78.4559 314.447 78.2722 314.493 77.9998C314.539 77.7275 314.355 77.4697 314.083 77.424C311.482 76.9876 309.5 74.7248 309.5 72C309.5 69.8633 310.719 68.0102 312.5 67.0996V69C312.5 69.2761 312.724 69.5 313 69.5C313.276 69.5 313.5 69.2761 313.5 69V66.3531C313.5 66.3454 313.5 66.3376 313.5 66.3298V66Z" fill="#7A858E"/>
<path d="M315.507 66.0003C315.553 65.7279 315.81 65.5442 316.083 65.5899C319.157 66.1057 321.5 68.7788 321.5 72C321.5 74.3165 320.288 76.349 318.466 77.5H320C320.276 77.5 320.5 77.7239 320.5 78C320.5 78.2761 320.276 78.5 320 78.5H317C316.724 78.5 316.5 78.2761 316.5 78V75C316.5 74.7239 316.724 74.5 317 74.5C317.276 74.5 317.5 74.7239 317.5 75V76.9005C319.281 75.9898 320.5 74.1367 320.5 72C320.5 69.2753 318.518 67.0125 315.917 66.5761C315.645 66.5304 315.461 66.2726 315.507 66.0003Z" fill="#7A858E"/>
</g>
<g clip-path="url(#clip7_5668_83409)">
<path d="M346 68.5C346.276 68.5 346.5 68.7239 346.5 69V70.5H348C348.276 70.5 348.5 70.7239 348.5 71C348.5 71.2761 348.276 71.5 348 71.5H346.5V73C346.5 73.2761 346.276 73.5 346 73.5C345.724 73.5 345.5 73.2761 345.5 73V71.5H344C343.724 71.5 343.5 71.2761 343.5 71C343.5 70.7239 343.724 70.5 344 70.5H345.5V69C345.5 68.7239 345.724 68.5 346 68.5Z" fill="#7A858E"/>
<path fill-rule="evenodd" clip-rule="evenodd" d="M349.544 75.2059C348.587 76.0134 347.35 76.5 346 76.5C342.962 76.5 340.5 74.0376 340.5 71C340.5 67.9624 342.962 65.5 346 65.5C349.038 65.5 351.5 67.9624 351.5 71C351.5 72.3503 351.013 73.587 350.206 74.5442C350.259 74.5684 350.31 74.6025 350.354 74.6464L353.354 77.6464C353.549 77.8417 353.549 78.1583 353.354 78.3536C353.158 78.5488 352.842 78.5488 352.646 78.3536L349.646 75.3536C349.602 75.3096 349.568 75.2594 349.544 75.2059ZM350.5 71C350.5 73.4853 348.485 75.5 346 75.5C343.515 75.5 341.5 73.4853 341.5 71C341.5 68.5147 343.515 66.5 346 66.5C348.485 66.5 350.5 68.5147 350.5 71Z" fill="#7A858E"/>
</g>
<g clip-path="url(#clip8_5668_83409)">
<path d="M376 70.5C375.724 70.5 375.5 70.7239 375.5 71C375.5 71.2761 375.724 71.5 376 71.5H380C380.276 71.5 380.5 71.2761 380.5 71C380.5 70.7239 380.276 70.5 380 70.5H376Z" fill="#7A858E"/>
<path fill-rule="evenodd" clip-rule="evenodd" d="M378 76.5C379.35 76.5 380.587 76.0134 381.544 75.2059C381.568 75.2594 381.602 75.3096 381.646 75.3536L384.646 78.3536C384.842 78.5488 385.158 78.5488 385.354 78.3536C385.549 78.1583 385.549 77.8417 385.354 77.6464L382.354 74.6464C382.31 74.6025 382.259 74.5684 382.206 74.5442C383.013 73.587 383.5 72.3503 383.5 71C383.5 67.9624 381.038 65.5 378 65.5C374.962 65.5 372.5 67.9624 372.5 71C372.5 74.0376 374.962 76.5 378 76.5ZM378 75.5C380.485 75.5 382.5 73.4853 382.5 71C382.5 68.5147 380.485 66.5 378 66.5C375.515 66.5 373.5 68.5147 373.5 71C373.5 73.4853 375.515 75.5 378 75.5Z" fill="#7A858E"/>
</g>
<g clip-path="url(#clip9_5668_83409)">
<path d="M405.5 67.8371V66.5C405.5 66.2239 405.276 66 405 66C404.724 66 404.5 66.2239 404.5 66.5V69C404.5 69.2761 404.724 69.5 405 69.5H407.5C407.776 69.5 408 69.2761 408 69C408 68.7239 407.776 68.5 407.5 68.5H406.258C407.065 67.2933 408.44 66.5 410 66.5C412.485 66.5 414.5 68.5147 414.5 71C414.5 73.4853 412.485 75.5 410 75.5C408.048 75.5 406.384 74.2564 405.762 72.5165C405.669 72.2565 405.383 72.1212 405.123 72.2142C404.863 72.3072 404.727 72.5934 404.82 72.8534C405.581 74.9784 407.612 76.5 410 76.5C411.35 76.5 412.587 76.0134 413.544 75.2059C413.568 75.2594 413.602 75.3096 413.646 75.3536L416.646 78.3536C416.842 78.5488 417.158 78.5488 417.354 78.3536C417.549 78.1583 417.549 77.8417 417.354 77.6464L414.354 74.6464C414.31 74.6025 414.259 74.5684 414.206 74.5442C415.013 73.587 415.5 72.3503 415.5 71C415.5 67.9624 413.038 65.5 410 65.5C408.139 65.5 406.495 66.4242 405.5 67.8371Z" fill="#7A858E"/>
</g>
<path d="M437.5 66.0039C437.224 66.0039 437 66.2278 437 66.5039C437 66.78 437.224 67.0039 437.5 67.0039H448V77.5039C448 77.78 448.224 78.0039 448.5 78.0039C448.776 78.0039 449 77.78 449 77.5039V67.0039C449 66.4516 448.552 66.0039 448 66.0039H437.5Z" fill="#7A858E"/>
<path d="M437 68.5039C437 68.2278 437.224 68.0039 437.5 68.0039H446C446.552 68.0039 447 68.4516 447 69.0039V77.5039C447 77.78 446.776 78.0039 446.5 78.0039C446.224 78.0039 446 77.78 446 77.5039V69.0039H437.5C437.224 69.0039 437 68.78 437 68.5039Z" fill="#7A858E"/>
<path fill-rule="evenodd" clip-rule="evenodd" d="M437.5 70.0039C437.224 70.0039 437 70.2278 437 70.5039V77.5039C437 77.78 437.224 78.0039 437.5 78.0039H444.5C444.776 78.0039 445 77.78 445 77.5039V70.5039C445 70.2278 444.776 70.0039 444.5 70.0039H437.5ZM438 71.0039V77.0039H444V71.0039H438Z" fill="#7A858E"/>
<rect x="467" y="60" width="1" height="24" fill="#E1E5E8"/>
<path d="M486.5 66.0039C486.776 66.0039 487 66.2278 487 66.5039V67.0039H497V66.5039C497 66.2278 497.224 66.0039 497.5 66.0039C497.776 66.0039 498 66.2278 498 66.5039V68.5039C498 68.78 497.776 69.0039 497.5 69.0039C497.224 69.0039 497 68.78 497 68.5039V68.0039H487V68.5039C487 68.78 486.776 69.0039 486.5 69.0039C486.224 69.0039 486 68.78 486 68.5039V66.5039C486 66.2278 486.224 66.0039 486.5 66.0039Z" fill="#7A858E"/>
<path fill-rule="evenodd" clip-rule="evenodd" d="M497.5 71.0039C497.776 71.0039 498 71.2278 498 71.5039V76.5039C498 76.78 497.776 77.0039 497.5 77.0039H486.5C486.224 77.0039 486 76.78 486 76.5039V71.5039C486 71.2278 486.224 71.0039 486.5 71.0039H497.5ZM487 72.0039V76.0039H497V72.0039H496V74.0039C496 74.28 495.776 74.5039 495.5 74.5039C495.224 74.5039 495 74.28 495 74.0039V72.0039H494.25V72.5039C494.25 72.78 494.026 73.0039 493.75 73.0039C493.474 73.0039 493.25 72.78 493.25 72.5039V72.0039H492.5V74.0039C492.5 74.28 492.276 74.5039 492 74.5039C491.724 74.5039 491.5 74.28 491.5 74.0039V72.0039H490.75V72.5039C490.75 72.78 490.526 73.0039 490.25 73.0039C489.974 73.0039 489.75 72.78 489.75 72.5039V72.0039H489V74.0039C489 74.28 488.776 74.5039 488.5 74.5039C488.224 74.5039 488 74.28 488 74.0039V72.0039H487Z" fill="#7A858E"/>
<path fill-rule="evenodd" clip-rule="evenodd" d="M518 66.5039C518 66.2278 518.224 66.0039 518.5 66.0039H523C523.276 66.0039 523.5 66.2278 523.5 66.5039V71.0039C523.5 71.28 523.276 71.5039 523 71.5039H518.5C518.224 71.5039 518 71.28 518 71.0039V66.5039ZM519 70.5039V67.0039H522.5V70.5039H519Z" fill="#7A858E"/>
<path fill-rule="evenodd" clip-rule="evenodd" d="M524.5 66.5039C524.5 66.2278 524.724 66.0039 525 66.0039H529.5C529.776 66.0039 530 66.2278 530 66.5039V71.0039C530 71.28 529.776 71.5039 529.5 71.5039H525C524.724 71.5039 524.5 71.28 524.5 71.0039V66.5039ZM525.5 70.5039V67.0039H529V70.5039H525.5Z" fill="#7A858E"/>
<path fill-rule="evenodd" clip-rule="evenodd" d="M518.5 72.5039C518.224 72.5039 518 72.7278 518 73.0039V77.5039C518 77.78 518.224 78.0039 518.5 78.0039H523C523.276 78.0039 523.5 77.78 523.5 77.5039V73.0039C523.5 72.7278 523.276 72.5039 523 72.5039H518.5ZM519 73.5039V77.0039H522.5V73.5039H519Z" fill="#7A858E"/>
<path fill-rule="evenodd" clip-rule="evenodd" d="M524.5 73.0039C524.5 72.7278 524.724 72.5039 525 72.5039H529.5C529.776 72.5039 530 72.7278 530 73.0039V77.5039C530 77.78 529.776 78.0039 529.5 78.0039H525C524.724 78.0039 524.5 77.78 524.5 77.5039V73.0039ZM525.5 77.0039V73.5039H529V77.0039H525.5Z" fill="#7A858E"/>
<path d="M551 67.0039V69.0039H550V66.5039C550 66.2278 550.224 66.0039 550.5 66.0039H553V67.0039H551Z" fill="#7A858E"/>
<path d="M550 74.0039V70.0039H551V74.0039H550Z" fill="#7A858E"/>
<path d="M550 75.0039V77.5039C550 77.78 550.224 78.0039 550.5 78.0039H553V77.0039H551V75.0039H550Z" fill="#7A858E"/>
<path d="M559 78.0039H561.5C561.776 78.0039 562 77.78 562 77.5039V75.0039H561V77.0039H559V78.0039Z" fill="#7A858E"/>
<path d="M561 69.0039H562V66.5039C562 66.2278 561.776 66.0039 561.5 66.0039H559V67.0039H561V69.0039Z" fill="#7A858E"/>
<path d="M558 77.0039V78.0039H554V77.0039H558Z" fill="#7A858E"/>
<path d="M558 66.0039V67.0039H554V66.0039H558Z" fill="#7A858E"/>
<path d="M562 74.0039H561V70.0039H562V74.0039Z" fill="#7A858E"/>
<path d="M556 73.0039C556.552 73.0039 557 72.5562 557 72.0039C557 71.4516 556.552 71.0039 556 71.0039C555.448 71.0039 555 71.4516 555 72.0039C555 72.5562 555.448 73.0039 556 73.0039Z" fill="#7A858E"/>
<rect x="580" y="60" width="1" height="24" fill="#E1E5E8"/>
<g clip-path="url(#clip10_5668_83409)">
<path d="M601.526 69.842C601.613 69.58 601.896 69.4385 602.158 69.5258L604.209 70.2096C604.723 70.3806 605.277 70.3806 605.791 70.2096L607.842 69.5258C608.104 69.4385 608.387 69.58 608.474 69.842C608.562 70.104 608.42 70.3872 608.158 70.4745L605.705 71.2921C605.583 71.333 605.5 71.4476 605.5 71.5767V71.8198C605.5 72.5184 605.663 73.2074 605.975 73.8323L606.947 75.7765C607.071 76.0235 606.971 76.3238 606.724 76.4473C606.477 76.5708 606.176 76.4707 606.053 76.2237L605 74.1181L603.947 76.2237C603.824 76.4707 603.523 76.5708 603.276 76.4473C603.029 76.3238 602.929 76.0235 603.053 75.7765L604.025 73.8322C604.337 73.2074 604.5 72.5183 604.5 71.8197V71.5767C604.5 71.4476 604.417 71.333 604.295 71.2921L601.842 70.4745C601.58 70.3872 601.438 70.104 601.526 69.842Z" fill="#7A858E"/>
<path d="M605 69.5C605.552 69.5 606 69.0523 606 68.5C606 67.9477 605.552 67.5 605 67.5C604.448 67.5 604 67.9477 604 68.5C604 69.0523 604.448 69.5 605 69.5Z" fill="#7A858E"/>
<path fill-rule="evenodd" clip-rule="evenodd" d="M605 79C608.866 79 612 75.866 612 72C612 68.134 608.866 65 605 65C601.134 65 598 68.134 598 72C598 75.866 601.134 79 605 79ZM605 78C608.314 78 611 75.3137 611 72C611 68.6863 608.314 66 605 66C601.686 66 599 68.6863 599 72C599 75.3137 601.686 78 605 78Z" fill="#7A858E"/>
</g>
<path fill-rule="evenodd" clip-rule="evenodd" d="M636.25 69.2539C636.25 69.9443 635.69 70.5039 635 70.5039C634.31 70.5039 633.75 69.9443 633.75 69.2539C633.75 68.5636 634.31 68.0039 635 68.0039C635.69 68.0039 636.25 68.5636 636.25 69.2539ZM635.75 69.2539C635.75 69.6681 635.414 70.0039 635 70.0039C634.586 70.0039 634.25 69.6681 634.25 69.2539C634.25 68.8397 634.586 68.5039 635 68.5039C635.414 68.5039 635.75 68.8397 635.75 69.2539Z" fill="#7A858E"/>
<path fill-rule="evenodd" clip-rule="evenodd" d="M643 66.5039V77.5039C643 77.78 642.776 78.0039 642.5 78.0039H631.5C631.224 78.0039 631 77.78 631 77.5039V66.5039C631 66.2278 631.224 66.0039 631.5 66.0039H642.5C642.776 66.0039 643 66.2278 643 66.5039ZM632 74.2968V67.0039H642V72.2968L639.854 70.1504C639.658 69.9551 639.342 69.9551 639.146 70.1504L636.5 72.7968L635.354 71.6504C635.158 71.4551 634.842 71.4551 634.646 71.6504L632 74.2968ZM639.5 71.211L642 73.711V77.0039H632V75.711L635 72.711L638.146 75.8575C638.342 76.0527 638.658 76.0527 638.854 75.8575C639.049 75.6622 639.049 75.3456 638.854 75.1504L637.207 73.5039L639.5 71.211Z" fill="#7A858E"/>
<g clip-path="url(#clip11_5668_83409)">
<path fill-rule="evenodd" clip-rule="evenodd" d="M665 68.0039H662.5C662.224 68.0039 662 68.2278 662 68.5039V78.5039C662 78.78 662.224 79.0039 662.5 79.0039H672.5C672.776 79.0039 673 78.78 673 78.5039V76.0039H675.5C675.776 76.0039 676 75.78 676 75.5039V65.5039C676 65.2278 675.776 65.0039 675.5 65.0039H665.5C665.224 65.0039 665 65.2278 665 65.5039V68.0039ZM666 69.0039V71.2968L668.293 69.0039H666ZM665 69.0039V75.5039C665 75.5717 665.013 75.6363 665.038 75.6953C665.062 75.7543 665.099 75.8095 665.146 75.8575C665.243 75.9543 665.37 76.0031 665.497 76.0039L665.5 76.0039H672V78.0039H663V69.0039H665ZM666 68.0039H672.5C672.568 68.0039 672.632 68.0174 672.691 68.0418C672.75 68.0662 672.806 68.1024 672.854 68.1504C672.901 68.1983 672.938 68.2535 672.962 68.3125C672.984 68.3661 672.997 68.4228 672.999 68.4799C673 68.4879 673 68.4959 673 68.5039V75.0039H675V66.0039H666V68.0039ZM672 75.0039V72.711L669.707 75.0039H672ZM672 71.2968V69.711L666.707 75.0039H668.293L672 71.2968ZM671.293 69.0039H669.707L666 72.711V74.2968L671.293 69.0039Z" fill="#7A858E"/>
</g>
<g clip-path="url(#clip12_5668_83409)">
<path d="M702.5 72.0039C702.776 72.0039 703 71.78 703 71.5039C703 71.2278 702.776 71.0039 702.5 71.0039H697.5C697.224 71.0039 697 71.2278 697 71.5039C697 71.78 697.224 72.0039 697.5 72.0039H702.5Z" fill="#7A858E"/>
<path d="M703 73.5039C703 73.78 702.776 74.0039 702.5 74.0039H697.5C697.224 74.0039 697 73.78 697 73.5039C697 73.2278 697.224 73.0039 697.5 73.0039H702.5C702.776 73.0039 703 73.2278 703 73.5039Z" fill="#7A858E"/>
<path fill-rule="evenodd" clip-rule="evenodd" d="M706 76.5039V75.0039H707.5C707.776 75.0039 708 74.78 708 74.5039V66.5039C708 66.2278 707.776 66.0039 707.5 66.0039H696.5C696.224 66.0039 696 66.2278 696 66.5039V68.0039H694.5C694.224 68.0039 694 68.2278 694 68.5039V76.5039C694 76.78 694.224 77.0039 694.5 77.0039H696V78.5039C696 78.5717 696.013 78.6363 696.038 78.6953C696.062 78.7543 696.099 78.8095 696.146 78.8575C696.243 78.9543 696.37 79.0031 696.497 79.0039L696.5 79.0039L696.503 79.0039C696.57 79.0035 696.633 78.9901 696.691 78.966C696.75 78.9416 696.806 78.9054 696.854 78.8575L698.707 77.0039H705.5C705.776 77.0039 706 76.78 706 76.5039ZM697 68.0039V67.0039H707V74.0039H706V68.5039C706 68.2278 705.776 68.0039 705.5 68.0039H697ZM695 76.0039V69.0039H705V76.0039H695Z" fill="#7A858E"/>
</g>
<path d="M1211 66.0039C1210.45 66.0039 1210 66.4516 1210 67.0039V77.0039C1210 77.5562 1210.45 78.0039 1211 78.0039H1221C1221.55 78.0039 1222 77.5562 1222 77.0039V72.5039C1222 72.2278 1221.78 72.0039 1221.5 72.0039C1221.22 72.0039 1221 72.2278 1221 72.5039V77.0039H1211V67.0039L1215.5 67.0039C1215.78 67.0039 1216 66.78 1216 66.5039C1216 66.2278 1215.78 66.0039 1215.5 66.0039H1211Z" fill="#7A858E"/>
<path d="M1216.35 72.3575L1221 67.711V69.5039C1221 69.78 1221.22 70.0039 1221.5 70.0039C1221.78 70.0039 1222 69.78 1222 69.5039V66.5039C1222 66.2278 1221.78 66.0039 1221.5 66.0039H1218.5C1218.22 66.0039 1218 66.2278 1218 66.5039C1218 66.78 1218.22 67.0039 1218.5 67.0039H1220.29L1215.65 71.6504C1215.45 71.8456 1215.45 72.1622 1215.65 72.3575C1215.84 72.5527 1216.16 72.5527 1216.35 72.3575Z" fill="#7A858E"/>
<path d="M1240 91H291V93H1240V91Z" fill="#E1E5E8" mask="url(#path-15-outside-1_5668_83409)"/>
<path d="M291.5 57C291.5 54.5147 293.515 52.5 296 52.5H1240.5V851.5H296C293.515 851.5 291.5 849.485 291.5 847V57Z" stroke="#E5E5E5"/>
</g>
</g>
</g>
<rect x="40.5" y="20.5" width="1200" height="829" rx="7.5" stroke="black" stroke-opacity="0.1"/>
</g>
<defs>
<filter id="filter0_dddd_5668_83409" x="0" y="0" width="1281" height="920" filterUnits="userSpaceOnUse" color-interpolation-filters="sRGB">
<feFlood flood-opacity="0" result="BackgroundImageFix"/>
<feColorMatrix in="SourceAlpha" type="matrix" values="0 0 0 0 0 0 0 0 0 0 0 0 0 0 0 0 0 0 127 0" result="hardAlpha"/>
<feOffset dy="1"/>
<feGaussianBlur stdDeviation="1.5"/>
<feColorMatrix type="matrix" values="0 0 0 0 0 0 0 0 0 0 0 0 0 0 0 0 0 0 0.1 0"/>
<feBlend mode="normal" in2="BackgroundImageFix" result="effect1_dropShadow_5668_83409"/>
<feColorMatrix in="SourceAlpha" type="matrix" values="0 0 0 0 0 0 0 0 0 0 0 0 0 0 0 0 0 0 127 0" result="hardAlpha"/>
<feOffset dy="10"/>
<feGaussianBlur stdDeviation="10"/>
<feColorMatrix type="matrix" values="0 0 0 0 0 0 0 0 0 0 0 0 0 0 0 0 0 0 0.1 0"/>
<feBlend mode="normal" in2="effect1_dropShadow_5668_83409" result="effect2_dropShadow_5668_83409"/>
<feColorMatrix in="SourceAlpha" type="matrix" values="0 0 0 0 0 0 0 0 0 0 0 0 0 0 0 0 0 0 127 0" result="hardAlpha"/>
<feOffset dy="20"/>
<feGaussianBlur stdDeviation="20"/>
<feColorMatrix type="matrix" values="0 0 0 0 0 0 0 0 0 0 0 0 0 0 0 0 0 0 0.05 0"/>
<feBlend mode="normal" in2="effect2_dropShadow_5668_83409" result="effect3_dropShadow_5668_83409"/>
<feColorMatrix in="SourceAlpha" type="matrix" values="0 0 0 0 0 0 0 0 0 0 0 0 0 0 0 0 0 0 127 0" result="hardAlpha"/>
<feOffset dy="40"/>
<feGaussianBlur stdDeviation="15"/>
<feColorMatrix type="matrix" values="0 0 0 0 0 0 0 0 0 0 0 0 0 0 0 0 0 0 0.05 0"/>
<feBlend mode="normal" in2="effect3_dropShadow_5668_83409" result="effect4_dropShadow_5668_83409"/>
<feBlend mode="normal" in="SourceGraphic" in2="effect4_dropShadow_5668_83409" result="shape"/>
</filter>
<filter id="filter1_d_5668_83409" x="288" y="50" width="956" height="806" filterUnits="userSpaceOnUse" color-interpolation-filters="sRGB">
<feFlood flood-opacity="0" result="BackgroundImageFix"/>
<feColorMatrix in="SourceAlpha" type="matrix" values="0 0 0 0 0 0 0 0 0 0 0 0 0 0 0 0 0 0 127 0" result="hardAlpha"/>
<feOffset dy="1"/>
<feGaussianBlur stdDeviation="1.5"/>
<feColorMatrix type="matrix" values="0 0 0 0 0 0 0 0 0 0 0 0 0 0 0 0 0 0 0.05 0"/>
<feBlend mode="normal" in2="BackgroundImageFix" result="effect1_dropShadow_5668_83409"/>
<feBlend mode="normal" in="SourceGraphic" in2="effect1_dropShadow_5668_83409" result="shape"/>
</filter>
<clipPath id="clip0_5668_83409">
<rect x="40" y="20" width="1201" height="830" rx="8" fill="white"/>
</clipPath>
<clipPath id="clip1_5668_83409">
<rect width="12" height="12" fill="white" transform="translate(119 30)"/>
</clipPath>
<clipPath id="clip2_5668_83409">
<rect width="12" height="12" fill="white" transform="translate(141 30)"/>
</clipPath>
<clipPath id="clip3_5668_83409">
<rect width="12" height="12" fill="white" transform="translate(163 30)"/>
</clipPath>
<clipPath id="clip4_5668_83409">
<rect width="10" height="10" fill="white" transform="translate(593.5 31)"/>
</clipPath>
<clipPath id="clip5_5668_83409">
<rect width="1200" height="800" fill="white" transform="translate(41 52)"/>
</clipPath>
<clipPath id="clip6_5668_83409">
<rect width="14" height="14" fill="white" transform="translate(308 65)"/>
</clipPath>
<clipPath id="clip7_5668_83409">
<rect width="14" height="14" fill="white" transform="translate(340 65)"/>
</clipPath>
<clipPath id="clip8_5668_83409">
<rect width="14" height="14" fill="white" transform="translate(372 65)"/>
</clipPath>
<clipPath id="clip9_5668_83409">
<rect width="14" height="14" fill="white" transform="translate(404 65)"/>
</clipPath>
<clipPath id="clip10_5668_83409">
<rect width="14" height="14" fill="white" transform="translate(598 65)"/>
</clipPath>
<clipPath id="clip11_5668_83409">
<rect width="14" height="14" fill="white" transform="translate(662 65)"/>
</clipPath>
<clipPath id="clip12_5668_83409">
<rect width="14" height="14" fill="white" transform="translate(694 65)"/>
</clipPath>
</defs>
</svg>
