<svg xmlns="http://www.w3.org/2000/svg" width="1201" height="830" fill="none" viewBox="0 0 1201 830"><g clip-path="url(#clip0_5695_88034)"><g clip-path="url(#clip1_5695_88034)"><rect width="1201" height="830" fill="#DDD" rx="8"/><g clip-path="url(#clip2_5695_88034)"><path fill="#333" d="M83.5888 11.8399C83.7561 12.0072 83.7561 12.2786 83.5888 12.446L80.4632 15.5715H90.5714C90.8081 15.5715 91 15.7634 91 16.0001C91 16.2368 90.8081 16.4286 90.5714 16.4286H80.4632L83.5888 19.5542C83.7561 19.7215 83.7561 19.9929 83.5888 20.1603C83.4214 20.3276 83.15 20.3276 82.9827 20.1603L79.1255 16.3031C78.9582 16.1357 78.9582 15.8644 79.1255 15.697L82.9827 11.8399C83.15 11.6725 83.4214 11.6725 83.5888 11.8399Z"/></g><g clip-path="url(#clip3_5695_88034)"><path fill="#333" d="M108.411 11.8399C108.579 11.6725 108.85 11.6725 109.017 11.8399L112.874 15.697C113.042 15.8644 113.042 16.1357 112.874 16.3031L109.017 20.1603C108.85 20.3276 108.579 20.3276 108.411 20.1603C108.244 19.9929 108.244 19.7215 108.411 19.5542L111.537 16.4286H101.429C101.192 16.4286 101 16.2368 101 16.0001C101 15.7634 101.192 15.5715 101.429 15.5715H111.537L108.411 12.446C108.244 12.2786 108.244 12.0072 108.411 11.8399Z"/></g><g clip-path="url(#clip4_5695_88034)"><path fill="#333" d="M129.079 10.429C129.053 10.4286 129.026 10.4285 129 10.4285C125.923 10.4285 123.429 12.9229 123.429 15.9999C123.429 19.065 125.904 21.552 128.964 21.5712C128.976 21.5713 128.988 21.5714 129 21.5714C130.135 21.5714 131.191 21.2321 132.071 20.6494C132.125 20.6136 132.178 20.577 132.231 20.5394C132.936 20.0368 133.519 19.3741 133.927 18.6044C134.2 18.0884 134.394 17.5243 134.494 16.928C134.534 16.6946 134.376 16.4736 134.143 16.4344C133.909 16.3953 133.688 16.5528 133.649 16.7862C133.538 17.4495 133.288 18.0658 132.93 18.6044C132.086 19.876 130.641 20.7142 129 20.7142C126.397 20.7142 124.286 18.6035 124.286 15.9999C124.286 13.3963 126.397 11.2856 129 11.2856L129.005 11.2856C130.834 11.2875 132.421 12.3316 133.2 13.857L131.572 13.857C131.335 13.857 131.143 14.0489 131.143 14.2856C131.143 14.5223 131.335 14.7142 131.572 14.7142H133.84C133.847 14.7143 133.854 14.7143 133.86 14.7142H134.143C134.38 14.7142 134.572 14.5223 134.572 14.2856V11.7142C134.572 11.4775 134.38 11.2856 134.143 11.2856C133.906 11.2856 133.714 11.4775 133.714 11.7142V13.0296C132.741 11.4876 131.032 10.456 129.079 10.429Z"/></g><circle cx="18" cy="16" r="5" fill="#FC521F"/><circle cx="36" cy="16" r="5" fill="#FFAE00"/><circle cx="54" cy="16" r="5" fill="#66BF3C"/><rect width="1199" height="1" x="1" y="31" fill="#E1E5E8"/><rect width="180" height="20" x="510.5" y="6" fill="#000" fill-opacity=".1" rx="5"/><text fill="#000" font-family="'Nunito Sans', 'Helvetica Neue', Helvetica, Arial, sans-serif" font-size="12" letter-spacing="0em" xml:space="preserve" style="white-space:pre"><tspan x="560.5" y="19.948">localhost:8080</tspan></text><g clip-path="url(#clip5_5695_88034)"><rect width="1200" height="800" fill="#F6F9FC" transform="translate(1 32)"/><g filter="url(#filter0_d_5695_88034)"><path fill="#fff" d="M251 37C251 34.2386 253.239 32 256 32H1201V832H256C253.239 832 251 829.761 251 827V37Z"/><mask id="path-14-outside-1_5695_88034" width="949" height="41" x="251" y="32" fill="#000" maskUnits="userSpaceOnUse"><rect width="949" height="41" x="251" y="32" fill="#fff"/><path d="M251 32H1200V72H251V32Z"/></mask><g clip-path="url(#clip6_5695_88034)"><path fill="#7A858E" d="M273.5 46C273.5 45.7239 273.276 45.5 273 45.5H270C269.724 45.5 269.5 45.7239 269.5 46C269.5 46.2761 269.724 46.5 270 46.5H271.535C269.712 47.651 268.5 49.6836 268.5 52C268.5 55.2213 270.843 57.8944 273.917 58.4102C274.19 58.4559 274.447 58.2722 274.493 57.9998C274.539 57.7275 274.355 57.4697 274.083 57.424C271.482 56.9876 269.5 54.7248 269.5 52C269.5 49.8633 270.719 48.0102 272.5 47.0996V49C272.5 49.2761 272.724 49.5 273 49.5C273.276 49.5 273.5 49.2761 273.5 49V46.3531C273.5 46.3454 273.5 46.3376 273.5 46.3298V46Z"/><path fill="#7A858E" d="M275.507 46.0003C275.553 45.7279 275.81 45.5442 276.083 45.5899C279.157 46.1057 281.5 48.7788 281.5 52C281.5 54.3165 280.288 56.349 278.466 57.5H280C280.276 57.5 280.5 57.7239 280.5 58C280.5 58.2761 280.276 58.5 280 58.5H277C276.724 58.5 276.5 58.2761 276.5 58V55C276.5 54.7239 276.724 54.5 277 54.5C277.276 54.5 277.5 54.7239 277.5 55V56.9005C279.281 55.9898 280.5 54.1367 280.5 52C280.5 49.2753 278.518 47.0125 275.917 46.5761C275.645 46.5304 275.461 46.2726 275.507 46.0003Z"/></g><g clip-path="url(#clip7_5695_88034)"><path fill="#7A858E" d="M306 48.5C306.276 48.5 306.5 48.7239 306.5 49V50.5H308C308.276 50.5 308.5 50.7239 308.5 51C308.5 51.2761 308.276 51.5 308 51.5H306.5V53C306.5 53.2761 306.276 53.5 306 53.5C305.724 53.5 305.5 53.2761 305.5 53V51.5H304C303.724 51.5 303.5 51.2761 303.5 51C303.5 50.7239 303.724 50.5 304 50.5H305.5V49C305.5 48.7239 305.724 48.5 306 48.5Z"/><path fill="#7A858E" fill-rule="evenodd" d="M309.544 55.2059C308.587 56.0134 307.35 56.5 306 56.5C302.962 56.5 300.5 54.0376 300.5 51C300.5 47.9624 302.962 45.5 306 45.5C309.038 45.5 311.5 47.9624 311.5 51C311.5 52.3503 311.013 53.587 310.206 54.5442C310.259 54.5684 310.31 54.6025 310.354 54.6464L313.354 57.6464C313.549 57.8417 313.549 58.1583 313.354 58.3536C313.158 58.5488 312.842 58.5488 312.646 58.3536L309.646 55.3536C309.602 55.3096 309.568 55.2594 309.544 55.2059ZM310.5 51C310.5 53.4853 308.485 55.5 306 55.5C303.515 55.5 301.5 53.4853 301.5 51C301.5 48.5147 303.515 46.5 306 46.5C308.485 46.5 310.5 48.5147 310.5 51Z" clip-rule="evenodd"/></g><g clip-path="url(#clip8_5695_88034)"><path fill="#7A858E" d="M336 50.5C335.724 50.5 335.5 50.7239 335.5 51C335.5 51.2761 335.724 51.5 336 51.5H340C340.276 51.5 340.5 51.2761 340.5 51C340.5 50.7239 340.276 50.5 340 50.5H336Z"/><path fill="#7A858E" fill-rule="evenodd" d="M338 56.5C339.35 56.5 340.587 56.0134 341.544 55.2059C341.568 55.2594 341.602 55.3096 341.646 55.3536L344.646 58.3536C344.842 58.5488 345.158 58.5488 345.354 58.3536C345.549 58.1583 345.549 57.8417 345.354 57.6464L342.354 54.6464C342.31 54.6025 342.259 54.5684 342.206 54.5442C343.013 53.587 343.5 52.3503 343.5 51C343.5 47.9624 341.038 45.5 338 45.5C334.962 45.5 332.5 47.9624 332.5 51C332.5 54.0376 334.962 56.5 338 56.5ZM338 55.5C340.485 55.5 342.5 53.4853 342.5 51C342.5 48.5147 340.485 46.5 338 46.5C335.515 46.5 333.5 48.5147 333.5 51C333.5 53.4853 335.515 55.5 338 55.5Z" clip-rule="evenodd"/></g><g clip-path="url(#clip9_5695_88034)"><path fill="#7A858E" d="M365.5 47.8371V46.5C365.5 46.2239 365.276 46 365 46C364.724 46 364.5 46.2239 364.5 46.5V49C364.5 49.2761 364.724 49.5 365 49.5H367.5C367.776 49.5 368 49.2761 368 49C368 48.7239 367.776 48.5 367.5 48.5H366.258C367.065 47.2933 368.44 46.5 370 46.5C372.485 46.5 374.5 48.5147 374.5 51C374.5 53.4853 372.485 55.5 370 55.5C368.048 55.5 366.384 54.2564 365.762 52.5165C365.669 52.2565 365.383 52.1212 365.123 52.2142C364.863 52.3072 364.727 52.5934 364.82 52.8534C365.581 54.9784 367.612 56.5 370 56.5C371.35 56.5 372.587 56.0134 373.544 55.2059C373.568 55.2594 373.602 55.3096 373.646 55.3536L376.646 58.3536C376.842 58.5488 377.158 58.5488 377.354 58.3536C377.549 58.1583 377.549 57.8417 377.354 57.6464L374.354 54.6464C374.31 54.6025 374.259 54.5684 374.206 54.5442C375.013 53.587 375.5 52.3503 375.5 51C375.5 47.9624 373.038 45.5 370 45.5C368.139 45.5 366.495 46.4242 365.5 47.8371Z"/></g><path fill="#7A858E" d="M397.5 46.0039C397.224 46.0039 397 46.2278 397 46.5039C397 46.78 397.224 47.0039 397.5 47.0039H408V57.5039C408 57.78 408.224 58.0039 408.5 58.0039C408.776 58.0039 409 57.78 409 57.5039V47.0039C409 46.4516 408.552 46.0039 408 46.0039H397.5Z"/><path fill="#7A858E" d="M397 48.5039C397 48.2278 397.224 48.0039 397.5 48.0039H406C406.552 48.0039 407 48.4516 407 49.0039V57.5039C407 57.78 406.776 58.0039 406.5 58.0039C406.224 58.0039 406 57.78 406 57.5039V49.0039H397.5C397.224 49.0039 397 48.78 397 48.5039Z"/><path fill="#7A858E" fill-rule="evenodd" d="M397.5 50.0039C397.224 50.0039 397 50.2278 397 50.5039V57.5039C397 57.78 397.224 58.0039 397.5 58.0039H404.5C404.776 58.0039 405 57.78 405 57.5039V50.5039C405 50.2278 404.776 50.0039 404.5 50.0039H397.5ZM398 51.0039V57.0039H404V51.0039H398Z" clip-rule="evenodd"/><rect width="1" height="24" x="427" y="40" fill="#E1E5E8"/><path fill="#7A858E" d="M446.5 46.0039C446.776 46.0039 447 46.2278 447 46.5039V47.0039H457V46.5039C457 46.2278 457.224 46.0039 457.5 46.0039C457.776 46.0039 458 46.2278 458 46.5039V48.5039C458 48.78 457.776 49.0039 457.5 49.0039C457.224 49.0039 457 48.78 457 48.5039V48.0039H447V48.5039C447 48.78 446.776 49.0039 446.5 49.0039C446.224 49.0039 446 48.78 446 48.5039V46.5039C446 46.2278 446.224 46.0039 446.5 46.0039Z"/><path fill="#7A858E" fill-rule="evenodd" d="M457.5 51.0039C457.776 51.0039 458 51.2278 458 51.5039V56.5039C458 56.78 457.776 57.0039 457.5 57.0039H446.5C446.224 57.0039 446 56.78 446 56.5039V51.5039C446 51.2278 446.224 51.0039 446.5 51.0039H457.5ZM447 52.0039V56.0039H457V52.0039H456V54.0039C456 54.28 455.776 54.5039 455.5 54.5039C455.224 54.5039 455 54.28 455 54.0039V52.0039H454.25V52.5039C454.25 52.78 454.026 53.0039 453.75 53.0039C453.474 53.0039 453.25 52.78 453.25 52.5039V52.0039H452.5V54.0039C452.5 54.28 452.276 54.5039 452 54.5039C451.724 54.5039 451.5 54.28 451.5 54.0039V52.0039H450.75V52.5039C450.75 52.78 450.526 53.0039 450.25 53.0039C449.974 53.0039 449.75 52.78 449.75 52.5039V52.0039H449V54.0039C449 54.28 448.776 54.5039 448.5 54.5039C448.224 54.5039 448 54.28 448 54.0039V52.0039H447Z" clip-rule="evenodd"/><path fill="#7A858E" fill-rule="evenodd" d="M478 46.5039C478 46.2278 478.224 46.0039 478.5 46.0039H483C483.276 46.0039 483.5 46.2278 483.5 46.5039V51.0039C483.5 51.28 483.276 51.5039 483 51.5039H478.5C478.224 51.5039 478 51.28 478 51.0039V46.5039ZM479 50.5039V47.0039H482.5V50.5039H479Z" clip-rule="evenodd"/><path fill="#7A858E" fill-rule="evenodd" d="M484.5 46.5039C484.5 46.2278 484.724 46.0039 485 46.0039H489.5C489.776 46.0039 490 46.2278 490 46.5039V51.0039C490 51.28 489.776 51.5039 489.5 51.5039H485C484.724 51.5039 484.5 51.28 484.5 51.0039V46.5039ZM485.5 50.5039V47.0039H489V50.5039H485.5Z" clip-rule="evenodd"/><path fill="#7A858E" fill-rule="evenodd" d="M478.5 52.5039C478.224 52.5039 478 52.7278 478 53.0039V57.5039C478 57.78 478.224 58.0039 478.5 58.0039H483C483.276 58.0039 483.5 57.78 483.5 57.5039V53.0039C483.5 52.7278 483.276 52.5039 483 52.5039H478.5ZM479 53.5039V57.0039H482.5V53.5039H479Z" clip-rule="evenodd"/><path fill="#7A858E" fill-rule="evenodd" d="M484.5 53.0039C484.5 52.7278 484.724 52.5039 485 52.5039H489.5C489.776 52.5039 490 52.7278 490 53.0039V57.5039C490 57.78 489.776 58.0039 489.5 58.0039H485C484.724 58.0039 484.5 57.78 484.5 57.5039V53.0039ZM485.5 57.0039V53.5039H489V57.0039H485.5Z" clip-rule="evenodd"/><path fill="#7A858E" d="M511 47.0039V49.0039H510V46.5039C510 46.2278 510.224 46.0039 510.5 46.0039H513V47.0039H511Z"/><path fill="#7A858E" d="M510 54.0039V50.0039H511V54.0039H510Z"/><path fill="#7A858E" d="M510 55.0039V57.5039C510 57.78 510.224 58.0039 510.5 58.0039H513V57.0039H511V55.0039H510Z"/><path fill="#7A858E" d="M519 58.0039H521.5C521.776 58.0039 522 57.78 522 57.5039V55.0039H521V57.0039H519V58.0039Z"/><path fill="#7A858E" d="M521 49.0039H522V46.5039C522 46.2278 521.776 46.0039 521.5 46.0039H519V47.0039H521V49.0039Z"/><path fill="#7A858E" d="M518 57.0039V58.0039H514V57.0039H518Z"/><path fill="#7A858E" d="M518 46.0039V47.0039H514V46.0039H518Z"/><path fill="#7A858E" d="M522 54.0039H521V50.0039H522V54.0039Z"/><path fill="#7A858E" d="M516 53.0039C516.552 53.0039 517 52.5562 517 52.0039C517 51.4516 516.552 51.0039 516 51.0039C515.448 51.0039 515 51.4516 515 52.0039C515 52.5562 515.448 53.0039 516 53.0039Z"/><rect width="1" height="24" x="540" y="40" fill="#E1E5E8"/><g clip-path="url(#clip10_5695_88034)"><path fill="#7A858E" d="M561.526 49.842C561.613 49.58 561.896 49.4385 562.158 49.5258L564.209 50.2096C564.723 50.3806 565.277 50.3806 565.791 50.2096L567.842 49.5258C568.104 49.4385 568.387 49.58 568.474 49.842C568.562 50.104 568.42 50.3872 568.158 50.4745L565.705 51.2921C565.583 51.333 565.5 51.4476 565.5 51.5767V51.8198C565.5 52.5184 565.663 53.2074 565.975 53.8323L566.947 55.7765C567.071 56.0235 566.971 56.3238 566.724 56.4473C566.477 56.5708 566.176 56.4707 566.053 56.2237L565 54.1181L563.947 56.2237C563.824 56.4707 563.523 56.5708 563.276 56.4473C563.029 56.3238 562.929 56.0235 563.053 55.7765L564.025 53.8322C564.337 53.2074 564.5 52.5183 564.5 51.8197V51.5767C564.5 51.4476 564.417 51.333 564.295 51.2921L561.842 50.4745C561.58 50.3872 561.438 50.104 561.526 49.842Z"/><path fill="#7A858E" d="M565 49.5C565.552 49.5 566 49.0523 566 48.5C566 47.9477 565.552 47.5 565 47.5C564.448 47.5 564 47.9477 564 48.5C564 49.0523 564.448 49.5 565 49.5Z"/><path fill="#7A858E" fill-rule="evenodd" d="M565 59C568.866 59 572 55.866 572 52C572 48.134 568.866 45 565 45C561.134 45 558 48.134 558 52C558 55.866 561.134 59 565 59ZM565 58C568.314 58 571 55.3137 571 52C571 48.6863 568.314 46 565 46C561.686 46 559 48.6863 559 52C559 55.3137 561.686 58 565 58Z" clip-rule="evenodd"/></g><path fill="#7A858E" fill-rule="evenodd" d="M596.25 49.2539C596.25 49.9443 595.69 50.5039 595 50.5039C594.31 50.5039 593.75 49.9443 593.75 49.2539C593.75 48.5636 594.31 48.0039 595 48.0039C595.69 48.0039 596.25 48.5636 596.25 49.2539ZM595.75 49.2539C595.75 49.6681 595.414 50.0039 595 50.0039C594.586 50.0039 594.25 49.6681 594.25 49.2539C594.25 48.8397 594.586 48.5039 595 48.5039C595.414 48.5039 595.75 48.8397 595.75 49.2539Z" clip-rule="evenodd"/><path fill="#7A858E" fill-rule="evenodd" d="M603 46.5039V57.5039C603 57.78 602.776 58.0039 602.5 58.0039H591.5C591.224 58.0039 591 57.78 591 57.5039V46.5039C591 46.2278 591.224 46.0039 591.5 46.0039H602.5C602.776 46.0039 603 46.2278 603 46.5039ZM592 54.2968V47.0039H602V52.2968L599.854 50.1504C599.658 49.9551 599.342 49.9551 599.146 50.1504L596.5 52.7968L595.354 51.6504C595.158 51.4551 594.842 51.4551 594.646 51.6504L592 54.2968ZM599.5 51.211L602 53.711V57.0039H592V55.711L595 52.711L598.146 55.8575C598.342 56.0527 598.658 56.0527 598.854 55.8575C599.049 55.6622 599.049 55.3456 598.854 55.1504L597.207 53.5039L599.5 51.211Z" clip-rule="evenodd"/><g clip-path="url(#clip11_5695_88034)"><path fill="#7A858E" fill-rule="evenodd" d="M625 48.0039H622.5C622.224 48.0039 622 48.2278 622 48.5039V58.5039C622 58.78 622.224 59.0039 622.5 59.0039H632.5C632.776 59.0039 633 58.78 633 58.5039V56.0039H635.5C635.776 56.0039 636 55.78 636 55.5039V45.5039C636 45.2278 635.776 45.0039 635.5 45.0039H625.5C625.224 45.0039 625 45.2278 625 45.5039V48.0039ZM626 49.0039V51.2968L628.293 49.0039H626ZM625 49.0039V55.5039C625 55.5717 625.013 55.6363 625.038 55.6953C625.062 55.7543 625.099 55.8095 625.146 55.8575C625.243 55.9543 625.37 56.0031 625.497 56.0039L625.5 56.0039H632V58.0039H623V49.0039H625ZM626 48.0039H632.5C632.568 48.0039 632.632 48.0174 632.691 48.0418C632.75 48.0662 632.806 48.1024 632.854 48.1504C632.901 48.1983 632.938 48.2535 632.962 48.3125C632.984 48.3661 632.997 48.4228 632.999 48.4799C633 48.4879 633 48.4959 633 48.5039V55.0039H635V46.0039H626V48.0039ZM632 55.0039V52.711L629.707 55.0039H632ZM632 51.2968V49.711L626.707 55.0039H628.293L632 51.2968ZM631.293 49.0039H629.707L626 52.711V54.2968L631.293 49.0039Z" clip-rule="evenodd"/></g><g clip-path="url(#clip12_5695_88034)"><path fill="#7A858E" d="M662.5 52.0039C662.776 52.0039 663 51.78 663 51.5039C663 51.2278 662.776 51.0039 662.5 51.0039H657.5C657.224 51.0039 657 51.2278 657 51.5039C657 51.78 657.224 52.0039 657.5 52.0039H662.5Z"/><path fill="#7A858E" d="M663 53.5039C663 53.78 662.776 54.0039 662.5 54.0039H657.5C657.224 54.0039 657 53.78 657 53.5039C657 53.2278 657.224 53.0039 657.5 53.0039H662.5C662.776 53.0039 663 53.2278 663 53.5039Z"/><path fill="#7A858E" fill-rule="evenodd" d="M666 56.5039V55.0039H667.5C667.776 55.0039 668 54.78 668 54.5039V46.5039C668 46.2278 667.776 46.0039 667.5 46.0039H656.5C656.224 46.0039 656 46.2278 656 46.5039V48.0039H654.5C654.224 48.0039 654 48.2278 654 48.5039V56.5039C654 56.78 654.224 57.0039 654.5 57.0039H656V58.5039C656 58.5717 656.013 58.6363 656.038 58.6953C656.062 58.7543 656.099 58.8095 656.146 58.8575C656.243 58.9543 656.37 59.0031 656.497 59.0039L656.5 59.0039L656.503 59.0039C656.57 59.0035 656.633 58.9901 656.691 58.966C656.75 58.9416 656.806 58.9054 656.854 58.8575L658.707 57.0039H665.5C665.776 57.0039 666 56.78 666 56.5039ZM657 48.0039V47.0039H667V54.0039H666V48.5039C666 48.2278 665.776 48.0039 665.5 48.0039H657ZM655 56.0039V49.0039H665V56.0039H655Z" clip-rule="evenodd"/></g><path fill="#7A858E" d="M1171 46.0039C1170.45 46.0039 1170 46.4516 1170 47.0039V57.0039C1170 57.5562 1170.45 58.0039 1171 58.0039H1181C1181.55 58.0039 1182 57.5562 1182 57.0039V52.5039C1182 52.2278 1181.78 52.0039 1181.5 52.0039C1181.22 52.0039 1181 52.2278 1181 52.5039V57.0039H1171V47.0039L1175.5 47.0039C1175.78 47.0039 1176 46.78 1176 46.5039C1176 46.2278 1175.78 46.0039 1175.5 46.0039H1171Z"/><path fill="#7A858E" d="M1176.35 52.3575L1181 47.711V49.5039C1181 49.78 1181.22 50.0039 1181.5 50.0039C1181.78 50.0039 1182 49.78 1182 49.5039V46.5039C1182 46.2278 1181.78 46.0039 1181.5 46.0039H1178.5C1178.22 46.0039 1178 46.2278 1178 46.5039C1178 46.78 1178.22 47.0039 1178.5 47.0039H1180.29L1175.65 51.6504C1175.45 51.8456 1175.45 52.1622 1175.65 52.3575C1175.84 52.5527 1176.16 52.5527 1176.35 52.3575Z"/><path fill="#E1E5E8" d="M1200 71H251V73H1200V71Z" mask="url(#path-14-outside-1_5695_88034)"/><path stroke="#E5E5E5" d="M251.5 37C251.5 34.5147 253.515 32.5 256 32.5H1200.5V831.5H256C253.515 831.5 251.5 829.485 251.5 827V37Z"/></g></g></g><rect width="1200" height="829" x=".5" y=".5" stroke="#000" stroke-opacity=".1" rx="7.5"/></g><defs><filter id="filter0_d_5695_88034" width="956" height="806" x="248" y="30" color-interpolation-filters="sRGB" filterUnits="userSpaceOnUse"><feFlood flood-opacity="0" result="BackgroundImageFix"/><feColorMatrix in="SourceAlpha" result="hardAlpha" type="matrix" values="0 0 0 0 0 0 0 0 0 0 0 0 0 0 0 0 0 0 127 0"/><feOffset dy="1"/><feGaussianBlur stdDeviation="1.5"/><feColorMatrix type="matrix" values="0 0 0 0 0 0 0 0 0 0 0 0 0 0 0 0 0 0 0.05 0"/><feBlend in2="BackgroundImageFix" mode="normal" result="effect1_dropShadow_5695_88034"/><feBlend in="SourceGraphic" in2="effect1_dropShadow_5695_88034" mode="normal" result="shape"/></filter><clipPath id="clip0_5695_88034"><rect width="1201" height="830" fill="#fff"/></clipPath><clipPath id="clip1_5695_88034"><rect width="1201" height="830" fill="#fff" rx="8"/></clipPath><clipPath id="clip2_5695_88034"><rect width="12" height="12" fill="#fff" transform="translate(79 10)"/></clipPath><clipPath id="clip3_5695_88034"><rect width="12" height="12" fill="#fff" transform="translate(101 10)"/></clipPath><clipPath id="clip4_5695_88034"><rect width="12" height="12" fill="#fff" transform="translate(123 10)"/></clipPath><clipPath id="clip5_5695_88034"><rect width="1200" height="800" fill="#fff" transform="translate(1 32)"/></clipPath><clipPath id="clip6_5695_88034"><rect width="14" height="14" fill="#fff" transform="translate(268 45)"/></clipPath><clipPath id="clip7_5695_88034"><rect width="14" height="14" fill="#fff" transform="translate(300 45)"/></clipPath><clipPath id="clip8_5695_88034"><rect width="14" height="14" fill="#fff" transform="translate(332 45)"/></clipPath><clipPath id="clip9_5695_88034"><rect width="14" height="14" fill="#fff" transform="translate(364 45)"/></clipPath><clipPath id="clip10_5695_88034"><rect width="14" height="14" fill="#fff" transform="translate(558 45)"/></clipPath><clipPath id="clip11_5695_88034"><rect width="14" height="14" fill="#fff" transform="translate(622 45)"/></clipPath><clipPath id="clip12_5695_88034"><rect width="14" height="14" fill="#fff" transform="translate(654 45)"/></clipPath></defs></svg>