<svg width="1200" height="830" viewBox="0 0 1200 830" fill="none" xmlns="http://www.w3.org/2000/svg">
<g clip-path="url(#clip0_199_12714)">
<path d="M1200 32H0V832H1200V32Z" fill="#F6F9FC"/>
<g filter="url(#filter0_d_199_12714)">
<mask id="path-3-inside-1_199_12714" fill="white">
<path d="M251 32H1200V832H251V32Z"/>
</mask>
<path d="M251 32H1200V832H251V32Z" fill="white"/>
<path d="M252 832V32H250V832H252Z" fill="#265573" fill-opacity="0.15" mask="url(#path-3-inside-1_199_12714)"/>
<mask id="mask0_199_12714" style="mask-type:luminance" maskUnits="userSpaceOnUse" x="267" y="45" width="15" height="14">
<path d="M281.766 45H267.777V59H281.766V45Z" fill="white"/>
</mask>
<g mask="url(#mask0_199_12714)">
<path d="M273.273 46C273.273 45.7239 273.049 45.5 272.774 45.5H269.776C269.5 45.5 269.277 45.7239 269.277 46C269.277 46.2761 269.5 46.5 269.776 46.5H271.31C269.488 47.651 268.277 49.6836 268.277 52C268.277 55.2213 270.618 57.8944 273.69 58.4102C273.963 58.4559 274.219 58.2722 274.265 57.9998C274.311 57.7275 274.127 57.4697 273.856 57.424C271.257 56.9876 269.277 54.7248 269.277 52C269.277 49.8633 270.494 48.0102 272.274 47.0996V49C272.274 49.2761 272.498 49.5 272.774 49.5C273.049 49.5 273.273 49.2761 273.273 49V46.3531C273.273 46.3454 273.273 46.3376 273.273 46.3298V46Z" fill="#7A858E"/>
<path d="M275.279 46.0004C275.324 45.728 275.581 45.5443 275.854 45.59C278.926 46.1058 281.267 48.7789 281.267 52.0001C281.267 54.3166 280.056 56.3491 278.235 57.5001H279.768C280.044 57.5001 280.267 57.724 280.267 58.0001C280.267 58.2762 280.044 58.5001 279.768 58.5001H276.77C276.495 58.5001 276.271 58.2762 276.271 58.0001V55.0001C276.271 54.724 276.495 54.5001 276.77 54.5001C277.046 54.5001 277.27 54.724 277.27 55.0001V56.9006C279.049 55.9899 280.267 54.1368 280.267 52.0001C280.267 49.2754 278.287 47.0126 275.688 46.5762C275.416 46.5305 275.233 46.2727 275.279 46.0004Z" fill="#7A858E"/>
</g>
<mask id="mask1_199_12714" style="mask-type:luminance" maskUnits="userSpaceOnUse" x="299" y="45" width="15" height="14">
<path d="M313.738 45H299.75V59H313.738V45Z" fill="white"/>
</mask>
<g mask="url(#mask1_199_12714)">
<path d="M305.745 48.5C306.021 48.5 306.245 48.7239 306.245 49V50.5H307.743C308.019 50.5 308.243 50.7239 308.243 51C308.243 51.2761 308.019 51.5 307.743 51.5H306.245V53C306.245 53.2761 306.021 53.5 305.745 53.5C305.469 53.5 305.245 53.2761 305.245 53V51.5H303.747C303.471 51.5 303.247 51.2761 303.247 51C303.247 50.7239 303.471 50.5 303.747 50.5H305.245V49C305.245 48.7239 305.469 48.5 305.745 48.5Z" fill="#7A858E"/>
<path fill-rule="evenodd" clip-rule="evenodd" d="M309.286 55.2059C308.33 56.0134 307.094 56.5 305.745 56.5C302.71 56.5 300.25 54.0376 300.25 51C300.25 47.9624 302.71 45.5 305.745 45.5C308.781 45.5 311.241 47.9624 311.241 51C311.241 52.3503 310.754 53.587 309.948 54.5442C310.001 54.5684 310.052 54.6025 310.096 54.6464L313.093 57.6464C313.288 57.8417 313.288 58.1583 313.093 58.3536C312.897 58.5488 312.582 58.5488 312.386 58.3536L309.388 55.3536C309.344 55.3096 309.31 55.2594 309.286 55.2059ZM310.242 51C310.242 53.4853 308.228 55.5 305.745 55.5C303.262 55.5 301.249 53.4853 301.249 51C301.249 48.5147 303.262 46.5 305.745 46.5C308.228 46.5 310.242 48.5147 310.242 51Z" fill="#7A858E"/>
</g>
<mask id="mask2_199_12714" style="mask-type:luminance" maskUnits="userSpaceOnUse" x="331" y="45" width="15" height="14">
<path d="M345.712 45H331.724V59H345.712V45Z" fill="white"/>
</mask>
<g mask="url(#mask2_199_12714)">
<path d="M335.72 50.5C335.445 50.5 335.221 50.7239 335.221 51C335.221 51.2761 335.445 51.5 335.72 51.5H339.717C339.993 51.5 340.217 51.2761 340.217 51C340.217 50.7239 339.993 50.5 339.717 50.5H335.72Z" fill="#7A858E"/>
<path fill-rule="evenodd" clip-rule="evenodd" d="M337.719 56.5C339.068 56.5 340.304 56.0134 341.26 55.2059C341.284 55.2594 341.318 55.3096 341.362 55.3536L344.36 58.3536C344.555 58.5488 344.871 58.5488 345.067 58.3536C345.262 58.1583 345.262 57.8417 345.067 57.6464L342.069 54.6464C342.025 54.6025 341.975 54.5684 341.922 54.5442C342.728 53.587 343.214 52.3503 343.214 51C343.214 47.9624 340.755 45.5 337.719 45.5C334.684 45.5 332.224 47.9624 332.224 51C332.224 54.0376 334.684 56.5 337.719 56.5ZM337.719 55.5C340.202 55.5 342.215 53.4853 342.215 51C342.215 48.5147 340.202 46.5 337.719 46.5C335.236 46.5 333.223 48.5147 333.223 51C333.223 53.4853 335.236 55.5 337.719 55.5Z" fill="#7A858E"/>
</g>
<mask id="mask3_199_12714" style="mask-type:luminance" maskUnits="userSpaceOnUse" x="363" y="45" width="15" height="14">
<path d="M377.686 45H363.697V59H377.686V45Z" fill="white"/>
</mask>
<g mask="url(#mask3_199_12714)">
<path d="M365.196 47.8371V46.5C365.196 46.2239 364.973 46 364.697 46C364.421 46 364.197 46.2239 364.197 46.5V49C364.197 49.2761 364.421 49.5 364.697 49.5H367.195C367.471 49.5 367.694 49.2761 367.694 49C367.694 48.7239 367.471 48.5 367.195 48.5H365.954C366.76 47.2933 368.134 46.5 369.693 46.5C372.176 46.5 374.189 48.5147 374.189 51C374.189 53.4853 372.176 55.5 369.693 55.5C367.742 55.5 366.08 54.2564 365.458 52.5165C365.365 52.2565 365.08 52.1212 364.82 52.2142C364.56 52.3072 364.424 52.5934 364.517 52.8534C365.277 54.9784 367.307 56.5 369.693 56.5C371.042 56.5 372.278 56.0134 373.234 55.2059C373.258 55.2594 373.292 55.3096 373.336 55.3536L376.333 58.3536C376.529 58.5488 376.845 58.5488 377.041 58.3536C377.235 58.1583 377.235 57.8417 377.041 57.6464L374.043 54.6464C373.999 54.6025 373.948 54.5684 373.895 54.5442C374.702 53.587 375.188 52.3503 375.188 51C375.188 47.9624 372.728 45.5 369.693 45.5C367.833 45.5 366.191 46.4242 365.196 47.8371Z" fill="#7A858E"/>
</g>
<path d="M397.17 46.0039C396.894 46.0039 396.67 46.2278 396.67 46.5039C396.67 46.78 396.894 47.0039 397.17 47.0039H407.661V57.5039C407.661 57.78 407.885 58.0039 408.16 58.0039C408.436 58.0039 408.66 57.78 408.66 57.5039V47.0039C408.66 46.4516 408.212 46.0039 407.661 46.0039H397.17Z" fill="#7A858E"/>
<path d="M396.67 48.5039C396.67 48.2278 396.894 48.0039 397.17 48.0039H405.662C406.214 48.0039 406.662 48.4516 406.662 49.0039V57.5039C406.662 57.78 406.438 58.0039 406.162 58.0039C405.886 58.0039 405.662 57.78 405.662 57.5039V49.0039H397.17C396.894 49.0039 396.67 48.78 396.67 48.5039Z" fill="#7A858E"/>
<path fill-rule="evenodd" clip-rule="evenodd" d="M397.17 50.0039C396.894 50.0039 396.67 50.2278 396.67 50.5039V57.5039C396.67 57.78 396.894 58.0039 397.17 58.0039H404.164C404.439 58.0039 404.663 57.78 404.663 57.5039V50.5039C404.663 50.2278 404.439 50.0039 404.164 50.0039H397.17ZM397.669 51.0039V57.0039H403.664V51.0039H397.669Z" fill="#7A858E"/>
<path d="M427.645 40H426.645V64H427.645V40Z" fill="#E1E5E8"/>
<path d="M446.128 46.0039C446.404 46.0039 446.628 46.2278 446.628 46.5039V47.0039H456.62V46.5039C456.62 46.2278 456.844 46.0039 457.119 46.0039C457.395 46.0039 457.619 46.2278 457.619 46.5039V48.5039C457.619 48.78 457.395 49.0039 457.119 49.0039C456.844 49.0039 456.62 48.78 456.62 48.5039V48.0039H446.628V48.5039C446.628 48.78 446.404 49.0039 446.128 49.0039C445.853 49.0039 445.629 48.78 445.629 48.5039V46.5039C445.629 46.2278 445.853 46.0039 446.128 46.0039Z" fill="#7A858E"/>
<path fill-rule="evenodd" clip-rule="evenodd" d="M457.119 51.0039C457.395 51.0039 457.619 51.2278 457.619 51.5039V56.5039C457.619 56.78 457.395 57.0039 457.119 57.0039H446.128C445.853 57.0039 445.629 56.78 445.629 56.5039V51.5039C445.629 51.2278 445.853 51.0039 446.128 51.0039H457.119ZM446.628 52.0039V56.0039H456.62V52.0039H455.621V54.0039C455.621 54.28 455.397 54.5039 455.121 54.5039C454.845 54.5039 454.621 54.28 454.621 54.0039V52.0039H453.872V52.5039C453.872 52.78 453.648 53.0039 453.372 53.0039C453.097 53.0039 452.873 52.78 452.873 52.5039V52.0039H452.123V54.0039C452.123 54.28 451.9 54.5039 451.624 54.5039C451.348 54.5039 451.124 54.28 451.124 54.0039V52.0039H450.375V52.5039C450.375 52.78 450.151 53.0039 449.875 53.0039C449.6 53.0039 449.376 52.78 449.376 52.5039V52.0039H448.626V54.0039C448.626 54.28 448.403 54.5039 448.127 54.5039C447.851 54.5039 447.627 54.28 447.627 54.0039V52.0039H446.628Z" fill="#7A858E"/>
<path fill-rule="evenodd" clip-rule="evenodd" d="M477.602 46.5039C477.602 46.2278 477.825 46.0039 478.101 46.0039H482.597C482.873 46.0039 483.097 46.2278 483.097 46.5039V51.0039C483.097 51.28 482.873 51.5039 482.597 51.5039H478.101C477.825 51.5039 477.602 51.28 477.602 51.0039V46.5039ZM478.601 50.5039V47.0039H482.098V50.5039H478.601Z" fill="#7A858E"/>
<path fill-rule="evenodd" clip-rule="evenodd" d="M484.097 46.5039C484.097 46.2278 484.32 46.0039 484.596 46.0039H489.093C489.368 46.0039 489.592 46.2278 489.592 46.5039V51.0039C489.592 51.28 489.368 51.5039 489.093 51.5039H484.596C484.32 51.5039 484.097 51.28 484.097 51.0039V46.5039ZM485.096 50.5039V47.0039H488.593V50.5039H485.096Z" fill="#7A858E"/>
<path fill-rule="evenodd" clip-rule="evenodd" d="M478.101 52.5039C477.825 52.5039 477.602 52.7278 477.602 53.0039V57.5039C477.602 57.78 477.825 58.0039 478.101 58.0039H482.597C482.873 58.0039 483.097 57.78 483.097 57.5039V53.0039C483.097 52.7278 482.873 52.5039 482.597 52.5039H478.101ZM478.601 53.5039V57.0039H482.098V53.5039H478.601Z" fill="#7A858E"/>
<path fill-rule="evenodd" clip-rule="evenodd" d="M484.097 53.0039C484.097 52.7278 484.32 52.5039 484.596 52.5039H489.093C489.368 52.5039 489.592 52.7278 489.592 53.0039V57.5039C489.592 57.78 489.368 58.0039 489.093 58.0039H484.596C484.32 58.0039 484.097 57.78 484.097 57.5039V53.0039ZM485.096 57.0039V53.5039H488.593V57.0039H485.096Z" fill="#7A858E"/>
<path d="M510.574 47.0039V49.0039H509.575V46.5039C509.575 46.2278 509.799 46.0039 510.075 46.0039H512.573V47.0039H510.574Z" fill="#7A858E"/>
<path d="M509.575 54.0039V50.0039H510.575V54.0039H509.575Z" fill="#7A858E"/>
<path d="M509.575 55.0039V57.5039C509.575 57.78 509.799 58.0039 510.075 58.0039H512.573V57.0039H510.574V55.0039H509.575Z" fill="#7A858E"/>
<path d="M518.568 58.0039H521.066C521.342 58.0039 521.566 57.78 521.566 57.5039V55.0039H520.567V57.0039H518.568V58.0039Z" fill="#7A858E"/>
<path d="M520.567 49.0039H521.566V46.5039C521.566 46.2278 521.342 46.0039 521.066 46.0039H518.568V47.0039H520.567V49.0039Z" fill="#7A858E"/>
<path d="M517.569 57.0039V58.0039H513.572V57.0039H517.569Z" fill="#7A858E"/>
<path d="M517.569 46.0039V47.0039H513.572V46.0039H517.569Z" fill="#7A858E"/>
<path d="M521.566 54.0039H520.566V50.0039H521.566V54.0039Z" fill="#7A858E"/>
<path d="M515.57 53.0039C516.122 53.0039 516.57 52.5562 516.57 52.0039C516.57 51.4516 516.122 51.0039 515.57 51.0039C515.019 51.0039 514.571 51.4516 514.571 52.0039C514.571 52.5562 515.019 53.0039 515.57 53.0039Z" fill="#7A858E"/>
<path d="M540.551 40H539.551V64H540.551V40Z" fill="#E1E5E8"/>
<mask id="mask4_199_12714" style="mask-type:luminance" maskUnits="userSpaceOnUse" x="557" y="45" width="15" height="14">
<path d="M571.523 45H557.535V59H571.523V45Z" fill="white"/>
</mask>
<g mask="url(#mask4_199_12714)">
<path d="M561.058 49.842C561.145 49.58 561.428 49.4385 561.69 49.5258L563.739 50.2096C564.253 50.3806 564.806 50.3806 565.32 50.2096L567.369 49.5258C567.631 49.4385 567.914 49.58 568.001 49.842C568.088 50.104 567.947 50.3872 567.685 50.4745L565.234 51.2921C565.112 51.333 565.029 51.4476 565.029 51.5767V51.8198C565.029 52.5184 565.192 53.2074 565.504 53.8323L566.475 55.7765C566.599 56.0235 566.499 56.3238 566.252 56.4473C566.005 56.5708 565.704 56.4707 565.581 56.2237L564.529 54.1181L563.477 56.2237C563.354 56.4707 563.054 56.5708 562.807 56.4473C562.56 56.3238 562.46 56.0235 562.584 55.7765L563.555 53.8322C563.867 53.2074 564.03 52.5183 564.03 51.8197V51.5767C564.03 51.4476 563.947 51.333 563.825 51.2921L561.374 50.4745C561.112 50.3872 560.97 50.104 561.058 49.842Z" fill="#7A858E"/>
<path d="M564.529 49.5C565.081 49.5 565.529 49.0523 565.529 48.5C565.529 47.9477 565.081 47.5 564.529 47.5C563.978 47.5 563.53 47.9477 563.53 48.5C563.53 49.0523 563.978 49.5 564.529 49.5Z" fill="#7A858E"/>
<path fill-rule="evenodd" clip-rule="evenodd" d="M564.529 59C568.392 59 571.523 55.866 571.523 52C571.523 48.134 568.392 45 564.529 45C560.667 45 557.535 48.134 557.535 52C557.535 55.866 560.667 59 564.529 59ZM564.529 58C567.841 58 570.524 55.3137 570.524 52C570.524 48.6863 567.841 46 564.529 46C561.218 46 558.534 48.6863 558.534 52C558.534 55.3137 561.218 58 564.529 58Z" fill="#7A858E"/>
</g>
<path fill-rule="evenodd" clip-rule="evenodd" d="M595.754 49.2539C595.754 49.9443 595.194 50.5039 594.505 50.5039C593.815 50.5039 593.256 49.9443 593.256 49.2539C593.256 48.5636 593.815 48.0039 594.505 48.0039C595.194 48.0039 595.754 48.5636 595.754 49.2539ZM595.254 49.2539C595.254 49.6681 594.918 50.0039 594.505 50.0039C594.091 50.0039 593.755 49.6681 593.755 49.2539C593.755 48.8397 594.091 48.5039 594.505 48.5039C594.918 48.5039 595.254 48.8397 595.254 49.2539Z" fill="#7A858E"/>
<path fill-rule="evenodd" clip-rule="evenodd" d="M602.498 46.5039V57.5039C602.498 57.78 602.274 58.0039 601.998 58.0039H591.007C590.732 58.0039 590.508 57.78 590.508 57.5039V46.5039C590.508 46.2278 590.732 46.0039 591.007 46.0039H601.998C602.274 46.0039 602.498 46.2278 602.498 46.5039ZM591.507 54.2968V47.0039H601.499V52.2968L599.354 50.1504C599.159 49.9551 598.843 49.9551 598.647 50.1504L596.003 52.7968L594.858 51.6504C594.662 51.4551 594.347 51.4551 594.151 51.6504L591.507 54.2968ZM599.001 51.211L601.499 53.711V57.0039H591.507V55.711L594.504 52.711L597.648 55.8575C597.844 56.0527 598.159 56.0527 598.355 55.8575C598.55 55.6622 598.55 55.3456 598.355 55.1504L596.71 53.5039L599.001 51.211Z" fill="#7A858E"/>
<mask id="mask5_199_12714" style="mask-type:luminance" maskUnits="userSpaceOnUse" x="621" y="45" width="15" height="14">
<path d="M635.471 45H621.482V59H635.471V45Z" fill="white"/>
</mask>
<g mask="url(#mask5_199_12714)">
<path fill-rule="evenodd" clip-rule="evenodd" d="M624.48 48.0039H621.982C621.706 48.0039 621.482 48.2278 621.482 48.5039V58.5039C621.482 58.78 621.706 59.0039 621.982 59.0039H631.974C632.249 59.0039 632.473 58.78 632.473 58.5039V56.0039H634.971C635.247 56.0039 635.471 55.78 635.471 55.5039V45.5039C635.471 45.2278 635.247 45.0039 634.971 45.0039H624.98C624.704 45.0039 624.48 45.2278 624.48 45.5039V48.0039ZM625.479 49.0039V51.2968L627.77 49.0039H625.479ZM624.48 49.0039V55.5039C624.48 55.5717 624.493 55.6363 624.518 55.6953C624.542 55.7543 624.579 55.8095 624.626 55.8575C624.723 55.9543 624.85 56.0031 624.977 56.0039H624.98H631.474V58.0039H622.482V49.0039H624.48ZM625.479 48.0039H631.974C632.042 48.0039 632.106 48.0174 632.164 48.0418C632.223 48.0662 632.279 48.1024 632.327 48.1504C632.374 48.1983 632.411 48.2535 632.435 48.3125C632.457 48.3661 632.47 48.4228 632.472 48.4799C632.473 48.4879 632.473 48.4959 632.473 48.5039V55.0039H634.472V46.0039H625.479V48.0039ZM631.474 55.0039V52.711L629.183 55.0039H631.474ZM631.474 51.2968V49.711L626.185 55.0039H627.77L631.474 51.2968ZM630.768 49.0039H629.183L625.479 52.711V54.2968L630.768 49.0039Z" fill="#7A858E"/>
</g>
<mask id="mask6_199_12714" style="mask-type:luminance" maskUnits="userSpaceOnUse" x="653" y="45" width="15" height="14">
<path d="M667.443 45H653.455V59H667.443V45Z" fill="white"/>
</mask>
<g mask="url(#mask6_199_12714)">
<path d="M661.948 52.0039C662.223 52.0039 662.447 51.78 662.447 51.5039C662.447 51.2278 662.223 51.0039 661.948 51.0039H656.952C656.676 51.0039 656.452 51.2278 656.452 51.5039C656.452 51.78 656.676 52.0039 656.952 52.0039H661.948Z" fill="#7A858E"/>
<path d="M662.447 53.5039C662.447 53.78 662.223 54.0039 661.948 54.0039H656.952C656.676 54.0039 656.452 53.78 656.452 53.5039C656.452 53.2278 656.676 53.0039 656.952 53.0039H661.948C662.223 53.0039 662.447 53.2278 662.447 53.5039Z" fill="#7A858E"/>
<path fill-rule="evenodd" clip-rule="evenodd" d="M665.445 56.5039V55.0039H666.944C667.22 55.0039 667.443 54.78 667.443 54.5039V46.5039C667.443 46.2278 667.22 46.0039 666.944 46.0039H655.953C655.677 46.0039 655.453 46.2278 655.453 46.5039V48.0039H653.955C653.679 48.0039 653.455 48.2278 653.455 48.5039V56.5039C653.455 56.78 653.679 57.0039 653.955 57.0039H655.453V58.5039C655.453 58.5717 655.466 58.6363 655.491 58.6953C655.515 58.7543 655.552 58.8095 655.599 58.8575C655.696 58.9543 655.823 59.0031 655.95 59.0039H655.953H655.956C656.023 59.0035 656.086 58.9901 656.144 58.966C656.203 58.9416 656.259 58.9054 656.307 58.8575L658.158 57.0039H664.946C665.221 57.0039 665.445 56.78 665.445 56.5039ZM656.453 48.0039V47.0039H666.444V54.0039H665.445V48.5039C665.445 48.2278 665.221 48.0039 664.946 48.0039H656.453ZM654.454 56.0039V49.0039H664.446V56.0039H654.454Z" fill="#7A858E"/>
</g>
<path d="M1170.02 46.0039C1169.48 46.0039 1169.03 46.4516 1169.03 47.0039V57.0039C1169.03 57.5562 1169.48 58.0039 1170.02 58.0039H1180.02C1180.57 58.0039 1181.02 57.5562 1181.02 57.0039V52.5039C1181.02 52.2278 1180.8 52.0039 1180.52 52.0039C1180.24 52.0039 1180.02 52.2278 1180.02 52.5039V57.0039H1170.02V47.0039H1174.52C1174.8 47.0039 1175.02 46.78 1175.02 46.5039C1175.02 46.2278 1174.8 46.0039 1174.52 46.0039H1170.02Z" fill="#7A858E"/>
<path d="M1175.37 52.3575L1180.02 47.711V49.5039C1180.02 49.78 1180.24 50.0039 1180.52 50.0039C1180.8 50.0039 1181.02 49.78 1181.02 49.5039V46.5039C1181.02 46.2278 1180.8 46.0039 1180.52 46.0039H1177.52C1177.24 46.0039 1177.02 46.2278 1177.02 46.5039C1177.02 46.78 1177.24 47.0039 1177.52 47.0039H1179.31L1174.67 51.6504C1174.47 51.8456 1174.47 52.1622 1174.67 52.3575C1174.86 52.5527 1175.18 52.5527 1175.37 52.3575Z" fill="#7A858E"/>
<path d="M1199 71H250.791V72H1199V71Z" fill="#E1E5E8"/>
</g>
<mask id="path-51-inside-2_199_12714" fill="white">
<path d="M0 8C0 3.58172 3.58172 0 8 0H1192C1196.42 0 1200 3.58172 1200 8V32H0V8Z"/>
</mask>
<path d="M0 8C0 3.58172 3.58172 0 8 0H1192C1196.42 0 1200 3.58172 1200 8V32H0V8Z" fill="white" fill-opacity="0.2"/>
<path d="M-1 8C-1 3.02944 3.02944 -1 8 -1H1192C1196.97 -1 1201 3.02944 1201 8H1199C1199 4.13401 1195.87 1 1192 1H8C4.13401 1 1 4.13401 1 8H-1ZM1200 32H0H1200ZM-1 32V8C-1 3.02944 3.02944 -1 8 -1V1C4.13401 1 1 4.13401 1 8V32H-1ZM1192 -1C1196.97 -1 1201 3.02944 1201 8V32H1199V8C1199 4.13401 1195.87 1 1192 1V-1Z" fill="white" fill-opacity="0.3" mask="url(#path-51-inside-2_199_12714)"/>
<g clip-path="url(#clip1_199_12714)">
<path d="M83.8277 11.9595C83.9919 12.1237 83.9919 12.3898 83.8277 12.554L80.7623 15.6194H90.6762C90.9083 15.6194 91.0965 15.8076 91.0965 16.0398C91.0965 16.2719 90.9083 16.4601 90.6762 16.4601H80.7623L83.8277 19.5255C83.9919 19.6897 83.9919 19.9558 83.8277 20.12C83.6636 20.2841 83.3974 20.2841 83.2333 20.12L79.4503 16.337C79.2861 16.1728 79.2861 15.9067 79.4503 15.7425L83.2333 11.9595C83.3974 11.7954 83.6636 11.7954 83.8277 11.9595Z" fill="white"/>
</g>
<g clip-path="url(#clip2_199_12714)">
<path d="M108.365 11.9595C108.53 11.7954 108.796 11.7954 108.96 11.9595L112.743 15.7425C112.907 15.9067 112.907 16.1728 112.743 16.337L108.96 20.12C108.796 20.2841 108.53 20.2841 108.365 20.12C108.201 19.9558 108.201 19.6897 108.365 19.5255L111.431 16.4601H101.517C101.285 16.4601 101.097 16.2719 101.097 16.0398C101.097 15.8076 101.285 15.6194 101.517 15.6194H111.431L108.365 12.554C108.201 12.3898 108.201 12.1237 108.365 11.9595Z" fill="white"/>
</g>
<g clip-path="url(#clip3_199_12714)">
<path d="M128.829 10.5757C128.803 10.5753 128.777 10.5752 128.751 10.5752C125.734 10.5752 123.287 13.0217 123.287 16.0395C123.287 19.0457 125.715 21.485 128.716 21.5038C128.728 21.5039 128.74 21.5039 128.751 21.5039C129.864 21.5039 130.9 21.1711 131.763 20.5996C131.816 20.5646 131.869 20.5286 131.92 20.4918C132.612 19.9989 133.183 19.3489 133.583 18.594C133.851 18.0879 134.042 17.5346 134.14 16.9498C134.179 16.7209 134.024 16.5041 133.795 16.4657C133.566 16.4273 133.349 16.5818 133.311 16.8107C133.202 17.4613 132.957 18.0658 132.606 18.594C131.778 19.8411 130.361 20.6632 128.751 20.6632C126.198 20.6632 124.128 18.5931 124.128 16.0395C124.128 13.486 126.198 11.4159 128.751 11.4159L128.756 11.4159C130.551 11.4177 132.106 12.4417 132.871 13.9379L131.273 13.9379C131.041 13.9379 130.853 14.1261 130.853 14.3582C130.853 14.5903 131.041 14.7785 131.273 14.7785H133.499C133.505 14.7787 133.512 14.7787 133.518 14.7785H133.795C134.028 14.7785 134.216 14.5903 134.216 14.3582V11.8362C134.216 11.6041 134.028 11.4159 133.795 11.4159C133.563 11.4159 133.375 11.6041 133.375 11.8362V13.1263C132.42 11.614 130.744 10.6022 128.829 10.5757Z" fill="white"/>
</g>
<circle cx="17.4639" cy="15.7007" r="5" fill="#FC521F"/>
<circle cx="36.3379" cy="15.7007" r="5" fill="#FFAE00"/>
<circle cx="54.2109" cy="15.7007" r="5" fill="#66BF3C"/>
<rect x="510" y="6" width="181" height="20" rx="4.40932" fill="white" fill-opacity="0.16"/>
<path d="M562.26 20.108C561.62 20.108 561.14 19.928 560.82 19.568C560.508 19.208 560.352 18.68 560.352 17.984V11.54H561.564V17.912C561.564 18.704 561.888 19.1 562.536 19.1C562.632 19.1 562.72 19.096 562.8 19.088C562.888 19.08 562.976 19.064 563.064 19.04L563.04 20.012C562.768 20.076 562.508 20.108 562.26 20.108ZM566.505 20.108C565.913 20.108 565.401 19.984 564.969 19.736C564.537 19.488 564.201 19.14 563.961 18.692C563.729 18.236 563.613 17.696 563.613 17.072C563.613 16.448 563.729 15.912 563.961 15.464C564.201 15.008 564.537 14.656 564.969 14.408C565.401 14.16 565.913 14.036 566.505 14.036C567.081 14.036 567.585 14.16 568.017 14.408C568.449 14.656 568.785 15.008 569.025 15.464C569.265 15.912 569.385 16.448 569.385 17.072C569.385 17.696 569.265 18.236 569.025 18.692C568.785 19.14 568.449 19.488 568.017 19.736C567.585 19.984 567.081 20.108 566.505 20.108ZM566.505 19.172C567.001 19.172 567.401 18.992 567.705 18.632C568.009 18.272 568.161 17.752 568.161 17.072C568.161 16.392 568.009 15.876 567.705 15.524C567.401 15.164 567.001 14.984 566.505 14.984C566.001 14.984 565.597 15.164 565.293 15.524C564.989 15.876 564.837 16.392 564.837 17.072C564.837 17.752 564.989 18.272 565.293 18.632C565.597 18.992 566.001 19.172 566.505 19.172ZM573.327 20.108C572.727 20.108 572.207 19.984 571.767 19.736C571.335 19.48 570.999 19.124 570.759 18.668C570.519 18.204 570.399 17.66 570.399 17.036C570.399 16.108 570.663 15.376 571.191 14.84C571.719 14.304 572.431 14.036 573.327 14.036C573.695 14.036 574.059 14.1 574.419 14.228C574.779 14.356 575.075 14.532 575.307 14.756L574.923 15.608C574.699 15.4 574.451 15.248 574.179 15.152C573.915 15.048 573.663 14.996 573.423 14.996C572.855 14.996 572.415 15.176 572.103 15.536C571.799 15.888 571.647 16.392 571.647 17.048C571.647 17.704 571.799 18.22 572.103 18.596C572.415 18.964 572.855 19.148 573.423 19.148C573.663 19.148 573.915 19.1 574.179 19.004C574.451 18.9 574.699 18.744 574.923 18.536L575.307 19.4C575.075 19.616 574.775 19.788 574.407 19.916C574.047 20.044 573.687 20.108 573.327 20.108ZM578.173 20.108C577.765 20.108 577.401 20.028 577.081 19.868C576.761 19.708 576.505 19.492 576.313 19.22C576.129 18.948 576.037 18.64 576.037 18.296C576.037 17.864 576.145 17.524 576.361 17.276C576.585 17.028 576.949 16.848 577.453 16.736C577.965 16.624 578.653 16.568 579.517 16.568H579.925V16.256C579.925 15.8 579.829 15.472 579.637 15.272C579.445 15.072 579.129 14.972 578.689 14.972C578.353 14.972 578.017 15.024 577.681 15.128C577.345 15.224 577.001 15.38 576.649 15.596L576.277 14.744C576.581 14.528 576.961 14.356 577.417 14.228C577.873 14.1 578.309 14.036 578.725 14.036C579.525 14.036 580.117 14.228 580.501 14.612C580.885 14.988 581.077 15.58 581.077 16.388V20H579.937V19.028C579.793 19.364 579.569 19.628 579.265 19.82C578.961 20.012 578.597 20.108 578.173 20.108ZM578.413 19.244C578.845 19.244 579.205 19.092 579.493 18.788C579.781 18.484 579.925 18.1 579.925 17.636V17.312H579.529C578.945 17.312 578.485 17.34 578.149 17.396C577.821 17.452 577.585 17.548 577.441 17.684C577.305 17.812 577.237 17.992 577.237 18.224C577.237 18.528 577.341 18.776 577.549 18.968C577.757 19.152 578.045 19.244 578.413 19.244ZM584.655 20.108C584.015 20.108 583.535 19.928 583.215 19.568C582.903 19.208 582.747 18.68 582.747 17.984V11.54H583.959V17.912C583.959 18.704 584.283 19.1 584.931 19.1C585.027 19.1 585.115 19.096 585.195 19.088C585.283 19.08 585.371 19.064 585.459 19.04L585.435 20.012C585.163 20.076 584.903 20.108 584.655 20.108ZM586.415 20V11.54H587.627V15.056C587.827 14.72 588.095 14.468 588.431 14.3C588.775 14.124 589.159 14.036 589.583 14.036C590.967 14.036 591.659 14.82 591.659 16.388V20H590.447V16.46C590.447 15.956 590.347 15.588 590.147 15.356C589.955 15.124 589.651 15.008 589.235 15.008C588.747 15.008 588.355 15.164 588.059 15.476C587.771 15.78 587.627 16.184 587.627 16.688V20H586.415ZM595.873 20.108C595.281 20.108 594.769 19.984 594.337 19.736C593.905 19.488 593.569 19.14 593.329 18.692C593.097 18.236 592.981 17.696 592.981 17.072C592.981 16.448 593.097 15.912 593.329 15.464C593.569 15.008 593.905 14.656 594.337 14.408C594.769 14.16 595.281 14.036 595.873 14.036C596.449 14.036 596.953 14.16 597.385 14.408C597.817 14.656 598.153 15.008 598.393 15.464C598.633 15.912 598.753 16.448 598.753 17.072C598.753 17.696 598.633 18.236 598.393 18.692C598.153 19.14 597.817 19.488 597.385 19.736C596.953 19.984 596.449 20.108 595.873 20.108ZM595.873 19.172C596.369 19.172 596.769 18.992 597.073 18.632C597.377 18.272 597.529 17.752 597.529 17.072C597.529 16.392 597.377 15.876 597.073 15.524C596.769 15.164 596.369 14.984 595.873 14.984C595.369 14.984 594.965 15.164 594.661 15.524C594.357 15.876 594.205 16.392 594.205 17.072C594.205 17.752 594.357 18.272 594.661 18.632C594.965 18.992 595.369 19.172 595.873 19.172ZM602.166 20.108C601.686 20.108 601.238 20.048 600.822 19.928C600.406 19.8 600.058 19.624 599.778 19.4L600.126 18.584C600.422 18.792 600.746 18.952 601.098 19.064C601.458 19.176 601.818 19.232 602.178 19.232C602.602 19.232 602.922 19.156 603.138 19.004C603.354 18.852 603.462 18.648 603.462 18.392C603.462 18.184 603.39 18.024 603.246 17.912C603.102 17.792 602.886 17.7 602.598 17.636L601.458 17.408C600.45 17.2 599.946 16.68 599.946 15.848C599.946 15.296 600.166 14.856 600.606 14.528C601.046 14.2 601.622 14.036 602.334 14.036C602.742 14.036 603.13 14.096 603.498 14.216C603.874 14.336 604.186 14.516 604.434 14.756L604.086 15.572C603.846 15.364 603.57 15.204 603.258 15.092C602.946 14.98 602.638 14.924 602.334 14.924C601.918 14.924 601.602 15.004 601.386 15.164C601.17 15.316 601.062 15.524 601.062 15.788C601.062 16.188 601.326 16.444 601.854 16.556L602.994 16.784C603.514 16.888 603.906 17.064 604.17 17.312C604.442 17.56 604.578 17.896 604.578 18.32C604.578 18.88 604.358 19.32 603.918 19.64C603.478 19.952 602.894 20.108 602.166 20.108ZM608.364 20.108C607.628 20.108 607.08 19.92 606.72 19.544C606.36 19.168 606.18 18.624 606.18 17.912V15.08H605.04V14.144H606.18V12.38H607.392V14.144H609.204V15.08H607.392V17.816C607.392 18.24 607.48 18.56 607.656 18.776C607.84 18.992 608.136 19.1 608.544 19.1C608.672 19.1 608.796 19.088 608.916 19.064C609.036 19.032 609.156 18.996 609.276 18.956L609.468 19.868C609.348 19.94 609.18 19.996 608.964 20.036C608.756 20.084 608.556 20.108 608.364 20.108ZM610.118 15.572V14.144H611.546V15.572H610.118ZM610.118 20V18.572H611.546V20H610.118ZM616.158 20.108C615.134 20.108 614.342 19.744 613.782 19.016C613.23 18.288 612.954 17.268 612.954 15.956C612.954 14.508 613.266 13.392 613.89 12.608C614.514 11.824 615.378 11.432 616.482 11.432C616.914 11.432 617.35 11.52 617.79 11.696C618.23 11.864 618.598 12.104 618.894 12.416L618.462 13.352C618.174 13.064 617.854 12.848 617.502 12.704C617.158 12.56 616.81 12.488 616.458 12.488C615.714 12.488 615.142 12.76 614.742 13.304C614.35 13.84 614.154 14.644 614.154 15.716V16.196C614.314 15.708 614.59 15.328 614.982 15.056C615.382 14.776 615.842 14.636 616.362 14.636C616.858 14.636 617.294 14.752 617.67 14.984C618.054 15.216 618.354 15.536 618.57 15.944C618.786 16.344 618.894 16.804 618.894 17.324C618.894 17.868 618.778 18.352 618.546 18.776C618.314 19.192 617.99 19.52 617.574 19.76C617.166 19.992 616.694 20.108 616.158 20.108ZM616.086 19.1C616.574 19.1 616.97 18.94 617.274 18.62C617.578 18.3 617.73 17.884 617.73 17.372C617.73 16.86 617.578 16.444 617.274 16.124C616.97 15.804 616.574 15.644 616.086 15.644C615.598 15.644 615.202 15.804 614.898 16.124C614.594 16.444 614.442 16.86 614.442 17.372C614.442 17.884 614.594 18.3 614.898 18.62C615.202 18.94 615.598 19.1 616.086 19.1ZM623.053 20.108C622.069 20.108 621.317 19.736 620.797 18.992C620.285 18.24 620.029 17.164 620.029 15.764C620.029 14.34 620.285 13.264 620.797 12.536C621.317 11.8 622.069 11.432 623.053 11.432C624.045 11.432 624.797 11.8 625.309 12.536C625.821 13.264 626.077 14.336 626.077 15.752C626.077 17.16 625.817 18.24 625.297 18.992C624.785 19.736 624.037 20.108 623.053 20.108ZM623.053 19.076C623.661 19.076 624.113 18.808 624.409 18.272C624.705 17.736 624.853 16.896 624.853 15.752C624.853 14.608 624.705 13.776 624.409 13.256C624.121 12.728 623.669 12.464 623.053 12.464C622.445 12.464 621.993 12.728 621.697 13.256C621.401 13.784 621.253 14.616 621.253 15.752C621.253 16.896 621.401 17.736 621.697 18.272C621.993 18.808 622.445 19.076 623.053 19.076ZM630.248 20.108C629.264 20.108 628.512 19.736 627.992 18.992C627.48 18.24 627.224 17.164 627.224 15.764C627.224 14.34 627.48 13.264 627.992 12.536C628.512 11.8 629.264 11.432 630.248 11.432C631.24 11.432 631.992 11.8 632.504 12.536C633.016 13.264 633.272 14.336 633.272 15.752C633.272 17.16 633.012 18.24 632.492 18.992C631.98 19.736 631.232 20.108 630.248 20.108ZM630.248 19.076C630.856 19.076 631.308 18.808 631.604 18.272C631.9 17.736 632.048 16.896 632.048 15.752C632.048 14.608 631.9 13.776 631.604 13.256C631.316 12.728 630.864 12.464 630.248 12.464C629.64 12.464 629.188 12.728 628.892 13.256C628.596 13.784 628.448 14.616 628.448 15.752C628.448 16.896 628.596 17.736 628.892 18.272C629.188 18.808 629.64 19.076 630.248 19.076ZM637.744 20.108C636.72 20.108 635.928 19.744 635.368 19.016C634.816 18.288 634.54 17.268 634.54 15.956C634.54 14.508 634.852 13.392 635.476 12.608C636.1 11.824 636.964 11.432 638.068 11.432C638.5 11.432 638.936 11.52 639.376 11.696C639.816 11.864 640.184 12.104 640.48 12.416L640.048 13.352C639.76 13.064 639.44 12.848 639.088 12.704C638.744 12.56 638.396 12.488 638.044 12.488C637.3 12.488 636.728 12.76 636.328 13.304C635.936 13.84 635.74 14.644 635.74 15.716V16.196C635.9 15.708 636.176 15.328 636.568 15.056C636.968 14.776 637.428 14.636 637.948 14.636C638.444 14.636 638.88 14.752 639.256 14.984C639.64 15.216 639.94 15.536 640.156 15.944C640.372 16.344 640.48 16.804 640.48 17.324C640.48 17.868 640.364 18.352 640.132 18.776C639.9 19.192 639.576 19.52 639.16 19.76C638.752 19.992 638.28 20.108 637.744 20.108ZM637.672 19.1C638.16 19.1 638.556 18.94 638.86 18.62C639.164 18.3 639.316 17.884 639.316 17.372C639.316 16.86 639.164 16.444 638.86 16.124C638.556 15.804 638.16 15.644 637.672 15.644C637.184 15.644 636.788 15.804 636.484 16.124C636.18 16.444 636.028 16.86 636.028 17.372C636.028 17.884 636.18 18.3 636.484 18.62C636.788 18.94 637.184 19.1 637.672 19.1Z" fill="white"/>
</g>
<defs>
<filter id="filter0_d_199_12714" x="247.791" y="30" width="955.209" height="806" filterUnits="userSpaceOnUse" color-interpolation-filters="sRGB">
<feFlood flood-opacity="0" result="BackgroundImageFix"/>
<feColorMatrix in="SourceAlpha" type="matrix" values="0 0 0 0 0 0 0 0 0 0 0 0 0 0 0 0 0 0 127 0" result="hardAlpha"/>
<feOffset dy="1"/>
<feGaussianBlur stdDeviation="1.5"/>
<feColorMatrix type="matrix" values="0 0 0 0 0 0 0 0 0 0 0 0 0 0 0 0 0 0 0.05 0"/>
<feBlend mode="normal" in2="BackgroundImageFix" result="effect1_dropShadow_199_12714"/>
<feBlend mode="normal" in="SourceGraphic" in2="effect1_dropShadow_199_12714" result="shape"/>
</filter>
<clipPath id="clip0_199_12714">
<rect width="1200" height="830" rx="8" fill="white"/>
</clipPath>
<clipPath id="clip1_199_12714">
<rect width="11.7693" height="11.7693" fill="white" transform="translate(79.3271 10.1548)"/>
</clipPath>
<clipPath id="clip2_199_12714">
<rect width="11.7693" height="11.7693" fill="white" transform="translate(101.097 10.1548)"/>
</clipPath>
<clipPath id="clip3_199_12714">
<rect width="11.7693" height="11.7693" fill="white" transform="translate(122.866 10.1548)"/>
</clipPath>
</defs>
</svg>
