<svg width="457" height="244" viewBox="0 0 457 244" fill="none" xmlns="http://www.w3.org/2000/svg">
<g filter="url(#filter0_dd_5661_83874)">
<path d="M9.86588 12.4176C9.86588 9.35147 12.3515 6.86584 15.4177 6.86584H441.582C444.648 6.86584 447.134 9.35147 447.134 12.4176V225.576C447.134 228.643 444.648 231.128 441.582 231.128H15.4177C12.3515 231.128 9.86588 228.643 9.86588 225.576V12.4176Z" fill="white"/>
<path d="M15.4177 6.43291C12.1124 6.43291 9.43294 9.11236 9.43294 12.4176V225.576C9.43294 228.882 12.1124 231.561 15.4177 231.561H441.582C444.888 231.561 447.567 228.882 447.567 225.576V12.4176C447.567 9.11237 444.888 6.43291 441.582 6.43291H15.4177Z" stroke="black" stroke-opacity="0.1" stroke-width="0.865878"/>
</g>
<text fill="#333333" xml:space="preserve" style="white-space: pre" Last hourfont-family="'Nunito Sans', 'Helvetica Neue', Helvetica, Arial, sans-serif" font-size="13" font-weight="bold" letter-spacing="0em"><tspan x="27.1834" y="27.5939">Usage frequency</tspan></text>
<rect width="437.268" height="155.858" transform="translate(9.86588 42.3668)" fill="url(#paint0_linear_5661_83874)"/>
<rect x="155.333" y="42.3668" width="0.865878" height="155.858" fill="black" fill-opacity="0.1"/>
<rect x="300.801" y="42.3668" width="0.865878" height="155.858" fill="black" fill-opacity="0.1"/>
<rect x="46.2328" y="42.3668" width="0.865878" height="155.858" fill="black" fill-opacity="0.1"/>
<rect x="191.7" y="42.3668" width="0.865878" height="155.858" fill="black" fill-opacity="0.1"/>
<rect x="337.168" y="42.3668" width="0.865878" height="155.858" fill="black" fill-opacity="0.1"/>
<rect x="82.5996" y="42.3668" width="0.865878" height="155.858" fill="black" fill-opacity="0.1"/>
<rect x="228.067" y="42.3668" width="0.865878" height="155.858" fill="black" fill-opacity="0.1"/>
<rect x="373.535" y="42.3668" width="0.865878" height="155.858" fill="black" fill-opacity="0.1"/>
<rect x="118.966" y="42.3668" width="0.865878" height="155.858" fill="black" fill-opacity="0.1"/>
<rect x="264.434" y="42.3668" width="0.865878" height="155.858" fill="black" fill-opacity="0.1"/>
<rect x="409.901" y="42.3668" width="0.865878" height="155.858" fill="black" fill-opacity="0.1"/>
<rect x="28.0493" y="42.3668" width="0.865878" height="155.858" fill="black" fill-opacity="0.1"/>
<rect x="173.517" y="42.3668" width="0.865878" height="155.858" fill="black" fill-opacity="0.1"/>
<rect x="318.984" y="42.3668" width="0.865878" height="155.858" fill="black" fill-opacity="0.1"/>
<rect x="64.4162" y="42.3668" width="0.865878" height="155.858" fill="black" fill-opacity="0.1"/>
<rect x="209.884" y="42.3668" width="0.865878" height="155.858" fill="black" fill-opacity="0.1"/>
<rect x="355.351" y="42.3668" width="0.865878" height="155.858" fill="black" fill-opacity="0.1"/>
<rect x="100.783" y="42.3668" width="0.865878" height="155.858" fill="black" fill-opacity="0.1"/>
<rect x="246.251" y="42.3668" width="0.865878" height="155.858" fill="black" fill-opacity="0.1"/>
<rect x="391.718" y="42.3668" width="0.865878" height="155.858" fill="black" fill-opacity="0.1"/>
<rect x="137.15" y="42.3668" width="0.865878" height="155.858" fill="black" fill-opacity="0.1"/>
<rect x="282.617" y="42.3668" width="0.865878" height="155.858" fill="black" fill-opacity="0.1"/>
<rect x="428.085" y="42.3668" width="0.865878" height="155.858" fill="black" fill-opacity="0.1"/>
<circle cx="28.5716" cy="171.523" r="2.6955" fill="#CBDFDC"/>
<circle cx="246.233" cy="152.654" r="2.6955" fill="#CBDFDC"/>
<circle cx="192.322" cy="133.785" r="2.6955" fill="#CBDFDC"/>
<circle cx="155.259" cy="114.917" r="2.6955" fill="#CBDFDC"/>
<circle cx="192.322" cy="77.1794" r="2.6955" fill="#CBDFDC"/>
<circle cx="83.1557" cy="77.1794" r="2.6955" fill="#CBDFDC"/>
<circle cx="210.518" cy="58.3118" r="2.6955" fill="#CBDFDC"/>
<circle cx="46.7661" cy="171.523" r="2.6955" fill="#CBDFDC"/>
<circle cx="264.427" cy="152.654" r="2.6955" fill="#CBDFDC"/>
<circle cx="337.206" cy="152.654" r="2.6955" fill="#CBDFDC"/>
<circle cx="210.518" cy="133.785" r="2.6955" fill="#CBDFDC"/>
<circle cx="337.206" cy="114.917" r="2.6955" fill="#CBDFDC"/>
<circle cx="356.075" cy="96.0477" r="2.6955" fill="#CBDFDC"/>
<circle cx="374.27" cy="77.1794" r="2.6955" fill="#CBDFDC"/>
<circle cx="392.464" cy="58.3118" r="2.6955" fill="#CBDFDC"/>
<circle cx="173.455" cy="114.917" r="2.6955" fill="#CBDFDC"/>
<circle cx="210.518" cy="77.1794" r="2.6955" fill="#CBDFDC"/>
<circle cx="228.04" cy="58.3118" r="2.6955" fill="#CBDFDC"/>
<circle cx="173.455" cy="96.0477" r="2.6955" fill="#CBDFDC"/>
<circle cx="46.7659" cy="114.917" r="2.6955" fill="#CBDFDC"/>
<circle cx="64.9613" cy="96.0477" r="2.6955" fill="#CBDFDC"/>
<circle cx="65.6353" cy="171.523" r="2.6955" fill="#CBDFDC"/>
<circle cx="283.296" cy="152.654" r="2.6955" fill="#37D5D3"/>
<circle cx="283.296" cy="171.523" r="2.6955" fill="#37D5D3"/>
<circle cx="356.074" cy="152.654" r="2.6955" fill="#CBDFDC"/>
<circle cx="228.04" cy="133.785" r="2.6955" fill="#CBDFDC"/>
<circle cx="356.074" cy="114.917" r="2.6955" fill="#CBDFDC"/>
<circle cx="374.27" cy="96.0477" r="2.6955" fill="#CBDFDC"/>
<circle cx="392.464" cy="77.1794" r="2.6955" fill="#CBDFDC"/>
<circle cx="410.659" cy="58.3118" r="2.6955" fill="#CBDFDC"/>
<circle cx="192.322" cy="114.917" r="2.6955" fill="#CBDFDC"/>
<circle cx="228.04" cy="77.1794" r="2.6955" fill="#CBDFDC"/>
<circle cx="246.233" cy="58.3118" r="2.6955" fill="#CBDFDC"/>
<circle cx="192.322" cy="96.0477" r="2.6955" fill="#CBDFDC"/>
<circle cx="319.686" cy="171.523" r="2.6955" fill="#CBDFDC"/>
<circle cx="337.206" cy="171.523" r="2.6955" fill="#CBDFDC"/>
<circle cx="428.853" cy="171.523" r="2.6955" fill="#CBDFDC"/>
<circle cx="374.27" cy="171.523" r="4.71712" fill="#CBDFDC"/>
<circle cx="337.206" cy="133.785" r="4.71712" fill="#CBDFDC"/>
<circle cx="319.686" cy="114.917" r="4.04325" fill="#CBDFDC"/>
<circle cx="319.686" cy="96.0484" r="4.04325" fill="#CBDFDC"/>
<circle cx="356.075" cy="58.3117" r="4.04325" fill="#CBDFDC"/>
<circle cx="337.206" cy="96.0484" r="4.04325" fill="#CBDFDC"/>
<circle cx="337.206" cy="77.18" r="4.04325" fill="#CBDFDC"/>
<circle cx="356.075" cy="77.1801" r="4.04325" fill="#CBDFDC"/>
<circle cx="374.269" cy="58.3117" r="4.04325" fill="#CBDFDC"/>
<circle cx="319.686" cy="133.785" r="4.71712" fill="#CBDFDC"/>
<circle cx="301.49" cy="133.785" r="4.71712" fill="#37D5D3"/>
<circle cx="301.491" cy="171.522" r="3.36937" fill="#37D5D3"/>
<circle cx="283.296" cy="133.785" r="7.41262" fill="#37D5D3"/>
<circle cx="264.428" cy="133.785" r="6.73874" fill="#CBDFDC"/>
<circle cx="246.233" cy="114.917" r="6.73874" fill="#CBDFDC"/>
<circle cx="264.428" cy="96.0488" r="6.73874" fill="#CBDFDC"/>
<circle cx="283.296" cy="96.0482" r="7.41262" fill="#37D5D3"/>
<circle cx="319.685" cy="58.3115" r="6.73874" fill="#CBDFDC"/>
<circle cx="264.427" cy="114.917" r="6.73874" fill="#CBDFDC"/>
<circle cx="246.233" cy="133.785" r="5.39099" fill="#CBDFDC"/>
<circle cx="228.039" cy="114.917" r="6.06487" fill="#CBDFDC"/>
<circle cx="301.491" cy="152.653" r="6.06487" fill="#37D5D3"/>
<circle cx="246.233" cy="96.0483" r="6.06487" fill="#CBDFDC"/>
<circle cx="283.298" cy="58.3116" r="6.06487" fill="#37D5D3"/>
<circle cx="264.428" cy="77.1797" r="6.06487" fill="#CBDFDC"/>
<circle cx="283.296" cy="77.1799" r="6.73874" fill="#37D5D3"/>
<circle cx="301.491" cy="77.1799" r="6.73874" fill="#37D5D3"/>
<circle cx="264.428" cy="58.3108" r="5.39099" fill="#CBDFDC"/>
<circle cx="246.233" cy="77.1808" r="5.39099" fill="#CBDFDC"/>
<circle cx="210.518" cy="114.917" r="5.39099" fill="#CBDFDC"/>
<circle cx="228.038" cy="96.0485" r="5.39099" fill="#CBDFDC"/>
<circle cx="283.296" cy="114.917" r="5.39099" fill="#37D5D3"/>
<circle cx="301.491" cy="114.917" r="5.39099" fill="#37D5D3"/>
<circle cx="301.49" cy="96.0484" r="4.71712" fill="#37D5D3"/>
<circle cx="301.49" cy="58.3108" r="5.39099" fill="#37D5D3"/>
<circle cx="337.206" cy="58.3116" r="4.71712" fill="#CBDFDC"/>
<circle cx="319.686" cy="77.18" r="4.71712" fill="#CBDFDC"/>
<circle cx="356.075" cy="133.785" r="4.04325" fill="#CBDFDC"/>
<circle cx="392.464" cy="171.523" r="4.04325" fill="#CBDFDC"/>
<circle cx="410.658" cy="171.523" r="4.04325" fill="#CBDFDC"/>
<rect x="273.093" y="42.3668" width="0.865878" height="157.59" fill="#FF4400" fill-opacity="0.7"/>
<rect x="309.46" y="42.3668" width="0.865878" height="157.59" fill="#FF4400" fill-opacity="0.7"/>
<rect x="9.86591" y="198.225" width="437.268" height="1.73176" fill="black" fill-opacity="0.1"/>
<rect x="9.86591" y="41.501" width="437.268" height="0.865878" fill="black" fill-opacity="0.1"/>
<text fill="#999999" xml:space="preserve" style="white-space: pre" font-family="IBM Plex Sans" font-size="8.65878" letter-spacing="0em"><tspan x="22.854" y="217.924">0:00</tspan></text>
<text fill="#999999" xml:space="preserve" style="white-space: pre" font-family="IBM Plex Sans" font-size="8.65878" letter-spacing="0em"><tspan x="98.1855" y="217.924">4:00</tspan></text>
<text fill="#999999" xml:space="preserve" style="white-space: pre" font-family="IBM Plex Sans" font-size="8.65878" letter-spacing="0em"><tspan x="173.517" y="217.924">8:00</tspan></text>
<text fill="#999999" xml:space="preserve" style="white-space: pre" font-family="IBM Plex Sans" font-size="8.65878" letter-spacing="0em"><tspan x="248.848" y="217.924">12:00</tspan></text>
<text fill="#999999" xml:space="preserve" style="white-space: pre" font-family="IBM Plex Sans" font-size="8.65878" letter-spacing="0em"><tspan x="329.375" y="217.924">16:00</tspan></text>
<text fill="#999999" xml:space="preserve" style="white-space: pre" font-family="IBM Plex Sans" font-size="8.65878" letter-spacing="0em"><tspan x="409.901" y="217.924">20:00</tspan></text>
<g filter="url(#filter1_d_5661_83874)">
<circle cx="273.093" cy="199.957" r="6.92702" fill="white"/>
<circle cx="273.093" cy="199.957" r="6.92702" stroke="black" stroke-opacity="0.1" stroke-width="0.865878"/>
</g>
<rect x="271.361" y="196.493" width="0.865878" height="6.92702" rx="0.432939" fill="#CCCCCC"/>
<rect x="273.959" y="196.493" width="0.865878" height="6.92702" rx="0.432939" fill="#CCCCCC"/>
<g filter="url(#filter2_d_5661_83874)">
<circle cx="310.325" cy="199.957" r="6.92702" fill="white"/>
<circle cx="310.325" cy="199.957" r="6.92702" stroke="black" stroke-opacity="0.1" stroke-width="0.865878"/>
</g>
<rect x="308.594" y="196.493" width="0.865878" height="6.92702" rx="0.432939" fill="#CCCCCC"/>
<rect x="311.191" y="196.493" width="0.865878" height="6.92702" rx="0.432939" fill="#CCCCCC"/>
<rect x="357.083" y="15.5247" width="77.5128" height="18.1953" rx="2.59763" fill="black" fill-opacity="0.05"/>
<g clip-path="url(#clip0_5661_83874)">
<path d="M366.608 21.5298C366.778 21.5298 366.917 21.6683 366.917 21.8391V24.313L368.463 24.313C368.634 24.313 368.772 24.4514 368.772 24.6222C368.772 24.793 368.634 24.9315 368.463 24.9315L366.608 24.9315C366.437 24.9315 366.298 24.793 366.298 24.6222V21.8391C366.298 21.6683 366.437 21.5298 366.608 21.5298Z" fill="#666666"/>
<path fill-rule="evenodd" clip-rule="evenodd" d="M366.608 28.9516C368.999 28.9516 370.937 27.0133 370.937 24.6222C370.937 22.2312 368.999 20.2928 366.608 20.2928C364.216 20.2928 362.278 22.2312 362.278 24.6222C362.278 27.0133 364.216 28.9516 366.608 28.9516ZM366.608 28.3331C368.657 28.3331 370.318 26.6717 370.318 24.6222C370.318 22.5728 368.657 20.9113 366.608 20.9113C364.558 20.9113 362.897 22.5728 362.897 24.6222C362.897 26.6717 364.558 28.3331 366.608 28.3331Z" fill="#666666"/>
</g>
<text fill="#666666" xml:space="preserve" style="white-space: pre" Last hourfont-family="'Nunito Sans', 'Helvetica Neue', Helvetica, Arial, sans-serif" font-size="8.65878" letter-spacing="0em"><tspan x="374.757" y="27.0322">13:30 &#x2013; 14:30</tspan></text>
<defs>
<filter id="filter0_dd_5661_83874" x="0.672294" y="0.448196" width="455.655" height="242.649" filterUnits="userSpaceOnUse" color-interpolation-filters="sRGB">
<feFlood flood-opacity="0" result="BackgroundImageFix"/>
<feColorMatrix in="SourceAlpha" type="matrix" values="0 0 0 0 0 0 0 0 0 0 0 0 0 0 0 0 0 0 127 0" result="hardAlpha"/>
<feOffset dy="2.7759"/>
<feGaussianBlur stdDeviation="4.16385"/>
<feColorMatrix type="matrix" values="0 0 0 0 0 0 0 0 0 0 0 0 0 0 0 0 0 0 0.1 0"/>
<feBlend mode="normal" in2="BackgroundImageFix" result="effect1_dropShadow_5661_83874"/>
<feColorMatrix in="SourceAlpha" type="matrix" values="0 0 0 0 0 0 0 0 0 0 0 0 0 0 0 0 0 0 127 0" result="hardAlpha"/>
<feOffset dy="0.55518"/>
<feGaussianBlur stdDeviation="0.832771"/>
<feColorMatrix type="matrix" values="0 0 0 0 0 0 0 0 0 0 0 0 0 0 0 0 0 0 0.05 0"/>
<feBlend mode="normal" in2="effect1_dropShadow_5661_83874" result="effect2_dropShadow_5661_83874"/>
<feBlend mode="normal" in="SourceGraphic" in2="effect2_dropShadow_5661_83874" result="shape"/>
</filter>
<filter id="filter1_d_5661_83874" x="263.135" y="190.865" width="19.9152" height="19.9152" filterUnits="userSpaceOnUse" color-interpolation-filters="sRGB">
<feFlood flood-opacity="0" result="BackgroundImageFix"/>
<feColorMatrix in="SourceAlpha" type="matrix" values="0 0 0 0 0 0 0 0 0 0 0 0 0 0 0 0 0 0 127 0" result="hardAlpha"/>
<feOffset dy="0.865878"/>
<feGaussianBlur stdDeviation="1.29882"/>
<feColorMatrix type="matrix" values="0 0 0 0 0 0 0 0 0 0 0 0 0 0 0 0 0 0 0.1 0"/>
<feBlend mode="normal" in2="BackgroundImageFix" result="effect1_dropShadow_5661_83874"/>
<feBlend mode="normal" in="SourceGraphic" in2="effect1_dropShadow_5661_83874" result="shape"/>
</filter>
<filter id="filter2_d_5661_83874" x="300.368" y="190.865" width="19.9152" height="19.9152" filterUnits="userSpaceOnUse" color-interpolation-filters="sRGB">
<feFlood flood-opacity="0" result="BackgroundImageFix"/>
<feColorMatrix in="SourceAlpha" type="matrix" values="0 0 0 0 0 0 0 0 0 0 0 0 0 0 0 0 0 0 127 0" result="hardAlpha"/>
<feOffset dy="0.865878"/>
<feGaussianBlur stdDeviation="1.29882"/>
<feColorMatrix type="matrix" values="0 0 0 0 0 0 0 0 0 0 0 0 0 0 0 0 0 0 0.1 0"/>
<feBlend mode="normal" in2="BackgroundImageFix" result="effect1_dropShadow_5661_83874"/>
<feBlend mode="normal" in="SourceGraphic" in2="effect1_dropShadow_5661_83874" result="shape"/>
</filter>
<linearGradient id="paint0_linear_5661_83874" x1="218.634" y1="0" x2="218.634" y2="155.858" gradientUnits="userSpaceOnUse">
<stop stop-color="#E7FBFB"/>
<stop offset="1" stop-color="#F4F8FA"/>
</linearGradient>
<clipPath id="clip0_5661_83874">
<rect width="8.65878" height="8.65878" fill="white" transform="translate(362.278 20.2928)"/>
</clipPath>
</defs>
</svg>
