<svg xmlns="http://www.w3.org/2000/svg" width="457" height="244" fill="none" viewBox="0 0 457 244"><g filter="url(#filter0_dd_5661_84008)"><path fill="#fff" d="M9.86588 12.4176C9.86588 9.35147 12.3515 6.86584 15.4177 6.86584H441.582C444.648 6.86584 447.134 9.35147 447.134 12.4176V225.576C447.134 228.643 444.648 231.128 441.582 231.128H15.4177C12.3515 231.128 9.86588 228.643 9.86588 225.576V12.4176Z"/><path stroke="#000" stroke-opacity=".1" stroke-width=".866" d="M15.4177 6.43291C12.1124 6.43291 9.43294 9.11236 9.43294 12.4176V225.576C9.43294 228.882 12.1124 231.561 15.4177 231.561H441.582C444.888 231.561 447.567 228.882 447.567 225.576V12.4176C447.567 9.11237 444.888 6.43291 441.582 6.43291H15.4177Z"/></g><text fill="#333" font-family="'Nunito Sans', 'Helvetica Neue', Helvetica, Arial, sans-serif" font-size="13" font-weight="bold" letter-spacing="0em" xml:space="preserve" style="white-space:pre"><tspan x="27.183" y="27.594">Usage frequency</tspan></text><rect width="437.268" height="155.858" fill="url(#paint0_linear_5661_84008)" transform="translate(9.86588 42.3668)"/><rect width=".866" height="155.858" x="155.333" y="42.367" fill="#000" fill-opacity=".1"/><rect width=".866" height="155.858" x="300.801" y="42.367" fill="#000" fill-opacity=".1"/><rect width=".866" height="155.858" x="46.233" y="42.367" fill="#000" fill-opacity=".1"/><rect width=".866" height="155.858" x="191.7" y="42.367" fill="#000" fill-opacity=".1"/><rect width=".866" height="155.858" x="337.168" y="42.367" fill="#000" fill-opacity=".1"/><rect width=".866" height="155.858" x="82.6" y="42.367" fill="#000" fill-opacity=".1"/><rect width=".866" height="155.858" x="228.067" y="42.367" fill="#000" fill-opacity=".1"/><rect width=".866" height="155.858" x="373.535" y="42.367" fill="#000" fill-opacity=".1"/><rect width=".866" height="155.858" x="118.966" y="42.367" fill="#000" fill-opacity=".1"/><rect width=".866" height="155.858" x="264.434" y="42.367" fill="#000" fill-opacity=".1"/><rect width=".866" height="155.858" x="409.901" y="42.367" fill="#000" fill-opacity=".1"/><rect width=".866" height="155.858" x="28.049" y="42.367" fill="#000" fill-opacity=".1"/><rect width=".866" height="155.858" x="173.517" y="42.367" fill="#000" fill-opacity=".1"/><rect width=".866" height="155.858" x="318.984" y="42.367" fill="#000" fill-opacity=".1"/><rect width=".866" height="155.858" x="64.416" y="42.367" fill="#000" fill-opacity=".1"/><rect width=".866" height="155.858" x="209.884" y="42.367" fill="#000" fill-opacity=".1"/><rect width=".866" height="155.858" x="355.351" y="42.367" fill="#000" fill-opacity=".1"/><rect width=".866" height="155.858" x="100.783" y="42.367" fill="#000" fill-opacity=".1"/><rect width=".866" height="155.858" x="246.25" y="42.367" fill="#000" fill-opacity=".1"/><rect width=".866" height="155.858" x="391.718" y="42.367" fill="#000" fill-opacity=".1"/><rect width=".866" height="155.858" x="137.15" y="42.367" fill="#000" fill-opacity=".1"/><rect width=".866" height="155.858" x="282.617" y="42.367" fill="#000" fill-opacity=".1"/><rect width=".866" height="155.858" x="428.085" y="42.367" fill="#000" fill-opacity=".1"/><circle cx="28.572" cy="171.523" r="2.696" fill="#CBDFDD"/><circle cx="246.233" cy="152.654" r="2.696" fill="#CBDFDD"/><circle cx="192.322" cy="133.785" r="2.696" fill="#CBDFDD"/><circle cx="155.259" cy="114.917" r="2.696" fill="#CBDFDD"/><circle cx="192.322" cy="77.179" r="2.696" fill="#CBDFDD"/><circle cx="83.156" cy="77.179" r="2.696" fill="#CBDFDD"/><circle cx="210.518" cy="58.312" r="2.696" fill="#CBDFDD"/><circle cx="46.766" cy="171.523" r="2.696" fill="#CBDFDD"/><circle cx="264.427" cy="152.654" r="2.696" fill="#CBDFDD"/><circle cx="337.206" cy="152.654" r="2.696" fill="#CBDFDD"/><circle cx="210.518" cy="133.785" r="2.696" fill="#CBDFDD"/><circle cx="337.206" cy="114.917" r="2.696" fill="#CBDFDD"/><circle cx="356.075" cy="96.048" r="2.696" fill="#CBDFDD"/><circle cx="374.27" cy="77.179" r="2.696" fill="#CBDFDD"/><circle cx="392.464" cy="58.312" r="2.696" fill="#CBDFDD"/><circle cx="173.455" cy="114.917" r="2.696" fill="#CBDFDD"/><circle cx="210.518" cy="77.179" r="2.696" fill="#CBDFDD"/><circle cx="228.04" cy="58.312" r="2.696" fill="#CBDFDD"/><circle cx="173.455" cy="96.048" r="2.696" fill="#CBDFDD"/><circle cx="46.766" cy="114.917" r="2.696" fill="#CBDFDD"/><circle cx="64.961" cy="96.048" r="2.696" fill="#CBDFDD"/><circle cx="65.635" cy="171.523" r="2.696" fill="#CBDFDD"/><circle cx="283.296" cy="152.654" r="2.696" fill="#CBDFDD"/><circle cx="283.296" cy="171.523" r="2.696" fill="#CBDFDD"/><circle cx="356.074" cy="152.654" r="2.696" fill="#CBDFDD"/><circle cx="228.04" cy="133.785" r="2.696" fill="#CBDFDD"/><circle cx="356.074" cy="114.917" r="2.696" fill="#CBDFDD"/><circle cx="374.27" cy="96.048" r="2.696" fill="#CBDFDD"/><circle cx="392.464" cy="77.179" r="2.696" fill="#CBDFDD"/><circle cx="410.659" cy="58.312" r="2.696" fill="#CBDFDD"/><circle cx="192.322" cy="114.917" r="2.696" fill="#CBDFDD"/><circle cx="228.04" cy="77.179" r="2.696" fill="#CBDFDD"/><circle cx="246.233" cy="58.312" r="2.696" fill="#CBDFDD"/><circle cx="192.322" cy="96.048" r="2.696" fill="#CBDFDD"/><circle cx="319.686" cy="171.523" r="2.696" fill="#CBDFDD"/><circle cx="337.206" cy="171.523" r="2.696" fill="#CBDFDD"/><circle cx="428.853" cy="171.523" r="2.696" fill="#CBDFDD"/><circle cx="374.27" cy="171.523" r="4.717" fill="#CBDFDD"/><circle cx="337.206" cy="133.785" r="4.717" fill="#CBDFDD"/><circle cx="319.686" cy="114.917" r="4.043" fill="#CBDFDD"/><circle cx="319.686" cy="96.048" r="4.043" fill="#CBDFDD"/><circle cx="356.075" cy="58.312" r="4.043" fill="#CBDFDD"/><circle cx="337.206" cy="96.048" r="4.043" fill="#CBDFDD"/><circle cx="337.206" cy="77.18" r="4.043" fill="#CBDFDD"/><circle cx="356.075" cy="77.18" r="4.043" fill="#CBDFDD"/><circle cx="374.269" cy="58.312" r="4.043" fill="#CBDFDD"/><circle cx="319.686" cy="133.785" r="4.717" fill="#CBDFDD"/><circle cx="301.49" cy="133.785" r="4.717" fill="#CBDFDD"/><circle cx="301.491" cy="171.522" r="3.369" fill="#CBDFDD"/><circle cx="283.296" cy="133.785" r="7.413" fill="#CBDFDD"/><circle cx="264.428" cy="133.785" r="6.739" fill="#CBDFDD"/><circle cx="246.233" cy="114.917" r="6.739" fill="#CBDFDD"/><circle cx="264.428" cy="96.049" r="6.739" fill="#CBDFDD"/><circle cx="283.296" cy="96.048" r="7.413" fill="#CBDFDD"/><circle cx="319.685" cy="58.312" r="6.739" fill="#CBDFDD"/><circle cx="264.427" cy="114.917" r="6.739" fill="#CBDFDD"/><circle cx="246.233" cy="133.785" r="5.391" fill="#CBDFDD"/><circle cx="228.039" cy="114.917" r="6.065" fill="#CBDFDD"/><circle cx="301.491" cy="152.653" r="6.065" fill="#CBDFDD"/><circle cx="246.233" cy="96.048" r="6.065" fill="#CBDFDD"/><circle cx="283.298" cy="58.312" r="6.065" fill="#CBDFDD"/><circle cx="264.428" cy="77.18" r="6.065" fill="#CBDFDD"/><circle cx="283.296" cy="77.18" r="6.739" fill="#CBDFDD"/><circle cx="301.491" cy="77.18" r="6.739" fill="#CBDFDD"/><circle cx="264.428" cy="58.311" r="5.391" fill="#CBDFDD"/><circle cx="246.233" cy="77.181" r="5.391" fill="#CBDFDD"/><circle cx="210.518" cy="114.917" r="5.391" fill="#CBDFDD"/><circle cx="228.038" cy="96.049" r="5.391" fill="#CBDFDD"/><circle cx="283.296" cy="114.917" r="5.391" fill="#CBDFDD"/><circle cx="301.491" cy="114.917" r="5.391" fill="#CBDFDD"/><circle cx="301.49" cy="96.048" r="4.717" fill="#CBDFDD"/><circle cx="301.49" cy="58.311" r="5.391" fill="#CBDFDD"/><circle cx="337.206" cy="58.312" r="4.717" fill="#CBDFDD"/><circle cx="319.686" cy="77.18" r="4.717" fill="#CBDFDD"/><circle cx="356.075" cy="133.785" r="4.043" fill="#CBDFDD"/><circle cx="392.464" cy="171.523" r="4.043" fill="#CBDFDD"/><circle cx="410.658" cy="171.523" r="4.043" fill="#CBDFDD"/><rect width="437.268" height="1.732" x="9.866" y="198.225" fill="#000" fill-opacity=".1"/><rect width="437.268" height=".866" x="9.866" y="41.501" fill="#000" fill-opacity=".1"/><text fill="#999" font-family="'SFMono-Regular', Consolas, 'Liberation Mono', Menlo, Courier, monospace" font-size="8.659" letter-spacing="0em" xml:space="preserve" style="white-space:pre"><tspan x="22.854" y="217.924">0:00</tspan></text><text fill="#999" font-family="'SFMono-Regular', Consolas, 'Liberation Mono', Menlo, Courier, monospace" font-size="8.659" letter-spacing="0em" xml:space="preserve" style="white-space:pre"><tspan x="98.185" y="217.924">4:00</tspan></text><text fill="#999" font-family="'SFMono-Regular', Consolas, 'Liberation Mono', Menlo, Courier, monospace" font-size="8.659" letter-spacing="0em" xml:space="preserve" style="white-space:pre"><tspan x="173.517" y="217.924">8:00</tspan></text><text fill="#999" font-family="'SFMono-Regular', Consolas, 'Liberation Mono', Menlo, Courier, monospace" font-size="8.659" letter-spacing="0em" xml:space="preserve" style="white-space:pre"><tspan x="248.848" y="217.924">12:00</tspan></text><text fill="#999" font-family="'SFMono-Regular', Consolas, 'Liberation Mono', Menlo, Courier, monospace" font-size="8.659" letter-spacing="0em" xml:space="preserve" style="white-space:pre"><tspan x="329.375" y="217.924">16:00</tspan></text><text fill="#999" font-family="'SFMono-Regular', Consolas, 'Liberation Mono', Menlo, Courier, monospace" font-size="8.659" letter-spacing="0em" xml:space="preserve" style="white-space:pre"><tspan x="409.901" y="217.924">20:00</tspan></text><rect width="88.513" height="18.195" x="344.961" y="15.525" fill="#000" fill-opacity=".05" rx="2.598"/><g clip-path="url(#clip0_5661_84008)"><path fill="#666" d="M354.485 21.5298C354.656 21.5298 354.794 21.6683 354.794 21.8391V24.313L356.341 24.313C356.511 24.313 356.65 24.4514 356.65 24.6222C356.65 24.793 356.511 24.9315 356.341 24.9315L354.485 24.9315C354.314 24.9315 354.176 24.793 354.176 24.6222V21.8391C354.176 21.6683 354.314 21.5298 354.485 21.5298Z"/><path fill="#666" fill-rule="evenodd" d="M354.485 28.9516C356.876 28.9516 358.815 27.0133 358.815 24.6222C358.815 22.2312 356.876 20.2928 354.485 20.2928C352.094 20.2928 350.156 22.2312 350.156 24.6222C350.156 27.0133 352.094 28.9516 354.485 28.9516ZM354.485 28.3331C356.535 28.3331 358.196 26.6717 358.196 24.6222C358.196 22.5728 356.535 20.9113 354.485 20.9113C352.436 20.9113 350.774 22.5728 350.774 24.6222C350.774 26.6717 352.436 28.3331 354.485 28.3331Z" clip-rule="evenodd"/></g><text fill="#666" font-family="'Nunito Sans', 'Helvetica Neue', Helvetica, Arial, sans-serif" font-size="8.659" letter-spacing="0em" xml:space="preserve" style="white-space:pre"><tspan x="362.732" y="27.032">Select timeframe</tspan></text><defs><filter id="filter0_dd_5661_84008" width="455.655" height="242.649" x=".672" y=".448" color-interpolation-filters="sRGB" filterUnits="userSpaceOnUse"><feFlood flood-opacity="0" result="BackgroundImageFix"/><feColorMatrix in="SourceAlpha" result="hardAlpha" type="matrix" values="0 0 0 0 0 0 0 0 0 0 0 0 0 0 0 0 0 0 127 0"/><feOffset dy="2.776"/><feGaussianBlur stdDeviation="4.164"/><feColorMatrix type="matrix" values="0 0 0 0 0 0 0 0 0 0 0 0 0 0 0 0 0 0 0.1 0"/><feBlend in2="BackgroundImageFix" mode="normal" result="effect1_dropShadow_5661_84008"/><feColorMatrix in="SourceAlpha" result="hardAlpha" type="matrix" values="0 0 0 0 0 0 0 0 0 0 0 0 0 0 0 0 0 0 127 0"/><feOffset dy=".555"/><feGaussianBlur stdDeviation=".833"/><feColorMatrix type="matrix" values="0 0 0 0 0 0 0 0 0 0 0 0 0 0 0 0 0 0 0.05 0"/><feBlend in2="effect1_dropShadow_5661_84008" mode="normal" result="effect2_dropShadow_5661_84008"/><feBlend in="SourceGraphic" in2="effect2_dropShadow_5661_84008" mode="normal" result="shape"/></filter><linearGradient id="paint0_linear_5661_84008" x1="218.634" x2="218.634" y1="0" y2="155.858" gradientUnits="userSpaceOnUse"><stop stop-color="#E7FBFB"/><stop offset="1" stop-color="#F4F8FA"/></linearGradient><clipPath id="clip0_5661_84008"><rect width="8.659" height="8.659" fill="#fff" transform="translate(350.156 20.2928)"/></clipPath></defs></svg>