<svg xmlns="http://www.w3.org/2000/svg" width="457" height="244" fill="none" viewBox="0 0 457 244"><g filter="url(#filter0_dd_5779_89173)"><path fill="#fff" d="M9.86588 12.4177C9.86588 9.3515 12.3515 6.86588 15.4177 6.86588H441.582C444.648 6.86588 447.134 9.3515 447.134 12.4177V225.576C447.134 228.643 444.648 231.128 441.582 231.128H15.4177C12.3515 231.128 9.86588 228.643 9.86588 225.576V12.4177Z"/><path stroke="#000" stroke-opacity=".1" stroke-width=".866" d="M441.582 6.43294H15.4177C12.1124 6.43294 9.43294 9.11239 9.43294 12.4177V225.576C9.43294 228.882 12.1124 231.561 15.4177 231.561H441.582C444.888 231.561 447.567 228.882 447.567 225.576V12.4177C447.567 9.1124 444.888 6.43294 441.582 6.43294Z"/></g><rect width="77.513" height="18.195" x="357.083" y="15.525" fill="#000" fill-opacity=".05" rx="2.598"/><g clip-path="url(#clip0_5779_89173)"><path fill="#666" d="M366.608 21.5299C366.778 21.5299 366.917 21.6683 366.917 21.8391V24.3131L368.463 24.3131C368.634 24.3131 368.772 24.4515 368.772 24.6223C368.772 24.7931 368.634 24.9315 368.463 24.9315L366.608 24.9315C366.437 24.9315 366.298 24.7931 366.298 24.6223V21.8391C366.298 21.6683 366.437 21.5299 366.608 21.5299Z"/><path fill="#666" fill-rule="evenodd" d="M366.608 28.9517C368.999 28.9517 370.937 27.0134 370.937 24.6223C370.937 22.2312 368.999 20.2929 366.608 20.2929C364.216 20.2929 362.278 22.2312 362.278 24.6223C362.278 27.0134 364.216 28.9517 366.608 28.9517ZM366.608 28.3332C368.657 28.3332 370.318 26.6718 370.318 24.6223C370.318 22.5728 368.657 20.9114 366.608 20.9114C364.558 20.9114 362.897 22.5728 362.897 24.6223C362.897 26.6718 364.558 28.3332 366.608 28.3332Z" clip-rule="evenodd"/></g><text fill="#666" font-family="'Nunito Sans', 'Helvetica Neue', Helvetica, Arial, sans-serif" font-size="8.659" letter-spacing="0em" xml:space="preserve" style="white-space:pre"><tspan x="374.761" y="27.032">07:30 – 16:30</tspan></text><text fill="#333" font-family="'Nunito Sans', 'Helvetica Neue', Helvetica, Arial, sans-serif" font-size="11.256" font-weight="bold" letter-spacing="0em" xml:space="preserve" style="white-space:pre"><tspan x="27.183" y="27.594">Usage frequency</tspan></text><rect width="437.268" height="155.858" fill="url(#paint0_linear_5779_89173)" transform="translate(9.86588 42.3669)"/><rect width=".866" height="155.858" x="155.333" y="42.367" fill="#000" fill-opacity=".1"/><rect width=".866" height="155.858" x="300.801" y="42.367" fill="#000" fill-opacity=".1"/><rect width=".866" height="155.858" x="46.233" y="42.367" fill="#000" fill-opacity=".1"/><rect width=".866" height="155.858" x="191.7" y="42.367" fill="#000" fill-opacity=".1"/><rect width=".866" height="155.858" x="337.168" y="42.367" fill="#000" fill-opacity=".1"/><rect width=".866" height="155.858" x="82.6" y="42.367" fill="#000" fill-opacity=".1"/><rect width=".866" height="155.858" x="228.067" y="42.367" fill="#000" fill-opacity=".1"/><rect width=".866" height="155.858" x="373.535" y="42.367" fill="#000" fill-opacity=".1"/><rect width=".866" height="155.858" x="118.966" y="42.367" fill="#000" fill-opacity=".1"/><rect width=".866" height="155.858" x="264.434" y="42.367" fill="#000" fill-opacity=".1"/><rect width=".866" height="155.858" x="409.901" y="42.367" fill="#000" fill-opacity=".1"/><rect width=".866" height="155.858" x="28.049" y="42.367" fill="#000" fill-opacity=".1"/><rect width=".866" height="155.858" x="173.517" y="42.367" fill="#000" fill-opacity=".1"/><rect width=".866" height="155.858" x="318.984" y="42.367" fill="#000" fill-opacity=".1"/><rect width=".866" height="155.858" x="64.416" y="42.367" fill="#000" fill-opacity=".1"/><rect width=".866" height="155.858" x="209.884" y="42.367" fill="#000" fill-opacity=".1"/><rect width=".866" height="155.858" x="355.351" y="42.367" fill="#000" fill-opacity=".1"/><rect width=".866" height="155.858" x="100.783" y="42.367" fill="#000" fill-opacity=".1"/><rect width=".866" height="155.858" x="246.25" y="42.367" fill="#000" fill-opacity=".1"/><rect width=".866" height="155.858" x="391.718" y="42.367" fill="#000" fill-opacity=".1"/><rect width=".866" height="155.858" x="137.15" y="42.367" fill="#000" fill-opacity=".1"/><rect width=".866" height="155.858" x="282.617" y="42.367" fill="#000" fill-opacity=".1"/><rect width=".866" height="155.858" x="428.085" y="42.367" fill="#000" fill-opacity=".1"/><circle cx="28.572" cy="171.523" r="2.696" fill="#CBDFDC"/><circle cx="246.233" cy="152.654" r="2.696" fill="#37D5D3"/><circle cx="192.322" cy="133.785" r="2.696" fill="#37D5D3"/><circle cx="155.259" cy="114.917" r="2.696" fill="#CBDFDC"/><circle cx="192.322" cy="77.179" r="2.696" fill="#37D5D3"/><circle cx="83.156" cy="77.179" r="2.696" fill="#CBDFDC"/><circle cx="210.518" cy="58.312" r="2.696" fill="#37D5D3"/><circle cx="46.766" cy="171.523" r="2.696" fill="#CBDFDC"/><circle cx="264.427" cy="152.654" r="2.696" fill="#37D5D3"/><circle cx="337.206" cy="152.654" r="2.696" fill="#37D5D3"/><circle cx="210.518" cy="133.785" r="2.696" fill="#37D5D3"/><circle cx="337.206" cy="114.917" r="2.696" fill="#37D5D3"/><circle cx="356.075" cy="96.048" r="2.696" fill="#CBDFDC"/><circle cx="374.27" cy="77.179" r="2.696" fill="#CBDFDC"/><circle cx="392.464" cy="58.312" r="2.696" fill="#CBDFDC"/><circle cx="173.455" cy="114.917" r="2.696" fill="#37D5D3"/><circle cx="210.518" cy="77.179" r="2.696" fill="#37D5D3"/><circle cx="228.04" cy="58.312" r="2.696" fill="#37D5D3"/><circle cx="173.455" cy="96.048" r="2.696" fill="#37D5D3"/><circle cx="46.766" cy="114.917" r="2.696" fill="#CBDFDC"/><circle cx="64.961" cy="96.048" r="2.696" fill="#CBDFDC"/><circle cx="65.635" cy="171.523" r="2.696" fill="#CBDFDC"/><circle cx="283.296" cy="152.654" r="2.696" fill="#37D5D3"/><circle cx="283.296" cy="171.523" r="2.696" fill="#37D5D3"/><circle cx="356.075" cy="152.654" r="2.696" fill="#CBDFDC"/><circle cx="228.04" cy="133.785" r="2.696" fill="#37D5D3"/><circle cx="356.075" cy="114.917" r="2.696" fill="#CBDFDC"/><circle cx="374.27" cy="96.048" r="2.696" fill="#CBDFDC"/><circle cx="392.464" cy="77.179" r="2.696" fill="#CBDFDC"/><circle cx="410.659" cy="58.312" r="2.696" fill="#CBDFDC"/><circle cx="192.322" cy="114.917" r="2.696" fill="#37D5D3"/><circle cx="228.04" cy="77.179" r="2.696" fill="#37D5D3"/><circle cx="246.233" cy="58.312" r="2.696" fill="#37D5D3"/><circle cx="192.322" cy="96.048" r="2.696" fill="#37D5D3"/><circle cx="319.686" cy="171.523" r="2.696" fill="#37D5D3"/><circle cx="337.206" cy="171.523" r="2.696" fill="#37D5D3"/><circle cx="428.853" cy="171.523" r="2.696" fill="#CBDFDC"/><circle cx="374.27" cy="171.523" r="4.717" fill="#CBDFDC"/><circle cx="337.206" cy="133.785" r="4.717" fill="#37D5D3"/><circle cx="319.686" cy="114.917" r="4.043" fill="#37D5D3"/><circle cx="319.686" cy="96.049" r="4.043" fill="#37D5D3"/><circle cx="356.075" cy="58.312" r="4.043" fill="#CBDFDC"/><circle cx="337.206" cy="96.049" r="4.043" fill="#37D5D3"/><circle cx="337.206" cy="77.18" r="4.043" fill="#37D5D3"/><circle cx="356.075" cy="77.18" r="4.043" fill="#CBDFDC"/><circle cx="374.269" cy="58.312" r="4.043" fill="#CBDFDC"/><circle cx="319.686" cy="133.785" r="4.717" fill="#37D5D3"/><circle cx="301.49" cy="133.785" r="4.717" fill="#37D5D3"/><circle cx="301.491" cy="171.522" r="3.369" fill="#37D5D3"/><circle cx="283.296" cy="133.785" r="7.413" fill="#37D5D3"/><circle cx="264.428" cy="133.785" r="6.739" fill="#37D5D3"/><circle cx="246.233" cy="114.917" r="6.739" fill="#37D5D3"/><circle cx="264.428" cy="96.049" r="6.739" fill="#37D5D3"/><circle cx="283.296" cy="96.048" r="7.413" fill="#37D5D3"/><circle cx="319.686" cy="58.312" r="6.739" fill="#37D5D3"/><circle cx="264.427" cy="114.917" r="6.739" fill="#37D5D3"/><circle cx="246.233" cy="133.785" r="5.391" fill="#37D5D3"/><circle cx="228.039" cy="114.918" r="6.065" fill="#37D5D3"/><circle cx="301.491" cy="152.653" r="6.065" fill="#37D5D3"/><circle cx="246.233" cy="96.048" r="6.065" fill="#37D5D3"/><circle cx="283.298" cy="58.312" r="6.065" fill="#37D5D3"/><circle cx="264.428" cy="77.18" r="6.065" fill="#37D5D3"/><circle cx="283.296" cy="77.18" r="6.739" fill="#37D5D3"/><circle cx="301.491" cy="77.18" r="6.739" fill="#37D5D3"/><circle cx="264.428" cy="58.311" r="5.391" fill="#37D5D3"/><circle cx="246.233" cy="77.181" r="5.391" fill="#37D5D3"/><circle cx="210.518" cy="114.917" r="5.391" fill="#37D5D3"/><circle cx="228.038" cy="96.049" r="5.391" fill="#37D5D3"/><circle cx="283.296" cy="114.917" r="5.391" fill="#37D5D3"/><circle cx="301.491" cy="114.917" r="5.391" fill="#37D5D3"/><circle cx="301.49" cy="96.049" r="4.717" fill="#37D5D3"/><circle cx="301.49" cy="58.311" r="5.391" fill="#37D5D3"/><circle cx="337.206" cy="58.312" r="4.717" fill="#37D5D3"/><circle cx="319.686" cy="77.18" r="4.717" fill="#37D5D3"/><circle cx="356.075" cy="133.785" r="4.043" fill="#CBDFDC"/><circle cx="392.464" cy="171.523" r="4.043" fill="#CBDFDC"/><circle cx="410.658" cy="171.523" r="4.043" fill="#CBDFDC"/><rect width="437.268" height="1.732" x="9.866" y="198.225" fill="#000" fill-opacity=".1"/><rect width="437.268" height=".866" x="9.866" y="41.501" fill="#000" fill-opacity=".1"/><rect width=".87" height="157.59" x="165" y="42.367" fill="#F40" fill-opacity=".7"/><rect width=".87" height="157.59" x="346.628" y="42.367" fill="#F40" fill-opacity=".7"/><text fill="#999" font-family="'SFMono-Regular', Consolas, 'Liberation Mono', Menlo, Courier, monospace" font-size="8.659" letter-spacing="0em" xml:space="preserve" style="white-space:pre"><tspan x="22.854" y="217.924">0:00</tspan></text><text fill="#999" font-family="'SFMono-Regular', Consolas, 'Liberation Mono', Menlo, Courier, monospace" font-size="8.659" letter-spacing="0em" xml:space="preserve" style="white-space:pre"><tspan x="98.185" y="217.924">4:00</tspan></text><text fill="#999" font-family="'SFMono-Regular', Consolas, 'Liberation Mono', Menlo, Courier, monospace" font-size="8.659" letter-spacing="0em" xml:space="preserve" style="white-space:pre"><tspan x="173.517" y="217.924">8:00</tspan></text><text fill="#999" font-family="'SFMono-Regular', Consolas, 'Liberation Mono', Menlo, Courier, monospace" font-size="8.659" letter-spacing="0em" xml:space="preserve" style="white-space:pre"><tspan x="248.848" y="217.924">12:00</tspan></text><text fill="#999" font-family="'SFMono-Regular', Consolas, 'Liberation Mono', Menlo, Courier, monospace" font-size="8.659" letter-spacing="0em" xml:space="preserve" style="white-space:pre"><tspan x="329.375" y="217.924">16:00</tspan></text><text fill="#999" font-family="'SFMono-Regular', Consolas, 'Liberation Mono', Menlo, Courier, monospace" font-size="8.659" letter-spacing="0em" xml:space="preserve" style="white-space:pre"><tspan x="409.901" y="217.924">20:00</tspan></text><g filter="url(#filter1_d_5779_89173)"><circle cx="164.793" cy="199.957" r="6.927" fill="#fff"/><circle cx="164.793" cy="199.957" r="6.927" stroke="#000" stroke-opacity=".1" stroke-width=".866"/></g><rect width=".866" height="6.927" x="163.061" y="196.493" fill="#CCC" rx=".433"/><rect width=".866" height="6.927" x="165.659" y="196.493" fill="#CCC" rx=".433"/><g filter="url(#filter2_d_5779_89173)"><circle cx="346.677" cy="199.957" r="6.927" fill="#fff"/><circle cx="346.677" cy="199.957" r="6.927" stroke="#000" stroke-opacity=".1" stroke-width=".866"/></g><rect width=".866" height="6.927" x="344.945" y="196.493" fill="#CCC" rx=".433"/><rect width=".866" height="6.927" x="347.543" y="196.493" fill="#CCC" rx=".433"/><defs><filter id="filter0_dd_5779_89173" width="455.655" height="242.649" x=".672" y=".448" color-interpolation-filters="sRGB" filterUnits="userSpaceOnUse"><feFlood flood-opacity="0" result="BackgroundImageFix"/><feColorMatrix in="SourceAlpha" result="hardAlpha" type="matrix" values="0 0 0 0 0 0 0 0 0 0 0 0 0 0 0 0 0 0 127 0"/><feOffset dy="2.776"/><feGaussianBlur stdDeviation="4.164"/><feColorMatrix type="matrix" values="0 0 0 0 0 0 0 0 0 0 0 0 0 0 0 0 0 0 0.1 0"/><feBlend in2="BackgroundImageFix" mode="normal" result="effect1_dropShadow_5779_89173"/><feColorMatrix in="SourceAlpha" result="hardAlpha" type="matrix" values="0 0 0 0 0 0 0 0 0 0 0 0 0 0 0 0 0 0 127 0"/><feOffset dy=".555"/><feGaussianBlur stdDeviation=".833"/><feColorMatrix type="matrix" values="0 0 0 0 0 0 0 0 0 0 0 0 0 0 0 0 0 0 0.05 0"/><feBlend in2="effect1_dropShadow_5779_89173" mode="normal" result="effect2_dropShadow_5779_89173"/><feBlend in="SourceGraphic" in2="effect2_dropShadow_5779_89173" mode="normal" result="shape"/></filter><filter id="filter1_d_5779_89173" width="19.915" height="19.915" x="154.835" y="190.865" color-interpolation-filters="sRGB" filterUnits="userSpaceOnUse"><feFlood flood-opacity="0" result="BackgroundImageFix"/><feColorMatrix in="SourceAlpha" result="hardAlpha" type="matrix" values="0 0 0 0 0 0 0 0 0 0 0 0 0 0 0 0 0 0 127 0"/><feOffset dy=".866"/><feGaussianBlur stdDeviation="1.299"/><feColorMatrix type="matrix" values="0 0 0 0 0 0 0 0 0 0 0 0 0 0 0 0 0 0 0.1 0"/><feBlend in2="BackgroundImageFix" mode="normal" result="effect1_dropShadow_5779_89173"/><feBlend in="SourceGraphic" in2="effect1_dropShadow_5779_89173" mode="normal" result="shape"/></filter><filter id="filter2_d_5779_89173" width="19.915" height="19.915" x="336.719" y="190.865" color-interpolation-filters="sRGB" filterUnits="userSpaceOnUse"><feFlood flood-opacity="0" result="BackgroundImageFix"/><feColorMatrix in="SourceAlpha" result="hardAlpha" type="matrix" values="0 0 0 0 0 0 0 0 0 0 0 0 0 0 0 0 0 0 127 0"/><feOffset dy=".866"/><feGaussianBlur stdDeviation="1.299"/><feColorMatrix type="matrix" values="0 0 0 0 0 0 0 0 0 0 0 0 0 0 0 0 0 0 0.1 0"/><feBlend in2="BackgroundImageFix" mode="normal" result="effect1_dropShadow_5779_89173"/><feBlend in="SourceGraphic" in2="effect1_dropShadow_5779_89173" mode="normal" result="shape"/></filter><linearGradient id="paint0_linear_5779_89173" x1="218.634" x2="218.634" y1="0" y2="155.858" gradientUnits="userSpaceOnUse"><stop stop-color="#E7FBFB"/><stop offset="1" stop-color="#F4F8FA"/></linearGradient><clipPath id="clip0_5779_89173"><rect width="8.659" height="8.659" fill="#fff" transform="translate(362.278 20.2929)"/></clipPath></defs></svg>