<svg width="28" height="28" viewBox="0 0 28 28" fill="none" xmlns="http://www.w3.org/2000/svg">
<g clip-path="url(#clip0_55_2608)">
<path d="M24.2959 3.70168C21.7033 -0.0237393 16.5419 -1.11526 12.8314 1.23389L6.29049 5.41016C4.50659 6.52541 3.26976 8.35253 2.91298 10.4169C2.60377 12.1491 2.86541 13.9288 3.69789 15.4712C3.12705 16.3254 2.74648 17.2746 2.57999 18.2712C2.19942 20.383 2.69891 22.5661 3.93575 24.2983C6.55212 28.0237 11.6897 29.1152 15.4002 26.7661L21.9412 22.6135C23.7251 21.4983 24.9619 19.6712 25.3187 17.6068C25.6279 15.8746 25.3663 14.0949 24.5338 12.5525C25.1046 11.6983 25.4852 10.7491 25.6517 9.75253C26.056 7.61694 25.5565 5.43389 24.2959 3.70168Z" fill="#FF3E00"/>
<path d="M12.1899 24.6542C10.073 25.2 7.86102 24.3695 6.62418 22.5898C5.86306 21.5457 5.57763 20.2407 5.7917 18.9593C5.83927 18.7457 5.88684 18.5559 5.93441 18.3424L6.05334 17.9627L6.38633 18.2C7.17124 18.7695 8.02751 19.1966 8.95514 19.4813L9.19299 19.5525L9.16921 19.7898C9.14542 20.122 9.24056 20.4779 9.43084 20.7627C9.81141 21.3085 10.4774 21.5695 11.1196 21.4034C11.2623 21.3559 11.405 21.3085 11.5239 21.2373L18.0411 17.0847C18.3741 16.8712 18.5882 16.5627 18.6595 16.183C18.7309 15.8034 18.6357 15.4 18.4217 15.0915C18.0411 14.5457 17.3751 14.3085 16.7329 14.4746C16.5902 14.522 16.4475 14.5695 16.3286 14.6407L13.8311 16.2305C13.4268 16.4915 12.9748 16.6813 12.4991 16.8C10.3823 17.3457 8.17022 16.5152 6.93339 14.7356C6.19605 13.6915 5.88684 12.3864 6.12469 11.1051C6.33876 9.87117 7.09989 8.75591 8.17022 8.0915L14.7112 3.93896C15.1155 3.67795 15.5674 3.48812 16.0431 3.34574C18.16 2.79998 20.3721 3.63049 21.6089 5.41015C22.37 6.45422 22.6554 7.7593 22.4414 9.04066C22.3938 9.25422 22.3462 9.44405 22.2749 9.65761L22.156 10.0373L21.823 9.79998C21.038 9.23049 20.1818 8.80337 19.2542 8.51862L19.0163 8.44744L19.0401 8.21015C19.0639 7.87794 18.9687 7.52201 18.7784 7.23727C18.3979 6.6915 17.7319 6.45422 17.0897 6.62032C16.947 6.66778 16.8043 6.71523 16.6853 6.78642L10.1682 10.939C9.83519 11.1525 9.62112 11.461 9.54977 11.8407C9.47841 12.2203 9.57355 12.6237 9.78762 12.9322C10.1682 13.4779 10.8342 13.7152 11.4764 13.5491C11.6191 13.5017 11.7618 13.4542 11.8807 13.383L14.3782 11.7932C14.7825 11.5322 15.2344 11.3424 15.7101 11.2C17.827 10.6542 20.0391 11.4847 21.2759 13.2644C22.037 14.3085 22.3224 15.6135 22.1084 16.8949C21.8943 18.1288 21.1332 19.244 20.0628 19.9085L13.5219 24.061C13.1176 24.322 12.6656 24.5118 12.1899 24.6542Z" fill="white"/>
</g>
<defs>
<clipPath id="clip0_55_2608">
<rect width="28" height="28" fill="white"/>
</clipPath>
</defs>
</svg>
