<svg width="28" height="28" viewBox="0 0 28 28" fill="none" xmlns="http://www.w3.org/2000/svg">
<path fill-rule="evenodd" clip-rule="evenodd" d="M22.1158 9.86165C25.6771 10.9182 28 12.6218 28 14.4196C28 16.2118 25.6885 17.9155 22.15 18.972C22.9776 22.4789 22.618 25.2723 21.0143 26.1684C20.6376 26.3786 20.2038 26.4782 19.7244 26.4782C18.1549 26.4782 16.1003 25.4051 14.0228 23.5354C11.9454 25.4161 9.89075 26.5003 8.32124 26.5003C7.84183 26.5003 7.40807 26.4007 7.0371 26.1905C5.42764 25.2944 5.06237 22.4955 5.88422 18.9775C2.32287 17.921 0 16.2173 0 14.4196C0 12.6274 2.31146 10.9292 5.86139 9.86718C5.03384 6.36022 5.3934 3.56683 6.99715 2.67073C7.37383 2.46054 7.80758 2.36097 8.287 2.36097V2.35544C9.8565 2.35544 11.9111 3.42854 13.9886 5.29818C16.066 3.41748 18.1207 2.33331 19.6902 2.33331V2.33885C20.1617 2.33965 20.5934 2.43926 20.9629 2.64861C22.5724 3.54471 22.9376 6.34363 22.1158 9.86165ZM19.6845 3.56684C18.4975 3.56977 16.7536 4.48774 14.896 6.16109C15.7008 6.97422 16.4998 7.9035 17.2703 8.92683C18.5544 9.05958 19.7758 9.26425 20.8944 9.52976C21.02 8.97108 21.1227 8.42346 21.1855 7.9035C21.448 5.79048 21.1113 4.14764 20.3351 3.71618C20.1582 3.62215 19.947 3.57236 19.6845 3.57236V3.56684ZM13.0811 6.16662C11.2205 4.50165 9.46841 3.58896 8.287 3.58896V3.59449C8.02446 3.59449 7.80188 3.63874 7.63066 3.73831C6.86017 4.17529 6.52915 5.81814 6.79739 7.93116C6.86588 8.44559 6.9629 8.98214 7.09417 9.53529C8.2128 9.26425 9.43416 9.05958 10.724 8.92683C11.4831 7.9035 12.2821 6.97975 13.0811 6.16662ZM19.7986 12.915C20.0954 12.1793 20.3579 11.4436 20.5691 10.7301C19.8214 10.5531 19.0395 10.4093 18.2291 10.2931C18.5088 10.7135 18.7884 11.1449 19.051 11.5875C19.3192 12.03 19.5646 12.4725 19.7986 12.915ZM16.5797 18.7341C17.0534 18.0759 17.51 17.3679 17.9552 16.6211C18.3832 15.8965 18.777 15.1553 19.1366 14.414C18.777 13.6728 18.3832 12.9371 17.9495 12.2125C17.5043 11.4713 17.042 10.7688 16.5683 10.1106C15.7236 10.0442 14.8618 10.0055 14 10.0055C13.1325 10.0055 12.2707 10.0442 11.4203 10.1161C10.9466 10.7743 10.49 11.4824 10.0448 12.2291C9.6168 12.9537 9.21729 13.695 8.86343 14.4362C9.22299 15.1774 9.6168 15.9131 10.0506 16.6377C10.4957 17.3789 10.958 18.0814 11.4317 18.7397C12.2764 18.806 13.1382 18.8448 14 18.8448C14.8675 18.8448 15.7293 18.806 16.5797 18.7341ZM20.5862 18.1035C20.3693 17.3844 20.1068 16.6432 19.7986 15.902C19.5646 16.3445 19.3192 16.7926 19.0567 17.2351C18.7941 17.6831 18.5145 18.1201 18.2348 18.5461C19.051 18.4299 19.8386 18.2805 20.5862 18.1035ZM12.4248 20.034C12.9499 20.6812 13.4806 21.2731 14.0114 21.8041C14.5365 21.2731 15.0673 20.6812 15.5809 20.034C15.0616 20.0617 14.5308 20.0727 13.9943 20.0727C13.4635 20.0727 12.9384 20.0561 12.4248 20.034ZM7.42519 18.1091C8.17285 18.2861 8.95475 18.4299 9.76519 18.5461C9.48553 18.1257 9.21158 17.6942 8.94333 17.2517C8.67509 16.8092 8.42968 16.3667 8.19568 15.9241C7.8989 16.6598 7.63636 17.3955 7.42519 18.1091ZM15.5695 8.80513C15.0444 8.15795 14.5137 7.56608 13.9829 7.03506C13.4578 7.56608 12.927 8.15795 12.4134 8.80513C12.9327 8.77748 13.4635 8.76641 14 8.76641C14.5308 8.76641 15.0559 8.78301 15.5695 8.80513ZM8.93763 11.6041C9.20016 11.156 9.47982 10.719 9.75948 10.2931C8.94334 10.4093 8.15573 10.5586 7.40807 10.7301C7.62495 11.4492 7.88748 12.1904 8.19568 12.9316C8.42968 12.4891 8.67509 12.0466 8.93763 11.6041ZM1.26702 14.4196C1.26702 15.288 2.57399 16.3833 4.59438 17.2185C5.09091 17.4232 5.6274 17.6112 6.19242 17.7827C6.51203 16.7041 6.93437 15.5812 7.45944 14.4306C6.92866 13.2746 6.50061 12.1461 6.1753 11.062C5.62169 11.2334 5.0852 11.416 4.59438 11.6207C2.57399 12.4504 1.26702 13.5511 1.26702 14.4196ZM6.81451 20.9356C6.55198 23.0487 6.88871 24.6915 7.6649 25.123C7.83612 25.217 8.053 25.2668 8.30982 25.2723C9.49694 25.2723 11.2434 24.3541 13.104 22.6781C12.2992 21.8649 11.5002 20.9356 10.7297 19.9123C9.44558 19.7796 8.22422 19.5749 7.10559 19.3094C6.98003 19.8681 6.87729 20.4157 6.81451 20.9356ZM20.3693 25.1008C21.1398 24.6639 21.4709 23.021 21.2026 20.908C21.1398 20.3936 21.0371 19.857 20.9058 19.2983C19.7872 19.5694 18.5658 19.774 17.276 19.9068C16.5169 20.9301 15.7179 21.8539 14.9189 22.667C16.7795 24.332 18.5316 25.2447 19.713 25.2447C19.9755 25.2447 20.1981 25.2004 20.3693 25.1008ZM21.819 17.7772C22.3726 17.6057 22.9091 17.4232 23.3999 17.2185C25.4203 16.3888 26.7273 15.288 26.733 14.4196C26.733 13.5511 25.426 12.4559 23.4056 11.6207C22.9034 11.416 22.3669 11.2279 21.8019 11.0564C21.4823 12.1351 21.0599 13.258 20.5349 14.4085C21.0656 15.5646 21.4937 16.693 21.819 17.7772ZM16.6021 14.4197C16.6021 15.8158 15.4344 16.9475 13.9939 16.9475C12.5534 16.9475 11.3857 15.8158 11.3857 14.4197C11.3857 13.0235 12.5534 11.8918 13.9939 11.8918C15.4344 11.8918 16.6021 13.0235 16.6021 14.4197Z" fill="#61DAFB"/>
</svg>
