<svg width="28" height="28" viewBox="0 0 28 28" fill="none" xmlns="http://www.w3.org/2000/svg">
<path fill-rule="evenodd" clip-rule="evenodd" d="M27.9297 14.0695L24.9036 19.1652L20.6602 14L24.9036 8.97388L27.9297 14.0695Z" fill="#166DA5"/>
<path fill-rule="evenodd" clip-rule="evenodd" d="M24.5741 20.0348L19.9654 14.5217L17.2002 19.1478L21.4958 25.4261L24.5741 20.0348Z" fill="#8FDB69"/>
<path fill-rule="evenodd" clip-rule="evenodd" d="M24.5219 8.06955L19.9654 13.6L17.2002 8.97389L21.4958 2.7652L24.5219 8.06955Z" fill="#166DA5"/>
<path opacity="0.95" fill-rule="evenodd" clip-rule="evenodd" d="M10.626 8.06954H24.5216L21.4608 2.73041H13.6868L10.626 8.06954ZM19.9651 13.6174H27.6521L24.8868 8.95649H17.1825" fill="url(#paint0_linear_55_2624)"/>
<path opacity="0.95" fill-rule="evenodd" clip-rule="evenodd" d="M24.5736 20.0522H10.6084L13.6693 25.3565H21.4954L24.5736 20.0522ZM19.9649 14.5043H27.6519L24.8867 19.1652H17.1823" fill="url(#paint1_linear_55_2624)"/>
<path fill-rule="evenodd" clip-rule="evenodd" d="M13.6693 25.3565L7.1302 14.0522L13.7563 2.7478H6.59107L0.0693359 14.0522L6.59107 25.3565H13.6693Z" fill="#010101"/>
<defs>
<linearGradient id="paint0_linear_55_2624" x1="10.626" y1="547.078" x2="27.6521" y2="547.078" gradientUnits="userSpaceOnUse">
<stop stop-color="#2A3B8F"/>
<stop offset="1" stop-color="#29ABE2"/>
</linearGradient>
<linearGradient id="paint1_linear_55_2624" x1="1714.96" y1="557.113" x2="10.6084" y2="557.113" gradientUnits="userSpaceOnUse">
<stop stop-color="#B4D44E"/>
<stop offset="1" stop-color="#E7F716"/>
</linearGradient>
</defs>
</svg>
