<svg width="192px" height="140px" xmlns="http://www.w3.org/2000/svg"><g transform="translate(10 6)" fill="#FF4785" stroke="#FF4785" fill-rule="evenodd" fill-opacity="0.8"><rect opacity="0.900000036" x=".5" y=".5" width="39" height="39" rx="2"/><rect opacity="0.699999988" x=".5" y="44.5" width="39" height="39" rx="2"/><rect opacity="0.5" x=".5" y="88.5" width="39" height="39" rx="2"/><rect opacity="0.699999988" x="44.5" y=".5" width="39" height="39" rx="2"/><rect opacity="0.5" x="44.5" y="44.5" width="39" height="39" rx="2"/><rect opacity="0.300000012" x="44.5" y="88.5" width="39" height="39" rx="2"/><rect opacity="0.5" x="88.5" y=".5" width="39" height="39" rx="2"/><rect opacity="0.300000012" x="88.5" y="44.5" width="39" height="39" rx="2"/><rect opacity="0.200000003" x="88.5" y="88.5" width="39" height="39" rx="2"/><rect opacity="0.300000012" x="132.5" y=".5" width="39" height="39" rx="2"/><rect opacity="0.200000003" x="132.5" y="44.5" width="39" height="39" rx="2"/><rect opacity="0.100000001" x="132.5" y="88.5" width="39" height="39" rx="2"/></g></svg>