<svg xmlns="http://www.w3.org/2000/svg" width="160" height="160" fill="none" viewBox="0 0 160 160"><rect width="160" height="160" fill="#000" rx="20"/><path fill="#fff" fill-rule="evenodd" d="M80.0001 21.632C33.3551 21.632 21.6938 33.3056 21.6938 80C21.6938 126.694 33.3551 138.368 80.0001 138.368C126.645 138.368 138.306 126.694 138.306 80C138.306 33.3056 126.645 21.632 80.0001 21.632ZM70.4333 111.918C61.4048 111.918 53.2654 106.473 49.8107 98.1232C46.356 89.773 48.2664 80.1618 54.6511 73.7715C61.0357 67.3811 70.6371 65.4703 78.9779 68.9301C87.3187 72.3899 92.7561 80.5389 92.7546 89.5769C92.7398 101.911 82.7542 111.905 70.4333 111.918ZM100.043 111.008H110.975V48.992H49.0249V59.936H100.043V111.008Z" clip-rule="evenodd"/><path fill="#fff" d="M70.4333 78.176C64.1434 78.176 59.0444 83.2803 59.0444 89.5769C59.0444 95.8735 64.1434 100.978 70.4333 100.978C76.7232 100.978 81.8222 95.8735 81.8222 89.5769C81.8159 83.283 76.7206 78.1823 70.4333 78.176"/></svg>