<svg width="161" height="160" viewBox="0 0 161 160" fill="none" xmlns="http://www.w3.org/2000/svg">
<rect x="0.875" width="160" height="160" rx="20" fill="white"/>
<rect x="1.375" y="0.5" width="159" height="159" rx="19.5" stroke="black" stroke-opacity="0.2"/>
<circle cx="80.875" cy="80" r="64.5" fill="#A849FF" fill-opacity="0.3" stroke="#A849FF"/>
<path fill-rule="evenodd" clip-rule="evenodd" d="M90.4265 46.3758C90.4265 40.9863 86.063 36.6399 80.6522 36.6399C75.2413 36.6399 70.8778 41.1602 70.8778 46.3758C70.8778 51.7654 75.2413 56.1118 80.6522 56.1118C86.063 56.1118 90.4265 51.7654 90.4265 46.3758ZM74.261 76.3362C74.1376 79.7549 73.9842 84.0048 73.4415 86.167C71.8048 93.6667 63.0012 113.397 61.9117 115.824C61.5234 116.541 61.3029 117.363 61.3029 118.236C61.3029 121.036 63.5733 123.307 66.3741 123.307C68.2118 123.307 69.8212 122.329 70.7107 120.866L70.8772 120.591L80.7389 99.554C80.7389 99.554 89.5919 117.704 90.5965 119.701C91.6011 121.699 93.1616 123.307 95.4526 123.307C98.2533 123.307 100.524 121.036 100.524 118.236C100.524 117.362 99.9135 115.822 99.9135 115.822C98.8144 113.382 89.9848 93.6638 88.3486 86.167C87.8168 84.0481 87.6801 79.9244 87.5681 76.5428C87.533 75.4851 87.5003 74.4999 87.4588 73.6714C87.2842 72.4544 88.1569 71.4113 89.2042 71.0636L110.673 64.6309C113.291 63.9355 114.862 60.9799 114.164 58.3721C113.466 55.7642 110.498 54.1995 107.88 54.8949C107.88 54.8949 87.7206 61.3276 80.7389 61.3276C73.7572 61.3276 54.1212 55.0688 54.1212 55.0688C51.503 54.3734 48.5358 55.5904 47.6631 58.1982C46.7904 60.806 48.3613 63.7616 51.154 64.6309L72.6227 71.0636C73.6699 71.4113 74.3681 72.4544 74.3681 73.6714C74.3292 74.4457 74.2963 75.3569 74.261 76.3362Z" fill="#8A52BC"/>
</svg>
