<svg width="160" height="160" viewBox="0 0 160 160" fill="none" xmlns="http://www.w3.org/2000/svg">
<rect width="160" height="160" rx="20" fill="white"/>
<rect x="0.5" y="0.5" width="159" height="159" rx="19.5" stroke="black" stroke-opacity="0.2"/>
<circle cx="80" cy="80" r="64.5" fill="#A849FF" fill-opacity="0.3" stroke="#A849FF"/>
<path fill-rule="evenodd" clip-rule="evenodd" d="M89.551 46.3758C89.551 40.9863 85.1875 36.6399 79.7767 36.6399C74.3659 36.6399 70.0023 41.1602 70.0023 46.3758C70.0023 51.7654 74.3659 56.1118 79.7767 56.1118C85.1875 56.1118 89.551 51.7654 89.551 46.3758ZM73.3855 76.3362C73.2621 79.7549 73.1088 84.0048 72.5661 86.167C70.9293 93.6667 62.1257 113.397 61.0362 115.824C60.6479 116.541 60.4274 117.363 60.4274 118.236C60.4274 121.036 62.6979 123.307 65.4986 123.307C67.3363 123.307 68.9458 122.329 69.8352 120.866L70.0017 120.591L79.8634 99.554C79.8634 99.554 88.7165 117.704 89.721 119.701C90.7256 121.699 92.2861 123.307 94.5771 123.307C97.3779 123.307 99.6483 121.036 99.6483 118.236C99.6483 117.362 99.038 115.822 99.038 115.822C97.9389 113.382 89.1093 93.6638 87.4732 86.167C86.9413 84.0481 86.8047 79.9244 86.6926 76.5428C86.6575 75.4851 86.6249 74.4999 86.5833 73.6714C86.4087 72.4544 87.2814 71.4113 88.3287 71.0636L109.797 64.6309C112.416 63.9355 113.986 60.9799 113.288 58.3721C112.59 55.7642 109.623 54.1995 107.005 54.8949C107.005 54.8949 86.8451 61.3276 79.8634 61.3276C72.8817 61.3276 53.2457 55.0688 53.2457 55.0688C50.6275 54.3734 47.6603 55.5904 46.7876 58.1982C45.9149 60.806 47.4858 63.7616 50.2785 64.6309L71.7472 71.0636C72.7944 71.4113 73.4926 72.4544 73.4926 73.6714C73.4537 74.4457 73.4208 75.3569 73.3855 76.3362Z" fill="#8A52BC"/>
</svg>
