<svg width="160" height="160" viewBox="0 0 160 160" fill="none" xmlns="http://www.w3.org/2000/svg">
<rect width="160" height="160" rx="20" fill="white"/>
<rect opacity="0.3" x="48" y="30.5" width="102" height="14" rx="4" fill="#6F2CAC"/>
<rect x="48" y="73.5" width="92.5" height="14" rx="4" fill="#FF4785"/>
<rect opacity="0.3" x="48" y="115.5" width="52.3247" height="14" rx="4" fill="#6F2CAC"/>
<rect opacity="0.3" x="105.624" y="115.5" width="35.1039" height="14" rx="4" fill="#6F2CAC"/>
<circle opacity="0.3" cx="22" cy="37.5" r="12" fill="#6F2CAC"/>
<circle opacity="0.3" cx="22" cy="122.5" r="12" fill="#6F2CAC"/>
<path fill-rule="evenodd" clip-rule="evenodd" d="M28.8301 32.6637C28.6035 32.4454 28.2361 32.4454 28.0095 32.6637L20.2404 40.1498L16.9905 37.0184C16.7639 36.8 16.3965 36.8001 16.17 37.0184C15.9433 37.2367 15.9433 37.5906 16.17 37.809L19.8189 41.3249C19.8225 41.3287 19.8258 41.3327 19.8295 41.3363C19.943 41.4456 20.0917 41.5001 20.2404 41.5C20.389 41.5001 20.5377 41.4456 20.6512 41.3363C20.6547 41.3328 20.6577 41.3291 20.6612 41.3256L28.8301 33.4543C29.0566 33.236 29.0566 32.8821 28.8301 32.6637" fill="white"/>
<path fill-rule="evenodd" clip-rule="evenodd" d="M28.8301 117.664C28.6035 117.445 28.2361 117.445 28.0095 117.664L20.2404 125.15L16.9905 122.018C16.7639 121.8 16.3965 121.8 16.17 122.018C15.9433 122.237 15.9433 122.591 16.17 122.809L19.8189 126.325C19.8225 126.329 19.8258 126.333 19.8295 126.336C19.943 126.446 20.0917 126.5 20.2404 126.5C20.389 126.5 20.5377 126.446 20.6512 126.336C20.6547 126.333 20.6577 126.329 20.6612 126.326L28.8301 118.454C29.0566 118.236 29.0566 117.882 28.8301 117.664" fill="white"/>
<circle cx="22" cy="79.5" r="12" fill="#FF4785"/>
<circle cx="22" cy="83.5" r="1" fill="white"/>
<rect x="21" y="73.5" width="2" height="8" rx="1" fill="white"/>
<rect x="0.5" y="0.5" width="159" height="159" rx="19.5" stroke="black" stroke-opacity="0.2"/>
</svg>
