<svg xmlns="http://www.w3.org/2000/svg" width="160" height="160" fill="none" viewBox="0 0 160 160"><rect width="160" height="160" fill="#79BFF8" rx="20"/><path fill="#fff" fill-rule="evenodd" d="M84.9998 73.6738C83.913 73.8682 83.5501 73.661 82.8295 72.9145C80.6092 70.9891 77.7504 69.9083 74.739 69.9083C68.0099 69.9083 62.5001 75.2689 62.5001 81.9512C62.5001 88.6335 68.0099 93.9941 74.739 93.9941C77.9931 93.9941 80.7875 93.2196 82.808 90.9035C83.4813 90.1317 84.0719 89.7206 84.9998 89.8812C84.9998 94.0875 85.0001 98.2938 85.0001 102.5C85.0001 108.023 80.523 112.5 75.0001 112.5H30C24.4772 112.5 20 108.023 20 102.5V57.5C20 51.9772 24.4772 47.5 30 47.5H75.0001C80.523 47.5 85.0001 51.9772 85.0001 57.5C85.0001 62.8912 84.9998 68.2825 84.9998 73.6738Z" clip-rule="evenodd"/><path fill="#fff" fill-rule="evenodd" d="M89.9997 101.429C89.9997 103.401 91.6432 105 93.6706 105H136.329C138.356 105 140 103.401 140 101.429V58.5714C140 56.599 138.356 55 136.329 55H93.6706C91.6432 55 89.9997 56.599 89.9997 58.5714V74.5888C89.4976 77.8352 87.2823 78.7819 83.9685 78.7819C80.285 78.7819 78.5795 74.9083 74.7389 74.9083C70.741 74.9083 67.5 78.0615 67.5 81.9512C67.5 85.8409 70.741 88.9941 74.7389 88.9941C78.7849 88.9941 80.1669 84.7684 83.9685 84.7684C86.4706 84.7684 89.3308 85.2613 89.9997 87.8891V101.429Z" clip-rule="evenodd"/></svg>