<svg width="161" height="160" viewBox="0 0 161 160" fill="none" xmlns="http://www.w3.org/2000/svg">
<rect x="0.09375" width="160" height="160" rx="20" fill="#2D1E7B"/>
<path d="M87.452 49.646L73.0946 49.646L52.3652 103.446H65.3507L68.7393 94.3319H88.3267L84.7799 84.2487H71.8847L80.2733 61.0997L95.1966 103.446H108.182L87.452 49.646Z" fill="white"/>
<path d="M137.132 64.0329C137.097 63.8492 137.047 63.6716 136.981 63.5018C136.965 63.4431 136.91 63.3327 136.91 63.3327C136.442 62.3159 135.415 61.6079 134.222 61.6079C132.587 61.6079 131.261 62.9335 131.261 64.5688C131.261 64.9023 131.318 65.2204 131.419 65.5176L131.411 65.5207C132.717 70.174 133.392 75.0349 133.392 80.0009C133.392 94.2371 127.847 107.622 117.782 117.689C107.715 127.757 94.3302 133.3 80.094 133.3C65.8577 133.3 52.4724 127.755 42.4061 117.689C32.3383 107.622 26.7948 94.2371 26.7948 80.0009C26.7948 65.7647 32.3391 52.3801 42.4061 42.313C52.4724 32.2452 65.8577 26.7025 80.094 26.7025C92.8069 26.7025 104.837 31.1265 114.435 39.241C114.112 40.0609 113.933 40.955 113.933 41.8907C113.933 45.8885 117.174 49.1289 121.171 49.1289C125.169 49.1289 128.41 45.8885 128.41 41.8907C128.41 37.8929 125.169 34.6526 121.171 34.6526C120.3 34.6526 119.463 34.8062 118.688 35.0888C108.322 26.1714 94.8397 20.7792 80.094 20.7792C47.3867 20.7792 20.873 47.2937 20.873 80.0009C20.873 112.708 47.3867 139.223 80.094 139.223C112.8 139.223 139.315 112.708 139.315 80.0009C139.315 74.4682 138.551 69.1132 137.132 64.0329Z" fill="white"/>
</svg>
