<svg xmlns="http://www.w3.org/2000/svg" width="160" height="160" fill="none" viewBox="0 0 160 160"><rect width="160" height="160" fill="#2D1E7B" rx="20"/><path fill="#fff" d="M87.3582 49.646L73.0008 49.646L52.2715 103.446H65.2569L68.6456 94.3319H88.233L84.6861 84.2486H71.791L80.1795 61.0996L95.1029 103.446H108.088L87.3582 49.646Z"/><path fill="#fff" d="M137.038 64.0329C137.004 63.8491 136.954 63.6715 136.887 63.5017C136.871 63.443 136.816 63.3326 136.816 63.3326C136.348 62.3158 135.321 61.6078 134.129 61.6078C132.493 61.6078 131.168 62.9334 131.168 64.5687C131.168 64.9022 131.224 65.2203 131.325 65.5176L131.317 65.5207C132.623 70.1739 133.299 75.0349 133.299 80.0008C133.299 94.2371 127.754 107.622 117.688 117.689C107.621 127.757 94.2364 133.3 80.0002 133.3C65.764 133.3 52.3786 127.755 42.3123 117.689C32.2445 107.622 26.7011 94.2371 26.7011 80.0008C26.7011 65.7646 32.2453 52.38 42.3123 42.313C52.3786 32.2452 65.764 26.7025 80.0002 26.7025C92.7131 26.7025 104.744 31.1264 114.341 39.2409C114.018 40.0609 113.839 40.9549 113.839 41.8907C113.839 45.8884 117.08 49.1288 121.077 49.1288C125.075 49.1288 128.316 45.8884 128.316 41.8907C128.316 37.8929 125.075 34.6525 121.077 34.6525C120.206 34.6525 119.37 34.8061 118.594 35.0887C108.229 26.1713 94.746 20.7792 80.0002 20.7792C47.293 20.7792 20.7793 47.2936 20.7793 80.0008C20.7793 112.708 47.293 139.223 80.0002 139.223C112.707 139.223 139.221 112.708 139.221 80.0008C139.221 74.4682 138.458 69.1131 137.038 64.0329Z"/></svg>