<svg width="60" height="60" viewBox="0 0 60 60" fill="none" xmlns="http://www.w3.org/2000/svg">
<rect width="60" height="60" rx="10" fill="#2D1E7B"/>
<path d="M32.7593 18.6179H27.3753L19.6018 38.793H24.4714L25.7421 35.3751H33.0874L31.7573 31.5939H26.9216L30.0673 22.913L35.6636 38.793H40.5331L32.7593 18.6179Z" fill="white"/>
<path d="M51.3894 24.0129C51.3764 23.944 51.3576 23.8774 51.3327 23.8137C51.3266 23.7917 51.306 23.7503 51.306 23.7503C51.1306 23.369 50.7455 23.1035 50.2982 23.1035C49.685 23.1035 49.1879 23.6006 49.1879 24.2138C49.1879 24.3389 49.209 24.4582 49.2469 24.5696L49.244 24.5708C49.7336 26.3158 49.987 28.1386 49.987 30.0008C49.987 35.3394 47.9076 40.3587 44.133 44.1338C40.3579 47.9092 35.3387 49.988 30.0001 49.988C24.6615 49.988 19.642 47.9086 15.8671 44.1338C12.0917 40.3587 10.0129 35.3394 10.0129 30.0008C10.0129 24.6623 12.092 19.643 15.8671 15.8679C19.642 12.0925 24.6615 10.014 30.0001 10.014C34.7674 10.014 39.2788 11.673 42.8779 14.7159C42.7569 15.0234 42.6897 15.3586 42.6897 15.7095C42.6897 17.2087 43.9052 18.4238 45.404 18.4238C46.9032 18.4238 48.1186 17.2087 48.1186 15.7095C48.1186 14.2104 46.9032 12.9952 45.404 12.9952C45.0772 12.9952 44.7636 13.0528 44.4729 13.1588C40.5858 9.81477 35.5297 7.79271 30.0001 7.79271C17.7349 7.79271 7.79224 17.7356 7.79224 30.0008C7.79224 42.2661 17.7349 52.209 30.0001 52.209C42.265 52.209 52.2079 42.2661 52.2079 30.0008C52.2079 27.9261 51.9216 25.9179 51.3894 24.0129Z" fill="white"/>
</svg>
