<svg width="80" height="80" viewBox="0 0 80 80" fill="none" xmlns="http://www.w3.org/2000/svg">
<rect width="80.0003" height="80.0003" rx="10.5894" fill="#2D1E7B"/>
<path d="M43.6792 24.8234L36.5004 24.8234L26.1357 51.7236H32.6285L34.3228 47.1665H44.1166L42.3431 42.1248H35.8955L40.0898 30.5503L47.5515 51.7236H54.0443L43.6792 24.8234Z" fill="white"/>
<path d="M68.5195 32.0163C68.5021 31.9245 68.477 31.8357 68.4438 31.7508C68.4357 31.7214 68.4083 31.6662 68.4083 31.6662C68.1743 31.1578 67.6609 30.8038 67.0645 30.8038C66.2469 30.8038 65.584 31.4666 65.584 32.2843C65.584 32.451 65.6122 32.6101 65.6628 32.7587L65.6589 32.7602C66.3117 35.0869 66.6495 37.5174 66.6495 40.0004C66.6495 47.1185 63.877 53.8108 58.8442 58.8444C53.8107 63.8783 47.1184 66.65 40.0002 66.65C32.8821 66.65 26.1894 63.8775 21.1562 58.8444C16.1223 53.8108 13.3506 47.1185 13.3506 40.0004C13.3506 32.8822 16.1227 26.1899 21.1562 21.1564C26.1894 16.1224 32.8821 13.3511 40.0002 13.3511C46.3567 13.3511 52.3719 15.5631 57.1708 19.6203C57.0094 20.0303 56.9198 20.4773 56.9198 20.9452C56.9198 22.9441 58.5404 24.5643 60.5389 24.5643C62.5378 24.5643 64.1584 22.9441 64.1584 20.9452C64.1584 18.9463 62.5378 17.3261 60.5389 17.3261C60.1031 17.3261 59.685 17.4029 59.2974 17.5442C54.1145 13.0855 47.3731 10.3894 40.0002 10.3894C23.6465 10.3894 10.3896 23.6467 10.3896 40.0004C10.3896 56.354 23.6465 69.6113 40.0002 69.6113C56.3535 69.6113 69.6108 56.354 69.6108 40.0004C69.6108 37.234 69.229 34.5565 68.5195 32.0163Z" fill="white"/>
</svg>
