<svg width="160" height="160" viewBox="0 0 160 160" fill="none" xmlns="http://www.w3.org/2000/svg">
<rect width="160" height="160" rx="20" fill="#1C78C0"/>
<path d="M134.406 113.218C128.729 110.666 122.06 113.251 119.537 118.978C119.438 119.196 119.366 119.422 119.28 119.647H33.8083L81.3738 36.5469L116.921 98.2655L123.696 94.2954L81.3541 20.7792L20.2397 127.554H119.28C120.299 130.318 122.369 132.691 125.247 133.983C126.732 134.652 128.282 134.964 129.813 134.964C134.13 134.964 138.257 132.452 140.123 128.223C142.639 122.497 140.083 115.77 134.406 113.218ZM134.748 125.811C133.539 128.548 130.345 129.788 127.638 128.568C124.925 127.349 123.702 124.134 124.905 121.397C125.798 119.375 127.77 118.176 129.833 118.176C130.562 118.176 131.305 118.328 132.014 118.646C134.728 119.852 135.957 123.074 134.748 125.811Z" fill="white"/>
<path d="M78.4352 111.03H72.6595V107.517C71.1154 110.361 67.9023 111.785 64.5053 111.785C56.7452 111.785 52.2114 105.695 52.2114 98.8015C52.2114 91.1132 57.7177 85.864 64.5053 85.864C68.9142 85.864 71.6016 88.2235 72.6595 90.1787V86.6195H78.4352V111.03ZM57.9871 98.9407C57.9871 101.963 60.1489 106.364 65.3463 106.364C68.566 106.364 70.6817 104.674 71.779 102.453C72.3507 101.386 72.6135 100.233 72.7055 99.0269C72.7515 97.8736 72.5281 96.6674 72.0419 95.6003C71.03 93.2872 68.7828 91.2855 65.3003 91.2855C60.6285 91.2855 57.9805 95.1098 57.9805 98.8877V98.9407H57.9871Z" fill="white"/>
<path d="M90.381 98.1853L82.2267 86.6263H89.1917L93.9095 94.1423L98.6272 86.6263H105.5L97.3919 98.1853L106.427 111.037H99.3303L93.9095 102.633L88.4426 111.037H81.4316L90.381 98.1853Z" fill="white"/>
</svg>
