<svg xmlns="http://www.w3.org/2000/svg" width="60" height="60" fill="none" viewBox="0 0 60 60"><rect width="60" height="60" fill="#1C78C0" rx="10"/><path fill="#fff" d="M50.4025 42.4575C48.2736 41.5006 45.7726 42.4699 44.8264 44.6173C44.7894 44.6993 44.7623 44.7839 44.7303 44.8684H12.6783L30.5154 13.7058L43.8457 36.8503L46.3861 35.3615L30.508 7.79297L7.59009 47.8335H44.7303C45.1122 48.8699 45.8884 49.7597 46.9676 50.2444C47.5245 50.4954 48.106 50.6122 48.6801 50.6122C50.299 50.6122 51.8464 49.6702 52.5462 48.0845C53.4899 45.9371 52.5314 43.4144 50.4025 42.4575ZM50.5306 47.1798C50.0772 48.2063 48.8797 48.6711 47.8645 48.2138C46.8469 47.7564 46.3886 46.551 46.8395 45.5245C47.1746 44.7665 47.9138 44.3166 48.6875 44.3166C48.961 44.3166 49.2395 44.3737 49.5056 44.4931C50.5232 44.9454 50.984 46.1533 50.5306 47.1798Z"/><path fill="#fff" d="M29.4135 41.6365H27.2476V40.3192C26.6686 41.3854 25.4637 41.9198 24.1898 41.9198C21.2798 41.9198 19.5796 39.6357 19.5796 37.0508C19.5796 34.1677 21.6444 32.1992 24.1898 32.1992C25.8431 32.1992 26.8509 33.084 27.2476 33.8172V32.4826H29.4135V41.6365ZM21.7455 37.103C21.7455 38.2364 22.5561 39.8867 24.5052 39.8867C25.7125 39.8867 26.506 39.2529 26.9174 38.4203C27.1318 38.0201 27.2304 37.5877 27.2649 37.1353C27.2821 36.7028 27.1983 36.2505 27.016 35.8503C26.6365 34.9829 25.7939 34.2323 24.4879 34.2323C22.736 34.2323 21.743 35.6664 21.743 37.0831V37.103H21.7455Z"/><path fill="#fff" d="M33.8931 36.819L30.8353 32.4844H33.4471L35.2163 35.3029L36.9855 32.4844H39.5628L36.5222 36.819L39.9103 41.6383H37.2491L35.2163 38.4867L33.1662 41.6383H30.5371L33.8931 36.819Z"/></svg>