<svg xmlns="http://www.w3.org/2000/svg" width="80" height="80" fill="none" viewBox="0 0 80 80"><rect width="79.999" height="79.999" fill="#1C78C0" rx="10.589"/><path fill="#fff" d="M67.202 56.6087C64.3634 55.3328 61.0288 56.6253 59.7672 59.4885C59.718 59.5978 59.6818 59.7105 59.6391 59.8232H16.9034L40.686 18.2734L58.4597 49.1325L61.8469 47.1475L40.6761 10.3896L10.1191 63.7767H59.6391C60.1483 65.1586 61.1832 66.3449 62.6222 66.9912C63.3647 67.3259 64.14 67.4816 64.9055 67.4816C67.064 67.4816 69.1272 66.2256 70.0602 64.1114C71.3185 61.2482 70.0405 57.8845 67.202 56.6087ZM67.3728 62.9051C66.7683 64.2738 65.1716 64.8935 63.8181 64.2837C62.4612 63.6739 61.8501 62.0667 62.4514 60.6981C62.8982 59.6873 63.8838 59.0875 64.9154 59.0875C65.28 59.0875 65.6513 59.1637 66.0061 59.3228C67.3629 59.9259 67.9773 61.5365 67.3728 62.9051Z"/><path fill="#fff" d="M39.2182 55.5145H36.3304V53.7582C35.5584 55.1798 33.9518 55.8923 32.2533 55.8923C28.3733 55.8923 26.1064 52.8469 26.1064 49.4004C26.1064 45.5563 28.8596 42.9316 32.2533 42.9316C34.4578 42.9316 35.8015 44.1114 36.3304 45.089V43.3094H39.2182V55.5145ZM28.9943 49.47C28.9943 50.9811 30.0751 53.1816 32.6738 53.1816C34.2837 53.1816 35.3415 52.3365 35.8902 51.2264C36.176 50.6928 36.3074 50.1162 36.3534 49.5131C36.3764 48.9364 36.2647 48.3333 36.0216 47.7998C35.5157 46.6432 34.3921 45.6424 32.6508 45.6424C30.315 45.6424 28.991 47.5545 28.991 49.4435V49.47H28.9943Z"/><path fill="#fff" d="M45.1905 49.092L41.1133 43.3125H44.5958L46.9547 47.0705L49.3136 43.3125H52.75L48.6959 49.092L53.2133 55.5176H49.6651L46.9547 51.3156L44.2213 55.5176H40.7158L45.1905 49.092Z"/></svg>