<svg xmlns="http://www.w3.org/2000/svg" width="60" height="60" fill="none" viewBox="0 0 60 60"><rect width="60" height="60" fill="#fff" rx="10"/><rect width="59" height="59" x=".5" y=".5" stroke="#000" stroke-opacity=".1" rx="9.5"/><circle cx="30" cy="30" r="21.375" fill="#FC521F"/><path fill="#fff" fill-rule="evenodd" d="M35.0233 39.8305L31.6268 37.8708L41.8451 31.9767C42.2366 31.7504 42.6056 31.4915 42.9492 31.2021C44.2773 33.0932 44.4079 35.5841 43.2239 37.6342C42.1541 39.4847 40.1583 40.6343 38.018 40.6343C36.9707 40.6343 35.9359 40.3563 35.0233 39.8305ZM34.2051 41.2466C34.5971 41.4732 35.0057 41.6634 35.4287 41.8163C34.4536 43.9108 32.3606 45.2682 29.9899 45.2682C26.6808 45.2682 23.9871 42.5773 23.9871 39.2704V27.4814L29.1717 30.473V37.871C29.1717 38.163 29.3279 38.433 29.5805 38.579L34.2051 41.2466ZM21.9778 40.6334C19.8369 40.6334 17.8445 39.4849 16.7742 37.6351C15.9737 36.2478 15.7595 34.6318 16.1753 33.0836C16.5909 31.5353 17.5828 30.2418 18.9722 29.441L22.3677 27.4819L22.3682 39.2684C22.3682 39.7205 22.407 40.1691 22.4859 40.6128C22.3168 40.627 22.1469 40.6334 21.9778 40.6334ZM35.191 26.0651L30.0084 29.0552L23.5959 25.3566C23.4697 25.284 23.3286 25.2471 23.1863 25.2471C23.0459 25.2471 22.9047 25.284 22.7778 25.3566L18.154 28.0243C17.7622 28.2493 17.3922 28.5077 17.0485 28.7984C15.7209 26.9075 15.5914 24.4169 16.7742 22.366C17.8444 20.5157 19.8382 19.3651 21.9798 19.3651C23.0257 19.3651 24.0611 19.6442 24.9745 20.1703L35.191 26.0651ZM29.9899 14.7324C33.3006 14.7324 35.9925 17.4233 35.9925 20.7314V24.6502L25.7773 18.7571C25.3853 18.53 24.9764 18.3393 24.5521 18.1858C25.5272 16.0905 27.6208 14.7324 29.9899 14.7324ZM43.2238 22.368C44.8777 25.2325 43.8925 28.9081 41.0256 30.5613L30.8091 36.4557V30.4745L37.2207 26.7754C37.4741 26.6294 37.6303 26.3594 37.6303 26.0671V20.7319C37.6308 20.2813 37.59 19.8322 37.5127 19.3901C37.6805 19.3754 37.8496 19.3684 38.0192 19.3684C40.1603 19.3684 42.1546 20.518 43.2238 22.368Z" clip-rule="evenodd"/></svg>