<svg width="80" height="80" viewBox="0 0 80 80" fill="none" xmlns="http://www.w3.org/2000/svg">
<rect width="80.0004" height="80.0004" rx="10.5895" fill="white"/>
<rect x="0.264736" y="0.264736" width="79.4709" height="79.4709" rx="10.3247" stroke="black" stroke-opacity="0.1" stroke-width="0.529473"/>
<circle cx="40.0001" cy="40.0001" r="28.5001" fill="#FC521F"/>
<path fill-rule="evenodd" clip-rule="evenodd" d="M46.6981 53.1068L42.1693 50.494L55.7938 42.6351C56.3158 42.3333 56.8078 41.9881 57.2661 41.6023C59.0369 44.1238 59.211 47.445 57.6322 50.1784C56.2058 52.6459 53.5448 54.1786 50.691 54.1786C49.2947 54.1786 47.9148 53.8079 46.6981 53.1068ZM45.6068 54.9952C46.1295 55.2973 46.6743 55.5509 47.2383 55.7549C45.9382 58.5476 43.1475 60.3573 39.9865 60.3573C35.5743 60.3573 31.9827 56.7695 31.9827 52.3603V36.6416L38.8956 40.6304V50.4944C38.8956 50.8837 39.1038 51.2437 39.4407 51.4384L45.6068 54.9952ZM29.3035 54.1775C26.4491 54.1775 23.7925 52.6461 22.3654 50.1797C21.298 48.3299 21.0125 46.1753 21.5669 44.1109C22.121 42.0466 23.4436 40.3219 25.2961 39.2542L29.8235 36.6421L29.8242 52.3574C29.8242 52.9603 29.8759 53.5584 29.981 54.1499C29.7555 54.1689 29.529 54.1775 29.3035 54.1775ZM46.9214 34.7528L40.0112 38.7396L31.4613 33.8082C31.293 33.7113 31.1048 33.6621 30.9152 33.6621C30.7279 33.6621 30.5397 33.7113 30.3704 33.8082L24.2053 37.365C23.683 37.6651 23.1896 38.0096 22.7314 38.3972C20.9612 35.876 20.7885 32.5551 22.3655 29.8207C23.7926 27.3536 26.4509 25.8194 29.3064 25.8194C30.701 25.8194 32.0816 26.1915 33.2993 26.8929L46.9214 34.7528ZM39.9865 19.6426C44.4008 19.6426 47.99 23.2304 47.99 27.6413V32.8663L34.3696 25.0088C33.8469 24.706 33.3018 24.4517 32.736 24.2471C34.0362 21.4534 36.8276 19.6426 39.9865 19.6426ZM57.6319 29.8236C59.8372 33.643 58.5235 38.5438 54.7009 40.748L41.0789 48.6072V40.6323L49.6278 35.7001C49.9657 35.5054 50.1739 35.1454 50.1739 34.7558V27.6421C50.1746 27.0413 50.1201 26.4425 50.017 25.853C50.2408 25.8334 50.4663 25.8241 50.6925 25.8241C53.5473 25.8241 56.2063 27.3568 57.6319 29.8236Z" fill="white"/>
</svg>
