<svg width="160" height="160" viewBox="0 0 160 160" fill="none" xmlns="http://www.w3.org/2000/svg">
<rect width="160" height="160" rx="20" fill="white"/>
<circle cx="80" cy="80" r="57" fill="#FC521F"/>
<path fill-rule="evenodd" clip-rule="evenodd" d="M93.395 106.214L84.3376 100.988L111.586 85.2705C112.63 84.6669 113.614 83.9765 114.531 83.2048C118.072 88.2479 118.421 94.8902 115.263 100.357C112.41 105.292 107.088 108.357 101.381 108.357C98.5881 108.357 95.8285 107.616 93.395 106.214ZM91.2131 109.99C92.2585 110.594 93.348 111.102 94.4762 111.509C91.8758 117.095 86.2945 120.714 79.9725 120.714C71.1482 120.714 63.965 113.539 63.965 104.72V73.283L77.7908 81.2607V100.989C77.7908 101.767 78.2073 102.487 78.881 102.877L91.2131 109.99ZM58.6069 108.355C52.898 108.355 47.5849 105.292 44.7308 100.359C42.5959 96.66 42.025 92.3508 43.1338 88.222C44.2419 84.0933 46.8871 80.644 50.5921 78.5087L59.6468 73.2844L59.6482 104.715C59.6482 105.921 59.7516 107.117 59.9619 108.3C59.5109 108.338 59.0579 108.355 58.6069 108.355ZM93.8421 69.5063L80.0218 77.4798L62.922 67.617C62.5855 67.4233 62.209 67.3248 61.8297 67.3248C61.4553 67.3248 61.0788 67.4233 60.7402 67.617L48.4101 74.7306C47.3654 75.3307 46.3787 76.0198 45.4622 76.7949C41.922 71.7526 41.5765 65.1109 44.7306 59.642C47.5847 54.7078 52.9012 51.6395 58.6122 51.6395C61.4015 51.6395 64.1625 52.3837 66.5981 53.7866L93.8421 69.5063ZM79.9727 39.2857C88.8012 39.2857 95.9795 46.4613 95.9795 55.2831V65.733L68.739 50.0182C67.6936 49.4125 66.6034 48.904 65.4718 48.4947C68.0721 42.9073 73.6549 39.2857 79.9727 39.2857ZM115.263 59.6473C119.673 67.286 117.046 77.0876 109.401 81.496L82.157 97.2144V81.2645L99.2548 71.4002C99.9305 71.0109 100.347 70.2909 100.347 69.5116V55.2843C100.348 54.0826 100.239 52.8851 100.033 51.7062C100.481 51.6669 100.932 51.6483 101.384 51.6483C107.094 51.6483 112.412 54.7138 115.263 59.6473Z" fill="white"/>
<rect x="0.5" y="0.5" width="159" height="159" rx="19.5" stroke="black" stroke-opacity="0.2"/>
</svg>
