<svg xmlns="http://www.w3.org/2000/svg" width="160" height="160" fill="none" viewBox="0 0 160 160"><rect width="160" height="160" fill="#66BF3C" rx="20"/><path fill="#fff" fill-rule="evenodd" d="M80.5373 141.998L80.5226 141.999C80.5072 142 80.4916 142 80.4759 142H79.5241C79.5034 142 79.483 141.999 79.4627 141.998C64.3095 141.869 50.453 136.304 39.7481 127.159V141.184C39.7481 141.635 39.3828 142 38.9323 142H37.9805C37.53 142 37.1647 141.635 37.1647 141.184V124.878H18.8158C18.3652 124.878 18 124.513 18 124.062V123.11C18 122.66 18.3652 122.295 18.8158 122.295H34.6657C24.4403 111.339 18.1393 96.6733 18.0023 80.5373C18.0008 80.517 18 80.4966 18 80.4759V79.5241C18 79.5034 18.0008 79.483 18.0023 79.4627C18.1307 64.3378 23.6748 50.5048 32.7902 39.8081H18.8158C18.3652 39.8081 18 39.4429 18 38.9923V38.0406C18 37.59 18.3652 37.2248 18.8158 37.2248H35.1191C35.785 36.5263 36.4671 35.8433 37.1647 35.1764V18.8158C37.1647 18.3652 37.53 18 37.9805 18H38.9323C39.3828 18 39.7481 18.3652 39.7481 18.8158V32.8415C50.453 23.6956 64.3095 18.1309 79.4627 18.0023C79.483 18.0008 79.5034 18 79.5241 18H80.4759C80.4966 18 80.517 18.0008 80.5373 18.0023C95.6339 18.1304 109.443 23.6541 120.132 32.7391V18.8158C120.132 18.3652 120.497 18 120.948 18H121.899C122.35 18 122.715 18.3652 122.715 18.8158V35.0619C123.455 35.765 124.177 36.4862 124.881 37.2248H141.184C141.635 37.2248 142 37.59 142 38.0406V38.9923C142 39.4429 141.635 39.8081 141.184 39.8081H127.21C136.325 50.5048 141.869 64.3378 141.998 79.4627C141.999 79.483 142 79.5034 142 79.5241V80.4759C142 80.4841 142 80.4922 142 80.5003C141.999 80.5127 141.999 80.5251 141.998 80.5373C141.861 96.6733 135.56 111.339 125.334 122.295H141.184C141.635 122.295 142 122.66 142 123.11V124.062C142 124.513 141.635 124.878 141.184 124.878H122.778L122.715 124.938V141.184C122.715 141.635 122.35 142 121.899 142H120.948C120.497 142 120.132 141.635 120.132 141.184V127.261C109.443 136.346 95.6339 141.87 80.5373 141.998ZM78.7084 139.102V124.878H41.5184C51.5559 133.493 64.5165 138.798 78.7084 139.102ZM37.1647 81.2915V120.742C27.3517 110.427 21.2252 96.5733 20.8976 81.2915H37.1647ZM20.8976 78.7084H37.1647V39.8082H36.6482C27.1371 50.0623 21.2194 63.6966 20.8976 78.7084ZM39.7481 37.2249V36.7041C50.009 27.1603 63.6671 21.2201 78.7083 20.8976V37.2249H39.7481ZM81.2917 20.8976V37.2249H120.132V36.5926C109.885 27.1141 96.2742 21.2188 81.2917 20.8976ZM122.715 39.8082H123.352C132.863 50.0623 138.781 63.6966 139.102 78.7084H122.715V39.8082ZM139.102 81.2915H122.715V120.868C132.598 110.54 138.774 96.6356 139.102 81.2915ZM81.2917 124.878H118.482C108.444 133.493 95.4835 138.798 81.2917 139.102V124.878ZM120.132 39.8082H81.2917V78.7084H120.132V39.8082ZM81.2917 81.2915H120.132V122.294H81.2917V81.2915ZM78.7083 122.294V81.2915H39.7481V122.294H78.7083ZM78.7083 39.8082V78.7084H39.7481V39.8082H78.7083Z" clip-rule="evenodd" opacity=".3"/><path fill="#fff" fill-rule="evenodd" d="M68.0143 92.5995L47.2663 71.8515C45.992 70.5772 45.992 68.511 47.2663 67.2367L90.6836 23.8194C91.9579 22.5451 94.0241 22.5451 95.2984 23.8194L113.739 42.26C115.013 43.5344 115.013 45.6005 113.739 46.8748L68.0143 92.5995Z" clip-rule="evenodd" opacity=".9"/><path fill="#fff" fill-rule="evenodd" d="M92.0306 68.5834L112.779 89.3314C114.053 90.6057 114.053 92.6718 112.779 93.9462L69.3613 137.363C68.0869 138.638 66.0208 138.638 64.7465 137.363L46.3059 118.923C45.0315 117.649 45.0315 115.582 46.3059 114.308L92.0306 68.5834Z" clip-rule="evenodd"/></svg>