<svg xmlns="http://www.w3.org/2000/svg" width="160" height="160" fill="none" viewBox="0 0 160 160"><rect width="160" height="160" fill="#FFBE3C" rx="20"/><path fill="#85CC63" fill-rule="evenodd" d="M65.3333 38.8334H94.6667C104.24 38.8334 112 46.5938 112 56.1667C112 65.7396 104.24 73.5 94.6667 73.5H65.3333C55.7604 73.5 48 65.7396 48 56.1667C48 46.5938 55.7604 38.8334 65.3333 38.8334Z" clip-rule="evenodd"/><circle cx="94.667" cy="56.167" r="14.667" fill="#fff"/><path fill="#FD754C" fill-rule="evenodd" d="M65.3333 86.5H94.6667C104.24 86.5 112 94.2604 112 103.833C112 113.406 104.24 121.167 94.6667 121.167H65.3333C55.7604 121.167 48 113.406 48 103.833C48 94.2604 55.7604 86.5 65.3333 86.5Z" clip-rule="evenodd"/><circle r="14.667" fill="#fff" transform="matrix(-1 0 0 1 65.3333 103.833)"/></svg>