<svg xmlns="http://www.w3.org/2000/svg" width="160" height="160" fill="none" viewBox="0 0 160 160"><rect width="160" height="160" fill="#fff" rx="20"/><rect width="140" height="12" x="10" y="28" fill="#D7EEFE" rx="6"/><mask id="mask0_2014_25579" style="mask-type:alpha" width="140" height="13" x="10" y="28" maskUnits="userSpaceOnUse"><rect width="140" height="12" x="10" y="28" fill="#fff" rx="6"/></mask><g mask="url(#mask0_2014_25579)"><rect width="45" height="12" x="-3" y="28" fill="#FC521F" opacity=".8" rx="6"/></g><g filter="url(#filter0_d_2014_25579)"><circle cx="42" cy="34" r="12" fill="#fff"/><circle cx="42" cy="34" r="12.5" stroke="#000" stroke-opacity=".05"/></g><rect width="140" height="12" x="10" y="74" fill="#D7EEFE" rx="6"/><mask id="mask1_2014_25579" style="mask-type:alpha" width="140" height="13" x="10" y="74" maskUnits="userSpaceOnUse"><rect width="140" height="12" x="10" y="74" fill="#fff" rx="6"/></mask><g mask="url(#mask1_2014_25579)"><rect width="96" height="12" x="-16.5" y="74" fill="#FFAE00" opacity=".8" rx="6"/></g><g filter="url(#filter1_d_2014_25579)"><circle cx="80" cy="80" r="12" fill="#fff"/><circle cx="80" cy="80" r="12.5" stroke="#000" stroke-opacity=".05"/></g><rect width="140" height="12" x="10" y="120" fill="#D7EEFE" rx="6"/><mask id="mask2_2014_25579" style="mask-type:alpha" width="140" height="13" x="10" y="120" maskUnits="userSpaceOnUse"><rect width="140" height="12" x="10" y="120" fill="#fff" rx="6"/></mask><g mask="url(#mask2_2014_25579)"><rect width="192" height="12" x="-74" y="120" fill="#66BF3C" opacity=".8" rx="6"/></g><g filter="url(#filter2_d_2014_25579)"><circle cx="118" cy="126" r="12" fill="#fff"/><circle cx="118" cy="126" r="12.5" stroke="#000" stroke-opacity=".05"/></g><rect width="159" height="159" x=".5" y=".5" stroke="#000" stroke-opacity=".2" rx="19.5"/><defs><filter id="filter0_d_2014_25579" width="32" height="32" x="26" y="19" color-interpolation-filters="sRGB" filterUnits="userSpaceOnUse"><feFlood flood-opacity="0" result="BackgroundImageFix"/><feColorMatrix in="SourceAlpha" result="hardAlpha" type="matrix" values="0 0 0 0 0 0 0 0 0 0 0 0 0 0 0 0 0 0 127 0"/><feOffset dy="1"/><feGaussianBlur stdDeviation="1.5"/><feColorMatrix type="matrix" values="0 0 0 0 0 0 0 0 0 0 0 0 0 0 0 0 0 0 0.15 0"/><feBlend in2="BackgroundImageFix" mode="normal" result="effect1_dropShadow_2014_25579"/><feBlend in="SourceGraphic" in2="effect1_dropShadow_2014_25579" mode="normal" result="shape"/></filter><filter id="filter1_d_2014_25579" width="32" height="32" x="64" y="65" color-interpolation-filters="sRGB" filterUnits="userSpaceOnUse"><feFlood flood-opacity="0" result="BackgroundImageFix"/><feColorMatrix in="SourceAlpha" result="hardAlpha" type="matrix" values="0 0 0 0 0 0 0 0 0 0 0 0 0 0 0 0 0 0 127 0"/><feOffset dy="1"/><feGaussianBlur stdDeviation="1.5"/><feColorMatrix type="matrix" values="0 0 0 0 0 0 0 0 0 0 0 0 0 0 0 0 0 0 0.15 0"/><feBlend in2="BackgroundImageFix" mode="normal" result="effect1_dropShadow_2014_25579"/><feBlend in="SourceGraphic" in2="effect1_dropShadow_2014_25579" mode="normal" result="shape"/></filter><filter id="filter2_d_2014_25579" width="32" height="32" x="102" y="111" color-interpolation-filters="sRGB" filterUnits="userSpaceOnUse"><feFlood flood-opacity="0" result="BackgroundImageFix"/><feColorMatrix in="SourceAlpha" result="hardAlpha" type="matrix" values="0 0 0 0 0 0 0 0 0 0 0 0 0 0 0 0 0 0 127 0"/><feOffset dy="1"/><feGaussianBlur stdDeviation="1.5"/><feColorMatrix type="matrix" values="0 0 0 0 0 0 0 0 0 0 0 0 0 0 0 0 0 0 0.15 0"/><feBlend in2="BackgroundImageFix" mode="normal" result="effect1_dropShadow_2014_25579"/><feBlend in="SourceGraphic" in2="effect1_dropShadow_2014_25579" mode="normal" result="shape"/></filter></defs></svg>