<svg xmlns="http://www.w3.org/2000/svg" width="60" height="60" fill="none" viewBox="0 0 60 60"><rect width="60" height="60" fill="#3C3C3C" rx="10"/><path fill="#fff" fill-rule="evenodd" d="M30 8.625C18.1855 8.625 8.625 18.1855 8.625 30C8.625 41.8145 18.1855 51.375 30 51.375C41.8145 51.375 51.375 41.8145 51.375 30C51.375 18.1855 41.7368 8.625 30 8.625ZM19.9732 34.5859C20.6727 35.5186 21.6055 35.9073 22.9268 35.9073C23.5486 35.9073 24.1705 35.8295 24.7145 35.5964C25.2586 35.3632 25.8805 35.0523 26.6577 34.5859L28.8341 37.695C27.0464 39.1718 25.0255 39.8714 22.6936 39.8714C20.8282 39.8714 19.2736 39.4827 17.8745 38.7055C16.5532 37.9282 15.465 36.7623 14.7655 35.2855C14.0659 33.8086 13.6773 32.0986 13.6773 30.0777C13.6773 28.1345 14.0659 26.3468 14.7655 24.87C15.465 23.3155 16.5532 22.1495 17.8745 21.2945C19.1959 20.4395 20.8282 20.0509 22.6159 20.0509C23.8595 20.0509 25.0255 20.2064 25.9582 20.595C26.9686 20.9836 27.9014 21.5277 28.8341 22.305L26.6577 25.2586C26.0359 24.7923 25.4141 24.4814 24.87 24.2482C24.3259 24.015 23.6264 23.9373 23.0045 23.9373C20.3618 23.9373 19.0405 25.9582 19.0405 30.0777C18.9627 32.1764 19.3514 33.6532 19.9732 34.5859ZM41.3482 39.405C40.5709 41.8145 39.405 43.6023 37.7727 44.9236C36.1405 46.245 33.9641 46.9445 31.2436 47.1777L30.6995 43.5245C32.4873 43.2914 33.8086 42.9027 34.6636 42.2809C34.9745 42.0477 35.5964 41.3482 35.5964 41.3482L29.145 20.6727H34.5082L38.2391 36.1405L42.2032 20.6727H47.4109L41.3482 39.405Z" clip-rule="evenodd"/></svg>