<svg xmlns="http://www.w3.org/2000/svg" width="80" height="80" fill="none" viewBox="0 0 80 80"><rect width="80" height="80" x="-.001" y=".001" fill="#3C3C3C" rx="10.589"/><path fill="#fff" fill-rule="evenodd" d="M39.9991 11.501C24.2463 11.501 11.499 24.2483 11.499 40.0011C11.499 55.7539 24.2463 68.5012 39.9991 68.5012C55.7519 68.5012 68.4993 55.7539 68.4993 40.0011C68.4993 24.2483 55.6483 11.501 39.9991 11.501ZM26.63 46.1157C27.5627 47.3593 28.8064 47.8775 30.5682 47.8775C31.3973 47.8775 32.2264 47.7738 32.9518 47.4629C33.6773 47.152 34.5064 46.7375 35.5428 46.1157L38.4446 50.2611C36.0609 52.2302 33.3664 53.163 30.2573 53.163C27.77 53.163 25.6973 52.6448 23.8318 51.6084C22.07 50.572 20.6191 49.0175 19.6863 47.0484C18.7536 45.0793 18.2354 42.7993 18.2354 40.1047C18.2354 37.5138 18.7536 35.1302 19.6863 33.1611C20.6191 31.0883 22.07 29.5338 23.8318 28.3938C25.5936 27.2538 27.77 26.7356 30.1536 26.7356C31.8118 26.7356 33.3664 26.9429 34.61 27.461C35.9573 27.9792 37.2009 28.7047 38.4446 29.741L35.5428 33.6792C34.7137 33.0574 33.8846 32.6429 33.1591 32.332C32.4337 32.0211 31.5009 31.9174 30.6718 31.9174C27.1482 31.9174 25.3864 34.612 25.3864 40.1047C25.2827 42.9029 25.8009 44.872 26.63 46.1157ZM55.1301 52.5411C54.0937 55.7539 52.5392 58.1375 50.3628 59.8994C48.1864 61.6612 45.2846 62.5939 41.6573 62.9048L40.9319 58.0339C43.3155 57.723 45.0773 57.2048 46.2173 56.3757C46.6319 56.0648 47.461 55.1321 47.461 55.1321L38.8591 27.5647H46.0101L50.9846 48.1884L56.2701 27.5647H63.2138L55.1301 52.5411Z" clip-rule="evenodd"/></svg>