<svg xmlns="http://www.w3.org/2000/svg" width="160" height="160" fill="none" viewBox="0 0 160 160"><rect width="160" height="160" fill="#3C3C3C" rx="20"/><path fill="#fff" fill-rule="evenodd" d="M80 23C48.4945 23 23 48.4945 23 80C23 111.505 48.4945 137 80 137C111.505 137 137 111.505 137 80C137 48.4945 111.298 23 80 23ZM53.2618 92.2291C55.1273 94.7164 57.6145 95.7527 61.1382 95.7527C62.7964 95.7527 64.4545 95.5455 65.9055 94.9236C67.3564 94.3018 69.0145 93.4727 71.0873 92.2291L76.8909 100.52C72.1236 104.458 66.7345 106.324 60.5164 106.324C55.5418 106.324 51.3964 105.287 47.6655 103.215C44.1418 101.142 41.24 98.0327 39.3745 94.0945C37.5091 90.1564 36.4727 85.5964 36.4727 80.2073C36.4727 75.0255 37.5091 70.2582 39.3745 66.32C41.24 62.1745 44.1418 59.0655 47.6655 56.7855C51.1891 54.5055 55.5418 53.4691 60.3091 53.4691C63.6255 53.4691 66.7345 53.8836 69.2218 54.92C71.9164 55.9564 74.4036 57.4073 76.8909 59.48L71.0873 67.3564C69.4291 66.1127 67.7709 65.2836 66.32 64.6618C64.8691 64.04 63.0036 63.8327 61.3455 63.8327C54.2982 63.8327 50.7745 69.2218 50.7745 80.2073C50.5673 85.8036 51.6036 89.7418 53.2618 92.2291ZM110.262 105.08C108.189 111.505 105.08 116.273 100.727 119.796C96.3745 123.32 90.5709 125.185 83.3164 125.807L81.8655 116.065C86.6327 115.444 90.1564 114.407 92.4364 112.749C93.2655 112.127 94.9236 110.262 94.9236 110.262L77.72 55.1273H92.0218L101.971 96.3745L112.542 55.1273H126.429L110.262 105.08Z" clip-rule="evenodd"/></svg>