<svg width="161" height="160" viewBox="0 0 161 160" fill="none" xmlns="http://www.w3.org/2000/svg">
<rect x="0.28125" width="160" height="160" rx="20" fill="#3C3C3C"/>
<path fill-rule="evenodd" clip-rule="evenodd" d="M80.2812 23C48.7758 23 23.2812 48.4945 23.2812 80C23.2812 111.505 48.7758 137 80.2812 137C111.787 137 137.281 111.505 137.281 80C137.281 48.4945 111.579 23 80.2812 23ZM53.5431 92.2291C55.4085 94.7164 57.8958 95.7527 61.4194 95.7527C63.0776 95.7527 64.7358 95.5455 66.1867 94.9236C67.6376 94.3018 69.2958 93.4727 71.3685 92.2291L77.1722 100.52C72.4049 104.458 67.0158 106.324 60.7976 106.324C55.8231 106.324 51.6776 105.287 47.9467 103.215C44.4231 101.142 41.5212 98.0327 39.6558 94.0945C37.7903 90.1564 36.754 85.5964 36.754 80.2073C36.754 75.0255 37.7903 70.2582 39.6558 66.32C41.5212 62.1745 44.4231 59.0655 47.9467 56.7855C51.4703 54.5055 55.8231 53.4691 60.5903 53.4691C63.9067 53.4691 67.0158 53.8836 69.5031 54.92C72.1976 55.9564 74.6849 57.4073 77.1722 59.48L71.3685 67.3564C69.7103 66.1127 68.0522 65.2836 66.6013 64.6618C65.1503 64.04 63.2849 63.8327 61.6267 63.8327C54.5794 63.8327 51.0558 69.2218 51.0558 80.2073C50.8485 85.8036 51.8849 89.7418 53.5431 92.2291ZM110.543 105.08C108.47 111.505 105.361 116.273 101.009 119.796C96.6558 123.32 90.8522 125.185 83.5976 125.807L82.1467 116.065C86.914 115.444 90.4376 114.407 92.7176 112.749C93.5467 112.127 95.2049 110.262 95.2049 110.262L78.0013 55.1273H92.3031L102.252 96.3745L112.823 55.1273H126.71L110.543 105.08Z" fill="white"/>
</svg>
