<svg xmlns="http://www.w3.org/2000/svg" width="160" height="160" fill="none" viewBox="0 0 160 160"><rect width="160" height="160" fill="#1EA7FD" rx="20"/><path fill="#fff" fill-rule="evenodd" d="M142.147 99.532C142.147 97.5707 140.557 95.9807 138.596 95.9807H21.4043C19.443 95.9807 17.853 97.5707 17.853 99.532V108.41C17.853 110.371 19.443 111.961 21.4043 111.961H138.596C140.557 111.961 142.147 110.371 142.147 108.41V99.532ZM21.4043 97.7563H138.596L138.728 97.7611C139.647 97.8289 140.371 98.5958 140.371 99.5319V108.41L140.366 108.543C140.299 109.461 139.532 110.186 138.596 110.186H21.4043L21.2718 110.181C20.353 110.113 19.6287 109.346 19.6287 108.41V99.5319L19.6335 99.3994C19.7013 98.4806 20.4682 97.7563 21.4043 97.7563Z" clip-rule="evenodd"/><path fill="#fff" fill-rule="evenodd" d="M75.5609 124.391C75.5609 122.429 73.971 120.839 72.0097 120.839H21.4043C19.443 120.839 17.853 122.429 17.853 124.391V133.269C17.853 135.23 19.443 136.82 21.4043 136.82H72.0097C73.971 136.82 75.5609 135.23 75.5609 133.269V124.391ZM21.4043 122.615H72.0097L72.1422 122.62C73.061 122.688 73.7853 123.455 73.7853 124.391V133.269L73.7804 133.401C73.7126 134.32 72.9458 135.044 72.0097 135.044H21.4043L21.2718 135.04C20.353 134.972 19.6287 134.205 19.6287 133.269V124.391L19.6335 124.258C19.7013 123.339 20.4682 122.615 21.4043 122.615Z" clip-rule="evenodd"/><path fill="#fff" fill-rule="evenodd" d="M142.147 124.391C142.147 122.429 140.557 120.839 138.596 120.839H87.9902C86.0289 120.839 84.439 122.429 84.439 124.391V133.269C84.439 135.23 86.0289 136.82 87.9902 136.82H138.596C140.557 136.82 142.147 135.23 142.147 133.269V124.391ZM87.9903 122.615H138.596L138.728 122.62C139.647 122.688 140.371 123.455 140.371 124.391V133.269L140.366 133.401C140.299 134.32 139.532 135.044 138.596 135.044H87.9903L87.8578 135.04C86.939 134.972 86.2147 134.205 86.2147 133.269V124.391L86.2196 124.258C86.2874 123.339 87.0542 122.615 87.9903 122.615Z" clip-rule="evenodd"/><rect width="14.205" height="14.205" x="123.503" y="64.907" stroke="#fff" stroke-width="1.776" rx="7.103"/><path fill="#fff" fill-rule="evenodd" d="M53.88 23.1799H40.4134L19.2373 79.8877H33.1517L37.4063 67.6541H56.4215L60.5241 79.8877H74.8209L53.88 23.1799ZM101.248 37.6907C99.1816 37.403 97.1401 37.2591 95.1234 37.2591C92.8861 37.2591 90.6619 37.483 88.4514 37.9307C86.2028 38.3861 84.1714 39.1525 82.3612 40.2308C80.5235 41.3255 79.0073 42.7786 77.8195 44.583C76.6137 46.4145 75.936 48.6927 75.7754 51.4043L75.7197 52.3446H88.2582L88.3339 51.5399L88.366 51.2409C88.5797 49.4775 89.1712 48.2639 90.1142 47.5477C91.1597 46.7537 92.6444 46.3436 94.5916 46.3436C95.5102 46.3436 96.3644 46.4045 97.154 46.5257C97.8778 46.6368 98.5013 46.8545 99.0309 47.1763C99.5287 47.4787 99.9268 47.902 100.233 48.4602C100.532 49.0059 100.693 49.7992 100.693 50.8413L100.698 51.0305C100.7 51.8298 100.473 52.364 100.026 52.7361C99.4277 53.2336 98.5841 53.627 97.4886 53.9044C96.3189 54.2005 94.9694 54.4241 93.4413 54.5739L92.4857 54.6735C91.2074 54.8145 89.9132 54.9887 88.6028 55.196C86.9498 55.4576 85.3099 55.8106 83.6832 56.2552C81.9908 56.7176 80.479 57.4147 79.1522 58.347C77.7953 59.3005 76.6906 60.573 75.8415 62.154C74.9808 63.7566 74.5582 65.7581 74.5582 68.1519C74.5582 70.325 74.9244 72.2201 75.665 73.8312C76.4057 75.4425 77.4408 76.7841 78.7654 77.846C80.0752 78.8961 81.5998 79.668 83.3321 80.1614C85.0342 80.6462 86.8633 80.8878 88.8175 80.8878C91.3374 80.8878 93.8061 80.5155 96.2206 79.7713L96.6301 79.6388L97.0337 79.4958C98.5028 78.9517 99.8524 78.1933 101.08 77.2226L101.376 76.9814L101.432 77.2869L101.54 77.792C101.655 78.2946 101.793 78.7898 101.953 79.2774L102.154 79.8876H115.328L114.493 78.5335L114.408 78.3891C114.022 77.6889 113.73 76.622 113.555 75.1981C113.357 73.5937 113.257 71.9117 113.257 70.1522V49.4565L113.253 49.072C113.198 46.6596 112.616 44.6708 111.492 43.1255C110.343 41.5461 108.863 40.311 107.063 39.4272C105.305 38.564 103.365 37.9855 101.248 37.6907ZM95.1234 39.0347C93.0048 39.0347 90.8986 39.2468 88.8038 39.671C86.7471 40.0876 84.9039 40.7829 83.2699 41.7563C81.6634 42.7133 80.3433 43.9785 79.3025 45.5593C78.5204 46.7474 77.9922 48.1841 77.7228 49.8755L77.6653 50.2704L77.6288 50.5689H86.6685L86.684 50.473C86.9783 48.7463 87.632 47.3963 88.6595 46.452L88.8565 46.2797L89.0403 46.1336C90.426 45.0812 92.2842 44.568 94.5916 44.568C95.5976 44.568 96.5415 44.6353 97.4233 44.7706C98.3709 44.916 99.2163 45.2112 99.9529 45.6588C100.721 46.1257 101.336 46.7795 101.79 47.6061C102.212 48.3753 102.431 49.3459 102.464 50.4863L102.468 50.8015C102.531 52.1928 102.098 53.3222 101.161 54.1012C100.341 54.7834 99.2601 55.2875 97.9244 55.6257C96.8031 55.9096 95.5437 56.1292 94.1454 56.2854L93.6145 56.341C92.062 56.4932 90.4839 56.6961 88.8803 56.9499C87.2917 57.2012 85.7154 57.5406 84.1512 57.968C82.6526 58.3775 81.3281 58.9883 80.173 59.7999C79.0481 60.5903 78.1269 61.6515 77.4058 62.9941C76.6964 64.315 76.3339 66.0321 76.3339 68.1519C76.3339 70.082 76.6515 71.7259 77.2784 73.0896C77.9052 74.4532 78.7695 75.5736 79.8761 76.4606C80.9975 77.3596 82.3092 78.0238 83.8185 78.4537C85.3579 78.8921 87.0236 79.1121 88.8175 79.1121C91.16 79.1121 93.4524 78.7664 95.6976 78.0744C97.754 77.4407 99.5542 76.3618 101.108 74.8308L101.396 74.5384L102.772 73.1046L102.922 75.0858C102.97 75.7176 103.054 76.3365 103.174 76.9428L103.27 77.3946L103.38 77.8418L103.455 78.1116H112.365L112.289 77.8781C112.131 77.3639 112.001 76.7886 111.897 76.1513L111.838 75.7616L111.792 75.4156C111.615 73.9772 111.513 72.4827 111.488 70.9321L111.482 70.1522V49.4565C111.482 47.2215 111 45.467 110.056 44.1702C109.078 42.826 107.823 41.7786 106.28 41.0211C104.696 40.2431 102.938 39.7188 101.003 39.4494C99.0172 39.1729 97.0574 39.0347 95.1234 39.0347ZM41.6446 24.9555H52.6428L72.2715 78.1116H61.8007L57.6987 65.8792H36.1437L31.8884 78.1116H21.7949L41.6446 24.9555ZM102.469 57.5414V63.6127C102.469 64.2701 102.403 65.1245 102.272 66.1834C102.131 67.3259 101.752 68.448 101.141 69.5456C100.506 70.6851 99.5369 71.6523 98.2482 72.4467C96.9242 73.2628 95.1221 73.6558 92.844 73.6558C91.9279 73.6558 91.0368 73.5738 90.1712 73.4094C89.2546 73.2354 88.4405 72.9263 87.7347 72.4796C86.995 72.0114 86.4081 71.3702 85.9821 70.569C85.5543 69.7644 85.3464 68.8019 85.3464 67.6903C85.3464 66.5286 85.5532 65.5412 85.9821 64.7346C86.3974 63.9536 86.9515 63.3015 87.6395 62.7865C88.3023 62.2905 89.0727 61.9004 89.9472 61.6147C90.7683 61.3465 91.6028 61.1319 92.4599 60.9692C93.0452 60.8646 93.6306 60.7716 94.216 60.6902L95.0941 60.5769C95.9336 60.4769 96.7347 60.3521 97.4976 60.2026C98.2452 60.056 98.9419 59.8736 99.5876 59.6556C100.079 59.4897 100.49 59.2742 100.826 59.0109L100.987 58.8752L102.469 57.5414ZM100.448 61.2322L100.693 61.1304L100.693 63.6127L100.691 63.8117C100.679 64.3636 100.619 65.0834 100.51 65.9658C100.398 66.875 100.093 67.7788 99.5898 68.6815C99.1103 69.5424 98.3576 70.2934 97.3164 70.9351C96.3105 71.5552 94.8204 71.8802 92.844 71.8802C92.0379 71.8802 91.2576 71.8084 90.5024 71.665C89.7983 71.5313 89.1941 71.3019 88.6843 70.9792C88.2085 70.678 87.833 70.2678 87.5499 69.7354C87.2686 69.2064 87.122 68.5277 87.122 67.6903C87.122 66.8003 87.2697 66.0951 87.5499 65.5682C87.8437 65.0156 88.2267 64.565 88.7035 64.208C89.2058 63.8321 89.8028 63.5298 90.4985 63.3026C91.2476 63.0579 92.0085 62.8622 92.7817 62.7154C93.6163 62.5663 94.4603 62.4406 95.3042 62.34L95.9591 62.2562C96.607 62.1674 97.2336 62.0637 97.8391 61.945C98.6616 61.7838 99.4337 61.5816 100.156 61.338L100.448 61.2322ZM46.3258 36.7206H47.7436L55.1836 58.6534H38.6378L46.3258 36.7206ZM41.1421 56.8768L47.0185 40.1105L52.7059 56.8768H41.1421Z" clip-rule="evenodd"/></svg>