<svg xmlns="http://www.w3.org/2000/svg" width="160" height="160" fill="none" viewBox="0 0 160 160"><rect width="160" height="160" fill="#242526" rx="20"/><path fill="#fff" fill-rule="evenodd" d="M79.4204 52.16H128.14V71.88H79.4204V52.16Z" clip-rule="evenodd"/><path fill="#3ECC5F" fill-rule="evenodd" d="M35.3402 116.54C31.0494 116.54 27.3113 114.204 25.3045 110.74C24.2799 112.501 23.7402 114.502 23.7402 116.54C23.7402 122.947 28.9336 128.14 35.3402 128.14H46.9402V116.54H35.3402Z" clip-rule="evenodd"/><path fill="#3ECC5F" fill-rule="evenodd" d="M87.5289 55.2781L128.14 52.74V46.94C128.14 40.5333 122.947 35.34 116.54 35.34H64.3405L62.8905 32.8286C62.2455 31.7121 60.6349 31.7121 59.9905 32.8286L58.5405 35.34L57.0905 32.8286C56.4461 31.7121 54.8349 31.7121 54.1905 32.8286L52.7405 35.34L51.2905 32.8286C50.6461 31.7121 49.0349 31.7121 48.3905 32.8286L46.9405 35.34C46.9277 35.34 46.9161 35.3417 46.9028 35.3417L44.5004 32.9399C43.5898 32.0288 42.0343 32.4452 41.7002 33.6905L40.9062 36.6508L37.8948 35.8434C36.649 35.5099 35.5104 36.649 35.8445 37.8943L36.6507 40.9062L33.6915 41.6991C32.4457 42.0332 32.0287 43.5893 32.9399 44.5005L35.3422 46.9029C35.3422 46.915 35.3405 46.9272 35.3405 46.94L32.8291 48.39C31.7126 49.0344 31.7126 50.6456 32.8291 51.29L35.3405 52.74L32.8291 54.19C31.7126 54.8344 31.7126 56.4456 32.8291 57.09L35.3405 58.54L32.8291 59.99C31.7126 60.6344 31.7126 62.2456 32.8291 62.89L35.3405 64.34L32.8291 65.79C31.7126 66.4344 31.7126 68.0456 32.8291 68.69L35.3405 70.14L32.8291 71.59C31.7126 72.2344 31.7126 73.8456 32.8291 74.49L35.3405 75.94L32.8291 77.39C31.7126 78.0344 31.7126 79.6456 32.8291 80.29L35.3405 81.74L32.8291 83.19C31.7126 83.8344 31.7126 85.4456 32.8291 86.09L35.3405 87.54L32.8291 88.99C31.7126 89.6344 31.7126 91.2456 32.8291 91.89L35.3405 93.34L32.8291 94.79C31.7126 95.4344 31.7126 97.0456 32.8291 97.69L35.3405 99.14L32.8291 100.59C31.7126 101.234 31.7126 102.846 32.8291 103.49L35.3405 104.94L32.8291 106.39C31.7126 107.034 31.7126 108.646 32.8291 109.29L35.3405 110.74L32.8291 112.19C31.7126 112.834 31.7126 114.446 32.8291 115.09L35.3405 116.54C35.3405 122.947 40.5338 128.14 46.9405 128.14H116.54C122.947 128.14 128.14 122.947 128.14 116.54V70.14L87.5289 67.6019C85.9613 67.5038 84.49 66.8119 83.4146 65.6671C82.3392 64.5223 81.7405 63.0107 81.7405 61.44C81.7405 58.1798 84.2751 55.4816 87.5289 55.2781Z" clip-rule="evenodd"/><path fill="#3ECC5F" fill-rule="evenodd" d="M104.94 128.14H122.34V104.94H104.94V128.14Z" clip-rule="evenodd"/><path fill="#44D860" fill-rule="evenodd" d="M133.94 113.64C133.813 113.64 133.692 113.661 133.57 113.677C133.548 113.59 133.527 113.503 133.502 113.416C134.12 113.157 134.63 112.693 134.944 112.101C135.259 111.51 135.359 110.827 135.227 110.171C135.096 109.514 134.741 108.923 134.223 108.498C133.705 108.073 133.056 107.841 132.386 107.84C131.753 107.842 131.138 108.054 130.637 108.441C130.572 108.375 130.508 108.31 130.442 108.246C130.821 107.748 131.027 107.14 131.029 106.514C131.028 105.845 130.797 105.198 130.374 104.68C129.952 104.163 129.363 103.807 128.709 103.674C128.054 103.54 127.373 103.637 126.781 103.947C126.19 104.258 125.723 104.763 125.461 105.377C125.375 105.353 125.289 105.333 125.203 105.311C125.219 105.188 125.24 105.067 125.24 104.94C125.24 104.171 124.935 103.433 124.391 102.889C123.847 102.346 123.109 102.04 122.34 102.04C121.571 102.04 120.833 102.346 120.29 102.889C119.746 103.433 119.44 104.171 119.44 104.94C119.44 105.067 119.462 105.188 119.477 105.311C119.392 105.333 119.305 105.353 119.219 105.377C118.958 104.762 118.492 104.255 117.9 103.944C117.308 103.633 116.626 103.536 115.971 103.669C115.316 103.803 114.727 104.159 114.304 104.678C113.881 105.196 113.651 105.845 113.652 106.514C113.652 107.166 113.875 107.761 114.238 108.246C112.082 110.353 110.74 113.288 110.74 116.54C110.74 122.947 115.934 128.14 122.34 128.14C127.757 128.14 132.293 124.422 133.57 119.403C133.692 119.419 133.813 119.44 133.94 119.44C134.709 119.44 135.447 119.135 135.991 118.591C136.535 118.047 136.84 117.309 136.84 116.54C136.84 115.771 136.535 115.033 135.991 114.489C135.447 113.946 134.709 113.64 133.94 113.64Z" clip-rule="evenodd"/><path fill="#3ECC5F" fill-rule="evenodd" d="M110.74 93.34H128.14V81.74H110.74V93.34Z" clip-rule="evenodd"/><path fill="#44D860" fill-rule="evenodd" d="M133.94 88.99C134.325 88.99 134.694 88.8372 134.966 88.5653C135.238 88.2933 135.39 87.9245 135.39 87.54C135.39 87.1554 135.238 86.7866 134.966 86.5147C134.694 86.2427 134.325 86.09 133.94 86.09C133.877 86.09 133.816 86.101 133.755 86.1085C133.744 86.065 133.734 86.0215 133.722 85.978C134.03 85.8484 134.285 85.6161 134.442 85.3204C134.598 85.0247 134.648 84.6838 134.582 84.3556C134.517 84.0274 134.339 83.732 134.081 83.5196C133.822 83.3071 133.498 83.1907 133.163 83.19C132.833 83.19 132.532 83.3042 132.288 83.4904C132.257 83.4573 132.224 83.4249 132.191 83.393C132.373 83.1511 132.485 82.853 132.485 82.5264C132.484 82.1923 132.369 81.8684 132.157 81.6096C131.946 81.3508 131.652 81.1729 131.324 81.1062C130.997 81.0394 130.656 81.0877 130.361 81.2431C130.065 81.3984 129.832 81.6512 129.701 81.9586C129.193 81.815 128.668 81.7415 128.14 81.74C124.938 81.74 122.34 84.3372 122.34 87.54C122.34 90.7427 124.938 93.34 128.14 93.34C128.682 93.34 129.203 93.2599 129.701 93.1213C129.832 93.4288 130.065 93.6815 130.361 93.8369C130.656 93.9922 130.997 94.0406 131.324 93.9738C131.652 93.907 131.946 93.7292 132.157 93.4704C132.369 93.2115 132.484 92.8877 132.485 92.5535C132.485 92.2269 132.373 91.9288 132.191 91.687C132.224 91.6551 132.257 91.6226 132.288 91.5895C132.532 91.7757 132.833 91.89 133.163 91.89C133.498 91.8899 133.823 91.7738 134.082 91.5614C134.341 91.349 134.519 91.0534 134.585 90.7248C134.651 90.3962 134.601 90.055 134.443 89.7591C134.286 89.4632 134.031 89.231 133.722 89.1019C133.734 89.059 133.744 89.0149 133.755 88.9714C133.816 88.9789 133.877 88.99 133.94 88.99Z" clip-rule="evenodd"/><path fill="#000" fill-rule="evenodd" d="M58.5402 54.19C58.1557 54.19 57.7869 54.0372 57.5149 53.7653C57.243 53.4934 57.0902 53.1246 57.0902 52.74C57.0902 50.3411 55.1391 48.39 52.7402 48.39C50.3414 48.39 48.3902 50.3411 48.3902 52.74C48.3902 53.1246 48.2375 53.4934 47.9655 53.7653C47.6936 54.0372 47.3248 54.19 46.9402 54.19C46.5557 54.19 46.1869 54.0372 45.9149 53.7653C45.643 53.4934 45.4902 53.1246 45.4902 52.74C45.4902 48.742 48.7423 45.49 52.7402 45.49C56.7382 45.49 59.9902 48.742 59.9902 52.74C59.9902 53.1246 59.8375 53.4934 59.5655 53.7653C59.2936 54.0372 58.9248 54.19 58.5402 54.19Z" clip-rule="evenodd"/><path fill="#FFFF50" fill-rule="evenodd" d="M81.7402 128.14H116.54C122.947 128.14 128.14 122.947 128.14 116.54V75.9399H93.3402C86.9336 75.9399 81.7402 81.1333 81.7402 87.5399V128.14Z" clip-rule="evenodd"/><path fill="#000" fill-rule="evenodd" d="M119.452 93.92H90.4287C90.2749 93.92 90.1274 93.8589 90.0186 93.7502C89.9098 93.6414 89.8487 93.4939 89.8487 93.34C89.8487 93.1862 89.9098 93.0387 90.0186 92.9299C90.1274 92.8211 90.2749 92.76 90.4287 92.76H119.452C119.606 92.76 119.753 92.8211 119.862 92.9299C119.971 93.0387 120.032 93.1862 120.032 93.34C120.032 93.4939 119.971 93.6414 119.862 93.7502C119.753 93.8589 119.606 93.92 119.452 93.92ZM119.452 105.52H90.4287C90.2749 105.52 90.1274 105.459 90.0186 105.35C89.9098 105.241 89.8487 105.094 89.8487 104.94C89.8487 104.786 89.9098 104.639 90.0186 104.53C90.1274 104.421 90.2749 104.36 90.4287 104.36H119.452C119.606 104.36 119.753 104.421 119.862 104.53C119.971 104.639 120.032 104.786 120.032 104.94C120.032 105.094 119.971 105.241 119.862 105.35C119.753 105.459 119.606 105.52 119.452 105.52ZM119.452 117.12H90.4287C90.2749 117.12 90.1274 117.059 90.0186 116.95C89.9098 116.841 89.8487 116.694 89.8487 116.54C89.8487 116.386 89.9098 116.239 90.0186 116.13C90.1274 116.021 90.2749 115.96 90.4287 115.96H119.452C119.606 115.96 119.753 116.021 119.862 116.13C119.971 116.239 120.032 116.386 120.032 116.54C120.032 116.694 119.971 116.841 119.862 116.95C119.753 117.059 119.606 117.12 119.452 117.12ZM119.452 88.2279H90.4287C90.2749 88.2279 90.1274 88.1668 90.0186 88.058C89.9098 87.9493 89.8487 87.8017 89.8487 87.6479C89.8487 87.4941 89.9098 87.3466 90.0186 87.2378C90.1274 87.129 90.2749 87.0679 90.4287 87.0679H119.452C119.606 87.0679 119.753 87.129 119.862 87.2378C119.971 87.3466 120.032 87.4941 120.032 87.6479C120.032 87.8017 119.971 87.9493 119.862 88.058C119.753 88.1668 119.606 88.2279 119.452 88.2279ZM119.452 99.72H90.4287C90.2749 99.72 90.1274 99.6589 90.0186 99.5502C89.9098 99.4414 89.8487 99.2939 89.8487 99.14C89.8487 98.9862 89.9098 98.8387 90.0186 98.7299C90.1274 98.6211 90.2749 98.56 90.4287 98.56H119.452C119.606 98.56 119.753 98.6211 119.862 98.7299C119.971 98.8387 120.032 98.9862 120.032 99.14C120.032 99.2939 119.971 99.4414 119.862 99.5502C119.753 99.6589 119.606 99.72 119.452 99.72ZM119.452 111.32H90.4287C90.2749 111.32 90.1274 111.259 90.0186 111.15C89.9098 111.041 89.8487 110.894 89.8487 110.74C89.8487 110.586 89.9098 110.439 90.0186 110.33C90.1274 110.221 90.2749 110.16 90.4287 110.16H119.452C119.606 110.16 119.753 110.221 119.862 110.33C119.971 110.439 120.032 110.586 120.032 110.74C120.032 110.894 119.971 111.041 119.862 111.15C119.753 111.259 119.606 111.32 119.452 111.32ZM128.14 57.7344C128.133 57.7344 128.128 57.7309 128.121 57.7315C126.328 57.7924 125.48 59.5852 124.732 61.1669C123.952 62.8199 123.348 63.8946 122.358 63.8621C121.263 63.8227 120.636 62.585 119.973 61.2753C119.211 59.7708 118.341 58.0644 116.514 58.1282C114.748 58.1886 113.897 59.7488 113.146 61.1251C112.348 62.5913 111.804 63.4828 110.756 63.4416C109.638 63.401 109.044 62.3947 108.357 61.2301C107.591 59.9332 106.705 58.4751 104.914 58.525C103.178 58.5847 102.325 59.9083 101.572 61.077C100.775 62.3124 100.217 63.0652 99.156 63.0205C98.0117 62.9799 97.4206 62.1447 96.7368 61.1779C95.9689 60.0915 95.1035 58.8619 93.3177 58.9217C91.6195 58.9797 90.7663 60.0643 90.014 61.0201C89.2995 61.9272 88.7415 62.6453 87.5612 62.6C87.4074 62.5945 87.2577 62.6503 87.145 62.7551C87.0323 62.86 86.9659 63.0053 86.9603 63.1591C86.9548 63.313 87.0106 63.4627 87.1155 63.5754C87.2203 63.6881 87.3656 63.7545 87.5195 63.76C89.2693 63.8186 90.1556 62.716 90.9252 61.7376C91.6079 60.8699 92.1972 60.1211 93.3572 60.0817C94.4742 60.0341 94.998 60.7284 95.7903 61.8478C96.5425 62.9115 97.3963 64.1179 99.1142 64.18C100.914 64.2403 101.78 62.8953 102.547 61.7051C103.232 60.6414 103.824 59.7232 104.954 59.6844C105.994 59.6455 106.56 60.4674 107.358 61.8194C108.11 63.0936 108.962 64.5372 110.714 64.601C112.527 64.6637 113.402 63.0814 114.165 61.6807C114.825 60.4697 115.449 59.3259 116.554 59.2877C117.594 59.2633 118.136 60.2128 118.938 61.7991C119.687 63.2798 120.537 64.9572 122.317 65.0215L122.415 65.0233C124.192 65.0233 125.035 63.2398 125.781 61.6628C126.442 60.265 127.067 58.9484 128.14 58.8944V57.7344Z" clip-rule="evenodd"/><path fill="#3ECC5F" fill-rule="evenodd" d="M70.1401 128.14H93.3401V104.94H70.1401V128.14Z" clip-rule="evenodd"/><path fill="#D8D8D8" d="M128 67.949L82.8885 80.0366C82.2697 80.2024 81.9025 80.8384 82.0683 81.4573L86.4767 97.9098C86.6425 98.5286 87.2786 98.8958 87.8974 98.73L133.009 86.6424C133.628 86.4766 133.995 85.8405 133.829 85.2217L129.421 68.7692C129.255 68.1504 128.619 67.7832 128 67.949Z"/><path fill="#4A4A4A" d="M96.5035 89.0432L94.8884 89.476C94.579 89.5589 94.3953 89.8769 94.4782 90.1863L94.911 91.8015C94.9939 92.1109 95.312 92.2945 95.6214 92.2116L97.2365 91.7788C97.546 91.6959 97.7296 91.3779 97.6467 91.0685L97.2139 89.4533C97.131 89.1439 96.8129 88.9603 96.5035 89.0432Z"/><path fill="#4A4A4A" d="M99.7457 88.1744L98.1305 88.6072C97.8211 88.6901 97.6375 89.0082 97.7204 89.3176L98.1532 90.9327C98.2361 91.2421 98.5542 91.4258 98.8636 91.3428L100.479 90.9101C100.788 90.8272 100.972 90.5091 100.889 90.1997L100.456 88.5845C100.373 88.2751 100.055 88.0915 99.7457 88.1744Z"/><path fill="#4A4A4A" d="M102.988 87.3058L101.373 87.7386C101.063 87.8215 100.88 88.1395 100.963 88.4489L101.395 90.0641C101.478 90.3735 101.796 90.5571 102.106 90.4742L103.721 90.0414C104.03 89.9585 104.214 89.6405 104.131 89.3311L103.698 87.7159C103.615 87.4065 103.297 87.2229 102.988 87.3058Z"/><path fill="#4A4A4A" d="M106.23 86.437L104.615 86.8698C104.306 86.9527 104.122 87.2707 104.205 87.5801L104.638 89.1953C104.72 89.5047 105.039 89.6883 105.348 89.6054L106.963 89.1726C107.273 89.0897 107.456 88.7717 107.373 88.4623L106.94 86.8471C106.858 86.5377 106.539 86.3541 106.23 86.437Z"/><path fill="#4A4A4A" d="M109.472 85.5682L107.857 86.001C107.547 86.0839 107.364 86.4019 107.447 86.7114L107.879 88.3265C107.962 88.6359 108.28 88.8196 108.59 88.7366L110.205 88.3039C110.514 88.221 110.698 87.9029 110.615 87.5935L110.182 85.9783C110.099 85.6689 109.781 85.4853 109.472 85.5682Z"/><path fill="#4A4A4A" d="M112.714 84.6996L111.099 85.1324C110.789 85.2153 110.606 85.5333 110.689 85.8427L111.121 87.4579C111.204 87.7673 111.522 87.9509 111.832 87.868L113.447 87.4352C113.756 87.3523 113.94 87.0343 113.857 86.7249L113.424 85.1097C113.341 84.8003 113.023 84.6167 112.714 84.6996Z"/><path fill="#4A4A4A" d="M115.956 83.8308L114.341 84.2636C114.032 84.3465 113.848 84.6645 113.931 84.9739L114.364 86.5891C114.447 86.8985 114.765 87.0821 115.074 86.9992L116.689 86.5664C116.999 86.4835 117.182 86.1655 117.099 85.8561L116.667 84.2409C116.584 83.9315 116.266 83.7479 115.956 83.8308Z"/><path fill="#4A4A4A" d="M119.198 82.9621L117.583 83.3949C117.274 83.4778 117.09 83.7959 117.173 84.1053L117.606 85.7204C117.689 86.0299 118.007 86.2135 118.316 86.1306L119.931 85.6978C120.241 85.6149 120.424 85.2968 120.341 84.9874L119.909 83.3723C119.826 83.0629 119.508 82.8792 119.198 82.9621Z"/><path fill="#4A4A4A" d="M122.441 82.0934L120.825 82.5262C120.516 82.6091 120.332 82.9271 120.415 83.2365L120.848 84.8517C120.931 85.1611 121.249 85.3447 121.558 85.2618L123.174 84.829C123.483 84.7461 123.667 84.4281 123.584 84.1187L123.151 82.5035C123.068 82.1941 122.75 82.0105 122.441 82.0934Z"/><path fill="#4A4A4A" fill-rule="evenodd" d="M86.2772 91.7839L93.1603 89.9396C93.3088 89.8998 93.4672 89.9206 93.6004 89.9975C93.7336 90.0745 93.8308 90.2011 93.8706 90.3497L94.3032 91.9643C94.3431 92.1129 94.3222 92.2712 94.2453 92.4044C94.1684 92.5377 94.0417 92.6349 93.8931 92.6747L87.01 94.519C86.8615 94.5588 86.7031 94.538 86.5699 94.4611C86.4367 94.3841 86.3395 94.2575 86.2997 94.1089L85.8669 92.4937C85.8271 92.3451 85.8479 92.1868 85.9249 92.0536C86.0018 91.9204 86.1284 91.8232 86.277 91.7834L86.2772 91.7839ZM124.168 81.631L131.052 79.7866C131.2 79.7468 131.359 79.7676 131.492 79.8445C131.625 79.9214 131.722 80.0481 131.762 80.1967L132.195 81.8113C132.235 81.9599 132.214 82.1182 132.137 82.2514C132.06 82.3846 131.933 82.4818 131.785 82.5216L124.901 84.3663C124.752 84.4061 124.594 84.3852 124.46 84.3083C124.327 84.2314 124.23 84.1047 124.19 83.9561L123.757 82.341C123.718 82.1924 123.738 82.0341 123.815 81.9009C123.892 81.7676 124.019 81.6704 124.168 81.6306L124.168 81.631Z" clip-rule="evenodd"/><path fill="#4A4A4A" fill-rule="evenodd" d="M84.5226 85.237L87.1501 84.5329C87.2987 84.4931 87.457 84.514 87.5903 84.5909C87.7235 84.6678 87.8207 84.7945 87.8605 84.9431L88.2931 86.5577C88.3329 86.7062 88.3121 86.8645 88.2352 86.9978C88.1583 87.131 88.0316 87.2282 87.883 87.268L85.2555 87.972C85.1069 88.0119 84.9486 87.991 84.8154 87.9141C84.6822 87.8372 84.585 87.7105 84.5451 87.5619L84.1125 85.9473C84.0727 85.7987 84.0935 85.6404 84.1705 85.5072C84.2474 85.374 84.3741 85.2768 84.5226 85.237Z" clip-rule="evenodd"/><path fill="#4A4A4A" d="M90.3927 83.6641L88.7775 84.0968C88.4681 84.1797 88.2845 84.4978 88.3674 84.8072L88.8002 86.4223C88.8831 86.7318 89.2011 86.9154 89.5105 86.8325L91.1257 86.3997C91.4351 86.3168 91.6187 85.9987 91.5358 85.6893L91.103 84.0742C91.0201 83.7648 90.7021 83.5811 90.3927 83.6641Z"/><path fill="#4A4A4A" d="M93.6349 82.7954L92.0197 83.2282C91.7103 83.3111 91.5267 83.6291 91.6096 83.9385L92.0424 85.5537C92.1253 85.8631 92.4433 86.0467 92.7527 85.9638L94.3679 85.531C94.6773 85.4481 94.8609 85.1301 94.778 84.8207L94.3452 83.2055C94.2623 82.8961 93.9443 82.7125 93.6349 82.7954Z"/><path fill="#4A4A4A" d="M96.8771 81.9266L95.2619 82.3594C94.9525 82.4423 94.7689 82.7603 94.8518 83.0698L95.2846 84.6849C95.3675 84.9943 95.6855 85.178 95.9949 85.0951L97.6101 84.6623C97.9195 84.5794 98.1031 84.2613 98.0202 83.9519L97.5874 82.3367C97.5045 82.0273 97.1865 81.8437 96.8771 81.9266Z"/><path fill="#4A4A4A" d="M100.119 81.058L98.5041 81.4908C98.1947 81.5737 98.0111 81.8917 98.094 82.2011L98.5267 83.8163C98.6097 84.1257 98.9277 84.3093 99.2371 84.2264L100.852 83.7936C101.162 83.7107 101.345 83.3927 101.262 83.0833L100.83 81.4681C100.747 81.1587 100.429 80.9751 100.119 81.058Z"/><path fill="#4A4A4A" d="M103.361 80.1892L101.746 80.622C101.436 80.7049 101.253 81.0229 101.336 81.3323L101.768 82.9475C101.851 83.2569 102.169 83.4405 102.479 83.3576L104.094 82.9248C104.403 82.8419 104.587 82.5239 104.504 82.2145L104.071 80.5993C103.988 80.2899 103.67 80.1063 103.361 80.1892Z"/><path fill="#4A4A4A" d="M106.603 79.3204L104.988 79.7532C104.679 79.8361 104.495 80.1541 104.578 80.4636L105.011 82.0787C105.094 82.3881 105.412 82.5718 105.721 82.4888L107.336 82.0561C107.646 81.9732 107.829 81.6551 107.746 81.3457L107.313 79.7305C107.231 79.4211 106.913 79.2375 106.603 79.3204Z"/><path fill="#4A4A4A" d="M109.845 78.4518L108.23 78.8846C107.921 78.9675 107.737 79.2855 107.82 79.5949L108.253 81.2101C108.336 81.5195 108.654 81.7031 108.963 81.6202L110.578 81.1874C110.888 81.1045 111.071 80.7865 110.988 80.4771L110.556 78.8619C110.473 78.5525 110.155 78.3689 109.845 78.4518Z"/><path fill="#4A4A4A" d="M113.088 77.583L111.472 78.0158C111.163 78.0987 110.979 78.4167 111.062 78.7261L111.495 80.3413C111.578 80.6507 111.896 80.8343 112.205 80.7514L113.821 80.3186C114.13 80.2357 114.314 79.9177 114.231 79.6083L113.798 77.9931C113.715 77.6837 113.397 77.5001 113.088 77.583Z"/><path fill="#4A4A4A" d="M116.329 76.7145L114.714 77.1472C114.404 77.2302 114.221 77.5482 114.303 77.8576L114.736 79.4728C114.819 79.7822 115.137 79.9658 115.447 79.8829L117.062 79.4501C117.371 79.3672 117.555 79.0492 117.472 78.7398L117.039 77.1246C116.956 76.8152 116.638 76.6316 116.329 76.7145Z"/><path fill="#4A4A4A" d="M119.571 75.8458L117.956 76.2786C117.646 76.3615 117.463 76.6795 117.546 76.9889L117.978 78.6041C118.061 78.9135 118.379 79.0971 118.689 79.0142L120.304 78.5814C120.613 78.4985 120.797 78.1805 120.714 77.8711L120.281 76.2559C120.198 75.9465 119.88 75.7629 119.571 75.8458Z"/><path fill="#4A4A4A" d="M122.813 74.977L121.198 75.4098C120.889 75.4927 120.705 75.8108 120.788 76.1202L121.221 77.7353C121.304 78.0448 121.622 78.2284 121.931 78.1455L123.546 77.7127C123.856 77.6298 124.039 77.3117 123.956 77.0023L123.523 75.3872C123.441 75.0778 123.123 74.8941 122.813 74.977Z"/><path fill="#4A4A4A" d="M126.055 74.1084L124.44 74.5412C124.131 74.6241 123.947 74.9421 124.03 75.2515L124.463 76.8667C124.546 77.1761 124.864 77.3597 125.173 77.2768L126.788 76.844C127.098 76.7611 127.281 76.4431 127.198 76.1337L126.766 74.5185C126.683 74.2091 126.365 74.0255 126.055 74.1084Z"/><path fill="#4A4A4A" d="M129.297 73.2396L127.682 73.6724C127.373 73.7553 127.189 74.0733 127.272 74.3827L127.705 75.9979C127.788 76.3073 128.106 76.4909 128.415 76.408L130.03 75.9753C130.34 75.8923 130.524 75.5743 130.441 75.2649L130.008 73.6497C129.925 73.3403 129.607 73.1567 129.297 73.2396Z"/><path fill="#4A4A4A" fill-rule="evenodd" d="M129.2 72.8733L126.571 73.5774C126.423 73.6173 126.265 73.5964 126.131 73.5195C125.998 73.4426 125.901 73.3159 125.861 73.1673L125.428 71.5522C125.389 71.4036 125.409 71.2453 125.486 71.112C125.563 70.9788 125.69 70.8816 125.838 70.8418L128.467 70.1376C128.615 70.0978 128.773 70.1186 128.907 70.1956C129.04 70.2725 129.137 70.3992 129.177 70.5477L129.61 72.1629C129.649 72.3115 129.629 72.4698 129.552 72.603C129.475 72.7362 129.348 72.8334 129.2 72.8733V72.8733Z" clip-rule="evenodd"/><path fill="#4A4A4A" d="M123.329 74.4462L124.945 74.0134C125.254 73.9305 125.438 73.6125 125.355 73.303L124.922 71.6879C124.839 71.3785 124.521 71.1949 124.212 71.2778L122.596 71.7105C122.287 71.7934 122.103 72.1115 122.186 72.4209L122.619 74.0361C122.702 74.3455 123.02 74.5291 123.329 74.4462Z"/><path fill="#4A4A4A" d="M120.087 75.3148L121.702 74.882C122.012 74.7991 122.195 74.4811 122.113 74.1717L121.68 72.5565C121.597 72.2471 121.279 72.0635 120.969 72.1464L119.354 72.5792C119.045 72.6621 118.861 72.9801 118.944 73.2895L119.377 74.9047C119.46 75.2141 119.778 75.3977 120.087 75.3148Z"/><path fill="#4A4A4A" d="M116.845 76.1836L118.46 75.7508C118.77 75.6679 118.953 75.3499 118.87 75.0405L118.438 73.4253C118.355 73.1159 118.037 72.9323 117.727 73.0152L116.112 73.448C115.803 73.5309 115.619 73.8489 115.702 74.1583L116.135 75.7735C116.218 76.0829 116.536 76.2665 116.845 76.1836Z"/><path fill="#4A4A4A" d="M113.603 77.0523L115.218 76.6195C115.527 76.5366 115.711 76.2185 115.628 75.9091L115.195 74.294C115.113 73.9845 114.794 73.8009 114.485 73.8838L112.87 74.3166C112.561 74.3995 112.377 74.7176 112.46 75.027L112.893 76.6421C112.975 76.9515 113.294 77.1352 113.603 77.0523Z"/><path fill="#4A4A4A" d="M110.361 77.921L111.976 77.4883C112.286 77.4053 112.469 77.0873 112.387 76.7779L111.954 75.1627C111.871 74.8533 111.553 74.6697 111.243 74.7526L109.628 75.1854C109.319 75.2683 109.135 75.5863 109.218 75.8957L109.651 77.5109C109.734 77.8203 110.052 78.0039 110.361 77.921Z"/><path fill="#4A4A4A" d="M107.119 78.7898L108.734 78.357C109.044 78.2741 109.227 77.9561 109.144 77.6467L108.712 76.0315C108.629 75.7221 108.311 75.5385 108.001 75.6214L106.386 76.0542C106.077 76.1371 105.893 76.4551 105.976 76.7645L106.409 78.3797C106.492 78.6891 106.81 78.8727 107.119 78.7898Z"/><path fill="#4A4A4A" d="M103.877 79.6585L105.492 79.2257C105.801 79.1428 105.985 78.8247 105.902 78.5153L105.469 76.9002C105.386 76.5907 105.068 76.4071 104.759 76.49L103.144 76.9228C102.834 77.0057 102.651 77.3238 102.734 77.6332L103.166 79.2483C103.249 79.5577 103.567 79.7414 103.877 79.6585Z"/><path fill="#4A4A4A" d="M100.635 80.5272L102.25 80.0945C102.559 80.0115 102.743 79.6935 102.66 79.3841L102.227 77.7689C102.144 77.4595 101.826 77.2759 101.517 77.3588L99.9017 77.7916C99.5922 77.8745 99.4086 78.1925 99.4915 78.5019L99.9243 80.1171C100.007 80.4265 100.325 80.6101 100.635 80.5272Z"/><path fill="#4A4A4A" d="M97.3925 81.3959L99.0076 80.9631C99.317 80.8802 99.5007 80.5622 99.4178 80.2528L98.985 78.6376C98.9021 78.3282 98.584 78.1446 98.2746 78.2275L96.6595 78.6602C96.35 78.7432 96.1664 79.0612 96.2493 79.3706L96.6821 80.9858C96.765 81.2952 97.0831 81.4788 97.3925 81.3959Z"/><path fill="#4A4A4A" d="M94.1508 82.2647L95.7659 81.8319C96.0753 81.749 96.259 81.4309 96.1761 81.1215L95.7433 79.5064C95.6604 79.197 95.3423 79.0133 95.0329 79.0962L93.4178 79.529C93.1084 79.6119 92.9247 79.93 93.0076 80.2394L93.4404 81.8545C93.5233 82.1639 93.8414 82.3476 94.1508 82.2647Z"/><path fill="#4A4A4A" d="M90.9086 83.1333L92.5237 82.7005C92.8332 82.6176 93.0168 82.2996 92.9339 81.9902L92.5011 80.375C92.4182 80.0656 92.1001 79.882 91.7907 79.9649L90.1756 80.3977C89.8662 80.4806 89.6825 80.7986 89.7654 81.108L90.1982 82.7232C90.2811 83.0326 90.5992 83.2162 90.9086 83.1333Z"/><path fill="#4A4A4A" d="M87.6664 84.0021L89.2816 83.5693C89.591 83.4864 89.7746 83.1684 89.6917 82.859L89.2589 81.2438C89.176 80.9344 88.858 80.7508 88.5485 80.8337L86.9334 81.2664C86.624 81.3494 86.4404 81.6674 86.5233 81.9768L86.956 83.592C87.0389 83.9014 87.357 84.085 87.6664 84.0021Z"/><path fill="#4A4A4A" d="M84.4247 84.8706L86.0399 84.4378C86.3493 84.3549 86.5329 84.0369 86.45 83.7275L86.0172 82.1123C85.9343 81.8029 85.6163 81.6193 85.3068 81.7022L83.6917 82.135C83.3823 82.2179 83.1987 82.5359 83.2816 82.8453L83.7143 84.4605C83.7973 84.7699 84.1153 84.9535 84.4247 84.8706Z"/><path fill="#4A4A4A" d="M123.329 74.4462L124.945 74.0134C125.254 73.9305 125.438 73.6125 125.355 73.303L124.922 71.6879C124.839 71.3785 124.521 71.1949 124.212 71.2778L122.596 71.7105C122.287 71.7934 122.103 72.1115 122.186 72.4209L122.619 74.0361C122.702 74.3455 123.02 74.5291 123.329 74.4462Z"/><path fill="#4A4A4A" d="M120.087 75.3148L121.702 74.882C122.012 74.7991 122.195 74.4811 122.113 74.1717L121.68 72.5565C121.597 72.2471 121.279 72.0635 120.969 72.1464L119.354 72.5792C119.045 72.6621 118.861 72.9801 118.944 73.2895L119.377 74.9047C119.46 75.2141 119.778 75.3977 120.087 75.3148Z"/><path fill="#4A4A4A" d="M116.845 76.1836L118.46 75.7508C118.77 75.6679 118.953 75.3499 118.87 75.0405L118.438 73.4253C118.355 73.1159 118.037 72.9323 117.727 73.0152L116.112 73.448C115.803 73.5309 115.619 73.8489 115.702 74.1583L116.135 75.7735C116.218 76.0829 116.536 76.2665 116.845 76.1836Z"/><path fill="#4A4A4A" d="M113.603 77.0523L115.218 76.6195C115.527 76.5366 115.711 76.2185 115.628 75.9091L115.195 74.294C115.113 73.9845 114.794 73.8009 114.485 73.8838L112.87 74.3166C112.561 74.3995 112.377 74.7176 112.46 75.027L112.893 76.6421C112.975 76.9515 113.294 77.1352 113.603 77.0523Z"/><path fill="#4A4A4A" d="M110.361 77.921L111.976 77.4883C112.286 77.4053 112.469 77.0873 112.387 76.7779L111.954 75.1627C111.871 74.8533 111.553 74.6697 111.243 74.7526L109.628 75.1854C109.319 75.2683 109.135 75.5863 109.218 75.8957L109.651 77.5109C109.734 77.8203 110.052 78.0039 110.361 77.921Z"/><path fill="#4A4A4A" d="M107.119 78.7898L108.734 78.357C109.044 78.2741 109.227 77.9561 109.144 77.6467L108.712 76.0315C108.629 75.7221 108.311 75.5385 108.001 75.6214L106.386 76.0542C106.077 76.1371 105.893 76.4551 105.976 76.7645L106.409 78.3797C106.492 78.6891 106.81 78.8727 107.119 78.7898Z"/><path fill="#4A4A4A" d="M103.877 79.6585L105.492 79.2257C105.801 79.1428 105.985 78.8247 105.902 78.5153L105.469 76.9002C105.386 76.5907 105.068 76.4071 104.759 76.49L103.144 76.9228C102.834 77.0057 102.651 77.3238 102.734 77.6332L103.166 79.2483C103.249 79.5577 103.567 79.7414 103.877 79.6585Z"/><path fill="#4A4A4A" d="M100.635 80.5272L102.25 80.0945C102.559 80.0115 102.743 79.6935 102.66 79.3841L102.227 77.7689C102.144 77.4595 101.826 77.2759 101.517 77.3588L99.9017 77.7916C99.5922 77.8745 99.4086 78.1925 99.4915 78.5019L99.9243 80.1171C100.007 80.4265 100.325 80.6101 100.635 80.5272Z"/><path fill="#4A4A4A" d="M97.3925 81.3959L99.0076 80.9631C99.317 80.8802 99.5007 80.5622 99.4178 80.2528L98.985 78.6376C98.9021 78.3282 98.584 78.1446 98.2746 78.2275L96.6595 78.6602C96.35 78.7432 96.1664 79.0612 96.2493 79.3706L96.6821 80.9858C96.765 81.2952 97.0831 81.4788 97.3925 81.3959Z"/><path fill="#4A4A4A" d="M94.1508 82.2647L95.7659 81.8319C96.0753 81.749 96.259 81.4309 96.1761 81.1215L95.7433 79.5064C95.6604 79.197 95.3423 79.0133 95.0329 79.0962L93.4178 79.529C93.1084 79.6119 92.9247 79.93 93.0076 80.2394L93.4404 81.8545C93.5233 82.1639 93.8414 82.3476 94.1508 82.2647Z"/><path fill="#4A4A4A" d="M90.9086 83.1333L92.5237 82.7005C92.8332 82.6176 93.0168 82.2996 92.9339 81.9902L92.5011 80.375C92.4182 80.0656 92.1001 79.882 91.7907 79.9649L90.1756 80.3977C89.8662 80.4806 89.6825 80.7986 89.7654 81.108L90.1982 82.7232C90.2811 83.0326 90.5992 83.2162 90.9086 83.1333Z"/><path fill="#4A4A4A" d="M87.6664 84.0021L89.2816 83.5693C89.591 83.4864 89.7746 83.1684 89.6917 82.859L89.2589 81.2438C89.176 80.9344 88.858 80.7508 88.5485 80.8337L86.9334 81.2664C86.624 81.3494 86.4404 81.6674 86.5233 81.9768L86.956 83.592C87.0389 83.9014 87.357 84.085 87.6664 84.0021Z"/><path fill="#4A4A4A" d="M84.4247 84.8706L86.0399 84.4378C86.3493 84.3549 86.5329 84.0369 86.45 83.7275L86.0172 82.1123C85.9343 81.8029 85.6163 81.6193 85.3068 81.7022L83.6917 82.135C83.3823 82.2179 83.1987 82.5359 83.2816 82.8453L83.7143 84.4605C83.7973 84.7699 84.1153 84.9535 84.4247 84.8706Z"/><path fill="#4A4A4A" fill-rule="evenodd" d="M85.3913 88.4785L89.1337 87.4758C89.2823 87.436 89.4406 87.4568 89.5738 87.5337C89.707 87.6106 89.8042 87.7373 89.844 87.8859L90.2768 89.5011C90.3166 89.6496 90.2958 89.808 90.2189 89.9412C90.142 90.0744 90.0153 90.1716 89.8667 90.2114L86.1243 91.2142C85.9757 91.254 85.8174 91.2332 85.6842 91.1562C85.551 91.0793 85.4538 90.9526 85.414 90.8041L84.9813 89.1895C84.9415 89.0409 84.9623 88.8826 85.0393 88.7493C85.1162 88.6161 85.2429 88.5189 85.3914 88.4791L85.3913 88.4785Z" clip-rule="evenodd"/><path fill="#4A4A4A" d="M92.4772 86.5799L90.862 87.0127C90.5526 87.0956 90.369 87.4137 90.4519 87.7231L90.8847 89.3382C90.9676 89.6477 91.2856 89.8313 91.595 89.7484L93.2102 89.3156C93.5196 89.2327 93.7032 88.9146 93.6203 88.6052L93.1875 86.9901C93.1046 86.6807 92.7866 86.497 92.4772 86.5799Z"/><path fill="#4A4A4A" d="M95.7193 85.7112L94.1042 86.144C93.7948 86.2269 93.6112 86.5449 93.6941 86.8543L94.1268 88.4695C94.2097 88.7789 94.5278 88.9625 94.8372 88.8796L96.4524 88.4468C96.7618 88.3639 96.9454 88.0459 96.8625 87.7365L96.4297 86.1213C96.3468 85.8119 96.0288 85.6283 95.7193 85.7112Z"/><path fill="#4A4A4A" d="M98.9615 84.8425L97.3464 85.2753C97.037 85.3582 96.8533 85.6762 96.9362 85.9857L97.369 87.6008C97.4519 87.9102 97.77 88.0938 98.0794 88.0109L99.6945 87.5782C100.004 87.4952 100.188 87.1772 100.105 86.8678L99.6719 85.2526C99.589 84.9432 99.2709 84.7596 98.9615 84.8425Z"/><path fill="#4A4A4A" d="M102.203 83.9737L100.588 84.4065C100.279 84.4894 100.095 84.8075 100.178 85.1169L100.611 86.732C100.694 87.0414 101.012 87.2251 101.321 87.1422L102.936 86.7094C103.246 86.6265 103.429 86.3084 103.346 85.999L102.914 84.3839C102.831 84.0745 102.513 83.8908 102.203 83.9737Z"/><path fill="#4A4A4A" d="M105.445 83.1051L103.83 83.5379C103.521 83.6208 103.337 83.9388 103.42 84.2482L103.853 85.8634C103.936 86.1728 104.254 86.3564 104.563 86.2735L106.178 85.8407C106.488 85.7578 106.671 85.4398 106.589 85.1304L106.156 83.5152C106.073 83.2058 105.755 83.0222 105.445 83.1051Z"/><path fill="#4A4A4A" d="M108.688 82.2363L107.072 82.6691C106.763 82.752 106.579 83.07 106.662 83.3794L107.095 84.9946C107.178 85.304 107.496 85.4876 107.805 85.4047L109.421 84.972C109.73 84.889 109.914 84.571 109.831 84.2616L109.398 82.6464C109.315 82.337 108.997 82.1534 108.688 82.2363Z"/><path fill="#4A4A4A" d="M111.93 81.3677L110.315 81.8004C110.005 81.8834 109.822 82.2014 109.905 82.5108L110.337 84.126C110.42 84.4354 110.738 84.619 111.048 84.5361L112.663 84.1033C112.972 84.0204 113.156 83.7024 113.073 83.393L112.64 81.7778C112.557 81.4684 112.239 81.2848 111.93 81.3677Z"/><path fill="#4A4A4A" d="M115.171 80.4991L113.556 80.9319C113.246 81.0148 113.063 81.3329 113.146 81.6423L113.579 83.2574C113.661 83.5668 113.979 83.7505 114.289 83.6676L115.904 83.2348C116.213 83.1519 116.397 82.8338 116.314 82.5244L115.881 80.9093C115.798 80.5998 115.48 80.4162 115.171 80.4991Z"/><path fill="#4A4A4A" d="M118.413 79.6304L116.798 80.0631C116.489 80.146 116.305 80.4641 116.388 80.7735L116.821 82.3887C116.904 82.6981 117.222 82.8817 117.531 82.7988L119.146 82.366C119.456 82.2831 119.639 81.9651 119.556 81.6556L119.124 80.0405C119.041 79.7311 118.723 79.5475 118.413 79.6304Z"/><path fill="#4A4A4A" d="M121.655 78.7617L120.04 79.1945C119.731 79.2774 119.547 79.5954 119.63 79.9048L120.063 81.52C120.146 81.8294 120.464 82.013 120.773 81.9301L122.388 81.4973C122.698 81.4144 122.881 81.0964 122.799 80.787L122.366 79.1718C122.283 78.8624 121.965 78.6788 121.655 78.7617Z"/><path fill="#4A4A4A" d="M124.898 77.8929L123.282 78.3257C122.973 78.4086 122.789 78.7267 122.872 79.0361L123.305 80.6512C123.388 80.9606 123.706 81.1443 124.015 81.0614L125.631 80.6286C125.94 80.5457 126.124 80.2276 126.041 79.9182L125.608 78.3031C125.525 77.9936 125.207 77.81 124.898 77.8929Z"/><path fill="#4A4A4A" fill-rule="evenodd" d="M126.626 77.4296L130.166 76.4811C130.314 76.4413 130.473 76.4622 130.606 76.5391C130.739 76.616 130.836 76.7427 130.876 76.8913L131.309 78.5064C131.349 78.655 131.328 78.8133 131.251 78.9465C131.174 79.0798 131.047 79.177 130.899 79.2168L127.359 80.1654C127.21 80.2052 127.052 80.1843 126.919 80.1074C126.785 80.0305 126.688 79.9038 126.648 79.7552L126.216 78.1406C126.176 77.992 126.197 77.8337 126.274 77.7005C126.351 77.5673 126.477 77.4701 126.626 77.4303L126.626 77.4296Z" clip-rule="evenodd"/><path fill="#4A4A4A" d="M88.7984 94.7328L87.1833 95.1656C86.8739 95.2485 86.6903 95.5665 86.7732 95.8759L87.2059 97.4911C87.2888 97.8005 87.6069 97.9841 87.9163 97.9012L89.5315 97.4684C89.8409 97.3855 90.0245 97.0675 89.9416 96.7581L89.5088 95.1429C89.4259 94.8335 89.1079 94.6499 88.7984 94.7328Z"/><path fill="#4A4A4A" d="M92.0406 93.864L90.4255 94.2968C90.1161 94.3797 89.9324 94.6977 90.0153 95.0071L90.4481 96.6223C90.531 96.9317 90.8491 97.1153 91.1585 97.0324L92.7736 96.5996C93.0831 96.5167 93.2667 96.1987 93.1838 95.8893L92.751 94.2741C92.6681 93.9647 92.35 93.7811 92.0406 93.864Z"/><path fill="#4A4A4A" d="M95.2828 92.9954L93.6677 93.4281C93.3582 93.511 93.1746 93.8291 93.2575 94.1385L93.6903 95.7536C93.7732 96.063 94.0913 96.2467 94.4007 96.1638L96.0158 95.731C96.3252 95.6481 96.5089 95.33 96.426 95.0206L95.9932 93.4055C95.9103 93.0961 95.5922 92.9124 95.2828 92.9954Z"/><path fill="#4A4A4A" d="M98.5245 92.1266L96.9094 92.5594C96.5999 92.6423 96.4163 92.9603 96.4992 93.2697L96.932 94.8849C97.0149 95.1943 97.333 95.3779 97.6424 95.295L99.2575 94.8622C99.5669 94.7793 99.7506 94.4613 99.6677 94.1519L99.2349 92.5367C99.152 92.2273 98.8339 92.0437 98.5245 92.1266Z"/><path fill="#4A4A4A" fill-rule="evenodd" d="M100.151 91.6908L115.748 87.5116C115.897 87.4718 116.055 87.4927 116.188 87.5696C116.321 87.6465 116.419 87.7732 116.458 87.9218L116.891 89.5375C116.931 89.6861 116.91 89.8444 116.833 89.9776C116.756 90.1108 116.63 90.208 116.481 90.2478L100.884 94.427C100.736 94.4668 100.577 94.446 100.444 94.3691C100.311 94.2922 100.214 94.1655 100.174 94.0169L99.7409 92.4012C99.7011 92.2526 99.722 92.0943 99.7989 91.9611C99.8758 91.8278 100.002 91.7306 100.151 91.6908ZM117.374 87.0758L119.395 86.5344C119.544 86.4946 119.702 86.5154 119.835 86.5923C119.969 86.6692 120.066 86.7959 120.106 86.9445L120.538 88.5602C120.578 88.7088 120.557 88.8671 120.481 89.0003C120.404 89.1336 120.277 89.2308 120.128 89.2706L118.108 89.812C117.959 89.8519 117.801 89.831 117.667 89.7541C117.534 89.6772 117.437 89.5505 117.397 89.4019L116.964 87.7862C116.924 87.6376 116.945 87.4793 117.022 87.3461C117.099 87.2129 117.226 87.1157 117.374 87.0758Z" clip-rule="evenodd"/><path fill="#4A4A4A" d="M122.637 85.6656L121.022 86.0984C120.713 86.1813 120.529 86.4994 120.612 86.8088L121.045 88.4239C121.128 88.7333 121.446 88.917 121.755 88.8341L123.37 88.4013C123.68 88.3184 123.863 88.0003 123.78 87.6909L123.348 86.0758C123.265 85.7663 122.947 85.5827 122.637 85.6656Z"/><path fill="#4A4A4A" d="M125.88 84.797L124.264 85.2298C123.955 85.3127 123.771 85.6307 123.854 85.9401L124.287 87.5553C124.37 87.8647 124.688 88.0483 124.997 87.9654L126.613 87.5326C126.922 87.4497 127.106 87.1317 127.023 86.8223L126.59 85.2071C126.507 84.8977 126.189 84.7141 125.88 84.797Z"/><path fill="#4A4A4A" d="M131.958 83.1682L130.343 83.601C130.034 83.6839 129.85 84.0019 129.933 84.3113L130.366 85.9265C130.449 86.2359 130.767 86.4195 131.076 86.3366L132.691 85.9038C133.001 85.8209 133.184 85.5029 133.101 85.1935L132.668 83.5783C132.586 83.2689 132.268 83.0853 131.958 83.1682Z"/><path fill="#4A4A4A" d="M127.055 85.7309L126.893 85.1259C126.853 84.9773 126.874 84.819 126.951 84.6858C127.028 84.5525 127.154 84.4553 127.303 84.4155L128.918 83.9827C129.067 83.9429 129.225 83.9638 129.358 84.0407C129.491 84.1176 129.589 84.2443 129.628 84.3929L129.791 84.9979L127.055 85.7309Z"/><path fill="#4A4A4A" d="M129.9 85.4028L130.062 86.0079C130.102 86.1565 130.081 86.3148 130.004 86.448C129.927 86.5812 129.8 86.6784 129.652 86.7183L128.037 87.151C127.888 87.1909 127.73 87.17 127.596 87.0931C127.463 87.0162 127.366 86.8895 127.326 86.7409L127.164 86.1359L129.9 85.4028Z"/><path fill="#4A4A4A" d="M127.9 68.6189L83.5239 80.5094C83.1882 80.5993 82.9889 80.9444 83.0789 81.2801C83.1688 81.6158 83.5139 81.815 83.8496 81.7251L128.225 69.8346C128.561 69.7447 128.76 69.3996 128.67 69.0639C128.58 68.7282 128.235 68.529 127.9 68.6189Z"/><path fill="#D8D8D8" d="M86.2363 80L84.49 80.4679C84.2663 80.5278 84.1336 80.7578 84.1935 80.9815L84.1936 80.982C84.2536 81.2057 84.4835 81.3385 84.7072 81.2785L86.4535 80.8106C86.6772 80.7507 86.8099 80.5208 86.75 80.2971L86.7498 80.2965C86.6899 80.0728 86.46 79.94 86.2363 80Z" opacity=".136"/><path fill="#D8D8D8" d="M89.7348 79.0626L87.9885 79.5305C87.7648 79.5904 87.6321 79.8204 87.692 80.0441L87.6922 80.0447C87.7521 80.2684 87.9821 80.4011 88.2058 80.3412L89.952 79.8733C90.1757 79.8133 90.3085 79.5834 90.2485 79.3597L90.2484 79.3591C90.1884 79.1354 89.9585 79.0027 89.7348 79.0626Z" opacity=".136"/><path fill="#D8D8D8" d="M92.4262 78.3415L90.68 78.8094C90.4563 78.8694 90.3235 79.0993 90.3834 79.323L90.3836 79.3236C90.4435 79.5473 90.6735 79.68 90.8972 79.6201L92.6434 79.1522C92.8671 79.0922 92.9999 78.8623 92.94 78.6386L92.9398 78.638C92.8799 78.4143 92.6499 78.2816 92.4262 78.3415Z" opacity=".136"/><path fill="#D8D8D8" d="M95.1166 77.6205L93.3704 78.0884C93.1467 78.1483 93.0139 78.3782 93.0739 78.602L93.074 78.6025C93.134 78.8262 93.3639 78.959 93.5876 78.899L95.3338 78.4311C95.5576 78.3712 95.6903 78.1412 95.6304 77.9175L95.6302 77.917C95.5703 77.6933 95.3403 77.5605 95.1166 77.6205Z" opacity=".136"/><path fill="#D8D8D8" d="M97.808 76.8993L96.0618 77.3672C95.8381 77.4271 95.7053 77.6571 95.7653 77.8808L95.7654 77.8813C95.8254 78.105 96.0553 78.2378 96.279 78.1778L98.0253 77.7099C98.249 77.65 98.3817 77.42 98.3218 77.1963L98.3216 77.1958C98.2617 76.9721 98.0317 76.8393 97.808 76.8993Z" opacity=".136"/><path fill="#D8D8D8" d="M101.172 75.998L99.4256 76.4659C99.2019 76.5259 99.0691 76.7558 99.129 76.9795L99.1292 76.9801C99.1891 77.2038 99.4191 77.3365 99.6428 77.2766L101.389 76.8087C101.613 76.7487 101.745 76.5188 101.686 76.2951L101.685 76.2945C101.625 76.0708 101.396 75.9381 101.172 75.998Z" opacity=".136"/><path fill="#D8D8D8" d="M103.863 75.2771L102.116 75.745C101.893 75.8049 101.76 76.0349 101.82 76.2586L101.82 76.2591C101.88 76.4828 102.11 76.6156 102.334 76.5556L104.08 76.0877C104.304 76.0278 104.436 75.7979 104.376 75.5742L104.376 75.5736C104.316 75.3499 104.086 75.2171 103.863 75.2771Z" opacity=".136"/><path fill="#D8D8D8" d="M106.554 74.5559L104.808 75.0238C104.584 75.0837 104.451 75.3137 104.511 75.5374L104.512 75.5379C104.571 75.7616 104.801 75.8944 105.025 75.8345L106.771 75.3665C106.995 75.3066 107.128 75.0767 107.068 74.853L107.068 74.8524C107.008 74.6287 106.778 74.4959 106.554 74.5559Z" opacity=".136"/><path fill="#D8D8D8" d="M109.245 73.8348L107.499 74.3027C107.275 74.3627 107.142 74.5926 107.202 74.8163L107.202 74.8169C107.262 75.0406 107.492 75.1733 107.716 75.1134L109.462 74.6455C109.686 74.5855 109.819 74.3556 109.759 74.1319L109.759 74.1313C109.699 73.9076 109.469 73.7749 109.245 73.8348Z" opacity=".136"/><path fill="#D8D8D8" d="M112.609 72.9334L110.863 73.4014C110.639 73.4613 110.507 73.6912 110.567 73.9149L110.567 73.9155C110.627 74.1392 110.857 74.272 111.08 74.212L112.827 73.7441C113.05 73.6842 113.183 73.4542 113.123 73.2305L113.123 73.23C113.063 73.0063 112.833 72.8735 112.609 72.9334Z" opacity=".136"/><path fill="#D8D8D8" d="M115.3 72.2124L113.553 72.6803C113.33 72.7402 113.197 72.9702 113.257 73.1939L113.257 73.1944C113.317 73.4181 113.547 73.5509 113.771 73.4909L115.517 73.023C115.741 72.9631 115.873 72.7332 115.813 72.5095L115.813 72.5089C115.753 72.2852 115.523 72.1524 115.3 72.2124Z" opacity=".136"/><path fill="#D8D8D8" d="M117.991 71.4913L116.245 71.9592C116.021 72.0192 115.888 72.2491 115.948 72.4728L115.949 72.4734C116.008 72.6971 116.238 72.8298 116.462 72.7699L118.208 72.302C118.432 72.242 118.565 72.0121 118.505 71.7884L118.505 71.7878C118.445 71.5641 118.215 71.4314 117.991 71.4913Z" opacity=".136"/><path fill="#D8D8D8" d="M121.355 70.5899L119.609 71.0578C119.385 71.1178 119.252 71.3477 119.312 71.5714L119.312 71.572C119.372 71.7957 119.602 71.9285 119.826 71.8685L121.572 71.4006C121.796 71.3407 121.929 71.1107 121.869 70.887L121.869 70.8865C121.809 70.6628 121.579 70.53 121.355 70.5899Z" opacity=".136"/><path fill="#D8D8D8" d="M124.046 69.869L122.3 70.3369C122.076 70.3968 121.943 70.6268 122.003 70.8505L122.003 70.851C122.063 71.0747 122.293 71.2075 122.517 71.1476L124.263 70.6797C124.487 70.6197 124.62 70.3898 124.56 70.1661L124.559 70.1655C124.499 69.9418 124.27 69.8091 124.046 69.869Z" opacity=".136"/><path fill="#D8D8D8" d="M126.737 69.1478L124.991 69.6157C124.767 69.6757 124.635 69.9056 124.694 70.1293L124.695 70.1299C124.755 70.3536 124.985 70.4863 125.208 70.4264L126.954 69.9585C127.178 69.8985 127.311 69.6686 127.251 69.4449L127.251 69.4443C127.191 69.2206 126.961 69.0879 126.737 69.1478Z" opacity=".136"/><path fill="#44D860" fill-rule="evenodd" d="M104.94 113.64C104.813 113.64 104.692 113.661 104.57 113.677C104.548 113.59 104.527 113.503 104.502 113.416C105.12 113.157 105.63 112.693 105.944 112.101C106.259 111.51 106.359 110.827 106.227 110.171C106.096 109.514 105.741 108.923 105.223 108.498C104.705 108.073 104.056 107.841 103.386 107.84C102.753 107.842 102.138 108.054 101.637 108.441C101.572 108.375 101.508 108.31 101.442 108.246C101.821 107.748 102.027 107.14 102.029 106.514C102.028 105.845 101.797 105.198 101.374 104.68C100.952 104.163 100.363 103.807 99.7085 103.674C99.0539 103.54 98.3731 103.637 97.7814 103.947C97.1898 104.258 96.7234 104.763 96.4612 105.377C96.3754 105.353 96.289 105.333 96.2031 105.311C96.2188 105.188 96.2402 105.067 96.2402 104.94C96.2402 104.171 95.9347 103.433 95.3909 102.889C94.847 102.346 94.1094 102.04 93.3402 102.04C92.5711 102.04 91.8335 102.346 91.2896 102.889C90.7458 103.433 90.4402 104.171 90.4402 104.94C90.4402 105.067 90.4617 105.188 90.4774 105.311C90.3915 105.333 90.3051 105.353 90.2193 105.377C89.958 104.762 89.4919 104.255 88.8999 103.944C88.3078 103.633 87.6264 103.536 86.971 103.669C86.3156 103.803 85.7267 104.159 85.304 104.678C84.8813 105.196 84.6509 105.845 84.6518 106.514C84.6518 107.166 84.8746 107.761 85.2382 108.246C83.0824 110.353 81.7402 113.288 81.7402 116.54C81.7402 122.947 86.9336 128.14 93.3402 128.14C98.7569 128.14 103.293 124.422 104.57 119.403C104.692 119.419 104.813 119.44 104.94 119.44C105.709 119.44 106.447 119.135 106.991 118.591C107.535 118.047 107.84 117.309 107.84 116.54C107.84 115.771 107.535 115.033 106.991 114.489C106.447 113.946 105.709 113.64 104.94 113.64Z" clip-rule="evenodd"/><path fill="#3ECC5F" fill-rule="evenodd" d="M70.1401 93.34H93.3401V81.74H70.1401V93.34Z" clip-rule="evenodd"/><path fill="#44D860" fill-rule="evenodd" d="M99.14 88.99C99.5246 88.99 99.8934 88.8372 100.165 88.5653C100.437 88.2933 100.59 87.9245 100.59 87.54C100.59 87.1554 100.437 86.7866 100.165 86.5147C99.8934 86.2427 99.5246 86.09 99.14 86.09C99.0768 86.09 99.0159 86.101 98.955 86.1085C98.9434 86.065 98.9336 86.0215 98.9214 85.978C99.23 85.8484 99.4844 85.6161 99.6412 85.3204C99.7981 85.0247 99.8479 84.6838 99.7822 84.3556C99.7164 84.0274 99.5392 83.732 99.2805 83.5196C99.0218 83.3071 98.6976 83.1907 98.3628 83.19C98.0328 83.19 97.7318 83.3042 97.4882 83.4904C97.4563 83.4573 97.4238 83.4249 97.3908 83.393C97.5729 83.1511 97.6842 82.853 97.6842 82.5264C97.6841 82.1923 97.5686 81.8684 97.3572 81.6096C97.1458 81.3508 96.8515 81.1729 96.524 81.1062C96.1966 81.0394 95.8561 81.0877 95.5602 81.2431C95.2644 81.3984 95.0312 81.6512 94.9002 81.9586C94.3926 81.815 93.8676 81.7415 93.34 81.74C90.1373 81.74 87.54 84.3372 87.54 87.54C87.54 90.7427 90.1373 93.34 93.34 93.34C93.8818 93.34 94.4032 93.2599 94.9002 93.1213C95.0312 93.4288 95.2644 93.6815 95.5602 93.8369C95.8561 93.9922 96.1966 94.0406 96.524 93.9738C96.8515 93.907 97.1458 93.7292 97.3572 93.4704C97.5686 93.2115 97.6841 92.8877 97.6842 92.5535C97.6842 92.2269 97.5729 91.9288 97.3908 91.687C97.4238 91.6551 97.4563 91.6226 97.4882 91.5895C97.7318 91.7757 98.0328 91.89 98.3628 91.89C98.6979 91.8899 99.0227 91.7738 99.2819 91.5614C99.5411 91.349 99.7187 91.0534 99.7845 90.7248C99.8503 90.3962 99.8003 90.055 99.6429 89.7591C99.4856 89.4632 99.2306 89.231 98.9214 89.1019C98.9336 89.059 98.9434 89.0149 98.955 88.9714C99.0159 88.9789 99.0768 88.99 99.14 88.99Z" clip-rule="evenodd"/><path fill="#000" fill-rule="evenodd" d="M104.94 46.215C104.847 46.215 104.749 46.2034 104.656 46.186C104.563 46.1678 104.471 46.1406 104.383 46.1048C104.296 46.07 104.215 46.0236 104.133 45.9714C104.058 45.9192 103.983 45.8554 103.913 45.7916C103.85 45.722 103.786 45.6524 103.734 45.5712C103.682 45.49 103.635 45.4088 103.6 45.3218C103.529 45.1447 103.491 44.9558 103.49 44.765C103.49 44.6722 103.502 44.5735 103.519 44.4807C103.537 44.388 103.566 44.301 103.6 44.2082C103.635 44.1212 103.682 44.04 103.734 43.9588C103.786 43.8834 103.85 43.808 103.913 43.7384C103.983 43.6746 104.058 43.6108 104.133 43.5586C104.215 43.5064 104.296 43.46 104.383 43.4252C104.47 43.3904 104.563 43.3614 104.656 43.344C104.842 43.3034 105.033 43.3034 105.224 43.344C105.317 43.3614 105.41 43.3904 105.497 43.4252C105.583 43.46 105.665 43.5064 105.746 43.5586C105.822 43.6108 105.897 43.6746 105.967 43.7384C106.031 43.808 106.094 43.8834 106.147 43.9588C106.199 44.04 106.245 44.1212 106.28 44.2082C106.315 44.301 106.344 44.388 106.361 44.4807C106.378 44.5735 106.39 44.6722 106.39 44.765C106.39 45.1478 106.233 45.5248 105.967 45.7916C105.897 45.8554 105.822 45.9192 105.746 45.9714C105.665 46.0236 105.583 46.07 105.497 46.1048C105.32 46.1769 105.131 46.2143 104.94 46.215ZM116.54 45.49C116.157 45.49 115.786 45.3334 115.513 45.0666C115.449 44.997 115.389 44.9234 115.334 44.8462C115.282 44.765 115.235 44.6838 115.2 44.5968C115.129 44.4197 115.091 44.2308 115.09 44.04C115.09 43.6572 115.247 43.286 115.513 43.0134C115.583 42.9496 115.658 42.8858 115.733 42.8336C115.815 42.7814 115.896 42.735 115.983 42.7002C116.07 42.6654 116.163 42.6364 116.256 42.619C116.442 42.5784 116.639 42.5784 116.824 42.619C116.917 42.6364 117.01 42.6654 117.097 42.7002C117.183 42.735 117.265 42.7814 117.346 42.8336C117.422 42.8858 117.497 42.9496 117.567 43.0134C117.833 43.286 117.99 43.6572 117.99 44.04C117.99 44.1328 117.978 44.2314 117.961 44.3242C117.944 44.417 117.915 44.5098 117.88 44.5968C117.839 44.6838 117.799 44.765 117.747 44.8462C117.694 44.9216 117.631 44.997 117.567 45.0666C117.497 45.1304 117.422 45.1942 117.346 45.2464C117.265 45.2986 117.183 45.345 117.097 45.3798C116.92 45.4519 116.731 45.4893 116.54 45.49Z" clip-rule="evenodd"/></svg>