<svg xmlns="http://www.w3.org/2000/svg" width="160" height="160" fill="none" viewBox="0 0 160 160"><rect width="160" height="160" fill="#E05C43" rx="20"/><path fill="#FEFEFE" fill-rule="evenodd" d="M53.5171 114.602C58.1027 119.17 62.9749 121.797 68.8789 123.11C85.3871 126.708 108.086 118.999 126.027 103.696C131.071 99.4139 134.052 95.8166 134.052 94.1036C134.052 93.5326 132.332 91.2486 130.211 89.0788C125.511 84.1683 124.709 84.1112 119.607 87.9369C110.78 94.6175 101.15 99.8707 92.7814 102.554C88.6543 103.925 86.8774 104.153 81.3174 104.21C72.3754 104.267 69.3375 102.783 68.3057 97.7009C68.0191 96.1592 68.1911 95.9308 69.9107 95.3027C73.1779 94.2178 83.0943 89.0217 87.336 86.1668C95.8767 80.5139 102.812 72.6912 105.449 65.7822C107.169 61.1571 107.513 54.3622 106.252 49.1091C106.226 49.0028 106.2 48.898 106.175 48.7947C105.255 45.0111 104.799 43.1372 101.061 39.4133C95.7298 34.103 93.3161 32.6456 84.718 32.303C77.3238 32.0175 72.0315 34.72 66.7007 38.203C62.1151 41.1151 56.3831 47.3961 53.2878 52.8777C50.1352 58.3592 46.696 68.2375 45.435 75.432C44.9191 78.4012 44.4032 81.0849 44.2313 81.3704C44.0593 81.5988 41.7665 81.713 39.1298 81.5988C35.0027 81.3704 33.971 81.0849 31.4489 79.5432C29.8439 78.5154 27.7231 77.716 26.8059 77.716C22.5643 77.716 18.3226 86.5094 20.8447 90.1066C22.335 92.2193 27.6084 93.5897 42.6836 95.7595C44.3459 95.9879 44.4605 96.2163 45.1484 99.7565C46.3521 105.524 48.8169 109.977 53.5171 114.602ZM86.0749 69.8363C83.7821 72.9767 77.133 77.6018 72.4327 79.3719C70.6558 80.0571 68.4203 80.571 67.4459 80.571H65.7263L66.1275 76.8024C67.6179 62.7559 75.5853 50.8792 83.7248 50.6508C85.6164 50.5937 86.3042 50.9363 87.6226 52.4209C89.858 54.9332 90.6605 57.9595 89.9154 61.671C89.2849 65.0399 88.769 66.1248 86.0749 69.8363Z" clip-rule="evenodd"/></svg>