<svg width="160" height="160" viewBox="0 0 160 160" fill="none" xmlns="http://www.w3.org/2000/svg">
<rect width="160" height="160" rx="20" fill="#F6D854"/>
<path d="M60.166 81.0195H41.2871V91.0127H62.8027V98H33.3506V59.1348H61.8535V66.0166H41.2871V74.2695H60.166V81.0195ZM83.2373 92.3838C85.1533 92.3838 86.709 92.1729 87.9043 91.751C90.1719 90.9424 91.3057 89.4395 91.3057 87.2422C91.3057 85.959 90.7432 84.9658 89.6182 84.2627C88.4932 83.5771 86.7266 82.9707 84.3184 82.4434L80.2051 81.5205C76.1621 80.6064 73.3672 79.6133 71.8203 78.541C69.2012 76.748 67.8916 73.9443 67.8916 70.1299C67.8916 66.6494 69.1572 63.7578 71.6885 61.4551C74.2197 59.1523 77.9375 58.001 82.8418 58.001C86.9375 58.001 90.4268 59.0908 93.3096 61.2705C96.21 63.4326 97.7305 66.5791 97.8711 70.71H90.0664C89.9258 68.3721 88.9062 66.7109 87.0078 65.7266C85.7422 65.0762 84.1689 64.751 82.2881 64.751C80.1963 64.751 78.5264 65.1729 77.2783 66.0166C76.0303 66.8604 75.4062 68.0381 75.4062 69.5498C75.4062 70.9385 76.0215 71.9756 77.252 72.6611C78.043 73.1182 79.7305 73.6543 82.3145 74.2695L89.0117 75.8779C91.9473 76.5811 94.1621 77.5215 95.6562 78.6992C97.9766 80.5273 99.1367 83.1729 99.1367 86.6357C99.1367 90.1865 97.7744 93.1396 95.0498 95.4951C92.3428 97.833 88.5107 99.002 83.5537 99.002C78.4912 99.002 74.5098 97.8506 71.6094 95.5479C68.709 93.2275 67.2588 90.0459 67.2588 86.0029H75.0107C75.2568 87.7783 75.7402 89.1055 76.4609 89.9844C77.7793 91.584 80.0381 92.3838 83.2373 92.3838ZM117.541 73.1885C120.934 73.1885 123.711 74.3398 125.873 76.6426C128.053 78.9453 129.143 81.8896 129.143 85.4756C129.143 89.0439 128.079 92.1904 125.952 94.915C123.825 97.6396 120.521 99.002 116.038 99.002C111.222 99.002 107.671 96.9893 105.386 92.9639C103.61 89.8174 102.723 85.7568 102.723 80.7822C102.723 77.8643 102.846 75.4912 103.092 73.6631C103.531 70.4111 104.384 67.7041 105.649 65.542C106.739 63.6963 108.163 62.2109 109.921 61.0859C111.696 59.9609 113.814 59.3984 116.275 59.3984C119.826 59.3984 122.656 60.3125 124.766 62.1406C126.875 63.9512 128.062 66.3682 128.325 69.3916H120.837C120.837 68.7764 120.6 68.0996 120.125 67.3613C119.316 66.166 118.095 65.5684 116.46 65.5684C114.017 65.5684 112.276 66.9395 111.239 69.6816C110.677 71.1934 110.29 73.4258 110.079 76.3789C111.011 75.2715 112.092 74.4629 113.322 73.9531C114.553 73.4434 115.959 73.1885 117.541 73.1885ZM112.479 80.3604C111.002 81.5029 110.264 83.3486 110.264 85.8975C110.264 87.9541 110.817 89.6328 111.925 90.9336C113.032 92.2344 114.438 92.8848 116.144 92.8848C117.813 92.8848 119.123 92.2607 120.072 91.0127C121.039 89.7471 121.522 88.1123 121.522 86.1084C121.522 83.876 120.978 82.1709 119.888 80.9932C118.798 79.7979 117.462 79.2002 115.88 79.2002C114.597 79.2002 113.463 79.5869 112.479 80.3604Z" fill="#333333"/>
</svg>
