<svg width="161" height="160" viewBox="0 0 161 160" fill="none" xmlns="http://www.w3.org/2000/svg">
<rect x="0.09375" width="160" height="160" rx="20" fill="#4B32C3"/>
<path d="M55.046 64.2827L79.12 50.3381C79.7224 49.989 80.465 49.989 81.0675 50.3381L105.142 64.2827C105.744 64.6318 106.116 65.2766 106.116 65.9748V93.8639C106.116 94.5616 105.744 95.2069 105.142 95.5565L81.0675 109.501C80.465 109.85 79.7224 109.85 79.12 109.501L55.046 95.5565C54.4436 95.2074 54.0723 94.5621 54.0723 93.8639V65.9748C54.0728 65.2766 54.4441 64.6318 55.046 64.2827" fill="#8080F2"/>
<path d="M142.687 76.9855L113.923 26.7806C112.878 24.9653 110.948 23.6263 108.859 23.6263H51.3303C49.2406 23.6263 47.31 24.9653 46.2652 26.7806L17.5014 76.8747C16.4566 78.6905 16.4566 80.982 17.5014 82.7978L46.2652 132.591C47.31 134.406 49.2406 135.335 51.3303 135.335H108.858C110.948 135.335 112.878 134.434 113.922 132.619L142.686 82.7439C143.732 80.9292 143.732 78.8007 142.687 76.9855V76.9855ZM118.869 101.127C118.869 101.865 118.426 102.548 117.788 102.918L81.1494 124.126C80.5121 124.495 79.7138 124.495 79.0766 124.126L42.4094 102.918C41.7722 102.548 41.3263 101.866 41.3263 101.127V58.7107C41.3263 57.9721 41.7657 57.2899 42.4035 56.9204L79.0408 35.7123C79.678 35.3427 80.4753 35.3427 81.1126 35.7123L117.782 56.9204C118.42 57.2899 118.869 57.9721 118.869 58.7107V101.127Z" fill="white"/>
</svg>
