<svg xmlns="http://www.w3.org/2000/svg" width="160" height="160" fill="none" viewBox="0 0 160 160"><rect width="160" height="160" fill="#4B32C3" rx="20"/><path fill="#8080F2" d="M54.9523 64.2827L79.0262 50.3382C79.6287 49.9891 80.3713 49.9891 80.9737 50.3382L105.048 64.2827C105.65 64.6318 106.022 65.2766 106.022 65.9748V93.864C106.022 94.5617 105.65 95.207 105.048 95.5566L80.9737 109.501C80.3713 109.85 79.6287 109.85 79.0262 109.501L54.9523 95.5566C54.3498 95.2075 53.9785 94.5622 53.9785 93.864V65.9748C53.979 65.2766 54.3503 64.6318 54.9523 64.2827"/><path fill="#fff" d="M142.593 76.9856L113.829 26.7807C112.784 24.9655 110.854 23.6265 108.765 23.6265H51.2361C49.1464 23.6265 47.2158 24.9655 46.1709 26.7807L17.4072 76.8749C16.3623 78.6906 16.3623 80.9821 17.4072 82.7979L46.1709 132.591C47.2158 134.407 49.1464 135.335 51.2361 135.335H108.764C110.853 135.335 112.784 134.435 113.828 132.619L142.592 82.744C143.638 80.9293 143.638 78.8008 142.593 76.9856V76.9856ZM118.775 101.128C118.775 101.866 118.332 102.548 117.694 102.918L81.0551 124.126C80.4179 124.495 79.6196 124.495 78.9823 124.126L42.3152 102.918C41.678 102.548 41.2321 101.866 41.2321 101.128V58.7108C41.2321 57.9722 41.6715 57.29 42.3092 56.9205L78.9466 35.7124C79.5838 35.3429 80.3811 35.3429 81.0183 35.7124L117.688 56.9205C118.326 57.29 118.775 57.9722 118.775 58.7108V101.128Z"/></svg>