<svg xmlns="http://www.w3.org/2000/svg" width="160" height="160" fill="none" viewBox="0 0 160 160"><rect width="160" height="160" fill="#181818" rx="20"/><path fill="#FF4387" fill-rule="evenodd" d="M128.537 82.0699L124.109 81.5382C123.312 81.4496 122.603 81.9813 122.515 82.7789C121.525 88.7148 119.053 94.3044 115.327 99.0286C111.601 103.753 106.742 107.458 101.202 109.801C95.662 112.144 89.6199 113.048 83.637 112.429C77.6541 111.811 71.9245 109.689 66.9802 106.263C64.7659 104.756 65.5631 101.566 68.1317 100.946L86.7317 95.8943C87.114 95.8109 87.4756 95.6516 87.7952 95.4257C88.1149 95.1998 88.3859 94.9121 88.5923 94.5795C88.7986 94.2468 88.9362 93.8762 88.9967 93.4894C89.0572 93.1026 89.0395 92.7076 88.9446 92.3278C88.8497 91.948 88.6795 91.5911 88.4442 91.2783C88.2089 90.9655 87.9132 90.7032 87.5747 90.5069C87.2361 90.3106 86.8616 90.1843 86.4734 90.1355C86.0852 90.0867 85.6911 90.1163 85.3145 90.2228L61.3117 96.6033H61.0459L49.8859 99.7935C49.8564 99.7951 49.8269 99.7951 49.7974 99.7935C49.4252 99.8924 49.0761 100.064 48.77 100.298C48.464 100.532 48.207 100.823 48.0137 101.157C47.8205 101.49 47.6947 101.858 47.6436 102.24C47.5925 102.622 47.6171 103.01 47.7159 103.383C47.8148 103.755 47.986 104.104 48.2198 104.41C48.4536 104.717 48.7453 104.974 49.0784 105.167C49.7512 105.558 50.5514 105.665 51.3031 105.465H51.5688C53.3402 104.933 55.1117 105.554 56.4402 106.883C60.8489 111.401 66.1968 114.895 72.105 117.115C78.0132 119.336 84.3371 120.229 90.6288 119.733C100.251 118.982 109.342 115.018 116.441 108.477C123.541 101.936 128.238 93.1976 129.777 83.665C129.866 82.9561 129.335 82.2472 128.537 82.0699ZM38.8145 78.348C38.6375 78.3381 38.4601 78.3381 38.2831 78.348L29.0717 80.9179C28.6995 81.0168 28.3114 81.0414 27.9297 80.9903C27.548 80.9392 27.1801 80.8133 26.847 80.6199C26.5139 80.4266 26.2221 80.1694 25.9884 79.8632C25.7546 79.557 25.5834 79.2078 25.4845 78.8354C25.3856 78.463 25.3611 78.0747 25.4122 77.6928C25.4633 77.3109 25.589 76.9428 25.7823 76.6095C25.9756 76.2763 26.2326 75.9844 26.5386 75.7505C26.8447 75.5166 27.1937 75.3453 27.5659 75.2463L41.7374 71.4358C43.5088 70.9041 44.8374 69.3976 45.2802 67.5366C46.623 61.4598 49.266 55.7464 53.0274 50.7898C56.7889 45.8331 61.5793 41.751 67.0688 38.8244C75.575 34.3198 85.3447 32.7973 94.8172 34.5001C104.29 36.2028 112.919 41.0326 119.326 48.2179C119.946 48.7496 119.857 49.7244 119.237 50.1675L115.783 53.0919L114.72 53.978C110.805 49.2468 105.737 45.6058 100.004 43.4068C94.2721 41.2079 88.0699 40.5254 81.9969 41.4252C75.924 42.325 70.1857 44.7768 65.3365 48.5436C60.4872 52.3104 56.691 57.2649 54.3145 62.9285C53.3402 65.4098 55.6431 67.7138 58.2117 67.0049L60.1602 66.4732C60.9119 66.2734 61.7122 66.3806 62.3849 66.7711C63.0576 67.1617 63.5477 67.8036 63.7474 68.5557C63.947 69.3078 63.8399 70.1084 63.4496 70.7815C63.0592 71.4546 62.4176 71.9449 61.6659 72.1447L54.9345 73.9171C54.754 73.9655 54.5765 74.0247 54.4031 74.0943L38.8145 78.348V78.348Z" clip-rule="evenodd"/><path fill="#FF4387" d="M78.6868 81.8956C80.246 81.4776 81.1714 79.8741 80.7536 78.314C80.3358 76.7539 78.7331 75.8281 77.1738 76.2461L68.704 78.5168C67.1448 78.9348 66.2194 80.5384 66.6372 82.0984C67.055 83.6585 68.6578 84.5843 70.217 84.1663L78.6868 81.8956Z"/><path fill="#FF4387" d="M59.4695 86.9698C61.0288 86.5518 61.9541 84.9482 61.5363 83.3882C61.1185 81.8281 59.5158 80.9023 57.9565 81.3203L20.9974 91.2287C19.4382 91.6467 18.5129 93.2502 18.9307 94.8103C19.3485 96.3703 20.9512 97.2962 22.5104 96.8781L59.4695 86.9698Z"/><path fill="#FF4387" d="M100.301 76.247C101.86 75.829 102.786 74.2255 102.368 72.6654C101.95 71.1053 100.347 70.1795 98.7881 70.5975L87.495 73.6251C85.9358 74.0431 85.0104 75.6467 85.4282 77.2067C85.846 78.7668 87.4487 79.6926 89.008 79.2746L100.301 76.247Z"/><path fill="#FF4387" fill-rule="evenodd" d="M104.534 71.0813C105.826 75.8876 108.974 79.9836 113.284 82.4682C117.594 84.9527 122.715 85.6223 127.519 84.3297C132.322 83.037 136.416 79.888 138.9 75.5753C141.383 71.2627 142.052 66.1397 140.76 61.3333C139.468 56.527 136.321 52.431 132.01 49.9464C127.7 47.4619 122.58 46.7923 117.776 48.085C112.972 49.3776 108.878 52.5267 106.395 56.8393C103.912 61.152 103.242 66.275 104.534 71.0813V71.0813ZM122.603 79.4114C130.131 79.4114 136.154 73.474 136.154 66.1187C136.154 58.852 130.131 52.9146 122.603 52.9146C115.074 52.9146 109.14 58.852 109.14 66.2073C109.14 73.474 115.163 79.4114 122.603 79.4114V79.4114Z" clip-rule="evenodd"/></svg>