<svg width="80" height="80" viewBox="0 0 80 80" fill="none" xmlns="http://www.w3.org/2000/svg">
<rect x="-0.000976562" width="80.0003" height="80.0003" rx="10.5894" fill="black"/>
<path fill-rule="evenodd" clip-rule="evenodd" d="M31.6303 65.1103C36.2482 65.1103 39.998 61.3616 39.998 56.7426V48.375H31.6303C27.0124 48.375 23.2627 52.1237 23.2627 56.7426C23.2627 61.3616 27.0114 65.1103 31.6303 65.1103Z" fill="#0ACF83"/>
<path fill-rule="evenodd" clip-rule="evenodd" d="M23.2549 40.0005C23.2549 35.3826 27.0036 31.6328 31.6225 31.6328H39.9902V48.3765H31.6225C27.0031 48.3719 23.2595 44.6283 23.2549 40.0089V40.0005Z" fill="#A259FF"/>
<path fill-rule="evenodd" clip-rule="evenodd" d="M23.2549 23.2573C23.2549 18.6383 27.0036 14.8896 31.6225 14.8896H39.9902V31.6334H31.6225C27.0031 31.6287 23.2595 27.8851 23.2549 23.2657V23.2573Z" fill="#F24E1E"/>
<path fill-rule="evenodd" clip-rule="evenodd" d="M39.919 14.8896H48.2867C52.9046 14.8896 56.6533 18.6383 56.6533 23.2573C56.6533 27.8763 52.9046 31.6249 48.2856 31.6249H39.918L39.919 14.8896Z" fill="#FF7262"/>
<path fill-rule="evenodd" clip-rule="evenodd" d="M56.7427 40.0005C56.738 44.6199 52.9944 48.3635 48.375 48.3681C43.7571 48.3681 39.9199 44.6194 39.9199 40.0005C39.9246 35.3811 43.6682 31.6375 48.2876 31.6328C52.9055 31.6328 56.6552 35.3815 56.6552 40.0005H56.7427Z" fill="#1ABCFE"/>
</svg>
