<svg width="60" height="60" viewBox="0 0 60 60" fill="none" xmlns="http://www.w3.org/2000/svg">
<rect width="60" height="60" rx="10" fill="black"/>
<path fill-rule="evenodd" clip-rule="evenodd" d="M23.7244 48.8327C27.1879 48.8327 30.0002 46.0212 30.0002 42.557V36.2812H23.7244C20.261 36.2812 17.4487 39.0928 17.4487 42.557C17.4487 46.0212 20.2602 48.8327 23.7244 48.8327Z" fill="#0ACF83"/>
<path fill-rule="evenodd" clip-rule="evenodd" d="M17.4424 30.0023C17.4424 26.5389 20.2539 23.7266 23.7181 23.7266H29.9938V36.2843H23.7181C20.2536 36.2808 17.4459 33.4731 17.4424 30.0086V30.0023Z" fill="#A259FF"/>
<path fill-rule="evenodd" clip-rule="evenodd" d="M17.4424 17.4437C17.4424 13.9795 20.2539 11.168 23.7181 11.168H29.9938V23.7257H23.7181C20.2536 23.7222 17.4459 20.9145 17.4424 17.45V17.4437Z" fill="#F24E1E"/>
<path fill-rule="evenodd" clip-rule="evenodd" d="M29.941 11.168H36.2167C39.6801 11.168 42.4916 13.9795 42.4916 17.4437C42.4916 20.9079 39.6801 23.7194 36.2159 23.7194H29.9402L29.941 11.168Z" fill="#FF7262"/>
<path fill-rule="evenodd" clip-rule="evenodd" d="M42.5579 30.0023C42.5544 33.4668 39.7467 36.2745 36.2822 36.278C32.8188 36.278 29.9409 33.4665 29.9409 30.0023C29.9444 26.5377 32.7521 23.73 36.2166 23.7266C39.68 23.7266 42.4923 26.5381 42.4923 30.0023H42.5579Z" fill="#1ABCFE"/>
</svg>
