<svg width="160" height="160" viewBox="0 0 160 160" fill="none" xmlns="http://www.w3.org/2000/svg">
<rect width="160" height="160" rx="20" fill="black"/>
<path fill-rule="evenodd" clip-rule="evenodd" d="M63.265 130.22C72.5008 130.22 80.0002 122.723 80.0002 113.485V96.7499H63.265C54.0292 96.7499 46.5298 104.247 46.5298 113.485C46.5298 122.723 54.0271 130.22 63.265 130.22Z" fill="#0ACF83"/>
<path fill-rule="evenodd" clip-rule="evenodd" d="M46.5127 80.002C46.5127 70.7662 54.01 63.2668 63.2479 63.2668H79.9832V96.7541H63.2479C54.0092 96.7448 46.522 89.2576 46.5127 80.0189V80.002Z" fill="#A259FF"/>
<path fill-rule="evenodd" clip-rule="evenodd" d="M46.5127 46.5147C46.5127 37.2769 54.01 29.7795 63.2479 29.7795H79.9832V63.2668H63.2479C54.0092 63.2575 46.522 55.7704 46.5127 46.5316V46.5147Z" fill="#F24E1E"/>
<path fill-rule="evenodd" clip-rule="evenodd" d="M79.842 29.7795H96.5772C105.813 29.7795 113.31 37.2769 113.31 46.5147C113.31 55.7526 105.813 63.25 96.5751 63.25H79.8398L79.842 29.7795Z" fill="#FF7262"/>
<path fill-rule="evenodd" clip-rule="evenodd" d="M113.488 80.002C113.478 89.2408 105.991 96.7279 96.7524 96.7372C87.5166 96.7372 79.8423 89.2399 79.8423 80.002C79.8516 70.7633 87.3388 63.2761 96.5775 63.2668C105.813 63.2668 113.313 70.7641 113.313 80.002H113.488Z" fill="#1ABCFE"/>
</svg>
