<svg width="161" height="160" viewBox="0 0 161 160" fill="none" xmlns="http://www.w3.org/2000/svg">
<rect x="0.875" width="160" height="160" rx="20" fill="black"/>
<path fill-rule="evenodd" clip-rule="evenodd" d="M64.1395 130.22C73.3753 130.22 80.8748 122.723 80.8748 113.485V96.7499H64.1395C54.9038 96.7499 47.4043 104.247 47.4043 113.485C47.4043 122.723 54.9016 130.22 64.1395 130.22Z" fill="#0ACF83"/>
<path fill-rule="evenodd" clip-rule="evenodd" d="M47.3877 80.002C47.3877 70.7662 54.885 63.2668 64.1229 63.2668H80.8582V96.7541H64.1229C54.8842 96.7448 47.397 89.2576 47.3877 80.0189V80.002Z" fill="#A259FF"/>
<path fill-rule="evenodd" clip-rule="evenodd" d="M47.3877 46.5148C47.3877 37.2769 54.885 29.7795 64.1229 29.7795H80.8582V63.2669H64.1229C54.8842 63.2576 47.397 55.7704 47.3877 46.5316V46.5148Z" fill="#F24E1E"/>
<path fill-rule="evenodd" clip-rule="evenodd" d="M80.717 29.7795H97.4522C106.688 29.7795 114.185 37.2769 114.185 46.5148C114.185 55.7526 106.688 63.25 97.4501 63.25H80.7148L80.717 29.7795Z" fill="#FF7262"/>
<path fill-rule="evenodd" clip-rule="evenodd" d="M114.362 80.002C114.353 89.2408 106.866 96.7279 97.6269 96.7372C88.3911 96.7372 80.7168 89.2399 80.7168 80.002C80.7261 70.7633 88.2133 63.2761 97.452 63.2668C106.688 63.2668 114.187 70.7641 114.187 80.002H114.362Z" fill="#1ABCFE"/>
</svg>
