<svg xmlns="http://www.w3.org/2000/svg" width="160" height="160" fill="none" viewBox="0 0 160 160"><rect width="160" height="160" fill="#CA90FF" rx="20"/><path fill="#fff" d="M134.503 119.522C134.503 120.686 134.171 121.268 133.506 121.268C131.802 121.268 129.662 121.143 127.085 120.894C124.218 120.644 121.745 120.52 119.667 120.52C117.672 120.52 115.116 120.644 112 120.894C109.174 121.143 106.909 121.268 105.205 121.268C104.54 121.268 104.207 120.686 104.207 119.522C104.207 118.359 104.54 117.777 105.205 117.777C106.327 117.652 107.096 117.444 107.511 117.153C107.968 116.821 108.197 116.239 108.197 115.408C108.197 114.286 106.202 111.543 102.213 107.179L92.2385 96.208C91.532 95.3768 90.41 94.9612 88.8723 94.9612V107.179C88.8723 110.878 89.3294 113.517 90.2437 115.096C91.158 116.634 92.8204 117.527 95.2307 117.777C95.8957 117.777 96.2281 118.359 96.2281 119.522C96.2281 120.686 95.8957 121.268 95.2307 121.268C93.4853 121.268 91.158 121.143 88.2489 120.894C85.5476 120.644 83.4074 120.52 81.8281 120.52C80.0411 120.52 77.984 120.644 75.6567 120.894C73.4541 121.143 71.5632 121.268 69.984 121.268C69.3191 121.268 68.9866 120.686 68.9866 119.522C68.9866 118.483 69.3191 117.922 69.984 117.839C73.4749 117.382 75.6359 116.551 76.4671 115.346C77.2983 114.14 77.7139 111.46 77.7139 107.304V76.0106H51.4074V107.304C51.4074 111.501 51.8437 114.203 52.7165 115.408C53.6307 116.613 55.8541 117.424 59.3866 117.839C60.0515 117.922 60.384 118.483 60.384 119.522C60.384 120.686 60.0515 121.268 59.3866 121.268C57.6827 121.268 55.5632 121.143 53.0281 120.894C50.2437 120.644 47.8333 120.52 45.797 120.52C43.7191 120.52 41.2255 120.644 38.3165 120.894C35.6983 121.143 33.5372 121.268 31.8333 121.268C31.1684 121.268 30.8359 120.686 30.8359 119.522C30.8359 118.483 31.1684 117.922 31.8333 117.839C35.3658 117.382 37.6307 116.53 38.6281 115.283C39.6671 114.037 40.1866 111.377 40.1866 107.304V77.5067C40.1866 76.343 39.6879 75.7612 38.6905 75.7612H32.332C31.5009 75.7612 31.0853 75.221 31.0853 74.1404C31.0853 73.0599 31.4593 72.4365 32.2074 72.2703C37.5268 71.0651 40.1866 69.9015 40.1866 68.7794C40.1866 62.4625 41.7242 56.2703 44.7996 50.2028C47.8749 44.0937 51.9268 39.3145 56.9554 35.8651C62.0255 32.4158 67.5736 30.6911 73.5996 30.6911C77.132 30.6911 80.3944 31.4807 83.3866 33.0599C84.8827 32.3119 86.0671 31.5638 86.9398 30.8158C87.397 30.4002 87.7918 30.1924 88.1243 30.1924C89.2879 30.1924 89.8697 30.5249 89.8697 31.1898C89.2048 40.2495 88.8723 47.4807 88.8723 52.8833V91.4703C90.3684 91.4703 91.5528 91.0755 92.4256 90.2859L101.714 81.4963C106.119 77.6313 108.322 74.8885 108.322 73.2677C108.322 72.1872 106.659 71.4184 103.335 70.9612C102.67 70.8781 102.337 70.3171 102.337 69.2781C102.337 68.0313 102.67 67.408 103.335 67.408C105.122 67.408 107.324 67.5326 109.942 67.782C112.436 68.0313 114.472 68.156 116.052 68.156C117.298 68.156 118.877 68.0521 120.789 67.8443C123.075 67.5534 125.153 67.408 127.023 67.408C127.688 67.408 128.02 68.0313 128.02 69.2781C128.02 70.3586 127.688 70.9404 127.023 71.0236C123.948 71.356 121.288 72.0625 119.044 73.143C116.8 74.2236 113.724 76.4677 109.818 79.8755L99.0957 89.3508L115.428 107.179C118.836 110.92 121.703 113.517 124.031 114.972C126.4 116.385 129.558 117.32 133.506 117.777C134.171 117.777 134.503 118.359 134.503 119.522ZM77.7139 69.7768V49.3924C77.7139 41.9119 73.8074 38.1716 65.9944 38.1716C56.2697 38.1716 51.4074 44.4054 51.4074 56.8729V69.7768H77.7139Z"/></svg>