<svg xmlns="http://www.w3.org/2000/svg" width="160" height="160" fill="none" viewBox="0 0 160 160"><rect width="160" height="160" fill="#FC8562" rx="20"/><path fill="#fff" d="M85.4858 26.5975C73.891 26.5975 62.9196 32.3326 57.8079 53.652L57.1845 56.2702H44.0936L42.8468 61.0079H56.4365L45.8391 107.387C41.3507 127.21 37.2365 134.317 32.4988 134.317C31.252 134.317 30.0053 133.943 29.2572 133.32C30.504 131.948 31.8754 129.704 31.8754 127.585C31.8754 124.218 29.6313 121.475 25.7663 121.475C22.0261 121.475 18.9092 124.842 18.9092 128.831C18.9092 134.192 23.0235 138.182 31.5014 138.182C44.3429 138.182 51.0754 127.335 57.6832 98.5352L66.2858 61.0079H92.343L79.5014 117.985C76.5092 131.449 73.0183 134.317 70.1507 134.317C69.4027 134.317 68.6546 134.192 68.0313 133.943C69.1533 132.946 70.4001 130.826 70.4001 128.707C70.4001 125.714 68.53 122.972 64.665 122.972C61.0494 122.972 58.0572 126.712 58.0572 130.203C58.0572 134.691 61.4235 138.182 69.1533 138.182C80.1248 138.182 86.4832 130.826 92.343 104.769L102.192 61.0079H116.405L117.652 56.2702H102.94L104.935 47.0443C107.678 34.452 112.914 29.465 118.4 29.465C120.021 29.465 121.891 30.2131 122.639 31.4598C121.517 32.8313 120.395 35.3248 120.395 37.4442C120.395 41.1845 122.764 43.678 127.127 43.678C130.743 43.678 133.486 40.1871 133.486 35.8235C133.486 30.2131 128.873 25.6001 120.021 25.6001C112.914 25.6001 105.808 27.9689 100.447 35.9481C99.4494 30.9611 93.8391 26.5975 85.4858 26.5975ZM93.091 56.2702H67.0339L68.6546 49.5378C71.8962 35.5741 77.5066 30.4624 83.865 30.4624C86.6079 30.4624 89.1014 31.5845 89.8494 32.8313C88.7274 34.2027 87.6053 36.6962 87.6053 38.8157C87.6053 42.5559 89.9741 45.0494 94.3378 45.0494C94.9611 45.0494 95.4598 45.0494 96.0832 44.8001C95.0858 47.543 94.2131 50.5352 93.5897 53.9014L93.091 56.2702Z"/></svg>