<svg xmlns="http://www.w3.org/2000/svg" width="160" height="160" fill="none" viewBox="0 0 160 160"><rect width="160" height="160" fill="#61C1FD" rx="20"/><path fill="#fff" d="M50.2233 69.3223C48.397 65.3856 47.4839 61.7127 47.4839 58.3036C47.4839 54.4481 48.6202 50.8766 50.893 47.5893C53.1657 44.2614 56.0472 41.5828 59.5375 39.5536C63.0683 37.5244 66.7209 36.5098 70.4952 36.5098C74.716 36.5098 78.2266 37.6867 81.0269 40.0406C83.8678 42.3539 85.2883 45.134 85.2883 48.3807C85.2883 50.8158 84.5983 53.0682 83.2185 55.138C81.8792 57.2078 80.4587 58.2427 78.9571 58.2427C78.2266 58.2427 77.8613 57.8572 77.8613 57.0861C77.8613 56.802 78.0642 56.1729 78.4701 55.1989C79.1194 53.6161 79.4441 52.013 79.4441 50.3896C79.4441 47.9546 78.4498 45.9862 76.4612 44.4846C74.4725 42.9424 72.078 42.1713 69.2777 42.1713C64.7728 42.1713 60.5521 44.0382 56.6154 47.7719C52.7193 51.4651 50.7712 55.7062 50.7712 60.4952C50.7712 62.6461 51.0553 64.4724 51.6235 65.9741C52.1917 67.4351 52.699 68.3888 53.1454 68.8353C53.6324 69.2817 54.3021 69.5049 55.1543 69.5049C60.755 69.5049 63.5553 71.1283 63.5553 74.375C63.5553 75.1867 63.2509 75.9578 62.6422 76.6883C62.074 77.4189 61.2217 77.7841 60.0853 77.7841C58.8272 77.7841 57.2241 76.9521 55.2761 75.2882C53.2063 73.5025 51.1771 72.6096 49.1884 72.6096C46.6316 72.6096 44.1965 73.888 41.8832 76.4448C39.6105 78.9611 38.4741 81.9643 38.4741 85.4546C38.4741 92.2322 41.8426 98.6445 48.5797 104.692C55.3167 110.698 63.6974 113.701 73.7217 113.701C83.2185 113.701 91.3353 111.347 98.0724 106.64C104.85 101.891 108.239 96.2297 108.239 89.6551C108.239 85.2719 106.575 81.4773 103.247 78.2711C99.9189 75.0244 95.4141 73.401 89.7323 73.401C85.1462 73.401 81.0472 74.6591 77.4352 77.1754C73.8638 79.6916 72.078 82.8369 72.078 86.6112C72.078 88.884 72.7274 90.7508 74.0261 92.2119C75.3248 93.6729 76.6641 94.4034 78.0439 94.4034C79.6267 94.4034 80.4181 93.5512 80.4181 91.8466L80.3573 91.1161C80.3167 90.5885 80.2964 90.2232 80.2964 90.0203C80.2964 88.2346 80.7834 86.7736 81.7574 85.6372C82.7314 84.4603 83.9693 83.8718 85.4709 83.8718C86.8913 83.8718 88.1292 84.3791 89.1844 85.3937C90.2396 86.3677 90.7672 87.7476 90.7672 89.5333C90.7672 92.0901 89.8743 94.2208 88.0886 95.9254C86.3435 97.6299 84.091 98.4822 81.3313 98.4822C78.0439 98.4822 75.203 97.3255 72.8086 95.0122C70.4547 92.6583 69.2777 89.7768 69.2777 86.3677C69.2777 81.3758 71.3678 76.8304 75.548 72.7314C79.7282 68.6323 87.3175 66.5828 98.3159 66.5828C108.178 66.5828 115.341 65.2232 119.805 62.5041C124.27 59.8255 126.502 55.7468 126.502 50.2679C126.502 47.0211 125.507 44.3629 123.519 42.293C121.53 40.1827 119.014 39.1275 115.97 39.1275C114.468 39.1275 113.332 39.3507 112.561 39.7971C111.83 40.2029 111.465 40.8523 111.465 41.7452C111.465 42.3133 111.83 43.125 112.561 44.1802C113.494 45.5195 113.961 46.8182 113.961 48.0763C113.961 49.5779 113.373 50.8969 112.196 52.0333C111.059 53.1697 109.639 53.7379 107.934 53.7379C105.905 53.7379 104.363 53.0885 103.308 51.7898C102.253 50.4911 101.725 48.9692 101.725 47.2241C101.725 44.4643 103.064 41.9887 105.743 39.7971C108.462 37.6055 111.912 36.5098 116.092 36.5098C120.394 36.5098 123.965 38.0926 126.806 41.2581C129.688 44.3831 131.128 48.1575 131.128 52.5812C131.128 56.7614 129.891 60.5763 127.415 64.026C124.98 67.4757 121.875 69.9107 118.101 71.3312C114.367 72.7516 109.111 73.5836 102.334 73.8271C108.827 78.4132 112.074 84.2979 112.074 91.4814C112.074 96.8791 110.085 102.094 106.108 107.127C102.131 112.159 97.3013 115.893 91.6194 118.328C85.9782 120.763 79.0788 121.981 70.9214 121.981C64.3061 121.981 58.949 121.27 54.85 119.85C50.7509 118.389 46.8345 116.278 43.1008 113.519C39.4076 110.759 36.4855 107.39 34.3345 103.413C32.2241 99.3953 31.1689 95.0934 31.1689 90.5073C31.1689 84.9067 32.772 80.1989 35.9782 76.384C39.1844 72.569 43.9327 70.2151 50.2233 69.3223Z"/></svg>