<svg width="160" height="160" viewBox="0 0 160 160" fill="none" xmlns="http://www.w3.org/2000/svg">
<rect width="160" height="160" rx="20" fill="#6F3C97"/>
<path d="M128.152 147.105C127.976 147.695 127.681 148.223 127.267 148.686C126.855 149.151 126.307 149.521 125.623 149.799C124.939 150.077 124.093 150.216 123.083 150.216C121.397 150.216 120.098 149.774 119.187 148.887C118.277 148.002 117.821 146.7 117.821 144.98V143.867H120.224V144.625C120.224 145.147 120.266 145.629 120.351 146.067C120.435 146.505 120.583 146.885 120.793 147.205C121.004 147.525 121.3 147.774 121.679 147.95C122.058 148.128 122.543 148.215 123.133 148.215C124.229 148.215 124.983 147.92 125.396 147.33C125.809 146.741 126.017 145.948 126.017 144.952V131.751H128.42V145.306C128.418 145.916 128.33 146.515 128.152 147.105Z" fill="white"/>
<path d="M141.405 134.218C140.605 133.637 139.581 133.346 138.333 133.346C137.827 133.346 137.329 133.396 136.84 133.498C136.352 133.599 135.917 133.768 135.539 134.003C135.159 134.241 134.855 134.557 134.629 134.952C134.401 135.349 134.286 135.843 134.286 136.431C134.286 136.989 134.451 137.441 134.78 137.784C135.108 138.131 135.547 138.414 136.095 138.633C136.643 138.851 137.262 139.033 137.954 139.176C138.644 139.319 139.349 139.476 140.067 139.643C140.782 139.812 141.485 140.009 142.178 140.237C142.869 140.465 143.489 140.772 144.037 141.161C144.585 141.548 145.024 142.037 145.352 142.627C145.681 143.217 145.846 143.959 145.846 144.852C145.846 145.812 145.63 146.636 145.201 147.318C144.771 148.001 144.219 148.557 143.545 148.987C142.869 149.417 142.115 149.729 141.28 149.923C140.445 150.116 139.615 150.215 138.789 150.215C137.776 150.215 136.819 150.087 135.917 149.836C135.015 149.583 134.223 149.199 133.54 148.684C132.857 148.171 132.316 147.512 131.921 146.712C131.525 145.911 131.327 144.963 131.327 143.867H133.605C133.605 144.626 133.751 145.279 134.048 145.827C134.343 146.375 134.731 146.826 135.211 147.179C135.692 147.534 136.252 147.795 136.892 147.964C137.532 148.132 138.189 148.215 138.865 148.215C139.404 148.215 139.948 148.165 140.496 148.065C141.043 147.964 141.537 147.791 141.976 147.546C142.413 147.301 142.769 146.969 143.037 146.546C143.307 146.126 143.443 145.586 143.443 144.927C143.443 144.303 143.278 143.798 142.95 143.41C142.621 143.022 142.182 142.706 141.634 142.461C141.086 142.216 140.467 142.018 139.776 141.867C139.085 141.715 138.38 141.56 137.664 141.399C136.947 141.24 136.244 141.054 135.551 140.843C134.86 140.633 134.24 140.355 133.692 140.008C133.144 139.663 132.706 139.215 132.377 138.667C132.049 138.12 131.884 137.431 131.884 136.607C131.884 135.696 132.07 134.909 132.44 134.242C132.811 133.575 133.305 133.027 133.92 132.598C134.536 132.168 135.236 131.848 136.02 131.637C136.805 131.427 137.608 131.321 138.436 131.321C139.362 131.321 140.222 131.432 141.015 131.651C141.808 131.869 142.503 132.216 143.102 132.687C143.7 133.159 144.172 133.754 144.517 134.471C144.863 135.188 145.052 136.043 145.087 137.037H142.811C142.674 135.741 142.206 134.8 141.405 134.218Z" fill="white"/>
<path d="M90.6227 40.4772V47.8558H56.1336V68.789H86.3808V76.1677H56.1336V106.323H47.373V40.4798H90.6227V40.4772Z" fill="white"/>
<path d="M116.258 58.6437V65.56H106.76V95.1629C106.76 96.085 106.837 96.8228 106.991 97.3761C107.144 97.9294 107.436 98.3602 107.867 98.6671C108.296 98.9741 108.896 99.1743 109.665 99.2652C110.433 99.3574 111.432 99.4035 112.661 99.4035H116.257V106.32H110.263C108.234 106.32 106.497 106.181 105.053 105.905C103.606 105.628 102.439 105.121 101.549 104.385C100.657 103.646 99.9941 102.601 99.5659 101.249C99.1351 99.8975 98.9204 98.1125 98.9204 95.8993V65.56H90.8066V58.6437H98.9217V44.3501H106.76V58.6437H116.258V58.6437Z" fill="white"/>
</svg>
