<svg width="160" height="160" viewBox="0 0 160 160" fill="none" xmlns="http://www.w3.org/2000/svg">
<rect width="160" height="160" rx="20" fill="#353D48"/>
<path d="M127.502 93.1804L116.457 86.7789C115.969 86.4966 115.563 86.0908 115.281 85.6023C114.999 85.1138 114.85 84.5596 114.85 83.9955V71.1893C114.848 69.8814 114.503 68.5969 113.851 67.4634C113.198 66.33 112.26 65.3872 111.13 64.7286L100.085 58.3238C99.599 58.039 99.1958 57.6319 98.9157 57.1431C98.6355 56.6542 98.4881 56.1006 98.488 55.5372V42.7276C98.4861 41.4179 98.1418 40.1314 97.4893 38.9958C96.8367 37.8602 95.8986 36.915 94.7681 36.2538L79.9999 27.7064L65.2318 36.2505C64.1011 36.911 63.1638 37.857 62.5138 38.9938C61.8638 40.1305 61.524 41.4181 61.5283 42.7276V55.5372C61.5265 56.1006 61.3781 56.654 61.0974 57.1426C60.8168 57.6313 60.4137 58.0384 59.9279 58.3238L48.8699 64.7286C47.7393 65.386 46.8012 66.3287 46.1495 67.4626C45.4978 68.5964 45.1554 69.8815 45.1565 71.1893V83.9955C45.1565 84.5586 45.0091 85.1118 44.7289 85.6001C44.4487 86.0884 44.0455 86.4949 43.5594 86.7789L32.5046 93.1804C31.3727 93.8393 30.4335 94.7836 29.7807 95.919C29.128 97.0544 28.7845 98.3413 28.7847 99.6509V116.746L43.5528 125.29C44.6814 125.944 45.9631 126.289 47.2678 126.289C48.5726 126.289 49.8542 125.944 50.9829 125.29L62.031 118.888C62.5177 118.608 63.0696 118.46 63.6314 118.46C64.1932 118.46 64.7451 118.608 65.2318 118.888L76.28 125.293C77.4104 125.948 78.6936 126.292 79.9999 126.292C81.3062 126.292 82.5894 125.948 83.7199 125.293L94.7681 118.885C95.2547 118.604 95.8066 118.457 96.3684 118.457C96.9302 118.457 97.4821 118.604 97.9688 118.885L109.017 125.293C110.146 125.948 111.428 126.294 112.734 126.294C114.039 126.294 115.321 125.948 116.45 125.293L131.215 116.746V99.6509C131.213 98.3425 130.869 97.0573 130.218 95.9224C129.567 94.7875 128.63 93.8424 127.502 93.1804ZM94.2686 42.7276V55.5372C94.2728 56.8446 94.6181 58.1284 95.2706 59.2615C95.923 60.3946 96.8598 61.3378 97.9885 61.9978L109.037 68.4026C109.525 68.6859 109.93 69.0924 110.211 69.5815C110.493 70.0706 110.641 70.625 110.64 71.1893V83.9955C110.642 85.3032 110.986 86.5877 111.637 87.7216C112.288 88.8555 113.225 89.7993 114.354 90.4595L125.402 96.8643C125.89 97.1475 126.295 97.5541 126.576 98.0432C126.858 98.5322 127.006 99.0867 127.006 99.6509V111.859L82.1162 85.8522V33.8417L92.6517 39.9475C93.1421 40.2275 93.5499 40.6321 93.8338 41.1202C94.1177 41.6084 94.2677 42.1629 94.2686 42.7276ZM34.6209 96.8643L45.6658 90.4595C46.7973 89.8032 47.7367 88.8613 48.39 87.7282C49.0434 86.595 49.3879 85.3102 49.3891 84.0021V71.186C49.3895 70.6226 49.537 70.0691 49.8172 69.5803C50.0973 69.0915 50.5003 68.6844 50.9862 68.3993L62.0343 61.9945C63.1654 61.3372 64.1043 60.3947 64.7571 59.261C65.4098 58.1272 65.7537 56.8421 65.7543 55.5339V42.7276C65.7565 42.1655 65.9049 41.6136 66.1849 41.1261C66.4649 40.6387 66.8669 40.2325 67.3514 39.9475L77.9 33.8417V85.8522L33.0239 111.859V99.6509C33.0242 99.0872 33.1722 98.5333 33.4529 98.0445C33.7337 97.5556 34.1342 97.1487 34.6209 96.8643ZM114.334 121.649C113.847 121.93 113.294 122.077 112.732 122.077C112.17 122.077 111.617 121.93 111.13 121.649L100.085 115.247C98.9561 114.592 97.6739 114.247 96.3684 114.247C95.063 114.247 93.7808 114.592 92.6517 115.247L81.6036 121.649C81.1169 121.929 80.565 122.077 80.0032 122.077C79.4414 122.077 78.8895 121.929 78.4028 121.649L67.3547 115.247C66.2244 114.592 64.9411 114.247 63.6347 114.247C62.3283 114.247 61.045 114.592 59.9147 115.247L48.8699 121.649C48.3828 121.93 47.8303 122.078 47.2678 122.078C46.7054 122.078 46.1529 121.93 45.6658 121.649L35.1369 115.543L79.9999 89.5065L124.863 115.517L114.334 121.649Z" fill="white"/>
</svg>
