<svg width="80" height="80" viewBox="0 0 80 80" fill="none" xmlns="http://www.w3.org/2000/svg">
<g clip-path="url(#clip0_5169_71972)">
<rect width="80.0003" height="80.0003" rx="10.5894" fill="#663399"/>
<rect x="0.264736" y="0.264736" width="79.4708" height="79.4708" rx="10.3247" stroke="#663399" stroke-opacity="0.5" stroke-width="0.529472"/>
<path fill-rule="evenodd" clip-rule="evenodd" d="M11.5 40.0001C11.5 24.3251 24.3251 11.5 40.0001 11.5C55.6752 11.5 68.5002 24.3251 68.5002 40.0001C68.5002 55.6752 55.6752 68.5002 40.0001 68.5002C24.3251 68.5002 11.5 55.6752 11.5 40.0001ZM17.6072 40.4073C17.6072 45.9037 19.8465 51.6037 24.1215 55.8787C28.3965 60.1538 34.0965 62.1895 39.7965 62.3931L39.5914 62.1898C39.5919 62.1898 39.5925 62.1898 39.5931 62.1898L17.6073 40.204C17.6073 40.2721 17.6076 40.3402 17.6082 40.4083L17.6072 40.4073ZM18.2179 35.1145L44.8858 61.7823L45.0895 61.986C54.8609 59.5432 62.3931 50.586 62.3931 40.0002H62.3931C62.3931 40.0002 62.3931 40.0001 62.3931 40.0001H48.143V44.0716H48.143V44.0717H57.9144C56.4894 50.1788 52.0108 55.268 46.1073 57.3038L22.6965 33.8931C25.0118 27.14 31.3503 22.2157 38.7654 21.7199C39.1739 21.6926 39.5856 21.6787 40.0002 21.6787C46.1073 21.6787 51.6038 24.7323 55.0645 29.4145L58.1181 26.768C58.1181 26.768 58.118 26.768 58.118 26.7679L58.118 26.7679C54.0466 21.2715 47.5323 17.6072 40.0001 17.6072C29.4144 17.6072 20.4572 25.1393 18.2179 35.1144L18.2179 35.1145Z" fill="white"/>
</g>
<defs>
<clipPath id="clip0_5169_71972">
<rect width="80.0003" height="80.0003" fill="white"/>
</clipPath>
</defs>
</svg>
