<svg xmlns="http://www.w3.org/2000/svg" width="160" height="160" fill="none" viewBox="0 0 160 160"><rect width="160" height="160" fill="#639" rx="20"/><path fill="#fff" fill-rule="evenodd" d="M23 80C23 48.65 48.65 23 80 23C111.35 23 137 48.65 137 80C137 111.35 111.35 137 80 137C48.65 137 23 111.35 23 80ZM35.2143 80.8143C35.2143 91.8071 39.6929 103.207 48.2429 111.757C56.7929 120.307 68.1929 124.379 79.5929 124.786L79.1819 124.379C79.1832 124.379 79.1845 124.379 79.1857 124.379L35.2143 80.4071C35.2143 80.5436 35.2149 80.6799 35.2162 80.8162L35.2143 80.8143ZM124.295 86.5781C121.558 104.805 107.66 119.601 90.1781 123.971L36.4352 70.2286C40.7453 51.029 57.4993 36.3546 77.6247 35.2777C78.3298 35.24 79.039 35.2189 79.7521 35.215C79.8345 35.2145 79.917 35.2143 79.9995 35.2143C79.9997 35.2143 79.9998 35.2143 80 35.2143C80.2354 35.2143 80.4703 35.2161 80.7046 35.2196C95.4702 35.4442 108.22 42.7146 116.236 53.5357L110.129 58.8286C110.129 58.8285 110.128 58.8284 110.128 58.8283L110.128 58.8286C103.207 49.4643 92.2138 43.3571 79.9995 43.3571C79.7516 43.3571 79.5042 43.3596 79.2575 43.3646C63.7036 43.6762 50.603 53.7584 45.3929 67.7857L92.2142 114.607C104.021 110.535 112.978 100.357 115.828 88.1429H96.2857H96.2852V80H96.2857H124.785H124.786C124.786 82.1101 124.636 84.1879 124.347 86.2232C124.33 86.3416 124.313 86.46 124.295 86.5781Z" clip-rule="evenodd"/></svg>