<svg width="161" height="160" viewBox="0 0 161 160" fill="none" xmlns="http://www.w3.org/2000/svg">
<rect x="0.875" width="160" height="160" rx="20" fill="#663399"/>
<path fill-rule="evenodd" clip-rule="evenodd" d="M23.875 80C23.875 48.65 49.525 23 80.875 23C112.225 23 137.875 48.65 137.875 80C137.875 111.35 112.225 137 80.875 137C49.525 137 23.875 111.35 23.875 80ZM36.0893 80.8143C36.0893 91.8071 40.5679 103.207 49.1179 111.757C57.6679 120.307 69.0679 124.379 80.4679 124.786L80.0569 124.379C80.0582 124.379 80.0595 124.379 80.0607 124.379L36.0893 80.4071C36.0893 80.5436 36.0899 80.6799 36.0912 80.8162L36.0893 80.8143ZM125.17 86.5781C122.433 104.805 108.535 119.601 91.0531 123.971L37.3102 70.2286C41.6203 51.029 58.3743 36.3546 78.4997 35.2777C79.2048 35.24 79.914 35.2189 80.6271 35.215C80.7095 35.2145 80.792 35.2143 80.8745 35.2143C80.8747 35.2143 80.8748 35.2143 80.875 35.2143C81.1104 35.2143 81.3453 35.2161 81.5796 35.2196C96.3452 35.4442 109.095 42.7146 117.111 53.5357L111.004 58.8286C111.004 58.8285 111.003 58.8284 111.003 58.8283L111.003 58.8286C104.082 49.4643 93.0888 43.3571 80.8745 43.3571C80.6266 43.3571 80.3792 43.3596 80.1325 43.3646C64.5786 43.6762 51.478 53.7584 46.2679 67.7857L93.0892 114.607C104.896 110.536 113.853 100.357 116.703 88.1429H97.1607H97.1602V80H97.1607H125.66H125.661C125.661 82.1101 125.511 84.1879 125.222 86.2232C125.205 86.3416 125.188 86.46 125.17 86.5781Z" fill="white"/>
</svg>
