<svg xmlns="http://www.w3.org/2000/svg" width="160" height="160" fill="none" viewBox="0 0 160 160"><rect width="160" height="160" fill="#fff" rx="20"/><path fill="#E535AB" d="M37.9528 110.285L33.7119 107.836L80.9562 26.0092L85.1971 28.4577L37.9528 110.285Z"/><path fill="#E535AB" d="M32.7412 101.299H127.23V106.196H32.7412V101.299Z"/><path fill="#E535AB" d="M81.8728 131.338L34.6108 104.05L37.0593 99.8092L84.3213 127.097L81.8728 131.338ZM122.929 60.2193L75.6672 32.9318L78.1157 28.6909L125.378 55.9784L122.929 60.2193Z"/><path fill="#E535AB" d="M37.072 60.2005L34.6235 55.9599L81.8855 28.6724L84.334 32.913L37.072 60.2005Z"/><path fill="#E535AB" d="M122.057 110.286L74.8131 28.4585L79.054 26.01L126.298 107.837L122.057 110.286ZM36.4873 52.7125H41.3843V107.288H36.4873V52.7125Z"/><path fill="#E535AB" d="M118.616 52.7125H123.513V107.288H118.616V52.7125Z"/><path fill="#E535AB" d="M81.0391 129.265L78.9004 125.56L120.006 101.828L122.144 105.532L81.0391 129.265Z"/><path fill="#E535AB" d="M130.002 108.881C127.17 113.807 120.857 115.489 115.931 112.657C111.004 109.825 109.323 103.512 112.155 98.585C114.987 93.6585 121.3 91.977 126.226 94.809C131.182 97.6705 132.864 103.954 130.002 108.881ZM47.8155 61.415C44.9835 66.3415 38.6705 68.023 33.744 65.191C28.8175 62.359 27.136 56.046 29.968 51.1195C32.8 46.193 39.113 44.5115 44.0395 47.3435C48.966 50.205 50.6475 56.4885 47.8155 61.415ZM29.9975 108.881C27.1655 103.954 28.847 97.6705 33.7735 94.809C38.7 91.977 44.9835 93.6585 47.845 98.585C50.677 103.512 48.9955 109.795 44.069 112.657C39.113 115.489 32.8295 113.807 29.9975 108.881ZM112.184 61.415C109.352 56.4885 111.034 50.205 115.96 47.3435C120.887 44.5115 127.17 46.193 130.032 51.1195C132.864 56.046 131.182 62.3295 126.256 65.191C121.329 68.023 115.016 66.3415 112.184 61.415ZM80 137.761C74.3065 137.761 69.7045 133.159 69.7045 127.466C69.7045 121.772 74.3065 117.17 80 117.17C85.6935 117.17 90.2955 121.772 90.2955 127.466C90.2955 133.13 85.6935 137.761 80 137.761ZM80 42.83C74.3065 42.83 69.7045 38.228 69.7045 32.5345C69.7045 26.841 74.3065 22.239 80 22.239C85.6935 22.239 90.2955 26.841 90.2955 32.5345C90.2955 38.228 85.6935 42.83 80 42.83Z"/><rect width="159" height="159" x=".5" y=".5" stroke="#000" stroke-opacity=".2" rx="19.5"/></svg>