<svg xmlns="http://www.w3.org/2000/svg" width="82" height="82" fill="none" viewBox="0 0 82 82"><rect width="80" height="80" x="1" y="1.001" fill="#fff" stroke="#E535AB" stroke-opacity=".2" stroke-width=".5" rx="10"/><path fill="#E535AB" d="M19.9759 56.1427L17.8555 54.9184L41.4776 14.0049L43.5981 15.2291L19.9759 56.1427Z"/><path fill="#E535AB" d="M17.3701 51.6504H64.6144V54.0989H17.3701V51.6504Z"/><path fill="#E535AB" d="M41.9357 66.67L18.3047 53.0263L19.5289 50.9058L43.1599 64.5496L41.9357 66.67ZM62.4638 31.1109L38.8329 17.4671L40.0571 15.3467L63.6881 28.9904L62.4638 31.1109Z"/><path fill="#E535AB" d="M19.5358 31.101L18.3115 28.9807L41.9425 15.3369L43.1667 17.4572L19.5358 31.101Z"/><path fill="#E535AB" d="M62.0282 56.1437L38.4061 15.2301L40.5265 14.0059L64.1487 54.9194L62.0282 56.1437ZM19.2432 27.3571H21.6917V54.6446H19.2432V27.3571Z"/><path fill="#E535AB" d="M60.3076 27.3574H62.7561V54.6449H60.3076V27.3574Z"/><path fill="#E535AB" d="M41.5196 65.6337L40.4502 63.7814L61.0028 51.915L62.0722 53.7672L41.5196 65.6337Z"/><path fill="#E535AB" d="M66.0015 55.4409C64.5855 57.9041 61.429 58.7449 58.9657 57.3289C56.5025 55.9129 55.6617 52.7564 57.0777 50.2931C58.4937 47.8299 61.6502 46.9891 64.1135 48.4051C66.5915 49.8359 67.4322 52.9776 66.0015 55.4409ZM24.908 31.7081C23.492 34.1714 20.3355 35.0121 17.8722 33.5961C15.409 32.1801 14.5682 29.0236 15.9842 26.5604C17.4002 24.0971 20.5567 23.2564 23.02 24.6724C25.4832 26.1031 26.324 29.2449 24.908 31.7081ZM15.999 55.4409C14.583 52.9776 15.4237 49.8359 17.887 48.4051C20.3502 46.9891 23.492 47.8299 24.9227 50.2931C26.3387 52.7564 25.498 55.8981 23.0347 57.3289C20.5567 58.7449 17.415 57.9041 15.999 55.4409ZM57.0925 31.7081C55.6765 29.2449 56.5172 26.1031 58.9805 24.6724C61.4437 23.2564 64.5855 24.0971 66.0162 26.5604C67.4322 29.0236 66.5915 32.1654 64.1282 33.5961C61.665 35.0121 58.5085 34.1714 57.0925 31.7081ZM41.0002 69.8811C38.1535 69.8811 35.8525 67.5801 35.8525 64.7334C35.8525 61.8866 38.1535 59.5856 41.0002 59.5856C43.847 59.5856 46.148 61.8866 46.148 64.7334C46.148 67.5654 43.847 69.8811 41.0002 69.8811ZM41.0002 22.4156C38.1535 22.4156 35.8525 20.1146 35.8525 17.2679C35.8525 14.4211 38.1535 12.1201 41.0002 12.1201C43.847 12.1201 46.148 14.4211 46.148 17.2679C46.148 20.1146 43.847 22.4156 41.0002 22.4156Z"/></svg>