<svg width="160" height="160" viewBox="0 0 160 160" fill="none" xmlns="http://www.w3.org/2000/svg">
<rect width="160" height="160" rx="20" fill="white"/>
<circle cx="20" cy="20" r="10" fill="#6CC5FF"/>
<circle cx="60" cy="20" r="10" fill="#6CC5FF"/>
<circle cx="100" cy="20" r="10" fill="#6CC5FF"/>
<circle cx="140" cy="20" r="10" fill="#6CC5FF"/>
<circle cx="20" cy="60" r="10" fill="#6CC5FF"/>
<circle cx="20" cy="140" r="10" fill="#6CC5FF"/>
<circle cx="60" cy="60" r="10" fill="#6CC5FF"/>
<circle cx="60" cy="140" r="10" fill="#6CC5FF"/>
<circle cx="100" cy="60" r="10" fill="#6CC5FF"/>
<circle cx="100" cy="140" r="10" fill="#6CC5FF"/>
<circle cx="140" cy="60" r="10" fill="#6CC5FF"/>
<circle cx="140" cy="140" r="10" fill="#6CC5FF"/>
<circle cx="20" cy="100" r="10" fill="#6CC5FF"/>
<circle cx="60" cy="100" r="10" fill="#6CC5FF"/>
<circle cx="100" cy="100" r="10" fill="#6CC5FF"/>
<circle cx="140" cy="100" r="10" fill="#6CC5FF"/>
<rect x="44.5" y="44.5" width="31" height="31" rx="3.5" fill="#FF4785" fill-opacity="0.4" stroke="#FF4785" stroke-dasharray="4 2"/>
<rect x="0.5" y="0.5" width="159" height="159" rx="19.5" stroke="black" stroke-opacity="0.2"/>
</svg>
