<svg xmlns="http://www.w3.org/2000/svg" width="160" height="160" fill="none" viewBox="0 0 160 160"><rect width="160" height="160" fill="#fff" rx="20"/><circle cx="20" cy="20" r="10" fill="#6CC5FF"/><circle cx="60" cy="20" r="10" fill="#6CC5FF"/><circle cx="100" cy="20" r="10" fill="#6CC5FF"/><circle cx="140" cy="20" r="10" fill="#6CC5FF"/><circle cx="20" cy="60" r="10" fill="#6CC5FF"/><circle cx="20" cy="140" r="10" fill="#6CC5FF"/><circle cx="60" cy="60" r="10" fill="#6CC5FF"/><circle cx="60" cy="140" r="10" fill="#6CC5FF"/><circle cx="100" cy="60" r="10" fill="#6CC5FF"/><circle cx="100" cy="140" r="10" fill="#6CC5FF"/><circle cx="140" cy="60" r="10" fill="#6CC5FF"/><circle cx="140" cy="140" r="10" fill="#6CC5FF"/><circle cx="20" cy="100" r="10" fill="#6CC5FF"/><circle cx="60" cy="100" r="10" fill="#6CC5FF"/><circle cx="100" cy="100" r="10" fill="#6CC5FF"/><circle cx="140" cy="100" r="10" fill="#6CC5FF"/><rect width="31" height="31" x="44.5" y="44.5" fill="#FF4785" fill-opacity=".4" stroke="#FF4785" stroke-dasharray="4 2" rx="3.5"/><rect width="159" height="159" x=".5" y=".5" stroke="#000" stroke-opacity=".2" rx="19.5"/></svg>