<svg xmlns="http://www.w3.org/2000/svg" width="160" height="160" fill="none" viewBox="0 0 160 160"><rect width="160" height="160" fill="#80CAC3" rx="20"/><path fill="#009688" d="M92.2354 38.3624V57.1826L113.384 111.501C113.384 111.501 119.841 124.767 101.374 128H59.2469C59.2469 128 42.035 126.204 46.1613 112.575L68.3866 57.1833V38.3624H92.2354Z"/><path fill="#004D40" d="M92.6818 36.1743H67.3117C65.2568 36.1743 63.5854 34.3464 63.5854 32.0879C63.5854 29.8279 65.2561 28 67.3117 28H92.6818C94.7461 28 96.4146 29.8279 96.4146 32.0879C96.4146 34.3464 94.7454 36.1743 92.6818 36.1743Z"/><path fill="#fff" d="M85.9893 69.0918C88.7116 69.0918 90.9317 71.7518 90.9317 75.046C90.9317 78.3258 88.7102 80.9923 85.9893 80.9923C83.2604 80.9923 81.0469 78.3258 81.0469 75.046C81.0469 71.7504 83.2604 69.0918 85.9893 69.0918V69.0918Z"/><path fill="#fff" d="M70.817 84.5381C73.1179 84.5381 74.9832 82.2899 74.9832 79.5167C74.9832 76.7434 73.1179 74.4952 70.817 74.4952C68.5161 74.4952 66.6509 76.7434 66.6509 79.5167C66.6509 82.2899 68.5161 84.5381 70.817 84.5381Z"/><path fill="#004D40" d="M94.1162 55.9352V46.9839C94.1162 46.9839 105.467 44.4812 111.14 57.6842C111.14 57.6834 102.299 64.1255 94.1162 55.9352Z"/><path fill="#004D40" d="M66.3142 55.9352V46.9839C66.3142 46.9839 54.9616 44.4812 49.2915 57.6842C49.2915 57.6834 58.1239 64.1255 66.3142 55.9352Z"/><path fill="#fff" d="M100.941 92.9784C82.4825 87.2525 66.9638 90.3264 59.3788 92.6501L51.7299 111.061C48.2864 122.052 62.665 123.496 62.665 123.496H97.8505C113.273 120.89 107.883 110.198 107.883 110.198L100.941 92.9784Z"/><path fill="#004D40" d="M74.3395 99.8191C74.3395 101.804 71.6715 103.419 68.3852 103.419C65.099 103.419 62.439 101.804 62.439 99.8191C62.439 97.8259 65.099 96.2168 68.3852 96.2168C71.6729 96.2182 74.3395 97.8259 74.3395 99.8191Z"/><path fill="#004D40" d="M95.5138 99.8191C95.5138 101.804 92.8458 103.419 89.5675 103.419C86.2718 103.419 83.6133 101.804 83.6133 99.8191C83.6133 97.8259 86.2718 96.2168 89.5675 96.2168C92.8472 96.2182 95.5138 97.8259 95.5138 99.8191Z"/></svg>