<svg width="160" height="160" viewBox="0 0 160 160" fill="none" xmlns="http://www.w3.org/2000/svg">
<rect width="160" height="160" rx="20" fill="#FF3366"/>
<path fill-rule="evenodd" clip-rule="evenodd" d="M52.02 39.5432C52.02 45.7204 56.8483 50.5147 62.6603 50.5147C68.4722 50.5147 73.3005 45.7204 73.3005 39.5432C73.3005 33.2738 68.4722 28.5718 62.6603 28.5718C56.8483 28.5718 52.02 33.366 52.02 39.5432ZM45.0852 71.2286L38.1586 99.6345C37.6372 102.008 37.2648 104.458 37.2648 106.449C37.2648 114.565 41.5846 119.924 50.8947 119.924C58.5661 119.924 64.748 115.331 69.2168 107.98L66.461 119.082H81.7294L90.4436 83.9385C92.678 75.1335 96.9234 70.3864 103.18 70.3864C108.244 70.3864 111.373 73.5256 111.373 78.7321C111.373 80.2634 111.224 81.8713 110.777 83.7088L106.308 99.8642C105.712 102.238 105.34 104.458 105.34 106.679C105.34 114.412 109.808 120.001 119.193 120.001C127.237 120.001 133.717 114.795 137.143 102.314L131.184 99.9408C128.205 108.286 125.598 109.741 123.513 109.741C121.502 109.741 120.385 108.363 120.385 105.607C120.385 104.382 120.608 103.003 120.98 101.396L125.598 85.6996C126.715 81.9478 127.088 78.7321 127.088 75.746C127.088 63.9549 120.012 57.8296 111.447 57.8296C103.403 57.8296 95.2103 65.0268 91.1139 72.7599L94.0931 58.9781H70.7809L67.4293 71.0755H78.3034L71.6001 98.1032C66.2376 109.894 56.6296 110.047 55.5124 109.818C53.5015 109.282 52.3098 108.593 52.3098 105.99C52.3098 104.458 52.5332 102.391 53.278 99.7877L63.4073 59.1312H37.6372L34.2856 71.2286H45.0852Z" fill="white"/>
</svg>
