<svg width="80" height="80" viewBox="0 0 80 80" fill="none" xmlns="http://www.w3.org/2000/svg">
<rect y="0.00195312" width="79.9995" height="79.9995" rx="10.5893" fill="#FF3366"/>
<path fill-rule="evenodd" clip-rule="evenodd" d="M26.0096 19.7728C26.0096 22.8614 28.4238 25.2585 31.3297 25.2585C34.2356 25.2585 36.6498 22.8614 36.6498 19.7728C36.6498 16.6381 34.2356 14.2871 31.3297 14.2871C28.4238 14.2871 26.0096 16.6842 26.0096 19.7728ZM22.5424 35.6152L19.079 49.818C18.8184 51.0048 18.6322 52.2299 18.6322 53.2252C18.6322 57.2832 20.7921 59.963 25.4471 59.963C29.2828 59.963 32.3737 57.666 34.6081 53.9909L33.2302 59.5418H40.8644L45.2214 41.9701C46.3386 37.5676 48.4613 35.1941 51.5894 35.1941C54.1217 35.1941 55.6858 36.7637 55.6858 39.3669C55.6858 40.1325 55.6113 40.9365 55.3879 41.8552L53.1535 49.9329C52.8556 51.1197 52.6694 52.2299 52.6694 53.3401C52.6694 57.2066 54.9038 60.0012 59.596 60.0012C63.6179 60.0012 66.8578 57.398 68.5708 51.1579L65.5916 49.9712C64.102 54.144 62.7986 54.8714 61.7559 54.8714C60.7504 54.8714 60.1918 54.1823 60.1918 52.8041C60.1918 52.1916 60.3035 51.5025 60.4897 50.6985L62.7986 42.8506C63.3572 40.9747 63.5434 39.3669 63.5434 37.8738C63.5434 31.9783 60.0056 28.9157 55.723 28.9157C51.7011 28.9157 47.6048 32.5143 45.5566 36.3808L47.0462 29.4899H35.3901L33.7143 35.5386H39.1513L35.7997 49.0524C33.1185 54.9479 28.3145 55.0245 27.7559 54.9096C26.7505 54.6417 26.1546 54.2971 26.1546 52.9955C26.1546 52.2299 26.2663 51.1962 26.6387 49.8946L31.7034 29.5665H18.8184L17.1426 35.6152H22.5424Z" fill="white"/>
</svg>
