<svg xmlns="http://www.w3.org/2000/svg" width="60" height="60" fill="none" viewBox="0 0 60 60"><rect width="60" height="60" fill="#F36" rx="10"/><path fill="#fff" fill-rule="evenodd" d="M19.5076 14.8291C19.5076 17.1456 21.3182 18.9434 23.4977 18.9434C25.6771 18.9434 27.4878 17.1456 27.4878 14.8291C27.4878 12.4781 25.6771 10.7148 23.4977 10.7148C21.3182 10.7148 19.5076 12.5127 19.5076 14.8291ZM16.907 26.7112L14.3095 37.3634C14.114 38.2535 13.9744 39.1722 13.9744 39.9188C13.9744 42.9622 15.5943 44.9721 19.0856 44.9721C21.9624 44.9721 24.2806 43.2494 25.9564 40.493L24.923 44.6563H30.6486L33.9164 31.4774C34.7543 28.1755 36.3464 26.3953 38.6925 26.3953C40.5917 26.3953 41.7648 27.5725 41.7648 29.525C41.7648 30.0992 41.7089 30.7021 41.5413 31.3912L39.8655 37.4495C39.6421 38.3396 39.5024 39.1722 39.5024 40.0049C39.5024 42.9048 41.1783 45.0008 44.6974 45.0008C47.7139 45.0008 50.1438 43.0484 51.4286 38.3683L49.1942 37.4782C48.077 40.6079 47.0994 41.1534 46.3174 41.1534C45.5633 41.1534 45.1443 40.6366 45.1443 39.6029C45.1443 39.1435 45.2281 38.6267 45.3678 38.0238L47.0994 32.1378C47.5184 30.7309 47.658 29.525 47.658 28.4052C47.658 23.9835 45.0047 21.6865 41.7927 21.6865C38.7763 21.6865 35.704 24.3855 34.1678 27.2854L35.285 22.1172H26.5429L25.2861 26.6537H29.3638L26.8501 36.7891C24.8392 41.2108 21.2362 41.2682 20.8172 41.1821C20.0631 40.9811 19.6163 40.7227 19.6163 39.7465C19.6163 39.1722 19.7 38.397 19.9793 37.4208L23.7778 22.1746H14.114L12.8572 26.7112H16.907Z" clip-rule="evenodd"/></svg>