<svg xmlns="http://www.w3.org/2000/svg" width="160" height="160" fill="none" viewBox="0 0 160 160"><rect width="160" height="160" fill="#478AFF" rx="20"/><path fill="#fff" d="M79.9999 48.0179C73.2437 48.0179 67.7358 53.5258 67.7358 60.282C67.7358 67.0383 73.2437 72.5461 79.9999 72.5461C86.7562 72.5461 92.264 67.0383 92.264 60.282C92.264 53.5258 86.7562 48.0179 79.9999 48.0179Z"/><path fill="#fff" d="M97.6066 49.1012C100.689 49.1012 103.188 46.6024 103.188 43.52C103.188 40.4375 100.689 37.9387 97.6066 37.9387C94.5242 37.9387 92.0254 40.4375 92.0254 43.52C92.0254 46.6024 94.5242 49.1012 97.6066 49.1012Z"/><path fill="#fff" d="M104.491 49.1379L104.253 48.6238L103.885 49.0461C102.967 50.0926 101.811 50.882 100.507 51.3594L100.158 51.4879L100.305 51.8367C101.425 54.5172 101.994 57.3629 101.994 60.282C101.994 72.3992 92.1354 82.2766 79.9998 82.2766C67.8643 82.2766 58.0053 72.4176 58.0053 60.282C58.0053 48.1465 67.8826 38.3059 79.9998 38.3059C83.2861 38.3059 86.4623 39.0219 89.4182 40.4355L89.767 40.6008L89.9139 40.252C90.4463 38.9852 91.3092 37.8652 92.3924 37.0023L92.833 36.6535L92.3373 36.3965C88.5002 34.377 84.3326 33.3672 79.9998 33.3672C65.1654 33.3672 53.085 45.4477 53.085 60.282C53.085 75.1164 65.1654 87.1969 79.9998 87.1969C94.8342 87.1969 106.915 75.1164 106.915 60.282C106.915 56.4082 106.107 52.6629 104.491 49.1379Z"/><path fill="#fff" d="M39.7746 102.49H34.1016V125.935H39.7746V102.49Z"/><path fill="#fff" d="M101.04 102.49H95.3667V125.935H101.04V102.49Z"/><path fill="#fff" d="M82.2581 101.939C78.2741 101.939 75.1897 104.345 74.4737 105.005L74.1249 102.49H69.3882V125.935H75.0612V111.743C75.0612 108.971 78.8433 106.676 81.6155 106.676C84.3327 106.676 86.444 109.32 86.444 112.478V125.935H92.1171V113.029C92.0987 106.896 89.4366 101.939 82.2581 101.939Z"/><path fill="#fff" d="M115.929 121.676C111.67 121.676 108.843 118.334 108.843 114.222C108.843 110.109 111.67 106.768 115.929 106.768C119.565 106.768 121.786 110.293 121.786 110.293L125.899 107.539C124.705 105.703 123.347 104.602 121.456 103.482C120.079 102.655 118.206 101.958 116.113 101.958C109.008 101.958 103.592 107.282 103.555 114.222C103.592 121.162 109.008 126.486 116.113 126.486C118.206 126.486 120.079 125.788 121.456 124.962C123.328 123.824 124.705 122.722 125.899 120.905L121.786 118.151C121.786 118.151 119.583 121.676 115.929 121.676Z"/><path fill="#fff" d="M54.5905 101.939C47.4304 101.939 42.3081 107.557 42.3081 114.112C42.3081 120.758 47.2835 126.486 54.664 126.486C61.3468 126.486 66.8362 121.345 66.8362 114.259C66.8362 106.125 60.4655 101.939 54.5905 101.939ZM54.6456 106.768C58.1706 106.768 61.4937 109.632 61.4937 114.222C61.4937 118.72 58.1706 121.657 54.6272 121.657C50.7351 121.657 47.6507 118.518 47.6507 114.185C47.669 109.944 50.6983 106.768 54.6456 106.768Z"/></svg>