<svg width="80" height="81" viewBox="0 0 80 81" fill="none" xmlns="http://www.w3.org/2000/svg">
<g clip-path="url(#clip0_5169_71953)">
<rect y="0.00195312" width="80.0003" height="80.0003" rx="10.5894" fill="#478AFF"/>
<g clip-path="url(#clip1_5169_71953)">
<path d="M40.0002 24.0107C36.6221 24.0107 33.8682 26.7647 33.8682 30.1428C33.8682 33.5209 36.6221 36.2749 40.0002 36.2749C43.3784 36.2749 46.1323 33.5209 46.1323 30.1428C46.1323 26.7647 43.3784 24.0107 40.0002 24.0107Z" fill="white"/>
<path d="M48.8043 24.553C50.3455 24.553 51.5949 23.3035 51.5949 21.7623C51.5949 20.2211 50.3455 18.9717 48.8043 18.9717C47.2631 18.9717 46.0137 20.2211 46.0137 21.7623C46.0137 23.3035 47.2631 24.553 48.8043 24.553Z" fill="white"/>
<path d="M52.2462 24.5709L52.1269 24.3139L51.9433 24.525C51.4843 25.0483 50.906 25.443 50.2542 25.6817L50.0798 25.7459L50.1532 25.9203C50.7132 27.2606 50.9978 28.6834 50.9978 30.143C50.9978 36.2016 46.0682 41.1403 40.0004 41.1403C33.9326 41.1403 29.0031 36.2108 29.0031 30.143C29.0031 24.0752 33.9418 19.1549 40.0004 19.1549C41.6436 19.1549 43.2317 19.5129 44.7096 20.2197L44.8841 20.3024L44.9575 20.1279C45.2237 19.4945 45.6552 18.9346 46.1968 18.5031L46.4171 18.3287L46.1692 18.2002C44.2507 17.1904 42.1669 16.6855 40.0004 16.6855C32.5832 16.6855 26.543 22.7258 26.543 30.143C26.543 37.5602 32.5832 43.6005 40.0004 43.6005C47.4177 43.6005 53.4579 37.5602 53.4579 30.143C53.4579 28.2061 53.054 26.3334 52.2462 24.5709Z" fill="white"/>
<path d="M19.8873 51.249H17.0508V62.9715H19.8873V51.249Z" fill="white"/>
<path d="M50.5201 51.249H47.6836V62.9715H50.5201V51.249Z" fill="white"/>
<path d="M41.1293 50.9727C39.1373 50.9727 37.5951 52.1752 37.2371 52.5057L37.0627 51.248H34.6943V62.9706H37.5309V55.8746C37.5309 54.4885 39.4219 53.341 40.808 53.341C42.1666 53.341 43.2223 54.6629 43.2223 56.2418V62.9706H46.0588V56.5172C46.0497 53.4512 44.7186 50.9727 41.1293 50.9727Z" fill="white"/>
<path d="M57.9655 60.8414C55.8358 60.8414 54.4221 59.1707 54.4221 57.1145C54.4221 55.0582 55.8358 53.3875 57.9655 53.3875C59.783 53.3875 60.8938 55.15 60.8938 55.15L62.95 53.7731C62.3534 52.8551 61.6741 52.3043 60.7286 51.7443C60.0401 51.3313 59.1037 50.9824 58.0573 50.9824C54.5047 50.9824 51.7967 53.6445 51.7783 57.1145C51.7967 60.5844 54.5047 63.2465 58.0573 63.2465C59.1037 63.2465 60.0401 62.8977 60.7286 62.4846C61.6649 61.9155 62.3534 61.3647 62.95 60.4559L60.8938 59.0789C60.8938 59.0789 59.7922 60.8414 57.9655 60.8414Z" fill="white"/>
<path d="M27.2955 50.9727C23.7154 50.9727 21.1543 53.7817 21.1543 57.0588C21.1543 60.3819 23.642 63.246 27.3323 63.246C30.6737 63.246 33.4184 60.6756 33.4184 57.1323C33.4184 53.0656 30.233 50.9727 27.2955 50.9727ZM27.3231 53.3869C29.0856 53.3869 30.7471 54.819 30.7471 57.1139C30.7471 59.3629 29.0856 60.8317 27.3139 60.8317C25.3678 60.8317 23.8256 59.262 23.8256 57.0955C23.8348 54.975 25.3494 53.3869 27.3231 53.3869Z" fill="white"/>
</g>
</g>
<defs>
<clipPath id="clip0_5169_71953">
<rect width="80.0003" height="80.0003" fill="white" transform="translate(0 0.00195312)"/>
</clipPath>
<clipPath id="clip1_5169_71953">
<rect width="47.0002" height="47.0002" fill="white" transform="translate(16.5 16.502)"/>
</clipPath>
</defs>
</svg>
