<svg width="60" height="60" viewBox="0 0 60 60" fill="none" xmlns="http://www.w3.org/2000/svg">
<rect width="60" height="60" rx="10" fill="#8A4182"/>
<path d="M28.3443 26.3262H31.6555L32.4782 25.1936V16.3238H27.5222V25.1945L28.3443 26.3262Z" fill="white"/>
<path d="M26.21 30.2824L27.2329 27.1338L26.4102 26.0015L17.9736 23.2607L16.4424 27.9735L24.8798 30.7148L26.21 30.2824Z" fill="white"/>
<path d="M29.3135 33.5343L26.635 31.5879L25.3036 32.0207L20.0898 39.1968L24.0991 42.1094L29.3135 34.933V33.5343Z" fill="white"/>
<path d="M33.3657 31.5876L30.6865 33.5337L30.6871 34.9333L35.901 42.1094L39.9106 39.1968L34.6957 32.0201L33.3657 31.5876Z" fill="white"/>
<path d="M32.7664 27.1338L33.7898 30.2827L35.121 30.7148L43.5576 27.9741L42.026 23.261L33.5891 26.0024L32.7664 27.1338Z" fill="white"/>
<path d="M30.0011 8.625C18.2144 8.625 8.625 18.2123 8.625 29.9965C8.625 41.7851 18.2144 51.375 30.0011 51.375C41.7866 51.375 51.375 41.7851 51.375 29.9965C51.375 18.2123 41.7866 8.625 30.0011 8.625ZM30.0011 12.9524C39.4137 12.9524 47.0467 20.5823 47.0467 29.9965C47.0467 39.4138 39.4137 47.047 30.0011 47.047C20.5853 47.047 12.9532 39.4138 12.9532 29.9965C12.9532 20.5823 20.5853 12.9524 30.0011 12.9524Z" fill="white"/>
<path d="M42.9473 34.7461L36.5342 32.6622L36.9582 31.356L43.3713 33.4399L42.9473 34.7461Z" fill="white"/>
<path d="M34.7681 24.4512L33.6567 23.644L37.62 18.1889L38.7314 18.9961L34.7681 24.4512Z" fill="white"/>
<path d="M25.3007 24.4023L21.3379 18.9469L22.4493 18.1398L26.4121 23.5949L25.3007 24.4023Z" fill="white"/>
<path d="M17.0263 34.666L16.6021 33.3598L23.0146 31.2768L23.4388 32.5831L17.0263 34.666Z" fill="white"/>
<path d="M29.271 43.623H30.6445V36.88H29.271V43.623Z" fill="white"/>
</svg>
