<svg width="160" height="160" viewBox="0 0 160 160" fill="none" xmlns="http://www.w3.org/2000/svg">
<rect width="160" height="160" rx="20" fill="#8A4182"/>
<path d="M75.5848 70.2034H84.4147L86.6086 67.1832V43.5303H73.3926V67.1856L75.5848 70.2034Z" fill="white"/>
<path d="M69.8936 80.7533L72.6214 72.357L70.4274 69.3376L47.9301 62.0289L43.8467 74.5962L66.3465 81.9066L69.8936 80.7533Z" fill="white"/>
<path d="M78.1692 89.4267L71.0265 84.2363L67.4762 85.3904L53.5728 104.527L64.2641 112.294L78.1692 93.1565V89.4267Z" fill="white"/>
<path d="M88.9756 84.2355L81.8311 89.4251L81.8327 93.1573L95.7364 112.294L106.428 104.527L92.5223 85.3887L88.9756 84.2355Z" fill="white"/>
<path d="M87.377 72.3551L90.1061 80.7522L93.6561 81.9047L116.154 74.5959L112.069 62.0278L89.5708 69.3382L87.377 72.3551Z" fill="white"/>
<path d="M80.0029 23C48.5717 23 23 48.566 23 79.9907C23 111.427 48.5717 137 80.0029 137C111.431 137 137 111.427 137 79.9907C137 48.566 111.431 23 80.0029 23ZM80.0029 34.5397C105.103 34.5397 125.458 54.8862 125.458 79.9907C125.458 105.103 105.103 125.459 80.0029 125.459C54.8941 125.459 34.5419 105.103 34.5419 79.9907C34.5419 54.8862 54.8941 34.5397 80.0029 34.5397Z" fill="white"/>
<path d="M114.527 92.6583L97.4248 87.1014L98.5554 83.6181L115.657 89.1751L114.527 92.6583Z" fill="white"/>
<path d="M92.715 65.2045L89.7515 63.0521L100.32 48.5051L103.284 50.6575L92.715 65.2045Z" fill="white"/>
<path d="M67.4682 65.0722L56.9009 50.5244L59.8647 48.372L70.4321 62.919L67.4682 65.0722Z" fill="white"/>
<path d="M45.4038 92.441L44.2725 88.9578L61.3725 83.4032L62.5039 86.8865L45.4038 92.441Z" fill="white"/>
<path d="M78.0562 116.329H81.7188V98.3478H78.0562V116.329Z" fill="white"/>
</svg>
