<svg width="161" height="160" viewBox="0 0 161 160" fill="none" xmlns="http://www.w3.org/2000/svg">
<rect x="0.09375" width="160" height="160" rx="20" fill="#99424F"/>
<path d="M128.712 79.2363C128.712 72.3654 124 66.5847 117.673 64.933L131.843 23.0474H61.6159L75.8196 65.0652C69.6899 66.8489 65.1751 72.5306 65.1751 79.2693C65.1751 84.2242 67.6467 88.6176 71.4036 91.3263C69.9206 93.4404 68.2069 95.3893 66.2626 97.2392C62.6046 100.675 58.5511 103.317 54.1681 105.068C50.2135 102.392 48.4998 97.6686 50.0487 93.4404C56.0795 91.5905 60.4625 85.9419 60.4625 79.3023C60.4625 71.1432 53.8385 64.5366 45.7316 64.5366C37.5917 64.5366 30.9677 71.1762 30.9677 79.3354C30.9677 83.3654 32.6155 87.065 35.2519 89.7077C35.0212 90.1701 34.7905 90.6326 34.5598 91.1281C32.3518 95.6866 29.8472 100.84 28.8915 106.62C26.9801 118.182 30.1109 127.464 37.6576 132.716C41.9088 135.656 46.5884 137.143 51.6305 137.143C60.2977 137.143 69.0967 132.783 77.5991 128.554C83.6629 125.548 89.9243 122.41 96.0869 120.891C98.3608 120.329 100.734 119.999 103.238 119.635C108.313 118.909 113.553 118.149 118.266 115.407C123.769 112.203 127.526 106.852 128.614 100.708C129.437 95.9839 128.614 91.2272 126.504 87.065C127.922 84.7858 128.712 82.1101 128.712 79.2363V79.2363ZM122.286 79.2363C122.286 83.8278 118.562 87.5605 113.982 87.5605C109.401 87.5605 105.677 83.8278 105.677 79.2363C105.677 77.7498 106.072 76.3294 106.764 75.1072C107.028 74.6447 107.358 74.1822 107.687 73.7858C108.017 73.3894 108.412 73.0261 108.841 72.6958L108.874 72.6627C109.137 72.4645 109.434 72.2663 109.73 72.0681C109.73 72.0681 109.763 72.0681 109.763 72.0351C109.895 71.969 110.027 71.8699 110.159 71.8039C110.192 71.8039 110.225 71.7708 110.258 71.7708C110.389 71.7048 110.554 71.6387 110.719 71.5726C110.884 71.5066 111.049 71.4405 111.18 71.3744C111.213 71.3744 111.246 71.3414 111.279 71.3414C111.411 71.3084 111.543 71.2423 111.675 71.2093C111.708 71.2093 111.774 71.1762 111.807 71.1762C111.971 71.1432 112.103 71.1102 112.268 71.0771H112.301L112.795 70.978C112.828 70.978 112.894 70.978 112.927 70.945C113.059 70.945 113.191 70.912 113.322 70.912H113.487C113.652 70.912 113.817 70.8789 114.015 70.8789H114.443C114.575 70.8789 114.674 70.8789 114.805 70.912H114.871C115.135 70.945 115.399 70.978 115.662 71.0441C119.419 71.8369 122.286 75.2062 122.286 79.2363V79.2363ZM70.8104 29.6539H122.649L110.752 64.8339C110.258 64.933 109.763 65.0982 109.269 65.2634L96.7461 39.6629L84.1902 65.0982C83.6958 64.933 83.1686 64.8339 82.6413 64.7348L70.8104 29.6539ZM94.3733 76.3624C93.7471 73.2573 92.1653 70.4825 89.9243 68.4345L96.7461 54.6268L103.634 68.7318C101.59 70.7798 100.107 73.3894 99.5143 76.3624H94.3733ZM77.8628 71.1432C78.0276 71.1102 78.1594 71.0771 78.3242 71.0441H78.423C78.5548 71.0111 78.6867 71.0111 78.8185 70.978H78.9503C79.0821 70.978 79.181 70.945 79.3128 70.945H80.5981C80.7299 70.945 80.8287 70.978 80.9276 70.978C80.9935 70.978 81.0265 70.978 81.0924 71.0111C81.2242 71.0441 81.3231 71.0441 81.4549 71.0771C81.4878 71.0771 81.5208 71.0771 81.5867 71.1102C81.7515 71.1432 81.9163 71.1762 82.0481 71.2093H82.081C82.2129 71.2423 82.3447 71.2753 82.4765 71.3414C82.5095 71.3414 82.5424 71.3744 82.6083 71.3744C82.7072 71.4075 82.839 71.4405 82.9379 71.5066C82.9708 71.5066 83.0038 71.5396 83.0367 71.5396C83.1686 71.6057 83.3004 71.6387 83.4322 71.7048H83.4651C83.6299 71.7708 83.7617 71.8369 83.8936 71.936H83.9265C84.0583 72.0021 84.1902 72.1012 84.322 72.1672C84.3549 72.1672 84.3549 72.2003 84.3879 72.2003C84.5197 72.2663 84.6186 72.3654 84.7504 72.4315L84.7834 72.4645C85.1788 72.7618 85.5413 73.0921 85.9038 73.4225L85.9368 73.4555C86.2663 73.8189 86.5959 74.2153 86.8595 74.6447C87.7164 75.966 88.2107 77.5185 88.2107 79.2032C88.2107 83.7948 84.4868 87.5275 79.906 87.5275C75.3252 87.5275 71.6013 83.7948 71.6013 79.2032C71.5684 75.3384 74.2377 72.0681 77.8628 71.1432V71.1432ZM45.435 70.912C50.0157 70.912 53.7397 74.6447 53.7397 79.2363C53.7397 83.8278 50.0157 87.5605 45.435 87.5605C40.8542 87.5605 37.1303 83.8278 37.1303 79.2363C37.1303 74.6447 40.8542 70.912 45.435 70.912ZM122.089 99.5515C121.363 103.78 118.76 107.479 114.937 109.693C111.345 111.774 106.929 112.434 102.283 113.095C99.745 113.458 97.0756 113.855 94.5051 114.482C87.6504 116.167 81.0594 119.47 74.6661 122.641C66.4933 126.704 58.7818 130.536 51.6305 130.536C47.9066 130.536 44.5781 129.479 41.4145 127.266C34.1643 122.245 34.5268 112.831 35.3837 107.678C36.1746 102.855 38.3826 98.3292 40.4917 94.0019C40.6235 93.7377 40.7224 93.5065 40.8542 93.2422C41.5792 93.5065 42.3372 93.7046 43.1281 93.8368C41.8758 100.84 45.435 108.074 52.3555 111.641L53.6078 112.302L54.959 111.807C60.7261 109.759 66.0649 106.422 70.7774 101.963C73.4468 99.4524 75.7207 96.7437 77.6321 93.8037C78.3901 93.9359 79.148 93.9689 79.906 93.9689C86.7607 93.9689 92.5278 89.2452 94.1756 82.9029H99.712C101.36 89.2782 107.127 93.9689 113.982 93.9689C116.717 93.9689 119.254 93.2092 121.429 91.9209C122.286 94.3983 122.55 96.9749 122.089 99.5515V99.5515Z" fill="white"/>
</svg>
