<svg xmlns="http://www.w3.org/2000/svg" width="160" height="160" fill="none" viewBox="0 0 160 160"><rect width="160" height="160" fill="#99424F" rx="20"/><path fill="#fff" d="M128.619 79.2363C128.619 72.3654 123.906 66.5847 117.579 64.933L131.749 23.0474H61.5222L75.7258 65.0652C69.5962 66.8489 65.0813 72.5306 65.0813 79.2693C65.0813 84.2242 67.553 88.6176 71.3098 91.3263C69.8269 93.4404 68.1132 95.3893 66.1688 97.2392C62.5108 100.675 58.4574 103.317 54.0743 105.068C50.1197 102.392 48.4061 97.6686 49.9549 93.4404C55.9857 91.5905 60.3687 85.9419 60.3687 79.3023C60.3687 71.1432 53.7448 64.5366 45.6378 64.5366C37.4979 64.5366 30.8739 71.1762 30.8739 79.3354C30.8739 83.3654 32.5217 87.065 35.1581 89.7077C34.9274 90.1701 34.6967 90.6326 34.4661 91.1281C32.2581 95.6866 29.7535 100.84 28.7978 106.62C26.8864 118.182 30.0171 127.464 37.5638 132.716C41.815 135.656 46.4947 137.143 51.5368 137.143C60.204 137.143 69.003 132.783 77.5054 128.554C83.5691 125.548 89.8306 122.41 95.9932 120.891C98.2671 120.329 100.64 119.999 103.144 119.635C108.22 118.909 113.459 118.149 118.172 115.407C123.675 112.203 127.432 106.852 128.52 100.708C129.344 95.9839 128.52 91.2272 126.411 87.065C127.828 84.7858 128.619 82.1101 128.619 79.2363V79.2363ZM122.192 79.2363C122.192 83.8278 118.469 87.5605 113.888 87.5605C109.307 87.5605 105.583 83.8278 105.583 79.2363C105.583 77.7498 105.979 76.3294 106.671 75.1072C106.934 74.6447 107.264 74.1822 107.593 73.7858C107.923 73.3894 108.318 73.0261 108.747 72.6958L108.78 72.6627C109.043 72.4645 109.34 72.2663 109.637 72.0681C109.637 72.0681 109.67 72.0681 109.67 72.0351C109.801 71.969 109.933 71.8699 110.065 71.8039C110.098 71.8039 110.131 71.7708 110.164 71.7708C110.296 71.7048 110.46 71.6387 110.625 71.5726C110.79 71.5066 110.955 71.4405 111.087 71.3744C111.12 71.3744 111.153 71.3414 111.185 71.3414C111.317 71.3084 111.449 71.2423 111.581 71.2093C111.614 71.2093 111.68 71.1762 111.713 71.1762C111.878 71.1432 112.009 71.1102 112.174 71.0771H112.207L112.701 70.978C112.734 70.978 112.8 70.978 112.833 70.945C112.965 70.945 113.097 70.912 113.229 70.912H113.393C113.558 70.912 113.723 70.8789 113.921 70.8789H114.349C114.481 70.8789 114.58 70.8789 114.712 70.912H114.778C115.041 70.945 115.305 70.978 115.569 71.0441C119.325 71.8369 122.192 75.2062 122.192 79.2363V79.2363ZM70.7166 29.6539H122.555L110.658 64.8339C110.164 64.933 109.67 65.0982 109.175 65.2634L96.6523 39.6629L84.0964 65.0982C83.6021 64.933 83.0748 64.8339 82.5475 64.7348L70.7166 29.6539ZM94.2795 76.3624C93.6534 73.2573 92.0715 70.4825 89.8306 68.4345L96.6523 54.6268L103.54 68.7318C101.497 70.7798 100.014 73.3894 99.4205 76.3624H94.2795ZM77.769 71.1432C77.9338 71.1102 78.0656 71.0771 78.2304 71.0441H78.3293C78.4611 71.0111 78.5929 71.0111 78.7247 70.978H78.8566C78.9884 70.978 79.0872 70.945 79.2191 70.945H80.5043C80.6361 70.945 80.735 70.978 80.8339 70.978C80.8998 70.978 80.9327 70.978 80.9986 71.0111C81.1305 71.0441 81.2293 71.0441 81.3611 71.0771C81.3941 71.0771 81.4271 71.0771 81.493 71.1102C81.6577 71.1432 81.8225 71.1762 81.9543 71.2093H81.9873C82.1191 71.2423 82.2509 71.2753 82.3827 71.3414C82.4157 71.3414 82.4487 71.3744 82.5146 71.3744C82.6134 71.4075 82.7453 71.4405 82.8441 71.5066C82.8771 71.5066 82.91 71.5396 82.943 71.5396C83.0748 71.6057 83.2066 71.6387 83.3384 71.7048H83.3714C83.5362 71.7708 83.668 71.8369 83.7998 71.936H83.8328C83.9646 72.0021 84.0964 72.1012 84.2282 72.1672C84.2612 72.1672 84.2612 72.2003 84.2941 72.2003C84.426 72.2663 84.5248 72.3654 84.6566 72.4315L84.6896 72.4645C85.0851 72.7618 85.4476 73.0921 85.8101 73.4225L85.843 73.4555C86.1726 73.8189 86.5021 74.2153 86.7658 74.6447C87.6226 75.966 88.1169 77.5185 88.1169 79.2032C88.1169 83.7948 84.393 87.5275 79.8122 87.5275C75.2315 87.5275 71.5076 83.7948 71.5076 79.2032C71.4746 75.3384 74.144 72.0681 77.769 71.1432V71.1432ZM45.3412 70.912C49.922 70.912 53.6459 74.6447 53.6459 79.2363C53.6459 83.8278 49.922 87.5605 45.3412 87.5605C40.7605 87.5605 37.0365 83.8278 37.0365 79.2363C37.0365 74.6447 40.7605 70.912 45.3412 70.912ZM121.995 99.5515C121.27 103.78 118.666 107.479 114.844 109.693C111.251 111.774 106.835 112.434 102.189 113.095C99.6512 113.458 96.9819 113.855 94.4114 114.482C87.5567 116.167 80.9657 119.47 74.5724 122.641C66.3995 126.704 58.688 130.536 51.5368 130.536C47.8129 130.536 44.4844 129.479 41.3207 127.266C34.0706 122.245 34.4331 112.831 35.2899 107.678C36.0809 102.855 38.2888 98.3292 40.398 94.0019C40.5298 93.7377 40.6287 93.5065 40.7605 93.2422C41.4855 93.5065 42.2435 93.7046 43.0344 93.8368C41.7821 100.84 45.3412 108.074 52.2618 111.641L53.5141 112.302L54.8652 111.807C60.6324 109.759 65.9711 106.422 70.6837 101.963C73.3531 99.4524 75.627 96.7437 77.5384 93.8037C78.2963 93.9359 79.0543 93.9689 79.8122 93.9689C86.6669 93.9689 92.434 89.2452 94.0818 82.9029H99.6183C101.266 89.2782 107.033 93.9689 113.888 93.9689C116.623 93.9689 119.161 93.2092 121.336 91.9209C122.192 94.3983 122.456 96.9749 121.995 99.5515V99.5515Z"/></svg>