<svg xmlns="http://www.w3.org/2000/svg" width="80" height="80" fill="none" viewBox="0 0 80 80"><rect width="79.999" height="79.999" fill="#99424F" rx="10.589"/><path fill="#fff" d="M64.309 39.6177C64.309 36.1823 61.9528 33.292 58.7891 32.4661L65.8744 11.5234H30.761L37.8628 32.5322C34.798 33.4241 32.5405 36.2649 32.5405 39.6342C32.5405 42.1117 33.7764 44.3083 35.6548 45.6627C34.9133 46.7197 34.0565 47.6942 33.0843 48.6191C31.2553 50.3368 29.2286 51.6581 27.0371 52.5335C25.0598 51.1956 24.203 48.8338 24.9774 46.7197C27.9928 45.7948 30.1843 42.9705 30.1843 39.6507C30.1843 35.5712 26.8723 32.2679 22.8189 32.2679C18.7489 32.2679 15.437 35.5877 15.437 39.6673C15.437 41.6822 16.2608 43.5321 17.579 44.8534C17.4637 45.0846 17.3483 45.3158 17.233 45.5636C16.129 47.8428 14.8767 50.4194 14.3989 53.3097C13.4432 59.0904 15.0086 63.7315 18.7819 66.3576C20.9075 67.8276 23.2473 68.5708 25.7683 68.5708C30.1019 68.5708 34.5014 66.3907 38.7525 64.2766C41.7844 62.7736 44.9151 61.2045 47.9964 60.4448C49.1333 60.164 50.3197 59.9988 51.572 59.8172C54.1095 59.4538 56.7294 59.0739 59.0857 57.7031C61.8374 56.101 63.7159 53.4254 64.2596 50.3533C64.6715 47.9915 64.2596 45.6131 63.2051 43.5321C63.9136 42.3924 64.309 41.0546 64.309 39.6177V39.6177ZM61.0959 39.6177C61.0959 41.9135 59.234 43.7798 56.9436 43.7798C54.6533 43.7798 52.7913 41.9135 52.7913 39.6177C52.7913 38.8745 52.989 38.1643 53.3351 37.5532C53.4669 37.3219 53.6317 37.0907 53.7964 36.8925C53.9612 36.6943 54.1589 36.5126 54.3732 36.3475L54.3896 36.331C54.5214 36.2319 54.6697 36.1328 54.818 36.0337C54.818 36.0337 54.8345 36.0337 54.8345 36.0171C54.9004 35.9841 54.9663 35.9346 55.0323 35.9015C55.0487 35.9015 55.0652 35.885 55.0817 35.885C55.1476 35.852 55.23 35.8189 55.3124 35.7859C55.3948 35.7529 55.4771 35.7199 55.543 35.6868C55.5595 35.6868 55.576 35.6703 55.5925 35.6703C55.6584 35.6538 55.7243 35.6208 55.7902 35.6042C55.8067 35.6042 55.8396 35.5877 55.8561 35.5877C55.9385 35.5712 56.0044 35.5547 56.0868 35.5382H56.1033L56.3504 35.4886C56.3669 35.4886 56.3999 35.4886 56.4164 35.4721C56.4823 35.4721 56.5482 35.4556 56.6141 35.4556H56.6965C56.7789 35.4556 56.8612 35.4391 56.9601 35.4391H57.1743C57.2402 35.4391 57.2897 35.4391 57.3556 35.4556H57.3885C57.5203 35.4721 57.6522 35.4886 57.784 35.5217C59.6624 35.918 61.0959 37.6027 61.0959 39.6177V39.6177ZM35.3582 14.8267H61.2772L55.3288 32.4166C55.0817 32.4661 54.8345 32.5487 54.5874 32.6313L48.3259 19.8311L42.048 32.5487C41.8009 32.4661 41.5372 32.4166 41.2736 32.367L35.3582 14.8267ZM47.1396 38.1808C46.8265 36.6282 46.0356 35.2409 44.9151 34.2169L48.3259 27.313L51.7697 34.3655C50.7481 35.3895 50.0066 36.6943 49.71 38.1808H47.1396ZM38.8844 35.5712C38.9667 35.5547 39.0327 35.5382 39.115 35.5217H39.1645C39.2304 35.5051 39.2963 35.5051 39.3622 35.4886H39.4281C39.494 35.4886 39.5435 35.4721 39.6094 35.4721H40.252C40.3179 35.4721 40.3673 35.4886 40.4168 35.4886C40.4497 35.4886 40.4662 35.4886 40.4992 35.5051C40.5651 35.5217 40.6145 35.5217 40.6804 35.5382C40.6969 35.5382 40.7134 35.5382 40.7463 35.5547C40.8287 35.5712 40.9111 35.5877 40.977 35.6042H40.9935C41.0594 35.6208 41.1253 35.6373 41.1912 35.6703C41.2077 35.6703 41.2242 35.6868 41.2571 35.6868C41.3065 35.7033 41.3725 35.7199 41.4219 35.7529C41.4384 35.7529 41.4548 35.7694 41.4713 35.7694C41.5372 35.8024 41.6031 35.8189 41.669 35.852H41.6855C41.7679 35.885 41.8338 35.918 41.8997 35.9676H41.9162C41.9821 36.0006 42.048 36.0502 42.1139 36.0832C42.1304 36.0832 42.1304 36.0997 42.1469 36.0997C42.2128 36.1328 42.2622 36.1823 42.3281 36.2153L42.3446 36.2319C42.5424 36.3805 42.7236 36.5457 42.9049 36.7108L42.9213 36.7273C43.0861 36.909 43.2509 37.1072 43.3827 37.3219C43.8111 37.9826 44.0583 38.7589 44.0583 39.6012C44.0583 41.897 42.1963 43.7633 39.906 43.7633C37.6156 43.7633 35.7536 41.897 35.7536 39.6012C35.7372 37.6688 37.0718 36.0337 38.8844 35.5712V35.5712ZM22.6706 35.4556C24.9609 35.4556 26.8229 37.3219 26.8229 39.6177C26.8229 41.9135 24.9609 43.7798 22.6706 43.7798C20.3802 43.7798 18.5182 41.9135 18.5182 39.6177C18.5182 37.3219 20.3802 35.4556 22.6706 35.4556ZM60.9971 49.7752C60.6346 51.8893 59.3329 53.7392 57.4215 54.8458C55.6254 55.8863 53.4175 56.2166 51.0941 56.5469C49.8254 56.7286 48.4907 56.9268 47.2055 57.2406C43.7782 58.083 40.4827 59.7346 37.286 61.3202C33.1996 63.3517 29.3439 65.2676 25.7683 65.2676C23.9064 65.2676 22.2421 64.739 20.6603 63.6324C17.0353 61.122 17.2165 56.4148 17.6449 53.8383C18.0404 51.4269 19.1444 49.1641 20.1989 47.0005C20.2649 46.8684 20.3143 46.7528 20.3802 46.6206C20.7427 46.7528 21.1217 46.8519 21.5171 46.9179C20.891 50.4194 22.6706 54.0365 26.1308 55.8202L26.757 56.1505L27.4325 55.9028C30.3161 54.8788 32.9854 53.2106 35.3417 50.9809C36.6764 49.7257 37.8133 48.3714 38.769 46.9014C39.148 46.9675 39.527 46.984 39.906 46.984C43.3333 46.984 46.2168 44.6221 47.0407 41.451H49.8089C50.6328 44.6387 53.5163 46.984 56.9436 46.984C58.3113 46.984 59.58 46.6041 60.6675 45.96C61.0959 47.1987 61.2278 48.487 60.9971 49.7752V49.7752Z"/></svg>