<svg width="60" height="60" viewBox="0 0 60 60" fill="none" xmlns="http://www.w3.org/2000/svg">
<rect width="60" height="60" rx="10" fill="#99424F"/>
<path d="M46.911 29.7375C46.911 27.3477 45.2718 25.3369 43.071 24.7624L48 10.1934H23.5728L28.5133 24.8084C26.3812 25.4289 24.8108 27.4051 24.8108 29.749C24.8108 31.4725 25.6705 33.0006 26.9772 33.9428C26.4614 34.6782 25.8654 35.3561 25.1891 35.9995C23.9167 37.1944 22.5068 38.1136 20.9822 38.7226C19.6067 37.7919 19.0106 36.1488 19.5494 34.6782C21.6471 34.0347 23.1716 32.07 23.1716 29.7605C23.1716 26.9225 20.8676 24.6246 18.0478 24.6246C15.2165 24.6246 12.9124 26.934 12.9124 29.772C12.9124 31.1738 13.4856 32.4606 14.4026 33.3798C14.3224 33.5407 14.2421 33.7015 14.1619 33.8739C13.3939 35.4595 12.5227 37.2519 12.1903 39.2626C11.5254 43.284 12.6144 46.5127 15.2394 48.3395C16.7181 49.3621 18.3458 49.8792 20.0996 49.8792C23.1143 49.8792 26.1749 48.3625 29.1322 46.8918C31.2414 45.8462 33.4193 44.7547 35.5629 44.2262C36.3538 44.0309 37.1791 43.916 38.0503 43.7896C39.8155 43.5368 41.6381 43.2725 43.2773 42.3189C45.1916 41.2044 46.4983 39.343 46.8766 37.2059C47.1632 35.5629 46.8766 33.9083 46.143 32.4606C46.6359 31.6678 46.911 30.7371 46.911 29.7375V29.7375ZM44.6758 29.7375C44.6758 31.3346 43.3805 32.633 41.7871 32.633C40.1938 32.633 38.8985 31.3346 38.8985 29.7375C38.8985 29.2205 39.0361 28.7264 39.2768 28.3013C39.3685 28.1404 39.4831 27.9796 39.5977 27.8417C39.7124 27.7038 39.8499 27.5774 39.9989 27.4625L40.0104 27.4511C40.1021 27.3821 40.2053 27.3132 40.3084 27.2442C40.3084 27.2442 40.3199 27.2442 40.3199 27.2328C40.3658 27.2098 40.4116 27.1753 40.4575 27.1523C40.4689 27.1523 40.4804 27.1408 40.4918 27.1408C40.5377 27.1179 40.595 27.0949 40.6523 27.0719C40.7096 27.0489 40.767 27.0259 40.8128 27.003C40.8243 27.003 40.8357 26.9915 40.8472 26.9915C40.893 26.98 40.9389 26.957 40.9847 26.9455C40.9962 26.9455 41.0191 26.934 41.0306 26.934C41.0879 26.9225 41.1338 26.911 41.1911 26.8995H41.2025L41.3745 26.8651C41.3859 26.8651 41.4089 26.8651 41.4203 26.8536C41.4662 26.8536 41.512 26.8421 41.5579 26.8421H41.6152C41.6725 26.8421 41.7298 26.8306 41.7986 26.8306H41.9476C41.9935 26.8306 42.0279 26.8306 42.0737 26.8421H42.0966C42.1883 26.8536 42.28 26.8651 42.3717 26.8881C43.6785 27.1638 44.6758 28.3358 44.6758 29.7375V29.7375ZM26.7709 12.4913H44.8018L40.6638 24.728C40.4918 24.7624 40.3199 24.8199 40.148 24.8773L35.7921 15.9727L31.4248 24.8199C31.2529 24.7624 31.0695 24.728 30.8861 24.6935L26.7709 12.4913ZM34.9668 28.7379C34.749 27.6579 34.1988 26.6927 33.4193 25.9804L35.7921 21.1776L38.1878 26.0838C37.4771 26.7961 36.9613 27.7038 36.755 28.7379H34.9668ZM29.224 26.9225C29.2813 26.911 29.3271 26.8995 29.3844 26.8881H29.4188C29.4647 26.8766 29.5105 26.8766 29.5564 26.8651H29.6022C29.6481 26.8651 29.6825 26.8536 29.7283 26.8536H30.1754C30.2212 26.8536 30.2556 26.8651 30.29 26.8651C30.3129 26.8651 30.3244 26.8651 30.3473 26.8766C30.3932 26.8881 30.4275 26.8881 30.4734 26.8995C30.4849 26.8995 30.4963 26.8995 30.5192 26.911C30.5766 26.9225 30.6339 26.934 30.6797 26.9455H30.6912C30.737 26.957 30.7829 26.9685 30.8287 26.9915C30.8402 26.9915 30.8517 27.003 30.8746 27.003C30.909 27.0144 30.9548 27.0259 30.9892 27.0489C31.0007 27.0489 31.0121 27.0604 31.0236 27.0604C31.0695 27.0834 31.1153 27.0949 31.1612 27.1179H31.1726C31.2299 27.1408 31.2758 27.1638 31.3216 27.1983H31.3331C31.3789 27.2213 31.4248 27.2557 31.4707 27.2787C31.4821 27.2787 31.4821 27.2902 31.4936 27.2902C31.5394 27.3132 31.5738 27.3477 31.6197 27.3706L31.6311 27.3821C31.7687 27.4855 31.8948 27.6004 32.0209 27.7153L32.0323 27.7268C32.147 27.8532 32.2616 27.9911 32.3533 28.1404C32.6513 28.6 32.8233 29.1401 32.8233 29.726C32.8233 31.3231 31.528 32.6215 29.9346 32.6215C28.3413 32.6215 27.046 31.3231 27.046 29.726C27.0346 28.3817 27.963 27.2442 29.224 26.9225V26.9225ZM17.9446 26.8421C19.5379 26.8421 20.8332 28.1404 20.8332 29.7375C20.8332 31.3346 19.5379 32.633 17.9446 32.633C16.3513 32.633 15.056 31.3346 15.056 29.7375C15.056 28.1404 16.3513 26.8421 17.9446 26.8421ZM44.607 36.8038C44.3548 38.2745 43.4492 39.5613 42.1196 40.3311C40.8701 41.055 39.3341 41.2848 37.7179 41.5146C36.8352 41.641 35.9067 41.7789 35.0126 41.9972C32.6284 42.5831 30.3358 43.7321 28.1121 44.8351C25.2693 46.2484 22.587 47.5812 20.0996 47.5812C18.8043 47.5812 17.6466 47.2135 16.5461 46.4437C14.0243 44.6973 14.1504 41.4227 14.4485 39.6303C14.7236 37.9527 15.4916 36.3786 16.2252 34.8735C16.271 34.7816 16.3054 34.7011 16.3513 34.6092C16.6035 34.7011 16.8671 34.7701 17.1422 34.816C16.7066 37.2519 17.9446 39.7681 20.3518 41.009L20.7874 41.2388L21.2573 41.0665C23.2633 40.3541 25.1203 39.1936 26.7595 37.6425C27.6879 36.7693 28.4789 35.8271 29.1437 34.8045C29.4074 34.8505 29.671 34.862 29.9346 34.862C32.3189 34.862 34.3249 33.2189 34.898 31.0129H36.8238C37.3969 33.2304 39.4029 34.862 41.7871 34.862C42.7385 34.862 43.6212 34.5977 44.3777 34.1496C44.6758 35.0114 44.7675 35.9076 44.607 36.8038V36.8038Z" fill="white"/>
</svg>
