<svg width="80" height="80" viewBox="0 0 80 80" fill="none" xmlns="http://www.w3.org/2000/svg">
<rect width="80.0004" height="80.0004" rx="10.5895" fill="#191919"/>
<rect x="0.264736" y="0.264736" width="79.4709" height="79.4709" rx="10.3247" stroke="black" stroke-opacity="0.1" stroke-width="0.529473"/>
<g clip-path="url(#clip0_5169_71960)">
<path d="M40.3459 66.2315C39.9395 66.2315 39.534 65.9987 39.3021 65.5907C39.1276 65.1828 39.1276 64.7749 39.4176 64.4247L51.7677 47.3539L30.1405 56.2106C29.9668 56.2684 29.8504 56.327 29.6768 56.327C29.1549 56.327 28.6913 55.9769 28.5749 55.5112C28.4012 55.0456 28.6331 54.5203 29.0385 54.2298L48.0574 42.9842L14.6019 41.0601C13.9055 41.0015 13.5 40.4771 13.5 39.8951C13.5 39.3708 13.8473 38.7877 14.6019 38.7291L48.0574 36.8069L29.0395 25.5613C28.6331 25.2698 28.4012 24.7455 28.5749 24.2789C28.7495 23.8133 29.1549 23.464 29.6768 23.464C29.8504 23.464 29.9668 23.5218 30.1405 23.5805L51.7677 32.4372L39.4176 15.3067C39.1858 14.9566 39.1276 14.4909 39.3021 14.1407C39.4758 13.7338 39.8813 13.5 40.3459 13.5C40.635 13.5 40.925 13.6164 41.1568 13.8502L65.7425 38.4953C66.0898 38.8455 66.2644 39.3698 66.2644 39.8355C66.2644 40.302 66.0898 40.7677 65.7425 41.1756L41.1568 65.8822C40.925 66.1151 40.635 66.2315 40.3459 66.2315Z" fill="white"/>
<path d="M40.3459 66.2315C39.9395 66.2315 39.534 65.9987 39.3021 65.5907C39.1276 65.1828 39.1276 64.7749 39.4176 64.4247L51.7677 47.3539L30.1405 56.2106C29.9668 56.2684 29.8504 56.327 29.6768 56.327C29.1549 56.327 28.6913 55.9769 28.5749 55.5112C28.4012 55.0456 28.6331 54.5203 29.0385 54.2298L48.0574 42.9842L14.6019 41.0601C13.9055 41.0015 13.5 40.4771 13.5 39.8951C13.5 39.3708 13.8473 38.7877 14.6019 38.7291L48.0574 36.8069L29.0395 25.5613C28.6331 25.2698 28.4012 24.7455 28.5749 24.2789C28.7495 23.8133 29.1549 23.464 29.6768 23.464C29.8504 23.464 29.9668 23.5218 30.1405 23.5805L51.7677 32.4372L39.4176 15.3067C39.1858 14.9566 39.1276 14.4909 39.3021 14.1407C39.4758 13.7338 39.8813 13.5 40.3459 13.5C40.635 13.5 40.925 13.6164 41.1568 13.8502L65.7425 38.4953C66.0898 38.8455 66.2644 39.3698 66.2644 39.8355C66.2644 40.302 66.0898 40.7677 65.7425 41.1756L41.1568 65.8822C40.925 66.1151 40.635 66.2315 40.3459 66.2315Z" fill="url(#paint0_linear_5169_71960)"/>
</g>
<defs>
<linearGradient id="paint0_linear_5169_71960" x1="39.8813" y1="13.5" x2="39.8813" y2="66.2315" gradientUnits="userSpaceOnUse">
<stop stop-color="white"/>
<stop offset="1" stop-color="white" stop-opacity="0"/>
</linearGradient>
<clipPath id="clip0_5169_71960">
<rect width="53.5003" height="53.0003" fill="white" transform="translate(13.5 13.5)"/>
</clipPath>
</defs>
</svg>
