<svg xmlns="http://www.w3.org/2000/svg" width="160" height="160" fill="none" viewBox="0 0 160 160"><rect width="160" height="160" fill="#191919" rx="20"/><g clip-path="url(#clip0_911_7838)"><path fill="#fff" d="M80.6915 132.462C79.8786 132.462 79.0677 131.997 78.604 131.181C78.2549 130.365 78.2549 129.549 78.8349 128.849L103.535 94.7075L60.2808 112.421C59.9335 112.536 59.7007 112.654 59.3534 112.654C58.3097 112.654 57.3824 111.953 57.1496 111.022C56.8023 110.091 57.266 109.04 58.0769 108.459L96.1145 85.9682L29.2038 82.12C27.8109 82.0026 27 80.954 27 79.7899C27 78.7413 27.6946 77.5753 29.2038 77.4579L96.1145 73.6135L58.0788 51.1226C57.266 50.5396 56.8023 49.4909 57.1496 48.5578C57.4988 47.6265 58.3097 46.928 59.3534 46.928C59.7007 46.928 59.9335 47.0435 60.2808 47.1608L103.535 64.8742L78.8349 30.6135C78.3713 29.9131 78.2549 28.9818 78.604 28.2815C78.9513 27.4675 79.7623 27 80.6915 27C81.2696 27 81.8497 27.2328 82.3134 27.7004L131.485 76.9904C132.179 77.6907 132.528 78.7394 132.528 79.6706C132.528 80.6038 132.179 81.5351 131.485 82.3509L82.3134 131.764C81.8497 132.23 81.2696 132.462 80.6915 132.462Z"/><path fill="url(#paint0_linear_911_7838)" d="M80.6915 132.462C79.8786 132.462 79.0677 131.997 78.604 131.181C78.2549 130.365 78.2549 129.549 78.8349 128.849L103.535 94.7075L60.2808 112.421C59.9335 112.536 59.7007 112.654 59.3534 112.654C58.3097 112.654 57.3824 111.953 57.1496 111.022C56.8023 110.091 57.266 109.04 58.0769 108.459L96.1145 85.9682L29.2038 82.12C27.8109 82.0026 27 80.954 27 79.7899C27 78.7413 27.6946 77.5753 29.2038 77.4579L96.1145 73.6135L58.0788 51.1226C57.266 50.5396 56.8023 49.4909 57.1496 48.5578C57.4988 47.6265 58.3097 46.928 59.3534 46.928C59.7007 46.928 59.9335 47.0435 60.2808 47.1608L103.535 64.8742L78.8349 30.6135C78.3713 29.9131 78.2549 28.9818 78.604 28.2815C78.9513 27.4675 79.7623 27 80.6915 27C81.2696 27 81.8497 27.2328 82.3134 27.7004L131.485 76.9904C132.179 77.6907 132.528 78.7394 132.528 79.6706C132.528 80.6038 132.179 81.5351 131.485 82.3509L82.3134 131.764C81.8497 132.23 81.2696 132.462 80.6915 132.462Z"/></g><defs><linearGradient id="paint0_linear_911_7838" x1="79.762" x2="79.762" y1="27" y2="132.462" gradientUnits="userSpaceOnUse"><stop stop-color="#fff"/><stop offset="1" stop-color="#fff" stop-opacity="0"/></linearGradient><clipPath id="clip0_911_7838"><rect width="107" height="106" fill="#fff" transform="translate(27 27)"/></clipPath></defs></svg>