<svg xmlns="http://www.w3.org/2000/svg" width="160" height="160" fill="none" viewBox="0 0 160 160"><rect width="160" height="160" fill="#fff" rx="20"/><rect width="60" height="95" x="90" y="32.5" fill="#37D5D3" fill-opacity=".1" rx="3.714"/><rect width="59" height="94" x="90.5" y="33" stroke="#37D5D3" stroke-dasharray="4 2" stroke-opacity=".5" rx="3.214"/><rect width="59" height="94" x="10.5" y="33" fill="#37D5D3" fill-opacity=".5" stroke="#37D5D3" rx="3.214"/><path fill="#37D5D3" d="M69.4932 85C66.7317 85 64.4932 82.7614 64.4932 80C64.4932 77.2386 66.7317 75 69.4932 75C72.2546 75 74.4932 77.2386 74.4932 80C74.4932 82.7614 72.2546 85 69.4932 85Z"/><path fill="#37D5D3" fill-rule="evenodd" d="M81.4334 76.8201C81.2381 76.6248 81.2381 76.3083 81.4334 76.113C81.6286 75.9177 81.9452 75.9177 82.1405 76.113L85.6363 79.6088C85.65 79.6199 85.6633 79.6318 85.676 79.6446C85.7741 79.7427 85.823 79.8715 85.8225 80.0001C85.823 80.1287 85.7741 80.2575 85.676 80.3556C85.6633 80.3684 85.65 80.3803 85.6363 80.3914L82.1405 83.8872C81.9452 84.0825 81.6286 84.0825 81.4334 83.8872C81.2381 83.6919 81.2381 83.3753 81.4334 83.1801L84.1134 80.5001H70V79.5001H84.1134L81.4334 76.8201Z" clip-rule="evenodd"/><path fill="#fff" d="M69.4932 84C71.7023 84 73.4932 82.2091 73.4932 80C73.4932 77.7909 71.7023 76 69.4932 76C67.284 76 65.4932 77.7909 65.4932 80C65.4932 82.2091 67.284 84 69.4932 84Z"/><rect width="159" height="159" x=".5" y=".5" stroke="#000" stroke-opacity=".2" rx="19.5"/></svg>