<svg width="161" height="160" viewBox="0 0 161 160" fill="none" xmlns="http://www.w3.org/2000/svg">
<rect x="0.25" width="160" height="160" rx="20" fill="white"/>
<g clip-path="url(#clip0_2014_24330)">
<path d="M31.25 68V116C36.7512 113.88 41.7473 110.652 45.9218 106.521C50.0962 102.389 53.3579 97.4445 55.5 92L31.25 68Z" fill="#324FFF"/>
<path d="M55.5 92C58.9556 108.38 58.7131 120.2 55.5 140L31.25 116L55.5 92Z" fill="#283198"/>
<path d="M55.5 92V140L79.75 116C73.279 106.549 65.0491 98.4043 55.5 92V92Z" fill="#00FFFF"/>
<path d="M79.75 20V68C79.75 68 60.5319 53.42 55.5 44L79.75 20Z" fill="#324FFF"/>
<path d="M55.5 44V92C66.1207 86.9828 74.6805 78.5112 79.75 68L55.5 44Z" fill="#324FFF"/>
<path d="M79.75 68C83.3471 83.802 83.3471 100.198 79.75 116L55.5 92L79.75 68Z" fill="#00E8FF"/>
<path d="M79.75 68V116C90.0562 111.5 98.8469 104.6 104 92C100.423 81.8 93.0269 73.46 79.75 68Z" fill="#283198"/>
<path d="M104 44V92L79.75 68L104 44Z" fill="#283198"/>
<path d="M104 92C107.698 108.2 106.971 124.16 104 140L79.75 116L104 92Z" fill="#00E8FF"/>
<path d="M104 92V140L128.25 116C124.976 107 117.156 99.26 104 92Z" fill="#324FFF"/>
<path d="M128.25 68V116L104 92L128.25 68Z" fill="#324FFF"/>
</g>
<rect x="0.75" y="0.5" width="159" height="159" rx="19.5" stroke="black" stroke-opacity="0.2"/>
<defs>
<clipPath id="clip0_2014_24330">
<rect width="97" height="120" fill="white" transform="translate(31.25 20)"/>
</clipPath>
</defs>
</svg>
