<svg width="160" height="160" viewBox="0 0 160 160" fill="none" xmlns="http://www.w3.org/2000/svg">
<rect width="160" height="160" rx="20" fill="white"/>
<g clip-path="url(#clip0_781_8360)">
<path d="M31 68V116C36.5012 113.88 41.4973 110.652 45.6718 106.521C49.8462 102.389 53.1079 97.4445 55.25 92L31 68Z" fill="#324FFF"/>
<path d="M55.25 92C58.7056 108.38 58.4631 120.2 55.25 140L31 116L55.25 92Z" fill="#283198"/>
<path d="M55.25 92V140L79.5 116C73.029 106.549 64.7991 98.4043 55.25 92V92Z" fill="#00FFFF"/>
<path d="M79.5 20V68C79.5 68 60.2819 53.42 55.25 44L79.5 20Z" fill="#324FFF"/>
<path d="M55.25 44V92C65.8707 86.9828 74.4305 78.5112 79.5 68L55.25 44Z" fill="#324FFF"/>
<path d="M79.5 68C83.0971 83.802 83.0971 100.198 79.5 116L55.25 92L79.5 68Z" fill="#00E8FF"/>
<path d="M79.5 68V116C89.8062 111.5 98.5969 104.6 103.75 92C100.173 81.8 92.7769 73.46 79.5 68Z" fill="#283198"/>
<path d="M103.75 44V92L79.5 68L103.75 44Z" fill="#283198"/>
<path d="M103.75 92C107.448 108.2 106.721 124.16 103.75 140L79.5 116L103.75 92Z" fill="#00E8FF"/>
<path d="M103.75 92V140L128 116C124.726 107 116.906 99.26 103.75 92Z" fill="#324FFF"/>
<path d="M128 68V116L103.75 92L128 68Z" fill="#324FFF"/>
</g>
<rect x="0.5" y="0.5" width="159" height="159" rx="19.5" stroke="black" stroke-opacity="0.2"/>
<defs>
<clipPath id="clip0_781_8360">
<rect width="97" height="120" fill="white" transform="translate(31 20)"/>
</clipPath>
</defs>
</svg>
