<svg width="160" height="160" viewBox="0 0 160 160" fill="none" xmlns="http://www.w3.org/2000/svg">
<rect width="160" height="160" rx="20" fill="#F5C347"/>
<path d="M84.6153 79.9994C84.6153 98.9964 69.32 114.397 50.4518 114.397C31.5836 114.397 16.2896 99.001 16.2896 79.9994C16.2896 60.9978 31.5848 45.6028 50.4518 45.6028C69.3189 45.6028 84.6153 61.0024 84.6153 79.9994ZM122.093 79.9994C122.093 97.8827 114.445 112.379 105.011 112.379C95.5778 112.379 87.9296 97.8781 87.9296 79.9994C87.9296 62.1207 95.5778 47.6201 105.011 47.6201C114.445 47.6201 122.093 62.1207 122.093 79.9994ZM137.422 79.9994C137.422 96.022 134.732 109.01 131.414 109.01C128.096 109.01 125.406 96.0174 125.406 79.9994C125.406 63.9814 128.096 50.9889 131.415 50.9889C134.734 50.9889 137.422 63.978 137.422 79.9994Z" fill="black"/>
</svg>
