<svg width="160" height="160" viewBox="0 0 160 160" fill="none" xmlns="http://www.w3.org/2000/svg">
<g clip-path="url(#clip0_2014_24285)">
<path d="M160 147.746V12.2544C160 6.69564 156.298 2.00439 151.227 0.504395L145.467 3.95064L81.5518 72.0988L79.5481 78.3619L78.3774 84.3744L98.3087 158.862L101.392 159.999H147.746C154.514 159.999 160 154.514 160 147.746" fill="#EA6618"/>
<path d="M0 12.2538V147.746C0 151.936 2.10438 155.633 5.3125 157.843L9.24187 155.961L76.8956 83.5275L79.5481 78.3619L79.6475 73.3681L61.235 3.31625L58.4456 0H12.2538C5.48625 0 0 5.48625 0 12.2538Z" fill="#D65813"/>
<path d="M79.548 78.3625L151.227 0.503765C150.097 0.168998 148.924 -0.000879033 147.746 -0.000610033H58.4468L79.5487 78.3619L79.548 78.3625Z" fill="#E05E11"/>
<path d="M12.2534 160H101.392L79.5478 78.3618L5.31152 157.843C7.3524 159.251 9.77398 160.003 12.2534 160" fill="#DE5C16"/>
<path d="M59.3236 60.6438H68.2143C71.7568 74.01 75.7886 85.7388 80.2868 96.3219C85.3818 84.4156 89.1161 72.6781 92.2774 60.6431H100.679C96.9161 75.5969 90.7611 90.6681 83.7211 106.224H76.2899C69.5274 91.4831 63.7711 76.3263 59.3236 60.6431V60.6438ZM29.9986 37.4844H49.7674V122.257H29.9111V115.723H42.0811V43.845H29.9986V37.4844V37.4844ZM130.104 43.845H118.022V115.723H130.191V122.257H110.335V37.4844H130.104V43.845H130.104Z" fill="white"/>
</g>
<defs>
<clipPath id="clip0_2014_24285">
<rect width="160" height="160" rx="20" fill="white"/>
</clipPath>
</defs>
</svg>
