<svg xmlns="http://www.w3.org/2000/svg" width="160" height="160" fill="none" viewBox="0 0 160 160"><rect width="160" height="160" fill="#181C25" rx="20"/><g clip-path="url(#clip0_920_7856)"><path fill-rule="evenodd" stroke="#7A1818" stroke-width="19.795" d="M107.605 94.1298C109.789 96.5555 110.783 99.6369 110.625 102.658C110.466 105.679 109.156 108.639 106.73 110.824C104.562 112.776 101.748 113.857 98.8301 113.86L47.7408 113.901C46.7256 113.902 45.8063 113.491 45.1404 112.827C44.4746 112.162 44.0624 111.243 44.0616 110.228L49.4637 59.0328C49.8076 55.7868 51.4345 52.9875 53.7871 51.0856C56.1396 49.1838 59.2176 48.1793 62.4636 48.5232C65.3651 48.8305 68.0504 50.2002 70.0028 52.3685L107.605 94.1298Z" clip-rule="evenodd"/><path fill-rule="evenodd" stroke="#FF6A33" stroke-width="19.795" d="M44.9386 50.3488C44.2593 49.5944 43.9501 48.6361 43.9994 47.6965C44.0486 46.757 44.4563 45.8362 45.2107 45.1569C45.885 44.5498 46.7601 44.2134 47.6675 44.2127L117.029 44.1562C118.044 44.1553 118.964 44.5661 119.63 45.2308C120.295 45.8955 120.708 46.8142 120.708 47.8294L113.381 117.195C113.275 118.205 112.769 119.075 112.037 119.667C111.305 120.258 110.348 120.571 109.338 120.464C108.436 120.368 107.601 119.942 106.994 119.268L44.9386 50.3488Z" clip-rule="evenodd"/></g><defs><clipPath id="clip0_920_7856"><rect width="115" height="115" fill="#fff" transform="translate(23 22)"/></clipPath></defs></svg>