<svg width="80" height="80" viewBox="0 0 80 80" fill="none" xmlns="http://www.w3.org/2000/svg">
<rect x="-0.000976562" width="80.0004" height="80.0004" rx="10.5895" fill="#181C25"/>
<rect x="0.26376" y="0.264736" width="79.4709" height="79.4709" rx="10.3247" stroke="black" stroke-opacity="0.1" stroke-width="0.529473"/>
<g clip-path="url(#clip0_5169_71961)">
<path fill-rule="evenodd" clip-rule="evenodd" d="M53.8018 47.064C54.8939 48.2769 55.3909 49.8176 55.3118 51.3281C55.2326 52.8386 54.5772 54.3189 53.3644 55.4109C52.2802 56.3871 50.8733 56.9278 49.4144 56.929L23.8696 56.9498C23.3621 56.9502 22.9024 56.7449 22.5694 56.4125C22.2365 56.0802 22.0304 55.6208 22.03 55.1132L24.7311 29.5154C24.903 27.8924 25.7165 26.4927 26.8928 25.5418C28.069 24.5909 29.6081 24.0887 31.2311 24.2606C32.6818 24.4143 34.0245 25.0991 35.0007 26.1832L53.8018 47.064Z" stroke="#7A1818" stroke-width="10.481"/>
<path fill-rule="evenodd" clip-rule="evenodd" d="M22.4689 25.1732C22.1292 24.796 21.9747 24.3169 21.9993 23.8471C22.0239 23.3773 22.2277 22.917 22.6049 22.5773C22.9421 22.2737 23.3797 22.1056 23.8334 22.1052L58.5143 22.0769C59.0219 22.0765 59.4816 22.2819 59.8145 22.6142C60.1474 22.9466 60.3536 23.406 60.354 23.9136L56.6905 58.5967C56.637 59.1015 56.384 59.5368 56.0182 59.8325C55.6524 60.1283 55.1737 60.2844 54.669 60.231C54.2178 60.1832 53.8002 59.9702 53.4966 59.633L22.4689 25.1732Z" stroke="#FF6A33" stroke-width="10.481"/>
</g>
<defs>
<clipPath id="clip0_5169_71961">
<rect width="57.5003" height="57.5003" fill="white" transform="translate(11.499 11)"/>
</clipPath>
</defs>
</svg>
