<svg xmlns="http://www.w3.org/2000/svg" width="160" height="160" fill="none" viewBox="0 0 160 160"><rect width="160" height="160" fill="#071A2E" rx="20"/><path fill="#007FFF" d="M117.714 97.4633C118.179 97.1952 118.565 96.809 118.835 96.3435C119.104 95.878 119.246 95.3495 119.248 94.8112L119.303 77.0471C119.305 76.5087 119.448 75.9802 119.717 75.5147C119.986 75.0492 120.372 74.663 120.837 74.3949L130.423 68.8634C130.887 68.5954 131.414 68.4548 131.95 68.4557C132.485 68.4566 133.011 68.599 133.475 68.8686C133.939 69.1381 134.324 69.5255 134.591 69.9917C134.859 70.4579 135 70.9866 135 71.5248V103.821C135 104.361 134.858 104.891 134.589 105.358C134.319 105.825 133.932 106.213 133.466 106.482L97.2903 127.356C96.8283 127.622 96.3049 127.763 95.7721 127.763C95.2393 127.764 94.7156 127.624 94.253 127.359L65.8631 111.047C65.3954 110.778 65.0066 110.39 64.7362 109.922C64.4657 109.455 64.3232 108.923 64.323 108.382V92.0976C64.323 92.0792 64.3444 92.0669 64.3628 92.0761C64.378 92.0853 64.3994 92.0761 64.3994 92.0546V92.0362C64.3994 92.0239 64.4055 92.0116 64.4178 92.0055L87.7995 78.5113C87.8209 78.499 87.8117 78.4653 87.7873 78.4653C87.7808 78.4653 87.7746 78.4627 87.77 78.4581C87.7654 78.4535 87.7629 78.4472 87.7629 78.4407L87.8087 62.4754C87.8108 61.9356 87.6712 61.4047 87.4039 60.9363C87.1366 60.468 86.751 60.0787 86.2861 59.8079C85.8213 59.537 85.2935 59.3941 84.7561 59.3936C84.2187 59.393 83.6906 59.5349 83.2252 59.8048L65.8478 69.8641C65.384 70.1324 64.8582 70.2736 64.323 70.2736C63.7879 70.2736 63.2621 70.1324 62.7983 69.8641L45.3658 59.7803C44.9014 59.5116 44.3748 59.3704 43.8389 59.3708C43.303 59.3712 42.7766 59.5132 42.3125 59.7825C41.8485 60.0518 41.4631 60.439 41.1951 60.9052C40.927 61.3714 40.7858 61.9002 40.7854 62.4386V91.2933C40.7858 91.8312 40.6455 92.3596 40.3786 92.8258C40.1117 93.292 39.7275 93.6796 39.2646 93.9498C38.8017 94.2199 38.2762 94.3631 37.7409 94.3651C37.2055 94.367 36.6791 94.2276 36.2142 93.9609L26.54 88.4048C26.0715 88.1359 25.6821 87.7472 25.4116 87.2781C25.1411 86.809 24.9991 86.2763 25 85.7342L25.0856 35.2998C25.0867 34.7621 25.2285 34.2342 25.4965 33.7688C25.7646 33.3035 26.1497 32.917 26.6132 32.6482C27.0767 32.3793 27.6024 32.2375 28.1376 32.2368C28.6728 32.2362 29.1988 32.3768 29.6629 32.6445L62.8013 51.7654C63.2644 52.0326 63.7891 52.1731 64.323 52.1731C64.857 52.1731 65.3817 52.0326 65.8448 51.7654L98.974 32.6445C99.4388 32.3764 99.9656 32.2358 100.502 32.2368C101.038 32.2379 101.564 32.3805 102.028 32.6505C102.491 32.9204 102.876 33.3082 103.144 33.7748C103.411 34.2415 103.552 34.7706 103.551 35.309V85.7557C103.552 86.2953 103.41 86.8255 103.141 87.2927C102.873 87.76 102.486 88.1478 102.02 88.4171L84.6705 98.4548C84.2045 98.7247 83.8177 99.1134 83.5491 99.5816C83.2805 100.05 83.1398 100.581 83.141 101.121C83.1422 101.662 83.2855 102.192 83.5562 102.659C83.8269 103.126 84.2155 103.513 84.6828 103.781L94.253 109.254C94.7155 109.518 95.2388 109.657 95.771 109.656C96.3032 109.655 96.8259 109.514 97.2873 109.248L117.714 97.4633V97.4633ZM119.722 52.2105C119.722 52.7534 119.866 53.2864 120.138 53.7553C120.411 54.2241 120.802 54.612 121.272 54.8795C121.742 55.1469 122.275 55.2842 122.815 55.2775C123.356 55.2708 123.885 55.1202 124.348 54.8412L133.515 49.3158C133.967 49.0434 134.342 48.658 134.602 48.197C134.863 47.7359 135 47.2151 135 46.6851V35.4256C134.999 34.883 134.855 34.3504 134.582 33.882C134.31 33.4135 133.918 33.0261 133.448 32.759C132.978 32.492 132.446 32.3549 131.906 32.3617C131.366 32.3686 130.837 32.5191 130.374 32.798L121.207 38.3234C120.754 38.5958 120.38 38.9813 120.119 39.4423C119.859 39.9033 119.722 40.4241 119.722 40.9541V52.2136V52.2105Z"/></svg>