<svg width="161" height="160" viewBox="0 0 161 160" fill="none" xmlns="http://www.w3.org/2000/svg">
<rect x="0.28125" width="160" height="160" rx="20" fill="black"/>
<g clip-path="url(#clip0_2014_24344)">
<path d="M76.5481 23.0307C76.303 23.053 75.5229 23.131 74.8208 23.1867C58.629 24.6463 43.4625 33.3817 33.8566 46.8078C28.5076 54.273 25.0865 62.741 23.7939 71.7103C23.337 74.8412 23.2812 75.766 23.2812 80.0112C23.2812 84.2563 23.337 85.1811 23.7939 88.312C26.8918 109.716 42.1252 127.699 62.7856 134.362C66.4854 135.554 70.3856 136.368 74.8208 136.858C76.5481 137.047 84.0144 137.047 85.7417 136.858C93.3974 136.011 99.883 134.117 106.279 130.852C107.26 130.351 107.45 130.217 107.316 130.106C107.227 130.039 103.048 124.435 98.0332 117.66L88.9176 105.348L77.4953 88.4457C71.2103 79.1532 66.0396 71.5543 65.995 71.5543C65.9505 71.5432 65.9059 79.0529 65.8836 88.2229C65.8502 104.279 65.839 104.925 65.6384 105.304C65.3487 105.85 65.1258 106.072 64.6578 106.318C64.3012 106.496 63.9892 106.529 62.3065 106.529H60.3786L59.866 106.206C59.5317 105.994 59.2865 105.716 59.1194 105.393L58.8854 104.891L58.9076 82.5516L58.9411 60.2006L59.2865 59.766C59.4648 59.5321 59.8437 59.2312 60.1112 59.0864C60.5681 58.8635 60.7464 58.8413 62.6742 58.8413C64.9475 58.8413 65.3264 58.9304 65.917 59.5766C66.0842 59.7549 72.2689 69.0697 79.6683 80.2897C87.0678 91.5098 97.1862 106.83 102.156 114.351L111.183 128.022L111.64 127.721C115.685 125.092 119.964 121.348 123.352 117.448C130.562 109.17 135.209 99.0752 136.769 88.312C137.226 85.1811 137.281 84.2563 137.281 80.0112C137.281 75.766 137.226 74.8412 136.769 71.7103C133.671 50.3064 118.437 32.3232 97.7768 25.6602C94.1329 24.4791 90.2549 23.6658 85.9088 23.1755C84.839 23.0641 77.473 22.9415 76.5481 23.0307ZM99.883 57.5042C100.418 57.7716 100.853 58.2841 101.009 58.819C101.098 59.1087 101.12 65.3036 101.098 79.2646L101.064 99.2981L97.5317 93.883L93.988 88.468V73.9053C93.988 64.4903 94.0326 59.1978 94.0994 58.9415C94.2777 58.3176 94.6678 57.8273 95.2027 57.5376C95.6595 57.3036 95.8267 57.2814 97.5763 57.2814C99.2255 57.2814 99.5153 57.3036 99.883 57.5042Z" fill="white"/>
</g>
<defs>
<clipPath id="clip0_2014_24344">
<rect width="114" height="114" fill="white" transform="translate(23.2812 23)"/>
</clipPath>
</defs>
</svg>
