<svg xmlns="http://www.w3.org/2000/svg" width="160" height="160" fill="none" viewBox="0 0 160 160"><rect width="160" height="160" fill="#000" rx="20"/><g clip-path="url(#clip0_781_7999)"><path fill="#fff" d="M76.2669 23.0307C76.0217 23.053 75.2416 23.131 74.5396 23.1867C58.3478 24.6463 43.1812 33.3817 33.5754 46.8078C28.2264 54.273 24.8053 62.741 23.5126 71.7103C23.0557 74.8412 23 75.766 23 80.0112C23 84.2563 23.0557 85.1811 23.5126 88.312C26.6106 109.716 41.844 127.699 62.5044 134.362C66.2041 135.554 70.1044 136.368 74.5396 136.858C76.2669 137.047 83.7331 137.047 85.4604 136.858C93.1161 136.011 99.6018 134.117 105.998 130.852C106.979 130.351 107.168 130.217 107.035 130.106C106.945 130.039 102.767 124.435 97.7519 117.66L88.6364 105.348L77.2141 88.4457C70.929 79.1532 65.7584 71.5543 65.7138 71.5543C65.6692 71.5432 65.6246 79.0529 65.6023 88.2229C65.5689 104.279 65.5578 104.925 65.3572 105.304C65.0674 105.85 64.8446 106.072 64.3765 106.318C64.0199 106.496 63.7079 106.529 62.0252 106.529H60.0974L59.5847 106.206C59.2504 105.994 59.0053 105.716 58.8381 105.393L58.6041 104.891L58.6264 82.5516L58.6598 60.2006L59.0053 59.766C59.1836 59.5321 59.5625 59.2312 59.8299 59.0864C60.2868 58.8635 60.4651 58.8413 62.393 58.8413C64.6663 58.8413 65.0452 58.9304 65.6358 59.5766C65.8029 59.7549 71.9877 69.0697 79.3871 80.2897C86.7865 91.5098 96.905 106.83 101.875 114.351L110.901 128.022L111.358 127.721C115.404 125.092 119.683 121.348 123.07 117.448C130.28 109.17 134.927 99.0752 136.487 88.312C136.944 85.1811 137 84.2563 137 80.0112C137 75.766 136.944 74.8412 136.487 71.7103C133.389 50.3064 118.156 32.3232 97.4956 25.6602C93.8516 24.4791 89.9736 23.6658 85.6276 23.1755C84.5578 23.0641 77.1918 22.9415 76.2669 23.0307ZM99.6018 57.5042C100.137 57.7716 100.571 58.2841 100.727 58.819C100.816 59.1087 100.839 65.3036 100.816 79.2646L100.783 99.2981L97.2504 93.883L93.7067 88.468V73.9053C93.7067 64.4903 93.7513 59.1978 93.8182 58.9415C93.9965 58.3176 94.3865 57.8273 94.9214 57.5376C95.3783 57.3036 95.5455 57.2814 97.295 57.2814C98.9443 57.2814 99.234 57.3036 99.6018 57.5042Z"/></g><defs><clipPath id="clip0_781_7999"><rect width="114" height="114" fill="#fff" transform="translate(23 23)"/></clipPath></defs></svg>