<svg xmlns="http://www.w3.org/2000/svg" width="80" height="80" fill="none" viewBox="0 0 80 80"><rect width="80" height="80" x="-.001" fill="#000" rx="10.589"/><g clip-path="url(#clip0_5169_71950)"><path fill="#fff" d="M38.1326 11.5153C38.01 11.5265 37.6199 11.5655 37.2689 11.5933C29.173 12.3231 21.5897 16.6908 16.7867 23.404C14.1122 27.1366 12.4017 31.3706 11.7553 35.8553C11.5269 37.4207 11.499 37.8831 11.499 40.0057C11.499 42.1283 11.5269 42.5907 11.7553 44.1561C13.3043 54.8581 20.9211 63.8498 31.2513 67.1813C33.1012 67.7774 35.0513 68.1841 37.2689 68.4292C38.1326 68.5239 41.8657 68.5239 42.7294 68.4292C46.5572 68.0058 49.8001 67.0587 52.9983 65.4264C53.4886 65.1757 53.5834 65.1089 53.5165 65.0531C53.4719 65.0197 51.3825 62.2175 48.8751 58.8303L44.3173 52.6743L38.6062 44.223C35.4636 39.5767 32.8783 35.7773 32.856 35.7773C32.8337 35.7717 32.8114 39.5266 32.8003 44.1116C32.7836 52.1394 32.778 52.4626 32.6777 52.652C32.5328 52.925 32.4214 53.0364 32.1874 53.1589C32.0091 53.2481 31.8531 53.2648 31.0117 53.2648H30.0478L29.7915 53.1032C29.6243 52.9974 29.5017 52.8581 29.4182 52.6965L29.3011 52.4459L29.3123 41.2759L29.329 30.1004L29.5017 29.8831C29.5909 29.7661 29.7803 29.6157 29.9141 29.5433C30.1425 29.4318 30.2316 29.4207 31.1956 29.4207C32.3322 29.4207 32.5217 29.4653 32.817 29.7884C32.9006 29.8775 35.993 34.5349 39.6927 40.145C43.3924 45.755 48.4517 53.4152 50.9367 57.1757L55.4499 64.0114L55.6784 63.8609C57.701 62.5462 59.8406 60.6743 61.5344 58.7244C65.1394 54.5851 67.4629 49.5378 68.2429 44.1561C68.4714 42.5907 68.4993 42.1283 68.4993 40.0057C68.4993 37.8831 68.4714 37.4207 68.2429 35.8553C66.694 25.1533 59.0772 16.1616 48.747 12.8301C46.925 12.2396 44.986 11.8329 42.8129 11.5878C42.278 11.5321 38.595 11.4708 38.1326 11.5153ZM49.8001 28.7522C50.0675 28.8859 50.2848 29.1421 50.3628 29.4096C50.4074 29.5544 50.4185 32.6519 50.4074 39.6324L50.3907 49.6492L48.6244 46.9417L46.8525 44.2341V36.9528C46.8525 32.2452 46.8748 29.599 46.9083 29.4708C46.9974 29.1589 47.1924 28.9137 47.4599 28.7689C47.6883 28.6519 47.7719 28.6408 48.6467 28.6408C49.4713 28.6408 49.6162 28.6519 49.8001 28.7522Z"/></g><defs><clipPath id="clip0_5169_71950"><rect width="57" height="57" fill="#fff" transform="translate(11.499 11.5)"/></clipPath></defs></svg>