<svg xmlns="http://www.w3.org/2000/svg" width="60" height="60" fill="none" viewBox="0 0 60 60"><rect width="60" height="60" fill="#000" rx="10"/><g clip-path="url(#clip0_1202_39914)"><path fill="#fff" d="M28.6001 8.6365C28.5081 8.64486 28.2156 8.67411 27.9523 8.695C21.8804 9.24235 16.193 12.5181 12.5908 17.5529C10.5849 20.3524 9.30198 23.5279 8.81723 26.8914C8.64589 28.0655 8.625 28.4123 8.625 30.0042C8.625 31.5961 8.64589 31.9429 8.81723 33.117C9.97896 41.1435 15.6915 47.8872 23.4391 50.3858C24.8265 50.8329 26.2891 51.1379 27.9523 51.3217C28.6001 51.3928 31.3999 51.3928 32.0477 51.3217C34.9185 51.0042 37.3507 50.2939 39.7493 49.0696C40.1171 48.8816 40.1881 48.8315 40.138 48.7897C40.1045 48.7646 38.5375 46.663 36.657 44.1226L33.2386 39.5056L28.9553 33.1671C26.5984 29.6825 24.6594 26.8329 24.6427 26.8329C24.626 26.8287 24.6092 29.6449 24.6009 33.0836C24.5883 39.1045 24.5842 39.3468 24.5089 39.4889C24.4003 39.6936 24.3167 39.7772 24.1412 39.8691C24.0075 39.9359 23.8905 39.9485 23.2595 39.9485H22.5365L22.3443 39.8273C22.2189 39.7479 22.127 39.6435 22.0643 39.5223L21.9765 39.3343L21.9849 30.9568L21.9974 22.5752L22.127 22.4123C22.1938 22.3245 22.3359 22.2117 22.4362 22.1574C22.6076 22.0738 22.6744 22.0655 23.3974 22.0655C24.2499 22.0655 24.3919 22.0989 24.6134 22.3412C24.6761 22.4081 26.9954 25.9011 29.7702 30.1086C32.5449 34.3162 36.3394 40.0613 38.2032 42.8816L41.588 48.0084L41.7594 47.8955C43.2763 46.9095 44.881 45.5056 46.1514 44.0432C48.8551 40.9387 50.5977 37.1532 51.1828 33.117C51.3541 31.9429 51.375 31.5961 51.375 30.0042C51.375 28.4123 51.3541 28.0655 51.1828 26.8914C50.021 18.8649 44.3085 12.1212 36.5608 9.62258C35.1944 9.17968 33.7401 8.87467 32.1103 8.69082C31.7092 8.64904 28.9469 8.60308 28.6001 8.6365ZM37.3507 21.5641C37.5512 21.6644 37.7142 21.8566 37.7727 22.0571C37.8062 22.1657 37.8145 24.4889 37.8062 29.7242L37.7936 37.2368L36.4689 35.2061L35.14 33.1755V27.7145C35.14 24.1839 35.1567 22.1992 35.1818 22.1031C35.2487 21.8691 35.3949 21.6852 35.5955 21.5766C35.7669 21.4889 35.8295 21.4805 36.4856 21.4805C37.1041 21.4805 37.2128 21.4889 37.3507 21.5641Z"/></g><defs><clipPath id="clip0_1202_39914"><rect width="42.75" height="42.75" fill="#fff" transform="translate(8.625 8.625)"/></clipPath></defs></svg>