<svg width="60" height="60" viewBox="0 0 60 60" fill="none" xmlns="http://www.w3.org/2000/svg">
<rect width="60" height="60" rx="10" fill="white"/>
<rect x="0.5" y="0.5" width="59" height="59" rx="9.5" stroke="black" stroke-opacity="0.1"/>
<path fill-rule="evenodd" clip-rule="evenodd" d="M17.1308 16.7346C18.417 17.7796 18.8995 17.6999 21.3149 17.5387L44.0853 16.1715C44.5682 16.1715 44.1666 15.6897 44.0056 15.6096L40.2239 12.8758C39.4993 12.3132 38.5339 11.6689 36.6837 11.8301L14.6351 13.4383C13.8309 13.518 13.6704 13.92 13.9906 14.2423L17.1308 16.7346ZM18.4979 22.0413V45.9997C18.4979 47.2873 19.1413 47.769 20.5895 47.6893L45.6142 46.2413C47.0631 46.1616 47.2245 45.276 47.2245 44.23V20.4324C47.2245 19.3881 46.8228 18.825 45.9359 18.9053L19.7849 20.4324C18.8197 20.5135 18.4978 20.9962 18.4978 22.0413H18.4979ZM43.2022 23.3264C43.3626 24.0507 43.2022 24.7744 42.4765 24.8558L41.2708 25.0961V42.7837C40.2239 43.3463 39.2586 43.668 38.4541 43.668C37.1662 43.668 36.8436 43.2657 35.8789 42.0604L27.992 29.679V41.6584L30.4877 42.2215C30.4877 42.2215 30.4877 43.668 28.4742 43.668L22.9233 43.99C22.7621 43.668 22.9233 42.8647 23.4864 42.7038L24.9349 42.3023V26.4632L22.9237 26.3021C22.7624 25.5778 23.1641 24.5334 24.2915 24.4524L30.2463 24.051L38.4541 36.5936V25.498L36.3614 25.2579C36.2008 24.3724 36.8436 23.7295 37.6484 23.6497L43.2022 23.3264ZM12.7838 11.2676L35.7179 9.57868C38.5342 9.33713 39.2589 9.49895 41.029 10.7848L48.3498 15.9303C49.5578 16.8151 49.9604 17.056 49.9604 18.0205V46.2413C49.9604 48.01 49.3161 49.0559 47.0635 49.216L20.4302 50.8243C18.7392 50.9049 17.9344 50.6639 17.0489 49.5376L11.6577 42.5429C10.6918 41.2553 10.29 40.292 10.29 39.1651V14.0806C10.29 12.6342 10.9345 11.4277 12.7838 11.2676V11.2676Z" fill="black"/>
</svg>
