<svg width="96" height="97" viewBox="0 0 96 97" fill="none" xmlns="http://www.w3.org/2000/svg">
<g filter="url(#filter0_d_5169_71971)">
<rect x="8" y="3" width="80.0003" height="80.0003" rx="10.5894" fill="white"/>
<rect x="8.26474" y="3.26474" width="79.4708" height="79.4708" rx="10.3247" stroke="black" stroke-opacity="0.1" stroke-width="0.529472"/>
<path fill-rule="evenodd" clip-rule="evenodd" d="M30.8418 25.3125C32.5567 26.7059 33.2001 26.5996 36.4206 26.3847L66.7812 24.5617C67.4251 24.5617 66.8897 23.9193 66.6749 23.8125L61.6327 20.1674C60.6665 19.4173 59.3794 18.5583 56.9123 18.7732L27.5141 20.9174C26.4419 21.0237 26.2278 21.5598 26.6548 21.9894L30.8418 25.3125ZM32.6646 32.3881V64.3328C32.6646 66.0496 33.5225 66.6919 35.4534 66.5857L68.8198 64.6549C70.7517 64.5487 70.9669 63.3679 70.9669 61.9732V30.2429C70.9669 28.8505 70.4313 28.0997 69.2487 28.2068L34.3805 30.2429C33.0937 30.351 32.6644 30.9947 32.6644 32.3881H32.6646ZM65.6037 34.1017C65.8176 35.0674 65.6037 36.0323 64.6361 36.1409L63.0285 36.4612V60.0448C61.6327 60.795 60.3455 61.2239 59.273 61.2239C57.5557 61.2239 57.1256 60.6875 55.8393 59.0804L45.3234 42.5718V58.5444L48.6511 59.2952C48.6511 59.2952 48.651 61.2239 45.9663 61.2239L38.5651 61.6532C38.3501 61.2239 38.5651 60.1528 39.3159 59.9383L41.2473 59.4029V38.2841L38.5657 38.0692C38.3506 37.1035 38.8862 35.711 40.3893 35.6029L48.3291 35.0677L59.273 51.7913V36.9972L56.4827 36.6769C56.2685 35.4963 57.1256 34.639 58.1986 34.5327L65.6037 34.1017ZM25.0458 18.0232L55.6246 15.7712C59.3798 15.4492 60.346 15.6649 62.7062 17.3794L72.4673 24.24C74.0779 25.4198 74.6148 25.741 74.6148 27.0271V64.6549C74.6148 67.0132 73.7557 68.4078 70.7522 68.6212L35.2409 70.7656C32.9863 70.8731 31.9133 70.5518 30.7325 69.0501L23.5443 59.7237C22.2563 58.0069 21.7207 56.7225 21.7207 55.22V21.7738C21.7207 19.8453 22.58 18.2366 25.0458 18.0232V18.0232Z" fill="black"/>
</g>
<defs>
<filter id="filter0_d_5169_71971" x="0.0579128" y="0.352637" width="95.8842" height="95.8842" filterUnits="userSpaceOnUse" color-interpolation-filters="sRGB">
<feFlood flood-opacity="0" result="BackgroundImageFix"/>
<feColorMatrix in="SourceAlpha" type="matrix" values="0 0 0 0 0 0 0 0 0 0 0 0 0 0 0 0 0 0 127 0" result="hardAlpha"/>
<feOffset dy="5.29472"/>
<feGaussianBlur stdDeviation="3.97104"/>
<feColorMatrix type="matrix" values="0 0 0 0 0 0 0 0 0 0 0 0 0 0 0 0 0 0 0.15 0"/>
<feBlend mode="normal" in2="BackgroundImageFix" result="effect1_dropShadow_5169_71971"/>
<feBlend mode="normal" in="SourceGraphic" in2="effect1_dropShadow_5169_71971" result="shape"/>
</filter>
</defs>
</svg>
