<svg xmlns="http://www.w3.org/2000/svg" width="160" height="160" fill="none" viewBox="0 0 160 160"><rect width="160" height="160" fill="#fff" rx="20"/><path fill="#000" fill-rule="evenodd" d="M45.682 44.6252C49.1119 47.4119 50.3986 47.1993 56.8396 46.7695L117.561 43.1235C118.848 43.1235 117.778 41.8387 117.348 41.6253L107.264 34.335C105.331 32.8348 102.757 31.1168 97.8229 31.5465L39.0267 35.8349C36.8824 36.0476 36.4541 37.1197 37.308 37.979L45.682 44.6252ZM49.3276 58.7763V122.665C49.3276 126.099 51.0434 127.384 54.9053 127.171L121.638 123.31C125.502 123.097 125.932 120.736 125.932 117.946V54.4859C125.932 51.7012 124.861 50.1995 122.495 50.4138L52.7595 54.4859C50.1858 54.7022 49.3273 55.9896 49.3273 58.7763H49.3276ZM115.206 62.2034C115.633 64.1349 115.206 66.0646 113.27 66.2818L110.055 66.9224V114.089C107.264 115.59 104.689 116.448 102.544 116.448C99.1096 116.448 98.2495 115.375 95.6769 112.161L74.6451 79.1435V111.089L81.3004 112.59C81.3004 112.59 81.3004 116.448 75.931 116.448L61.1286 117.306C60.6987 116.448 61.1286 114.306 62.6301 113.876L66.4929 112.806V70.5682L61.1297 70.1385C60.6995 68.207 61.7708 65.422 64.777 65.2059L80.6565 64.1355L102.544 97.5826V67.9944L96.9636 67.3539C96.5353 64.9927 98.2495 63.2782 100.395 63.0655L115.206 62.2034ZM34.09 30.0466L95.2475 25.5427C102.758 24.8986 104.69 25.3301 109.411 28.759L128.933 42.4803C132.154 44.8398 133.228 45.4822 133.228 48.0543V123.31C133.228 128.026 131.509 130.815 125.503 131.242L54.4803 135.531C49.971 135.746 47.825 135.103 45.4635 132.1L31.087 113.447C28.5112 110.014 27.4399 107.445 27.4399 104.44V37.5477C27.4399 33.6908 29.1586 30.4735 34.09 30.0466Z" clip-rule="evenodd"/><rect width="159" height="159" x=".5" y=".5" stroke="#000" stroke-opacity=".2" rx="19.5"/></svg>