<svg width="80" height="80" viewBox="0 0 80 80" fill="none" xmlns="http://www.w3.org/2000/svg">
<rect width="80.0003" height="80.0003" rx="10.5894" fill="white"/>
<rect x="0.264736" y="0.264736" width="79.4708" height="79.4708" rx="10.3247" stroke="black" stroke-opacity="0.1" stroke-width="0.529472"/>
<path fill-rule="evenodd" clip-rule="evenodd" d="M22.8418 22.3125C24.5567 23.7059 25.2001 23.5996 28.4206 23.3847L58.7812 21.5617C59.4251 21.5617 58.8897 20.9193 58.6749 20.8125L53.6327 17.1674C52.6665 16.4173 51.3794 15.5583 48.9123 15.7732L19.5141 17.9174C18.4419 18.0237 18.2278 18.5598 18.6548 18.9894L22.8418 22.3125ZM24.6646 29.3881V61.3328C24.6646 63.0496 25.5225 63.6919 27.4534 63.5857L60.8198 61.6549C62.7517 61.5487 62.9669 60.3679 62.9669 58.9732V27.2429C62.9669 25.8505 62.4313 25.0997 61.2487 25.2068L26.3805 27.2429C25.0937 27.351 24.6644 27.9947 24.6644 29.3881H24.6646ZM57.6037 31.1017C57.8176 32.0674 57.6037 33.0323 56.6361 33.1409L55.0285 33.4612V57.0448C53.6327 57.795 52.3455 58.2239 51.273 58.2239C49.5557 58.2239 49.1256 57.6875 47.8393 56.0804L37.3234 39.5718V55.5444L40.6511 56.2952C40.6511 56.2952 40.651 58.2239 37.9663 58.2239L30.5651 58.6532C30.3501 58.2239 30.5651 57.1528 31.3159 56.9383L33.2473 56.4029V35.2841L30.5657 35.0692C30.3506 34.1035 30.8862 32.711 32.3893 32.6029L40.3291 32.0677L51.273 48.7913V33.9972L48.4827 33.6769C48.2685 32.4963 49.1256 31.639 50.1986 31.5327L57.6037 31.1017ZM17.0458 15.0232L47.6246 12.7712C51.3798 12.4492 52.346 12.6649 54.7062 14.3794L64.4673 21.24C66.0779 22.4198 66.6148 22.741 66.6148 24.0271V61.6549C66.6148 64.0132 65.7557 65.4078 62.7522 65.6212L27.2409 67.7656C24.9863 67.8731 23.9133 67.5518 22.7325 66.0501L15.5443 56.7237C14.2563 55.0069 13.7207 53.7225 13.7207 52.22V18.7738C13.7207 16.8453 14.58 15.2366 17.0458 15.0232V15.0232Z" fill="black"/>
</svg>
