<svg width="160" height="160" viewBox="0 0 160 160" fill="none" xmlns="http://www.w3.org/2000/svg">
<rect width="160" height="160" rx="20" fill="#CB3837"/>
<g clip-path="url(#clip0_781_8223)">
<path d="M7.27295 52.987H152.727V101.076H80.0002V109.091H47.677V101.076H7.27295V52.987ZM15.3538 93.0612H31.5154V69.0167H39.5962V93.0612H47.677V61.0018H15.3538V93.0612ZM55.7578 61.0018V101.076H71.9194V93.0612H88.081V61.0018H55.7578ZM71.9194 69.0167H80.0002V85.0464H71.9194V69.0167ZM96.1618 61.0018V93.0612H112.323V69.0167H120.404V93.0612H128.485V69.0167H136.566V93.0612H144.647V61.0018H96.1618Z" fill="#CB3837"/>
<path d="M15.354 93.0612H31.5156V69.0167H39.5964V93.0612H47.6772V61.0018H15.354V93.0612Z" fill="white"/>
<path d="M55.7578 61.0018V101.076H71.9194V93.0612H88.081V61.0018H55.7578ZM80.0002 85.0464H71.9194V69.0167H80.0002V85.0464Z" fill="white"/>
<path d="M96.1616 61.0018V93.0612H112.323V69.0167H120.404V93.0612H128.485V69.0167H136.566V93.0612H144.646V61.0018H96.1616Z" fill="white"/>
</g>
<defs>
<clipPath id="clip0_781_8223">
<rect width="145.455" height="56.1039" fill="white" transform="translate(7.27295 52.987)"/>
</clipPath>
</defs>
</svg>
