<svg xmlns="http://www.w3.org/2000/svg" width="80" height="80" fill="none" viewBox="0 0 80 80"><g clip-path="url(#clip0_5169_71952)"><rect width="80" height="80" x="-.001" y=".001" fill="#002E3B" rx="10.589"/><path fill="#80EEC0" fill-rule="evenodd" d="M37.4784 25.9508C36.1791 23.7169 32.931 23.7169 31.6317 25.9508L17.4719 50.2975C16.1727 52.5315 17.7967 55.3239 20.3952 55.3239H31.4492C30.3388 54.3535 29.9276 52.6748 30.7679 51.2345L41.4919 32.8518L37.4784 25.9508Z" clip-rule="evenodd"/><path fill="#00DC82" d="M46.4504 31.2908C47.5257 29.463 50.2137 29.463 51.289 31.2908L63.0073 51.2107C64.0827 53.0385 62.7387 55.3232 60.5883 55.3232H37.1512C35.0008 55.3232 33.6567 53.0385 34.7319 51.2107L46.4504 31.2908Z"/></g><defs><clipPath id="clip0_5169_71952"><rect width="80" height="80" fill="#fff" transform="translate(-0.000976562 0.000976562)"/></clipPath></defs></svg>