<svg xmlns="http://www.w3.org/2000/svg" width="160" height="160" fill="none" viewBox="0 0 160 160"><rect width="160" height="160" fill="#1B3054" rx="20"/><g clip-path="url(#clip0_783_7720)"><path fill="#fff" d="M79.9415 89.621L65.8475 111.775L42.479 73.853L42.425 113.552H26V46.448H42.6095L66.221 86.1965L66.2435 68.2055L79.9415 89.621V89.621ZM82.646 63.6965C82.754 63.4805 82.646 46.6685 82.682 46.448H66.257C66.266 46.7135 66.2345 63.44 66.2435 63.6965H82.646V63.6965ZM107.999 82.2995C106.082 82.2627 104.2 82.821 102.614 83.8977C101.027 84.9743 99.8127 86.5164 99.1385 88.3115C100.255 86.6403 101.909 85.4 103.826 84.7954C105.743 84.1908 107.808 84.258 109.682 84.986C111.464 85.7105 113.809 86.885 115.667 86.2595C114.795 85.038 113.645 84.0417 112.311 83.353C110.978 82.6644 109.5 82.3033 107.999 82.2995V82.2995ZM123.254 87.074C121.566 86.489 119.654 85.8275 118.264 84.0095C117.994 83.6495 117.741 83.2445 117.471 82.817C116.869 81.7062 116.054 80.7245 115.073 79.928C113.75 78.956 112.013 78.479 109.763 78.479C107.551 78.4796 105.39 79.1368 103.552 80.3673C101.714 81.5978 100.283 83.3463 99.44 85.391C100.509 83.9033 101.949 82.7222 103.618 81.9659C105.286 81.2096 107.124 80.9046 108.947 81.0813C110.77 81.2581 112.515 81.9105 114.007 82.9732C115.499 84.0359 116.686 85.4717 117.449 87.137C117.829 87.7609 118.401 88.2447 119.079 88.5157C119.758 88.7867 120.506 88.8303 121.211 88.64C123.43 88.1675 123.281 90.26 126.625 90.971V90.3725C126.611 88.3655 125.518 87.8975 123.25 87.074H123.254ZM132.362 92.771C132.852 92.4727 133.255 92.05 133.529 91.5458C133.804 91.0416 133.94 90.4738 133.923 89.9C133.878 76.5935 123.079 65.2085 109.759 65.2085C105.754 65.2052 101.813 66.198 98.2878 68.0975C94.763 69.997 91.7661 72.7434 89.567 76.0895C89.522 75.9725 82.718 65.3345 82.646 65.2085H66.2435L81.827 89.612L66.6215 113.552H82.5515L89.4815 102.905L96.5375 113.552H112.472L98.027 90.818C97.7878 90.3751 97.6581 89.8813 97.649 89.378C97.6484 87.788 97.9611 86.2134 98.5691 84.7442C99.1772 83.2751 100.069 81.9401 101.193 80.8156C102.317 79.691 103.652 78.799 105.121 78.1904C106.59 77.5818 108.164 77.2685 109.754 77.2685H109.759C116.455 77.2685 117.571 81.2735 119.015 83.1545C121.868 86.8715 127.565 85.2425 127.565 90.089C127.575 90.6449 127.731 91.1884 128.017 91.6654C128.302 92.1423 128.708 92.5361 129.193 92.8074C129.679 93.0788 130.227 93.2182 130.783 93.2118C131.339 93.2054 131.883 93.0534 132.362 92.771V92.771ZM133.937 93.3695C133.159 95.0435 131.417 94.8905 130.54 96.245C129.748 97.4645 131.052 98.099 131.052 98.099C131.052 98.099 132.569 98.801 133.473 96.6995C133.941 95.66 134.104 94.5035 133.937 93.3695V93.3695Z"/></g><defs><clipPath id="clip0_783_7720"><rect width="108" height="108" fill="#fff" transform="translate(26 26)"/></clipPath></defs></svg>