<svg xmlns="http://www.w3.org/2000/svg" width="80" height="80" fill="none" viewBox="0 0 80 80"><g clip-path="url(#clip0_5169_71951)"><rect width="80" height="80" x="-.001" fill="#1B3054" rx="10.589"/><rect width="79.471" height="79.471" x=".264" y=".265" stroke="#000" stroke-opacity=".2" stroke-width=".529" rx="10.325"/><g clip-path="url(#clip1_5169_71951)"><path fill="#fff" d="M39.9699 44.8102L32.9229 55.887L21.2386 36.9262L21.2116 56.7758H12.999V23.2236H21.3038L33.1096 43.098L33.1209 34.1024L39.9699 44.8102V44.8102ZM41.3221 31.8479C41.3761 31.7399 41.3221 23.3339 41.3401 23.2236H33.1276C33.1321 23.3564 33.1164 31.7197 33.1209 31.8479H41.3221V31.8479ZM53.9987 41.1495C53.0401 41.131 52.0993 41.4102 51.3059 41.9485C50.5125 42.4869 49.9055 43.2579 49.5684 44.1555C50.1269 43.3199 50.9536 42.6997 51.912 42.3974C52.8705 42.0951 53.9034 42.1287 54.8402 42.4927C55.7312 42.855 56.9034 43.4422 57.8327 43.1295C57.3968 42.5187 56.8216 42.0205 56.1549 41.6762C55.4882 41.3319 54.7491 41.1513 53.9987 41.1495V41.1495ZM61.6262 43.5367C60.7825 43.2442 59.8262 42.9135 59.131 42.0045C58.996 41.8245 58.87 41.622 58.735 41.4082C58.4337 40.8528 58.0262 40.362 57.5357 39.9637C56.8742 39.4777 56.0057 39.2392 54.8807 39.2392C53.7748 39.2395 52.694 39.5681 51.7751 40.1833C50.8562 40.7986 50.1407 41.6728 49.7192 42.6952C50.2535 41.9513 50.9738 41.3608 51.808 40.9827C52.6422 40.6045 53.561 40.452 54.4727 40.5404C55.3843 40.6288 56.2567 40.9549 57.0028 41.4863C57.7488 42.0176 58.3422 42.7356 58.7237 43.5682C58.9137 43.8802 59.1997 44.1221 59.5389 44.2576C59.8781 44.3931 60.2521 44.4149 60.6047 44.3197C61.714 44.0835 61.6397 45.1297 63.3115 45.4852V45.186C63.3047 44.1825 62.758 43.9485 61.624 43.5367H61.6262ZM66.1802 46.3852C66.4254 46.2361 66.6268 46.0247 66.7639 45.7726C66.9011 45.5205 66.969 45.2366 66.961 44.9497C66.9385 38.2964 61.5385 32.6039 54.8784 32.6039C52.8764 32.6023 50.9054 33.0987 49.143 34.0484C47.3806 34.9982 45.8822 36.3714 44.7826 38.0444C44.7601 37.9859 41.3581 32.6669 41.3221 32.6039H33.1209L40.9126 44.8057L33.3099 56.7758H41.2749L44.7399 51.4522L48.2679 56.7758H56.2352L49.0127 45.4087C48.893 45.1873 48.8282 44.9404 48.8237 44.6887C48.8234 43.8937 48.9797 43.1064 49.2837 42.3718C49.5878 41.6372 50.0336 40.9698 50.5956 40.4075C51.1577 39.8452 51.825 39.3992 52.5595 39.0949C53.2939 38.7906 54.0812 38.6339 54.8762 38.6339H54.8784C58.2265 38.6339 58.7845 40.6365 59.5067 41.577C60.9332 43.4355 63.7817 42.621 63.7817 45.0442C63.7868 45.3222 63.8647 45.5939 64.0076 45.8324C64.1504 46.0709 64.3533 46.2678 64.5959 46.4034C64.8386 46.5391 65.1125 46.6088 65.3905 46.6056C65.6685 46.6024 65.9408 46.5264 66.1802 46.3852V46.3852ZM66.9677 46.6845C66.5785 47.5215 65.7077 47.445 65.269 48.1222C64.873 48.732 65.5255 49.0492 65.5255 49.0492C65.5255 49.0492 66.2837 49.4002 66.736 48.3495C66.97 47.8297 67.051 47.2515 66.9677 46.6845V46.6845Z"/></g></g><defs><clipPath id="clip0_5169_71951"><rect width="80" height="80" fill="#fff" transform="translate(-0.000976562)"/></clipPath><clipPath id="clip1_5169_71951"><rect width="54" height="54" fill="#fff" transform="translate(12.999 13)"/></clipPath></defs></svg>