<svg width="161" height="160" viewBox="0 0 161 160" fill="none" xmlns="http://www.w3.org/2000/svg">
<rect x="0.6875" width="160" height="160" rx="20" fill="#121826"/>
<g clip-path="url(#clip0_2014_24415)">
<path fill-rule="evenodd" clip-rule="evenodd" d="M77.1368 73.1992C85.3844 65.3413 82.8677 55.6225 75.398 43.8458C67.9284 32.0691 52.892 27.8793 50.0869 30.5519C47.2817 33.2246 46.66 52.3328 54.1296 64.1095C61.5992 75.8863 68.8892 81.0572 77.1368 73.1992Z" fill="url(#paint0_linear_2014_24415)"/>
<path fill-rule="evenodd" clip-rule="evenodd" d="M84.2681 74.2868C90.3697 83.9067 98.5269 80.3893 108.624 70.7694C118.72 61.1496 122.907 42.7222 120.832 39.4503C118.757 36.1784 102.986 36.3425 92.8892 45.9623C82.7924 55.5822 78.1665 64.667 84.2681 74.2868Z" fill="url(#paint1_linear_2014_24415)"/>
<path fill-rule="evenodd" clip-rule="evenodd" d="M80.9318 68.9946C91.0632 70.2386 95.0475 60.8787 96.9052 45.7491C98.7629 30.6194 91.1049 14.6283 87.6591 14.2052C84.2132 13.7821 72.6365 27.4115 70.7788 42.5411C68.9211 57.6708 70.8004 67.7506 80.9318 68.9946Z" fill="url(#paint2_linear_2014_24415)"/>
<path fill-rule="evenodd" clip-rule="evenodd" d="M78.3807 135.902C99.6225 135.902 116.849 129.731 116.849 101.748C116.849 73.7638 99.6225 50.8005 78.3807 50.8005C57.1389 50.8005 39.9258 73.7638 39.9258 101.748C39.9258 129.731 57.1389 135.902 78.3807 135.902Z" fill="url(#paint3_linear_2014_24415)"/>
<path d="M97.81 96.0345C100.844 96.0345 103.304 94.8903 103.304 93.4789C103.304 92.0675 100.844 90.9233 97.81 90.9233C94.7754 90.9233 92.3154 92.0675 92.3154 93.4789C92.3154 94.8903 94.7754 96.0345 97.81 96.0345Z" fill="#EAADCC"/>
<path d="M57.1197 94.4822C60.1317 94.852 62.7127 94.0162 62.8848 92.6153C63.0568 91.2144 60.7546 89.7789 57.7426 89.4091C54.7307 89.0393 52.1496 89.8752 51.9776 91.276C51.8056 92.6769 54.1078 94.1124 57.1197 94.4822Z" fill="#EAADCC"/>
<path d="M81.9003 92.574C80.2466 93.918 78.3366 94.4662 76.1702 94.2186C74.0038 93.9711 72.398 93.0719 71.3528 91.521" stroke="black" stroke-width="1.53336" stroke-linecap="round" stroke-linejoin="round"/>
<path fill-rule="evenodd" clip-rule="evenodd" d="M60.6208 79.2744C62.1373 79.2215 63.5316 79.7881 64.5601 80.747C65.5885 81.706 66.2511 83.0573 66.3041 84.5737C66.357 86.0902 65.7903 87.4845 64.8313 88.5129C63.8723 89.5413 62.5208 90.2038 61.0043 90.2568C59.488 90.3097 58.0938 89.7431 57.0654 88.784C56.0371 87.825 55.3747 86.4737 55.3217 84.9572C55.2687 83.4408 55.8354 82.0466 56.7943 81.0182C57.7532 79.9899 59.1045 79.3274 60.6208 79.2744V79.2744Z" fill="black"/>
<path fill-rule="evenodd" clip-rule="evenodd" d="M60.9101 83.8673C60.8756 82.88 60.0469 82.1074 59.06 82.1419C58.0725 82.1764 57.3 83.0049 57.3344 83.9922C57.3689 84.9794 58.1974 85.752 59.1848 85.7175C60.1717 85.6828 60.9446 84.8546 60.9101 83.8673Z" fill="white"/>
<path fill-rule="evenodd" clip-rule="evenodd" d="M93.9131 80.6691C95.4296 80.6161 96.8238 81.1827 97.8522 82.1417C98.8806 83.1006 99.5431 84.4519 99.596 85.9683C99.649 87.4849 99.0824 88.8791 98.1234 89.9075C97.1644 90.9359 95.8131 91.5985 94.2966 91.6514C92.7803 91.7044 91.386 91.1377 90.3576 90.1786C89.3292 89.2197 88.6666 87.8683 88.6137 86.3518C88.5607 84.8355 89.1274 83.4413 90.0864 82.4129C91.0454 81.3845 92.3968 80.722 93.9131 80.6691V80.6691Z" fill="black"/>
<path d="M65.5376 84.6004C65.6288 87.2103 63.5872 89.3994 60.9774 89.4906C58.3679 89.5817 56.1789 87.5403 56.0877 84.9304C55.9966 82.3209 58.0379 80.1317 60.6474 80.0406C63.2572 79.9495 65.4465 81.9909 65.5376 84.6004ZM67.0701 84.5469C66.9494 81.091 64.05 78.3875 60.5939 78.5082C57.1381 78.6289 54.4346 81.5281 54.5553 84.9839C54.676 88.4401 57.575 91.1437 61.0309 91.023C64.487 90.9023 67.1908 88.0031 67.0701 84.5469Z" fill="white" stroke="white" stroke-width="0.766678"/>
<path d="M98.8296 85.9951C98.9208 88.6049 96.8794 90.7941 94.2697 90.8852C91.6602 90.9763 89.4708 88.9349 89.3797 86.3251C89.2886 83.7155 91.3302 81.5264 93.9397 81.4353C96.5494 81.3441 98.7385 83.3855 98.8296 85.9951ZM100.362 85.9416C100.241 82.4856 97.3422 79.7822 93.8862 79.9028C90.4303 80.0235 87.7266 82.9227 87.8473 86.3786C87.968 89.8347 90.8673 92.5383 94.3232 92.4176C97.7793 92.2969 100.483 89.3977 100.362 85.9416Z" fill="white" stroke="white" stroke-width="0.766678"/>
<path fill-rule="evenodd" clip-rule="evenodd" d="M94.2011 85.2618C94.1666 84.2745 93.3381 83.502 92.3508 83.5364C91.3636 83.5709 90.591 84.3994 90.6255 85.3867C90.6599 86.374 91.4884 87.1466 92.4757 87.1121C93.463 87.0776 94.2356 86.2491 94.2011 85.2618Z" fill="white"/>
<path d="M49.2539 104.34L68.1653 124.018" stroke="#ECB732" stroke-width="2.81115" stroke-linecap="round"/>
<path d="M65.6099 106.64L53.5986 119.418" stroke="#ECB732" stroke-width="2.81115" stroke-linecap="round"/>
<path d="M107.266 104.34L88.3542 124.018" stroke="#ECB732" stroke-width="2.81115" stroke-linecap="round"/>
<path d="M90.9096 106.64L102.921 119.418" stroke="#ECB732" stroke-width="2.81115" stroke-linecap="round"/>
<path d="M86.0547 60.8951L73.5323 73.4175" stroke="#FFC73B" stroke-width="2.81115" stroke-linecap="round"/>
<path d="M83.499 73.4176L70.9766 60.8952" stroke="#FFC73B" stroke-width="2.81115" stroke-linecap="round"/>
</g>
<defs>
<linearGradient id="paint0_linear_2014_24415" x1="49.0031" y1="31.388" x2="53.2405" y2="51.9518" gradientUnits="userSpaceOnUse">
<stop stop-color="#52CE63"/>
<stop offset="1" stop-color="#51A256"/>
</linearGradient>
<linearGradient id="paint1_linear_2014_24415" x1="123.454" y1="42.7923" x2="102.887" y2="47.025" gradientUnits="userSpaceOnUse">
<stop stop-color="#52CE63"/>
<stop offset="1" stop-color="#51A256"/>
</linearGradient>
<linearGradient id="paint2_linear_2014_24415" x1="87.5202" y1="14.1882" x2="83.5638" y2="46.4105" gradientUnits="userSpaceOnUse">
<stop stop-color="#8AE99C"/>
<stop offset="1" stop-color="#52CE63"/>
</linearGradient>
<linearGradient id="paint3_linear_2014_24415" x1="79.4472" y1="65.6699" x2="73.0614" y2="135.796" gradientUnits="userSpaceOnUse">
<stop stop-color="#FFE56C"/>
<stop offset="1" stop-color="#FFC63A"/>
</linearGradient>
<clipPath id="clip0_2014_24415">
<rect width="81.5234" height="121.902" fill="white" transform="translate(39.9258 14)"/>
</clipPath>
</defs>
</svg>
