<svg width="160" height="160" viewBox="0 0 160 160" fill="none" xmlns="http://www.w3.org/2000/svg">
<rect width="160" height="160" rx="20" fill="#121826"/>
<g clip-path="url(#clip0_2014_24414)">
<path fill-rule="evenodd" clip-rule="evenodd" d="M76.4493 73.1992C84.6969 65.3413 82.1802 55.6225 74.7105 43.8458C67.2409 32.0691 52.2045 27.8793 49.3994 30.5519C46.5942 33.2246 45.9725 52.3328 53.4421 64.1095C60.9117 75.8863 68.2017 81.0572 76.4493 73.1992Z" fill="url(#paint0_linear_2014_24414)"/>
<path fill-rule="evenodd" clip-rule="evenodd" d="M83.5806 74.2868C89.6822 83.9067 97.8394 80.3893 107.936 70.7694C118.033 61.1496 122.22 42.7222 120.144 39.4503C118.069 36.1784 102.299 36.3425 92.2017 45.9623C82.1049 55.5822 77.479 64.667 83.5806 74.2868Z" fill="url(#paint1_linear_2014_24414)"/>
<path fill-rule="evenodd" clip-rule="evenodd" d="M80.2448 68.9946C90.3762 70.2386 94.3605 60.8787 96.2182 45.7491C98.0759 30.6194 90.4179 14.6283 86.9721 14.2052C83.5262 13.7821 71.9495 27.4115 70.0918 42.5411C68.2341 57.6708 70.1133 67.7506 80.2448 68.9946Z" fill="url(#paint2_linear_2014_24414)"/>
<path fill-rule="evenodd" clip-rule="evenodd" d="M77.6932 135.902C98.935 135.902 116.162 129.731 116.162 101.748C116.162 73.7638 98.935 50.8005 77.6932 50.8005C56.4514 50.8005 39.2383 73.7638 39.2383 101.748C39.2383 129.731 56.4514 135.902 77.6932 135.902Z" fill="url(#paint3_linear_2014_24414)"/>
<path d="M97.1225 96.0345C100.157 96.0345 102.617 94.8903 102.617 93.4789C102.617 92.0675 100.157 90.9233 97.1225 90.9233C94.0879 90.9233 91.6279 92.0675 91.6279 93.4789C91.6279 94.8903 94.0879 96.0345 97.1225 96.0345Z" fill="#EAADCC"/>
<path d="M56.4327 94.4822C59.4446 94.852 62.0257 94.0162 62.1977 92.6153C62.3698 91.2144 60.0675 89.7789 57.0556 89.4091C54.0437 89.0393 51.4626 89.8752 51.2906 91.276C51.1186 92.6769 53.4208 94.1124 56.4327 94.4822Z" fill="#EAADCC"/>
<path d="M81.2133 92.574C79.5596 93.918 77.6496 94.4662 75.4832 94.2186C73.3168 93.9711 71.711 93.0719 70.6658 91.521" stroke="black" stroke-width="1.53336" stroke-linecap="round" stroke-linejoin="round"/>
<path fill-rule="evenodd" clip-rule="evenodd" d="M59.9338 79.2744C61.4503 79.2215 62.8446 79.7881 63.8731 80.747C64.9015 81.706 65.5641 83.0573 65.617 84.5737C65.67 86.0902 65.1033 87.4845 64.1443 88.5129C63.1852 89.5413 61.8338 90.2038 60.3173 90.2568C58.801 90.3097 57.4068 89.7431 56.3784 88.784C55.3501 87.825 54.6876 86.4737 54.6347 84.9572C54.5817 83.4408 55.1484 82.0466 56.1073 81.0182C57.0662 79.9899 58.4175 79.3274 59.9338 79.2744V79.2744Z" fill="black"/>
<path fill-rule="evenodd" clip-rule="evenodd" d="M60.2226 83.8673C60.1881 82.88 59.3594 82.1074 58.3725 82.1419C57.385 82.1764 56.6125 83.0049 56.6469 83.9922C56.6814 84.9794 57.5099 85.752 58.4973 85.7175C59.4842 85.6828 60.2571 84.8546 60.2226 83.8673Z" fill="white"/>
<path fill-rule="evenodd" clip-rule="evenodd" d="M93.2261 80.6691C94.7426 80.6161 96.1368 81.1827 97.1652 82.1417C98.1936 83.1006 98.8561 84.4519 98.909 85.9683C98.962 87.4849 98.3954 88.8791 97.4364 89.9075C96.4774 90.9359 95.1261 91.5985 93.6096 91.6514C92.0933 91.7044 90.699 91.1377 89.6705 90.1786C88.6422 89.2197 87.9796 87.8683 87.9267 86.3518C87.8737 84.8355 88.4404 83.4413 89.3994 82.4129C90.3584 81.3845 91.7098 80.722 93.2261 80.6691V80.6691Z" fill="black"/>
<path d="M64.8511 84.6004C64.9423 87.2103 62.9006 89.3994 60.2909 89.4906C57.6814 89.5817 55.4923 87.5403 55.4012 84.9304C55.3101 82.3209 57.3514 80.1317 59.9609 80.0406C62.5706 79.9495 64.76 81.9909 64.8511 84.6004ZM66.3835 84.5469C66.2629 81.091 63.3634 78.3875 59.9074 78.5082C56.4515 78.6289 53.7481 81.5281 53.8688 84.9839C53.9895 88.4401 56.8885 91.1437 60.3444 91.023C63.8005 90.9023 66.5042 88.0031 66.3835 84.5469Z" fill="white" stroke="white" stroke-width="0.766678"/>
<path d="M98.1426 85.9951C98.2338 88.6049 96.1924 90.7941 93.5827 90.8852C90.9732 90.9763 88.7838 88.9349 88.6927 86.3251C88.6016 83.7155 90.6432 81.5264 93.2527 81.4353C95.8624 81.3441 98.0515 83.3855 98.1426 85.9951ZM99.6751 85.9416C99.5544 82.4856 96.6552 79.7822 93.1992 79.9028C89.7433 80.0235 87.0396 82.9227 87.1603 86.3786C87.281 89.8347 90.1803 92.5383 93.6362 92.4176C97.0923 92.2969 99.7957 89.3977 99.6751 85.9416Z" fill="white" stroke="white" stroke-width="0.766678"/>
<path fill-rule="evenodd" clip-rule="evenodd" d="M93.5141 85.2618C93.4796 84.2745 92.6511 83.502 91.6638 83.5364C90.6766 83.5709 89.904 84.3994 89.9384 85.3867C89.9729 86.374 90.8014 87.1466 91.7887 87.1121C92.776 87.0776 93.5486 86.2491 93.5141 85.2618Z" fill="white"/>
<path d="M48.5664 104.34L67.4778 124.018" stroke="#ECB732" stroke-width="2.81115" stroke-linecap="round"/>
<path d="M64.9219 106.64L52.9106 119.418" stroke="#ECB732" stroke-width="2.81115" stroke-linecap="round"/>
<path d="M106.578 104.34L87.6667 124.018" stroke="#ECB732" stroke-width="2.81115" stroke-linecap="round"/>
<path d="M90.2226 106.64L102.234 119.418" stroke="#ECB732" stroke-width="2.81115" stroke-linecap="round"/>
<path d="M85.3667 60.8951L72.8443 73.4175" stroke="#FFC73B" stroke-width="2.81115" stroke-linecap="round"/>
<path d="M82.811 73.4176L70.2886 60.8952" stroke="#FFC73B" stroke-width="2.81115" stroke-linecap="round"/>
</g>
<defs>
<linearGradient id="paint0_linear_2014_24414" x1="48.3156" y1="31.388" x2="52.553" y2="51.9518" gradientUnits="userSpaceOnUse">
<stop stop-color="#52CE63"/>
<stop offset="1" stop-color="#51A256"/>
</linearGradient>
<linearGradient id="paint1_linear_2014_24414" x1="122.766" y1="42.7923" x2="102.2" y2="47.025" gradientUnits="userSpaceOnUse">
<stop stop-color="#52CE63"/>
<stop offset="1" stop-color="#51A256"/>
</linearGradient>
<linearGradient id="paint2_linear_2014_24414" x1="86.8332" y1="14.1882" x2="82.8768" y2="46.4105" gradientUnits="userSpaceOnUse">
<stop stop-color="#8AE99C"/>
<stop offset="1" stop-color="#52CE63"/>
</linearGradient>
<linearGradient id="paint3_linear_2014_24414" x1="78.7597" y1="65.6699" x2="72.3739" y2="135.796" gradientUnits="userSpaceOnUse">
<stop stop-color="#FFE56C"/>
<stop offset="1" stop-color="#FFC63A"/>
</linearGradient>
<clipPath id="clip0_2014_24414">
<rect width="81.5234" height="121.902" fill="white" transform="translate(39.2383 14)"/>
</clipPath>
</defs>
</svg>
