<svg width="60" height="60" viewBox="0 0 60 60" fill="none" xmlns="http://www.w3.org/2000/svg">
<rect width="60" height="60" rx="10" fill="#2D3751"/>
<path d="M22.6557 32.2677C21.0467 32.7243 19.9911 33.5249 19.2958 34.3249C19.9618 33.7421 20.8539 33.2072 22.0574 32.866C23.2883 32.5172 24.3384 32.5197 25.2061 32.6871V32.0086C24.4659 31.9409 23.6173 31.9948 22.6557 32.2677ZM19.2222 26.5639L13.2466 28.1382C13.2466 28.1382 13.3556 28.292 13.5572 28.4973L18.6237 27.1622C18.6237 27.1622 18.5519 28.0873 17.9285 28.9149C19.1078 28.0227 19.2222 26.5639 19.2222 26.5639ZM24.2242 40.6075C15.8149 42.8724 11.3659 33.127 10.0189 28.0687C9.3966 25.7339 9.12493 23.9656 9.05252 22.8244C9.04474 22.7059 9.04834 22.6061 9.05672 22.5145C8.62049 22.5409 8.41164 22.7676 8.45413 23.4229C8.52654 24.5634 8.79821 26.3316 9.42053 28.6672C10.7669 33.7247 15.2166 43.4701 23.6258 41.2052C25.4562 40.7121 26.8313 39.814 27.8636 38.6675C26.9121 39.5268 25.7213 40.2036 24.2242 40.6075ZM25.8044 20.5996V21.1981H29.1029C29.0352 20.9862 28.967 20.7953 28.8993 20.5996H25.8044Z" fill="#2D4552"/>
<path d="M29.84 25.5285C31.3234 25.9498 32.1079 26.9898 32.5226 27.9102L34.1765 28.3799C34.1765 28.3799 33.9509 25.1588 31.0373 24.3312C28.3117 23.5568 26.6344 25.8457 26.4303 26.1418C27.2232 25.577 28.3811 25.1145 29.84 25.5285ZM43.0058 27.925C40.2777 27.1471 38.601 29.4408 38.3999 29.7328C39.1935 29.1686 40.3507 28.7059 41.809 29.1219C43.29 29.5438 44.0739 30.5825 44.4898 31.5035L46.1461 31.975C46.1461 31.975 45.9169 28.7533 43.0058 27.925ZM41.3626 36.418L27.6038 32.5716C27.6038 32.5716 27.7528 33.3268 28.3243 34.3046L39.9086 37.5431C40.8623 36.9913 41.3626 36.418 41.3626 36.418ZM31.8236 44.6974C20.9293 41.7766 22.2464 27.8958 24.0092 21.3182C24.735 18.6075 25.4812 16.5928 26.1001 15.2422C25.7308 15.1662 25.425 15.3607 25.1229 15.9752C24.4658 17.3078 23.6256 19.4776 22.8125 22.515C21.0502 29.0925 19.7331 42.9728 30.6269 45.8936C35.7617 47.2693 39.7618 45.1785 42.7437 41.8951C39.9133 44.4587 36.2996 45.896 31.8236 44.6974Z" fill="#2D4552"/>
<path d="M25.8045 37.3545V34.5535L18.0219 36.7603C18.0219 36.7603 18.597 33.4189 22.6558 32.2676C23.8867 31.9187 24.937 31.9211 25.8045 32.0886V20.5995H29.7013C29.277 19.2884 28.8666 18.279 28.5218 17.5777C27.9516 16.4168 27.3669 17.1863 26.0398 18.2964C25.105 19.0773 22.7426 20.7432 19.1876 21.7012C15.6325 22.6598 12.7584 22.4055 11.5593 22.1979C9.85923 21.9046 8.97002 21.5312 9.0532 22.8243C9.1256 23.9648 9.39728 25.7332 10.0196 28.0686C11.366 33.1263 15.8156 42.8717 24.2249 40.6068C26.4215 40.0149 27.9719 38.845 29.0466 37.3539H25.8045V37.3545ZM13.2461 28.1381L19.2223 26.5638C19.2223 26.5638 19.0481 28.8628 16.8077 29.4534C14.5668 30.0434 13.2461 28.1381 13.2461 28.1381Z" fill="#E2574C"/>
<path d="M48.2956 20.7332C46.7421 21.0055 43.0153 21.3448 38.4096 20.1103C33.8026 18.8765 30.7459 16.7186 29.5348 15.7044C27.8181 14.2664 27.0629 13.2671 26.3197 14.7786C25.6627 16.1119 24.8224 18.2816 24.0092 21.3191C22.247 27.8966 20.9299 41.7768 31.8236 44.6977C42.715 47.616 48.5133 34.936 50.2757 28.3579C51.0889 25.3211 51.4455 23.0215 51.5437 21.5387C51.6555 19.859 50.5018 20.3466 48.2956 20.7332ZM26.4082 26.175C26.4082 26.175 28.125 23.5049 31.0367 24.3325C33.9503 25.1602 34.1759 28.3813 34.1759 28.3813L26.4082 26.175ZM33.5159 38.1567C28.3943 36.6564 27.6044 32.5723 27.6044 32.5723L41.3626 36.4189C41.3626 36.4183 38.5855 39.6382 33.5159 38.1567ZM38.3802 29.7635C38.3802 29.7635 40.0946 27.0953 43.0058 27.9253C45.9169 28.7541 46.1461 31.9752 46.1461 31.9752L38.3802 29.7635Z" fill="#2EAD33"/>
<path d="M23.0847 35.3258L18.0218 36.7608C18.0218 36.7608 18.5717 33.6277 22.3014 32.386L19.4345 21.627L19.1868 21.7022C15.6318 22.661 12.7577 22.4066 11.5585 22.199C9.8585 21.9058 8.9693 21.5323 9.05247 22.8255C9.12488 23.966 9.39654 25.7342 10.0189 28.0698C11.3653 33.1273 15.8149 42.8727 24.2241 40.6078L24.4718 40.53L23.0847 35.3258ZM13.246 28.1393L19.2222 26.5648C19.2222 26.5648 19.048 28.8638 16.8076 29.4544C14.5667 30.0444 13.246 28.1393 13.246 28.1393Z" fill="#D65348"/>
<path d="M33.7469 38.2128L33.5152 38.1565C28.3937 36.6564 27.6038 32.5723 27.6038 32.5723L34.6983 34.5554L38.4544 20.1222L38.4089 20.1103C33.8019 18.8765 30.7454 16.7186 29.5342 15.7044C27.8174 14.2664 27.0623 13.2671 26.3191 14.7786C25.6627 16.1119 24.8224 18.2816 24.0092 21.3191C22.247 27.8965 20.9299 41.7768 31.8236 44.6975L32.0468 44.7479L33.7469 38.2128ZM26.4082 26.175C26.4082 26.175 28.125 23.5049 31.0367 24.3325C33.9503 25.1601 34.1759 28.3813 34.1759 28.3813L26.4082 26.175Z" fill="#1D8D22"/>
<path d="M23.3426 35.2511L21.9849 35.6365C22.3056 37.4447 22.871 39.1801 23.7584 40.7132C23.9129 40.6791 24.0661 40.6498 24.2234 40.6067C24.6357 40.4954 25.0181 40.3577 25.3862 40.2075C24.3946 38.7361 23.7387 37.0414 23.3426 35.2511ZM22.8125 22.515C22.1147 25.1191 21.4905 28.8674 21.6623 32.6271C21.9699 32.4936 22.2948 32.3693 22.6556 32.2669L22.907 32.2107C22.6006 28.1948 23.263 24.1025 24.0092 21.3181C24.1983 20.6138 24.388 19.9586 24.577 19.3477C24.2725 19.5414 23.9446 19.7401 23.5711 19.9448C23.3193 20.7222 23.0649 21.5719 22.8125 22.515Z" fill="#C04B41"/>
</svg>
