<svg xmlns="http://www.w3.org/2000/svg" width="80" height="80" fill="none" viewBox="0 0 80 80"><rect width="80" height="80" fill="#2D3751" rx="10.589"/><path fill="#2D4552" d="M30.2074 43.0253C28.0621 43.6341 26.6546 44.7016 25.7274 45.7683C26.6155 44.9911 27.805 44.2779 29.4096 43.8231C31.0508 43.3579 32.451 43.3612 33.6079 43.5845V42.6798C32.621 42.5896 31.4895 42.6615 30.2074 43.0253ZM25.6294 35.4202L17.6619 37.5192C17.6619 37.5192 17.8071 37.7243 18.076 37.998L24.8314 36.218C24.8314 36.218 24.7357 37.4515 23.9044 38.5549C25.4769 37.3652 25.6294 35.4202 25.6294 35.4202ZM32.2987 54.1451C21.0863 57.165 15.1542 44.171 13.3582 37.4267C12.5285 34.3135 12.1663 31.9557 12.0697 30.4342C12.0593 30.2762 12.0641 30.143 12.0753 30.021C11.4937 30.0561 11.2152 30.3585 11.2719 31.2322C11.3684 32.7529 11.7306 35.1105 12.5604 38.2246C14.3556 44.968 20.2885 57.9619 31.5008 54.942C33.9414 54.2846 35.7749 53.0871 37.1512 51.5584C35.8826 52.7041 34.2948 53.6065 32.2987 54.1451ZM34.4057 27.4678V28.2657H38.8036C38.7134 27.9832 38.6225 27.7287 38.5322 27.4678H34.4057Z"/><path fill="#2D4552" d="M39.7864 34.0397C41.7642 34.6014 42.8103 35.9881 43.3632 37.2153L45.5685 37.8416C45.5685 37.8416 45.2676 33.5467 41.3828 32.4433C37.7486 31.4107 35.5122 34.4626 35.2401 34.8575C36.2973 34.1043 37.8412 33.4876 39.7864 34.0397ZM57.3409 37.2351C53.7033 36.1979 51.4677 39.2561 51.1997 39.6455C52.2577 38.8931 53.8007 38.2763 55.7451 38.8309C57.7198 39.3934 58.765 40.7784 59.3196 42.0064L61.528 42.6351C61.528 42.6351 61.2224 38.3394 57.3409 37.2351ZM55.1499 48.5592L36.8048 43.4305C36.8048 43.4305 37.0034 44.4375 37.7654 45.7412L53.2112 50.0592C54.4828 49.3235 55.1499 48.5592 55.1499 48.5592ZM42.4312 59.5984C27.9054 55.7039 29.6615 37.1961 32.012 28.4259C32.9798 24.8117 33.9747 22.1253 34.7998 20.3245C34.3075 20.2232 33.8998 20.4825 33.4969 21.3019C32.6208 23.0787 31.5005 25.9718 30.4164 30.0217C28.0666 38.7917 26.3105 57.2989 40.8356 61.1933C47.682 63.0275 53.0156 60.2399 56.9914 55.8619C53.2175 59.2801 48.3992 61.1965 42.4312 59.5984Z"/><path fill="#E2574C" d="M34.4058 49.8085V46.0737L24.0289 49.0162C24.0289 49.0162 24.7957 44.561 30.2075 43.0258C31.8487 42.5606 33.249 42.5638 34.4058 42.7872V27.4683H39.6015C39.0358 25.7202 38.4885 24.3743 38.0289 23.4392C37.2685 21.8913 36.489 22.9174 34.7195 24.3975C33.4731 25.4387 30.3232 27.6599 25.5832 28.9372C20.8431 30.2153 17.0109 29.8764 15.412 29.5995C13.1453 29.2084 11.9597 28.7106 12.0706 30.4348C12.1671 31.9554 12.5294 34.3132 13.3591 37.4272C15.1543 44.1707 21.0872 57.1647 32.2996 54.1448C35.2284 53.3556 37.2957 51.7958 38.7286 49.8076H34.4058V49.8085ZM17.6612 37.5198L25.6295 35.4207C25.6295 35.4207 25.3972 38.4861 22.4101 39.2735C19.4221 40.0602 17.6612 37.5198 17.6612 37.5198Z"/><path fill="#2EAD33" d="M64.3939 27.645C62.3227 28.0081 57.3535 28.4604 51.2125 26.8144C45.0698 25.1693 40.9942 22.2922 39.3795 20.9398C37.0905 19.0225 36.0835 17.6901 35.0926 19.7055C34.2166 21.4831 33.0963 24.3762 32.0119 28.4261C29.6623 37.1961 27.9062 55.7033 42.4312 59.5977C56.9531 63.4889 64.6843 46.5822 67.0341 37.8113C68.1184 33.7622 68.5939 30.696 68.7247 28.719C68.8739 26.4794 67.3356 27.1295 64.3939 27.645ZM35.2107 34.9008C35.2107 34.9008 37.4997 31.3406 41.382 32.4441C45.2668 33.5476 45.5676 37.8424 45.5676 37.8424L35.2107 34.9008ZM44.6876 50.8763C37.8588 48.876 36.8056 43.4306 36.8056 43.4306L55.1499 48.5593C55.1499 48.5585 51.4471 52.8517 44.6876 50.8763ZM51.1734 39.6854C51.1734 39.6854 53.4592 36.1278 57.3409 37.2344C61.2223 38.3396 61.528 42.6344 61.528 42.6344L51.1734 39.6854Z"/><path fill="#D65348" d="M30.7794 47.1022L24.0287 49.0154C24.0287 49.0154 24.762 44.8379 29.735 43.1824L25.9125 28.8369L25.5822 28.9373C20.8421 30.2156 17.01 29.8765 15.4111 29.5996C13.1444 29.2087 11.9587 28.7107 12.0696 30.435C12.1662 31.9557 12.5284 34.3133 13.3582 37.4275C15.1534 44.1708 21.0862 57.1648 32.2986 54.1449L32.6289 54.0411L30.7794 47.1022ZM17.661 37.52L25.6293 35.4208C25.6293 35.4208 25.397 38.4861 22.4099 39.2736C19.4219 40.0603 17.661 37.52 17.661 37.52Z"/><path fill="#1D8D22" d="M44.9956 50.9513L44.6867 50.8762C37.858 48.876 36.8048 43.4306 36.8048 43.4306L46.2642 46.0747L51.2723 26.8304L51.2117 26.8144C45.069 25.1693 40.9936 22.2922 39.3786 20.9398C37.0896 19.0225 36.0827 17.6901 35.0918 19.7055C34.2166 21.4831 33.0963 24.3762 32.0119 28.4261C29.6623 37.1961 27.9062 55.7033 42.4312 59.5976L42.7289 59.6647L44.9956 50.9513ZM35.2107 34.9008C35.2107 34.9008 37.4997 31.3406 41.382 32.4441C45.2668 33.5476 45.5676 37.8424 45.5676 37.8424L35.2107 34.9008Z"/><path fill="#C04B41" d="M31.1235 47.0036L29.3132 47.5173C29.7409 49.9284 30.4947 52.2422 31.6779 54.2863C31.8839 54.2409 32.0882 54.2018 32.2979 54.1443C32.8477 53.996 33.3574 53.8124 33.8482 53.6121C32.5262 51.6502 31.6516 49.3906 31.1235 47.0036ZM30.4166 30.0219C29.4863 33.4942 28.654 38.4919 28.8831 43.5048C29.2932 43.3269 29.7264 43.161 30.2075 43.0245L30.5427 42.9496C30.1341 37.5951 31.0173 32.1386 32.0122 28.4262C32.2645 27.487 32.5174 26.6134 32.7694 25.7988C32.3634 26.0572 31.9262 26.3221 31.4282 26.595C31.0924 27.6315 30.7533 28.7645 30.4166 30.0219Z"/></svg>