<svg width="161" height="160" viewBox="0 0 161 160" fill="none" xmlns="http://www.w3.org/2000/svg">
<rect x="0.46875" width="160" height="160" rx="20" fill="#2D3751"/>
<path d="M60.8844 86.0508C56.5937 87.2684 53.7788 89.4035 51.9244 91.5368C53.7005 89.9825 56.0796 88.556 59.2888 87.6464C62.5712 86.716 65.3715 86.7227 67.6853 87.1692V85.3598C65.7115 85.1794 63.4486 85.3232 60.8844 86.0508ZM51.7283 70.8406L35.7935 75.0387C35.7935 75.0387 36.0839 75.449 36.6216 75.9964L50.1324 72.4362C50.1324 72.4362 49.9409 74.9032 48.2783 77.1101C51.4233 74.7307 51.7283 70.8406 51.7283 70.8406ZM65.0668 108.29C42.6423 114.33 30.7782 88.3423 27.1862 74.8536C25.5267 68.6274 24.8022 63.9118 24.6091 60.8688C24.5884 60.5528 24.598 60.2864 24.6203 60.0424C23.457 60.1126 22.9001 60.7173 23.0134 62.4647C23.2065 65.5061 23.931 70.2213 25.5905 76.4495C29.1809 89.9362 41.0466 115.924 63.4712 109.884C68.3522 108.569 72.0193 106.174 74.7719 103.117C72.2347 105.408 69.0591 107.213 65.0668 108.29ZM69.2809 54.9359V56.5318H78.0767C77.8962 55.9668 77.7144 55.4577 77.5339 54.9359H69.2809Z" fill="#2D4552"/>
<path d="M80.0424 68.0796C83.9981 69.2031 86.0902 71.9764 87.196 74.4307L91.6065 75.6834C91.6065 75.6834 91.0048 67.0937 83.2353 64.8868C75.9668 62.8217 71.494 68.9254 70.9499 69.7152C73.0643 68.2088 76.152 66.9755 80.0424 68.0796ZM115.151 74.4704C107.876 72.396 103.405 78.5123 102.869 79.2911C104.985 77.7864 108.071 76.5528 111.96 77.6619C115.909 78.787 117.999 81.557 119.109 84.013L123.525 85.2703C123.525 85.2703 122.914 76.679 115.151 74.4704ZM110.769 97.1184L74.0792 86.8612C74.0792 86.8612 74.4764 88.875 76.0005 91.4825L106.892 100.118C109.435 98.6471 110.769 97.1184 110.769 97.1184ZM85.332 119.197C56.2806 111.408 59.7927 74.3925 64.4936 56.8522C66.4292 49.6237 68.419 44.251 70.0692 40.6495C69.0846 40.4468 68.2692 40.9654 67.4634 42.6042C65.7113 46.1578 63.4707 51.9438 61.3024 60.0437C56.6029 77.5836 53.0907 114.598 82.1408 122.387C95.8336 126.055 106.501 120.48 114.452 111.724C106.905 118.56 97.268 122.393 85.332 119.197Z" fill="#2D4552"/>
<path d="M69.2811 99.6157V92.1461L48.5275 98.0311C48.5275 98.0311 50.061 89.1208 60.8846 86.0504C64.167 85.1201 66.9676 85.1264 69.2811 85.5733V54.9356H79.6725C78.541 51.4394 77.4466 48.7476 76.5272 46.8773C75.0065 43.7817 73.4476 45.8338 69.9084 48.7939C67.4158 50.8763 61.116 55.3188 51.6359 57.8734C42.1558 60.4296 34.4916 59.7517 31.2938 59.198C26.7603 58.4158 24.3891 57.4202 24.6109 60.8685C24.804 63.9098 25.5285 68.6254 27.188 74.8533C30.7783 88.3403 42.644 114.328 65.0687 108.288C70.9263 106.71 75.0608 103.59 77.9267 99.614H69.2811V99.6157ZM35.7921 75.0384L51.7285 70.8403C51.7285 70.8403 51.264 76.971 45.2897 78.5459C39.3138 80.1192 35.7921 75.0384 35.7921 75.0384Z" fill="#E2574C"/>
<path d="M129.257 55.2901C125.115 56.0163 115.177 56.921 102.895 53.6289C90.6092 50.3388 82.4581 44.5845 79.2286 41.8798C74.6506 38.0453 72.6368 35.3805 70.6549 39.4113C68.9028 42.9665 66.6623 48.7525 64.4936 56.8524C59.7944 74.3923 56.2822 111.406 85.332 119.195C114.376 126.978 129.838 93.1643 134.537 75.6227C136.706 67.5245 137.657 61.3921 137.919 57.4381C138.217 52.959 135.14 54.2592 129.257 55.2901ZM70.891 69.8017C70.891 69.8017 75.469 62.6814 83.2336 64.8883C91.0031 67.0953 91.6048 75.6849 91.6048 75.6849L70.891 69.8017ZM89.8447 101.753C76.1872 97.752 74.0809 86.8611 74.0809 86.8611L110.769 97.1187C110.769 97.117 103.364 105.703 89.8447 101.753ZM102.816 79.3709C102.816 79.3709 107.388 72.2557 115.151 74.4689C122.914 76.6792 123.525 85.2689 123.525 85.2689L102.816 79.3709Z" fill="#2EAD33"/>
<path d="M62.0283 94.2033L48.5271 98.0298C48.5271 98.0298 49.9937 89.6749 59.9396 86.3638L52.2945 57.673L51.6339 57.8738C42.1538 60.4303 34.4896 59.752 31.2918 59.1983C26.7584 58.4165 24.3872 57.4206 24.609 60.8692C24.8021 63.9105 25.5265 68.6257 27.1861 74.854C30.7764 88.3406 42.6421 114.328 65.0666 108.289L65.7273 108.081L62.0283 94.2033ZM35.7917 75.0391L51.7281 70.8407C51.7281 70.8407 51.2637 76.9713 45.2894 78.5463C39.3135 80.1196 35.7917 75.0391 35.7917 75.0391Z" fill="#D65348"/>
<path d="M90.4607 101.902L89.8431 101.752C76.1856 97.752 74.0792 86.8611 74.0792 86.8611L92.998 92.1494L103.014 53.6609L102.893 53.6289C90.6076 50.3388 82.4568 44.5845 79.2269 41.8798C74.6489 38.0453 72.6351 35.3805 70.6532 39.4113C68.9028 42.9665 66.6623 48.7525 64.4936 56.8524C59.7944 74.3923 56.2822 111.406 85.332 119.195L85.9273 119.329L90.4607 101.902ZM70.891 69.8017C70.891 69.8017 75.469 62.6814 83.2336 64.8883C91.0031 67.0953 91.6048 75.6849 91.6048 75.6849L70.891 69.8017Z" fill="#1D8D22"/>
<path d="M62.7168 94.0067L59.096 95.0342C59.9514 99.8563 61.4591 104.484 63.8256 108.572C64.2374 108.481 64.646 108.403 65.0655 108.288C66.165 107.991 67.1846 107.624 68.1662 107.224C65.522 103.3 63.7729 98.7808 62.7168 94.0067ZM61.303 60.0436C59.4423 66.988 57.7778 76.9835 58.236 87.0093C59.0561 86.6533 59.9225 86.3217 60.8848 86.0486L61.555 85.8988C60.7379 75.1898 62.5043 64.277 64.4942 56.852C64.9986 54.9737 65.5044 53.2266 66.0085 51.5974C65.1964 52.1142 64.322 52.6439 63.3261 53.1897C62.6545 55.2628 61.9762 57.5286 61.303 60.0436Z" fill="#C04B41"/>
</svg>
