<svg xmlns="http://www.w3.org/2000/svg" width="160" height="160" fill="none" viewBox="0 0 160 160"><rect width="160" height="160" fill="#2D3751" rx="20"/><path fill="#2D4552" d="M60.4156 86.0508C56.1249 87.2684 53.31 89.4035 51.4557 91.5368C53.2318 89.9825 55.6108 88.556 58.82 87.6464C62.1024 86.716 64.9027 86.7227 67.2166 87.1692V85.3598C65.2427 85.1794 62.9798 85.3232 60.4156 86.0508ZM51.2596 70.8406L35.3247 75.0387C35.3247 75.0387 35.6151 75.449 36.1529 75.9964L49.6636 72.4362C49.6636 72.4362 49.4722 74.9032 47.8096 77.1101C50.9546 74.7307 51.2596 70.8406 51.2596 70.8406ZM64.5981 108.29C42.1735 114.33 30.3094 88.3423 26.7174 74.8536C25.0579 68.6274 24.3335 63.9118 24.1404 60.8688C24.1196 60.5528 24.1292 60.2864 24.1516 60.0424C22.9883 60.1126 22.4314 60.7173 22.5447 62.4647C22.7378 65.5061 23.4622 70.2213 25.1217 76.4495C28.7121 89.9362 40.5778 115.924 63.0025 109.884C67.8835 108.569 71.5505 106.174 74.3032 103.117C71.7659 105.408 68.5904 107.213 64.5981 108.29ZM68.8122 54.9359V56.5318H77.6079C77.4275 55.9668 77.2457 55.4577 77.0652 54.9359H68.8122Z"/><path fill="#2D4552" d="M79.5736 68.0796C83.5293 69.2031 85.6214 71.9764 86.7272 74.4307L91.1377 75.6834C91.1377 75.6834 90.5361 67.0937 82.7665 64.8868C75.4981 62.8217 71.0253 68.9254 70.4812 69.7152C72.5956 68.2088 75.6832 66.9755 79.5736 68.0796ZM114.682 74.4704C107.407 72.396 102.936 78.5123 102.4 79.2911C104.516 77.7864 107.602 76.5528 111.491 77.6619C115.44 78.787 117.531 81.557 118.64 84.013L123.057 85.2703C123.057 85.2703 122.445 76.679 114.682 74.4704ZM110.301 97.1184L73.6105 86.8612C73.6105 86.8612 74.0077 88.875 75.5317 91.4825L106.423 100.118C108.966 98.6471 110.301 97.1184 110.301 97.1184ZM84.8632 119.197C55.8118 111.408 59.324 74.3925 64.0249 56.8522C65.9604 49.6237 67.9503 44.251 69.6005 40.6495C68.6159 40.4468 67.8004 40.9654 66.9947 42.6042C65.2426 46.1578 63.002 51.9438 60.8337 60.0437C56.1341 77.5836 52.6219 114.598 81.672 122.387C95.3648 126.055 106.032 120.48 113.984 111.724C106.436 118.56 96.7993 122.393 84.8632 119.197Z"/><path fill="#E2574C" d="M68.8119 99.6157V92.1462L48.0582 98.0311C48.0582 98.0311 49.5918 89.1208 60.4153 86.0505C63.6978 85.1202 66.4984 85.1265 68.8119 85.5733V54.9356H79.2032C78.0718 51.4394 76.9773 48.7477 76.058 46.8774C74.5373 43.7818 72.9783 45.8339 69.4392 48.794C66.9466 50.8764 60.6467 55.3189 51.1667 57.8735C41.6865 60.4297 34.0223 59.7517 30.8245 59.198C26.2911 58.4159 23.9199 57.4203 24.1417 60.8685C24.3348 63.9099 25.0592 68.6254 26.7188 74.8533C30.3091 88.3403 42.1748 114.328 64.5994 108.288C70.4571 106.71 74.5916 103.59 77.4575 99.6141H68.8119V99.6157ZM35.3229 75.0385L51.2593 70.8404C51.2593 70.8404 50.7948 76.971 44.8205 78.546C38.8446 80.1193 35.3229 75.0385 35.3229 75.0385Z"/><path fill="#2EAD33" d="M128.788 55.2901C124.646 56.0163 114.708 56.921 102.426 53.6289C90.1405 50.3388 81.9893 44.5845 78.7598 41.8798C74.1818 38.0453 72.168 35.3805 70.1862 39.4113C68.4341 42.9665 66.1935 48.7525 64.0249 56.8524C59.3256 74.3923 55.8135 111.406 84.8632 119.195C113.907 126.978 129.369 93.1643 134.069 75.6227C136.237 67.5245 137.188 61.3921 137.45 57.4381C137.748 52.959 134.672 54.2592 128.788 55.2901ZM70.4222 69.8017C70.4222 69.8017 75.0003 62.6814 82.7648 64.8883C90.5344 67.0953 91.1361 75.6849 91.1361 75.6849L70.4222 69.8017ZM89.376 101.753C75.7185 97.752 73.6121 86.8611 73.6121 86.8611L110.301 97.1187C110.301 97.117 102.895 105.703 89.376 101.753ZM102.348 79.3709C102.348 79.3709 106.919 72.2557 114.682 74.4689C122.445 76.6792 123.057 85.2689 123.057 85.2689L102.348 79.3709Z"/><path fill="#D65348" d="M61.56 94.2033L48.0588 98.0298C48.0588 98.0298 49.5254 89.6749 59.4713 86.3638L51.8263 57.673L51.1657 57.8738C41.6856 60.4303 34.0214 59.752 30.8236 59.1983C26.2902 58.4165 23.9189 57.4206 24.1407 60.8692C24.3338 63.9105 25.0583 68.6257 26.7178 74.854C30.3082 88.3406 42.1739 114.328 64.5984 108.289L65.259 108.081L61.56 94.2033ZM35.3235 75.0391L51.2599 70.8407C51.2599 70.8407 50.7954 76.9713 44.8211 78.5463C38.8452 80.1196 35.3235 75.0391 35.3235 75.0391Z"/><path fill="#1D8D22" d="M89.992 101.902L89.3743 101.752C75.7168 97.752 73.6104 86.8611 73.6104 86.8611L92.5292 92.1494L102.545 53.6609L102.424 53.6289C90.1388 50.3388 81.988 44.5845 78.7582 41.8798C74.1802 38.0453 72.1663 35.3805 70.1845 39.4113C68.4341 42.9665 66.1935 48.7525 64.0249 56.8524C59.3256 74.3923 55.8135 111.406 84.8632 119.195L85.4586 119.329L89.992 101.902ZM70.4222 69.8017C70.4222 69.8017 75.0003 62.6814 82.7648 64.8883C90.5344 67.0953 91.1361 75.6849 91.1361 75.6849L70.4222 69.8017Z"/><path fill="#C04B41" d="M62.2475 94.0066L58.6268 95.0341C59.4822 99.8562 60.9899 104.484 63.3563 108.572C63.7682 108.481 64.1768 108.403 64.5963 108.288C65.6958 107.991 66.7153 107.624 67.6969 107.224C65.0528 103.3 63.3037 98.7807 62.2475 94.0066ZM60.8337 60.0435C58.9731 66.988 57.3086 76.9834 57.7667 87.0092C58.5868 86.6533 59.4532 86.3216 60.4155 86.0486L61.0858 85.8987C60.2687 75.1897 62.0351 64.2769 64.0249 56.852C64.5294 54.9737 65.0352 53.2266 65.5393 51.5974C64.7272 52.1141 63.8528 52.6439 62.8569 53.1896C62.1853 55.2627 61.507 57.5286 60.8337 60.0435Z"/></svg>