<svg width="161" height="160" viewBox="0 0 161 160" fill="none" xmlns="http://www.w3.org/2000/svg">
<rect x="0.09375" width="160" height="160" rx="20" fill="#262524"/>
<path fill-rule="evenodd" clip-rule="evenodd" d="M43.5818 70.32C43.7427 70.4414 44.0221 70.5204 43.7428 70.7602C43.5424 71.0395 43.3025 71.2793 43.1432 71.5996C42.9838 71.8804 42.8639 71.9594 42.624 71.7605C42.9428 71.2399 43.2616 70.7587 43.5803 70.3185L43.5818 70.32ZM123.874 112.241C123.874 112.36 123.913 112.438 123.913 112.56C123.993 112.4 123.993 112.32 124.034 112.241H123.874ZM123.874 112.599V112.56V112.599ZM115.725 128.199L108.773 89.6404C108.655 89.6025 108.495 89.5235 108.214 89.4431C108.295 89.6025 108.336 89.7224 108.375 89.8423C108.573 89.8028 108.655 89.8028 108.734 89.7634C108.734 89.7239 108.734 89.6844 108.775 89.6419L115.727 128.204L115.725 128.199ZM108.535 80.9608C108.495 81.0792 108.495 81.2006 108.495 81.3205C108.495 81.1991 108.495 81.0777 108.538 80.9593L108.535 80.9608ZM108.574 81.7592C108.535 81.7592 108.535 81.7592 108.495 81.7167V81.7562C108.538 81.7957 108.538 81.7957 108.577 81.7562L108.574 81.7592ZM108.495 82.078V81.7972C108.378 81.8366 108.258 81.8366 108.098 81.8776C108.298 81.9535 108.498 81.996 108.498 82.075L108.495 82.078Z" fill="#DD3735"/>
<path fill-rule="evenodd" clip-rule="evenodd" d="M139.612 72.3601C139.533 70.7997 139.493 69.2392 139.332 67.6803C139.053 65.5597 138.774 63.3997 138.294 61.3201C137.934 59.6003 137.338 57.9594 136.737 56.32C135.978 54.3998 135.219 52.4401 134.259 50.6004C132.702 47.6404 130.665 44.9991 128.787 42.2395C127.545 40.4787 125.949 39.0397 124.749 37.2394C124.071 36.1996 123.072 35.3207 122.073 34.5223C120.475 33.2396 118.798 32.0784 117.12 30.9597C115.854 30.072 114.547 29.2443 113.204 28.4793C112.126 27.8767 110.968 27.397 109.849 26.8764C108.571 26.2768 107.332 25.5558 105.895 25.2765C105.534 25.2006 105.215 25.0791 104.855 24.9577C103.937 24.6389 103.058 24.2792 102.138 23.9984C100.742 23.5582 99.383 23.039 97.944 22.6778C96.5505 22.318 95.1115 22.0797 93.6725 21.8778C92.0756 21.6425 90.4393 21.559 88.8394 21.4027C87.8181 21.2707 86.7923 21.1776 85.764 21.1234C84.2461 21.0444 82.6886 21.0444 81.1707 21.005C80.4117 20.964 79.6133 20.8835 78.8543 20.9245C77.6961 20.964 76.5379 21.0839 75.3782 21.2433C74.261 21.3647 73.1423 21.5621 72.0645 21.7245C70.7485 21.8839 69.4309 21.9643 68.1118 22.1252C66.8732 22.2861 65.5951 22.526 64.3579 22.7263C63.9177 22.8068 63.4775 22.9662 63.0373 23.0451C62.081 23.2455 61.0822 23.3259 60.1229 23.6462C58.4076 24.1684 56.6878 24.7695 55.0104 25.407C53.4515 26.0476 51.9335 26.7276 50.4566 27.5276C48.9386 28.3655 47.4996 29.3643 46.0621 30.3267C44.6814 31.2506 43.3346 32.2243 42.0244 33.2457C40.7493 34.2475 39.5501 35.3663 38.3904 36.4865C37.7529 37.124 37.2322 37.886 36.6327 38.6056C35.6354 39.7668 34.6366 40.8855 33.6772 42.0862C32.8818 43.088 32.1593 44.1263 31.4003 45.1676C30.0448 47.0043 28.8866 48.9655 27.8088 50.9267C27.3686 51.7267 26.9694 52.5266 26.5702 53.3251C25.9706 54.5243 25.3316 55.6855 24.7729 56.9256C24.3722 57.7666 24.0534 58.6865 23.8136 59.6063C23.2565 61.5675 22.6964 63.5682 22.1773 65.5263C21.6976 67.2871 21.5777 69.1269 21.5397 70.9272C21.4987 72.5271 21.6581 74.0875 21.8175 75.6875C21.8585 76.0882 21.6202 76.5679 22.0968 76.8866C21.9374 77.3268 22.0573 77.5697 22.2941 77.6456C22.0179 78.0858 22.4156 78.3681 22.2577 78.7689C22.2167 78.8478 22.3791 79.0072 22.455 79.1271C22.455 79.2486 22.4171 79.4079 22.455 79.5279C22.4975 79.8876 22.6569 80.2474 22.6569 80.6481C22.6569 80.9274 22.8952 81.2477 22.9757 81.5285C23.0152 81.6469 22.9757 81.8473 22.8952 81.9277C22.6554 82.207 22.6949 82.4469 23.0546 82.6078C23.2565 83.1269 23.1761 83.3667 23.1366 83.6096C23.2155 83.9678 23.0956 84.0878 23.1366 84.1682C23.4554 84.8088 23.5768 85.5283 23.6148 86.2478C23.6148 86.4087 23.6952 86.5696 23.7757 86.7685C23.8151 86.7685 23.7757 87.5274 23.7757 87.5274C23.973 87.409 24.1354 87.3696 24.3343 87.2891C24.4557 87.8082 24.5741 88.291 24.7335 88.7312C24.9338 89.0499 24.9338 89.2078 24.8549 89.2473C25.0143 89.9668 25.0932 90.6468 25.371 91.3268C25.371 90.5679 25.2951 89.8089 25.1737 89.0879C25.7323 89.2882 26.212 89.4871 26.5322 89.4871C26.5732 89.3657 26.6127 89.2078 26.6537 89.1273C26.4138 88.889 26.2135 88.5293 25.9736 88.2894C26.0541 88.6082 25.9736 88.7296 25.9736 88.8511C25.8143 88.7691 25.6139 88.6887 25.415 88.6082C25.5744 88.4109 25.7338 88.209 25.9736 87.9707C25.9736 87.6094 25.7763 87.2876 25.2147 87.3286C25.4545 87.2496 25.6943 87.1312 25.9736 87.0493C26.4138 86.811 25.9342 86.3708 25.9342 85.8106C25.9736 85.1321 25.5744 84.4521 25.4545 83.731C25.2541 82.6123 25.2951 80.932 25.1752 79.8117C24.9354 79.6113 24.735 80.1305 24.6955 80.1715C24.817 81.1308 24.9354 82.0901 25.0143 83.051C24.776 82.251 24.6151 81.3706 24.4162 80.4098C24.3752 80.6906 24.3358 80.8105 24.3358 80.9714C24.1384 81.1688 24.2963 81.4116 24.4162 81.6909C24.1369 81.5695 23.8166 81.612 23.8166 81.612V82.7322C23.4189 82.3315 23.3005 82.0127 23.0987 81.7304C23.0197 81.4116 22.9772 81.0929 22.9013 80.7741C22.9772 80.5722 22.9013 80.4523 22.9013 80.3339C22.8544 80.0139 22.8139 79.6931 22.7799 79.3715C22.8194 79.332 22.7404 78.734 22.7404 78.734C23.0592 78.7719 23.2611 78.8099 23.4599 78.8099C23.0607 78.2938 23.3385 77.972 23.5009 77.6517C23.5814 77.4908 23.8607 77.4543 23.9411 77.2904C24.2599 76.6908 24.7805 76.2127 24.7805 75.4507C24.7805 75.0909 24.902 74.6917 24.9399 74.3304C25.0204 73.6504 25.0993 72.9703 25.1373 72.2903C25.2192 71.4099 25.1373 70.5295 25.3391 69.69C25.6609 68.2935 26.0602 66.8925 26.4989 65.4914C26.8176 64.4896 27.1789 63.5333 27.5766 62.5314C28.1762 60.971 28.7363 59.4105 29.4953 57.932C30.573 55.7705 31.8117 53.6909 33.0108 51.5718C33.7698 50.2512 34.5682 49.0111 35.4092 47.7314C36.2061 46.4913 37.003 45.2117 37.9244 44.0504C39.1893 42.4125 40.6074 40.8988 42.1595 39.53C43.7579 38.091 45.2758 36.611 46.9926 35.2904C49.2246 33.5658 51.6026 32.0391 54.0997 30.7274C56.1383 29.6497 58.2543 28.8057 60.3718 28.0057C61.7304 27.4866 63.2073 27.2468 64.6069 26.8066C66.2038 26.2859 67.8021 26.0476 69.4795 26.0066C70.5572 25.9656 71.597 25.8457 72.6748 25.7258C73.6341 25.6499 74.5919 25.5679 75.6317 25.448C75.5103 25.6074 75.4708 25.6878 75.4313 25.7668C74.9942 26.4073 74.5145 27.0479 74.0743 27.687C73.7145 28.2076 73.3153 28.7678 72.9556 29.2869C72.315 30.1293 71.635 30.9688 71.0369 31.8492C70.1185 33.1698 69.2791 34.5299 68.3198 35.849C67.3635 37.1286 66.3237 38.3293 65.3249 39.5679C64.0073 41.2893 62.7686 43.0486 61.4511 44.7684C60.2519 46.4078 58.9768 47.9713 57.8171 49.6107C56.7788 51.0482 55.859 52.5707 54.8601 54.0476C53.3832 56.2486 51.9047 58.4072 50.4277 60.6082C49.2682 62.2835 48.0964 63.9503 46.9122 65.6083C46.8317 65.7297 46.7118 65.7662 46.5934 65.8466C46.2746 66.3657 46.2746 66.6466 46.1532 66.8864C45.8344 67.486 45.5157 68.0856 45.1544 68.6472C44.954 68.966 44.6747 69.2453 44.4349 69.5656C44.3954 69.0859 45.0724 68.8461 44.7537 68.245C44.5563 68.5668 44.3544 68.8461 44.1556 69.1664L43.6759 70.1227C43.8353 70.2441 44.1161 70.3246 43.8353 70.5629C43.7139 70.7648 43.5955 71.0031 43.4756 71.205C43.6485 71.1033 43.7984 70.9668 43.9158 70.8042C43.9158 71.2444 43.6759 71.6027 43.4756 71.9624C43.3162 72.2812 42.917 72.5241 42.6376 72.7624C42.6771 72.8034 42.9564 72.9233 42.9974 72.9627C43.3572 72.8413 43.4771 72.644 43.5181 72.7624C43.6395 72.603 43.7579 72.4831 43.7974 72.3632C43.9552 71.9624 44.1951 71.6436 44.5943 71.4827C44.7552 71.4023 44.8736 71.2824 44.9935 71.164C46.1927 69.9223 47.4313 68.7231 48.5091 67.4025C50.1879 65.3609 51.7059 63.2433 53.3058 61.1637C53.9828 60.2833 54.7827 59.4029 55.5007 58.562C55.6191 59.4819 55.5402 60.3608 55.5007 61.2032C55.3793 62.6817 55.3003 64.1632 55.182 65.6812C55.141 66.2807 55.1819 66.8803 55.141 67.4814C55.141 67.6408 55.0195 67.7607 55.0195 67.9216C55.0195 68.3209 55.141 68.7611 55.141 69.1618C55.0195 70.6418 54.8586 72.0808 54.7387 73.5608C54.6977 73.8796 54.8571 74.2014 54.936 74.4822C54.7387 76.6407 55.1789 78.9222 54.8176 81.2021C55.0969 80.7619 55.1774 80.4826 55.1774 80.2033C55.2153 79.9635 55.1774 79.7237 55.1774 79.4444V79.0436C55.2153 78.3226 55.3747 77.5636 55.2958 76.8426C55.2153 76.0426 55.2153 75.2837 55.3762 74.5232C55.4567 74.2044 55.3368 73.8037 55.5371 73.4029V74.0025C55.4977 76.2795 55.5781 78.5609 55.2594 80.8409C55.2184 81.0412 55.3808 81.4025 54.9406 81.3615C54.5793 82.081 55.0195 82.6017 54.6218 83.0009C54.5399 83.0814 54.6977 83.4411 54.7387 83.681C54.5778 84.1621 54.5778 84.1621 54.8176 84.2016C54.8571 85.082 54.9391 85.8805 54.977 86.7214C55.6146 85.2035 55.2958 83.64 55.5781 82.0795C55.6176 82.7201 55.6586 83.3607 55.6176 84.0377C55.6176 85.0805 55.5781 86.0793 55.5387 87.1191C55.5387 87.3195 55.4977 87.5198 55.4582 87.7202C55.3368 88.2818 55.2988 88.8405 55.0985 89.3596C54.9391 89.7603 55.0195 90.3614 55.0195 90.8396V92.3621C55.1789 93.0421 54.9785 93.4019 55.0985 93.8011C54.977 94.2034 54.9391 94.3233 54.977 94.4432L55.0985 95.0428C55.8984 94.9623 55.5387 95.5634 55.8574 95.8822C55.6176 96.204 55.6981 96.3224 55.6981 96.4848C55.6981 96.8446 55.6601 97.1649 55.6191 97.5246C55.6191 98.4445 55.5797 99.3644 55.5797 100.245C55.5797 100.366 55.6191 100.483 55.6191 100.603C55.6191 100.685 55.5797 101.726 55.5797 101.726C55.6601 101.845 55.5797 101.965 55.4582 102.085C55.4203 102.085 55.3003 97.004 55.3003 97.004H54.7008C54.6218 99.4023 54.8222 101.562 54.382 103.804C53.9023 103.842 53.7445 103.923 53.2223 103.923C51.9836 103.923 50.745 103.923 49.5064 103.962C48.0279 103.962 46.5919 104.002 45.1119 104.002C44.3954 104.002 43.6365 104.084 42.917 104.084C41.9576 104.084 40.9588 103.962 40.0025 103.962C38.5225 103.962 37.085 104.084 35.6065 104.123C34.5288 104.163 33.451 104.163 32.3733 104.204C31.6523 104.242 30.9313 104.279 30.2148 104.361C29.896 104.401 29.6152 104.521 29.216 104.641C29.0945 104.641 28.8168 104.601 28.5784 104.641C28.1762 104.721 27.8195 104.96 27.4172 105.041C26.8176 105.163 26.6582 105.321 26.7372 105.922V106.321C26.6977 106.4 27.6176 106.2 27.6176 106.2C27.5356 106.2 27.4961 106.44 27.3747 106.64C27.6965 106.518 27.8954 106.44 28.0957 106.361C28.6953 106.641 29.2145 106.482 29.6926 106.603C31.25 107.001 32.8469 107.165 34.4438 107.321C35.4836 107.402 36.4824 107.443 37.5207 107.481C38.9976 107.561 40.4761 107.642 41.9531 107.642C43.1917 107.642 44.3909 107.52 45.6265 107.52C47.3418 107.52 49.0631 107.599 50.7799 107.642C51.1397 107.642 51.5389 107.599 51.9381 107.599H54.8526C57.4513 107.52 60.047 107.478 62.6442 107.402C64.1242 107.359 65.6421 107.28 67.1191 107.239L71.6729 107.118C73.4307 107.079 75.1885 107.079 76.9068 107.042C78.2244 107.042 79.5025 106.997 80.8231 106.959C82.2985 106.919 83.8165 106.799 85.295 106.72C86.0949 106.679 86.8949 106.599 87.6933 106.52C88.6527 106.441 89.6515 106.323 90.6078 106.282C92.0468 106.2 93.5253 106.16 94.9643 106.08C96.7615 105.961 98.5588 105.802 100.395 105.761C102.074 105.682 103.791 105.722 105.47 105.682C106.948 105.641 108.427 105.561 109.945 105.521L112.465 105.4C112.465 105.4 114.14 105.36 114.98 105.278C116.417 105.199 117.855 105.04 119.294 105.001C120.211 104.96 121.131 105.001 122.049 104.96C123.526 104.92 125.044 104.838 126.522 104.838C127.079 104.838 127.679 104.92 128.399 104.96C128.08 105.24 127.879 105.4 127.64 105.6C127.799 105.64 127.958 105.722 128.119 105.8C127.933 105.932 127.71 106.001 127.482 105.998C127.4 106.2 127.319 106.28 127.239 106.681H127.958C127.679 106.681 127.439 107.041 127.16 107.28C126.841 107.198 126.56 107.28 126.401 107.721C126.68 107.879 126.641 107.998 126.601 108.161C126.122 108.319 125.762 108.48 125.964 108.999C125.801 109.078 125.602 109.158 125.402 109.278C125.205 109.597 124.843 109.677 124.922 110.117C125.083 110.155 125.241 110.239 125.363 110.275C125.162 110.356 124.963 110.476 124.763 110.555C124.045 110.995 124.365 111.195 124.525 111.396C124.403 111.476 124.285 111.555 124.165 111.596C124.244 111.956 124.362 112.036 124.403 112.036C124.199 112.191 123.999 112.351 123.804 112.516C123.682 112.876 123.523 113.035 123.364 113.275C123.204 113.515 123.124 113.836 122.923 114.075C122.085 114.996 121.486 116.078 120.408 116.796C120.007 117.077 119.649 117.437 119.289 117.798C118.57 118.477 117.931 119.237 117.172 119.878C116.168 120.709 115.129 121.496 114.057 122.237C112.741 123.157 111.423 124.077 110.104 124.957C109.385 125.435 108.586 125.795 107.827 126.235C107.068 126.675 106.349 127.076 105.59 127.515C105.11 127.833 104.67 128.274 104.151 128.517C102.833 129.078 101.434 129.556 100.077 130.077C98.7561 130.639 97.7998 131.117 96.801 131.477C95.8826 131.795 94.9233 132.038 93.9655 132.235C93.6467 132.317 93.2854 132.235 92.9257 132.276C92.2456 132.398 91.5671 132.559 90.8871 132.638C89.1293 132.878 87.3715 133.038 85.6152 133.278C84.5754 133.4 83.5766 133.597 82.5384 133.719C81.8204 133.758 81.0614 133.679 80.3419 133.679C79.8228 133.679 79.2642 133.8 78.7435 133.72C77.9056 133.599 77.0662 133.401 76.2267 133.24C76.0294 133.201 75.7471 133.119 75.5892 133.201C75.2704 133.362 74.9881 133.122 74.6678 133.201C74.4705 133.242 74.2701 133.079 74.0698 133.079C73.9088 133.042 73.7085 133.122 73.5081 133.079C73.0679 132.961 72.6702 132.802 72.1875 132.841C71.7124 132.881 71.2312 132.641 70.7151 132.522C69.9941 132.361 69.3186 132.204 68.596 132.041C68.3168 131.954 68.0492 131.833 67.7991 131.681C66.7593 131.681 66.0793 131.642 65.4402 131.401C64.8816 131.203 64.3625 130.922 63.7629 131.003C63.605 131.042 63.4851 130.963 63.3227 130.963C63.2013 130.803 63.0844 130.482 62.966 130.482C62.1675 130.523 61.6879 129.845 61.0078 129.643C60.6496 129.521 60.3703 129.122 60.0105 129.002C59.1301 128.642 58.4137 127.884 57.4148 127.764C57.0961 127.723 56.7773 127.563 56.416 127.445C56.5375 127.603 56.6134 127.723 56.7348 127.843C55.5766 127.281 54.4989 126.643 53.4196 126.042C53.2617 126.003 53.1418 125.845 53.0219 125.763L51.9442 125.043C51.3446 125.165 51.1047 124.922 50.9423 124.843C49.8646 124.084 48.6275 123.603 47.5877 122.763C47.1475 122.402 46.6314 122.162 46.3126 121.722C45.751 121.042 45.0724 120.562 44.3135 120.163C43.7154 119.844 43.1568 119.483 42.5982 119.123C42.3174 118.923 42.0365 118.683 42.0365 118.243C42.0365 117.962 41.9181 117.681 41.5584 117.842C41.399 117.602 41.2396 117.323 41.0393 117.243C40.5596 117.045 40.2408 116.681 39.8811 116.362C39.5213 116.044 39.2435 115.603 38.8033 115.444C38.0034 115.125 37.5237 114.445 37.0455 113.885C35.9253 112.564 34.9265 111.122 33.8882 109.726C33.8078 109.604 33.6484 109.524 33.5285 109.404C33.6878 109.844 33.8882 110.204 34.0871 110.603C33.6894 110.444 33.4101 110.163 33.1702 109.884C33.1292 109.925 35.9253 114.524 35.9253 114.524C36.1682 114.884 36.3655 115.245 36.6053 115.605C36.3647 115.627 36.1228 115.578 35.9096 115.465C35.6964 115.351 35.5214 115.177 35.4062 114.964C35.0479 114.327 34.6472 113.926 33.8487 114.008C33.764 113.719 33.6981 113.425 33.6514 113.128C33.489 113.128 33.3706 113.128 33.0898 113.087C33.6514 113.967 34.1296 114.726 34.6487 115.606C34.4468 115.485 34.3299 115.406 34.2464 115.367C34.9644 116.126 35.4836 117.086 36.4019 117.568C36.6023 118.486 37.6406 118.926 37.8804 119.807C37.6831 119.766 37.5191 119.726 37.3188 119.685C37 119.286 36.6402 118.887 36.282 118.446C36.3609 118.726 36.4793 118.966 36.6402 119.166C37.1199 119.766 37.5601 120.365 38.1187 120.886C38.3191 121.089 38.5984 121.17 38.5984 121.529C38.9172 121.689 39.0386 121.727 39.157 121.727C39.239 121.97 39.1191 122.329 39.5972 122.249C39.916 122.849 40.2347 122.849 40.6749 122.65C41.1956 123.17 41.4764 123.211 41.8347 122.893C41.8347 123.09 41.8741 123.29 41.8741 123.451C42.0335 123.371 41.9956 123.251 41.9956 123.05C42.1929 123.21 42.3143 123.29 42.3933 123.369C42.7925 123.931 43.1522 124.45 43.7108 124.89C44.4698 125.531 45.1498 126.211 45.8663 126.81C47.2659 127.972 48.8263 128.932 50.3822 129.811C52.3009 130.892 54.1391 132.052 56.0958 133.09C58.4516 134.332 60.9684 135.173 63.564 135.772C64.5234 135.973 65.4417 136.172 66.4026 136.41C67.2375 136.653 68.0784 137.012 68.9178 137.211C70.1959 137.492 71.5135 137.732 72.7916 137.97C73.0694 138.011 73.3533 138.052 73.672 138.092C74.0288 138.172 74.4675 138.011 74.5479 138.133C74.7483 138.451 74.9077 138.291 75.1475 138.251C75.4268 138.171 75.7471 138.171 76.0658 138.171C77.1846 138.21 78.2623 138.45 79.381 138.371C79.6239 138.371 79.9821 138.169 80.1825 138.568C80.5407 138.409 80.7411 138.409 80.9005 138.371C80.943 138.729 80.9005 138.729 80.8246 138.769C80.7426 138.808 80.6227 138.849 80.4633 138.969C81.9008 139.248 83.2594 139.288 84.4555 138.969C86.5351 139.128 88.3324 138.889 90.0507 138.289C90.2101 138.489 90.33 138.769 90.5698 138.369C90.6487 138.248 90.8491 138.207 91.01 138.168C91.3683 138.087 91.8085 137.928 92.1272 138.046C92.4885 138.168 92.6084 137.849 92.8862 137.849C93.3674 137.849 93.8061 137.808 94.2463 137.727C94.4861 137.688 94.726 137.568 95.0053 137.488C94.7318 137.352 94.4301 137.283 94.1248 137.286C94.606 137.046 95.0447 136.845 95.4849 136.648C95.4045 136.767 95.324 136.926 95.1662 136.926H95.7232C95.6018 136.926 95.4424 137.286 95.2436 137.526C96.6795 137.166 97.9971 136.845 99.2768 136.524C98.8365 135.686 99.7549 135.967 100.075 135.485C99.676 135.607 99.2768 135.725 98.876 135.804C100.235 135.126 101.633 134.526 102.99 133.926C102.792 134.166 102.549 134.286 102.193 134.488C102.433 134.526 102.592 134.526 102.712 134.564C103.349 134.766 103.192 134.166 103.39 133.805C104.149 133.805 104.468 133.687 104.828 133.565C105.227 133.444 105.626 133.325 106.027 133.166C106.665 132.887 107.264 132.528 107.903 132.21C108.025 132.167 108.222 132.21 108.383 132.21C108.823 131.927 108.981 131.688 109.101 131.727C109.663 131.807 110.057 131.606 110.218 131.089C110.497 130.888 110.698 130.728 110.897 130.607C111.774 130.127 112.612 129.647 113.492 129.168C113.811 129.168 113.972 129.168 114.051 129.127C114.573 128.884 115.053 128.608 115.531 128.327C115.394 128.27 115.26 128.204 115.132 128.129C115.529 128.047 115.648 128.008 115.891 127.928C116.847 126.804 118.168 126.045 119.165 125.165C119.605 125.125 119.605 125.006 119.605 124.927C119.763 124.726 119.924 124.486 120.121 124.325C121.002 123.525 121.958 122.845 122.758 122.006C123.916 120.843 125.035 119.643 126.073 118.402C127.029 117.282 127.992 116.163 128.79 114.923C129.909 113.203 130.867 111.443 131.866 109.641C132.585 108.363 133.224 107.083 133.945 105.803C134.021 105.682 134.183 105.523 134.303 105.523C135.381 105.401 136.462 105.325 137.5 105.204C137.74 105.164 138.019 105.007 138.259 104.885C138.138 104.685 138.059 104.445 137.94 104.245C137.779 104.002 137.54 103.804 137.379 103.561C137.221 103.364 137.101 103.121 136.981 102.883C136.86 102.686 136.741 102.525 136.621 102.321C136.378 101.881 136.14 101.441 135.938 100.964C135.899 100.843 135.817 100.646 135.859 100.524C136.579 98.9651 136.858 97.2848 137.537 95.7243C138.215 94.1244 138.417 92.3241 138.736 90.6043C139.015 88.9649 139.176 87.3255 139.373 85.6862C139.495 84.5264 139.654 83.4062 139.692 82.2465C139.935 80.4067 139.853 78.6854 139.813 76.964C139.774 75.4461 139.692 73.8857 139.616 72.3647L139.612 72.3601ZM39.3892 121.599C39.1099 121.28 38.8701 120.919 38.5908 120.6L38.7122 120.479C39.1479 120.96 39.5881 121.44 40.0268 121.96C39.7869 121.839 39.5076 121.76 39.3892 121.599ZM40.0268 121.96C40.1482 121.92 40.2697 121.92 40.3881 121.88C40.5095 122.08 40.5884 122.32 40.7068 122.56C40.1482 122.519 39.8689 122.279 40.0283 121.96H40.0268ZM81.573 138.48V138.359C82.3319 138.28 83.0499 138.199 83.8089 138.121V138.237C83.0499 138.359 82.3319 138.435 81.573 138.477V138.48ZM91.6369 137.441C91.0798 137.562 90.4803 137.642 89.9217 137.723C89.7213 137.762 89.4814 137.963 89.4025 137.601C89.3221 137.642 89.2416 137.642 89.1627 137.683C89.36 138.281 89.8412 137.802 90.2404 138.042C89.36 138.163 88.5251 138.242 87.6842 138.36V138.281C87.9271 138.242 88.2049 138.201 88.4432 138.16V138.042C88.0451 137.994 87.6448 137.967 87.244 137.961C87.1271 137.961 86.9662 138.122 86.8463 138.162C86.6869 138.201 86.5275 138.242 86.3272 138.242C85.6486 138.281 84.9701 138.281 84.3295 138.321C84.2886 138.321 84.2081 138.281 84.1686 138.281V138.16C86.8448 137.802 89.4815 137.442 92.1576 137.082C92.1986 137.161 92.1986 137.242 92.238 137.321C91.9982 137.321 91.8388 137.404 91.6384 137.442L91.6369 137.441ZM92.238 137.043C93.1579 136.921 93.9989 136.842 94.8762 136.724C93.0395 137.243 92.4399 137.322 92.2396 137.043H92.238ZM57.4452 56.2805C58.7203 54.5197 60.0409 52.7589 61.319 50.9601C61.7182 50.4364 62.037 49.8763 62.4362 49.3572C62.5576 49.1963 62.717 49.1173 62.9159 48.9564L62.8764 48.8805C63.0358 48.6786 63.1952 48.5162 63.2756 48.3584C63.479 48.0396 63.599 47.6783 63.7583 47.3186C63.8009 47.2567 63.855 47.2036 63.9177 47.1622C64.4794 47.4415 64.4794 46.8434 64.6767 46.6416C65.0365 46.2408 65.3962 45.8021 65.715 45.4014C65.9548 45.0826 66.1946 44.8018 66.395 44.4421C66.4345 44.3206 66.3146 44.1233 66.2736 43.9609H66.1552C66.2766 43.8819 66.395 43.7635 66.5149 43.6816C66.5544 43.6816 66.5544 43.6816 66.5939 43.6421C66.8337 43.2808 67.0735 42.9211 67.3134 42.6008C67.7915 41.9633 68.3107 41.3227 68.8693 40.7641C68.7903 40.9614 68.7099 41.1633 68.6294 41.3227C68.6704 41.3227 68.6704 41.3637 68.7099 41.3637C69.1895 40.7231 69.7087 40.1235 70.1884 39.4814C70.1474 39.4435 70.1079 39.4025 70.0669 39.4025C69.8696 39.6028 69.7087 39.8032 69.5083 40.0036C69.4689 39.9626 69.4294 39.9231 69.3869 39.9231C69.7891 39.4025 70.1884 38.8833 70.5861 38.2838C70.6665 38.4052 70.747 38.5631 70.9048 38.8833C71.0672 38.4841 71.2266 38.2048 71.345 37.924C71.2266 38.0454 71.0672 38.1638 70.9473 38.2853L70.8259 38.1638L71.5454 37.0861C72.3044 36.0053 73.0633 34.8851 73.8223 33.8043C74.1031 33.4051 74.4599 33.0848 74.7027 32.6841C75.4617 31.1661 76.6609 29.9639 77.5777 28.5643C77.7781 28.285 78.0574 28.0452 78.2972 27.8054C78.4946 27.5625 78.657 27.6445 78.8164 27.8448C79.8941 29.2049 80.9718 30.6045 82.0496 31.9645C82.8511 32.9664 83.6495 33.9227 84.4085 34.964C85.3268 36.2452 86.2057 37.5248 87.1256 38.8044C88.1639 40.2844 89.2021 41.7644 90.201 43.2823C91.7189 45.5244 93.1564 47.7648 94.6743 50.0038C95.7931 51.6432 96.9118 53.2446 97.9895 54.884H95.9494C94.0732 54.8461 92.1545 54.6867 90.2784 54.7656C87.7221 54.887 85.1265 55.1663 82.5702 55.3667C79.334 55.6475 76.0583 55.6855 72.825 55.6855C71.6638 55.6855 70.5056 55.8479 69.3489 55.9284C67.9494 56.0073 66.5908 56.0877 65.1928 56.1257C63.5534 56.2077 61.9596 56.2471 60.3202 56.2881C59.4003 56.3276 58.4425 56.2881 57.4437 56.2881L57.4452 56.2805ZM103.261 74.678V75.0393C103.222 75.0393 103.182 75.0803 103.102 75.0803C102.943 74.5186 102.783 73.9175 102.583 73.3574C102.184 72.1962 101.743 71.0349 101.024 69.9967C100.222 68.8779 99.506 67.7198 98.7045 66.5585C98.5072 66.2777 98.2248 66.0379 97.985 65.7996C97.1456 64.8782 96.3061 63.9173 95.2284 63.2388C93.6404 62.2427 91.9696 61.3855 90.2343 60.6765C89.7526 60.4697 89.2859 60.2292 88.8378 59.957H89.7941L96.6249 59.8355C98.1034 59.7976 99.5424 59.7976 101.019 59.7171C101.378 59.7171 101.578 59.8386 101.778 60.1573C102.137 60.7569 102.496 61.3565 102.896 61.9576C102.937 62.0366 103.017 62.155 103.017 62.2764C103.017 63.1568 103.017 64.0767 103.056 64.9571C103.094 65.877 103.178 66.7574 103.214 67.6773C103.214 68.5971 103.134 69.5565 103.175 70.5158C103.216 71.8774 103.255 73.2785 103.255 74.675L103.261 74.678ZM60.2792 61.2837C62.1569 61.2032 63.9526 61.0833 65.7924 61.0028C67.2268 60.9224 68.7068 60.8814 70.1428 60.8025C70.7424 60.7645 71.3025 60.7266 71.9006 60.8025C71.2631 61.1243 70.6225 61.4446 70.0639 61.8438C69.3444 62.3235 68.6674 62.9625 67.9464 63.4832C67.2253 64.0023 66.5863 64.6429 65.9882 65.3229C65.2292 66.2413 64.3898 67.0412 63.5898 67.9216C63.0282 68.5622 62.3907 69.1618 61.9125 69.8418C61.234 70.7223 60.6344 71.6786 59.9954 72.6804C60.1957 68.8795 60.4356 65.121 60.2747 61.2806L60.2792 61.2837ZM86.3651 99.7636C85.0855 100.082 83.7694 100.444 82.4488 100.603C81.3316 100.764 80.1719 100.724 79.0137 100.724C77.9864 100.725 76.9594 100.684 75.9353 100.603C74.7771 100.485 73.6189 100.365 72.5002 99.844C71.5393 99.4038 70.542 99.0046 69.5857 98.5234C68.6234 98.0438 67.6655 97.4852 66.9445 96.6047C66.4284 95.9627 65.7074 95.4435 65.0683 94.8834C65.1898 95.3631 65.4675 95.7638 65.9078 96.0431C65.7074 96.2829 65.4281 96.1645 65.0273 95.5225C64.9089 95.6029 64.789 95.6439 64.7086 95.6834C64.83 95.4025 64.9484 95.1217 65.0683 94.8834C64.9089 94.5646 64.7086 94.2034 64.5492 93.8815C64.2304 93.3624 63.9117 92.8038 63.6308 92.2832C63.5504 92.1617 63.5504 92.0433 63.4714 91.9234C63.2721 91.6928 63.0846 91.4521 62.9098 91.2024C62.591 90.7242 62.3117 90.2051 61.9125 89.7239C61.9125 89.8453 61.9535 89.9637 61.9535 90.1246C61.9125 90.1246 61.8731 90.1641 61.8731 90.1641L61.0321 88.124C60.9926 88.124 60.9926 88.124 60.9532 88.1634L61.6712 90.8047C61.6317 90.8047 61.5922 90.8426 61.5497 90.8426C61.4328 90.6848 61.3129 90.5239 61.231 90.3265C61.152 90.0047 60.9122 90.0047 60.7149 90.1246C60.5934 90.2051 60.513 90.4844 60.554 90.6043C60.8348 91.2843 61.1535 91.9644 61.4738 92.6444C61.5528 92.8843 61.6332 93.0846 61.7531 93.3245C61.7941 93.4049 61.914 93.4838 61.914 93.6038C62.0749 93.9225 62.1949 94.2413 62.3937 94.5236C62.7535 95.0033 63.1527 95.483 63.5124 95.9627C63.8692 96.4423 64.1879 96.9645 64.5082 97.4427C64.5477 97.5231 64.6676 97.5231 64.7055 97.5641C64.9074 98.1637 65.5859 98.6024 66.0656 98.3625C66.1871 99.2824 67.1843 99.6027 67.5836 100.483C67.1915 100.323 66.8052 100.149 66.4254 99.9624C66.3844 100.002 66.3844 100.041 66.3434 100.122C66.8231 100.362 67.3027 100.601 67.7399 100.881C68.1422 101.124 68.5414 101.362 68.9011 101.64C69.3808 102.08 69.9409 102.323 70.6164 102.481C70.6029 102.422 70.577 102.366 70.5405 102.318C71.6577 102.839 72.8174 103.399 73.6948 103.836C69.5402 103.918 65.1063 103.999 60.5115 104.079C60.5115 103.32 60.472 102.599 60.472 101.839C60.472 101.52 60.5509 101.239 60.5099 100.919C60.3885 99.082 60.3885 97.2392 60.1502 95.439C59.9119 93.5203 59.9119 91.6395 59.9529 89.7163C59.9908 88.6796 59.9119 87.6003 59.8709 86.559C59.8709 85.1594 59.8709 83.7963 59.9134 82.3998C59.9134 82.1994 59.9938 82.0401 60.0743 81.8382H60.1957C60.2337 81.9201 60.1957 82.0401 60.2716 82.081C60.3931 82.2025 60.5934 82.3998 60.6739 82.3603C60.9122 82.1994 61.2719 82.0416 61.3524 81.7987C61.5497 81.3206 61.6317 80.7999 61.6317 80.3202C61.6317 79.962 61.7926 79.7222 61.9505 79.4808C62.0324 79.3594 62.0719 79.241 62.1524 79.0816C61.993 78.9601 61.8336 78.8812 61.6332 78.7218C61.7941 78.2816 61.7547 77.761 62.3542 77.5226C62.4332 77.4817 62.4332 77.2798 62.4757 77.1614C62.5136 76.8381 62.5516 76.4783 62.5941 76.1595C62.673 76.281 62.7155 76.3189 62.7914 76.3978C62.814 76.3544 62.8415 76.3136 62.8734 76.2764C62.8734 76.1186 62.8339 75.7983 62.8734 75.7983C63.3531 75.7178 63.1527 75.1987 63.3925 74.9588C63.4305 74.9163 63.3515 74.7964 63.3515 74.716C63.3515 74.637 63.3515 74.5186 63.391 74.5186C63.9481 74.3972 63.8692 73.7976 64.2289 73.5168C64.3503 73.4363 64.3883 73.3195 64.5477 73.1176C64.8664 73.6762 64.3078 73.957 64.2684 74.3562C64.9454 73.957 65.1457 72.9977 64.7465 72.7168C64.9059 72.5954 65.0653 72.4375 65.1867 72.2766C65.6269 71.797 66.1036 71.3568 66.5043 70.8771C66.7851 70.5189 66.9445 70.0786 67.2238 69.7189C67.3847 69.5185 67.7035 69.3591 67.9433 69.2377C68.6628 68.84 69.3398 68.3998 69.78 67.7198C69.8605 67.6393 69.9804 67.5604 70.0988 67.4799C70.2202 67.3995 70.4601 67.3995 70.4995 67.2795C70.5405 67.2006 70.4206 67.0002 70.3402 66.8803C70.498 66.7999 70.6589 66.6405 70.9777 66.4796C70.8563 66.7194 70.8183 66.8803 70.7379 67.0412L70.9352 67.2386C71.2965 66.9593 71.8551 66.6405 72.2148 66.4007C72.2148 66.3627 72.0145 66.2033 72.0145 66.2033C71.7761 66.3248 71.4164 66.5221 71.0581 66.683C71.134 66.5616 71.134 66.4826 71.1796 66.4432C71.7367 66.0834 72.2953 65.7237 72.8949 65.4413C74.2914 64.8038 75.6909 64.1632 77.0889 63.5636C77.3288 63.4422 77.6506 63.5242 77.9284 63.5242C78.0468 63.5242 78.1257 63.5242 78.2471 63.4847C78.8847 63.2843 79.5252 63.0839 80.1643 62.923C80.4421 62.8441 80.7609 62.8046 81.0447 62.8046C82.2393 62.8426 83.4385 62.8426 84.6362 62.923C85.1553 62.9625 85.635 63.0824 86.1146 63.2418C86.7296 63.4555 87.3299 63.7091 87.9119 64.0008C88.5904 64.3651 89.2295 64.7628 89.87 65.203C91.0282 65.962 92.106 66.8029 93.2642 67.483C94.3829 68.163 95.2618 69.0829 95.9813 70.1242C96.8617 71.3628 97.859 72.4831 98.2582 74.0025L98.8563 76.6438C98.9777 77.1234 99.257 77.6031 99.1371 78.1617C98.9352 79.1636 98.7758 80.2033 98.6164 81.2037C98.5375 81.6059 98.4571 82.0082 98.498 82.4028C98.5739 83.6476 98.0958 84.7253 97.6176 85.8455C97.4567 86.2053 97.2169 86.5666 97.0181 86.9658C97.1158 87.0349 97.2232 87.0891 97.3368 87.1267L97.6966 86.4072C97.7376 86.4072 97.7376 86.4072 97.777 86.4482C97.5767 87.0068 97.4173 87.6079 97.2154 88.168C96.7387 89.4082 96.2591 90.6878 95.6595 91.887C95.3407 92.567 94.7791 93.1271 94.3814 93.7692C93.9837 94.3278 93.6634 94.9274 93.2642 95.4481C92.9044 95.8883 92.5462 96.3285 92.065 96.6472C90.9873 97.4472 89.8685 98.2472 88.7103 98.8877C87.9923 99.3279 87.1529 99.5678 86.3545 99.7681L86.3651 99.7636ZM65.0729 97.6385L65.0334 97.6794C64.9499 97.64 64.83 97.6005 64.7511 97.5201L63.7917 96.078C63.7128 95.9596 63.6703 95.8397 63.7128 95.6803C64.153 96.3604 64.5932 97.0009 65.0714 97.6385H65.0729ZM89.9217 103.118C91.7174 102.359 93.1959 101.282 94.5514 100.04C94.7533 99.8395 94.9521 99.6406 95.192 99.4782C96.8708 98.4399 98.1064 96.9994 99.2267 95.3995C100.505 93.5597 101.344 91.4802 102.384 89.5205C102.454 89.3691 102.534 89.2221 102.622 89.0803C102.542 93.6402 103.063 98.1197 103.661 102.64C99.1477 102.799 94.5529 102.959 89.9201 103.12L89.9217 103.118ZM130.425 101.919C130.386 102 130.304 102.08 130.266 102.162C130.225 102.08 130.225 101.96 130.185 101.798C129.945 102.44 129.426 102.119 129.066 102.119C126.911 102.16 124.713 102.16 122.554 102.16C120.478 102.16 118.362 102.16 116.285 102.197C115.605 102.197 114.886 102.356 114.206 102.397C112.569 102.476 110.932 102.519 109.294 102.557C109.172 102.557 109.054 102.359 108.853 102.198C108.783 102.324 108.703 102.445 108.614 102.558C108.571 102.479 108.492 102.4 108.412 102.28C108.372 102.402 108.331 102.52 108.29 102.599H108.175C108.094 102.041 107.935 101.521 107.935 100.96C107.935 99.7606 108.057 98.5614 108.094 97.3592C108.135 96.8006 108.094 96.2814 108.094 95.7592C108.255 95.8807 108.375 95.9611 108.535 96.078C108.614 95.9217 108.694 95.8018 108.775 95.6834C108.775 95.6834 108.694 95.6408 108.614 95.5619C108.69 95.5209 108.772 95.4405 108.772 95.401C108.811 95.2796 108.893 95.1612 108.893 95.0822C108.893 94.8014 108.811 94.5616 108.772 94.3233C108.811 94.3233 108.85 94.3233 108.893 94.2808L109.131 95.4799H109.253C109.092 95.2022 109.611 94.9608 109.172 94.642C109.133 94.6011 109.212 94.3612 109.212 94.2413C109.09 94.003 109.014 93.7631 108.893 93.4429C108.932 93.4034 109.052 93.3624 109.172 93.3214C109.013 93.2425 108.893 93.1636 108.773 93.1241C109.172 92.7628 109.172 92.5625 108.812 92.1632C108.894 92.1253 108.973 92.1253 108.973 92.0873C108.973 91.7261 108.973 91.3663 108.894 91.0096C108.814 90.6058 109.016 90.1292 108.415 89.8863C108.454 90.0078 108.495 90.0867 108.574 90.2051C108.574 90.2051 108.453 90.2461 108.334 90.3265C107.815 89.8453 108.137 89.2032 108.016 88.4853C108.295 88.5657 108.495 88.6462 108.694 88.7281C108.614 88.4458 108.415 88.1255 108.295 87.7657H108.132V85.1245C108.132 85.1655 108.412 85.1655 108.573 85.2065C108.573 85.1655 108.611 85.126 108.611 85.0851C108.489 84.9257 108.33 84.7663 108.17 84.5659L108.251 84.4855C107.932 84.0878 108.091 83.5292 108.091 83.4077V80.6071C108.492 81.0079 107.894 81.527 108.492 81.7668V81.3676H108.451C108.412 80.768 108.412 80.1684 108.372 79.5673H108.293C108.252 79.6493 108.252 79.6888 108.211 79.7692H108.132L108.372 70.2092C108.772 70.7283 109.21 71.211 109.489 71.7271C110.409 73.409 111.607 74.8495 112.726 76.369C113.685 77.6896 114.562 79.1286 115.443 80.4887C116.521 82.1281 117.559 83.7675 118.638 85.4069C119.437 86.6485 120.278 87.8887 121.112 89.0894C121.871 90.1671 122.673 91.2084 123.471 92.2498C124.148 93.1696 124.868 94.0895 125.546 95.0094C126.346 96.1296 127.145 97.2484 127.945 98.3291C128.342 98.8877 128.783 99.4479 129.22 100.008C129.463 100.327 129.821 100.57 130.061 100.767C130.023 100.767 129.982 100.767 129.903 100.727C130.024 100.887 130.1 101.007 130.182 101.087C130.622 101.327 130.662 101.567 130.422 101.928L130.425 101.919ZM132.462 91.9219V91.6411C132.462 91.72 132.502 91.8384 132.462 91.9204V91.9219ZM133.821 74.2834C133.78 74.2834 133.541 74.0405 133.502 74.001C133.461 74.1225 133.502 74.2409 133.421 74.4018C133.38 74.2834 133.103 74.3228 133.103 74.2044C133.062 74.763 133.341 75.3231 133.3 75.8833C133.421 75.8028 133.9 75.7618 134.019 75.6434C134.06 75.6829 134.141 75.7224 134.18 75.7224C133.38 76.3235 133.581 76.9215 133.941 77.6046C134.019 77.7625 134.259 78.0828 134.019 78.4031C133.941 78.4835 134.06 78.7218 134.1 78.9237H134.217V78.9996L133.857 79.121C133.778 78.9996 133.3 78.7628 133.3 78.5594V80.6026C133.699 80.724 133.699 81.2826 133.859 81.5634C133.928 81.4659 133.983 81.3584 134.021 81.2447L134.062 81.2811C134.021 81.5209 133.982 81.7608 133.901 82.0021C133.822 82.3603 133.742 82.6806 133.704 83.0404C133.704 83.0798 133.78 83.1618 133.78 83.1998C133.342 84.2016 133.582 85.3188 133.423 86.3571C133.301 87.1161 133.423 87.9206 133.342 88.719C133.261 89.3991 133.1 90.1186 132.942 90.7986C132.901 90.92 132.82 90.958 132.623 91.0384C132.702 90.5588 132.662 90.2385 132.582 89.7983C132.539 89.7983 132.02 89.519 131.979 89.519C131.979 90.0806 132.298 90.8396 132.42 91.4771C132.298 91.4377 131.82 91.1584 131.782 91.1584C131.7 91.638 131.7 92.2786 131.661 92.7977C131.62 93.1985 131.261 93.5567 131.22 93.9969C131.22 94.2398 131.5 94.3977 131.46 94.7984H131.779C131.779 93.9999 132.14 93.2804 132.14 92.4395H132.259C132.3 92.52 132.42 92.6004 132.38 92.6399C132.3 93.0801 132.137 93.5597 132.18 93.9999C132.18 94.2398 132.377 94.4796 132.301 94.7589C132.219 95.0018 132.18 95.2401 132.139 95.5999C132.098 95.3995 132.058 95.3206 132.058 95.2006C132.019 95.2006 131.659 95.1597 131.618 95.1597C131.579 95.3995 131.899 95.6393 131.858 95.8397C131.818 95.8792 131.779 95.8792 131.699 95.9201L130.381 93.9984C129.34 92.4805 128.301 90.958 127.263 89.3991C126.994 89.0174 126.753 88.6166 126.542 88.1999C125.307 86.0712 123.933 84.0262 122.428 82.078C121.272 80.5995 120.349 78.9966 119.271 77.4407C118.275 75.9607 117.277 74.5202 116.278 73.0386C115.918 72.5605 115.479 72.1203 115.159 71.5996C114.122 69.9602 113.201 68.2799 112.166 66.6405C111.285 65.2789 110.329 63.9583 109.409 62.6392C109.09 62.199 108.772 61.7178 108.45 61.2381C108.4 61.1545 108.372 61.0593 108.371 60.9619C108.29 60.0815 108.21 59.201 108.17 58.3616C108.17 57.5617 108.251 56.7617 108.251 55.9208V55.2013C108.251 55.0009 108.289 54.8415 108.289 54.6396C108.327 54.6017 108.368 54.5212 108.407 54.4817C107.249 54.4817 106.05 54.4392 104.892 54.4817C104.133 54.5197 103.733 54.1994 103.214 53.6393C101.696 51.9195 100.578 49.9598 99.2601 48.12C98.0178 46.3696 96.7527 44.6355 95.4652 42.918C94.4254 41.5185 93.3856 40.1584 92.3489 38.7589C91.1891 37.159 90.0719 35.559 88.8728 33.9591C87.4199 32.0303 85.9551 30.1106 84.4783 28.2C83.7952 27.3196 83.0363 26.4802 82.2773 25.5588C82.7979 25.6408 83.2791 25.7197 83.7573 25.7607L85.676 25.8821C87.1135 25.999 88.551 26.0795 89.9869 26.2768C91.1861 26.4392 92.3853 26.6791 93.6239 26.8779C96.2621 27.3181 98.8578 28.0391 101.375 28.8786C102.853 29.3582 104.289 29.9988 105.731 30.5984C108.964 31.919 112.041 33.5189 115.077 35.1978C116.033 35.7184 116.595 36.5578 117.311 37.3183C118.351 38.3991 119.391 39.4784 120.388 40.5971C121.545 41.9177 122.623 43.2778 123.743 44.6379C124.74 45.837 125.777 47.0362 126.779 48.2384C127.098 48.5982 127.341 49.0384 127.617 49.4376C128.254 50.3985 128.975 51.3199 129.534 52.3581C129.932 53.1202 130.171 54.0006 130.451 54.84C130.848 56.0801 131.249 57.2793 131.65 58.5195C131.928 59.4394 132.166 60.4017 132.366 61.358C132.527 62.0001 132.488 62.6787 132.685 63.3162C132.928 64.1602 132.685 65.077 132.928 65.9195C132.966 65.9999 133.004 66.1198 133.046 66.2003C133.206 66.3582 133.326 66.5191 133.086 66.7589C133.048 66.7984 133.048 66.9562 133.086 67.0777C133.168 66.9987 133.207 66.9183 133.288 66.7984C133.288 66.8788 133.326 66.9198 133.326 66.9577C133.326 67.1156 133.285 67.2765 133.326 67.4359C133.326 67.5148 133.405 67.6332 133.444 67.7152C133.525 67.6332 133.604 67.5938 133.763 67.4723C134.123 68.8339 134.164 70.194 134.164 71.5936C134.164 72.9142 134.402 74.2348 133.845 75.5144C133.963 75.0742 133.684 74.6719 133.804 74.2727L133.821 74.2834Z" fill="#DD3A0A"/>
<path fill-rule="evenodd" clip-rule="evenodd" d="M108.297 89.8392C108.335 89.8392 108.376 89.8802 108.376 89.8802L108.335 89.8347C108.335 89.7967 108.335 89.7967 108.295 89.8347L108.297 89.8392ZM114.607 129.36C114.166 129.679 113.726 129.96 113.168 130.08C113.125 130.041 113.125 130 113.086 129.959C113.526 129.679 114.004 129.4 114.444 129.119C114.485 129.195 114.566 129.277 114.605 129.357L114.607 129.36ZM39.7082 75.1577C40.1484 74.6006 40.5886 74.0405 41.0653 73.4803C41.1032 73.5198 41.422 73.6018 41.463 73.6397C41.0228 74.2014 40.4232 74.9603 39.9845 75.5599C39.9025 75.4795 39.7826 75.2002 39.7037 75.1592L39.7082 75.1577ZM28.3616 94.7619C28.0428 94.0819 27.724 93.3609 27.4053 92.6824C27.5164 92.6119 27.637 92.5578 27.7635 92.5215C28.2037 93.159 28.401 93.918 28.7229 94.601C28.7229 94.601 28.4041 94.7604 28.3631 94.7604L28.3616 94.7619ZM38.55 75.5599C38.3102 75.9212 38.0704 76.3219 37.8305 76.6832C37.7911 76.6407 37.3509 76.8411 37.3114 76.8016C37.5512 76.4419 38.1493 75.7998 38.3891 75.4415C38.4301 75.481 38.4696 75.522 38.55 75.563V75.5599ZM110.334 131.003C110.372 131.003 110.372 130.963 110.413 130.963C110.692 131.003 111.011 131.042 111.331 131.042C110.809 131.402 110.489 131.361 110.329 131.003H110.334ZM38.6259 77.2403C38.6684 77.1189 38.7474 77.0005 38.8278 76.8805C38.9067 76.8805 39.0251 76.8396 39.0251 76.8396C39.1876 76.5603 39.1876 76.3599 39.347 76.1201C39.3075 76.0806 39.2665 76.0806 39.2255 76.0396C38.9872 76.2035 38.7474 76.4039 38.5075 76.5633C38.588 76.6422 38.588 76.6847 38.588 76.7637C38.2692 76.7227 38.1478 76.8851 37.9884 77.3223C37.9489 77.4437 37.7486 77.4832 37.5482 77.641C37.5087 77.723 37.4693 77.9234 37.3888 78.1222L37.4298 78.1647C37.3493 78.2452 37.2294 78.2862 37.2294 78.2862C36.9896 78.5245 36.7103 78.7264 36.4704 78.9647C36.431 79.0861 36.3915 79.2045 36.3915 79.3244C36.6723 79.0451 37.1505 78.5245 37.5102 78.2042L37.5512 78.2452C37.7106 78.0053 37.8305 77.7655 37.9914 77.5257C38.0294 77.5651 38.0294 77.6046 38.0704 77.6471C37.9489 77.9659 37.8305 78.3241 37.7106 78.6444C37.6271 78.6839 37.5072 78.7658 37.5072 78.7248C37.3478 78.8463 37.2279 79.0041 37.067 79.1241L36.349 79.6037C35.9498 79.9635 35.5506 80.2823 35.1104 80.6435C34.8311 81.0837 34.5518 81.483 34.23 82.0036C34.7111 81.8822 34.8311 82.0841 34.7916 82.4848C35.3502 82.5637 35.3912 82.125 35.5506 81.8048C35.59 81.7228 35.631 81.5619 35.71 81.5224C36.0697 81.2036 36.4689 80.9243 36.8681 80.6041C36.9486 80.5236 36.9486 80.3612 36.9486 80.2428C36.9486 80.2033 36.7467 80.2033 36.6268 80.1623C36.9865 79.7616 37.5072 79.0846 37.8654 78.6444C38.0658 78.523 38.2647 78.3621 38.2647 78.2421C38.2252 77.8019 38.5045 77.6835 38.8263 77.5226C38.6654 77.4012 38.6244 77.2843 38.6244 77.2449L38.6259 77.2403Z" fill="#DD3735"/>
<path fill-rule="evenodd" clip-rule="evenodd" d="M39.4274 76.8001C39.268 77.0794 39.1087 77.3192 38.9493 77.6L38.7094 77.4786C38.5501 78.397 37.9899 79.1969 37.4313 79.3563C37.5907 79.4367 37.7501 79.5172 37.8715 79.4777C37.9899 79.4367 38.0689 79.2349 38.1493 79.1165L39.2271 77.556L39.5883 76.9549L39.4289 76.7955L39.4274 76.8001ZM26.1272 94.3597C26.3276 94.3597 26.5279 94.3991 26.7647 94.3991C26.7647 94.2397 26.9666 94.2777 26.9666 94.1198H27.088C27.088 94.3202 27.1275 94.4796 27.1275 94.6815H26.2896C26.2486 94.6405 26.0892 94.3991 26.1287 94.3597H26.1272ZM25.8084 92.5199C25.687 92.3985 25.4896 92.2801 25.4896 92.1602C25.4487 92.0023 25.5686 91.8034 25.687 91.6031C25.7689 91.8824 25.8084 92.1222 25.8873 92.403C25.8464 92.441 25.8069 92.482 25.8069 92.5214L25.8084 92.5199ZM26.8072 89.9591C26.9666 90.3629 27.126 90.8031 27.2869 91.2039C27.1736 91.2415 27.0662 91.2952 26.9681 91.3632C26.8087 90.9625 26.6084 90.5223 26.449 90.1231C26.5569 90.0459 26.6793 89.9912 26.8087 89.9622L26.8072 89.9591ZM115.728 128.202C115.926 128.123 116.166 128.081 116.487 128.005C116.126 128.283 115.847 128.483 115.607 128.723C115.566 128.683 115.527 128.642 115.486 128.642C115.566 128.483 115.647 128.363 115.728 128.202ZM66.629 43.6815C66.8673 43.5206 67.0692 43.4007 67.3075 43.2413L67.3865 43.3203C67.1436 43.639 66.9463 43.9578 66.6654 44.3601C66.626 44.0823 66.626 43.9199 66.585 43.7225C66.5455 43.7225 66.585 43.7225 66.626 43.6831L66.629 43.6815ZM78.3324 63.9203C78.6921 63.7594 79.0519 63.6015 79.4906 63.3996C79.4511 63.6395 79.4511 63.8004 79.4511 63.9613C79.3222 63.9146 79.1872 63.887 79.0504 63.8793C78.8105 63.9203 78.3703 64.2406 78.17 64.2801C78.132 64.2801 78.3309 63.9613 78.3309 63.9203H78.3324ZM108.297 97.8403C108.376 98.2395 109.135 98.4399 108.376 98.8391C108.497 98.9226 108.614 98.9606 108.734 99.0425C108.734 99.0835 108.694 99.164 108.655 99.2034C108.574 99.2414 108.415 99.3218 108.336 99.2793C108.295 99.2793 108.215 99.1215 108.215 99.041C108.215 98.6813 108.256 98.3215 108.295 97.8418L108.297 97.8403Z" fill="#DD3735"/>
</svg>
