<svg xmlns="http://www.w3.org/2000/svg" width="160" height="160" fill="none" viewBox="0 0 160 160"><rect width="160" height="160" fill="#262524" rx="20"/><g clip-path="url(#clip0_2014_24719)"><path fill="#DD3735" fill-rule="evenodd" d="M43.4886 70.32C43.6495 70.4414 43.9288 70.5204 43.6495 70.7602C43.4491 71.0395 43.2093 71.2793 43.0499 71.5996C42.8905 71.8804 42.7706 71.9594 42.5308 71.7605C42.8495 71.2399 43.1683 70.7587 43.4871 70.3185L43.4886 70.32ZM123.78 112.241C123.78 112.36 123.82 112.438 123.82 112.56C123.9 112.4 123.9 112.32 123.941 112.241H123.78ZM123.78 112.599V112.56V112.599ZM115.632 128.199L108.68 89.6404C108.561 89.6025 108.402 89.5235 108.121 89.4431C108.202 89.6025 108.243 89.7224 108.282 89.8423C108.479 89.8028 108.561 89.8028 108.64 89.7634C108.64 89.7239 108.64 89.6844 108.681 89.6419L115.634 128.204L115.632 128.199ZM108.441 80.9608C108.402 81.0792 108.402 81.2006 108.402 81.3205C108.402 81.1991 108.402 81.0777 108.445 80.9593L108.441 80.9608ZM108.481 81.7592C108.441 81.7592 108.441 81.7592 108.402 81.7167V81.7562C108.445 81.7957 108.445 81.7957 108.484 81.7562L108.481 81.7592ZM108.402 82.078V81.7972C108.285 81.8366 108.165 81.8366 108.004 81.8776C108.205 81.9535 108.405 81.996 108.405 82.075L108.402 82.078Z" clip-rule="evenodd"/><path fill="#DD3A0A" fill-rule="evenodd" d="M139.518 72.3601C139.439 70.7997 139.4 69.2392 139.239 67.6803C138.96 65.5597 138.68 63.3997 138.201 61.3201C137.841 59.6003 137.244 57.9594 136.643 56.32C135.884 54.3998 135.125 52.4401 134.166 50.6004C132.609 47.6404 130.572 44.9991 128.694 42.2395C127.452 40.4787 125.855 39.0397 124.656 37.2394C123.978 36.1996 122.979 35.3207 121.98 34.5223C120.382 33.2396 118.704 32.0784 117.027 30.9597C115.761 30.072 114.454 29.2443 113.111 28.4793C112.033 27.8767 110.875 27.397 109.756 26.8764C108.478 26.2768 107.239 25.5558 105.802 25.2765C105.44 25.2006 105.122 25.0791 104.762 24.9577C103.844 24.6389 102.965 24.2792 102.045 23.9984C100.648 23.5582 99.2897 23.039 97.8507 22.6778C96.4573 22.318 95.0182 22.0797 93.5792 21.8778C91.9824 21.6425 90.346 21.559 88.7461 21.4027C87.7249 21.2707 86.699 21.1776 85.6707 21.1234C84.1528 21.0444 82.5954 21.0444 81.0774 21.005C80.3185 20.964 79.52 20.8835 78.761 20.9245C77.6029 20.964 76.4447 21.0839 75.285 21.2433C74.1677 21.3647 73.049 21.5621 71.9713 21.7245C70.6552 21.8839 69.3376 21.9643 68.0185 22.1252C66.7799 22.2861 65.5018 22.526 64.2647 22.7263C63.8245 22.8068 63.3843 22.9662 62.9441 23.0451C61.9877 23.2455 60.9889 23.3259 60.0296 23.6462C58.3143 24.1684 56.5945 24.7695 54.9172 25.407C53.3582 26.0476 51.8403 26.7276 50.3633 27.5276C48.8454 28.3655 47.4064 29.3643 45.9689 30.3267C44.5882 31.2506 43.2414 32.2243 41.9311 33.2457C40.6561 34.2475 39.4569 35.3663 38.2972 36.4865C37.6596 37.124 37.139 37.886 36.5394 38.6056C35.5421 39.7668 34.5433 40.8855 33.584 42.0862C32.7886 43.088 32.066 44.1263 31.307 45.1676C29.9515 47.0043 28.7933 48.9655 27.7156 50.9267C27.2754 51.7267 26.8762 52.5266 26.4769 53.3251C25.8773 54.5243 25.2383 55.6855 24.6797 56.9256C24.2789 57.7666 23.9602 58.6865 23.7203 59.6063C23.1633 61.5675 22.6031 63.5682 22.084 65.5263C21.6043 67.2871 21.4844 69.1269 21.4465 70.9272C21.4055 72.5271 21.5649 74.0875 21.7242 75.6875C21.7652 76.0882 21.5269 76.5679 22.0035 76.8866C21.8442 77.3268 21.9641 77.5697 22.2009 77.6456C21.9246 78.0858 22.3223 78.3681 22.1644 78.7689C22.1235 78.8478 22.2859 79.0072 22.3618 79.1271C22.3618 79.2486 22.3238 79.4079 22.3618 79.5279C22.4043 79.8876 22.5637 80.2474 22.5637 80.6481C22.5637 80.9274 22.802 81.2477 22.8824 81.5285C22.9219 81.6469 22.8824 81.8473 22.802 81.9277C22.5622 82.207 22.6016 82.4469 22.9614 82.6078C23.1633 83.1269 23.0828 83.3667 23.0433 83.6096C23.1223 83.9678 23.0024 84.0878 23.0433 84.1682C23.3621 84.8088 23.4835 85.5283 23.5215 86.2478C23.5215 86.4087 23.6019 86.5696 23.6824 86.7685C23.7219 86.7685 23.6824 87.5274 23.6824 87.5274C23.8797 87.409 24.0421 87.3696 24.241 87.2891C24.3624 87.8082 24.4808 88.291 24.6402 88.7312C24.8406 89.0499 24.8406 89.2078 24.7617 89.2473C24.921 89.9668 25 90.6468 25.2778 91.3268C25.2778 90.5679 25.2019 89.8089 25.0804 89.0879C25.639 89.2882 26.1187 89.4871 26.439 89.4871C26.48 89.3657 26.5194 89.2078 26.5604 89.1273C26.3206 88.889 26.1202 88.5293 25.8804 88.2894C25.9608 88.6082 25.8804 88.7296 25.8804 88.8511C25.721 88.7691 25.5206 88.6887 25.3218 88.6082C25.4812 88.4109 25.6405 88.209 25.8804 87.9707C25.8804 87.6094 25.683 87.2876 25.1214 87.3286C25.3612 87.2496 25.6011 87.1312 25.8804 87.0493C26.3206 86.811 25.8409 86.3708 25.8409 85.8106C25.8804 85.1321 25.4812 84.4521 25.3612 83.731C25.1609 82.6123 25.2019 80.932 25.0819 79.8117C24.8421 79.6113 24.6417 80.1305 24.6023 80.1715C24.7237 81.1308 24.8421 82.0901 24.921 83.051C24.6827 82.251 24.5218 81.3706 24.323 80.4098C24.282 80.6906 24.2425 80.8105 24.2425 80.9714C24.0452 81.1688 24.2031 81.4116 24.323 81.6909C24.0437 81.5695 23.7234 81.612 23.7234 81.612V82.7322C23.3257 82.3315 23.2073 82.0127 23.0054 81.7304C22.9265 81.4116 22.884 81.0929 22.8081 80.7741C22.884 80.5722 22.8081 80.4523 22.8081 80.3339C22.7612 80.0139 22.7207 79.6931 22.6866 79.3715C22.7261 79.332 22.6472 78.734 22.6472 78.734C22.9659 78.7719 23.1678 78.8099 23.3667 78.8099C22.9674 78.2938 23.2452 77.972 23.4076 77.6517C23.4881 77.4908 23.7674 77.4543 23.8479 77.2904C24.1666 76.6908 24.6873 76.2127 24.6873 75.4507C24.6873 75.0909 24.8087 74.6917 24.8467 74.3304C24.9271 73.6504 25.006 72.9703 25.044 72.2903C25.126 71.4099 25.044 70.5295 25.2459 69.69C25.5677 68.2935 25.9669 66.8925 26.4056 65.4914C26.7244 64.4896 27.0856 63.5333 27.4833 62.5314C28.0829 60.971 28.643 59.4105 29.402 57.932C30.4798 55.7705 31.7184 53.6909 32.9176 51.5718C33.6765 50.2512 34.475 49.0111 35.3159 47.7314C36.1129 46.4913 36.9098 45.2117 37.8312 44.0504C39.096 42.4125 40.5141 40.8988 42.0662 39.53C43.6646 38.091 45.1826 36.611 46.8994 35.2904C49.1313 33.5658 51.5093 32.0391 54.0064 30.7274C56.045 29.6497 58.161 28.8057 60.2785 28.0057C61.6371 27.4866 63.1141 27.2468 64.5136 26.8066C66.1105 26.2859 67.7089 26.0476 69.3862 26.0066C70.464 25.9656 71.5038 25.8457 72.5815 25.7258C73.5408 25.6499 74.4987 25.5679 75.5385 25.448C75.417 25.6074 75.3776 25.6878 75.3381 25.7668C74.9009 26.4073 74.4212 27.0479 73.981 27.687C73.6213 28.2076 73.2221 28.7678 72.8623 29.2869C72.2217 30.1293 71.5417 30.9688 70.9436 31.8492C70.0253 33.1698 69.1858 34.5299 68.2265 35.849C67.2702 37.1286 66.2304 38.3293 65.2316 39.5679C63.914 41.2893 62.6754 43.0486 61.3578 44.7684C60.1586 46.4078 58.8836 47.9713 57.7238 49.6107C56.6856 51.0482 55.7657 52.5707 54.7669 54.0476C53.2899 56.2486 51.8114 58.4072 50.3345 60.6082C49.175 62.2835 48.0031 63.9503 46.8189 65.6083C46.7385 65.7297 46.6186 65.7662 46.5002 65.8466C46.1814 66.3657 46.1814 66.6466 46.0599 66.8864C45.7412 67.486 45.4224 68.0856 45.0611 68.6472C44.8608 68.966 44.5815 69.2453 44.3416 69.5656C44.3022 69.0859 44.9792 68.8461 44.6604 68.245C44.4631 68.5668 44.2612 68.8461 44.0623 69.1664L43.5827 70.1227C43.742 70.2441 44.0229 70.3246 43.742 70.5629C43.6206 70.7648 43.5022 71.0031 43.3823 71.205C43.5552 71.1033 43.7051 70.9668 43.8225 70.8042C43.8225 71.2444 43.5827 71.6027 43.3823 71.9624C43.2229 72.2812 42.8237 72.5241 42.5444 72.7624C42.5839 72.8034 42.8632 72.9233 42.9041 72.9627C43.2639 72.8413 43.3838 72.644 43.4248 72.7624C43.5462 72.603 43.6646 72.4831 43.7041 72.3632C43.862 71.9624 44.1018 71.6436 44.501 71.4827C44.6619 71.4023 44.7803 71.2824 44.9002 71.164C46.0994 69.9223 47.3381 68.7231 48.4158 67.4025C50.0946 65.3609 51.6126 63.2433 53.2125 61.1637C53.8895 60.2833 54.6895 59.4029 55.4075 58.562C55.5259 59.4819 55.4469 60.3608 55.4075 61.2032C55.286 62.6817 55.2071 64.1632 55.0887 65.6812C55.0477 66.2807 55.0887 66.8803 55.0477 67.4814C55.0477 67.6408 54.9263 67.7607 54.9263 67.9216C54.9263 68.3209 55.0477 68.7611 55.0477 69.1618C54.9263 70.6418 54.7654 72.0808 54.6454 73.5608C54.6045 73.8796 54.7638 74.2014 54.8428 74.4822C54.6454 76.6407 55.0857 78.9222 54.7244 81.2021C55.0037 80.7619 55.0841 80.4826 55.0841 80.2033C55.1221 79.9635 55.0841 79.7237 55.0841 79.4444V79.0436C55.1221 78.3226 55.2815 77.5636 55.2025 76.8426C55.1221 76.0426 55.1221 75.2837 55.283 74.5232C55.3634 74.2044 55.2435 73.8037 55.4439 73.4029V74.0025C55.4044 76.2795 55.4849 78.5609 55.1661 80.8409C55.1251 81.0412 55.2875 81.4025 54.8473 81.3615C54.4861 82.081 54.9263 82.6017 54.5286 83.0009C54.4466 83.0814 54.6045 83.4411 54.6454 83.681C54.4845 84.1621 54.4845 84.1621 54.7244 84.2016C54.7638 85.082 54.8458 85.8805 54.8838 86.7214C55.5213 85.2035 55.2025 83.64 55.4849 82.0795C55.5243 82.7201 55.5653 83.3607 55.5243 84.0377C55.5243 85.0805 55.4849 86.0793 55.4454 87.1191C55.4454 87.3195 55.4044 87.5198 55.365 87.7202C55.2435 88.2818 55.2056 88.8405 55.0052 89.3596C54.8458 89.7603 54.9263 90.3614 54.9263 90.8396V92.3621C55.0857 93.0421 54.8853 93.4019 55.0052 93.8011C54.8838 94.2034 54.8458 94.3233 54.8838 94.4432L55.0052 95.0428C55.8052 94.9623 55.4454 95.5634 55.7642 95.8822C55.5243 96.204 55.6048 96.3224 55.6048 96.4848C55.6048 96.8446 55.5668 97.1649 55.5259 97.5246C55.5259 98.4445 55.4864 99.3644 55.4864 100.245C55.4864 100.366 55.5259 100.483 55.5259 100.603C55.5259 100.685 55.4864 101.726 55.4864 101.726C55.5668 101.845 55.4864 101.965 55.365 102.085C55.327 102.085 55.2071 97.004 55.2071 97.004H54.6075C54.5286 99.4023 54.7289 101.562 54.2887 103.804C53.8091 103.842 53.6512 103.923 53.129 103.923C51.8904 103.923 50.6517 103.923 49.4131 103.962C47.9346 103.962 46.4986 104.002 45.0186 104.002C44.3022 104.002 43.5432 104.084 42.8237 104.084C41.8643 104.084 40.8655 103.962 39.9092 103.962C38.4292 103.962 36.9917 104.084 35.5133 104.123C34.4355 104.163 33.3578 104.163 32.28 104.204C31.559 104.242 30.838 104.279 30.1215 104.361C29.8028 104.401 29.5219 104.521 29.1227 104.641C29.0013 104.641 28.7235 104.601 28.4852 104.641C28.0829 104.721 27.7262 104.96 27.3239 105.041C26.7244 105.163 26.565 105.321 26.6439 105.922V106.321C26.6044 106.4 27.5243 106.2 27.5243 106.2C27.4423 106.2 27.4029 106.44 27.2814 106.64C27.6032 106.518 27.8021 106.44 28.0025 106.361C28.6021 106.641 29.1212 106.482 29.5993 106.603C31.1568 107.001 32.7536 107.165 34.3505 107.321C35.3903 107.402 36.3891 107.443 37.4274 107.481C38.9044 107.561 40.3828 107.642 41.8598 107.642C43.0984 107.642 44.2976 107.52 45.5332 107.52C47.2485 107.52 48.9698 107.599 50.6866 107.642C51.0464 107.642 51.4456 107.599 51.8448 107.599H54.7593C57.358 107.52 59.9537 107.478 62.5509 107.402C64.0309 107.359 65.5488 107.28 67.0258 107.239L71.5796 107.118C73.3374 107.079 75.0952 107.079 76.8135 107.042C78.1311 107.042 79.4092 106.997 80.7298 106.959C82.2053 106.919 83.7232 106.799 85.2017 106.72C86.0016 106.679 86.8016 106.599 87.6 106.52C88.5594 106.441 89.5582 106.323 90.5145 106.282C91.9535 106.2 93.432 106.16 94.871 106.08C96.6683 105.961 98.4655 105.802 100.302 105.761C101.981 105.682 103.698 105.722 105.377 105.682C106.855 105.641 108.334 105.561 109.852 105.521L112.371 105.4C112.371 105.4 114.047 105.36 114.887 105.278C116.324 105.199 117.762 105.04 119.201 105.001C120.117 104.96 121.037 105.001 121.956 104.96C123.433 104.92 124.951 104.838 126.429 104.838C126.986 104.838 127.586 104.92 128.305 104.96C127.986 105.24 127.786 105.4 127.546 105.6C127.706 105.64 127.865 105.722 128.026 105.8C127.84 105.932 127.616 106.001 127.388 105.998C127.306 106.2 127.226 106.28 127.146 106.681H127.865C127.586 106.681 127.346 107.041 127.067 107.28C126.748 107.198 126.467 107.28 126.308 107.721C126.587 107.879 126.547 107.998 126.508 108.161C126.028 108.319 125.669 108.48 125.87 108.999C125.708 109.078 125.509 109.158 125.309 109.278C125.112 109.597 124.75 109.677 124.829 110.117C124.99 110.155 125.148 110.239 125.269 110.275C125.069 110.356 124.87 110.476 124.67 110.555C123.952 110.995 124.272 111.195 124.431 111.396C124.31 111.476 124.192 111.555 124.072 111.596C124.151 111.956 124.269 112.036 124.31 112.036C124.106 112.191 123.906 112.351 123.71 112.516C123.589 112.876 123.43 113.035 123.27 113.275C123.111 113.515 123.03 113.836 122.83 114.075C121.992 114.996 121.393 116.078 120.315 116.796C119.914 117.077 119.556 117.437 119.196 117.798C118.477 118.477 117.838 119.237 117.079 119.878C116.075 120.709 115.036 121.496 113.964 122.237C112.648 123.157 111.33 124.077 110.011 124.957C109.291 125.435 108.493 125.795 107.734 126.235C106.975 126.675 106.256 127.076 105.497 127.515C105.017 127.833 104.577 128.274 104.058 128.517C102.74 129.078 101.34 129.556 99.9834 130.077C98.6628 130.639 97.7065 131.117 96.7077 131.477C95.7894 131.795 94.83 132.038 93.8722 132.235C93.5534 132.317 93.1922 132.235 92.8324 132.276C92.1524 132.398 91.4738 132.559 90.7938 132.638C89.036 132.878 87.2782 133.038 85.522 133.278C84.4822 133.4 83.4834 133.597 82.4451 133.719C81.7271 133.758 80.9681 133.679 80.2486 133.679C79.7295 133.679 79.1709 133.8 78.6502 133.72C77.8123 133.599 76.9729 133.401 76.1335 133.24C75.9362 133.201 75.6538 133.119 75.496 133.201C75.1772 133.362 74.8948 133.122 74.5746 133.201C74.3772 133.242 74.1769 133.079 73.9765 133.079C73.8156 133.042 73.6152 133.122 73.4148 133.079C72.9746 132.961 72.5769 132.802 72.0942 132.841C71.6191 132.881 71.1379 132.641 70.6218 132.522C69.9008 132.361 69.2253 132.204 68.5028 132.041C68.2236 131.954 67.956 131.833 67.7058 131.681C66.6661 131.681 65.986 131.642 65.347 131.401C64.7884 131.203 64.2692 130.922 63.6696 131.003C63.5118 131.042 63.3918 130.963 63.2294 130.963C63.108 130.803 62.9911 130.482 62.8727 130.482C62.0743 130.523 61.5946 129.845 60.9146 129.643C60.5563 129.521 60.277 129.122 59.9173 129.002C59.0369 128.642 58.3204 127.884 57.3216 127.764C57.0028 127.723 56.684 127.563 56.3228 127.445C56.4442 127.603 56.5201 127.723 56.6415 127.843C55.4834 127.281 54.4056 126.643 53.3264 126.042C53.1685 126.003 53.0486 125.845 52.9287 125.763L51.8509 125.043C51.2513 125.165 51.0115 124.922 50.8491 124.843C49.7713 124.084 48.5342 123.603 47.4944 122.763C47.0542 122.402 46.5381 122.162 46.2193 121.722C45.6577 121.042 44.9792 120.562 44.2202 120.163C43.6221 119.844 43.0635 119.483 42.5049 119.123C42.2241 118.923 41.9433 118.683 41.9433 118.243C41.9433 117.962 41.8249 117.681 41.4651 117.842C41.3057 117.602 41.1464 117.323 40.946 117.243C40.4663 117.045 40.1476 116.681 39.7878 116.362C39.428 116.044 39.1503 115.603 38.7101 115.444C37.9101 115.125 37.4304 114.445 36.9523 113.885C35.832 112.564 34.8332 111.122 33.7949 109.726C33.7145 109.604 33.5551 109.524 33.4352 109.404C33.5946 109.844 33.7949 110.204 33.9938 110.603C33.5961 110.444 33.3168 110.163 33.077 109.884C33.036 109.925 35.832 114.524 35.832 114.524C36.0749 114.884 36.2722 115.245 36.5121 115.605C36.2714 115.627 36.0295 115.578 35.8163 115.465C35.6031 115.351 35.4281 115.177 35.3129 114.964C34.9547 114.327 34.5539 113.926 33.7555 114.008C33.6707 113.719 33.6048 113.425 33.5581 113.128C33.3957 113.128 33.2773 113.128 32.9965 113.087C33.5581 113.967 34.0363 114.726 34.5554 115.606C34.3536 115.485 34.2367 115.406 34.1532 115.367C34.8712 116.126 35.3903 117.086 36.3087 117.568C36.509 118.486 37.5473 118.926 37.7871 119.807C37.5898 119.766 37.4259 119.726 37.2255 119.685C36.9067 119.286 36.547 118.887 36.1887 118.446C36.2677 118.726 36.3861 118.966 36.547 119.166C37.0267 119.766 37.4669 120.365 38.0255 120.886C38.2258 121.089 38.5051 121.17 38.5051 121.529C38.8239 121.689 38.9453 121.727 39.0637 121.727C39.1457 121.97 39.0258 122.329 39.5039 122.249C39.8227 122.849 40.1415 122.849 40.5817 122.65C41.1023 123.17 41.3832 123.211 41.7414 122.893C41.7414 123.09 41.7809 123.29 41.7809 123.451C41.9402 123.371 41.9023 123.251 41.9023 123.05C42.0996 123.21 42.2211 123.29 42.3 123.369C42.6992 123.931 43.059 124.45 43.6176 124.89C44.3765 125.531 45.0566 126.211 45.7731 126.81C47.1726 127.972 48.733 128.932 50.2889 129.811C52.2076 130.892 54.0459 132.052 56.0025 133.09C58.3583 134.332 60.8751 135.173 63.4708 135.772C64.4301 135.973 65.3485 136.172 66.3093 136.41C67.1442 136.653 67.9852 137.012 68.8246 137.211C70.1027 137.492 71.4203 137.732 72.6984 137.97C72.9762 138.011 73.26 138.052 73.5788 138.092C73.9355 138.172 74.3742 138.011 74.4546 138.133C74.655 138.451 74.8144 138.291 75.0542 138.251C75.3335 138.171 75.6538 138.171 75.9726 138.171C77.0913 138.21 78.169 138.45 79.2878 138.371C79.5306 138.371 79.8889 138.169 80.0893 138.568C80.4475 138.409 80.6479 138.409 80.8072 138.371C80.8497 138.729 80.8072 138.729 80.7313 138.769C80.6494 138.808 80.5295 138.849 80.3701 138.969C81.8076 139.248 83.1661 139.288 84.3623 138.969C86.4419 139.128 88.2391 138.889 89.9574 138.289C90.1168 138.489 90.2367 138.769 90.4766 138.369C90.5555 138.248 90.7559 138.207 90.9168 138.168C91.275 138.087 91.7152 137.928 92.034 138.046C92.3952 138.168 92.5152 137.849 92.7929 137.849C93.2741 137.849 93.7128 137.808 94.153 137.727C94.3929 137.688 94.6327 137.568 94.912 137.488C94.6386 137.352 94.3369 137.283 94.0316 137.286C94.5128 137.046 94.9515 136.845 95.3917 136.648C95.3112 136.767 95.2308 136.926 95.0729 136.926H95.63C95.5085 136.926 95.3492 137.286 95.1503 137.526C96.5863 137.166 97.9039 136.845 99.1835 136.524C98.7433 135.686 99.6616 135.967 99.9819 135.485C99.5827 135.607 99.1835 135.725 98.7828 135.804C100.141 135.126 101.539 134.526 102.896 133.926C102.699 134.166 102.456 134.286 102.099 134.488C102.339 134.526 102.499 134.526 102.619 134.564C103.256 134.766 103.098 134.166 103.297 133.805C104.056 133.805 104.375 133.687 104.735 133.565C105.134 133.444 105.533 133.325 105.934 133.166C106.571 132.887 107.171 132.528 107.81 132.21C107.931 132.167 108.129 132.21 108.29 132.21C108.73 131.927 108.888 131.688 109.008 131.727C109.569 131.807 109.964 131.606 110.125 131.089C110.404 130.888 110.605 130.728 110.803 130.607C111.681 130.127 112.519 129.647 113.399 129.168C113.718 129.168 113.879 129.168 113.958 129.127C114.48 128.884 114.959 128.608 115.438 128.327C115.3 128.27 115.167 128.204 115.038 128.129C115.436 128.047 115.555 128.008 115.797 127.928C116.754 126.804 118.074 126.045 119.072 125.165C119.512 125.125 119.512 125.006 119.512 124.927C119.67 124.726 119.831 124.486 120.028 124.325C120.908 123.525 121.865 122.845 122.665 122.006C123.823 120.843 124.942 119.643 125.98 118.402C126.936 117.282 127.898 116.163 128.697 114.923C129.816 113.203 130.773 111.443 131.772 109.641C132.492 108.363 133.131 107.083 133.852 105.803C133.928 105.682 134.09 105.523 134.21 105.523C135.288 105.401 136.369 105.325 137.407 105.204C137.647 105.164 137.926 105.007 138.166 104.885C138.044 104.685 137.965 104.445 137.847 104.245C137.686 104.002 137.446 103.804 137.285 103.561C137.128 103.364 137.008 103.121 136.888 102.883C136.766 102.686 136.648 102.525 136.528 102.321C136.285 101.881 136.047 101.441 135.845 100.964C135.805 100.843 135.723 100.646 135.766 100.524C136.485 98.9651 136.765 97.2848 137.443 95.7243C138.122 94.1244 138.324 92.3241 138.642 90.6043C138.922 88.9649 139.083 87.3255 139.28 85.6862C139.401 84.5264 139.561 83.4062 139.599 82.2465C139.842 80.4067 139.76 78.6854 139.72 76.964C139.681 75.4461 139.599 73.8857 139.523 72.3647L139.518 72.3601ZM39.296 121.599C39.0167 121.28 38.7768 120.919 38.4975 120.6L38.619 120.479C39.0546 120.96 39.4948 121.44 39.9335 121.96C39.6937 121.839 39.4144 121.76 39.296 121.599ZM39.9335 121.96C40.055 121.92 40.1764 121.92 40.2948 121.88C40.4162 122.08 40.4952 122.32 40.6136 122.56C40.055 122.519 39.7757 122.279 39.935 121.96H39.9335ZM81.4797 138.48V138.359C82.2387 138.28 82.9567 138.199 83.7156 138.121V138.237C82.9567 138.359 82.2387 138.435 81.4797 138.477V138.48ZM91.5437 137.441C90.9866 137.562 90.387 137.642 89.8284 137.723C89.628 137.762 89.3882 137.963 89.3093 137.601C89.2288 137.642 89.1483 137.642 89.0694 137.683C89.2667 138.281 89.7479 137.802 90.1472 138.042C89.2668 138.163 88.4319 138.242 87.5909 138.36V138.281C87.8338 138.242 88.1116 138.201 88.3499 138.16V138.042C87.9518 137.994 87.5516 137.967 87.1507 137.961C87.0339 137.961 86.873 138.122 86.753 138.162C86.5937 138.201 86.4343 138.242 86.2339 138.242C85.5554 138.281 84.8769 138.281 84.2363 138.321C84.1953 138.321 84.1148 138.281 84.0754 138.281V138.16C86.7515 137.802 89.3882 137.442 92.0643 137.082C92.1053 137.161 92.1053 137.242 92.1448 137.321C91.9049 137.321 91.7456 137.404 91.5452 137.442L91.5437 137.441ZM92.1448 137.043C93.0647 136.921 93.9056 136.842 94.783 136.724C92.9462 137.243 92.3467 137.322 92.1463 137.043H92.1448ZM57.3519 56.2805C58.627 54.5197 59.9476 52.7589 61.2257 50.9601C61.625 50.4364 61.9437 49.8763 62.3429 49.3572C62.4644 49.1963 62.6238 49.1173 62.8226 48.9564L62.7832 48.8805C62.9425 48.6786 63.1019 48.5162 63.1824 48.3584C63.3858 48.0396 63.5057 47.6783 63.6651 47.3186C63.7077 47.2567 63.7618 47.2036 63.8245 47.1622C64.3861 47.4415 64.3861 46.8434 64.5834 46.6416C64.9432 46.2408 65.3029 45.8021 65.6217 45.4014C65.8615 45.0826 66.1014 44.8018 66.3018 44.4421C66.3412 44.3206 66.2213 44.1233 66.1803 43.9609H66.0619C66.1834 43.8819 66.3018 43.7635 66.4217 43.6816C66.4611 43.6816 66.4611 43.6816 66.5006 43.6421C66.7404 43.2808 66.9803 42.9211 67.2201 42.6008C67.6983 41.9633 68.2174 41.3227 68.776 40.7641C68.6971 40.9614 68.6166 41.1633 68.5362 41.3227C68.5772 41.3227 68.5772 41.3637 68.6166 41.3637C69.0963 40.7231 69.6154 40.1235 70.0951 39.4814C70.0541 39.4435 70.0146 39.4025 69.9737 39.4025C69.7763 39.6028 69.6154 39.8032 69.4151 40.0036C69.3756 39.9626 69.3361 39.9231 69.2936 39.9231C69.6959 39.4025 70.0951 38.8833 70.4928 38.2838C70.5733 38.4052 70.6537 38.5631 70.8116 38.8833C70.974 38.4841 71.1334 38.2048 71.2518 37.924C71.1334 38.0454 70.974 38.1638 70.8541 38.2853L70.7326 38.1638L71.4521 37.0861C72.2111 36.0053 72.9701 34.8851 73.7291 33.8043C74.0099 33.4051 74.3666 33.0848 74.6095 32.6841C75.3684 31.1661 76.5676 29.9639 77.4845 28.5643C77.6848 28.285 77.9641 28.0452 78.204 27.8054C78.4013 27.5625 78.5637 27.6445 78.7231 27.8448C79.8008 29.2049 80.8786 30.6045 81.9563 31.9645C82.7578 32.9664 83.5562 33.9227 84.3152 34.964C85.2336 36.2452 86.1125 37.5248 87.0323 38.8044C88.0706 40.2844 89.1089 41.7644 90.1077 43.2823C91.6256 45.5244 93.0631 47.7648 94.5811 50.0038C95.6998 51.6432 96.8185 53.2446 97.8963 54.884H95.8562C93.98 54.8461 92.0613 54.6867 90.1851 54.7656C87.6289 54.887 85.0332 55.1663 82.477 55.3667C79.2407 55.6475 75.965 55.6855 72.7318 55.6855C71.5705 55.6855 70.4123 55.8479 69.2557 55.9284C67.8561 56.0073 66.4976 56.0877 65.0995 56.1257C63.4602 56.2077 61.8663 56.2471 60.2269 56.2881C59.3071 56.3276 58.3492 56.2881 57.3504 56.2881L57.3519 56.2805ZM103.168 74.678V75.0393C103.129 75.0393 103.089 75.0803 103.009 75.0803C102.849 74.5186 102.69 73.9175 102.49 73.3574C102.09 72.1962 101.65 71.0349 100.931 69.9967C100.129 68.8779 99.4127 67.7198 98.6112 66.5585C98.4139 66.2777 98.1316 66.0379 97.8917 65.7996C97.0523 64.8782 96.2129 63.9173 95.1351 63.2388C93.5472 62.2427 91.8763 61.3855 90.1411 60.6765C89.6593 60.4697 89.1927 60.2292 88.7446 59.957H89.7009L96.5316 59.8355C98.0101 59.7976 99.4491 59.7976 100.926 59.7171C101.284 59.7171 101.485 59.8386 101.685 60.1573C102.043 60.7569 102.403 61.3565 102.802 61.9576C102.843 62.0366 102.924 62.155 102.924 62.2764C102.924 63.1568 102.924 64.0767 102.963 64.9571C103.001 65.877 103.085 66.7574 103.121 67.6773C103.121 68.5971 103.041 69.5565 103.082 70.5158C103.123 71.8774 103.162 73.2785 103.162 74.675L103.168 74.678ZM60.1859 61.2837C62.0636 61.2032 63.8594 61.0833 65.6991 61.0028C67.1336 60.9224 68.6136 60.8814 70.0496 60.8025C70.6491 60.7645 71.2093 60.7266 71.8073 60.8025C71.1698 61.1243 70.5292 61.4446 69.9706 61.8438C69.2511 62.3235 68.5741 62.9625 67.8531 63.4832C67.1321 64.0023 66.493 64.6429 65.8949 65.3229C65.136 66.2413 64.2965 67.0412 63.4966 67.9216C62.9349 68.5622 62.2974 69.1618 61.8193 69.8418C61.1407 70.7223 60.5411 71.6786 59.9021 72.6804C60.1025 68.8795 60.3423 65.121 60.1814 61.2806L60.1859 61.2837ZM86.2718 99.7636C84.9922 100.082 83.6762 100.444 82.3555 100.603C81.2383 100.764 80.0786 100.724 78.9204 100.724C77.8931 100.725 76.8661 100.684 75.842 100.603C74.6839 100.485 73.5257 100.365 72.4069 99.844C71.4461 99.4038 70.4488 99.0046 69.4925 98.5234C68.5301 98.0438 67.5723 97.4852 66.8512 96.6047C66.3351 95.9627 65.6141 95.4435 64.9751 94.8834C65.0965 95.3631 65.3743 95.7638 65.8145 96.0431C65.6141 96.2829 65.3348 96.1645 64.9341 95.5225C64.8157 95.6029 64.6958 95.6439 64.6153 95.6834C64.7367 95.4025 64.8551 95.1217 64.9751 94.8834C64.8157 94.5646 64.6153 94.2034 64.4559 93.8815C64.1372 93.3624 63.8184 92.8038 63.5376 92.2832C63.4571 92.1617 63.4571 92.0433 63.3782 91.9234C63.1788 91.6928 62.9914 91.4521 62.8165 91.2024C62.4978 90.7242 62.2185 90.2051 61.8193 89.7239C61.8193 89.8453 61.8602 89.9637 61.8602 90.1246C61.8193 90.1246 61.7798 90.1641 61.7798 90.1641L60.9389 88.124C60.8994 88.124 60.8994 88.124 60.8599 88.1634L61.5779 90.8047C61.5384 90.8047 61.499 90.8426 61.4565 90.8426C61.3396 90.6848 61.2197 90.5239 61.1377 90.3265C61.0588 90.0047 60.8189 90.0047 60.6216 90.1246C60.5002 90.2051 60.4197 90.4844 60.4607 90.6043C60.7415 91.2843 61.0603 91.9644 61.3806 92.6444C61.4595 92.8843 61.54 93.0846 61.6599 93.3245C61.7009 93.4049 61.8208 93.4838 61.8208 93.6038C61.9817 93.9225 62.1016 94.2413 62.3004 94.5236C62.6602 95.0033 63.0594 95.483 63.4192 95.9627C63.7759 96.4423 64.0947 96.9645 64.4149 97.4427C64.4544 97.5231 64.5743 97.5231 64.6123 97.5641C64.8142 98.1637 65.4927 98.6024 65.9724 98.3625C66.0938 99.2824 67.0911 99.6027 67.4903 100.483C67.0983 100.323 66.712 100.149 66.3321 99.9624C66.2911 100.002 66.2911 100.041 66.2501 100.122C66.7298 100.362 67.2095 100.601 67.6466 100.881C68.0489 101.124 68.4481 101.362 68.8079 101.64C69.2875 102.08 69.8477 102.323 70.5232 102.481C70.5096 102.422 70.4837 102.366 70.4473 102.318C71.5645 102.839 72.7242 103.399 73.6016 103.836C69.4469 103.918 65.013 103.999 60.4182 104.079C60.4182 103.32 60.3787 102.599 60.3787 101.839C60.3787 101.52 60.4577 101.239 60.4167 100.919C60.2952 99.082 60.2952 97.2392 60.0569 95.439C59.8186 93.5203 59.8186 91.6395 59.8596 89.7163C59.8975 88.6796 59.8186 87.6003 59.7776 86.559C59.7776 85.1594 59.7776 83.7963 59.8201 82.3998C59.8201 82.1994 59.9006 82.0401 59.981 81.8382H60.1025C60.1404 81.9201 60.1025 82.0401 60.1784 82.081C60.2998 82.2025 60.5002 82.3998 60.5806 82.3603C60.8189 82.1994 61.1787 82.0416 61.2591 81.7987C61.4565 81.3206 61.5384 80.7999 61.5384 80.3202C61.5384 79.962 61.6993 79.7222 61.8572 79.4808C61.9392 79.3594 61.9786 79.241 62.0591 79.0816C61.8997 78.9601 61.7403 78.8812 61.54 78.7218C61.7009 78.2816 61.6614 77.761 62.261 77.5226C62.3399 77.4817 62.3399 77.2798 62.3824 77.1614C62.4204 76.8381 62.4583 76.4783 62.5008 76.1595C62.5797 76.281 62.6222 76.3189 62.6981 76.3978C62.7207 76.3544 62.7482 76.3136 62.7801 76.2764C62.7801 76.1186 62.7407 75.7983 62.7801 75.7983C63.2598 75.7178 63.0594 75.1987 63.2993 74.9588C63.3372 74.9163 63.2583 74.7964 63.2583 74.716C63.2583 74.637 63.2583 74.5186 63.2977 74.5186C63.8548 74.3972 63.7759 73.7976 64.1356 73.5168C64.2571 73.4363 64.295 73.3195 64.4544 73.1176C64.7732 73.6762 64.2146 73.957 64.1751 74.3562C64.8521 73.957 65.0525 72.9977 64.6533 72.7168C64.8126 72.5954 64.972 72.4375 65.0935 72.2766C65.5337 71.797 66.0103 71.3568 66.411 70.8771C66.6919 70.5189 66.8512 70.0786 67.1305 69.7189C67.2915 69.5185 67.6102 69.3591 67.8501 69.2377C68.5696 68.84 69.2466 68.3998 69.6868 67.7198C69.7672 67.6393 69.8871 67.5604 70.0055 67.4799C70.127 67.3995 70.3668 67.3995 70.4063 67.2795C70.4473 67.2006 70.3273 67.0002 70.2469 66.8803C70.4048 66.7999 70.5657 66.6405 70.8844 66.4796C70.763 66.7194 70.725 66.8803 70.6446 67.0412L70.8419 67.2386C71.2032 66.9593 71.7618 66.6405 72.1216 66.4007C72.1216 66.3627 71.9212 66.2033 71.9212 66.2033C71.6829 66.3248 71.3231 66.5221 70.9649 66.683C71.0408 66.5616 71.0408 66.4826 71.0863 66.4432C71.6434 66.0834 72.202 65.7237 72.8016 65.4413C74.1981 64.8038 75.5977 64.1632 76.9957 63.5636C77.2355 63.4422 77.5573 63.5242 77.8351 63.5242C77.9535 63.5242 78.0324 63.5242 78.1539 63.4847C78.7914 63.2843 79.432 63.0839 80.071 62.923C80.3488 62.8441 80.6676 62.8046 80.9514 62.8046C82.1461 62.8426 83.3452 62.8426 84.5429 62.923C85.062 62.9625 85.5417 63.0824 86.0214 63.2418C86.6363 63.4555 87.2367 63.7091 87.8186 64.0008C88.4972 64.3651 89.1362 64.7628 89.7768 65.203C90.935 65.962 92.0127 66.8029 93.1709 67.483C94.2896 68.163 95.1685 69.0829 95.888 70.1242C96.7684 71.3628 97.7657 72.4831 98.1649 74.0025L98.763 76.6438C98.8845 77.1234 99.1638 77.6031 99.0438 78.1617C98.842 79.1636 98.6826 80.2033 98.5232 81.2037C98.4442 81.6059 98.3638 82.0082 98.4048 82.4028C98.4807 83.6476 98.0025 84.7253 97.5244 85.8455C97.3635 86.2053 97.1236 86.5666 96.9248 86.9658C97.0225 87.0349 97.1299 87.0891 97.2436 87.1267L97.6033 86.4072C97.6443 86.4072 97.6443 86.4072 97.6838 86.4482C97.4834 87.0068 97.324 87.6079 97.1221 88.168C96.6455 89.4082 96.1658 90.6878 95.5662 91.887C95.2475 92.567 94.6858 93.1271 94.2881 93.7692C93.8904 94.3278 93.5701 94.9274 93.1709 95.4481C92.8112 95.8883 92.4529 96.3285 91.9717 96.6472C90.894 97.4472 89.7753 98.2472 88.6171 98.8877C87.8991 99.3279 87.0597 99.5678 86.2612 99.7681L86.2718 99.7636ZM64.9796 97.6385L64.9402 97.6794C64.8567 97.64 64.7367 97.6005 64.6578 97.5201L63.6985 96.078C63.6195 95.9596 63.577 95.8397 63.6195 95.6803C64.0597 96.3604 64.4999 97.0009 64.9781 97.6385H64.9796ZM89.8284 103.118C91.6241 102.359 93.1026 101.282 94.4581 100.04C94.66 99.8395 94.8589 99.6406 95.0987 99.4782C96.7775 98.4399 98.0132 96.9994 99.1334 95.3995C100.412 93.5597 101.251 91.4802 102.291 89.5205C102.361 89.3691 102.441 89.2221 102.529 89.0803C102.449 93.6402 102.969 98.1197 103.567 102.64C99.0545 102.799 94.4596 102.959 89.8269 103.12L89.8284 103.118ZM130.332 101.919C130.292 102 130.21 102.08 130.172 102.162C130.131 102.08 130.131 101.96 130.092 101.798C129.852 102.44 129.333 102.119 128.973 102.119C126.818 102.16 124.62 102.16 122.461 102.16C120.385 102.16 118.269 102.16 116.192 102.197C115.512 102.197 114.793 102.356 114.112 102.397C112.476 102.476 110.838 102.519 109.2 102.557C109.079 102.557 108.961 102.359 108.76 102.198C108.69 102.324 108.61 102.445 108.52 102.558C108.478 102.479 108.399 102.4 108.318 102.28C108.279 102.402 108.238 102.52 108.197 102.599H108.082C108.001 102.041 107.842 101.521 107.842 100.96C107.842 99.7606 107.963 98.5614 108.001 97.3592C108.042 96.8006 108.001 96.2814 108.001 95.7592C108.162 95.8807 108.282 95.9611 108.441 96.078C108.52 95.9217 108.601 95.8018 108.681 95.6834C108.681 95.6834 108.601 95.6408 108.52 95.5619C108.596 95.5209 108.678 95.4405 108.678 95.401C108.718 95.2796 108.8 95.1612 108.8 95.0822C108.8 94.8014 108.718 94.5616 108.678 94.3233C108.718 94.3233 108.757 94.3233 108.8 94.2808L109.038 95.4799H109.159C108.999 95.2022 109.518 94.9608 109.079 94.642C109.04 94.6011 109.118 94.3612 109.118 94.2413C108.997 94.003 108.921 93.7631 108.8 93.4429C108.839 93.4034 108.959 93.3624 109.079 93.3214C108.92 93.2425 108.8 93.1636 108.68 93.1241C109.079 92.7628 109.079 92.5625 108.719 92.1632C108.801 92.1253 108.88 92.1253 108.88 92.0873C108.88 91.7261 108.88 91.3663 108.801 91.0096C108.721 90.6058 108.923 90.1292 108.322 89.8863C108.361 90.0078 108.402 90.0867 108.481 90.2051C108.481 90.2051 108.359 90.2461 108.241 90.3265C107.722 89.8453 108.044 89.2032 107.922 88.4853C108.202 88.5657 108.402 88.6462 108.601 88.7281C108.52 88.4458 108.322 88.1255 108.202 87.7657H108.039V85.1245C108.039 85.1655 108.318 85.1655 108.479 85.2065C108.479 85.1655 108.517 85.126 108.517 85.0851C108.396 84.9257 108.237 84.7663 108.077 84.5659L108.158 84.4855C107.839 84.0878 107.998 83.5292 107.998 83.4077V80.6071C108.399 81.0079 107.801 81.527 108.399 81.7668V81.3676H108.358C108.318 80.768 108.318 80.1684 108.279 79.5673H108.2C108.159 79.6493 108.159 79.6888 108.118 79.7692H108.039L108.279 70.2092C108.678 70.7283 109.117 71.211 109.396 71.7271C110.316 73.409 111.514 74.8495 112.632 76.369C113.592 77.6896 114.469 79.1286 115.35 80.4887C116.427 82.1281 117.466 83.7675 118.545 85.4069C119.343 86.6485 120.184 87.8887 121.019 89.0894C121.778 90.1671 122.58 91.2084 123.378 92.2498C124.055 93.1696 124.775 94.0895 125.453 95.0094C126.253 96.1296 127.051 97.2484 127.851 98.3291C128.249 98.8877 128.689 99.4479 129.126 100.008C129.369 100.327 129.728 100.57 129.967 100.767C129.929 100.767 129.888 100.767 129.81 100.727C129.931 100.887 130.007 101.007 130.089 101.087C130.529 101.327 130.569 101.567 130.329 101.928L130.332 101.919ZM132.369 91.9219V91.6411C132.369 91.72 132.408 91.8384 132.369 91.9204V91.9219ZM133.727 74.2834C133.686 74.2834 133.448 74.0405 133.409 74.001C133.368 74.1225 133.409 74.2409 133.328 74.4018C133.287 74.2834 133.009 74.3228 133.009 74.2044C132.968 74.763 133.248 75.3231 133.207 75.8833C133.328 75.8028 133.806 75.7618 133.926 75.6434C133.967 75.6829 134.048 75.7224 134.087 75.7224C133.287 76.3235 133.488 76.9215 133.847 77.6046C133.926 77.7625 134.166 78.0828 133.926 78.4031C133.847 78.4835 133.967 78.7218 134.007 78.9237H134.124V78.9996L133.764 79.121C133.685 78.9996 133.207 78.7628 133.207 78.5594V80.6026C133.606 80.724 133.606 81.2826 133.765 81.5634C133.835 81.4659 133.89 81.3584 133.928 81.2447L133.969 81.2811C133.928 81.5209 133.888 81.7608 133.808 82.0021C133.729 82.3603 133.648 82.6806 133.61 83.0404C133.61 83.0798 133.686 83.1618 133.686 83.1998C133.249 84.2016 133.489 85.3188 133.33 86.3571C133.208 87.1161 133.33 87.9206 133.249 88.719C133.167 89.3991 133.006 90.1186 132.848 90.7986C132.807 90.92 132.727 90.958 132.53 91.0384C132.609 90.5588 132.569 90.2385 132.489 89.7983C132.446 89.7983 131.927 89.519 131.886 89.519C131.886 90.0806 132.205 90.8396 132.326 91.4771C132.205 91.4377 131.727 91.1584 131.689 91.1584C131.607 91.638 131.607 92.2786 131.567 92.7977C131.526 93.1985 131.168 93.5567 131.127 93.9969C131.127 94.2398 131.406 94.3977 131.367 94.7984H131.686C131.686 93.9999 132.047 93.2804 132.047 92.4395H132.165C132.206 92.52 132.326 92.6004 132.287 92.6399C132.206 93.0801 132.044 93.5597 132.086 93.9999C132.086 94.2398 132.284 94.4796 132.208 94.7589C132.126 95.0018 132.086 95.2401 132.045 95.5999C132.005 95.3995 131.965 95.3206 131.965 95.2006C131.926 95.2006 131.566 95.1597 131.525 95.1597C131.485 95.3995 131.806 95.6393 131.765 95.8397C131.725 95.8792 131.686 95.8792 131.605 95.9201L130.288 93.9984C129.246 92.4805 128.208 90.958 127.17 89.3991C126.901 89.0174 126.66 88.6166 126.449 88.1999C125.213 86.0712 123.839 84.0262 122.335 82.078C121.179 80.5995 120.256 78.9966 119.178 77.4407C118.182 75.9607 117.183 74.5202 116.184 73.0386C115.825 72.5605 115.386 72.1203 115.066 71.5996C114.029 69.9602 113.108 68.2799 112.072 66.6405C111.192 65.2789 110.236 63.9583 109.316 62.6392C108.997 62.199 108.678 61.7178 108.356 61.2381C108.306 61.1545 108.279 61.0593 108.278 60.9619C108.197 60.0815 108.117 59.201 108.077 58.3616C108.077 57.5617 108.158 56.7617 108.158 55.9208V55.2013C108.158 55.0009 108.196 54.8415 108.196 54.6396C108.233 54.6017 108.274 54.5212 108.314 54.4817C107.156 54.4817 105.957 54.4392 104.798 54.4817C104.039 54.5197 103.64 54.1994 103.121 53.6393C101.603 51.9195 100.484 49.9598 99.1668 48.12C97.9245 46.3696 96.6595 44.6355 95.3719 42.918C94.3321 41.5185 93.2923 40.1584 92.2556 38.7589C91.0959 37.159 89.9787 35.559 88.7795 33.9591C87.3267 32.0303 85.8618 30.1106 84.385 28.2C83.702 27.3196 82.943 26.4802 82.184 25.5588C82.7047 25.6408 83.1859 25.7197 83.664 25.7607L85.5827 25.8821C87.0202 25.999 88.4577 26.0795 89.8937 26.2768C91.0928 26.4392 92.292 26.6791 93.5307 26.8779C96.1689 27.3181 98.7645 28.0391 101.281 28.8786C102.76 29.3582 104.196 29.9988 105.638 30.5984C108.871 31.919 111.948 33.5189 114.984 35.1978C115.94 35.7184 116.502 36.5578 117.218 37.3183C118.258 38.3991 119.298 39.4784 120.295 40.5971C121.452 41.9177 122.529 43.2778 123.65 44.6379C124.647 45.837 125.684 47.0362 126.686 48.2384C127.004 48.5982 127.247 49.0384 127.524 49.4376C128.161 50.3985 128.882 51.3199 129.441 52.3581C129.838 53.1202 130.078 54.0006 130.358 54.84C130.755 56.0801 131.156 57.2793 131.557 58.5195C131.834 59.4394 132.073 60.4017 132.273 61.358C132.434 62.0001 132.395 62.6787 132.592 63.3162C132.835 64.1602 132.592 65.077 132.835 65.9195C132.873 65.9999 132.911 66.1198 132.953 66.2003C133.113 66.3582 133.233 66.5191 132.993 66.7589C132.955 66.7984 132.955 66.9562 132.993 67.0777C133.075 66.9987 133.114 66.9183 133.195 66.7984C133.195 66.8788 133.233 66.9198 133.233 66.9577C133.233 67.1156 133.192 67.2765 133.233 67.4359C133.233 67.5148 133.311 67.6332 133.351 67.7152C133.431 67.6332 133.51 67.5938 133.67 67.4723C134.029 68.8339 134.07 70.194 134.07 71.5936C134.07 72.9142 134.309 74.2348 133.752 75.5144C133.87 75.0742 133.591 74.6719 133.711 74.2727L133.727 74.2834Z" clip-rule="evenodd"/><path fill="#DD3735" fill-rule="evenodd" d="M108.203 89.8392C108.241 89.8392 108.282 89.8802 108.282 89.8802L108.241 89.8347C108.241 89.7967 108.241 89.7967 108.201 89.8347L108.203 89.8392ZM114.513 129.36C114.073 129.679 113.633 129.96 113.074 130.08C113.031 130.041 113.031 130 112.992 129.959C113.432 129.679 113.91 129.4 114.351 129.119C114.392 129.195 114.472 129.277 114.511 129.357L114.513 129.36ZM39.6145 75.1577C40.0547 74.6006 40.4949 74.0405 40.9715 73.4803C41.0095 73.5198 41.3282 73.6018 41.3692 73.6397C40.929 74.2014 40.3294 74.9603 39.8907 75.5599C39.8088 75.4795 39.6889 75.2002 39.6099 75.1592L39.6145 75.1577ZM28.2678 94.7619C27.9491 94.0819 27.6303 93.3609 27.3115 92.6824C27.4227 92.6119 27.5433 92.5578 27.6698 92.5215C28.11 93.159 28.3073 93.918 28.6291 94.601C28.6291 94.601 28.3103 94.7604 28.2693 94.7604L28.2678 94.7619ZM38.4563 75.5599C38.2164 75.9212 37.9766 76.3219 37.7368 76.6832C37.6973 76.6407 37.2571 76.8411 37.2176 76.8016C37.4575 76.4419 38.0555 75.7998 38.2954 75.4415C38.3364 75.481 38.3758 75.522 38.4563 75.563V75.5599ZM110.24 131.003C110.278 131.003 110.278 130.963 110.319 130.963C110.598 131.003 110.917 131.042 111.237 131.042C110.715 131.402 110.395 131.361 110.235 131.003H110.24ZM38.5322 77.2403C38.5747 77.1189 38.6536 77.0005 38.7341 76.8805C38.813 76.8805 38.9314 76.8396 38.9314 76.8396C39.0938 76.5603 39.0938 76.3599 39.2532 76.1201C39.2137 76.0806 39.1727 76.0806 39.1318 76.0396C38.8934 76.2035 38.6536 76.4039 38.4138 76.5633C38.4942 76.6422 38.4942 76.6847 38.4942 76.7637C38.1755 76.7227 38.054 76.8851 37.8946 77.3223C37.8552 77.4437 37.6548 77.4832 37.4544 77.641C37.415 77.723 37.3755 77.9234 37.2951 78.1222L37.336 78.1647C37.2556 78.2452 37.1357 78.2862 37.1357 78.2862C36.8958 78.5245 36.6165 78.7264 36.3767 78.9647C36.3372 79.0861 36.2978 79.2045 36.2978 79.3244C36.5786 79.0451 37.0567 78.5245 37.4165 78.2042L37.4575 78.2452C37.6169 78.0053 37.7368 77.7655 37.8977 77.5257C37.9356 77.5651 37.9356 77.6046 37.9766 77.6471C37.8552 77.9659 37.7368 78.3241 37.6169 78.6444C37.5334 78.6839 37.4135 78.7658 37.4135 78.7248C37.2541 78.8463 37.1341 79.0041 36.9732 79.1241L36.2553 79.6037C35.856 79.9635 35.4568 80.2823 35.0166 80.6435C34.7373 81.0837 34.458 81.483 34.1362 82.0036C34.6174 81.8822 34.7373 82.0841 34.6978 82.4848C35.2565 82.5637 35.2974 82.125 35.4568 81.8048C35.4963 81.7228 35.5373 81.5619 35.6162 81.5224C35.976 81.2036 36.3752 80.9243 36.7744 80.6041C36.8548 80.5236 36.8548 80.3612 36.8548 80.2428C36.8548 80.2033 36.653 80.2033 36.533 80.1623C36.8928 79.7616 37.4135 79.0846 37.7717 78.6444C37.9721 78.523 38.1709 78.3621 38.1709 78.2421C38.1314 77.8019 38.4107 77.6835 38.7325 77.5226C38.5716 77.4012 38.5307 77.2843 38.5307 77.2449L38.5322 77.2403Z" clip-rule="evenodd"/><path fill="#DD3735" fill-rule="evenodd" d="M39.3337 76.8001C39.1743 77.0794 39.0149 77.3192 38.8555 77.6L38.6157 77.4786C38.4563 78.397 37.8962 79.1969 37.3376 79.3563C37.497 79.4367 37.6563 79.5172 37.7778 79.4777C37.8962 79.4367 37.9751 79.2349 38.0556 79.1165L39.1333 77.556L39.4946 76.9549L39.3352 76.7955L39.3337 76.8001ZM26.0334 94.3597C26.2338 94.3597 26.4342 94.3991 26.671 94.3991C26.671 94.2397 26.8729 94.2777 26.8729 94.1198H26.9943C26.9943 94.3202 27.0338 94.4796 27.0338 94.6815H26.1959C26.1549 94.6405 25.9955 94.3991 26.035 94.3597H26.0334ZM25.7147 92.5199C25.5932 92.3985 25.3959 92.2801 25.3959 92.1602C25.3549 92.0023 25.4748 91.8034 25.5932 91.6031C25.6752 91.8824 25.7147 92.1222 25.7936 92.403C25.7526 92.441 25.7131 92.482 25.7131 92.5214L25.7147 92.5199ZM26.7135 89.9591C26.8729 90.3629 27.0322 90.8031 27.1931 91.2039C27.0798 91.2415 26.9725 91.2952 26.8744 91.3632C26.715 90.9625 26.5146 90.5223 26.3552 90.1231C26.4632 90.0459 26.5855 89.9912 26.715 89.9622L26.7135 89.9591ZM115.635 128.202C115.832 128.123 116.072 128.081 116.394 128.005C116.032 128.283 115.753 128.483 115.513 128.723C115.472 128.683 115.433 128.642 115.392 128.642C115.472 128.483 115.553 128.363 115.635 128.202ZM66.5353 43.6815C66.7736 43.5206 66.9755 43.4007 67.2138 43.2413L67.2927 43.3203C67.0498 43.639 66.8525 43.9578 66.5717 44.3601C66.5322 44.0823 66.5322 43.9199 66.4912 43.7225C66.4518 43.7225 66.4912 43.7225 66.5322 43.6831L66.5353 43.6815ZM78.2386 63.9203C78.5984 63.7594 78.9581 63.6015 79.3968 63.3996C79.3573 63.6395 79.3573 63.8004 79.3573 63.9613C79.2285 63.9146 79.0935 63.887 78.9566 63.8793C78.7168 63.9203 78.2766 64.2406 78.0762 64.2801C78.0383 64.2801 78.2371 63.9613 78.2371 63.9203H78.2386ZM108.203 97.8403C108.282 98.2395 109.041 98.4399 108.282 98.8391C108.403 98.9226 108.52 98.9606 108.64 99.0425C108.64 99.0835 108.601 99.164 108.561 99.2034C108.481 99.2414 108.321 99.3218 108.242 99.2793C108.201 99.2793 108.121 99.1215 108.121 99.041C108.121 98.6813 108.162 98.3215 108.201 97.8418L108.203 97.8403Z" clip-rule="evenodd"/></g><defs><clipPath id="clip0_2014_24719"><rect width="119.918" height="120" fill="#fff" transform="translate(20.041 20)"/></clipPath></defs></svg>