<svg xmlns="http://www.w3.org/2000/svg" width="160" height="160" fill="none" viewBox="0 0 160 160"><rect width="160" height="160" fill="#1B1F34" rx="20"/><path fill="#E55638" fill-rule="evenodd" d="M117.211 33.3389C121.239 35.4724 124.531 38.7649 126.659 42.7889C128.839 46.8639 130 50.9055 130 62.0472V81.6166C130 81.8692 129.847 82.0968 129.613 82.1935C129.379 82.2901 129.11 82.2368 128.931 82.0582V82.0555L121.54 74.6666C120.953 74.0798 120.624 73.2845 120.624 72.4555V63.4111C120.624 55.0527 119.753 52.0222 118.119 48.9666C116.522 45.949 114.052 43.4801 111.031 41.8805C108.01 40.2616 105.01 39.3934 96.851 39.3753L84.6324 39.375C84.3797 39.3736 84.1526 39.221 84.0565 38.9878C83.9603 38.7547 84.014 38.4867 84.1925 38.3083L91.5835 30.9167C92.1681 30.3306 92.9643 30 93.7939 30H97.9501C109.094 30 113.136 31.1611 117.211 33.3389ZM101.875 45.625C108.779 45.625 114.375 51.2222 114.375 58.125V66.0388C114.373 66.2882 114.224 66.5129 113.994 66.6107C113.764 66.7085 113.498 66.6608 113.317 66.4888L103.239 56.8555C102.571 56.1888 101.792 55.7055 100.959 55.4027C100.253 55.1358 99.5042 54.9993 98.749 55H69.0013C68.7481 54.9997 68.52 54.8475 68.4232 54.6141C68.3263 54.3807 68.3798 54.112 68.5587 53.9333L75.9608 46.5389C76.5454 45.9555 77.3388 45.625 78.1684 45.625H101.875Z" clip-rule="evenodd"/><path fill="#F4C942" fill-rule="evenodd" d="M121.69 84.1943L129.084 91.586C129.668 92.1721 130 92.9693 130 93.7971V97.9554C130 109.097 128.839 113.139 126.659 117.214C124.53 121.238 121.239 124.53 117.211 126.664C113.135 128.839 109.093 130 97.9497 130H78.3823C78.1297 129.998 77.9026 129.846 77.8064 129.613C77.7103 129.379 77.7639 129.112 77.9425 128.933V128.936L85.3335 121.544C85.9181 120.958 86.7143 120.628 87.5438 120.628H96.5884C104.945 120.628 107.974 119.758 111.031 118.122C114.052 116.522 116.521 114.054 118.118 111.036C119.752 107.98 120.624 104.95 120.624 96.5915V84.636C120.625 84.3846 120.777 84.1585 121.01 84.0621C121.243 83.9657 121.511 84.0178 121.69 84.1943ZM106.067 68.5666L113.461 75.9666C114.046 76.5527 114.374 77.3471 114.374 78.1777V101.883C114.374 108.786 108.779 114.383 101.875 114.383H93.9605C93.7106 114.382 93.4854 114.233 93.3874 114.003C93.2894 113.774 93.3372 113.508 93.5095 113.328V113.325L103.141 103.244C103.81 102.578 104.294 101.8 104.597 100.967C104.863 100.261 104.999 99.5124 104.998 98.7582V69.0083C104.999 68.7556 105.151 68.528 105.385 68.4314C105.619 68.3347 105.888 68.3881 106.067 68.5666Z" clip-rule="evenodd"/><path fill="#7B8FEA" fill-rule="evenodd" d="M31.0662 77.9415L38.4628 85.3332C39.0474 85.9193 39.3786 86.7165 39.3786 87.5443V96.5887C39.3786 104.947 40.2472 107.978 41.8841 111.033C43.4804 114.05 45.9488 116.519 48.9688 118.119C52.0255 119.755 55.057 120.625 63.414 120.625H75.3677C75.6213 120.624 75.8505 120.776 75.9481 121.009C76.0456 121.243 75.9923 121.512 75.8131 121.691L68.4165 129.083C67.8319 129.669 67.0357 130 66.209 130H62.0499C50.9064 130 46.8671 128.839 42.7916 126.661C38.7629 124.528 35.47 121.235 33.3406 117.211C31.1826 113.177 30.0233 109.175 30.0003 98.2847L30 78.3832C30.0013 78.1318 30.1535 77.9057 30.3862 77.8093C30.6189 77.7129 30.8868 77.765 31.0662 77.9415ZM46.6833 93.5109H46.6806L56.7635 103.144C57.4288 103.811 58.2111 104.294 59.0407 104.597C59.7255 104.858 60.4715 105 61.251 105H90.9987C91.2514 105.001 91.4785 105.154 91.5746 105.387C91.6708 105.62 91.6171 105.888 91.4386 106.066L84.0392 113.461C83.4546 114.044 82.6585 114.375 81.8317 114.375H58.1248C54.8061 114.371 51.6248 113.052 49.2807 110.708C46.9366 108.364 45.6218 105.186 45.6255 101.875V93.9609C45.6267 93.7116 45.7763 93.4868 46.0062 93.389C46.2361 93.2913 46.5022 93.339 46.6833 93.5109Z" clip-rule="evenodd"/><path fill="#D97EE8" fill-rule="evenodd" d="M66.0391 45.625C66.289 45.6262 66.5143 45.7755 66.6123 46.0049C66.7103 46.2342 66.6625 46.4998 66.4901 46.6805L56.8554 56.7638C56.1873 57.4305 55.7057 58.2083 55.4022 59.0416C55.1352 59.7474 54.9985 60.4956 54.9986 61.2499V90.9999C54.9961 91.2508 54.8436 91.4759 54.6111 91.5716C54.3787 91.6673 54.1114 91.615 53.9324 91.4388L46.5386 84.0388C45.9534 83.4522 45.6251 82.6581 45.6255 81.8305V58.125C45.6255 51.2222 51.2209 45.625 58.1248 45.625H66.0391ZM81.6173 30C81.87 30.0013 82.0971 30.154 82.1932 30.3872C82.2894 30.6203 82.2357 30.8883 82.0572 31.0667L74.6661 38.4583C74.0788 39.0444 73.2854 39.375 72.4558 39.375H63.4112C55.0542 39.375 52.0227 40.2444 48.9661 41.8805C45.945 43.4801 43.4756 45.949 41.8785 48.9666C40.2616 51.99 39.3915 54.9889 39.3734 63.1489L39.3731 75.3666C39.3717 75.618 39.2196 75.8441 38.9869 75.9405C38.7542 76.0369 38.4863 75.9848 38.3069 75.8083L30.9187 68.4166C30.3307 67.8303 30 67.0349 30 66.2055V62.0472C30 50.9055 31.1608 46.8639 33.3406 42.7889C35.4692 38.7649 38.7611 35.4724 42.7888 33.3389C46.8235 31.1829 50.8255 30.0233 61.7151 30.0003L81.6173 30Z" clip-rule="evenodd"/></svg>