<svg xmlns="http://www.w3.org/2000/svg" width="80" height="80" fill="none" viewBox="0 0 80 80"><rect width="80" height="80" fill="#1B1F34" rx="10.589"/><path fill="#E55638" fill-rule="evenodd" d="M58.6055 16.6694C60.6194 17.7362 62.2653 19.3825 63.3296 21.3945C64.4195 23.432 64.9999 25.4528 64.9999 31.0237V40.8084C64.9999 40.9347 64.9235 41.0485 64.8066 41.0969C64.6896 41.1452 64.555 41.1185 64.4654 41.0292V41.0279L60.7699 37.3334C60.4765 37.04 60.3118 36.6424 60.312 36.2278V31.7056C60.312 27.5264 59.8763 26.0111 59.0593 24.4834C58.2607 22.9745 57.026 21.7401 55.5155 20.9403C54.0046 20.1308 52.5047 19.6967 48.4253 19.6877L42.316 19.6875C42.1897 19.6868 42.0761 19.6105 42.028 19.4939C41.98 19.3774 42.0068 19.2434 42.0961 19.1542L45.7916 15.4583C46.0839 15.1653 46.482 15 46.8968 15H48.9749C54.5467 15 56.5677 15.5806 58.6055 16.6694ZM50.9375 22.8125C54.3894 22.8125 57.1871 25.6111 57.1871 29.0625V33.0195C57.1865 33.1442 57.1117 33.2566 56.9968 33.3054C56.8818 33.3543 56.7488 33.3305 56.6582 33.2445L51.6195 28.4278C51.2854 28.0945 50.8957 27.8528 50.4795 27.7014C50.1264 27.568 49.7519 27.4997 49.3744 27.5H34.5004C34.3738 27.4999 34.2598 27.4238 34.2113 27.3071C34.1629 27.1904 34.1896 27.0561 34.2791 26.9667L37.9802 23.2695C38.2725 22.9778 38.6692 22.8125 39.084 22.8125H50.9375Z" clip-rule="evenodd"/><path fill="#F4C942" fill-rule="evenodd" d="M60.8453 42.0967L64.5422 45.7926C64.8345 46.0856 65.0002 46.4842 65.0002 46.8981V48.9773C65.0002 54.5481 64.4198 56.569 63.3299 58.6065C62.2656 60.6185 60.6196 62.2647 58.6058 63.3315C56.568 64.419 54.5469 64.9996 48.9751 64.9996H39.1914C39.0651 64.9989 38.9515 64.9226 38.9034 64.806C38.8554 64.6894 38.8822 64.5554 38.9715 64.4662V64.4676L42.667 60.7718C42.9593 60.4787 43.3574 60.3134 43.7722 60.3134H48.2945C52.473 60.3134 53.9874 59.8787 55.5157 59.0607C57.0263 58.2609 58.261 57.0264 59.0595 55.5176C59.8766 53.9898 60.3122 52.4745 60.3122 48.2954V42.3176C60.3129 42.1919 60.389 42.0788 60.5053 42.0306C60.6217 41.9824 60.7556 42.0084 60.8453 42.0967ZM53.0339 34.2828L56.7309 37.9828C57.0232 38.2759 57.1874 38.6731 57.1874 39.0884V50.9412C57.1874 54.3926 54.3897 57.1912 50.9377 57.1912H46.9805C46.8556 57.1906 46.743 57.116 46.694 57.0013C46.645 56.8866 46.6689 56.7538 46.755 56.6634V56.662L51.571 51.6218C51.9051 51.2884 52.1473 50.8995 52.299 50.4829C52.432 50.1299 52.5 49.7558 52.4995 49.3787V34.5036C52.4996 34.3773 52.5759 34.2635 52.6928 34.2152C52.8098 34.1669 52.9444 34.1935 53.0339 34.2828Z" clip-rule="evenodd"/><path fill="#7B8FEA" fill-rule="evenodd" d="M15.5331 38.9709L19.2314 42.6667C19.5237 42.9598 19.6893 43.3584 19.6893 43.7723V48.2945C19.6893 52.4737 20.1236 53.989 20.9421 55.5168C21.7403 57.0254 22.9744 58.2598 24.4845 59.0598C26.0128 59.8779 27.5286 60.3126 31.7071 60.3126H37.6839C37.8108 60.3122 37.9254 60.3881 37.9742 60.5049C38.0229 60.6218 37.9963 60.7564 37.9066 60.846L34.2083 64.5418C33.916 64.8349 33.518 65.0001 33.1046 65.0001H31.0251C25.4532 65.0001 23.4336 64.4196 21.3958 63.3307C19.3814 62.2641 17.735 60.6179 16.6703 58.6057C15.5913 56.5885 15.0117 54.5877 15.0002 49.1425L15 39.1917C15.0007 39.066 15.0767 38.9529 15.1931 38.9048C15.3094 38.8566 15.4434 38.8826 15.5331 38.9709ZM23.3417 46.7556H23.3403L28.3818 51.5723C28.7145 51.9056 29.1056 52.1473 29.5204 52.2987C29.8628 52.4293 30.2358 52.5001 30.6256 52.5001H45.4995C45.6258 52.5008 45.7394 52.5771 45.7875 52.6937C45.8355 52.8103 45.8087 52.9442 45.7194 53.0334L42.0197 56.7307C41.7274 57.0223 41.3294 57.1876 40.916 57.1876H29.0625C27.4031 57.1858 25.8124 56.5263 24.6404 55.3541C23.4683 54.182 22.8109 52.5934 22.8128 50.9376V46.9806C22.8134 46.856 22.8882 46.7436 23.0031 46.6947C23.1181 46.6458 23.2511 46.6696 23.3417 46.7556Z" clip-rule="evenodd"/><path fill="#D97EE8" fill-rule="evenodd" d="M33.0197 22.8125C33.1446 22.8131 33.2572 22.8878 33.3062 23.0025C33.3552 23.1172 33.3313 23.2499 33.2451 23.3403L28.4277 28.382C28.0937 28.7153 27.8529 29.1042 27.7012 29.5209C27.5677 29.8738 27.4993 30.2479 27.4993 30.625V45.5001C27.4981 45.6255 27.4218 45.7381 27.3056 45.7859C27.1894 45.8338 27.0558 45.8076 26.9662 45.7195L23.2693 42.0195C22.9767 41.7262 22.8126 41.3292 22.8128 40.9154V29.0625C22.8128 25.6111 25.6105 22.8125 29.0625 22.8125H33.0197ZM40.8088 15C40.9351 15.0007 41.0487 15.077 41.0967 15.1936C41.1448 15.3102 41.118 15.4441 41.0287 15.5333L37.3332 19.2292C37.0395 19.5222 36.6428 19.6875 36.228 19.6875H31.7057C27.5272 19.6875 26.0114 20.1222 24.4831 20.9403C22.9725 21.7401 21.7378 22.9745 20.9393 24.4834C20.1308 25.9951 19.6958 27.4945 19.6867 31.5745L19.6866 37.6834C19.6859 37.8091 19.6098 37.9222 19.4935 37.9704C19.3771 38.0186 19.2431 37.9925 19.1535 37.9042L15.4593 34.2084C15.1654 33.9152 15 33.5175 15 33.1028V31.0237C15 25.4528 15.5804 23.432 16.6703 21.3945C17.7346 19.3825 19.3806 17.7362 21.3944 16.6694C23.4118 15.5914 25.4128 15.0117 30.8576 15.0002L40.8088 15Z" clip-rule="evenodd"/></svg>