<svg width="161" height="160" viewBox="0 0 161 160" fill="none" xmlns="http://www.w3.org/2000/svg">
<rect x="0.25" width="160" height="160" rx="20" fill="#63B3A4"/>
<g clip-path="url(#clip0_2014_24800)">
<path d="M120.972 86.3654H39.4033V81.7534C39.4033 78.6544 41.9088 76.1423 44.9994 76.1423H115.375C118.466 76.1423 120.972 78.6544 120.972 81.7534V86.3654Z" fill="#DFDEDF"/>
<path d="M115.288 139.851H45.0848C41.9465 139.851 39.4023 137.3 39.4023 134.154V86.3654H120.971V134.154C120.971 137.3 118.427 139.851 115.288 139.851" fill="white"/>
<path d="M119.958 85.4381V81.302C119.958 78.8603 117.984 76.8808 115.549 76.8808H44.9508C42.5154 76.8808 40.5414 78.8603 40.5414 81.302V85.4381H119.958ZM119.958 134.745V87.2929H40.5414V134.745C40.5414 137.187 42.5154 139.166 44.9508 139.166H115.549C117.984 139.166 119.958 137.187 119.958 134.745V134.745ZM45.3648 75.0263L45.6395 72.0197L44.4732 75.0503C44.6313 75.0383 44.7895 75.0263 44.9508 75.0263H45.3648ZM114.651 69.9579L115.058 75.0263H115.549C115.812 75.0263 116.069 75.0477 116.323 75.0793L114.651 69.9579ZM120.251 77.1728C121.217 78.2776 121.808 79.7203 121.808 81.302V134.745C121.808 138.205 119 141.021 115.549 141.021H44.9508C41.4995 141.021 38.6914 138.205 38.6914 134.745V81.302C38.6914 79.6249 39.3547 78.1031 40.4274 76.9758L46.6677 60.7592L49.3888 30.9563L52.4589 31.2379L50.007 58.0909L50.8706 58.4249L49.6986 61.4712L48.4609 75.0263H111.965L108.441 31.1637L111.514 30.9153L113.592 56.7843L113.594 56.7839L120.251 77.1728ZM45.5604 79.9039C46.3318 79.9039 46.9572 80.5309 46.9572 81.3043C46.9572 82.0777 46.3318 82.7047 45.5604 82.7047C44.789 82.7047 44.1636 82.0777 44.1636 81.3043C44.1636 80.5309 44.789 79.9039 45.5604 79.9039ZM50.3357 79.9039C51.1072 79.9039 51.7325 80.5309 51.7325 81.3043C51.7325 82.0777 51.1072 82.7047 50.3357 82.7047C49.5643 82.7047 48.939 82.0777 48.939 81.3043C48.939 80.5309 49.5643 79.9039 50.3357 79.9039ZM54.9606 79.9039C55.732 79.9039 56.3573 80.5309 56.3573 81.3043C56.3573 82.0777 55.732 82.7047 54.9606 82.7047C54.1892 82.7047 53.5638 82.0777 53.5638 81.3043C53.5638 80.5309 54.1892 79.9039 54.9606 79.9039Z" fill="black"/>
<path d="M50.3867 110.292C50.6267 110.014 50.7529 109.648 50.7529 109.194C50.7529 108.739 50.6267 108.388 50.3867 108.11C50.1341 107.831 49.7802 107.7 49.3257 107.7H47.1026V110.702H49.3257C49.7802 110.702 50.1341 110.57 50.3867 110.292ZM49.3257 105.898C50.2854 105.898 51.0435 106.191 51.6117 106.792C52.1802 107.392 52.4581 108.197 52.4581 109.194C52.4581 110.204 52.1802 110.995 51.6247 111.595C51.0562 112.196 50.2984 112.503 49.3257 112.503H47.1026V116.544H45.3848V105.898H49.3257ZM58.5933 112.427V109.322H60.4433V116.334H58.5933V115.701C58.0326 116.263 57.3041 116.544 56.393 116.544C55.5521 116.544 54.8794 116.263 54.3609 115.715C53.8424 115.168 53.5901 114.465 53.5901 113.594V109.322H55.4401V113.2C55.4401 113.692 55.5661 114.1 55.8323 114.395C56.0846 114.69 56.4209 114.844 56.8554 114.844C58.0187 114.844 58.5933 114.043 58.5933 112.427V112.427ZM67.6603 114.352C68.0246 113.973 68.2067 113.467 68.2067 112.835C68.2067 112.203 68.0246 111.683 67.6603 111.303C67.2817 110.924 66.8194 110.727 66.2447 110.727C65.7262 110.727 65.2639 110.924 64.8574 111.317C64.4509 111.711 64.2548 112.216 64.2548 112.835C64.2548 113.453 64.4509 113.959 64.8574 114.338C65.2639 114.732 65.7262 114.929 66.2447 114.929C66.8194 114.929 67.2817 114.732 67.6603 114.352V114.352ZM66.5671 109.111C67.4781 109.111 68.2908 109.463 68.9778 110.165C69.6645 110.882 70.0006 111.767 70.0006 112.835C70.0006 113.903 69.6645 114.788 68.9778 115.491C68.2908 116.193 67.4921 116.544 66.5671 116.544C65.6561 116.544 64.8853 116.291 64.2548 115.786V119.679H62.4048V109.322H64.2548V109.884C64.8713 109.364 65.6421 109.111 66.5671 109.111V109.111ZM76.6572 114.352C77.0215 113.973 77.2036 113.467 77.2036 112.835C77.2036 112.203 77.0215 111.683 76.6572 111.303C76.2786 110.924 75.8163 110.727 75.2416 110.727C74.7231 110.727 74.2608 110.924 73.8543 111.317C73.4478 111.711 73.2514 112.216 73.2514 112.835C73.2514 113.453 73.4478 113.959 73.8543 114.338C74.2608 114.732 74.7231 114.929 75.2416 114.929C75.8163 114.929 76.2786 114.732 76.6572 114.352V114.352ZM75.5637 109.111C76.4747 109.111 77.2877 109.463 77.9747 110.165C78.6611 110.882 78.9975 111.767 78.9975 112.835C78.9975 113.903 78.6611 114.788 77.9747 115.491C77.2877 116.193 76.489 116.544 75.5637 116.544C74.653 116.544 73.8822 116.291 73.2514 115.786V119.679H71.4017V109.322H73.2514V109.884C73.8682 109.364 74.639 109.111 75.5637 109.111V109.111ZM81.7298 112.02H85.1074C84.9954 111.584 84.785 111.261 84.4908 111.05C84.1963 110.839 83.8463 110.727 83.4535 110.727C83.0756 110.727 82.7109 110.839 82.3885 111.064C82.0522 111.289 81.8278 111.612 81.7298 112.02ZM83.4535 109.111C84.4067 109.111 85.2337 109.448 85.9204 110.109C86.607 110.783 86.9574 111.64 86.9996 112.694V113.327H81.6739C81.772 113.818 81.982 114.212 82.3048 114.507C82.6269 114.802 82.9911 114.956 83.4256 114.956C84.2246 114.956 84.7993 114.647 85.1635 114.029L86.8174 114.38C86.523 115.097 86.0746 115.631 85.4859 115.997C84.8973 116.362 84.2106 116.544 83.4256 116.544C82.4165 116.544 81.5616 116.193 80.8749 115.505C80.1882 114.816 79.8376 113.917 79.8376 112.835C79.8376 111.753 80.1882 110.854 80.8889 110.151C81.5756 109.463 82.4307 109.111 83.4535 109.111V109.111ZM92.1004 114.816C92.4507 114.816 92.8432 114.704 93.2637 114.479L93.7961 116.025C93.1513 116.376 92.5487 116.544 91.9741 116.544C91.1192 116.544 90.4465 116.306 89.9559 115.842C89.4656 115.378 89.2273 114.69 89.2273 113.748V110.839H87.7276V109.322H89.2273V107.2H91.0773V109.322H93.3617V110.839H91.0773V113.608C91.0773 114.409 91.4137 114.816 92.1004 114.816V114.816ZM95.9817 112.02H99.3593C99.2473 111.584 99.0369 111.261 98.7428 111.05C98.4483 110.839 98.0983 110.727 97.7054 110.727C97.3275 110.727 96.9629 110.839 96.6405 111.064C96.3041 111.289 96.0798 111.612 95.9817 112.02ZM97.7054 109.111C98.6587 109.111 99.4856 109.448 100.172 110.109C100.859 110.783 101.209 111.64 101.252 112.694V113.327H95.9259C96.0239 113.818 96.234 114.212 96.5567 114.507C96.8788 114.802 97.2431 114.956 97.6775 114.956C98.4765 114.956 99.0512 114.647 99.4155 114.029L101.069 114.38C100.775 115.097 100.327 115.631 99.7379 115.997C99.1493 116.362 98.4626 116.544 97.6775 116.544C96.6684 116.544 95.8135 116.193 95.1269 115.505C94.4402 114.816 94.0895 113.917 94.0895 112.835C94.0895 111.753 94.4402 110.854 95.1408 110.151C95.8275 109.463 96.6827 109.111 97.7054 109.111V109.111ZM104.292 112.02H107.669C107.557 111.584 107.347 111.261 107.053 111.05C106.758 110.839 106.408 110.727 106.016 110.727C105.638 110.727 105.273 110.839 104.951 111.064C104.614 111.289 104.39 111.612 104.292 112.02ZM106.016 109.111C106.969 109.111 107.796 109.448 108.482 110.109C109.169 110.783 109.519 111.64 109.562 112.694V113.327H104.236C104.334 113.818 104.544 114.212 104.867 114.507C105.189 114.802 105.553 114.956 105.988 114.956C106.787 114.956 107.361 114.647 107.726 114.029L109.38 114.38C109.085 115.097 108.637 115.631 108.048 115.997C107.459 116.362 106.773 116.544 105.988 116.544C104.979 116.544 104.124 116.193 103.437 115.505C102.75 114.816 102.4 113.917 102.4 112.835C102.4 111.753 102.75 110.854 103.451 110.151C104.138 109.463 104.993 109.111 106.016 109.111V109.111ZM115.321 109.224C115.532 109.224 115.7 109.238 115.812 109.28L115.714 111.064H115.308C113.64 111.064 112.812 112.062 112.812 114.072V116.334H110.963V109.322H112.812V110.601C113.443 109.687 114.284 109.224 115.321 109.224Z" fill="black"/>
<path d="M107.229 59.8003L117.21 54.9692V50.1385L94.1502 39.0961L117.21 27.1914V22.5332L107.573 18.0471L80.269 31.6771L52.506 18.0471L43.5576 22.8782V27.0189L65.2401 38.9236L43.5576 49.966V54.9692L52.8502 59.8003L80.3836 45.6525L107.229 59.8003Z" fill="#00D8A2"/>
<path d="M108.48 57.8296V55.7488L115.993 51.8455V54.1828L108.48 57.8296ZM44.1623 51.7908L51.4221 55.9692V57.6326L44.1623 53.9503V51.7908ZM81.3484 43.0036L106.322 55.3751V57.8628L81.3484 45.0356V43.0036ZM53.5802 55.7371L79.1903 43.0062V45.0349L53.5802 58.0259V55.7371ZM71.714 34.9346L45.7977 22.3896L52.5101 18.9693L80.2692 33.3975L107.564 18.9755L114.513 22.5442L89.24 35.2962C88.2296 35.806 88.2312 37.253 89.2425 37.7604L114.255 50.3116L107.772 53.6798L80.2692 39.5511L52.2802 53.9682L45.8877 50.2888L71.7283 37.4105C72.752 36.9004 72.7435 35.433 71.714 34.9346V34.9346ZM44.4851 26.6399V24.3567L68.6559 36.4473L66.2124 37.4261L44.4851 26.6399ZM94.0481 37.5606C94.015 37.5404 91.7331 36.461 91.7331 36.461L115.993 24.2197V26.513L94.0481 37.5606ZM96.4763 38.7595L117.799 28.025C118.015 27.9163 118.152 27.6946 118.152 27.4524V22.3733C118.152 22.1327 118.017 21.9127 117.804 21.803L107.858 16.6955C107.676 16.6021 107.46 16.6018 107.278 16.6945L80.5559 30.2897C80.3757 30.3815 80.1627 30.3825 79.9815 30.2916L52.789 16.6906C52.6081 16.6001 52.3948 16.6011 52.2143 16.6929L42.3536 21.717C42.139 21.8264 42.0039 22.0471 42.0039 22.2883V27.4495C42.0039 27.6933 42.1419 27.916 42.3601 28.024L63.7727 38.6309L42.4591 49.2413C42.2458 49.3478 42.1088 49.5642 42.1046 49.8035L42.0114 54.8787C42.0068 55.1245 42.1432 55.3511 42.3617 55.4621L52.601 60.6561C52.7818 60.7476 52.9951 60.7479 53.1763 60.6568L79.9809 47.1622C80.162 47.0707 80.376 47.0714 80.5572 47.1635L107.028 60.6577C107.206 60.7482 107.416 60.7505 107.595 60.6633L117.791 55.7143C118.011 55.6072 118.152 55.3833 118.152 55.1378V49.8351C118.152 49.5906 118.013 49.3676 117.794 49.2599L96.4763 38.7595Z" fill="black"/>
</g>
<defs>
<clipPath id="clip0_2014_24800">
<rect width="83.1169" height="124.675" fill="white" transform="translate(38.6914 16.6234)"/>
</clipPath>
</defs>
</svg>
