<svg xmlns="http://www.w3.org/2000/svg" width="160" height="160" fill="none" viewBox="0 0 160 160"><rect width="160" height="160" fill="#63B3A4" rx="20"/><g clip-path="url(#clip0_781_8175)"><path fill="#DFDEDF" d="M120.721 86.3654H39.1528V81.7534C39.1528 78.6544 41.6584 76.1423 44.7489 76.1423H115.125C118.215 76.1423 120.721 78.6544 120.721 81.7534V86.3654Z"/><path fill="#fff" d="M115.039 139.851H44.8353C41.697 139.851 39.1528 137.3 39.1528 134.154V86.3654H120.721V134.154C120.721 137.3 118.177 139.851 115.039 139.851"/><path fill="#000" d="M119.708 85.4381V81.302C119.708 78.8602 117.734 76.8807 115.299 76.8807H44.7008C42.2654 76.8807 40.2914 78.8602 40.2914 81.302V85.4381H119.708ZM119.708 134.745V87.2929H40.2914V134.745C40.2914 137.186 42.2654 139.166 44.7008 139.166H115.299C117.734 139.166 119.708 137.186 119.708 134.745V134.745ZM45.1148 75.0262L45.3895 72.0197L44.2232 75.0503C44.3813 75.0382 44.5395 75.0262 44.7008 75.0262H45.1148ZM114.401 69.9578L114.808 75.0262H115.299C115.562 75.0262 115.819 75.0477 116.073 75.0793L114.401 69.9578ZM120.001 77.1727C120.967 78.2775 121.558 79.7202 121.558 81.302V134.745C121.558 138.205 118.75 141.02 115.299 141.02H44.7008C41.2495 141.02 38.4414 138.205 38.4414 134.745V81.302C38.4414 79.6249 39.1047 78.103 40.1774 76.9758L46.4177 60.7592L49.1388 30.9562L52.2089 31.2378L49.757 58.0909L50.6206 58.4248L49.4486 61.4711L48.2109 75.0262H111.715L108.191 31.1636L111.264 30.9152L113.342 56.7842L113.344 56.7839L120.001 77.1727ZM45.3104 79.9038C46.0818 79.9038 46.7072 80.5308 46.7072 81.3042C46.7072 82.0777 46.0818 82.7046 45.3104 82.7046C44.539 82.7046 43.9136 82.0777 43.9136 81.3042C43.9136 80.5308 44.539 79.9038 45.3104 79.9038ZM50.0857 79.9038C50.8572 79.9038 51.4825 80.5308 51.4825 81.3042C51.4825 82.0777 50.8572 82.7046 50.0857 82.7046C49.3143 82.7046 48.689 82.0777 48.689 81.3042C48.689 80.5308 49.3143 79.9038 50.0857 79.9038ZM54.7106 79.9038C55.482 79.9038 56.1073 80.5308 56.1073 81.3042C56.1073 82.0777 55.482 82.7046 54.7106 82.7046C53.9392 82.7046 53.3138 82.0777 53.3138 81.3042C53.3138 80.5308 53.9392 79.9038 54.7106 79.9038Z"/><path fill="#000" d="M50.1367 110.292C50.3767 110.014 50.5029 109.648 50.5029 109.194C50.5029 108.739 50.3767 108.388 50.1367 108.11C49.8841 107.831 49.5302 107.699 49.0757 107.699H46.8526V110.702H49.0757C49.5302 110.702 49.8841 110.57 50.1367 110.292ZM49.0757 105.898C50.0354 105.898 50.7935 106.191 51.3617 106.792C51.9302 107.392 52.2081 108.197 52.2081 109.194C52.2081 110.204 51.9302 110.995 51.3747 111.595C50.8062 112.196 50.0484 112.503 49.0757 112.503H46.8526V116.544H45.1348V105.898H49.0757ZM58.3433 112.427V109.322H60.1933V116.333H58.3433V115.701C57.7826 116.263 57.0541 116.544 56.143 116.544C55.3021 116.544 54.6294 116.263 54.1109 115.715C53.5924 115.167 53.3401 114.465 53.3401 113.594V109.322H55.1901V113.2C55.1901 113.692 55.3161 114.099 55.5823 114.395C55.8346 114.69 56.1709 114.844 56.6054 114.844C57.7687 114.844 58.3433 114.043 58.3433 112.427V112.427ZM67.4103 114.352C67.7746 113.973 67.9567 113.467 67.9567 112.835C67.9567 112.203 67.7746 111.682 67.4103 111.303C67.0317 110.924 66.5694 110.727 65.9947 110.727C65.4762 110.727 65.0139 110.924 64.6074 111.317C64.2009 111.711 64.0048 112.216 64.0048 112.835C64.0048 113.453 64.2009 113.959 64.6074 114.338C65.0139 114.732 65.4762 114.929 65.9947 114.929C66.5694 114.929 67.0317 114.732 67.4103 114.352V114.352ZM66.3171 109.111C67.2281 109.111 68.0408 109.463 68.7278 110.165C69.4145 110.882 69.7506 111.767 69.7506 112.835C69.7506 113.902 69.4145 114.788 68.7278 115.49C68.0408 116.193 67.2421 116.544 66.3171 116.544C65.4061 116.544 64.6353 116.291 64.0048 115.786V119.679H62.1548V109.322H64.0048V109.884C64.6213 109.364 65.3921 109.111 66.3171 109.111V109.111ZM76.4072 114.352C76.7715 113.973 76.9536 113.467 76.9536 112.835C76.9536 112.203 76.7715 111.682 76.4072 111.303C76.0286 110.924 75.5663 110.727 74.9916 110.727C74.4731 110.727 74.0108 110.924 73.6043 111.317C73.1978 111.711 73.0014 112.216 73.0014 112.835C73.0014 113.453 73.1978 113.959 73.6043 114.338C74.0108 114.732 74.4731 114.929 74.9916 114.929C75.5663 114.929 76.0286 114.732 76.4072 114.352V114.352ZM75.3137 109.111C76.2247 109.111 77.0377 109.463 77.7247 110.165C78.4111 110.882 78.7475 111.767 78.7475 112.835C78.7475 113.902 78.4111 114.788 77.7247 115.49C77.0377 116.193 76.239 116.544 75.3137 116.544C74.403 116.544 73.6322 116.291 73.0014 115.786V119.679H71.1517V109.322H73.0014V109.884C73.6182 109.364 74.389 109.111 75.3137 109.111V109.111ZM81.4798 112.02H84.8574C84.7454 111.584 84.535 111.261 84.2408 111.05C83.9463 110.839 83.5963 110.727 83.2035 110.727C82.8256 110.727 82.4609 110.839 82.1385 111.064C81.8022 111.289 81.5778 111.612 81.4798 112.02ZM83.2035 109.111C84.1567 109.111 84.9837 109.448 85.6704 110.109C86.357 110.783 86.7074 111.64 86.7496 112.694V113.327H81.4239C81.522 113.818 81.732 114.211 82.0548 114.507C82.3769 114.802 82.7411 114.956 83.1756 114.956C83.9746 114.956 84.5493 114.647 84.9135 114.029L86.5674 114.38C86.273 115.097 85.8246 115.631 85.2359 115.997C84.6473 116.362 83.9606 116.544 83.1756 116.544C82.1665 116.544 81.3116 116.193 80.6249 115.505C79.9382 114.816 79.5876 113.917 79.5876 112.835C79.5876 111.753 79.9382 110.854 80.6389 110.151C81.3256 109.463 82.1807 109.111 83.2035 109.111V109.111ZM91.8504 114.816C92.2007 114.816 92.5932 114.704 93.0137 114.479L93.5461 116.025C92.9013 116.376 92.2987 116.544 91.7241 116.544C90.8692 116.544 90.1965 116.305 89.7059 115.842C89.2156 115.378 88.9773 114.69 88.9773 113.748V110.839H87.4776V109.322H88.9773V107.2H90.8273V109.322H93.1117V110.839H90.8273V113.607C90.8273 114.409 91.1637 114.816 91.8504 114.816V114.816ZM95.7317 112.02H99.1093C98.9973 111.584 98.7869 111.261 98.4928 111.05C98.1983 110.839 97.8483 110.727 97.4554 110.727C97.0775 110.727 96.7129 110.839 96.3905 111.064C96.0541 111.289 95.8298 111.612 95.7317 112.02ZM97.4554 109.111C98.4087 109.111 99.2356 109.448 99.9223 110.109C100.609 110.783 100.959 111.64 101.002 112.694V113.327H95.6759C95.7739 113.818 95.984 114.211 96.3067 114.507C96.6288 114.802 96.9931 114.956 97.4275 114.956C98.2265 114.956 98.8012 114.647 99.1655 114.029L100.819 114.38C100.525 115.097 100.077 115.631 99.4879 115.997C98.8993 116.362 98.2126 116.544 97.4275 116.544C96.4184 116.544 95.5635 116.193 94.8769 115.505C94.1902 114.816 93.8395 113.917 93.8395 112.835C93.8395 111.753 94.1902 110.854 94.8908 110.151C95.5775 109.463 96.4327 109.111 97.4554 109.111V109.111ZM104.042 112.02H107.419C107.307 111.584 107.097 111.261 106.803 111.05C106.508 110.839 106.158 110.727 105.766 110.727C105.388 110.727 105.023 110.839 104.701 111.064C104.364 111.289 104.14 111.612 104.042 112.02ZM105.766 109.111C106.719 109.111 107.546 109.448 108.232 110.109C108.919 110.783 109.269 111.64 109.312 112.694V113.327H103.986C104.084 113.818 104.294 114.211 104.617 114.507C104.939 114.802 105.303 114.956 105.738 114.956C106.537 114.956 107.111 114.647 107.476 114.029L109.13 114.38C108.835 115.097 108.387 115.631 107.798 115.997C107.209 116.362 106.523 116.544 105.738 116.544C104.729 116.544 103.874 116.193 103.187 115.505C102.5 114.816 102.15 113.917 102.15 112.835C102.15 111.753 102.5 110.854 103.201 110.151C103.888 109.463 104.743 109.111 105.766 109.111V109.111ZM115.071 109.223C115.282 109.223 115.45 109.237 115.562 109.279L115.464 111.064H115.058C113.39 111.064 112.562 112.062 112.562 114.071V116.334H110.713V109.322H112.562V110.6C113.193 109.687 114.034 109.223 115.071 109.223Z"/><path fill="#00D8A2" d="M106.979 59.8002L116.96 54.9691V50.1384L93.9002 39.096L116.96 27.1913V22.533L107.323 18.047L80.019 31.677L52.256 18.047L43.3076 22.8781V27.0187L64.9901 38.9234L43.3076 49.9658V54.9691L52.6002 59.8002L80.1336 45.6523L106.979 59.8002Z"/><path fill="#000" d="M108.23 57.8295V55.7488L115.743 51.8454V54.1827L108.23 57.8295ZM43.9123 51.7908L51.1721 55.9692V57.6326L43.9123 53.9503V51.7908ZM81.0984 43.0036L106.072 55.3751V57.8627L81.0984 45.0355V43.0036ZM53.3302 55.7371L78.9403 43.0062V45.0348L53.3302 58.0258V55.7371ZM71.464 34.9345L45.5477 22.3895L52.2601 18.9692L80.0192 33.3974L107.314 18.9754L114.263 22.5441L88.99 35.2962C87.9796 35.8059 87.9812 37.2529 88.9925 37.7604L114.005 50.3116L107.522 53.6798L80.0192 39.5511L52.0302 53.9682L45.6377 50.2888L71.4783 37.4104C72.502 36.9004 72.4935 35.4329 71.464 34.9345V34.9345ZM44.2351 26.6399V24.3566L68.4059 36.4472L65.9624 37.4261L44.2351 26.6399ZM93.7981 37.5605C93.765 37.5403 91.4831 36.4609 91.4831 36.4609L115.743 24.2196V26.5129L93.7981 37.5605ZM96.2263 38.7594L117.549 28.025C117.765 27.9162 117.902 27.6946 117.902 27.4524V22.3732C117.902 22.1327 117.767 21.9126 117.554 21.8029L107.608 16.6955C107.426 16.602 107.21 16.6017 107.028 16.6945L80.3059 30.2896C80.1257 30.3814 79.9127 30.3824 79.7315 30.2916L52.539 16.6906C52.3581 16.6001 52.1448 16.6011 51.9643 16.6929L42.1036 21.717C41.889 21.8264 41.7539 22.0471 41.7539 22.2883V27.4494C41.7539 27.6933 41.8919 27.9159 42.1101 28.024L63.5227 38.6308L42.2091 49.2413C41.9958 49.3477 41.8588 49.5642 41.8546 49.8034L41.7614 54.8787C41.7568 55.1244 41.8932 55.351 42.1117 55.462L52.351 60.656C52.5318 60.7475 52.7451 60.7478 52.9263 60.6567L79.7309 47.1621C79.912 47.0707 80.126 47.0713 80.3072 47.1634L106.778 60.6577C106.956 60.7482 107.166 60.7504 107.345 60.6632L117.541 55.7143C117.761 55.6072 117.902 55.3832 117.902 55.1378V49.835C117.902 49.5905 117.763 49.3676 117.544 49.2598L96.2263 38.7594Z"/></g><defs><clipPath id="clip0_781_8175"><rect width="83.117" height="124.675" fill="#fff" transform="translate(38.4414 16.6234)"/></clipPath></defs></svg>