<svg xmlns="http://www.w3.org/2000/svg" width="60" height="60" fill="none" viewBox="0 0 60 60"><rect width="60" height="60" fill="#63B3A4" rx="10"/><g clip-path="url(#clip0_1202_39919)"><path fill="#DFDEDF" d="M45.2704 32.3883H14.6824V30.6588C14.6824 29.4967 15.6219 28.5547 16.7809 28.5547H43.1718C44.3309 28.5547 45.2704 29.4967 45.2704 30.6588V32.3883Z"/><path fill="#fff" d="M43.1395 52.4439H16.8133C15.6364 52.4439 14.6824 51.4873 14.6824 50.3074V32.3867H45.2704V50.3074C45.2704 51.4873 44.3165 52.4439 43.1395 52.4439"/><path fill="#000" d="M44.8906 32.0398V30.4888C44.8906 29.5731 44.1504 28.8308 43.2371 28.8308H16.7628C15.8495 28.8308 15.1093 29.5731 15.1093 30.4888V32.0398H44.8906ZM44.8906 50.5298V32.7354H15.1093V50.5298C15.1093 51.4455 15.8495 52.1877 16.7628 52.1877H43.2371C44.1504 52.1877 44.8906 51.4455 44.8906 50.5298V50.5298ZM16.918 28.1354L17.021 27.0079L16.5837 28.1444C16.643 28.1399 16.7023 28.1354 16.7628 28.1354H16.918ZM42.9003 26.2347L43.053 28.1354H43.2371C43.3356 28.1354 43.432 28.1434 43.5273 28.1553L42.9003 26.2347ZM45.0002 28.9403C45.3626 29.3546 45.5844 29.8956 45.5844 30.4888V50.5298C45.5844 51.8275 44.5313 52.8832 43.2371 52.8832H16.7628C15.4686 52.8832 14.4155 51.8275 14.4155 50.5298V30.4888C14.4155 29.8599 14.6643 29.2892 15.0665 28.8665L17.4066 22.7852L18.4271 11.6091L19.5784 11.7147L18.6589 21.7846L18.9827 21.9099L18.5432 23.0522L18.0791 28.1354H41.8932L40.5717 11.6869L41.7239 11.5938L42.5034 21.2946L42.5039 21.2945L45.0002 28.9403ZM16.9914 29.9645C17.2807 29.9645 17.5152 30.1996 17.5152 30.4896C17.5152 30.7797 17.2807 31.0148 16.9914 31.0148C16.7021 31.0148 16.4676 30.7797 16.4676 30.4896C16.4676 30.1996 16.7021 29.9645 16.9914 29.9645ZM18.7821 29.9645C19.0714 29.9645 19.3059 30.1996 19.3059 30.4896C19.3059 30.7797 19.0714 31.0148 18.7821 31.0148C18.4929 31.0148 18.2584 30.7797 18.2584 30.4896C18.2584 30.1996 18.4929 29.9645 18.7821 29.9645ZM20.5165 29.9645C20.8058 29.9645 21.0403 30.1996 21.0403 30.4896C21.0403 30.7797 20.8058 31.0148 20.5165 31.0148C20.2272 31.0148 19.9927 30.7797 19.9927 30.4896C19.9927 30.1996 20.2272 29.9645 20.5165 29.9645Z"/><path fill="#000" d="M18.8013 41.3605C18.8912 41.2561 18.9386 41.1189 18.9386 40.9486C18.9386 40.7782 18.8912 40.6465 18.8013 40.5421C18.7065 40.4377 18.5738 40.3883 18.4034 40.3883H17.5697V41.5142H18.4034C18.5738 41.5142 18.7065 41.4647 18.8013 41.3605ZM18.4034 39.7129C18.7633 39.7129 19.0476 39.8228 19.2606 40.0479C19.4738 40.273 19.5781 40.575 19.5781 40.9486C19.5781 41.3274 19.4738 41.624 19.2655 41.8491C19.0523 42.0745 18.7682 42.1897 18.4034 42.1897H17.5697V43.7051H16.9255V39.7129H18.4034ZM21.8788 42.1612V40.9967H22.5725V43.6261H21.8788V43.389C21.6685 43.5997 21.3953 43.705 21.0536 43.705C20.7383 43.705 20.486 43.5997 20.2916 43.3943C20.0971 43.1888 20.0025 42.9253 20.0025 42.5986V40.9967H20.6963V42.451C20.6963 42.6355 20.7435 42.7883 20.8434 42.899C20.938 43.0096 21.0641 43.0676 21.227 43.0676C21.6632 43.0676 21.8788 42.7672 21.8788 42.1612V42.1612ZM25.2789 42.8832C25.4155 42.7408 25.4838 42.5511 25.4838 42.3141C25.4838 42.077 25.4155 41.8819 25.2789 41.7397C25.1369 41.5974 24.9635 41.5236 24.748 41.5236C24.5536 41.5236 24.3802 41.5974 24.2278 41.745C24.0753 41.8925 24.0018 42.0821 24.0018 42.3141C24.0018 42.5459 24.0753 42.7357 24.2278 42.8778C24.3802 43.0255 24.5536 43.0992 24.748 43.0992C24.9635 43.0992 25.1369 43.0255 25.2789 42.8832V42.8832ZM24.8689 40.9177C25.2106 40.9177 25.5153 41.0495 25.7729 41.3129C26.0304 41.5816 26.1565 41.9135 26.1565 42.3141C26.1565 42.7145 26.0304 43.0465 25.7729 43.3099C25.5153 43.5735 25.2158 43.7051 24.8689 43.7051C24.5273 43.7051 24.2382 43.6102 24.0018 43.4206V44.8805H23.308V40.9967H24.0018V41.2075C24.233 41.0125 24.522 40.9177 24.8689 40.9177V40.9177ZM28.6527 42.8832C28.7893 42.7408 28.8576 42.5511 28.8576 42.3141C28.8576 42.077 28.7893 41.8819 28.6527 41.7397C28.5107 41.5974 28.3374 41.5236 28.1219 41.5236C27.9274 41.5236 27.754 41.5974 27.6016 41.745C27.4492 41.8925 27.3755 42.0821 27.3755 42.3141C27.3755 42.5459 27.4492 42.7357 27.6016 42.8778C27.754 43.0255 27.9274 43.0992 28.1219 43.0992C28.3374 43.0992 28.5107 43.0255 28.6527 42.8832V42.8832ZM28.2426 40.9177C28.5843 40.9177 28.8891 41.0495 29.1468 41.3129C29.4042 41.5816 29.5303 41.9135 29.5303 42.3141C29.5303 42.7145 29.4042 43.0465 29.1468 43.3099C28.8891 43.5735 28.5896 43.7051 28.2426 43.7051C27.9011 43.7051 27.6121 43.6102 27.3755 43.4206V44.8805H26.6819V40.9967H27.3755V41.2075C27.6068 41.0125 27.8959 40.9177 28.2426 40.9177V40.9177ZM30.5549 42.0084H31.8215C31.7795 41.8451 31.7006 41.724 31.5903 41.6447C31.4799 41.5658 31.3486 41.5236 31.2013 41.5236C31.0596 41.5236 30.9229 41.5658 30.802 41.6501C30.6758 41.7345 30.5917 41.8556 30.5549 42.0084ZM31.2013 40.9177C31.5588 40.9177 31.8689 41.0442 32.1264 41.2918C32.3839 41.5448 32.5153 41.8661 32.5311 42.2613V42.4985H30.534C30.5707 42.6828 30.6495 42.8303 30.7705 42.9411C30.8913 43.0517 31.0279 43.1096 31.1908 43.1096C31.4905 43.1096 31.706 42.9938 31.8426 42.7619L32.4628 42.8936C32.3524 43.1625 32.1842 43.3628 31.9635 43.4997C31.7427 43.6367 31.4852 43.7051 31.1908 43.7051C30.8124 43.7051 30.4918 43.5735 30.2343 43.3153C29.9768 43.0571 29.8453 42.7198 29.8453 42.3141C29.8453 41.9084 29.9768 41.5711 30.2396 41.3076C30.4971 41.0495 30.8178 40.9177 31.2013 40.9177V40.9177ZM34.4439 43.0571C34.5753 43.0571 34.7225 43.0148 34.8801 42.9306L35.0798 43.5102C34.838 43.6419 34.612 43.7052 34.3965 43.7052C34.0759 43.7052 33.8237 43.6156 33.6397 43.4416C33.4559 43.2679 33.3665 43.0096 33.3665 42.6566V41.5657H32.8041V40.9966H33.3665V40.2011H34.0602V40.9966H34.9169V41.5657H34.0602V42.6038C34.0602 42.9042 34.1864 43.0571 34.4439 43.0571V43.0571ZM35.8994 42.0084H37.166C37.124 41.8451 37.0451 41.724 36.9348 41.6447C36.8244 41.5658 36.6931 41.5236 36.5458 41.5236C36.4041 41.5236 36.2673 41.5658 36.1464 41.6501C36.0203 41.7345 35.9362 41.8556 35.8994 42.0084ZM36.5458 40.9177C36.9033 40.9177 37.2134 41.0442 37.4709 41.2918C37.7284 41.5448 37.8597 41.8661 37.8756 42.2613V42.4985H35.8785C35.9152 42.6828 35.994 42.8303 36.115 42.9411C36.2358 43.0517 36.3724 43.1096 36.5353 43.1096C36.8349 43.1096 37.0505 42.9938 37.1871 42.7619L37.8071 42.8936C37.6968 43.1625 37.5287 43.3628 37.308 43.4997C37.0872 43.6367 36.8297 43.7051 36.5353 43.7051C36.1569 43.7051 35.8363 43.5735 35.5788 43.3153C35.3213 43.0571 35.1898 42.7198 35.1898 42.3141C35.1898 41.9084 35.3213 41.5711 35.5841 41.3076C35.8416 41.0495 36.1623 40.9177 36.5458 40.9177V40.9177ZM39.0157 42.0084H40.2823C40.2403 41.8451 40.1614 41.724 40.0511 41.6447C39.9407 41.5658 39.8094 41.5236 39.6621 41.5236C39.5204 41.5236 39.3836 41.5658 39.2627 41.6501C39.1366 41.7345 39.0525 41.8556 39.0157 42.0084ZM39.6621 40.9177C40.0196 40.9177 40.3297 41.0442 40.5872 41.2918C40.8447 41.5448 40.976 41.8661 40.9919 42.2613V42.4985H38.9948C39.0315 42.6828 39.1103 42.8303 39.2313 42.9411C39.3521 43.0517 39.4887 43.1096 39.6516 43.1096C39.9512 43.1096 40.1668 42.9938 40.3034 42.7619L40.9236 42.8936C40.8131 43.1625 40.645 43.3628 40.4243 43.4997C40.2035 43.6367 39.946 43.7051 39.6516 43.7051C39.2732 43.7051 38.9526 43.5735 38.6951 43.3153C38.4376 43.0571 38.3061 42.7198 38.3061 42.3141C38.3061 41.9084 38.4376 41.5711 38.7004 41.3076C38.9579 41.0495 39.2786 40.9177 39.6621 40.9177V40.9177ZM43.1517 40.9598C43.2306 40.9598 43.2936 40.9651 43.3358 40.9808L43.2989 41.6501H43.1466C42.5211 41.6501 42.2109 42.0243 42.2109 42.7778V43.6261H41.5173V40.9967H42.2109V41.4762C42.4475 41.1336 42.7628 40.9598 43.1517 40.9598Z"/><path fill="#00D8A2" d="M40.1171 22.425L43.86 20.6134V18.8018L35.2127 14.6609L43.86 10.1967V8.44984L40.2462 6.76758L30.0072 11.8788L19.5961 6.76758L16.2405 8.57924V10.132L24.3714 14.5962L16.2405 18.7371V20.6134L19.7252 22.425L30.0502 17.1196L40.1171 22.425Z"/><path fill="#000" d="M40.5863 21.6867V20.9064L43.4037 19.4427V20.3191L40.5863 21.6867ZM16.4671 19.4222L19.1895 20.9891V21.6128L16.4671 20.232V19.4222ZM30.4119 16.127L39.777 20.7663V21.6991L30.4119 16.8889V16.127ZM19.9988 20.902L29.6026 16.1279V16.8887L19.9988 21.7603V20.902ZM26.799 13.1011L17.0804 8.39668L19.5975 7.11408L30.0072 12.5246L40.2426 7.1164L42.8486 8.45467L33.3712 13.2367C32.9923 13.4278 32.9929 13.9705 33.3722 14.1608L42.7518 18.8675L40.3207 20.1305L30.0072 14.8323L19.5113 20.2387L17.1141 18.8589L26.8043 14.0295C27.1882 13.8382 27.1851 13.288 26.799 13.1011V13.1011ZM16.5882 9.99057V9.13436L25.6522 13.6683L24.7359 14.0354L16.5882 9.99057ZM35.1743 14.0858C35.1619 14.0782 34.3062 13.6735 34.3062 13.6735L43.4037 9.08297V9.94296L35.1743 14.0858ZM36.0849 14.5354L44.081 10.51C44.162 10.4692 44.2131 10.3861 44.2131 10.2953V8.39058C44.2131 8.30037 44.1627 8.21785 44.0827 8.17671L40.3531 6.26142C40.2847 6.22638 40.2038 6.22626 40.1354 6.26105L30.1147 11.3592C30.0471 11.3937 29.9673 11.394 29.8993 11.36L19.7021 6.25958C19.6343 6.22565 19.5543 6.22602 19.4866 6.26044L15.7888 8.14449C15.7084 8.1855 15.6577 8.26827 15.6577 8.35872V10.2942C15.6577 10.3856 15.7095 10.4691 15.7913 10.5096L23.821 14.4872L15.8284 18.4661C15.7484 18.506 15.697 18.5872 15.6955 18.6769L15.6605 20.5801C15.6588 20.6723 15.7099 20.7572 15.7919 20.7989L19.6316 22.7466C19.6994 22.7809 19.7794 22.7811 19.8474 22.7469L29.8991 17.6864C29.967 17.6521 30.0472 17.6524 30.1152 17.6869L40.0416 22.7472C40.1083 22.7812 40.1871 22.782 40.2546 22.7493L44.0779 20.8935C44.1605 20.8533 44.2131 20.7693 44.2131 20.6773V18.6887C44.2131 18.5971 44.1611 18.5135 44.0791 18.473L36.0849 14.5354Z"/></g><defs><clipPath id="clip0_1202_39919"><rect width="31.169" height="46.753" fill="#fff" transform="translate(14.4155 6.23438)"/></clipPath></defs></svg>