<svg width="160" height="160" viewBox="0 0 160 160" fill="none" xmlns="http://www.w3.org/2000/svg">
<rect width="160" height="160" rx="20" fill="#CC0000"/>
<g clip-path="url(#clip0_781_8176)">
<path d="M123.846 91.4501V96.8801C123.846 96.8801 130.925 96.8801 133.738 96.8801C135.765 96.8801 139.244 95.4101 139.365 91.3001C139.365 91.1201 139.365 89.3501 139.365 89.2001C139.365 85.6901 136.461 83.6201 133.738 83.6201C132.468 83.6201 128.807 83.6201 128.807 83.6201V81.1001H138.578V75.6401C138.578 75.6401 131.863 75.6401 129.201 75.6401C126.781 75.6401 123.544 77.6201 123.544 81.3101C123.544 81.6701 123.544 82.8701 123.544 83.2001C123.544 86.8901 126.75 88.7801 129.201 88.7801C136.007 88.8101 127.567 88.7801 133.859 88.7801C133.859 91.4201 133.859 91.4201 133.859 91.4201" fill="white"/>
<path d="M70.8486 90.13C70.8486 90.13 76.1423 89.68 76.1423 82.9C76.1423 76.1201 69.7293 75.4901 69.7293 75.4901H58.1738V96.88H63.9818V91.72L69.0033 96.88H77.5943L70.8486 90.13ZM68.6101 85.75H63.9818V80.86H68.6403C68.6403 80.86 69.9411 81.34 69.9411 83.29C69.9411 85.24 68.6101 85.75 68.6101 85.75Z" fill="white"/>
<path d="M90.4808 75.6401C88.9986 75.6401 88.7868 75.6401 84.5821 75.6401C80.3773 75.6401 78.9556 79.4201 78.9556 81.2201C78.9556 85.1201 78.9556 96.8801 78.9556 96.8801H84.8543V93.1301H90.3901V96.8801H96.1073C96.1073 96.8801 96.1073 85.3301 96.1073 81.2201C96.1073 76.6601 91.9328 75.6401 90.4808 75.6401ZM90.3901 87.0701H84.8241V81.8801C84.8241 81.8801 84.8241 80.7101 86.6693 80.7101C88.3633 80.7101 86.9718 80.7101 88.6961 80.7101C90.3296 80.7101 90.3598 81.8801 90.3598 81.8801V87.0701H90.3901Z" fill="white"/>
<path d="M104.94 75.6401H98.7993V96.8801H104.94V75.6401Z" fill="white"/>
<path d="M113.562 91.3901V75.6401H107.451V91.3901V96.8801H113.562H121.82V91.3901H113.562Z" fill="white"/>
<path d="M21.7227 96.8798H45.6202C45.6202 96.8798 41.0524 76.2098 56.1774 67.8398C59.4747 66.2498 69.9714 60.3098 87.1534 72.9098C87.6979 72.4598 88.2121 72.0998 88.2121 72.0998C88.2121 72.0998 72.4821 56.5298 54.9674 58.2698C46.1647 59.0498 35.3352 66.9998 28.9827 77.4998C22.6302 87.9998 21.7227 96.8798 21.7227 96.8798Z" fill="white"/>
<path d="M21.7227 96.8798H45.6202C45.6202 96.8798 41.0524 76.2098 56.1774 67.8398C59.4747 66.2498 69.9714 60.3098 87.1534 72.9098C87.6979 72.4598 88.2121 72.0998 88.2121 72.0998C88.2121 72.0998 72.4821 56.5298 54.9674 58.2698C46.1647 59.0498 35.3352 66.9998 28.9827 77.4998C22.6302 87.9998 21.7227 96.8798 21.7227 96.8798Z" fill="white"/>
<path d="M21.7227 96.8798H45.6202C45.6202 96.8798 41.0524 76.2098 56.1774 67.8398C59.4747 66.2498 69.9714 60.3098 87.1534 72.9098C87.6979 72.4598 88.2121 72.0998 88.2121 72.0998C88.2121 72.0998 72.4821 56.5298 54.9674 58.2698C46.1344 59.0498 35.3049 66.9998 28.9524 77.4998C22.5999 87.9998 21.7227 96.8798 21.7227 96.8798Z" fill="white"/>
<path d="M71.5138 59.9499L71.6348 57.9399C71.3626 57.7899 70.6063 57.4299 68.7006 56.8899L68.5796 58.8699C69.5778 59.1999 70.5458 59.5599 71.5138 59.9499Z" fill="white"/>
<path d="M68.64 66.3099L68.519 68.1999C69.5173 68.2299 70.5155 68.3499 71.5138 68.5599L71.6348 66.6999C70.6063 66.4899 69.608 66.3699 68.64 66.3099Z" fill="white"/>
<path d="M57.4477 56.9499C57.5385 56.9499 57.6595 56.9499 57.7502 56.9499L57.1452 55.1199C56.2075 55.1199 55.2395 55.1799 54.2412 55.2999L54.816 57.0699C55.6932 56.9799 56.5705 56.9499 57.4477 56.9499Z" fill="white"/>
<path d="M58.8999 67.99L59.5957 70.06C60.4729 69.64 61.3502 69.28 62.2274 69.01L61.5619 67.03C60.5334 67.33 59.6562 67.66 58.8999 67.99Z" fill="white"/>
<path d="M45.1661 60.1L43.8048 58.03C43.0486 58.42 42.2621 58.84 41.4453 59.32L42.8368 61.42C43.6233 60.94 44.3796 60.49 45.1661 60.1Z" fill="white"/>
<path d="M51.3677 73.6L52.8197 75.76C53.3339 75.01 53.9389 74.32 54.6044 73.63L53.2432 71.59C52.5474 72.22 51.9122 72.91 51.3677 73.6Z" fill="white"/>
<path d="M46.9814 83.2598L49.4317 85.1798C49.5527 84.0098 49.7644 82.8398 50.0669 81.6698L47.8889 79.9598C47.4957 81.0698 47.2234 82.1798 46.9814 83.2598Z" fill="white"/>
<path d="M33.732 69.01L31.5842 67.15C30.7977 67.9 30.0415 68.65 29.3457 69.4L31.675 71.38C32.3102 70.57 33.006 69.76 33.732 69.01Z" fill="white"/>
<path d="M24.5962 82.42L21.1175 81.16C20.5427 82.45 19.9075 83.95 19.605 84.76L23.0837 86.02C23.477 85 24.1122 83.53 24.5962 82.42Z" fill="white"/>
<path d="M46.5273 90.8799C46.5878 92.4699 46.7391 93.7599 46.8903 94.6599L50.5203 95.9499C50.2481 94.7799 49.9758 93.4599 49.7943 92.0499L46.5273 90.8799Z" fill="white"/>
</g>
<defs>
<clipPath id="clip0_781_8176">
<rect width="121" height="42" fill="white" transform="translate(19 55)"/>
</clipPath>
</defs>
</svg>
