<svg width="161" height="160" viewBox="0 0 161 160" fill="none" xmlns="http://www.w3.org/2000/svg">
<rect x="0.6875" width="160" height="160" rx="20" fill="#21232A"/>
<g clip-path="url(#clip0_2014_24155)">
<path d="M80.7366 90.865C86.7827 90.865 91.6841 85.9636 91.6841 79.9174C91.6841 73.8713 86.7827 68.9699 80.7366 68.9699C74.6904 68.9699 69.7891 73.8713 69.7891 79.9174C69.7891 85.9636 74.6904 90.865 80.7366 90.865Z" fill="#00D8FF"/>
<path d="M135.73 69.0077C131.942 65.8471 126.585 63.0219 120.237 60.8364C118.964 60.3983 117.646 59.9841 116.29 59.5926C116.514 58.6813 116.719 57.7829 116.9 56.9012C119.942 42.1366 117.782 30.6296 111.265 26.871C109.671 25.9525 107.787 25.4866 105.664 25.4866C99.5491 25.4866 91.8 29.299 83.8458 36.2215C82.8293 37.1062 81.8107 38.0422 80.793 39.0228C80.1138 38.3726 79.4364 37.7454 78.7619 37.1463C70.5017 29.8121 62.0946 25.6058 55.6957 25.6058C53.5042 25.6058 51.5645 26.0853 49.9305 27.0314C46.7324 28.8828 44.5597 32.6596 43.6474 37.9542C42.8101 42.8154 43.0487 48.8676 44.3376 55.4562C44.5973 56.7839 44.9012 58.1388 45.2434 59.5154C43.6772 59.961 42.1617 60.4369 40.7063 60.9443C27.3883 65.587 19.4375 72.6799 19.4375 79.9174C19.4375 83.6977 21.653 87.593 25.844 91.1825C29.7874 94.5594 35.3241 97.5247 41.8554 99.7572C42.9216 100.121 44.0277 100.467 45.168 100.794C44.7996 102.281 44.4788 103.741 44.2077 105.17C41.5769 119.026 43.749 129.457 50.0186 133.073C51.6698 134.026 53.6387 134.508 55.8714 134.508C62.2352 134.508 70.448 130.519 78.4042 123.565C79.2536 122.822 80.1066 122.035 80.9617 121.209C82.0672 122.272 83.1736 123.281 84.2768 124.231C92.0131 130.888 99.5939 134.555 105.622 134.555C107.794 134.555 109.723 134.076 111.354 133.132C114.626 131.237 116.887 127.369 117.893 121.943C118.84 116.839 118.632 110.561 117.292 103.79C117.08 102.72 116.834 101.626 116.557 100.512C117.334 100.283 118.095 100.047 118.836 99.8011C133.146 95.06 142.035 87.4408 142.035 79.9172C142.035 76.2217 139.854 72.4492 135.73 69.0077ZM105.664 30.7238C106.857 30.7238 107.861 30.9539 108.648 31.4079C110.548 32.5035 111.955 35.263 112.609 39.1779C113.37 43.7267 113.08 49.4896 111.771 55.844C111.606 56.6423 111.421 57.4559 111.22 58.2806C106.122 57.1043 100.595 56.2324 94.8232 55.6912C91.4471 50.8872 87.952 46.5237 84.4617 42.759C85.4028 41.8542 86.345 40.9891 87.2839 40.1716C94.0823 34.2556 100.954 30.7238 105.664 30.7238ZM97.8442 89.8924C95.9166 93.235 93.9538 96.4027 91.971 99.38C88.3307 99.6411 84.5694 99.7758 80.7362 99.7758C76.9011 99.7758 73.1985 99.6597 69.6491 99.4317C67.5549 96.3806 65.5384 93.1931 63.6445 89.9212C61.7495 86.648 60.0019 83.3434 58.4161 80.0521C60.0064 76.734 61.7509 73.4157 63.6281 70.1605C65.5173 66.8849 67.5069 63.7209 69.5661 60.7038C73.234 60.4238 76.9792 60.2777 80.7362 60.2777C84.5254 60.2777 88.2688 60.4214 91.9185 60.6991C93.9466 63.6917 95.9264 66.8481 97.8277 70.1323C99.7614 73.4723 101.526 76.7556 103.115 79.9609C101.522 83.2449 99.7594 86.5712 97.8442 89.8924ZM105.942 86.0007C107.589 89.7499 108.967 93.3617 110.06 96.7952C106.508 97.6054 102.669 98.2588 98.6215 98.7453C99.8883 96.7368 101.143 94.6571 102.381 92.5094C103.632 90.34 104.82 88.1666 105.942 86.0007ZM80.9487 113.7C78.4671 111.019 75.9908 108.053 73.5779 104.876C75.9118 104.967 78.2993 105.013 80.736 105.013C83.2386 105.013 85.7134 104.956 88.1492 104.846C85.7553 108.102 83.3465 111.065 80.9487 113.7ZM62.964 98.8506C58.9361 98.4027 55.1568 97.7946 51.6671 97.0322C52.7533 93.5351 54.0896 89.8991 55.6419 86.2126C56.739 88.3305 57.8963 90.4453 59.1118 92.5456C60.3574 94.6963 61.6443 96.8001 62.964 98.8506ZM55.6274 73.8838C54.1068 70.278 52.8022 66.7241 51.7352 63.2826C55.2351 62.5021 58.9672 61.8633 62.8431 61.3778C61.5566 63.3852 60.3031 65.4428 59.0912 67.5437C57.8775 69.6485 56.7224 71.7655 55.6274 73.8838ZM80.7932 46.5021C83.2067 49.1173 85.6262 52.0398 88.0076 55.2126C85.608 55.099 83.181 55.0402 80.7366 55.0402C78.3085 55.0402 75.8989 55.097 73.5178 55.2067C75.8934 52.0735 78.3324 49.1555 80.7932 46.5021ZM102.36 67.5079C101.146 65.4119 99.8998 63.3647 98.6286 61.3735C102.532 61.8668 106.28 62.5225 109.81 63.329C108.754 66.7112 107.437 70.2514 105.887 73.883C104.779 71.7815 103.603 69.6548 102.36 67.5079ZM49.4775 54.4499C48.3094 48.48 48.0781 43.083 48.8088 38.8426C49.4393 35.1816 50.7695 32.5969 52.5545 31.5634C53.3808 31.085 54.4378 30.8425 55.6959 30.8425C60.7546 30.8425 68.0776 34.6628 75.2847 41.0622C75.8954 41.6043 76.5088 42.1721 77.1238 42.7598C73.5563 46.5908 70.0387 50.9448 66.6855 55.6773C60.9206 56.2081 55.4065 57.0649 50.3187 58.2212C50.0008 56.9416 49.7188 55.6828 49.4775 54.4499ZM43.5495 94.8012C37.6397 92.7808 32.6952 90.1541 29.2508 87.2044C26.3001 84.6775 24.6749 82.0898 24.6749 79.917C24.6749 74.5025 33.5928 68.9699 42.4304 65.8886C43.7751 65.4199 45.1854 64.9781 46.6508 64.5631C48.1872 69.5606 50.2002 74.7751 52.6217 80.0365C50.1592 85.3885 48.1194 90.6831 46.5691 95.7484C45.5299 95.4485 44.5213 95.1332 43.5495 94.8012ZM55.8714 129.271C54.569 129.271 53.4801 129.024 52.6348 128.536C47.9446 125.832 47.6069 115.342 49.3529 106.147C49.6036 104.827 49.9029 103.469 50.2491 102.081C55.2435 103.187 60.7859 103.99 66.7644 104.472C70.1523 109.244 73.6985 113.626 77.2902 117.475C76.5096 118.227 75.7315 118.944 74.9571 119.621C68.0453 125.663 60.9103 129.271 55.8714 129.271ZM112.154 104.807C114.815 118.251 112.244 126.564 108.729 128.599C107.906 129.075 106.861 129.317 105.622 129.317C103.395 129.317 97.1914 128.434 87.6932 120.261C86.674 119.384 85.6458 118.445 84.6143 117.45C88.0548 113.691 91.5043 109.311 94.8958 104.396C100.831 103.867 106.432 103.005 111.491 101.838C111.74 102.847 111.962 103.838 112.154 104.807ZM117.189 94.8298C116.52 95.0515 115.833 95.2654 115.133 95.4732C113.591 90.5828 111.506 85.3671 108.922 79.9325C111.369 74.657 113.381 69.4985 114.885 64.6375C116.138 65.0004 117.357 65.3833 118.533 65.7883C124.284 67.7684 129.071 70.2721 132.375 73.0287C135.227 75.4087 136.798 77.8551 136.798 79.9172C136.797 83.9707 130.661 90.3658 117.189 94.8298Z" fill="#00D8FF"/>
</g>
<defs>
<clipPath id="clip0_2014_24155">
<rect width="122.597" height="122.597" fill="white" transform="translate(19.3887 18.7013)"/>
</clipPath>
</defs>
</svg>
