<svg xmlns="http://www.w3.org/2000/svg" width="160" height="160" fill="none" viewBox="0 0 160 160"><rect width="160" height="160" fill="#21232A" rx="20"/><g clip-path="url(#clip0_781_8213)"><path fill="#00D8FF" d="M80.0486 90.865C86.0948 90.865 90.9961 85.9636 90.9961 79.9174C90.9961 73.8713 86.0948 68.9699 80.0486 68.9699C74.0025 68.9699 69.1011 73.8713 69.1011 79.9174C69.1011 85.9636 74.0025 90.865 80.0486 90.865Z"/><path fill="#00D8FF" d="M135.042 69.0077C131.255 65.8472 125.897 63.0219 119.549 60.8364C118.277 60.3983 116.959 59.9841 115.603 59.5926C115.827 58.6813 116.031 57.7829 116.213 56.9012C119.254 42.1366 117.095 30.6296 110.577 26.871C108.984 25.9525 107.1 25.4867 104.977 25.4867C98.8616 25.4867 91.1125 29.299 83.1583 36.2215C82.1418 37.1062 81.1232 38.0423 80.1055 39.0228C79.4263 38.3727 78.7489 37.7454 78.0744 37.1463C69.8142 29.8121 61.4071 25.6058 55.0082 25.6058C52.8167 25.6058 50.877 26.0853 49.243 27.0314C46.0449 28.8828 43.8722 32.6596 42.9599 37.9542C42.1226 42.8154 42.3612 48.8676 43.6501 55.4562C43.9098 56.7839 44.2137 58.1388 44.5559 59.5154C42.9897 59.9611 41.4742 60.4369 40.0188 60.9443C26.7008 65.587 18.75 72.6799 18.75 79.9175C18.75 83.6977 20.9655 87.5931 25.1565 91.1825C29.0999 94.5595 34.6366 97.5247 41.1679 99.7572C42.2341 100.122 43.3402 100.467 44.4805 100.794C44.1121 102.281 43.7913 103.741 43.5202 105.17C40.8894 119.026 43.0615 129.457 49.3311 133.073C50.9823 134.026 52.9512 134.508 55.1839 134.508C61.5477 134.508 69.7605 130.52 77.7167 123.565C78.5661 122.822 79.4191 122.035 80.2742 121.209C81.3797 122.272 82.4861 123.281 83.5893 124.231C91.3256 130.888 98.9064 134.555 104.934 134.555C107.107 134.555 109.035 134.076 110.666 133.132C113.938 131.237 116.199 127.369 117.206 121.943C118.153 116.839 117.945 110.561 116.604 103.79C116.392 102.72 116.146 101.626 115.87 100.512C116.646 100.283 117.407 100.047 118.149 99.8011C132.458 95.0601 141.348 87.4408 141.348 79.9173C141.347 76.2218 139.167 72.4492 135.042 69.0077ZM104.977 30.7238C106.17 30.7238 107.173 30.9539 107.961 31.4079C109.86 32.5035 111.267 35.263 111.922 39.1779C112.682 43.7267 112.392 49.4896 111.083 55.844C110.919 56.6423 110.733 57.456 110.532 58.2807C105.434 57.1043 99.9078 56.2325 94.1357 55.6912C90.7596 50.8872 87.2645 46.5238 83.7742 42.759C84.7153 41.8542 85.6575 40.9891 86.5964 40.1716C93.3948 34.2556 100.266 30.7238 104.977 30.7238ZM97.1567 89.8924C95.2291 93.235 93.2663 96.4027 91.2835 99.38C87.6432 99.6411 83.8819 99.7758 80.0487 99.7758C76.2136 99.7758 72.511 99.6597 68.9616 99.4317C66.8674 96.3807 64.8509 93.1931 62.957 89.9212C61.062 86.6481 59.3144 83.3434 57.7286 80.0521C59.3189 76.734 61.0634 73.4157 62.9406 70.1605C64.8298 66.8849 66.8194 63.7209 68.8786 60.7038C72.5465 60.4239 76.2917 60.2778 80.0487 60.2778C83.8379 60.2778 87.5813 60.4214 91.231 60.6991C93.2591 63.6917 95.2389 66.8482 97.1402 70.1323C99.0739 73.4723 100.838 76.7557 102.428 79.961C100.835 83.245 99.0719 86.5712 97.1567 89.8924ZM105.255 86.0007C106.901 89.75 108.28 93.3617 109.372 96.7952C105.821 97.6054 101.982 98.2588 97.934 98.7454C99.2008 96.7368 100.455 94.6571 101.693 92.5094C102.945 90.3401 104.132 88.1666 105.255 86.0007ZM80.2612 113.7C77.7796 111.019 75.3033 108.053 72.8904 104.876C75.2243 104.967 77.6118 105.013 80.0485 105.013C82.5511 105.013 85.0259 104.956 87.4617 104.846C85.0678 108.102 82.659 111.065 80.2612 113.7ZM62.2765 98.8506C58.2486 98.4027 54.4693 97.7946 50.9796 97.0323C52.0658 93.5352 53.4021 89.8991 54.9544 86.2126C56.0515 88.3305 57.2088 90.4453 58.4243 92.5456C59.6699 94.6964 60.9568 96.8001 62.2765 98.8506ZM54.9399 73.8838C53.4193 70.278 52.1147 66.7241 51.0477 63.2826C54.5476 62.5021 58.2797 61.8634 62.1556 61.3779C60.8691 63.3852 59.6156 65.4428 58.4037 67.5437C57.19 69.6485 56.0349 71.7655 54.9399 73.8838ZM80.1057 46.5021C82.5192 49.1173 84.9387 52.0398 87.3201 55.2126C84.9205 55.099 82.4935 55.0402 80.0491 55.0402C77.621 55.0402 75.2114 55.097 72.8303 55.2067C75.2059 52.0735 77.6449 49.1555 80.1057 46.5021ZM101.673 67.5079C100.459 65.4119 99.2123 63.3648 97.9411 61.3736C101.845 61.8668 105.593 62.5225 109.123 63.329C108.067 66.7113 106.75 70.2515 105.199 73.883C104.091 71.7815 102.916 69.6548 101.673 67.5079ZM48.79 54.4499C47.6219 48.48 47.3906 43.0831 48.1213 38.8426C48.7518 35.1817 50.082 32.5969 51.867 31.5634C52.6933 31.0851 53.7503 30.8425 55.0084 30.8425C60.0671 30.8425 67.3901 34.6629 74.5972 41.0623C75.2079 41.6043 75.8213 42.1722 76.4363 42.7598C72.8688 46.5908 69.3512 50.9448 65.998 55.6773C60.2331 56.2081 54.719 57.0649 49.6312 58.2212C49.3133 56.9417 49.0313 55.6828 48.79 54.4499ZM42.862 94.8012C36.9522 92.7808 32.0077 90.1541 28.5633 87.2044C25.6126 84.6775 23.9874 82.0899 23.9874 79.917C23.9874 74.5025 32.9053 68.9699 41.7429 65.8886C43.0876 65.4199 44.4979 64.9781 45.9633 64.5632C47.4997 69.5606 49.5127 74.7751 51.9342 80.0366C49.4717 85.3886 47.4319 90.6831 45.8816 95.7485C44.8424 95.4485 43.8338 95.1332 42.862 94.8012ZM55.1839 129.271C53.8815 129.271 52.7926 129.024 51.9473 128.537C47.2571 125.832 46.9194 115.342 48.6654 106.147C48.9161 104.827 49.2154 103.469 49.5616 102.081C54.556 103.187 60.0984 103.99 66.0769 104.472C69.4648 109.244 73.011 113.626 76.6027 117.475C75.8221 118.227 75.044 118.944 74.2696 119.621C67.3578 125.663 60.2228 129.271 55.1839 129.271ZM111.466 104.807C114.127 118.251 111.557 126.564 108.042 128.599C107.219 129.075 106.173 129.317 104.934 129.317C102.708 129.317 96.5039 128.434 87.0057 120.261C85.9865 119.384 84.9583 118.445 83.9268 117.45C87.3673 113.691 90.8168 109.311 94.2083 104.396C100.143 103.867 105.744 103.005 110.804 101.838C111.053 102.847 111.275 103.838 111.466 104.807ZM116.501 94.8298C115.832 95.0515 115.146 95.2654 114.445 95.4732C112.903 90.5828 110.818 85.3671 108.235 79.9326C110.681 74.657 112.693 69.4985 114.198 64.6375C115.451 65.0004 116.669 65.3833 117.845 65.7883C123.597 67.7685 128.384 70.2721 131.687 73.0287C134.54 75.4087 136.11 77.8552 136.11 79.9173C136.11 83.9707 129.974 90.3658 116.501 94.8298Z"/></g><defs><clipPath id="clip0_781_8213"><rect width="122.597" height="122.597" fill="#fff" transform="translate(18.7012 18.7013)"/></clipPath></defs></svg>