<svg width="160" height="160" viewBox="0 0 160 160" fill="none" xmlns="http://www.w3.org/2000/svg">
<rect width="160" height="160" rx="20" fill="#CA90FF"/>
<path d="M44.5833 30C39.9809 30 36.25 33.7309 36.25 38.3333V121.667C36.25 126.269 39.9809 130 44.5833 130H115.417C120.019 130 123.75 126.269 123.75 121.667V48.75L105 30H44.5833Z" fill="white"/>
<rect x="48.7495" y="65.4166" width="18.75" height="10.4167" rx="4.40991" fill="#CA90FF"/>
<rect x="71.667" y="65.4166" width="39.5833" height="10.4167" rx="4.40991" fill="#CA90FF"/>
<rect x="48.7495" y="84.1667" width="18.75" height="10.4167" rx="4.40991" fill="#CA90FF"/>
<rect x="71.667" y="84.1667" width="39.5833" height="10.4167" rx="4.40991" fill="#CA90FF"/>
<rect x="48.7495" y="102.917" width="18.75" height="10.4167" rx="4.40991" fill="#CA90FF"/>
<rect x="71.667" y="102.917" width="39.5833" height="10.4167" rx="4.40991" fill="#CA90FF"/>
<path d="M105 30V40.4167C105 45.019 108.73 48.75 113.333 48.75H123.75L105 30Z" fill="#8A37D7"/>
</svg>
