<svg xmlns="http://www.w3.org/2000/svg" width="160" height="160" fill="none" viewBox="0 0 160 160"><rect width="160" height="160" fill="#3578E5" rx="20"/><g clip-path="url(#clip0_2014_24271)"><path fill="#fff" d="M67.2015 72.2839C68.0928 72.0976 69.0108 71.9646 69.9288 71.8848L77.0596 71.2063L67.3744 60.5899C64.4609 57.3837 62.8512 53.2329 62.8512 48.8959H54.8423C54.8423 55.2285 57.1971 61.3083 61.4676 65.9912L67.2015 72.2839Z"/><path fill="#fff" d="M92.2125 87.8359C91.4941 87.969 90.7623 88.0621 90.0306 88.1419L82.3145 88.8736L91.973 99.4634C94.8865 102.67 96.4963 106.82 96.4963 111.157H104.518C104.518 104.825 102.164 98.7583 97.8932 94.0621L92.2125 87.8359Z"/><path fill="#fff" d="M105.477 64.3016C104.16 57.7561 99.0244 52.9933 92.3991 52.1552L91.1751 51.9956C87.0377 51.4767 83.9113 47.9379 83.9113 43.7738V39.5033C87.5831 37.9734 90.1641 34.3548 90.1641 30.1375C90.1641 24.5366 85.6275 20 80.0266 20C74.4257 20 69.8891 24.5366 69.8891 30.1375C69.8891 34.2616 72.3636 37.8137 75.9024 39.3969V43.7738C75.9024 51.9823 82.0355 58.9401 90.1774 59.9512L91.4013 60.1109C95.2195 60.5898 97.1219 63.4102 97.6275 65.8847C98.133 68.3592 97.4811 71.6985 94.1419 73.6275C92.5055 74.5721 90.7361 75.1441 88.8603 75.3171L70.4612 77.0466C67.4279 77.3392 64.5543 78.2572 61.9202 79.7738C56.133 83.1264 53.2461 89.5122 54.5765 96.0577C55.8935 102.603 61.0288 107.366 67.6541 108.204L68.878 108.364C73.0155 108.882 76.1419 112.421 76.1419 116.585V120.47C72.4833 122 69.9157 125.619 69.9157 129.823C69.9157 135.424 74.4523 139.96 80.0532 139.96C85.6541 139.96 90.1907 135.424 90.1907 129.823C90.1907 125.685 87.7029 122.12 84.1508 120.55V116.585C84.1508 108.377 78.0177 101.419 69.8758 100.408L68.6519 100.248C64.8337 99.7694 62.9312 96.949 62.4257 94.4745C61.9202 92 62.572 88.6608 65.9113 86.7317C67.5476 85.7871 69.3171 85.2151 71.1929 85.0421L89.592 83.3126C92.6253 83.02 95.4989 82.102 98.133 80.5854C103.92 77.2328 106.794 70.847 105.477 64.3016Z"/></g><defs><clipPath id="clip0_2014_24271"><rect width="51.752" height="120" fill="#fff" transform="translate(54.124 20)"/></clipPath></defs></svg>