<svg xmlns="http://www.w3.org/2000/svg" width="160" height="160" fill="none" viewBox="0 0 160 160"><rect width="160" height="160" fill="#704CB6" rx="20"/><path fill="#fff" fill-rule="evenodd" d="M55.9221 98.0186C56.0576 102.03 59.3908 105.228 63.3965 105.228H63.6614C67.803 105.097 71.0008 101.628 70.8703 97.4882C70.7402 93.4879 67.4015 90.2791 63.3965 90.2791H63.1305C62.8598 90.2791 62.4637 90.2791 62.1977 90.4143C56.7244 81.3361 54.4582 71.4641 55.2551 60.7863C55.7916 52.7785 58.4587 45.8388 63.1305 40.1012C67.0007 35.1634 74.4742 32.7605 79.5426 32.6275C93.6936 32.3592 99.6992 49.9766 100.094 57.0493C101.834 57.4505 104.767 58.3855 106.772 59.0526C105.168 37.4325 91.8233 26.2206 79.0108 26.2206C67.0007 26.2206 55.9221 34.8952 51.5206 47.7079C45.3802 64.7915 49.3856 81.2056 56.8544 94.1489C56.1926 95.0861 55.7916 96.5552 55.9221 98.0186M123.719 79.2011C113.577 67.3261 98.6292 60.7863 81.5454 60.7863H79.4102C78.2074 58.3855 75.6708 56.7837 72.8735 56.7837H72.6028C68.4668 56.9165 65.2643 60.3877 65.394 64.523C65.5301 68.5282 68.8634 71.7323 72.8735 71.7323H73.1342C76.072 71.5971 78.608 69.729 79.676 67.1933H82.0772C92.2228 67.1933 101.833 70.1303 110.51 75.8676C117.177 80.2741 121.984 86.0079 124.655 92.9512C126.922 98.5549 126.791 104.029 124.385 108.696C120.65 115.775 114.38 119.645 106.104 119.645C100.765 119.645 95.6922 118.04 93.025 116.837C91.5564 118.175 88.8846 120.31 87.0199 121.644C92.7548 124.317 98.6292 125.78 104.234 125.78C117.046 125.78 126.52 118.712 130.125 111.633C133.995 103.894 133.729 90.5496 123.719 79.2011M62.8571 124.317C60.1903 124.982 57.5234 125.248 54.8511 125.248C44.9762 125.248 36.0336 121.108 31.6274 114.441C25.7575 105.498 23.7573 86.5446 43.1066 72.531C43.508 74.6668 44.3096 77.6016 44.8409 79.3413C42.3045 81.2056 38.304 84.9461 35.7676 90.0131C32.1639 97.0867 32.5647 104.164 36.8356 110.702C39.7679 115.102 44.4399 117.774 50.4451 118.577C57.789 119.509 65.1281 118.175 72.2011 114.441C82.6125 108.967 89.5553 102.431 94.0867 93.4879C92.8886 92.2844 92.092 90.5496 91.9513 88.5452C91.8206 84.4096 95.0242 80.9411 99.1598 80.8057H99.4305C103.431 80.8057 106.769 84.0086 106.9 88.0136C107.034 92.0139 104.102 95.3519 100.233 95.7531C92.8886 110.831 79.9408 120.977 62.8571 124.317" clip-rule="evenodd"/></svg>