<svg width="161" height="160" viewBox="0 0 161 160" fill="none" xmlns="http://www.w3.org/2000/svg">
<rect x="0.5" width="160" height="160" rx="20" fill="#704CB6"/>
<path fill-rule="evenodd" clip-rule="evenodd" d="M56.422 98.0187C56.5575 102.03 59.8908 105.228 63.8964 105.228H64.1613C68.3029 105.097 71.5007 101.628 71.3702 97.4882C71.2401 93.4879 67.9014 90.2791 63.8964 90.2791H63.6304C63.3597 90.2791 62.9637 90.2791 62.6977 90.4144C57.2243 81.3361 54.9581 71.4641 55.755 60.7863C56.2915 52.7785 58.9587 45.8388 63.6304 40.1012C67.5007 35.1634 74.9742 32.7605 80.0425 32.6275C94.1936 32.3592 100.199 49.9766 100.594 57.0493C102.334 57.4505 105.267 58.3856 107.272 59.0526C105.668 37.4325 92.3233 26.2206 79.5107 26.2206C67.5007 26.2206 56.422 34.8952 52.0205 47.708C45.8801 64.7915 49.8856 81.2056 57.3544 94.1489C56.6925 95.0862 56.2915 96.5552 56.422 98.0187M124.219 79.2012C114.077 67.3261 99.1291 60.7863 82.0453 60.7863H79.9102C78.7073 58.3856 76.1707 56.7838 73.3735 56.7838H73.1028C68.9668 56.9165 65.7643 60.3877 65.8939 64.523C66.03 68.5283 69.3633 71.7324 73.3735 71.7324H73.6341C76.572 71.5971 79.1079 69.7291 80.1759 67.1933H82.5771C92.7227 67.1933 102.333 70.1303 111.01 75.8677C117.677 80.2741 122.484 86.0079 125.155 92.9512C127.422 98.5549 127.291 104.029 124.884 108.696C121.15 115.775 114.879 119.645 106.604 119.645C101.264 119.645 96.1921 118.041 93.525 116.837C92.0564 118.176 89.3845 120.31 87.5198 121.644C93.2547 124.317 99.1291 125.78 104.734 125.78C117.546 125.78 127.02 118.712 130.625 111.633C134.495 103.894 134.229 90.5496 124.219 79.2012M63.357 124.317C60.6903 124.982 58.0233 125.248 55.351 125.248C45.4761 125.248 36.5336 121.108 32.1273 114.441C26.2574 105.498 24.2573 86.5446 43.6065 72.531C44.008 74.6669 44.8095 77.6016 45.3409 79.3413C42.8045 81.2056 38.804 84.9461 36.2676 90.0131C32.6638 97.0867 33.0646 104.164 37.3356 110.702C40.2678 115.102 44.9399 117.774 50.945 118.577C58.2889 119.509 65.6281 118.176 72.701 114.441C83.1124 108.967 90.0553 102.431 94.5867 93.4879C93.3885 92.2844 92.5919 90.5496 92.4513 88.5452C92.3205 84.4097 95.5242 80.9411 99.6597 80.8057H99.9304C103.93 80.8057 107.269 84.0087 107.399 88.0137C107.534 92.0139 104.602 95.3519 100.733 95.7532C93.3885 110.831 80.4408 120.977 63.357 124.317" fill="white"/>
</svg>
