<svg width="80" height="80" viewBox="0 0 80 80" fill="none" xmlns="http://www.w3.org/2000/svg">
<rect x="-0.000976562" width="79.9995" height="79.9995" rx="10.5893" fill="#BF4722"/>
<g clip-path="url(#clip0_5169_71970)">
<path fill-rule="evenodd" clip-rule="evenodd" d="M28.0587 19.3857L39.387 27.073C39.6427 27.2422 39.9414 27.3349 40.2479 27.3401C40.5548 27.3379 40.8543 27.2449 41.1087 27.073L52.4457 19.3598C52.8861 19.0463 53.1291 18.5236 53.0849 17.9843C53.0408 17.445 52.7161 16.9689 52.2304 16.7313L40.9021 11.1555C40.4724 10.9482 39.9717 10.9482 39.542 11.1555L28.2481 16.7313C27.7537 16.9701 27.4247 17.4555 27.3856 18.0036C27.3465 18.5517 27.6032 19.0789 28.0587 19.3857V19.3857ZM44.0957 29.486C44.0966 29.9957 44.3476 30.4726 44.7672 30.7615L53.8488 36.932C54.4302 37.3304 55.208 37.2807 55.734 36.8113L63.3522 30.0376C63.6917 29.736 63.8803 29.2993 63.867 28.8451C63.8537 28.3909 63.6399 27.9659 63.2833 27.6848L56.0094 21.9021C55.4807 21.4846 54.7432 21.4567 54.1845 21.8332L44.7672 28.2364C44.355 28.52 44.105 28.9854 44.0957 29.486V29.486ZM21.5078 37.8799C21.8749 38.2077 22.0636 38.6912 22.0157 39.1813C21.9681 39.6742 21.6817 40.1123 21.2496 40.3533L15.8264 43.5851C15.2767 43.9118 14.5826 43.8646 14.0819 43.4667C13.5812 43.0687 13.378 42.4026 13.5711 41.7925L15.5768 35.5186C15.7341 35.0215 16.133 34.6384 16.6356 34.5017C17.1379 34.3564 17.6795 34.4838 18.0646 34.8378L21.5078 37.8799ZM50.922 38.5349L41.1173 31.8646C40.5962 31.516 39.9167 31.516 39.3957 31.8646L29.5909 38.5349C29.201 38.8032 28.9539 39.2344 28.9195 39.707C28.8941 40.1827 29.0838 40.6448 29.436 40.9652L39.2321 49.678C39.5146 49.9285 39.8791 50.0665 40.2565 50.0658C40.6337 50.0657 40.9979 49.9278 41.2809 49.678L51.077 40.9652C51.4303 40.6461 51.6175 40.1822 51.5848 39.707C51.5575 39.2345 51.3126 38.8015 50.922 38.5349V38.5349ZM24.7704 36.8113L17.1607 30.0375C16.8183 29.7283 16.6294 29.2838 16.6442 28.8224C16.6525 28.3676 16.8642 27.9406 17.221 27.6589L24.4949 21.8418C25.0273 21.4254 25.7663 21.3977 26.3284 21.7729L35.7372 28.1761C36.1738 28.4607 36.4372 28.9471 36.4372 29.4688C36.4372 29.9904 36.1738 30.4768 35.7372 30.7615L26.6641 36.9319C26.0793 37.3287 25.3003 37.2791 24.7704 36.8113V36.8113ZM63.8429 46.5411L56.0955 41.9304C55.5202 41.5857 54.7878 41.6555 54.2878 42.1028L44.8188 50.5053C44.4194 50.86 44.2318 51.3963 44.323 51.9229C44.4142 52.4495 44.7711 52.8914 45.2664 53.0907L58.4026 58.3822C58.5827 58.4566 58.7758 58.4947 58.9707 58.4943C59.5803 58.4962 60.1338 58.138 60.3824 57.5807L64.4541 48.5146C64.7855 47.7971 64.5216 46.945 63.8429 46.5411ZM64.9189 35.5186L66.9246 41.7925H66.9074C67.0557 42.2618 66.9714 42.7738 66.6805 43.1707C66.3896 43.5674 65.9271 43.8015 65.4354 43.8005C65.1596 43.8015 64.8887 43.7269 64.652 43.5851L59.2203 40.3533C58.7971 40.1072 58.5206 39.6696 58.48 39.1813C58.4292 38.6908 58.6184 38.2061 58.9879 37.88L62.4311 34.8292C62.8202 34.4826 63.3577 34.3562 63.8601 34.4931C64.3624 34.6357 64.7599 35.0208 64.9189 35.5186V35.5186ZM36.1848 51.9187C36.2774 51.3942 36.0916 50.8593 35.6941 50.5053L26.2251 42.1028C25.7251 41.6555 24.9928 41.5857 24.4174 41.9304L16.67 46.5411C15.9992 46.9468 15.7338 47.7882 16.0502 48.506L20.1305 57.5721C20.4686 58.3281 21.3425 58.6819 22.1104 58.3736L35.2379 53.0822C35.7334 52.8845 36.0916 52.4444 36.1848 51.9187V51.9187ZM40.8332 54.5041L51.3697 58.7442C51.8848 58.9634 52.2407 59.4451 52.2993 60.0024C52.366 60.5667 52.1139 61.1213 51.6451 61.4416L41.1001 68.7238C40.8474 68.9003 40.5474 68.9964 40.2393 68.9996C39.9314 68.9949 39.6319 68.8989 39.3784 68.7238L28.842 61.4416C28.3715 61.1222 28.1163 60.5681 28.1792 60.0024C28.2495 59.4393 28.6182 58.9581 29.1433 58.7442L39.6797 54.5041C40.0503 54.3573 40.4627 54.3573 40.8332 54.5041V54.5041Z" fill="white"/>
</g>
<defs>
<clipPath id="clip0_5169_71970">
<rect width="53.4997" height="57.9996" fill="white" transform="translate(13.499 11)"/>
</clipPath>
</defs>
</svg>
