<svg xmlns="http://www.w3.org/2000/svg" width="160" height="160" fill="none" viewBox="0 0 160 160"><rect width="160" height="160" fill="#BF4722" rx="20"/><g clip-path="url(#clip0_781_8147)"><path fill="#fff" fill-rule="evenodd" d="M56.1195 38.7715L78.7763 54.1462C79.2878 54.4846 79.8851 54.67 80.498 54.6804C81.1119 54.676 81.7108 54.4901 82.2197 54.1462L104.894 38.7198C105.775 38.0927 106.261 37.0473 106.172 35.9686C106.084 34.89 105.435 33.9378 104.463 33.4627L81.8065 22.3109C80.947 21.8964 79.9457 21.8964 79.0862 22.3109L56.4983 33.4627C55.5095 33.9403 54.8515 34.911 54.7733 36.0072C54.6951 37.1035 55.2086 38.158 56.1195 38.7715V38.7715ZM88.1937 58.9722C88.1956 59.9917 88.6976 60.9454 89.5367 61.5232L107.7 73.8643C108.863 74.6612 110.419 74.5617 111.47 73.6229L126.707 60.0754C127.386 59.4723 127.763 58.5988 127.737 57.6904C127.71 56.782 127.282 55.9321 126.569 55.3698L112.021 43.8044C110.964 42.9693 109.489 42.9135 108.371 43.6665L89.5367 56.473C88.7124 57.0402 88.2123 57.971 88.1937 58.9722V58.9722ZM43.0177 75.7602C43.7519 76.4158 44.1292 77.3828 44.0335 78.3629C43.9382 79.3488 43.3654 80.2249 42.5012 80.707L31.6549 87.1705C30.5554 87.824 29.1671 87.7297 28.1658 86.9338C27.1644 86.1379 26.7579 84.8056 27.1441 83.5854L31.1556 71.0375C31.4703 70.0434 32.2679 69.2772 33.2732 69.0037C34.2777 68.7131 35.361 68.9678 36.1311 69.6759L43.0177 75.7602ZM101.846 77.0702L82.2369 63.7294C81.1947 63.0322 79.8357 63.0322 78.7936 63.7294L59.184 77.0702C58.4041 77.6068 57.9099 78.4693 57.8411 79.4143C57.7903 80.3659 58.1697 81.2899 58.8741 81.9307L78.4665 99.3565C79.0315 99.8575 79.7605 100.133 80.5153 100.132C81.2697 100.132 81.9981 99.8561 82.564 99.3565L102.156 81.9307C102.863 81.2926 103.237 80.3647 103.172 79.4143C103.117 78.4694 102.628 77.6033 101.846 77.0702V77.0702ZM49.5428 73.6229L34.3234 60.0753C33.6386 59.4569 33.2607 58.5678 33.2904 57.6451C33.307 56.7355 33.7304 55.8814 34.4439 55.3181L48.9918 43.6838C50.0567 42.851 51.5347 42.7954 52.659 43.5458L71.4766 56.3524C72.3499 56.9217 72.8766 57.8943 72.8766 58.9378C72.8766 59.9811 72.3499 60.9538 71.4766 61.5232L53.3304 73.8642C52.1606 74.6577 50.6028 74.5584 49.5428 73.6229V73.6229ZM127.688 93.0826L112.194 83.8612C111.043 83.1718 109.578 83.3114 108.578 84.2059L89.64 101.011C88.8412 101.72 88.466 102.793 88.6483 103.846C88.8307 104.9 89.5446 105.783 90.5352 106.182L116.808 116.765C117.168 116.914 117.554 116.99 117.944 116.989C119.163 116.993 120.27 116.277 120.767 115.162L128.911 97.0296C129.574 95.5947 129.046 93.8904 127.688 93.0826ZM129.84 71.0376L133.852 83.5854H133.817C134.114 84.524 133.946 85.548 133.364 86.3417C132.782 87.1353 131.857 87.6033 130.873 87.6015C130.322 87.6033 129.78 87.4543 129.307 87.1705L118.443 80.707C117.597 80.2148 117.044 79.3395 116.962 78.3629C116.861 77.382 117.239 76.4125 117.978 75.7603L124.865 69.6587C125.643 68.9655 126.718 68.7126 127.723 68.9865C128.727 69.2717 129.522 70.0419 129.84 71.0376V71.0376ZM72.3718 103.838C72.557 102.789 72.1855 101.719 71.3905 101.011L52.4523 84.2059C51.4524 83.3114 49.9876 83.1718 48.8369 83.8612L33.342 93.0826C32.0004 93.894 31.4696 95.5768 32.1025 97.0124L40.2631 115.145C40.9392 116.657 42.6871 117.364 44.2229 116.748L70.4781 106.165C71.4689 105.77 72.1854 104.889 72.3718 103.838V103.838ZM81.6687 109.009L102.742 117.489C103.772 117.927 104.484 118.891 104.601 120.005C104.735 121.134 104.23 122.243 103.293 122.884L82.2024 137.448C81.6971 137.801 81.0971 137.994 80.4809 138C79.8651 137.99 79.2661 137.799 78.7592 137.448L57.6862 122.884C56.7451 122.245 56.2348 121.137 56.3605 120.005C56.5012 118.879 57.2386 117.917 58.2888 117.489L79.3617 109.009C80.1028 108.715 80.9278 108.715 81.6687 109.009V109.009Z" clip-rule="evenodd"/></g><defs><clipPath id="clip0_781_8147"><rect width="107" height="116" fill="#fff" transform="translate(27 22)"/></clipPath></defs></svg>