<svg width="60" height="60" viewBox="0 0 60 60" fill="none" xmlns="http://www.w3.org/2000/svg">
<rect width="60" height="60" rx="10" fill="#CF649A"/>
<path fill-rule="evenodd" clip-rule="evenodd" d="M48.9902 31.8187C47.3044 31.8281 45.8447 32.2331 44.6205 32.8358C44.5415 32.6795 44.4625 32.5267 44.3856 32.3777L44.3851 32.3769L44.3846 32.3759C44.0214 31.673 43.7032 31.0571 43.641 30.5756C43.6262 30.4571 43.6108 30.3466 43.5961 30.2406C43.5264 29.7406 43.4708 29.3416 43.5563 28.6733C43.6287 28.107 43.8807 27.3749 44.0258 26.9536C44.0881 26.7723 44.1307 26.6486 44.1307 26.6203C44.1213 26.5355 44.0271 26.1211 43.0571 26.1117C42.0871 26.1023 41.249 26.3001 41.1548 26.5543C41.0606 26.8086 40.8723 27.3925 40.7499 27.9952C40.5803 28.8805 38.8099 32.0165 37.8022 33.6645C37.4726 33.0242 37.1901 32.4591 37.1336 32.0071C37.1187 31.8885 37.1033 31.778 37.0886 31.6721C37.0189 31.172 36.9633 30.773 37.0488 30.1047C37.1212 29.5384 37.3732 28.8064 37.5183 28.385C37.5807 28.2038 37.6233 28.08 37.6233 28.0517C37.6138 27.967 37.5197 27.5526 36.5497 27.5432C35.5797 27.5338 34.7415 27.7315 34.6473 27.9858C34.6084 28.0909 34.5678 28.2557 34.519 28.454L34.519 28.4542L34.519 28.4542L34.519 28.4542C34.4497 28.7355 34.3639 29.0843 34.2424 29.4267C34.06 29.9652 32.0426 34.4621 31.2503 36.2284L31.0781 36.6122C30.7673 37.3091 30.4942 37.8647 30.2965 38.2414C30.1583 38.5046 30.2086 38.4139 30.245 38.3481L30.245 38.3481C30.2607 38.3197 30.2739 38.296 30.2682 38.3074C30.0987 38.6276 30.0045 38.8065 30.0045 38.8065V38.8159C29.8727 39.0513 29.7314 39.2774 29.6655 39.2774C29.6184 39.2774 29.5242 38.6464 29.6843 37.78C29.9157 36.5729 30.3673 34.9172 30.6417 33.9109C30.7806 33.4019 30.8741 33.0589 30.8709 33.0242C30.8709 33.0198 30.8723 33.0115 30.8743 32.9999C30.8932 32.8864 30.9654 32.4543 30.3247 32.2237C29.7706 32.0187 29.504 32.2543 29.3919 32.3534L29.3919 32.3534L29.3918 32.3534L29.3918 32.3534C29.3649 32.3773 29.3468 32.3932 29.3359 32.3932C29.2794 32.3932 29.2323 32.5439 29.2323 32.5439C29.2323 32.5439 29.9951 29.3513 27.7726 29.3513C26.3788 29.3513 24.4576 30.8675 23.5065 32.2519C23.3226 32.3525 23.0757 32.4872 22.7827 32.647L22.7811 32.6479L22.778 32.6495C22.1111 33.0134 21.2071 33.5066 20.2668 34.0224C20.0596 34.1354 19.8494 34.2514 19.6392 34.3675C19.3239 34.5415 19.0087 34.7155 18.7035 34.8794L18.5999 34.7664C17.7684 33.8796 16.7188 33.0728 15.6711 32.2674C13.3251 30.4639 10.9887 28.6679 11.1319 25.9987C11.2072 24.5955 11.6969 20.8944 20.7 16.4117C28.0739 12.7389 33.9787 13.7466 35.0052 15.9879C36.4649 19.1899 31.8503 25.1417 24.1845 25.9987C21.2651 26.3283 19.73 25.1982 19.3439 24.7744C18.939 24.3318 18.8825 24.313 18.7318 24.3977C18.4869 24.5296 18.6376 24.9251 18.7318 25.1606C18.9578 25.7539 19.8996 26.8086 21.5005 27.336C22.9037 27.7974 26.3317 28.0517 30.4754 26.4507C35.1182 24.652 38.7439 19.6607 37.6798 15.4888C36.5968 11.2415 29.5525 9.84773 22.8943 12.2115C18.9296 13.6241 14.6352 15.8278 11.5463 18.719C7.87343 22.147 7.28955 25.1417 7.5344 26.3848C8.17267 29.6884 11.7258 32.1352 14.5095 34.0522C15.4634 34.7091 16.327 35.3038 16.9519 35.8494C16.883 35.8865 16.8171 35.9236 16.7541 35.959C16.7052 35.9865 16.6581 36.013 16.6129 36.0377C15.3886 36.6405 10.7269 39.0796 9.55916 41.66C8.24071 44.5794 9.76635 46.6795 10.7834 46.962C13.9289 47.8378 17.1497 46.2651 18.8919 43.6753C20.6247 41.0855 20.4175 37.7235 19.617 36.1884L19.5888 36.1319L20.5494 35.5669C21.1709 35.1996 21.7831 34.8606 22.3199 34.5686C22.0185 35.3879 21.8019 36.3579 21.6889 37.7706C21.557 39.428 22.2351 41.5752 23.1298 42.4228C23.5253 42.7901 23.9962 42.7995 24.2881 42.7995C25.324 42.7995 25.7949 41.9425 26.3129 40.916C26.9533 39.6635 27.5183 38.2132 27.5183 38.2132C27.5183 38.2132 26.812 42.1403 28.7426 42.1403C29.4489 42.1403 30.1552 41.2268 30.4754 40.7559V40.7653C30.4754 40.7653 30.4942 40.7371 30.5319 40.6711C30.6072 40.5581 30.6449 40.4922 30.6449 40.4922V40.4734C30.9274 39.9837 31.5584 38.863 32.5002 37.0077C33.715 34.6157 34.8828 31.6209 34.8828 31.6209C34.8828 31.6209 34.9958 32.3555 35.3442 33.5609C35.4877 34.0565 35.7486 34.5837 36.0111 35.1144C36.1278 35.3501 36.2447 35.5865 36.3519 35.8211C36.0694 36.2167 35.8999 36.4427 35.8999 36.4427L35.9093 36.4521C35.6833 36.7535 35.429 37.0737 35.1653 37.3939C34.9718 37.6253 34.7706 37.8633 34.5715 38.0989C33.7823 39.0324 33.0254 39.9277 32.9051 40.2285C32.7262 40.6711 32.7638 41.0008 33.1123 41.2644C33.3666 41.4528 33.8186 41.4905 34.2989 41.4528C35.1653 41.3963 35.768 41.1797 36.0694 41.0478C36.5402 40.8783 37.077 40.6241 37.595 40.2474C38.5368 39.5505 39.1112 38.5616 39.0547 37.2432C39.0265 36.518 38.791 35.8023 38.4991 35.1242C38.5838 35.0018 38.6686 34.8794 38.7534 34.7476C40.2413 32.5721 41.3903 30.1801 41.3903 30.1801C41.3903 30.1801 41.5033 30.9146 41.8517 32.1201C41.9985 32.6224 42.2659 33.1628 42.534 33.7047C42.5926 33.8232 42.6513 33.9418 42.7087 34.0601C41.3149 35.1996 40.4391 36.518 40.1377 37.3844C39.5821 38.9854 40.0153 39.7106 40.8346 39.8801C41.2019 39.9554 41.7293 39.7859 42.1248 39.6164C42.6145 39.4563 43.2078 39.1832 43.754 38.7782C44.6958 38.0813 45.5999 37.1113 45.5528 35.8023C45.5245 35.1996 45.3644 34.6063 45.1478 34.0412C46.3344 33.5515 47.8695 33.269 49.8189 33.5044C54.0097 33.9942 54.8384 36.6122 54.6783 37.7046C54.5182 38.7971 53.6424 39.3998 53.3505 39.5881C53.0585 39.7671 52.9643 39.833 52.9926 39.9648C53.0303 40.1626 53.1621 40.1532 53.4164 40.1155C53.7648 40.059 55.6201 39.2209 55.6954 37.2055C55.8084 34.6157 53.3505 31.7905 48.9902 31.8187ZM16.6694 42.7147C15.285 44.231 13.3356 44.8054 12.5068 44.3157C11.6122 43.7977 11.9606 41.5658 13.6652 39.9554C14.7011 38.976 16.0478 38.0719 16.9331 37.5163C17.0536 37.4416 17.2128 37.346 17.3997 37.2336C17.5193 37.1616 17.6504 37.0829 17.79 36.9983C17.8465 36.9607 17.8842 36.9418 17.8842 36.9418C17.9501 36.9042 18.0253 36.8572 18.1006 36.8101L18.1007 36.8101L18.1008 36.81C18.7318 39.1078 18.1291 41.1232 16.6694 42.7147ZM26.5019 36.5777C26.6117 36.291 26.7104 36.0334 26.7932 35.8306C27.0945 35.096 28.2717 31.8187 28.0268 31.3667C27.8197 31.0182 26.9909 31.3008 26.2281 32.1483C25.7572 32.6757 24.9567 34.0318 24.58 35.1713C23.8361 37.4315 24.1563 39.72 24.6836 39.8612C25.1903 40.0016 25.9744 37.9547 26.5019 36.5777ZM35.1465 39.8236C34.9393 39.9272 34.7509 40.0025 34.6662 39.946C34.6002 39.9083 34.7509 39.7671 34.7509 39.7671C34.7509 39.7671 35.7963 38.6464 36.2106 38.1284C36.292 38.0242 36.3791 37.9144 36.4706 37.7989L36.4707 37.7988L36.4707 37.7988C36.6438 37.5804 36.8328 37.3418 37.03 37.0831V37.1961C37.03 38.5522 35.7303 39.4563 35.1465 39.8236ZM41.9647 36.8006C41.4562 37.893 41.4373 38.2414 41.588 38.3544C42.3226 38.0908 43.528 37.4598 43.5374 35.7646C43.5469 35.5104 43.4904 35.2373 43.3962 34.9547C42.6145 35.6422 42.1625 36.3674 41.9647 36.8006Z" fill="white"/>
</svg>
