<svg width="161" height="160" viewBox="0 0 161 160" fill="none" xmlns="http://www.w3.org/2000/svg">
<rect x="0.5" width="160" height="160" rx="20" fill="#CF649A"/>
<path fill-rule="evenodd" clip-rule="evenodd" d="M131.141 81.8477C126.646 81.8728 122.753 82.9527 119.489 84.5599C119.278 84.1427 119.067 83.7346 118.861 83.337L118.86 83.334L118.86 83.3335C117.891 81.4591 117.042 79.8166 116.877 78.5327C116.837 78.2166 116.796 77.9219 116.757 77.6394C116.571 76.3059 116.423 75.242 116.651 73.4598C116.844 71.9497 117.516 69.9975 117.903 68.8739L117.903 68.8737C118.069 68.3905 118.183 68.0607 118.183 67.9851C118.158 67.7591 117.906 66.6541 115.32 66.629C112.733 66.6039 110.498 67.1313 110.247 67.8093C109.996 68.4874 109.493 70.0444 109.167 71.6517C108.715 74.0123 103.994 82.375 101.307 86.7699C100.428 85.0622 99.6741 83.5554 99.5235 82.3499C99.4839 82.0338 99.4429 81.7392 99.4035 81.4566C99.2177 80.1232 99.0695 79.0592 99.2974 77.2771C99.4906 75.7669 100.163 73.8147 100.549 72.6912L100.549 72.691L100.55 72.6907C100.716 72.2077 100.829 71.8779 100.829 71.8024C100.804 71.5763 100.553 70.4713 97.9664 70.4462C95.3798 70.4211 93.1447 70.9485 92.8935 71.6266C92.7897 71.907 92.6815 72.3465 92.5512 72.8757L92.5512 72.8759L92.5511 72.8762L92.5511 72.8763C92.3665 73.6262 92.1376 74.5562 91.8137 75.4689C91.3273 76.905 85.9485 88.8949 83.8351 93.6058L83.3756 94.6303C82.5469 96.4887 81.8186 97.9704 81.2912 98.9749C80.9227 99.6768 81.0569 99.4346 81.1541 99.2593C81.196 99.1836 81.231 99.1205 81.2159 99.1507C80.7638 100.005 80.5127 100.482 80.5127 100.482V100.507C80.1611 101.135 79.7844 101.737 79.6086 101.737C79.4831 101.737 79.2319 100.055 79.6588 97.7444C80.2759 94.5256 81.48 90.1106 82.2119 87.4269L82.212 87.4268C82.5822 86.0694 82.8316 85.155 82.8231 85.0622C82.8231 85.0505 82.8268 85.0284 82.832 84.9974C82.8825 84.6948 83.075 83.5426 81.3666 82.9275C79.889 82.381 79.1781 83.0091 78.879 83.2734C78.807 83.337 78.7589 83.3796 78.7297 83.3796C78.579 83.3796 78.4534 83.7814 78.4534 83.7814C78.4534 83.7814 80.4876 75.268 74.5608 75.268C70.8441 75.268 65.721 79.3112 63.1845 83.0029C62.7023 83.2666 62.0573 83.6185 61.293 84.0354L61.2721 84.0468L61.2614 84.0527L61.2542 84.0566C59.4746 85.0275 57.0586 86.3455 54.5456 87.7242C53.9931 88.0255 53.4326 88.3349 52.8721 88.6443C52.0313 89.1084 51.1904 89.5725 50.3768 90.0095L50.1005 89.7081C47.8832 87.3435 45.0842 85.1918 42.2903 83.0441C36.0343 78.235 29.8037 73.4454 30.1857 66.3277C30.3866 62.5858 31.6925 52.7163 55.7008 40.7623C75.3645 30.9681 91.1105 33.6553 93.8479 39.6322C97.7404 48.1707 85.4349 64.0423 64.9927 66.3277C57.2076 67.2066 53.1141 64.193 52.0845 63.0629C51.0046 61.8826 50.8539 61.8324 50.4521 62.0584C49.7991 62.41 50.201 63.4647 50.4521 64.0926C51.0548 65.6747 53.5661 68.4874 57.8354 69.8937C61.5773 71.1243 70.7185 71.8024 81.7684 67.5331C94.1492 62.7365 103.818 49.4264 100.98 38.3012C98.092 26.9751 79.3073 23.2584 61.5522 29.5618C50.9795 33.3288 39.5278 39.2053 31.2907 46.9151C21.4965 56.0563 19.9394 64.0423 20.5924 67.3573C22.2944 76.1668 31.7695 82.6917 39.1926 87.8036L39.1926 87.8036L39.1927 87.8037C41.7364 89.5554 44.0392 91.1412 45.7057 92.5962C45.5227 92.6947 45.3476 92.7932 45.1805 92.8873L45.179 92.8881L45.1785 92.8884C45.0481 92.9618 44.9224 93.0325 44.8016 93.0984C41.5369 94.7057 29.1058 101.21 25.9917 108.091C22.4759 115.876 26.5442 121.476 29.2565 122.23C37.6443 124.565 46.2331 120.371 50.879 113.465C55.4999 106.559 54.9474 97.5937 52.8127 93.5002L52.7374 93.3496L55.299 91.8428C56.9564 90.8633 58.5888 89.9593 60.0203 89.1808C59.2166 91.3656 58.639 93.9523 58.3377 97.7193C57.9861 102.139 59.7942 107.865 62.18 110.125C63.2348 111.105 64.4904 111.13 65.2689 111.13C68.0314 111.13 69.2871 108.844 70.6683 106.107C72.376 102.767 73.8828 98.8996 73.8828 98.8996C73.8828 98.8996 71.9993 109.372 77.1475 109.372C79.031 109.372 80.9145 106.936 81.7684 105.68V105.705C81.7684 105.705 81.8186 105.63 81.919 105.454C82.1199 105.153 82.2204 104.977 82.2204 104.977V104.927C82.9738 103.621 84.6564 100.632 87.1677 95.6851C90.4073 89.3063 93.5214 81.3203 93.5214 81.3203C93.5214 81.3203 93.8227 83.2791 94.7519 86.4936C95.1345 87.8152 95.8301 89.2211 96.5303 90.6362C96.8414 91.2648 97.1533 91.8952 97.439 92.5208C96.6857 93.5756 96.2336 94.1783 96.2336 94.1783L96.2587 94.2034C95.656 95.007 94.978 95.8609 94.2748 96.7147C93.7591 97.3316 93.223 97.9657 92.6924 98.5934L92.6911 98.5948L92.691 98.595C90.5866 101.084 88.5684 103.472 88.2476 104.274C87.7704 105.454 87.8709 106.333 88.8001 107.036C89.4781 107.539 90.6836 107.639 91.9644 107.539C94.2748 107.388 95.882 106.81 96.6857 106.459C97.9413 106.007 99.3728 105.329 100.754 104.324C103.265 102.466 104.797 99.8288 104.647 96.3129C104.571 94.3792 103.943 92.4706 103.165 90.6624C103.391 90.336 103.617 90.0095 103.843 89.6579C107.811 83.8567 110.875 77.478 110.875 77.478C110.875 77.478 111.176 79.4368 112.105 82.6513C112.497 83.9908 113.21 85.4318 113.925 86.8771C114.081 87.193 114.237 87.5092 114.391 87.8246C110.674 90.8633 108.338 94.3792 107.535 96.6896C106.053 100.959 107.208 102.893 109.393 103.345C110.372 103.546 111.779 103.094 112.833 102.641C114.139 102.215 115.722 101.486 117.178 100.406C119.689 98.548 122.1 95.9613 121.975 92.4706C121.899 90.8633 121.472 89.2812 120.895 87.7744C124.059 86.4685 128.153 85.7151 133.351 86.3429C144.526 87.6488 146.736 94.6303 146.31 97.5435C145.883 100.457 143.547 102.064 142.769 102.566C141.99 103.043 141.739 103.219 141.814 103.571C141.915 104.098 142.266 104.073 142.944 103.972C143.874 103.822 148.821 101.587 149.022 96.2125C149.323 89.3063 142.769 81.7723 131.141 81.8477ZM44.9523 110.904C41.2606 114.947 36.0622 116.479 33.8522 115.173C31.4664 113.792 32.3956 107.84 36.9411 103.546C39.7036 100.934 43.2948 98.5229 45.6555 97.0412C45.9759 96.8428 46.3984 96.5888 46.8948 96.2904L46.8993 96.2877L46.9 96.2872C47.219 96.0954 47.5684 95.8854 47.9408 95.66C48.0914 95.5595 48.1919 95.5093 48.1919 95.5093C48.3677 95.4088 48.5686 95.2833 48.7695 95.1577C50.4521 101.285 48.8448 106.66 44.9523 110.904ZM71.1724 94.5383C71.4652 93.7738 71.7284 93.0868 71.9491 92.5459C72.7527 90.5871 75.8919 81.8477 75.2389 80.6422C74.6864 79.713 72.4764 80.4664 70.4423 82.7266C69.1866 84.133 67.052 87.7493 66.0474 90.788C64.0635 96.8152 64.9173 102.918 66.3237 103.294C67.6748 103.669 69.7657 98.2104 71.1724 94.5383ZM94.2245 103.194C93.6721 103.47 93.1698 103.671 92.9438 103.52C92.768 103.42 93.1698 103.043 93.1698 103.043C93.1698 103.043 95.9574 100.055 97.0624 98.6736C97.2789 98.3963 97.5105 98.1042 97.7538 97.7971L97.7559 97.7945L97.7569 97.7932C98.2182 97.2111 98.722 96.5753 99.2472 95.886V96.1873C99.2472 99.8037 95.7816 102.215 94.2245 103.194ZM112.407 95.1326C111.05 98.0457 111 98.9749 111.402 99.2763C113.361 98.5731 116.575 96.8905 116.6 92.3701C116.626 91.6921 116.475 90.9638 116.224 90.2104C114.139 92.0437 112.934 93.9774 112.407 95.1326Z" fill="white"/>
</svg>
