<svg width="160" height="160" viewBox="0 0 160 160" fill="none" xmlns="http://www.w3.org/2000/svg">
<rect width="160" height="160" rx="20" fill="#CF649A"/>
<path fill-rule="evenodd" clip-rule="evenodd" d="M130.641 81.8477C126.145 81.8728 122.253 82.9527 118.988 84.5599C118.777 84.1427 118.566 83.7346 118.361 83.337L118.359 83.334L118.359 83.3335C117.391 81.4591 116.542 79.8166 116.376 78.5327C116.337 78.2166 116.296 77.9219 116.256 77.6394C116.071 76.3059 115.922 75.242 116.15 73.4598C116.343 71.9497 117.015 69.9975 117.402 68.8739L117.402 68.8737C117.569 68.3905 117.682 68.0607 117.682 67.9851C117.657 67.7591 117.406 66.6541 114.819 66.629C112.233 66.6039 109.997 67.1313 109.746 67.8093C109.495 68.4874 108.993 70.0444 108.666 71.6517C108.214 74.0123 103.493 82.375 100.806 86.7699C99.927 85.0622 99.1737 83.5554 99.023 82.3499C98.9835 82.0338 98.9424 81.7392 98.903 81.4566C98.7172 80.1232 98.569 79.0592 98.797 77.2771C98.9901 75.7669 99.6621 73.8147 100.049 72.6912L100.049 72.691L100.049 72.6907C100.215 72.2077 100.329 71.8779 100.329 71.8024C100.304 71.5763 100.053 70.4713 97.466 70.4462C94.8793 70.4211 92.6442 70.9485 92.3931 71.6266C92.2892 71.907 92.181 72.3465 92.0508 72.8757L92.0507 72.8759L92.0506 72.8762L92.0506 72.8763C91.866 73.6262 91.6371 74.5562 91.3132 75.4689C90.8268 76.905 85.448 88.8949 83.3347 93.6058L82.8751 94.6303C82.0464 96.4887 81.3181 97.9704 80.7907 98.9749C80.4222 99.6768 80.5564 99.4346 80.6536 99.2593C80.6955 99.1836 80.7305 99.1205 80.7154 99.1507C80.2633 100.005 80.0122 100.482 80.0122 100.482V100.507C79.6606 101.135 79.2839 101.737 79.1081 101.737C78.9826 101.737 78.7314 100.055 79.1584 97.7444C79.7754 94.5256 80.9795 90.1106 81.7115 87.4269L81.7115 87.4268C82.0817 86.0694 82.3311 85.155 82.3226 85.0622C82.3226 85.0505 82.3263 85.0284 82.3315 84.9974C82.382 84.6948 82.5745 83.5426 80.8661 82.9275C79.3885 82.381 78.6776 83.0091 78.3785 83.2734C78.3065 83.337 78.2584 83.3796 78.2292 83.3796C78.0785 83.3796 77.9529 83.7814 77.9529 83.7814C77.9529 83.7814 79.9871 75.268 74.0604 75.268C70.3436 75.268 65.2205 79.3112 62.684 83.0029C62.2018 83.2666 61.5568 83.6185 60.7925 84.0354L60.7717 84.0468L60.7609 84.0527L60.7537 84.0566C58.9741 85.0275 56.5581 86.3455 54.0451 87.7242C53.4926 88.0255 52.9321 88.3349 52.3716 88.6443C51.5308 89.1084 50.69 89.5725 49.8763 90.0095L49.6 89.7081C47.3827 87.3435 44.5837 85.1918 41.7898 83.0441C35.5338 78.235 29.3033 73.4454 29.6852 66.3277C29.8861 62.5858 31.192 52.7163 55.2003 40.7623C74.864 30.9681 90.61 33.6553 93.3474 39.6322C97.2399 48.1707 84.9344 64.0423 64.4922 66.3277C56.7071 67.2066 52.6136 64.193 51.584 63.0629C50.5041 61.8826 50.3534 61.8324 49.9516 62.0584C49.2987 62.41 49.7005 63.4647 49.9516 64.0926C50.5543 65.6747 53.0657 68.4874 57.3349 69.8937C61.0768 71.1243 70.218 71.8024 81.2679 67.5331C93.6487 62.7365 103.317 49.4264 100.48 38.3012C97.5915 26.9751 78.8068 23.2584 61.0517 29.5618C50.479 33.3288 39.0273 39.2053 30.7902 46.9151C20.996 56.0563 19.439 64.0423 20.0919 67.3573C21.7939 76.1668 31.269 82.6917 38.6921 87.8036L38.6921 87.8036L38.6922 87.8037C41.236 89.5554 43.5387 91.1412 45.2052 92.5962C45.0222 92.6947 44.8472 92.7932 44.68 92.8873L44.6785 92.8881L44.678 92.8884C44.5476 92.9618 44.4219 93.0325 44.3011 93.0984C41.0364 94.7057 28.6053 101.21 25.4913 108.091C21.9754 115.876 26.0438 121.476 28.756 122.23C37.1438 124.565 45.7326 120.371 50.3785 113.465C54.9994 106.559 54.4469 97.5937 52.3123 93.5002L52.2369 93.3496L54.7985 91.8428C56.4559 90.8633 58.0883 89.9593 59.5198 89.1808C58.7161 91.3656 58.1385 93.9523 57.8372 97.7193C57.4856 102.139 59.2937 107.865 61.6795 110.125C62.7343 111.105 63.9899 111.13 64.7684 111.13C67.5309 111.13 68.7866 108.844 70.1678 106.107C71.8755 102.767 73.3823 98.8996 73.3823 98.8996C73.3823 98.8996 71.4988 109.372 76.647 109.372C78.5305 109.372 80.414 106.936 81.2679 105.68V105.705C81.2679 105.705 81.3181 105.63 81.4186 105.454C81.6195 105.153 81.7199 104.977 81.7199 104.977V104.927C82.4733 103.621 84.1559 100.632 86.6672 95.6851C89.9068 89.3063 93.0209 81.3203 93.0209 81.3203C93.0209 81.3203 93.3223 83.2791 94.2514 86.4936C94.634 87.8152 95.3296 89.2211 96.0299 90.6362C96.3409 91.2648 96.6528 91.8952 96.9386 92.5208C96.1852 93.5756 95.7331 94.1783 95.7331 94.1783L95.7582 94.2034C95.1555 95.007 94.4775 95.8609 93.7743 96.7147C93.2586 97.3316 92.7225 97.9657 92.1919 98.5934L92.1907 98.5948L92.1905 98.595C90.0861 101.084 88.0679 103.472 87.7471 104.274C87.27 105.454 87.3704 106.333 88.2996 107.036C88.9777 107.539 90.1831 107.639 91.4639 107.539C93.7743 107.388 95.3815 106.81 96.1852 106.459C97.4408 106.007 98.8723 105.329 100.254 104.324C102.765 102.466 104.297 99.8288 104.146 96.3129C104.071 94.3792 103.443 92.4706 102.664 90.6624C102.89 90.336 103.116 90.0095 103.342 89.6579C107.31 83.8567 110.374 77.478 110.374 77.478C110.374 77.478 110.676 79.4368 111.605 82.6513C111.996 83.9908 112.709 85.4318 113.424 86.8771C113.58 87.193 113.737 87.5092 113.89 87.8246C110.173 90.8633 107.838 94.3792 107.034 96.6896C105.552 100.959 106.708 102.893 108.892 103.345C109.872 103.546 111.278 103.094 112.333 102.641C113.639 102.215 115.221 101.486 116.678 100.406C119.189 98.548 121.6 95.9613 121.474 92.4706C121.399 90.8633 120.972 89.2812 120.394 87.7744C123.559 86.4685 127.652 85.7151 132.851 86.3429C144.026 87.6488 146.236 94.6303 145.809 97.5435C145.382 100.457 143.047 102.064 142.268 102.566C141.49 103.043 141.238 103.219 141.314 103.571C141.414 104.098 141.766 104.073 142.444 103.972C143.373 103.822 148.32 101.587 148.521 96.2125C148.823 89.3063 142.268 81.7723 130.641 81.8477ZM44.4518 110.904C40.7601 114.947 35.5617 116.479 33.3517 115.173C30.966 113.792 31.8952 107.84 36.4407 103.546C39.2031 100.934 42.7943 98.5229 45.155 97.0412C45.4754 96.8428 45.8979 96.5888 46.3943 96.2904L46.3988 96.2877L46.3995 96.2872C46.7185 96.0954 47.0679 95.8854 47.4403 95.66C47.591 95.5595 47.6914 95.5093 47.6914 95.5093C47.8672 95.4088 48.0681 95.2833 48.269 95.1577C49.9516 101.285 48.3443 106.66 44.4518 110.904ZM70.6719 94.5383C70.9647 93.7738 71.2279 93.0868 71.4486 92.5459C72.2522 90.5871 75.3914 81.8477 74.7384 80.6422C74.1859 79.713 71.976 80.4664 69.9418 82.7266C68.6861 84.133 66.5515 87.7493 65.547 90.788C63.563 96.8152 64.4169 102.918 65.8232 103.294C67.1743 103.669 69.2652 98.2104 70.6719 94.5383ZM93.7241 103.194C93.1716 103.47 92.6693 103.671 92.4433 103.52C92.2675 103.42 92.6693 103.043 92.6693 103.043C92.6693 103.043 95.4569 100.055 96.5619 98.6736C96.7785 98.3963 97.01 98.1042 97.2533 97.7971L97.2554 97.7945L97.2564 97.7932C97.7177 97.2111 98.2215 96.5753 98.7467 95.886V96.1873C98.7467 99.8037 95.2811 102.215 93.7241 103.194ZM111.906 95.1326C110.55 98.0457 110.5 98.9749 110.902 99.2763C112.86 98.5731 116.075 96.8905 116.1 92.3701C116.125 91.6921 115.974 90.9638 115.723 90.2104C113.639 92.0437 112.433 93.9774 111.906 95.1326Z" fill="white"/>
</svg>
