<svg width="160" height="160" viewBox="0 0 160 160" fill="none" xmlns="http://www.w3.org/2000/svg">
<rect width="160" height="160" rx="20" fill="#43B02A"/>
<path d="M101.754 95.4354C99.5312 93.2613 96.7878 92.9379 93.9029 93.6093C91.0128 94.2807 89.1954 96.1447 88.4246 98.9011C88.1625 99.8381 88.3056 99.9964 89.2592 99.9964C91.5302 99.9981 93.8011 99.9964 96.0721 99.9964C98.4156 99.9964 100.761 99.9832 103.104 100.006C103.652 100.011 103.887 99.8529 103.778 99.3218C103.475 97.8503 102.87 96.5274 101.754 95.4354Z" fill="white"/>
<path d="M129.984 44.7488C129.949 44.5046 129.801 44.1615 129.606 44.084C129.417 44.0081 129.017 44.1401 128.86 44.3083C121.095 52.6403 113.347 60.9871 105.593 69.3306C102.641 72.5077 99.6834 75.6798 96.7209 78.8486C95.9294 79.6948 95.4207 79.7014 94.5982 78.8898C89.2923 73.6607 83.9899 68.4283 78.6909 63.1942C77.9426 62.4552 77.9322 62.0824 78.6099 61.2494C80.2567 59.2204 81.9052 57.1931 83.5554 55.1674C84.321 54.2288 84.9211 54.2074 85.7505 55.085C88.6492 58.1498 91.5444 61.2197 94.4499 64.2796C95.3483 65.2265 95.7208 65.2017 96.4967 64.1823C104.856 53.2259 113.216 42.2711 121.56 31.3048C121.764 31.0376 121.924 30.6087 121.843 30.3217C121.795 30.1501 121.238 30.0214 120.91 30.0214C91.0012 30.0082 61.0903 30.0099 31.1812 30C30.6673 30 30.2828 30.127 30 30.5295C30 63.5159 30 96.5006 30 129.487C30.3707 129.922 30.857 130 31.4243 130C63.801 129.99 96.176 129.992 128.553 129.992C129.855 129.992 129.948 129.903 129.948 128.621C129.948 111.431 129.948 94.2391 129.948 77.0489C129.948 66.655 129.948 56.2611 129.951 45.8672C129.951 45.4927 130.034 45.1133 129.984 44.7488ZM75.2198 106.591C75.0318 110.176 73.6282 113.193 70.7071 115.5C68.6293 117.142 66.2134 118.133 63.5889 118.582C61.5594 118.93 59.4918 119.083 57.4416 119.322C51.0787 119.251 45.4348 117.424 40.5479 113.527C39.7289 112.874 39.6909 112.536 40.3134 111.69C41.4929 110.086 42.6793 108.486 43.8743 106.893C44.4657 106.104 45.0054 106.029 45.7573 106.662C48.5611 109.021 51.8063 110.497 55.4913 111.01C58.2468 111.395 60.9972 111.419 63.532 110.032C64.6649 109.412 65.4719 108.519 65.6806 107.261C65.922 105.809 65.2823 104.597 63.7252 103.922C62.2491 103.28 60.692 102.779 59.1297 102.353C56.6518 101.677 54.0997 101.228 51.6529 100.465C49.7457 99.869 47.8575 99.097 46.1246 98.132C42.7551 96.2548 41.1308 93.3301 40.9032 89.5906C40.6514 85.4683 42.3223 82.2418 45.5745 79.6882C47.6334 78.0717 50.0509 77.105 52.6392 76.6382C58.171 75.6402 63.5751 76.0724 68.6793 78.4659C70.2881 79.2198 71.7624 80.2474 73.2592 81.2058C73.9972 81.6776 74.042 82.1378 73.5489 82.8059C72.3522 84.4258 71.1451 86.0407 69.9243 87.6457C69.4001 88.3353 68.8362 88.4062 68.1085 87.875C65.5392 85.9945 62.6647 84.7903 59.4677 84.3285C57.4812 84.0414 55.4844 83.9392 53.5307 84.5413C52.0046 85.0114 50.8562 85.8609 50.5096 87.4676C50.2665 88.5926 50.6372 89.4949 51.5718 90.1778C52.9651 91.194 54.6378 91.575 56.2828 92.0055C59.3556 92.8105 62.4526 93.5462 65.5013 94.4255C67.5395 95.0127 69.4328 95.9513 71.102 97.2462C74.2093 99.6628 75.4181 102.84 75.2198 106.591ZM111.037 105.575C107.398 105.577 103.762 105.577 100.123 105.577C96.4847 105.577 92.848 105.577 89.2096 105.577C88.3095 105.577 88.2784 105.619 88.4974 106.454C89.5493 110.467 93.6602 113.059 97.9073 112.567C100.575 112.259 103.051 111.588 105.284 110.138C105.827 109.785 106.35 109.864 106.741 110.408C107.614 111.619 108.495 112.823 109.348 114.047C109.773 114.654 109.683 115.062 109.057 115.482C106.086 117.475 102.808 118.697 99.1833 119.034C96.5502 119.278 93.9171 119.355 91.3512 118.613C85.0711 116.799 81.0206 112.851 79.6755 106.706C78.6358 101.954 79.341 97.3716 82.4173 93.3153C85.2504 89.579 89.0889 87.3901 93.8567 86.8721C97.7986 86.4432 101.589 87.0387 104.969 89.2194C108.648 91.5948 110.745 94.9863 111.628 99.064C112.006 100.809 112.082 102.617 112.232 104.402C112.302 105.298 111.966 105.573 111.037 105.575Z" fill="white"/>
</svg>
