<svg xmlns="http://www.w3.org/2000/svg" width="160" height="160" fill="none" viewBox="0 0 160 160"><rect width="160" height="160" fill="#fff" rx="20"/><path fill="#FDB300" d="M48.0585 36.3232L79.7806 33L111.505 36.3232L136.066 68.9931L79.7828 133.94L23.5 68.9931L48.0585 36.3232Z"/><path fill="#EA6C00" d="M46.2982 69.386L79.7828 133.94L23.5 69.386H46.2982Z"/><path fill="#EA6C00" d="M113.274 69.386L79.7875 133.94L136.07 69.386H113.274Z"/><path fill="#FDAD00" d="M45.7876 69.386H112.624L79.2057 133.94L45.7876 69.386Z"/><path fill="#FDD231" d="M78.6196 33L47.5147 36.3587L45.7876 69.386L78.6196 33Z"/><path fill="#FDD231" d="M79.7739 33L110.879 36.3587L112.606 69.386L79.7739 33Z"/><path fill="#FDAD00" d="M136.07 69.3861L111.445 36.5208L113.212 69.3861H136.07Z"/><path fill="#FDAD00" d="M23.5 69.3861L48.1229 36.5208L46.3559 69.3861H23.5Z"/><path fill="#FEEEB7" d="M79.2057 33L45.7876 69.386H112.624L79.2057 33Z"/><rect width="159" height="159" x=".5" y=".5" stroke="#000" stroke-opacity=".2" rx="19.5"/></svg>