<svg width="60" height="60" viewBox="0 0 60 60" fill="none" xmlns="http://www.w3.org/2000/svg">
<rect width="60" height="60" rx="10" fill="white"/>
<rect x="0.5" y="0.5" width="59" height="59" rx="9.5" stroke="black" stroke-opacity="0.1"/>
<path d="M18.0219 13.6212L29.9177 12.375L41.8143 13.6212L51.0246 25.8724L29.9186 50.2276L8.8125 25.8724L18.0219 13.6212Z" fill="#FDB300"/>
<path d="M17.3618 26.0195L29.9186 50.2273L8.8125 26.0195H17.3618Z" fill="#EA6C00"/>
<path d="M42.4779 26.0195L29.9203 50.2273L51.0264 26.0195H42.4779Z" fill="#EA6C00"/>
<path d="M17.1704 26.0195H42.234L29.7022 50.2273L17.1704 26.0195Z" fill="#FDAD00"/>
<path d="M29.4824 12.375L17.8181 13.6345L17.1704 26.0198L29.4824 12.375Z" fill="#FDD231"/>
<path d="M29.9153 12.375L41.5796 13.6345L42.2273 26.0198L29.9153 12.375Z" fill="#FDD231"/>
<path d="M51.0264 26.0198L41.7919 13.6953L42.4546 26.0198H51.0264Z" fill="#FDAD00"/>
<path d="M8.8125 26.0198L18.0461 13.6953L17.3835 26.0198H8.8125Z" fill="#FDAD00"/>
<path d="M29.7022 12.375L17.1704 26.0198H42.234L29.7022 12.375Z" fill="#FEEEB7"/>
</svg>
