<svg xmlns="http://www.w3.org/2000/svg" width="60" height="60" fill="none" viewBox="0 0 60 60"><rect width="60" height="60" fill="#fff" rx="10"/><rect width="59" height="59" x=".5" y=".5" stroke="#000" stroke-opacity=".1" rx="9.5"/><path fill="#FDB300" d="M18.0219 13.6212L29.9177 12.375L41.8143 13.6212L51.0246 25.8724L29.9186 50.2276L8.8125 25.8724L18.0219 13.6212Z"/><path fill="#EA6C00" d="M17.3618 26.0195L29.9186 50.2273L8.8125 26.0195H17.3618Z"/><path fill="#EA6C00" d="M42.4779 26.0195L29.9203 50.2273L51.0264 26.0195H42.4779Z"/><path fill="#FDAD00" d="M17.1704 26.0195H42.234L29.7022 50.2273L17.1704 26.0195Z"/><path fill="#FDD231" d="M29.4824 12.375L17.8181 13.6345L17.1704 26.0198L29.4824 12.375Z"/><path fill="#FDD231" d="M29.9153 12.375L41.5796 13.6345L42.2273 26.0198L29.9153 12.375Z"/><path fill="#FDAD00" d="M51.0264 26.0198L41.7919 13.6953L42.4546 26.0198H51.0264Z"/><path fill="#FDAD00" d="M8.8125 26.0198L18.0461 13.6953L17.3835 26.0198H8.8125Z"/><path fill="#FEEEB7" d="M29.7022 12.375L17.1704 26.0198H42.234L29.7022 12.375Z"/></svg>