<svg width="161" height="160" viewBox="0 0 161 160" fill="none" xmlns="http://www.w3.org/2000/svg">
<rect x="0.65625" width="160" height="160" rx="20" fill="white"/>
<path d="M48.7148 36.3232L80.4369 33L112.161 36.3232L136.722 68.9931L80.4391 133.94L24.1562 68.9931L48.7148 36.3232Z" fill="#FDB300"/>
<path d="M46.9544 69.386L80.4391 133.94L24.1562 69.386H46.9544Z" fill="#EA6C00"/>
<path d="M113.931 69.386L80.4437 133.94L136.727 69.386H113.931Z" fill="#EA6C00"/>
<path d="M46.4434 69.386H113.279L79.8614 133.94L46.4434 69.386Z" fill="#FDAD00"/>
<path d="M79.2754 33L48.1704 36.3587L46.4434 69.386L79.2754 33Z" fill="#FDD231"/>
<path d="M80.4297 33L111.535 36.3587L113.262 69.386L80.4297 33Z" fill="#FDD231"/>
<path d="M136.727 69.3861L112.101 36.5208L113.868 69.3861H136.727Z" fill="#FDAD00"/>
<path d="M24.1562 69.3861L48.7792 36.5208L47.0121 69.3861H24.1562Z" fill="#FDAD00"/>
<path d="M79.8614 33L46.4434 69.386H113.279L79.8614 33Z" fill="#FEEEB7"/>
<rect x="1.15625" y="0.5" width="159" height="159" rx="19.5" stroke="black" stroke-opacity="0.2"/>
</svg>
