<svg width="160" height="160" viewBox="0 0 160 160" fill="none" xmlns="http://www.w3.org/2000/svg">
<rect width="160" height="160" rx="20" fill="white"/>
<path d="M48.0585 36.3232L79.7806 33L111.505 36.3232L136.066 68.9931L79.7828 133.94L23.5 68.9931L48.0585 36.3232Z" fill="#FDB300"/>
<path d="M46.2982 69.386L79.7828 133.94L23.5 69.386H46.2982Z" fill="#EA6C00"/>
<path d="M113.274 69.386L79.7875 133.94L136.07 69.386H113.274Z" fill="#EA6C00"/>
<path d="M45.7876 69.386H112.624L79.2057 133.94L45.7876 69.386Z" fill="#FDAD00"/>
<path d="M78.6196 33L47.5147 36.3587L45.7876 69.386L78.6196 33Z" fill="#FDD231"/>
<path d="M79.7739 33L110.879 36.3587L112.606 69.386L79.7739 33Z" fill="#FDD231"/>
<path d="M136.07 69.3861L111.445 36.5208L113.212 69.3861H136.07Z" fill="#FDAD00"/>
<path d="M23.5 69.3861L48.1229 36.5208L46.3559 69.3861H23.5Z" fill="#FDAD00"/>
<path d="M79.2057 33L45.7876 69.386H112.624L79.2057 33Z" fill="#FEEEB7"/>
<rect x="0.5" y="0.5" width="159" height="159" rx="19.5" stroke="black" stroke-opacity="0.2"/>
</svg>
