<svg xmlns="http://www.w3.org/2000/svg" width="160" height="160" fill="none" viewBox="0 0 160 160"><rect width="160" height="160" fill="#2E1A5A" rx="20"/><path fill="#fff" fill-rule="evenodd" d="M26.5103 24.2949H62.1702C65.3213 24.2949 67.8758 26.8529 67.8758 30.0083C67.8758 33.1636 65.3213 35.7216 62.1702 35.7216H26.5103C23.3592 35.7216 20.8047 33.1636 20.8047 30.0083C20.8047 26.8529 23.3592 24.2949 26.5103 24.2949ZM50.759 64.2883H109.241C112.392 64.2883 114.947 66.8462 114.947 70.0016C114.947 73.157 112.392 75.7149 109.241 75.7149H50.759C47.6079 75.7149 45.0534 73.157 45.0534 70.0016C45.0534 66.8462 47.6079 64.2883 50.759 64.2883ZM62.1702 124.278H36.4951C33.3439 124.278 30.7895 126.836 30.7895 129.992C30.7895 133.147 33.3439 135.705 36.4951 135.705H62.1702C65.3213 135.705 67.8758 133.147 67.8758 129.992C67.8758 126.836 65.3213 124.278 62.1702 124.278ZM36.4951 44.2916H86.419C89.5701 44.2916 92.1245 46.8495 92.1245 50.0049C92.1245 53.1603 89.5701 55.7183 86.419 55.7183H36.4951C33.3439 55.7183 30.7895 53.1603 30.7895 50.0049C30.7895 46.8495 33.3439 44.2916 36.4951 44.2916ZM133.49 84.2849H50.759C47.6079 84.2849 45.0534 86.8429 45.0534 89.9983C45.0534 93.1537 47.6079 95.7116 50.759 95.7116H133.49C136.641 95.7116 139.196 93.1537 139.196 89.9983C139.196 86.8429 136.641 84.2849 133.49 84.2849ZM50.759 104.282H70.7286C73.8797 104.282 76.4342 106.84 76.4342 109.995C76.4342 113.15 73.8797 115.708 70.7286 115.708H50.759C47.6079 115.708 45.0534 113.15 45.0534 109.995C45.0534 106.84 47.6079 104.282 50.759 104.282ZM103.536 104.282H90.6982C87.5471 104.282 84.9926 106.84 84.9926 109.995C84.9926 113.15 87.5471 115.708 90.6982 115.708H103.536C106.687 115.708 109.241 113.15 109.241 109.995C109.241 106.84 106.687 104.282 103.536 104.282Z" clip-rule="evenodd"/><path fill="#FC521F" fill-rule="evenodd" d="M26.5103 24.2949H62.1702C65.3213 24.2949 67.8758 26.8529 67.8758 30.0083C67.8758 33.1636 65.3213 35.7216 62.1702 35.7216H26.5103C23.3592 35.7216 20.8047 33.1636 20.8047 30.0083C20.8047 26.8529 23.3592 24.2949 26.5103 24.2949Z" clip-rule="evenodd" opacity=".8"/><path fill="#FFAE00" fill-rule="evenodd" d="M50.7583 64.2881H109.241C112.392 64.2881 114.946 66.846 114.946 70.0014C114.946 73.1568 112.392 75.7148 109.241 75.7148H50.7583C47.6072 75.7148 45.0527 73.1568 45.0527 70.0014C45.0527 66.846 47.6072 64.2881 50.7583 64.2881Z" clip-rule="evenodd" opacity=".8"/><path fill="#1EA7FD" fill-rule="evenodd" d="M36.4947 124.278H62.1698C65.3209 124.278 67.8754 126.836 67.8754 129.991C67.8754 133.147 65.3209 135.705 62.1698 135.705H36.4947C33.3435 135.705 30.7891 133.147 30.7891 129.991C30.7891 126.836 33.3435 124.278 36.4947 124.278Z" clip-rule="evenodd" opacity=".8"/><path fill="#1EA7FD" fill-rule="evenodd" d="M36.4947 44.2915H86.4186C89.5697 44.2915 92.1241 46.8495 92.1241 50.0048C92.1241 53.1602 89.5697 55.7182 86.4186 55.7182H36.4947C33.3435 55.7182 30.7891 53.1602 30.7891 50.0048C30.7891 46.8495 33.3435 44.2915 36.4947 44.2915Z" clip-rule="evenodd" opacity=".8"/><path fill="#37D5D3" fill-rule="evenodd" d="M50.7583 84.2849H133.489C136.64 84.2849 139.195 86.8429 139.195 89.9982C139.195 93.1536 136.64 95.7116 133.489 95.7116H50.7583C47.6072 95.7116 45.0527 93.1536 45.0527 89.9982C45.0527 86.8429 47.6072 84.2849 50.7583 84.2849Z" clip-rule="evenodd" opacity=".8"/><path fill="#66BF3C" fill-rule="evenodd" d="M50.7583 104.281H70.7279C73.879 104.281 76.4335 106.839 76.4335 109.995C76.4335 113.15 73.879 115.708 70.7279 115.708H50.7583C47.6072 115.708 45.0527 113.15 45.0527 109.995C45.0527 106.839 47.6072 104.281 50.7583 104.281Z" clip-rule="evenodd" opacity=".8"/><path fill="#FC521F" fill-rule="evenodd" d="M90.6978 104.281H103.535C106.686 104.281 109.241 106.839 109.241 109.995C109.241 113.15 106.686 115.708 103.535 115.708H90.6978C87.5467 115.708 84.9922 113.15 84.9922 109.995C84.9922 106.839 87.5467 104.281 90.6978 104.281Z" clip-rule="evenodd" opacity=".8"/></svg>