<svg width="161" height="160" viewBox="0 0 161 160" fill="none" xmlns="http://www.w3.org/2000/svg">
<rect x="0.28125" width="160" height="160" rx="20" fill="#FF4785"/>
<path fill-rule="evenodd" clip-rule="evenodd" d="M33.0863 31.2692L36.721 128.119C36.8361 131.186 39.2847 133.653 42.3514 133.791L121.094 137.327C121.182 137.331 121.27 137.333 121.359 137.333C124.617 137.333 127.258 134.692 127.258 131.434V25.8994C127.258 25.7767 127.254 25.6539 127.246 25.5314C127.043 22.2797 124.242 19.8085 120.991 20.0117L38.6133 25.1603C35.4188 25.3599 32.9662 28.0707 33.0863 31.2692ZM103.177 21.1255L114.515 20.4169L114.988 33.9568C115.004 34.4425 114.624 34.85 114.139 34.867C113.931 34.8743 113.727 34.8076 113.563 34.6788L109.201 31.2421L104.036 35.1602C103.648 35.454 103.096 35.3782 102.803 34.991C102.679 34.828 102.616 34.627 102.625 34.4226L103.177 21.1255ZM88.1561 65.3633C88.1561 67.6584 103.616 66.5584 105.691 64.9462C105.691 49.3169 97.3048 41.1039 81.948 41.1039C66.5912 41.1039 57.9871 49.4446 57.9871 61.9558C57.9871 74.4894 67.7161 79.9517 75.9821 84.5926C82.0869 88.0201 87.3937 90.9996 87.3937 96.0487C87.3937 99.385 85.76 101.366 82.1659 101.366C77.4826 101.366 75.631 98.9741 75.8489 90.8419C75.8489 89.0777 57.9871 88.5277 57.4425 90.8419C56.0558 110.549 68.3338 116.234 82.3837 116.234C95.9979 116.234 106.671 108.977 106.671 95.8401C106.671 82.1342 96.3931 76.6874 87.9006 72.1869C81.9224 69.0189 76.8291 66.3198 76.8291 61.5388C76.8291 56.8471 80.3143 56.2215 82.3837 56.2215C84.562 56.2215 88.4828 56.6054 88.1561 65.3633Z" fill="white"/>
</svg>
