<svg width="160" height="160" viewBox="0 0 160 160" fill="none" xmlns="http://www.w3.org/2000/svg">
<rect width="160" height="160" rx="20" fill="#FF4785"/>
<path fill-rule="evenodd" clip-rule="evenodd" d="M32.8045 31.2692L36.4393 128.119C36.5544 131.186 39.0029 133.653 42.0696 133.791L120.812 137.327C120.9 137.331 120.989 137.333 121.077 137.333C124.335 137.333 126.976 134.692 126.976 131.434V25.8994C126.976 25.7767 126.972 25.6539 126.965 25.5314C126.761 22.2797 123.961 19.8085 120.709 20.0117L38.3316 25.1603C35.137 25.3599 32.6845 28.0707 32.8045 31.2692ZM102.896 21.1255L114.233 20.4169L114.706 33.9568C114.723 34.4425 114.343 34.85 113.857 34.867C113.649 34.8743 113.445 34.8076 113.282 34.6788L108.919 31.2421L103.754 35.1602C103.367 35.454 102.815 35.3782 102.521 34.991C102.397 34.828 102.334 34.627 102.343 34.4226L102.896 21.1255ZM87.8744 65.3633C87.8744 67.6584 103.334 66.5584 105.409 64.9462C105.409 49.3169 97.0231 41.1039 81.6663 41.1039C66.3095 41.1039 57.7053 49.4446 57.7053 61.9558C57.7053 74.4894 67.4344 79.9517 75.7004 84.5926C81.8052 88.0201 87.112 90.9996 87.112 96.0487C87.112 99.385 85.4783 101.366 81.8841 101.366C77.2008 101.366 75.3493 98.9741 75.5671 90.8419C75.5671 89.0777 57.7053 88.5277 57.1607 90.8419C55.7741 110.549 68.0521 116.234 82.102 116.234C95.7161 116.234 106.39 108.977 106.39 95.8401C106.39 82.1342 96.1113 76.6874 87.6189 72.1869C81.6406 69.0189 76.5474 66.3198 76.5474 61.5388C76.5474 56.8471 80.0326 56.2215 82.102 56.2215C84.2802 56.2215 88.2011 56.6054 87.8744 65.3633Z" fill="white"/>
</svg>
