<svg width="160" height="160" viewBox="0 0 160 160" fill="none" xmlns="http://www.w3.org/2000/svg">
<rect width="160" height="160" rx="20" fill="white"/>
<path d="M36.4393 128.119L32.8045 31.2692C32.6845 28.0707 35.137 25.3599 38.3316 25.1603L120.709 20.0117C123.961 19.8085 126.761 22.2797 126.965 25.5314C126.972 25.6539 126.976 25.7767 126.976 25.8994V131.434C126.976 134.692 124.335 137.333 121.077 137.333C120.989 137.333 120.9 137.331 120.812 137.327L42.0696 133.791C39.0029 133.653 36.5544 131.186 36.4393 128.119Z" fill="#FF4785"/>
<path fill-rule="evenodd" clip-rule="evenodd" d="M114.233 20.4166L102.895 21.1252L102.342 34.4223C102.334 34.6267 102.397 34.8277 102.521 34.9907C102.814 35.3779 103.366 35.4537 103.754 35.1599L108.919 31.2418L113.281 34.6785C113.445 34.8073 113.649 34.874 113.857 34.8667C114.342 34.8497 114.722 34.4422 114.705 33.9565L114.233 20.4166ZM105.409 64.9459C103.334 66.5581 87.874 67.6581 87.874 65.363C88.2007 56.6052 84.2798 56.2212 82.1016 56.2212C80.0322 56.2212 76.547 56.8468 76.547 61.5385C76.547 66.3195 81.6403 69.0186 87.6185 72.1866C96.111 76.6871 106.389 82.1339 106.389 95.8399C106.389 108.977 95.7158 116.233 82.1016 116.233C68.0517 116.233 55.7737 110.549 57.1604 90.8416C57.7049 88.5274 75.5668 89.0774 75.5668 90.8416C75.3489 98.9738 77.2005 101.366 81.8837 101.366C85.4779 101.366 87.1116 99.3847 87.1116 96.0484C87.1116 90.9993 81.8048 88.0198 75.7 84.5923C67.434 79.9514 57.7049 74.4891 57.7049 61.9555C57.7049 49.4444 66.3091 41.1036 81.6659 41.1036C97.0227 41.1036 105.409 49.3166 105.409 64.9459Z" fill="white"/>
<rect x="0.5" y="0.5" width="159" height="159" rx="19.5" stroke="black" stroke-opacity="0.2"/>
</svg>
