<svg xmlns="http://www.w3.org/2000/svg" width="160" height="160" fill="none" viewBox="0 0 160 160"><g filter="url(#filter0_i_2014_25781)"><rect width="160" height="160" fill="#fff" rx="20"/><path fill="#6F2CAC" fill-rule="evenodd" d="M13.6904 24.7064C13.6904 21.3628 16.4009 18.6523 19.7445 18.6523H60.0291C63.3727 18.6523 66.0832 21.3628 66.0832 24.7064C66.0832 28.0499 63.3727 30.7604 60.0291 30.7604H19.7445C16.4009 30.7604 13.6904 28.0499 13.6904 24.7064ZM41.5243 68.2955C41.5243 64.952 44.2347 62.2415 47.5783 62.2415H113.241C116.584 62.2415 119.295 64.952 119.295 68.2955C119.295 71.6391 116.584 74.3496 113.241 74.3496H47.5783C44.2347 74.3496 41.5243 71.6391 41.5243 68.2955ZM31.2053 129.24C27.8617 129.24 25.1513 131.95 25.1513 135.294C25.1513 138.637 27.8617 141.348 31.2053 141.348H60.029C63.3726 141.348 66.0831 138.637 66.0831 135.294C66.0831 131.95 63.3726 129.24 60.0291 129.24H31.2053ZM25.1513 46.5009C25.1513 43.1574 27.8617 40.4469 31.2053 40.4469H87.8627C91.2063 40.4469 93.9167 43.1574 93.9167 46.5009C93.9167 49.8445 91.2063 52.555 87.8627 52.555H31.2053C27.8618 52.555 25.1513 49.8445 25.1513 46.5009ZM46.7594 85.6505C43.4158 85.6505 40.7053 88.3609 40.7053 91.7045C40.7053 95.0481 43.4158 97.7585 46.7594 97.7585H140.255C143.599 97.7585 146.309 95.0481 146.309 91.7045C146.309 88.3609 143.599 85.6505 140.255 85.6505H46.7594ZM41.5243 113.499C41.5243 110.155 44.2347 107.445 47.5783 107.445H69.853C73.1965 107.445 75.907 110.155 75.907 113.499C75.907 116.843 73.1965 119.553 69.853 119.553H47.5783C44.2347 119.553 41.5243 116.843 41.5243 113.499ZM90.9658 107.445C87.6222 107.445 84.9117 110.155 84.9117 113.499C84.9117 116.843 87.6222 119.553 90.9658 119.553H105.873C109.216 119.553 111.927 116.843 111.927 113.499C111.927 110.155 109.216 107.445 105.873 107.445H90.9658Z" clip-rule="evenodd" opacity=".2"/><circle cx="95.788" cy="68.272" r="44.206" fill="url(#paint0_radial_2014_25781)" opacity=".2"/><circle cx="96.239" cy="68.723" r="25.712" fill="url(#paint1_radial_2014_25781)" opacity=".35"/><circle cx="95.788" cy="68.272" r="7.217" fill="#FC521F"/><rect width="159" height="159" x=".5" y=".5" stroke="#000" stroke-opacity=".2" rx="19.5"/></g><defs><filter id="filter0_i_2014_25781" width="160" height="160" x="0" y="0" color-interpolation-filters="sRGB" filterUnits="userSpaceOnUse"><feFlood flood-opacity="0" result="BackgroundImageFix"/><feBlend in="SourceGraphic" in2="BackgroundImageFix" mode="normal" result="shape"/><feColorMatrix in="SourceAlpha" result="hardAlpha" type="matrix" values="0 0 0 0 0 0 0 0 0 0 0 0 0 0 0 0 0 0 127 0"/><feOffset/><feGaussianBlur stdDeviation="5"/><feComposite in2="hardAlpha" k2="-1" k3="1" operator="arithmetic"/><feColorMatrix type="matrix" values="0 0 0 0 1 0 0 0 0 0.97074 0 0 0 0 0.678144 0 0 0 1 0"/><feBlend in2="shape" mode="normal" result="effect1_innerShadow_2014_25781"/></filter><radialGradient id="paint0_radial_2014_25781" cx="0" cy="0" r="1" gradientTransform="translate(95.7879 68.2718) rotate(90) scale(88.4128)" gradientUnits="userSpaceOnUse"><stop stop-color="#FD8460" stop-opacity=".01"/><stop offset="1" stop-color="#FC521F"/></radialGradient><radialGradient id="paint1_radial_2014_25781" cx="0" cy="0" r="1" gradientTransform="translate(96.2392 68.7229) rotate(90) scale(51.4237)" gradientUnits="userSpaceOnUse"><stop stop-color="#FD8460" stop-opacity=".01"/><stop offset="1" stop-color="#FC521F"/></radialGradient></defs></svg>