<svg width="80" height="81" viewBox="0 0 80 81" fill="none" xmlns="http://www.w3.org/2000/svg">
<rect x="-0.000976562" y="0.00195312" width="80" height="80" rx="10" fill="#15171A"/>
<path fill-rule="evenodd" clip-rule="evenodd" d="M53.0033 47.8713C52.8724 47.8861 52.7372 47.8903 52.6062 47.903C52.0804 40.9144 49.2081 35.1718 45.187 32.4917C46.7689 32.1643 48.4711 31.9869 50.2324 31.9869C58.1987 31.9869 64.9294 35.6576 64.9294 40.002C64.9294 43.6874 59.6918 47.1427 53.0033 47.8713ZM40.0001 64.9343C36.3169 64.9343 32.8596 59.6944 32.131 53.0077C32.1162 52.8747 32.1099 52.7416 32.0994 52.6086C39.0877 52.0806 44.8301 49.2125 47.508 45.187C47.8375 46.771 48.017 48.4712 48.017 50.2347C48.017 58.2033 44.3444 64.9343 40.0001 64.9343ZM15.0687 40.002C15.0687 36.3165 20.3084 32.8634 26.9969 32.1347C27.1279 32.12 27.263 32.1136 27.394 32.101C27.9198 39.0896 30.79 44.8322 34.8132 47.5123C33.2313 47.8375 31.5291 48.0192 29.7678 48.0192C21.8016 48.0192 15.0687 44.3485 15.0687 40.002ZM35.7551 40.0125C35.7551 37.6724 37.658 35.7695 40.0001 35.7695C42.3401 35.7695 44.2451 37.6724 44.2451 40.0125C44.2451 42.3527 42.3401 44.2577 40.0001 44.2577C37.658 44.2577 35.7551 42.3527 35.7551 40.0125ZM40.0001 15.0718C43.6833 15.0718 47.1406 20.3096 47.8671 26.9983C47.8818 27.1293 47.8882 27.2645 47.9009 27.3975C40.9103 27.9234 35.1722 30.7915 32.4901 34.8149C32.1627 33.233 31.9832 31.5328 31.9832 29.7693C31.9832 21.8007 35.6537 15.0718 40.0001 15.0718ZM52.5936 27.3996C52.5703 27.0955 52.5513 26.7914 52.5197 26.4915C51.5038 17.1627 46.2388 10.3916 40.0001 10.3916C33.4066 10.3916 28.1395 17.697 27.3961 27.4102C27.092 27.4313 26.79 27.4503 26.4901 27.482C17.1595 28.4979 10.3887 33.7631 10.3887 40.002C10.3887 46.5957 17.6939 51.8652 27.4067 52.6065C27.432 52.9085 27.4468 53.2126 27.4806 53.5125C28.4964 62.8413 33.7614 69.6124 40.0001 69.6124C46.5936 69.6124 51.8607 62.309 52.6041 52.5959C52.9061 52.5727 53.2103 52.5558 53.508 52.522C62.8386 51.5061 69.6094 46.2409 69.6094 40.002C69.6094 33.4062 62.3043 28.1388 52.5936 27.3996Z" fill="white"/>
</svg>
