<svg xmlns="http://www.w3.org/2000/svg" width="160" height="160" fill="none" viewBox="0 0 160 160"><rect width="160" height="160" fill="#15171A" rx="20"/><path fill="#fff" fill-rule="evenodd" d="M106.009 95.7387C105.747 95.7683 105.476 95.7767 105.214 95.8021C104.163 81.8248 98.4182 70.3397 90.376 64.9794C93.5397 64.3247 96.9441 63.9699 100.467 63.9699C116.399 63.9699 129.861 71.3112 129.861 80C129.861 87.3709 119.386 94.2814 106.009 95.7387ZM80.0022 129.865C72.6357 129.865 65.7212 119.385 64.264 106.012C64.2344 105.745 64.2218 105.479 64.2007 105.213C78.1774 104.157 89.6622 98.421 95.018 90.37C95.677 93.538 96.036 96.9383 96.036 100.465C96.036 116.403 88.6907 129.865 80.0022 129.865ZM30.1394 80C30.1394 72.6291 40.6188 65.7228 53.9958 64.2655C54.2577 64.236 54.528 64.2233 54.7899 64.198C55.8417 78.1752 61.5819 89.6604 69.6283 95.0206C66.4646 95.6711 63.0602 96.0344 59.5375 96.0344C43.6051 96.0344 30.1394 88.6931 30.1394 80ZM71.5122 80.0211C71.5122 75.3409 75.3179 71.5351 80.0022 71.5351C84.6822 71.5351 88.4921 75.3409 88.4921 80.0211C88.4921 84.7014 84.6822 88.5114 80.0022 88.5114C75.3179 88.5114 71.5122 84.7014 71.5122 80.0211ZM80.0022 30.1397C87.3686 30.1397 94.2831 40.6152 95.7361 53.9927C95.7657 54.2546 95.7783 54.5249 95.8037 54.7911C81.8226 55.8428 70.3464 61.5791 64.9821 69.6258C64.3274 66.462 63.9683 63.0617 63.9683 59.5346C63.9683 43.5974 71.3094 30.1397 80.0022 30.1397ZM105.189 54.7953C105.143 54.187 105.105 53.5788 105.041 52.979C103.01 34.3214 92.4795 20.7792 80.0022 20.7792C66.8152 20.7792 56.2809 35.3901 54.7941 54.8164C54.1859 54.8586 53.5819 54.8967 52.9821 54.96C34.321 56.9918 20.7793 67.5223 20.7793 80C20.7793 93.1874 35.3897 103.726 54.8153 105.209C54.8659 105.813 54.8955 106.421 54.9631 107.021C56.9948 125.679 67.5248 139.221 80.0022 139.221C93.1891 139.221 103.723 124.614 105.21 105.188C105.814 105.141 106.422 105.108 107.018 105.04C125.679 103.008 139.221 92.4778 139.221 80C139.221 66.8084 124.61 56.2737 105.189 54.7953Z" clip-rule="evenodd"/></svg>