<svg width="160" height="160" viewBox="0 0 160 160" fill="none" xmlns="http://www.w3.org/2000/svg">
<rect width="160" height="160" rx="20" fill="#FFBFAB"/>
<path d="M120.771 39.1253C110.523 24.3509 90.2828 19.9718 75.6483 29.3637L49.9465 45.8637C42.9259 50.3126 38.0903 57.5341 36.6253 65.7573C35.3993 72.6078 36.4769 79.6745 39.6875 85.8386C37.4875 89.2002 35.987 92.9761 35.2767 96.9383C33.7975 105.32 35.7324 113.948 40.6444 120.875C50.8947 135.65 71.1349 140.028 85.7672 130.636L111.469 114.136C118.49 109.688 123.326 102.466 124.79 94.2425C126.016 87.3921 124.939 80.3255 121.73 74.1608C123.93 70.7993 125.43 67.0235 126.139 63.0616C127.619 54.6803 125.684 46.0519 120.771 39.1253" fill="#FF3E00"/>
<path d="M73.2242 122.837C65.0346 125.006 56.3862 121.742 51.5632 114.662C48.6425 110.5 47.492 105.315 48.3715 100.278C48.5189 99.4598 48.7217 98.6526 48.9786 97.8626L49.4571 96.377L50.7588 97.3505C53.7649 99.5995 57.1261 101.309 60.6974 102.407L61.6417 102.698L61.5547 103.658C61.4393 105.023 61.8024 106.386 62.5795 107.504C64.0309 109.637 66.6348 110.621 69.1012 109.969C69.6534 109.819 70.1797 109.583 70.6618 109.271L96.0694 92.7847C97.3265 91.9788 98.1928 90.6719 98.4566 89.1834C98.7199 87.6654 98.3733 86.1033 97.4946 84.8479C96.0423 82.7151 93.4378 81.7306 90.9704 82.3819C90.4189 82.5322 89.8933 82.7675 89.4118 83.0797L79.7165 89.3727C78.1222 90.4049 76.3824 91.1828 74.5572 91.6796C66.3677 93.8477 57.7195 90.5836 52.8965 83.5043C49.9757 79.342 48.8252 74.1571 49.7048 69.1205C50.5755 64.1792 53.4504 59.8401 57.6242 57.1677L83.0296 40.6804C84.6245 39.6466 86.3656 38.8677 88.1923 38.3708C96.3817 36.2028 105.03 39.4668 109.853 46.546C112.773 50.7084 113.924 55.8933 113.045 60.9299C112.897 61.7483 112.694 62.5555 112.437 63.3457L111.959 64.8312L110.658 63.8593C107.652 61.609 104.291 59.8982 100.719 58.801L99.7743 58.5092L99.8613 57.5496C99.9757 56.1846 99.6127 54.8223 98.8365 53.7033C97.3851 51.5708 94.7812 50.5868 92.3148 51.2386C91.7626 51.3889 91.2363 51.6244 90.7542 51.9369L65.3466 68.4235C64.0897 69.2288 63.2239 70.5357 62.9613 72.0239C62.6963 73.5418 63.0423 75.1045 63.9214 76.3598C65.3737 78.4927 67.9782 79.4772 70.4457 78.8259C70.9977 78.6753 71.5239 78.4398 72.0062 78.1275L81.7002 71.8369C83.2938 70.8034 85.0336 70.0248 86.8589 69.5281C95.0484 67.3601 103.697 70.6241 108.52 77.7034C111.44 81.8657 112.591 87.0507 111.711 92.0873C110.84 97.0288 107.965 101.368 103.792 104.042L78.3865 120.528C76.7915 121.562 75.0504 122.341 73.2238 122.837" fill="white"/>
</svg>
