<svg width="80" height="80" viewBox="0 0 80 80" fill="none" xmlns="http://www.w3.org/2000/svg">
<g clip-path="url(#clip0_5169_71954)">
<rect x="-0.000976562" width="80.0004" height="80.0004" rx="10.5895" fill="#06B6D4"/>
<g clip-path="url(#clip1_5169_71954)">
<path fill-rule="evenodd" clip-rule="evenodd" d="M42.3571 23.2969C34.0267 23.2969 28.8202 27.4556 26.7376 35.7732C29.8615 31.6144 33.506 30.0549 37.6712 31.0946C40.0477 31.6872 41.7462 33.4096 43.6263 35.3146C46.6889 38.4186 50.2339 42.0113 57.9765 42.0113C66.3069 42.0113 71.5134 37.8526 73.596 29.535C70.4721 33.6938 66.8275 35.2533 62.6624 34.2136C60.2859 33.621 58.5874 31.8986 56.7073 29.9936C53.6447 26.8896 50.0997 23.2969 42.3571 23.2969ZM26.7376 42.0113C18.4072 42.0113 13.2008 46.1701 11.1182 54.4876C14.2421 50.3289 17.8866 48.7693 22.0518 49.809C24.4282 50.4028 26.1267 52.1241 28.0068 54.029C31.0694 57.1331 34.6144 60.7258 42.3571 60.7258C50.6874 60.7258 55.8939 56.567 57.9765 48.2495C54.8526 52.4083 51.2081 53.9678 47.0429 52.9281C44.6664 52.3355 42.968 50.6131 41.0878 48.7081C38.0253 45.604 34.4802 42.0113 26.7376 42.0113Z" fill="white"/>
</g>
</g>
<defs>
<clipPath id="clip0_5169_71954">
<rect width="80.0004" height="80.0004" fill="white" transform="translate(-0.000976562)"/>
</clipPath>
<clipPath id="clip1_5169_71954">
<rect width="62.4778" height="38.122" fill="white" transform="translate(11.1182 23.2969)"/>
</clipPath>
</defs>
</svg>
