<svg width="161" height="160" viewBox="0 0 161 160" fill="none" xmlns="http://www.w3.org/2000/svg">
<rect x="0.875" width="160" height="160" rx="20" fill="#06B6D4"/>
<g clip-path="url(#clip0_2014_24770)">
<path fill-rule="evenodd" clip-rule="evenodd" d="M80.875 44C65.1417 44 55.3083 51.8545 51.375 67.5636C57.275 59.7091 64.1583 56.7636 72.025 58.7273C76.5134 59.8465 79.7212 63.0996 83.2721 66.6975C89.0563 72.56 95.7517 79.3455 110.375 79.3455C126.108 79.3455 135.942 71.4909 139.875 55.7818C133.975 63.6364 127.092 66.5818 119.225 64.6182C114.737 63.4989 111.529 60.2458 107.978 56.648C102.194 50.7855 95.4983 44 80.875 44ZM51.375 79.3455C35.6417 79.3455 25.8083 87.2 21.875 102.909C27.775 95.0545 34.6583 92.1091 42.525 94.0727C47.0134 95.1942 50.2212 98.4451 53.7721 102.043C59.5563 107.905 66.2517 114.691 80.875 114.691C96.6083 114.691 106.442 106.836 110.375 91.1273C104.475 98.9818 97.5917 101.927 89.725 99.9636C85.2366 98.8444 82.0288 95.5913 78.4779 91.9935C72.6937 86.1309 65.9983 79.3455 51.375 79.3455Z" fill="white"/>
</g>
<defs>
<clipPath id="clip0_2014_24770">
<rect width="118" height="72" fill="white" transform="translate(21.875 44)"/>
</clipPath>
</defs>
</svg>
