<svg xmlns="http://www.w3.org/2000/svg" width="60" height="60" fill="none" viewBox="0 0 60 60"><rect width="60" height="60" fill="#06B6D4" rx="10"/><g clip-path="url(#clip0_1202_39915)"><path fill="#fff" fill-rule="evenodd" d="M30 16.5C24.1 16.5 20.4125 19.4455 18.9375 25.3364C21.15 22.3909 23.7313 21.2864 26.6813 22.0227C28.3644 22.4425 29.5673 23.6624 30.8989 25.0115C33.068 27.21 35.5788 29.7545 41.0625 29.7545C46.9625 29.7545 50.65 26.8091 52.125 20.9182C49.9125 23.8636 47.3312 24.9682 44.3812 24.2318C42.6981 23.8121 41.4952 22.5922 40.1636 21.243C37.9945 19.0445 35.4837 16.5 30 16.5ZM18.9375 29.7545C13.0375 29.7545 9.35 32.7 7.875 38.5909C10.0875 35.6455 12.6687 34.5409 15.6187 35.2773C17.3019 35.6978 18.5048 36.9169 19.8364 38.2661C22.0055 40.4645 24.5163 43.0091 30 43.0091C35.9 43.0091 39.5875 40.0636 41.0625 34.1727C38.85 37.1182 36.2687 38.2227 33.3187 37.4864C31.6356 37.0666 30.4327 35.8467 29.1011 34.4975C26.932 32.2991 24.4212 29.7545 18.9375 29.7545Z" clip-rule="evenodd"/></g><defs><clipPath id="clip0_1202_39915"><rect width="44.25" height="27" fill="#fff" transform="translate(7.875 16.5)"/></clipPath></defs></svg>