<svg width="160" height="160" viewBox="0 0 160 160" fill="none" xmlns="http://www.w3.org/2000/svg">
<rect width="160" height="160" rx="20" fill="#06B6D4"/>
<path fill-rule="evenodd" clip-rule="evenodd" d="M80 44C64.2667 44 54.4333 51.8545 50.5 67.5636C56.4 59.7091 63.2833 56.7636 71.15 58.7273C75.6384 59.8465 78.8462 63.0996 82.3971 66.6975C88.1813 72.56 94.8767 79.3455 109.5 79.3455C125.233 79.3455 135.067 71.4909 139 55.7818C133.1 63.6364 126.217 66.5818 118.35 64.6182C113.862 63.4989 110.654 60.2458 107.103 56.648C101.319 50.7855 94.6233 44 80 44ZM50.5 79.3455C34.7667 79.3455 24.9333 87.2 21 102.909C26.9 95.0545 33.7833 92.1091 41.65 94.0727C46.1384 95.1942 49.3462 98.4451 52.8971 102.043C58.6813 107.905 65.3767 114.691 80 114.691C95.7333 114.691 105.567 106.836 109.5 91.1273C103.6 98.9818 96.7167 101.927 88.85 99.9636C84.3616 98.8444 81.1538 95.5913 77.6029 91.9935C71.8187 86.1309 65.1233 79.3455 50.5 79.3455Z" fill="white"/>
</svg>
