<svg width="160" height="160" viewBox="0 0 160 160" fill="none" xmlns="http://www.w3.org/2000/svg">
<rect width="160" height="160" rx="20" fill="white"/>
<g clip-path="url(#clip0_920_7839)">
<path d="M88.4629 37.8965V56.7949L121.193 75.6934V56.7949L88.4629 37.8965ZM23 56.7949V75.6934L39.3652 85.1406V66.2441L23 56.7949ZM72.0957 66.2441L55.7305 75.6934V132.385L72.0957 141.834V104.039L88.4629 113.488V94.5898L72.0957 85.1406V66.2441Z" fill="#E55B2D"/>
<path d="M88.4629 37.8965L39.3652 66.2441V85.1406L72.0957 66.2441V85.1406L88.4629 75.6934V37.8965ZM137.561 47.3457L121.193 56.7949V75.6934L137.561 66.2441V47.3457ZM104.828 85.1406L88.4629 94.5898V113.488L104.828 104.039V85.1406ZM88.4629 113.488L72.0957 104.039V141.834L88.4629 132.385V113.488Z" fill="#ED8E24"/>
<path d="M88.4629 19L23 56.7949L39.3652 66.2441L88.4629 37.8965L121.193 56.7949L137.561 47.3457L88.4629 19ZM88.4629 75.6934L72.0957 85.1406L88.4629 94.5898L104.828 85.1406L88.4629 75.6934Z" fill="#F8BF3C"/>
</g>
<rect x="0.5" y="0.5" width="159" height="159" rx="19.5" stroke="black" stroke-opacity="0.2"/>
<defs>
<clipPath id="clip0_920_7839">
<rect width="114.561" height="122.834" fill="white" transform="translate(23 19)"/>
</clipPath>
</defs>
</svg>
