<svg xmlns="http://www.w3.org/2000/svg" width="160" height="160" fill="none" viewBox="0 0 160 160"><rect width="160" height="160" fill="#fff" rx="20"/><g clip-path="url(#clip0_781_8222)"><path fill="#007ACC" d="M23 79.7638V112.528H55.8299H88.6599V79.7638V47H55.8299H23V79.7638Z"/><path fill="#fff" d="M37.4968 79.8948L37.4761 82.5822H41.7251H45.9741V94.717V106.852H48.9795H51.9848V94.717V82.5822H56.2339H60.4829V79.947C60.4829 78.4886 60.4519 77.2699 60.4102 77.2387C60.3792 77.1971 55.2079 77.1762 48.9381 77.1865L37.5279 77.2178L37.4968 79.8948Z"/><path fill="#fff" d="M75.9651 77.1971C77.6322 77.6156 78.9032 78.358 80.0701 79.5713C80.6743 80.2199 81.5702 81.4017 81.6431 81.6842C81.6641 81.7678 78.8094 83.6923 77.08 84.7694C77.0175 84.8115 76.7675 84.5396 76.486 84.1211C75.6422 82.8869 74.7566 82.3534 73.4023 82.2593C71.4123 82.1233 70.1307 83.1694 70.1413 84.916C70.1413 85.4286 70.2142 85.7317 70.4225 86.1501C70.8602 87.06 71.6727 87.6039 74.2254 88.7127C78.9239 90.7417 80.9348 92.0804 82.1849 93.984C83.5811 96.1072 83.8937 99.4958 82.9455 102.017C81.9037 104.757 79.32 106.618 75.6838 107.236C74.5586 107.434 71.8916 107.403 70.6831 107.183C68.0471 106.713 65.5466 105.405 64.0047 103.69C63.4005 103.021 62.2231 101.274 62.2962 101.148C62.3272 101.107 62.5982 100.939 62.9003 100.761C63.1922 100.594 64.2965 99.9561 65.3383 99.3496L67.2241 98.2513L67.6198 98.8369C68.1723 99.6842 69.3808 100.845 70.11 101.232C72.2041 102.341 75.0795 102.184 76.4966 100.908C77.1007 100.354 77.3509 99.7783 77.3509 98.9311C77.3509 98.1675 77.2571 97.8329 76.8611 97.2576C76.3505 96.5254 75.3088 95.9083 72.3499 94.622C68.9641 93.1577 67.5053 92.2478 66.1717 90.8044C65.4009 89.9678 64.6716 88.6288 64.3694 87.5097C64.1194 86.5789 64.0569 84.2465 64.2549 83.3054C64.9529 80.0213 67.4221 77.7306 70.985 77.0508C72.1416 76.831 74.8295 76.9149 75.9651 77.1971Z"/><path fill="#000" d="M101.926 101.659C100.932 101.659 100.144 100.803 100.144 98.6437C100.144 95.1826 102.269 90.6592 104.498 90.6592C105.115 90.6592 106.178 90.8305 107.344 91.2074L105.732 99.5688C104.395 100.768 102.921 101.659 101.926 101.659ZM113.72 104.298L113.343 101.762C110.498 102.379 110.361 102.345 110.635 100.871L114.818 79.2478L109.606 79.6247L108.303 86.3756C107.823 86.307 107.378 86.307 106.966 86.307C99.4238 86.307 94.8638 93.4007 94.8638 100.22C94.8638 104.504 96.7496 106.594 99.0122 106.594C101.001 106.594 103.366 104.983 105.423 102.962C105.252 106.8 107.138 107.999 113.72 104.298Z"/><path fill="#000" d="M127.469 106.183L133.366 106.011L128.978 96.4849L137 86.8212H131.446L126.543 93.3664L123.835 86.7525L117.938 86.9582L122.258 96.4506L114.235 106.114H119.824L124.726 99.5689L127.469 106.183Z"/></g><rect width="159" height="159" x=".5" y=".5" stroke="#000" stroke-opacity=".2" rx="19.5"/><defs><clipPath id="clip0_781_8222"><rect width="114" height="65.528" fill="#fff" transform="translate(23 47)"/></clipPath></defs></svg>