<svg width="160" height="160" viewBox="0 0 160 160" fill="none" xmlns="http://www.w3.org/2000/svg">
<rect width="160" height="160" rx="20" fill="#3178C6"/>
<path fill-rule="evenodd" clip-rule="evenodd" d="M99.0434 127.32V142.964C101.587 144.268 104.594 145.245 108.067 145.897C111.539 146.549 115.199 146.875 119.047 146.875C122.796 146.875 126.358 146.517 129.733 145.799C133.107 145.083 136.067 143.901 138.61 142.255C141.153 140.609 143.166 138.458 144.65 135.802C146.133 133.146 146.875 129.862 146.875 125.951C146.875 123.116 146.451 120.631 145.603 118.496C144.756 116.361 143.533 114.463 141.935 112.801C140.338 111.138 138.422 109.647 136.189 108.327C133.955 107.007 131.437 105.761 128.632 104.587C126.578 103.74 124.736 102.917 123.106 102.119C121.476 101.32 120.09 100.505 118.949 99.6744C117.807 98.8431 116.927 97.9631 116.308 97.0344C115.688 96.1053 115.378 95.0544 115.378 93.8809C115.378 92.8056 115.656 91.8359 116.21 90.9722C116.764 90.1084 117.547 89.3672 118.558 88.7478C119.568 88.1288 120.807 87.6478 122.274 87.3056C123.742 86.9634 125.372 86.7925 127.165 86.7925C128.469 86.7925 129.847 86.8903 131.298 87.0856C132.749 87.2813 134.208 87.5828 135.675 87.99C137.143 88.3975 138.569 88.9109 139.955 89.53C141.34 90.1494 142.62 90.8663 143.794 91.6813V77.0638C141.414 76.1513 138.813 75.475 135.993 75.035C133.173 74.595 129.937 74.375 126.285 74.375C122.568 74.375 119.047 74.7744 115.721 75.5728C112.395 76.3712 109.469 77.6178 106.942 79.3125C104.415 81.0075 102.418 83.1666 100.951 85.7903C99.4837 88.4137 98.75 91.5506 98.75 95.2009C98.75 99.8616 100.095 103.838 102.785 107.13C105.475 110.421 109.558 113.208 115.036 115.489C117.188 116.369 119.193 117.233 121.052 118.08C122.91 118.928 124.516 119.808 125.869 120.72C127.222 121.633 128.29 122.627 129.073 123.702C129.855 124.778 130.247 126 130.247 127.369C130.247 128.379 130.002 129.316 129.513 130.18C129.024 131.044 128.282 131.793 127.288 132.429C126.293 133.064 125.054 133.561 123.571 133.92C122.087 134.278 120.351 134.458 118.362 134.458C114.971 134.458 111.613 133.863 108.287 132.673C104.961 131.484 101.88 129.699 99.0434 127.32V127.32ZM72.7437 88.7756H92.8125V75.9375H36.875V88.7756H56.8456V145.938H72.7437V88.7756Z" fill="white"/>
</svg>
