<svg width="161" height="160" viewBox="0 0 161 160" fill="none" xmlns="http://www.w3.org/2000/svg">
<rect x="0.25" width="160" height="160" rx="20" fill="#3178C6"/>
<path fill-rule="evenodd" clip-rule="evenodd" d="M99.2934 127.32V142.964C101.837 144.268 104.844 145.245 108.317 145.897C111.789 146.549 115.449 146.875 119.297 146.875C123.046 146.875 126.608 146.517 129.983 145.799C133.357 145.083 136.317 143.901 138.86 142.255C141.403 140.609 143.416 138.458 144.9 135.802C146.383 133.146 147.125 129.862 147.125 125.951C147.125 123.116 146.701 120.631 145.853 118.496C145.006 116.361 143.783 114.463 142.185 112.801C140.588 111.138 138.672 109.647 136.439 108.327C134.205 107.007 131.687 105.761 128.882 104.587C126.828 103.74 124.986 102.917 123.356 102.119C121.726 101.32 120.34 100.505 119.199 99.6744C118.057 98.8431 117.177 97.9631 116.558 97.0344C115.938 96.1053 115.628 95.0544 115.628 93.8809C115.628 92.8056 115.906 91.8359 116.46 90.9722C117.014 90.1084 117.797 89.3672 118.808 88.7478C119.818 88.1288 121.057 87.6478 122.524 87.3056C123.992 86.9634 125.622 86.7925 127.415 86.7925C128.719 86.7925 130.097 86.8903 131.548 87.0856C132.999 87.2813 134.458 87.5828 135.925 87.99C137.393 88.3975 138.819 88.9109 140.205 89.53C141.59 90.1494 142.87 90.8663 144.044 91.6813V77.0638C141.664 76.1513 139.063 75.475 136.243 75.035C133.423 74.595 130.187 74.375 126.535 74.375C122.818 74.375 119.297 74.7744 115.971 75.5728C112.645 76.3712 109.719 77.6178 107.192 79.3125C104.665 81.0075 102.668 83.1666 101.201 85.7903C99.7337 88.4137 99 91.5506 99 95.2009C99 99.8616 100.345 103.838 103.035 107.13C105.725 110.421 109.808 113.208 115.286 115.489C117.438 116.369 119.443 117.233 121.302 118.08C123.16 118.928 124.766 119.808 126.119 120.72C127.472 121.633 128.54 122.627 129.323 123.702C130.105 124.778 130.497 126 130.497 127.369C130.497 128.379 130.252 129.316 129.763 130.18C129.274 131.044 128.532 131.793 127.538 132.429C126.543 133.064 125.304 133.561 123.821 133.92C122.337 134.278 120.601 134.458 118.612 134.458C115.221 134.458 111.863 133.863 108.537 132.673C105.211 131.484 102.13 129.699 99.2934 127.32V127.32ZM72.9937 88.7756H93.0625V75.9375H37.125V88.7756H57.0956V145.938H72.9937V88.7756Z" fill="white"/>
</svg>
