<svg width="160" height="160" viewBox="0 0 160 160" fill="none" xmlns="http://www.w3.org/2000/svg">
<rect width="160" height="160" rx="20" fill="#202020"/>
<path fill-rule="evenodd" clip-rule="evenodd" d="M87.0462 31.4963L119.708 46.0238C125.967 48.8077 130 55.0155 130 61.8657V97.1925C130 104.043 125.967 110.251 119.708 113.034L87.0462 127.562C84.8281 128.548 82.4276 129.058 80 129.058C77.5724 129.058 75.1719 128.548 72.9538 127.562L40.292 113.034C34.0332 110.251 30 104.043 30 97.1927V61.8655C30 55.0155 34.0332 48.8075 40.292 46.0238L72.9538 31.4963C75.1719 30.5098 77.5724 30 80 30C82.4276 30 84.8281 30.5098 87.0462 31.4963V31.4963Z" fill="#202020"/>
<path opacity="0.499" fill-rule="evenodd" clip-rule="evenodd" d="M122.194 103.597C120.985 105.456 119.263 106.923 117.236 107.821L85.3784 121.943C83.6795 122.696 81.8417 123.085 79.9833 123.085C78.125 123.085 76.2872 122.696 74.5882 121.943L42.7301 107.821C40.7032 106.923 38.9809 105.456 37.7726 103.597C36.5632 101.739 35.9198 99.5702 35.9204 97.3535V61.7365C35.9198 59.5197 36.5632 57.3505 37.7726 55.4926C38.9809 53.6341 40.7032 52.1668 42.7301 51.269L74.5881 37.1468C76.287 36.3937 78.1247 36.0046 79.9831 36.0046C81.8414 36.0046 83.6792 36.3937 85.3781 37.1468L117.236 51.269C119.263 52.1668 120.985 53.6341 122.194 55.4926C123.403 57.3505 124.047 59.5197 124.046 61.7365V97.3535C124.047 99.5703 123.403 101.739 122.194 103.597V103.597Z" stroke="#8196FF" stroke-width="2"/>
<path fill-rule="evenodd" clip-rule="evenodd" d="M125.523 105.548C123.908 108.036 121.606 110.002 118.895 111.207L86.2332 125.734C84.271 126.607 82.1475 127.058 80 127.058C77.8525 127.058 75.729 126.607 73.7668 125.734L41.1052 111.207C38.3945 110.002 36.0918 108.036 34.4765 105.548C32.8598 103.061 31.9997 100.159 32.0005 97.1925V61.8658C31.9997 58.8995 32.8599 55.9967 34.4767 53.5097C36.092 51.0219 38.3946 49.0564 41.1052 47.8517L73.767 33.3242C75.7291 32.4514 77.8527 32.0005 80.0002 32.0005C82.1476 32.0005 84.2712 32.4514 86.2333 33.3242L118.895 47.8517C121.606 49.0563 123.908 51.0218 125.524 53.5097C127.14 55.9966 128 58.8993 128 61.8655V97.1923C128 100.159 127.14 103.061 125.524 105.548L125.523 105.548Z" stroke="#8196FF" stroke-width="2"/>
<path d="M68.7104 98.8328V102.601C68.7104 103.044 68.7935 103.412 68.9595 103.705C69.2057 104.148 69.6208 104.369 70.2046 104.369C70.9046 104.369 71.3805 104.13 71.6323 103.651C71.7679 103.391 71.8357 103.041 71.8357 102.601V98.8328H72.6741V102.257C72.6741 103.007 72.5731 103.584 72.3711 103.988C72.0003 104.724 71.3003 105.092 70.271 105.092C69.2417 105.092 68.5431 104.724 68.175 103.988C67.9731 103.584 67.8721 103.007 67.8721 102.257V98.8328H68.7104Z" fill="#8196FF"/>
<path d="M76.7913 101.626C77.1786 101.626 77.4844 101.549 77.7085 101.394C77.9354 101.239 78.0488 100.959 78.0488 100.555C78.0488 100.121 77.8911 99.8247 77.5757 99.667C77.4069 99.584 77.1814 99.5425 76.8992 99.5425H74.8821V101.626H76.7913ZM74.0562 98.8328H76.8784C77.3433 98.8328 77.7265 98.9006 78.0281 99.0361C78.6008 99.2962 78.8872 99.7763 78.8872 100.476C78.8872 100.842 78.8111 101.14 78.6589 101.373C78.5095 101.605 78.2992 101.792 78.0281 101.933C78.266 102.03 78.4445 102.157 78.5635 102.315C78.6852 102.473 78.753 102.729 78.7668 103.083L78.7959 103.9C78.8042 104.133 78.8236 104.306 78.854 104.419C78.9038 104.613 78.9924 104.737 79.1196 104.793V104.93H78.1069C78.0793 104.877 78.0571 104.809 78.0405 104.726C78.0239 104.643 78.0101 104.483 77.999 104.245L77.9492 103.228C77.9299 102.83 77.7818 102.563 77.5051 102.427C77.3474 102.352 77.0998 102.315 76.7622 102.315H74.8821V104.93H74.0562V98.8328Z" fill="#8196FF"/>
<path d="M85.6772 104.913L85.2622 105.415L84.3201 104.697C84.0932 104.822 83.8469 104.921 83.5813 104.996C83.3184 105.071 83.0307 105.108 82.718 105.108C81.7717 105.108 81.0302 104.798 80.4934 104.178C80.0203 103.575 79.7837 102.82 79.7837 101.912C79.7837 101.088 79.9884 100.382 80.3979 99.7957C80.9237 99.0431 81.7012 98.6667 82.7305 98.6667C83.8068 98.6667 84.6037 99.0126 85.1211 99.7043C85.5251 100.244 85.7271 100.934 85.7271 101.775C85.7271 102.168 85.6786 102.546 85.5818 102.908C85.4351 103.462 85.1875 103.913 84.8389 104.261L85.6772 104.913ZM82.8176 104.369C82.9892 104.369 83.1497 104.358 83.2991 104.336C83.4485 104.311 83.5785 104.264 83.6892 104.195L83.021 103.672L83.436 103.162L84.2329 103.78C84.4847 103.492 84.6549 103.17 84.7434 102.813C84.8347 102.456 84.8804 102.114 84.8804 101.788C84.8804 101.071 84.6922 100.494 84.3159 100.057C83.9424 99.62 83.4305 99.4014 82.7803 99.4014C82.1217 99.4014 81.6002 99.6117 81.2156 100.032C80.831 100.45 80.6387 101.095 80.6387 101.966C80.6387 102.7 80.8227 103.283 81.1907 103.718C81.5614 104.152 82.1038 104.369 82.8176 104.369Z" fill="#8196FF"/>
<path d="M86.7148 98.8328H87.5408V104.203H90.6287V104.93H86.7148V98.8328Z" fill="#8196FF"/>
<mask id="mask0_860_7869" style="mask-type:alpha" maskUnits="userSpaceOnUse" x="53" y="54" width="41" height="39">
<path d="M53 54.6548H93.483V92.7796H53V54.6548Z" fill="white"/>
</mask>
<g mask="url(#mask0_860_7869)">
<path fill-rule="evenodd" clip-rule="evenodd" d="M75.5105 82.8019L83.0382 90.3376V92.7798L85.5568 90.3193L79.9318 84.6878V81.6651L82.5213 84.2578L89.3377 84.2773L93.483 88.4268V84.0101C93.4831 82.5136 92.8892 81.0783 91.8317 80.0194L79.9887 68.1636L68.0847 56.2469C67.5807 55.7423 66.9822 55.3419 66.3234 55.0688C65.6646 54.7956 64.9584 54.655 64.2452 54.655C63.5321 54.655 62.8259 54.7956 62.1671 55.0688C61.5083 55.3419 60.9098 55.7423 60.4058 56.2469L53 63.6606H57.443C58.648 62.4543 60.6018 62.4543 61.8068 63.6606L61.8595 63.7133L70.9088 72.7723H66.4613L61.8595 68.1656V70.2551C61.8593 71.7475 62.4516 73.179 63.5062 74.2351L66.5077 77.2398L70.9552 81.6918C70.9551 82.6255 71.3256 83.521 71.9853 84.1818L75.5027 87.7033L77.7573 89.9599L77.74 92.0516L79.8652 90.1971V92.5956L82.2937 90.2809L75.5105 83.4904" fill="#8196FF"/>
</g>
<mask id="mask1_860_7869" style="mask-type:alpha" maskUnits="userSpaceOnUse" x="79" y="54" width="28" height="22">
<path d="M79.9888 54.6548H106.977V75.0126H79.9888V54.6548Z" fill="white"/>
</mask>
<g mask="url(#mask1_860_7869)">
<path fill-rule="evenodd" clip-rule="evenodd" d="M79.9888 68.1636L91.8928 56.2469C92.3967 55.7423 92.9952 55.3419 93.654 55.0688C94.3128 54.7956 95.019 54.655 95.7322 54.655C96.4454 54.655 97.1516 54.7956 97.8104 55.0688C98.4692 55.3419 99.0677 55.7423 99.5716 56.2469L106.977 63.6606H102.534C101.329 62.4543 99.3756 62.4543 98.1706 63.6606L98.1179 63.7133L86.8306 75.0128" fill="#647BED"/>
</g>
<mask id="mask2_860_7869" style="mask-type:alpha" maskUnits="userSpaceOnUse" x="63" y="54" width="24" height="22">
<path d="M63.1206 54.6548H86.8306V75.0126H63.1206V54.6548Z" fill="white"/>
</mask>
<g mask="url(#mask2_860_7869)">
<path fill-rule="evenodd" clip-rule="evenodd" d="M86.8304 75.0126L79.9886 68.1634L68.0844 56.2468C67.5805 55.7421 66.982 55.3417 66.3233 55.0685C65.6645 54.7952 64.9583 54.6545 64.2451 54.6544C63.8671 54.655 63.4903 54.6949 63.1206 54.7738C64.1492 54.9913 65.0924 55.503 65.8356 56.2466L77.7394 68.1633L84.5744 75.0058L86.8304 75.0124V75.0126Z" fill="#A2B1FF"/>
</g>
<path fill-rule="evenodd" clip-rule="evenodd" d="M63.9957 74.7253H73.6849L75.636 72.7723H66.461L61.8594 68.1656V70.2551C61.8592 71.7476 62.4515 73.1791 63.506 74.2351L63.9957 74.7253V74.7253Z" fill="#A2B1FF"/>
<path fill-rule="evenodd" clip-rule="evenodd" d="M89.0874 81.5948C89.0873 81.666 89.1013 81.7365 89.1285 81.8023C89.1557 81.8681 89.1956 81.9279 89.2459 81.9783C89.2962 82.0287 89.3559 82.0686 89.4216 82.0959C89.4874 82.1232 89.5579 82.1373 89.6291 82.1373C89.7003 82.1373 89.7708 82.1233 89.8365 82.096C89.9023 82.0687 89.9621 82.0287 90.0124 81.9783C90.0627 81.928 90.1026 81.8682 90.1298 81.8024C90.157 81.7365 90.171 81.666 90.1709 81.5948C90.1709 81.5236 90.157 81.4532 90.1298 81.3874C90.1026 81.3216 90.0627 81.2618 90.0124 81.2115C89.9621 81.1611 89.9024 81.1212 89.8366 81.0939C89.7709 81.0666 89.7004 81.0525 89.6292 81.0525H89.0874V81.5948Z" fill="#4D65DD"/>
<path fill-rule="evenodd" clip-rule="evenodd" d="M65.9091 63.0377C63.7542 60.8805 60.2607 60.8805 58.1062 63.0377L57.7476 63.3967C58.9576 62.465 60.6981 62.551 61.8066 63.6607L61.8272 63.6812H61.8592L72.8626 74.7273L77.5381 74.679L66.4749 63.6042L65.9091 63.0377V63.0377Z" fill="#647BED"/>
<path fill-rule="evenodd" clip-rule="evenodd" d="M94.0545 63.0377C96.2093 60.8805 99.7028 60.8805 101.857 63.0377L102.216 63.3967C101.006 62.465 99.2653 62.551 98.157 63.6607L98.1363 63.6812H98.1043L86.8238 75.0062L84.4613 72.6412L93.4883 63.6042L94.0545 63.0377V63.0377ZM68.8906 79.6255L70.9551 81.6922C70.9551 82.6258 71.3256 83.5213 71.9853 84.182L75.5026 87.7032L77.7573 89.96L77.74 92.0517L79.8651 90.1973V92.5958L82.2936 90.2808L75.5105 83.4905L75.843 83.1345L83.038 90.3377V92.7797L85.557 90.3192L79.9316 84.6878V81.665C79.2859 81.0186 78.5192 80.5057 77.6752 80.1558C76.8312 79.8058 75.9265 79.6256 75.0128 79.6255H68.8906V79.6255Z" fill="#4D65DD"/>
<path fill-rule="evenodd" clip-rule="evenodd" d="M82.2936 90.281L75.5103 83.4905L71.6495 79.6255H68.8906L70.955 81.6922C70.9549 82.6258 71.3255 83.5213 71.9853 84.182L75.5028 87.7032L77.7575 89.9602L77.74 92.0518L79.8653 90.1972V92.5958L82.2936 90.2808V90.281Z" fill="#647BED"/>
<path fill-rule="evenodd" clip-rule="evenodd" d="M99.5713 56.2469C99.0673 55.7423 98.4689 55.3419 97.8101 55.0687C97.1513 54.7956 96.4451 54.6549 95.7319 54.6549C95.3509 54.6549 94.9744 54.6961 94.6074 54.7739C95.636 54.9915 96.5792 55.5032 97.3223 56.2469L104.728 63.6607H106.977L99.5713 56.2469Z" fill="#8196FF"/>
</svg>
