<svg width="80" height="80" viewBox="0 0 80 80" fill="none" xmlns="http://www.w3.org/2000/svg">
<rect width="79.9995" height="79.9995" rx="10.5893" fill="black"/>
<path d="M18.2087 30.3301V43.8042C18.2087 44.3821 18.2087 44.96 18.2562 45.4904C18.3037 46.0208 18.3987 46.5037 18.5412 46.8837C18.7312 47.2716 18.9766 47.5566 19.3566 47.8021C19.6971 48.0396 20.2196 48.1425 20.9004 48.1425C21.9612 48.1425 22.7291 47.8021 23.117 47.1766C23.505 46.5512 23.7425 45.4429 23.7425 43.9546V30.338H25.8562V43.8121C25.8562 44.1525 25.8562 44.5325 25.8087 45.0154C25.8087 45.4508 25.7137 45.9337 25.6662 46.3612C25.5712 46.7966 25.4287 47.2796 25.2308 47.7071C25.0408 48.1425 24.7479 48.5225 24.3679 48.8629C23.98 49.2033 23.5525 49.4883 22.9745 49.6783C22.3966 49.8683 21.7237 50.0187 20.8608 50.0187C19.6575 50.0187 18.7471 49.8287 18.0662 49.4408C17.3933 49.0529 16.9104 48.5779 16.6254 48C16.3404 47.4221 16.1425 46.7491 16.095 46.0287C16.0475 45.3083 16 44.5879 16 43.8596V30.3776H18.2167V30.3301H18.2087Z" fill="white"/>
<path d="M27.8351 30.3301H30.1943L32.7909 37.2571L35.4826 30.3301H37.6517L33.8517 39.1888L38.1346 49.5833H35.633L32.5534 41.5954L29.4738 49.6308H27.3047L31.5401 39.5767L27.8351 30.3301Z" fill="white"/>
<path d="M40.0107 30.3301H43.7632C44.7765 30.3301 45.6395 30.4251 46.3599 30.6151C47.0328 30.8051 47.6582 31.2405 48.1886 31.8659C48.3311 32.0559 48.4736 32.2538 48.624 32.4913C48.7665 32.7288 48.909 33.0217 49.0594 33.3542C49.2019 33.6946 49.2969 34.0746 49.3444 34.5101C49.4394 34.9455 49.4394 35.4759 49.4394 36.0538C49.4394 36.8217 49.3444 37.5421 49.1544 38.2229C48.9644 38.8959 48.6715 39.5213 48.2361 40.0517C47.8007 40.5821 47.2703 40.97 46.5974 41.3025C45.9245 41.5875 45.109 41.7379 44.0957 41.7379H42.2274V49.5833H40.0107V30.3301ZM42.2274 39.9092H44.0561C44.4915 39.9092 44.919 39.8617 45.307 39.7667C45.6949 39.6717 46.0274 39.4817 46.3203 39.2363C46.6053 38.9513 46.8507 38.5634 46.9932 38.0804C47.1357 37.5975 47.2307 36.9246 47.2307 36.1567C47.2307 35.1909 47.0882 34.423 46.8428 33.8926C46.5974 33.3621 46.2649 32.9742 45.9245 32.7367C45.584 32.4992 45.204 32.3488 44.8161 32.3013C44.4282 32.2538 44.1432 32.2538 43.8503 32.2538H42.1641V39.9092H42.2274Z" fill="white"/>
<path d="M53.2951 30.3301V32.7842H51.126V30.3301H53.2951ZM51.221 35.3413H53.1922V49.5833H51.221V35.3413Z" fill="white"/>
<path d="M55.457 35.3412H57.2858V37.5103C57.3333 37.3678 57.4283 37.1224 57.5708 36.8374C57.7133 36.5524 57.9112 36.2595 58.1487 36.022C58.3862 35.737 58.7266 35.4916 59.067 35.3016C59.4549 35.1116 59.8824 35.0166 60.4128 35.0166C61.0382 35.0166 61.5687 35.1591 62.0041 35.4045C62.4395 35.6895 62.8195 36.0299 63.0174 36.4653C63.2549 36.9008 63.4053 37.4787 63.4528 38.2466C63.5003 38.967 63.5003 39.7349 63.5003 40.5582V49.6069H61.5766V40.582C61.5766 40.1466 61.5766 39.7191 61.5291 39.2362C61.5291 38.8007 61.4341 38.4207 61.3391 38.0328C61.2441 37.6924 61.0541 37.4074 60.8087 37.1699C60.5712 36.9324 60.2308 36.8295 59.7953 36.8295C59.2649 36.8295 58.877 36.972 58.5445 37.3124C58.2595 37.6528 58.0141 38.0328 57.8716 38.4682C57.7291 38.9512 57.6341 39.4341 57.5866 39.9566C57.5391 40.4791 57.5391 40.9699 57.5391 41.3499V49.5832H55.5679V35.3412H55.457Z" fill="white"/>
</svg>
