<svg xmlns="http://www.w3.org/2000/svg" width="160" height="160" fill="none" viewBox="0 0 160 160"><rect width="160" height="160" fill="#000" rx="20"/><path fill="#fff" d="M36.4175 60.6613V87.6096C36.4175 88.7654 36.4175 89.9213 36.5125 90.9821C36.6075 92.0429 36.7975 93.0088 37.0825 93.7688C37.4625 94.5446 37.9533 95.1146 38.7133 95.6054C39.3942 96.0804 40.4392 96.2863 41.8008 96.2863C43.9225 96.2863 45.4583 95.6054 46.2342 94.3546C47.01 93.1038 47.485 90.8871 47.485 87.9104V60.6771H51.7125V87.6254C51.7125 88.3063 51.7125 89.0663 51.6175 90.0321C51.6175 90.9029 51.4275 91.8688 51.3325 92.7238C51.1425 93.5946 50.8575 94.5604 50.4617 95.4154C50.0817 96.2863 49.4958 97.0463 48.7358 97.7271C47.96 98.4079 47.105 98.9779 45.9492 99.3579C44.7933 99.7379 43.4475 100.039 41.7217 100.039C39.315 100.039 37.4942 99.6588 36.1325 98.8829C34.7867 98.1071 33.8208 97.1571 33.2508 96.0013C32.6808 94.8454 32.285 93.4996 32.19 92.0588C32.095 90.6179 32 89.1771 32 87.7204V60.7563H36.4333V60.6613H36.4175Z"/><path fill="#fff" d="M55.6707 60.6613H60.389L65.5824 74.5154L70.9657 60.6613H75.304L67.704 78.3788L76.2699 99.1679H71.2665L65.1074 83.1921L58.9482 99.2629H54.6099L63.0807 79.1546L55.6707 60.6613Z"/><path fill="#fff" d="M80.0225 60.6613H87.5275C89.5541 60.6613 91.28 60.8513 92.7208 61.2313C94.0666 61.6113 95.3175 62.4821 96.3783 63.7329C96.6633 64.1129 96.9483 64.5088 97.2491 64.9838C97.5341 65.4588 97.8191 66.0446 98.12 66.7096C98.405 67.3904 98.595 68.1504 98.69 69.0213C98.88 69.8921 98.88 70.9529 98.88 72.1088C98.88 73.6446 98.69 75.0854 98.31 76.4471C97.93 77.7929 97.3441 79.0438 96.4733 80.1046C95.6025 81.1654 94.5416 81.9413 93.1958 82.6063C91.85 83.1763 90.2191 83.4771 88.1925 83.4771H84.4558V99.1679H80.0225V60.6613ZM84.4558 79.8196H88.1133C88.9841 79.8196 89.8391 79.7246 90.615 79.5346C91.3908 79.3446 92.0558 78.9646 92.6416 78.4738C93.2116 77.9038 93.7025 77.1279 93.9875 76.1621C94.2725 75.1963 94.4625 73.8504 94.4625 72.3146C94.4625 70.3829 94.1775 68.8471 93.6866 67.7863C93.1958 66.7254 92.5308 65.9496 91.85 65.4746C91.1691 64.9996 90.4091 64.6988 89.6333 64.6038C88.8575 64.5088 88.2875 64.5088 87.7016 64.5088H84.3291V79.8196H84.4558Z"/><path fill="#fff" d="M106.591 60.6613V65.5696H102.252V60.6613H106.591ZM102.442 70.6838H106.385V99.1679H102.442V70.6838Z"/><path fill="#fff" d="M110.914 70.6838H114.571V75.0221C114.666 74.7371 114.856 74.2463 115.141 73.6763C115.426 73.1063 115.822 72.5204 116.297 72.0454C116.772 71.4754 117.453 70.9846 118.134 70.6046C118.909 70.2246 119.764 70.0346 120.825 70.0346C122.076 70.0346 123.137 70.3196 124.008 70.8104C124.879 71.3804 125.639 72.0613 126.034 72.9321C126.509 73.8029 126.81 74.9588 126.905 76.4946C127 77.9354 127 79.4713 127 81.1179V99.2155H123.153V81.1654C123.153 80.2946 123.153 79.4396 123.058 78.4738C123.058 77.6029 122.868 76.8429 122.678 76.0671C122.488 75.3863 122.108 74.8163 121.617 74.3413C121.142 73.8663 120.461 73.6604 119.59 73.6604C118.529 73.6604 117.754 73.9454 117.089 74.6263C116.519 75.3071 116.028 76.0671 115.743 76.9379C115.458 77.9038 115.268 78.8696 115.173 79.9146C115.078 80.9596 115.078 81.9413 115.078 82.7013V99.1679H111.135V70.6838H110.914Z"/></svg>