<svg width="80" height="80" viewBox="0 0 80 80" fill="none" xmlns="http://www.w3.org/2000/svg">
<rect width="80.0004" height="80.0004" rx="10.5895" fill="#FFAE00"/>
<g clip-path="url(#clip0_5169_71949)">
<path d="M67.621 19.8482L41.5103 66.386C40.9712 67.3468 39.5862 67.3525 39.039 66.3963L12.4106 19.8527C11.8144 18.8107 12.7084 17.5486 13.893 17.7597L40.0316 22.4165C40.1984 22.4462 40.3691 22.4459 40.5358 22.4157L66.1279 17.7663C67.3085 17.5519 68.2067 18.8042 67.621 19.8482Z" fill="url(#paint0_linear_5169_71949)"/>
<path d="M52.4829 11.6514L33.1602 15.4252C32.8426 15.4872 32.6075 15.7555 32.5883 16.0774L31.3997 36.0865C31.3718 36.5578 31.806 36.9235 32.2675 36.8175L37.6472 35.58C38.1505 35.4643 38.6054 35.9061 38.5019 36.4107L36.9036 44.2117C36.796 44.7367 37.2906 45.1857 37.805 45.03L41.1278 44.0237C41.6429 43.8679 42.1379 44.3181 42.0289 44.8435L39.4889 57.0972C39.3299 57.8637 40.3528 58.2816 40.7794 57.6245L41.0643 57.1856L56.8095 25.8661C57.0732 25.3417 56.6185 24.7437 56.0407 24.8549L50.5032 25.9201C49.9828 26.0201 49.54 25.5371 49.6869 25.0296L53.3012 12.5414C53.4482 12.0331 53.0039 11.5496 52.4829 11.6514Z" fill="url(#paint1_linear_5169_71949)"/>
</g>
<defs>
<linearGradient id="paint0_linear_5169_71949" x1="11.7604" y1="16.0965" x2="44.1193" y2="60.1866" gradientUnits="userSpaceOnUse">
<stop stop-color="#41D1FF"/>
<stop offset="1" stop-color="#BD34FE"/>
</linearGradient>
<linearGradient id="paint1_linear_5169_71949" x1="38.5314" y1="12.6759" x2="44.3723" y2="52.8755" gradientUnits="userSpaceOnUse">
<stop stop-color="#FFEA83"/>
<stop offset="0.0833333" stop-color="#FFDD35"/>
<stop offset="1" stop-color="#FFA800"/>
</linearGradient>
<clipPath id="clip0_5169_71949">
<rect width="58.1821" height="57.1431" fill="white" transform="translate(10.9092 11.4287)"/>
</clipPath>
</defs>
</svg>
