<svg width="60" height="60" viewBox="0 0 60 60" fill="none" xmlns="http://www.w3.org/2000/svg">
<rect width="60" height="60" rx="10" fill="#FFAE00"/>
<g clip-path="url(#clip0_1202_39913)">
<path d="M50.7158 14.8866L31.1329 49.7898C30.7285 50.5104 29.6898 50.5147 29.2794 49.7975L9.30817 14.89C8.86107 14.1085 9.53151 13.162 10.42 13.3202L30.0239 16.8129C30.1489 16.8351 30.277 16.8349 30.402 16.8122L49.596 13.3252C50.4815 13.1644 51.155 14.1036 50.7158 14.8866Z" fill="url(#paint0_linear_1202_39913)"/>
<path d="M39.3624 8.73876L24.8704 11.5691C24.6322 11.6156 24.4559 11.8168 24.4415 12.0583L23.55 27.065C23.5291 27.4185 23.8547 27.6928 24.2009 27.6133L28.2356 26.6851C28.6131 26.5984 28.9542 26.9298 28.8766 27.3082L27.6779 33.1589C27.5973 33.5527 27.9682 33.8894 28.354 33.7726L30.846 33.0179C31.2324 32.901 31.6036 33.2387 31.5219 33.6328L29.6169 42.823C29.4977 43.3978 30.2648 43.7113 30.5847 43.2185L30.7985 42.8893L42.6073 19.3997C42.8051 19.0065 42.4641 18.558 42.0307 18.6413L37.8776 19.4403C37.4873 19.5153 37.1552 19.153 37.2654 18.7724L39.976 9.40628C40.0863 9.02505 39.7531 8.66246 39.3624 8.73876Z" fill="url(#paint1_linear_1202_39913)"/>
</g>
<defs>
<linearGradient id="paint0_linear_1202_39913" x1="8.82055" y1="12.0729" x2="33.0896" y2="45.1403" gradientUnits="userSpaceOnUse">
<stop stop-color="#41D1FF"/>
<stop offset="1" stop-color="#BD34FE"/>
</linearGradient>
<linearGradient id="paint1_linear_1202_39913" x1="28.8988" y1="9.50719" x2="33.2795" y2="39.6567" gradientUnits="userSpaceOnUse">
<stop stop-color="#FFEA83"/>
<stop offset="0.0833333" stop-color="#FFDD35"/>
<stop offset="1" stop-color="#FFA800"/>
</linearGradient>
<clipPath id="clip0_1202_39913">
<rect width="43.6364" height="42.8571" fill="white" transform="translate(8.18188 8.57227)"/>
</clipPath>
</defs>
</svg>
