<svg xmlns="http://www.w3.org/2000/svg" width="160" height="160" fill="none" viewBox="0 0 160 160"><rect width="160" height="160" fill="#FFAE00" rx="20"/><path fill="url(#paint0_linear_781_7987)" d="M135.242 39.6958L83.0208 132.771C81.9426 134.692 79.1726 134.704 78.0782 132.791L24.8216 39.7047C23.6294 37.6208 25.4172 35.0966 27.7864 35.5187L80.0635 44.8323C80.397 44.8917 80.7384 44.8912 81.0719 44.8306L132.256 35.532C134.617 35.1031 136.413 37.6077 135.242 39.6958Z"/><path fill="url(#paint1_linear_781_7987)" d="M104.966 23.3025L66.3209 30.8501C65.6857 30.9741 65.2155 31.5106 65.1771 32.1545L62.7999 72.1725C62.744 73.1151 63.6125 73.8466 64.5354 73.6345L75.2948 71.1595C76.3015 70.9281 77.2111 71.8118 77.0042 72.8209L73.8076 88.4228C73.5925 89.4729 74.5816 90.3708 75.6104 90.0593L82.2559 88.0469C83.2862 87.7352 84.2761 88.6356 84.0581 89.6865L78.9782 114.194C78.6603 115.727 80.706 116.563 81.5592 115.248L82.1291 114.371L113.619 51.7318C114.147 50.683 113.237 49.4871 112.082 49.7094L101.007 51.8398C99.9659 52.0398 99.0804 51.0738 99.3741 50.0589L106.603 25.0825C106.897 24.0659 106.008 23.099 104.966 23.3025Z"/><defs><linearGradient id="paint0_linear_781_7987" x1="23.521" x2="88.239" y1="32.192" y2="120.372" gradientUnits="userSpaceOnUse"><stop stop-color="#41D1FF"/><stop offset="1" stop-color="#BD34FE"/></linearGradient><linearGradient id="paint1_linear_781_7987" x1="77.063" x2="88.745" y1="25.352" y2="105.75" gradientUnits="userSpaceOnUse"><stop stop-color="#FFEA83"/><stop offset=".083" stop-color="#FFDD35"/><stop offset="1" stop-color="#FFA800"/></linearGradient></defs></svg>