<svg width="161" height="160" viewBox="0 0 161 160" fill="none" xmlns="http://www.w3.org/2000/svg">
<rect x="0.28125" width="160" height="160" rx="20" fill="#FFAE00"/>
<path d="M135.524 39.6957L83.3026 132.771C82.2244 134.692 79.4543 134.704 78.36 132.791L25.1034 39.7047C23.9111 37.6207 25.6989 35.0965 28.0682 35.5186L80.3452 44.8323C80.6787 44.8917 81.0201 44.8911 81.3536 44.8305L132.537 35.532C134.899 35.103 136.695 37.6077 135.524 39.6957Z" fill="url(#paint0_linear_2014_24819)"/>
<path d="M105.247 23.3025L66.6017 30.8501C65.9665 30.9741 65.4962 31.5106 65.4579 32.1545L63.0807 72.1725C63.0248 73.1151 63.8932 73.8466 64.8162 73.6345L75.5756 71.1595C76.5823 70.9281 77.4919 71.8118 77.285 72.8209L74.0884 88.4228C73.8733 89.4729 74.8624 90.3708 75.8912 90.0593L82.5367 88.0469C83.5669 87.7352 84.5569 88.6356 84.3389 89.6865L79.2589 114.194C78.941 115.727 80.9868 116.563 81.8399 115.248L82.4098 114.371L113.9 51.7318C114.427 50.683 113.518 49.4871 112.362 49.7094L101.287 51.8398C100.247 52.0398 99.3612 51.0738 99.6549 50.0589L106.883 25.0825C107.177 24.0659 106.289 23.099 105.247 23.3025Z" fill="url(#paint1_linear_2014_24819)"/>
<defs>
<linearGradient id="paint0_linear_2014_24819" x1="23.8031" y1="32.1922" x2="88.5205" y2="120.372" gradientUnits="userSpaceOnUse">
<stop stop-color="#41D1FF"/>
<stop offset="1" stop-color="#BD34FE"/>
</linearGradient>
<linearGradient id="paint1_linear_2014_24819" x1="77.344" y1="25.3516" x2="89.0258" y2="105.75" gradientUnits="userSpaceOnUse">
<stop stop-color="#FFEA83"/>
<stop offset="0.0833333" stop-color="#FFDD35"/>
<stop offset="1" stop-color="#FFA800"/>
</linearGradient>
</defs>
</svg>
