<svg xmlns="http://www.w3.org/2000/svg" width="160" height="160" fill="none" viewBox="0 0 160 160"><rect width="160" height="160" fill="#1C78C0" rx="20"/><path fill="#fff" d="M79.9783 17.1963L135.577 48.6638V111.613L79.9783 143.081L24.3794 111.613V48.6638L79.9783 17.1963Z"/><path fill="#8ED6FB" d="M125.65 109.443L81.8173 134.254V114.934L109.128 99.8974L125.65 109.443V109.443ZM128.653 106.726V54.8452L112.619 64.1173V97.468L128.653 106.726V106.726ZM34.1345 109.443L77.9671 134.254V114.934L50.6417 99.8974L34.1345 109.443V109.443ZM31.1318 106.726V54.8452L47.165 64.1173V97.468L31.1318 106.726ZM33.0139 51.4814L77.9671 26.0371V44.7106L49.162 60.5666L48.9321 60.696L33.0139 51.4814V51.4814ZM126.771 51.4814L81.8173 26.0371V44.7106L110.622 60.5522L110.852 60.6816L126.771 51.4814Z"/><path fill="#1C78C0" d="M77.967 110.535L51.0151 95.6999V66.3312L77.967 81.8996V110.535ZM81.8172 110.535L108.769 95.7143V66.3312L81.8172 81.8996V110.535ZM52.8397 62.9386L79.8921 48.0602L106.944 62.9386L79.8921 78.5646L52.8397 62.9386V62.9386Z"/></svg>