<svg xmlns="http://www.w3.org/2000/svg" width="80" height="80" fill="none" viewBox="0 0 80 80"><rect width="80" height="80" x="-.001" fill="#1C78C0" rx="10.589"/><path fill="#fff" d="M39.989 8.59863L67.7886 24.3325V55.8074L39.989 71.5412L12.1895 55.8074V24.3325L39.989 8.59863Z"/><path fill="#8ED6FB" d="M62.8247 54.7215L40.9083 67.1275V57.4672L54.5639 49.9489L62.8247 54.7215V54.7215ZM64.326 53.3631V27.4227L56.3094 32.0587V48.7342L64.326 53.3631V53.3631ZM17.0667 54.7215L38.9832 67.1275V57.4672L25.3204 49.9489L17.0667 54.7215V54.7215ZM15.5654 53.3631V27.4227L23.582 32.0587V48.7342L15.5654 53.3631ZM16.5064 25.7408L38.9832 13.0186V22.3554L24.5805 30.2834L24.4656 30.3481L16.5064 25.7408V25.7408ZM63.385 25.7408L40.9083 13.0186V22.3554L55.3109 30.2762L55.4259 30.3409L63.385 25.7408Z"/><path fill="#1C78C0" d="M38.9828 55.268L25.5068 47.8503V33.1658L38.9828 40.9501V55.268ZM40.9079 55.268L54.3839 47.8575V33.1658L40.9079 40.9501V55.268ZM26.4191 31.4695L39.9454 24.0303L53.4716 31.4695L39.9454 39.2825L26.4191 31.4695V31.4695Z"/></svg>