<svg width="160" height="160" viewBox="0 0 160 160" fill="none" xmlns="http://www.w3.org/2000/svg">
<rect width="160" height="160" rx="20" fill="#3878C3"/>
<path d="M30.9975 79.9984C30.9975 99.3538 42.2449 116.08 58.5553 124.007L35.2309 60.0986C32.4349 66.36 30.9923 73.1411 30.9975 79.9984ZM112.903 77.5307C112.903 71.488 110.732 67.3028 108.871 64.0456C106.392 60.0177 104.069 56.6067 104.069 52.5788C104.069 48.0838 107.478 43.8994 112.28 43.8994C112.497 43.8994 112.702 43.9262 112.914 43.9388C104.214 35.9684 92.6241 31.1023 79.8944 31.1023C62.8119 31.1023 47.7832 39.8671 39.0401 53.1426C40.1872 53.177 41.2681 53.2007 42.1868 53.2007C47.3008 53.2007 55.2178 52.5806 55.2178 52.5806C57.8539 52.4251 58.1646 56.2965 55.5316 56.6085C55.5316 56.6085 52.8825 56.9201 49.9347 57.0743L67.7418 110.04L78.4424 77.9465L70.8241 57.073C68.1911 56.9188 65.6966 56.6072 65.6966 56.6072C63.0618 56.4525 63.3707 52.4237 66.0055 52.5793C66.0055 52.5793 74.0807 53.1998 78.885 53.1998C83.999 53.1998 91.9164 52.5793 91.9164 52.5793C94.5539 52.4237 94.8642 56.2951 92.2303 56.6072C92.2303 56.6072 89.5758 56.9188 86.6334 57.073L104.304 109.637L109.181 93.3388C111.295 86.5754 112.904 81.7178 112.904 77.5312L112.903 77.5307ZM80.7522 84.2758L66.0815 126.907C70.5669 128.229 75.2185 128.899 79.8944 128.9C85.5882 128.9 91.0488 127.915 96.132 126.128C95.9962 125.914 95.8797 125.689 95.7837 125.454L80.7522 84.2758ZM122.799 56.5388C123.009 58.0963 123.129 59.7682 123.129 61.5667C123.129 66.5289 122.202 72.1067 119.411 79.0811L104.475 122.266C119.012 113.788 128.789 98.039 128.789 79.9998C128.79 71.4983 126.618 63.5038 122.799 56.5388H122.799ZM79.8944 23C48.4658 23 22.8955 48.5693 22.8955 79.9984C22.8955 111.432 48.4658 137 79.8944 137C111.322 137 136.896 111.432 136.896 79.9984C136.895 48.5693 111.322 23 79.8948 23H79.8944ZM79.8944 134.387C49.9074 134.387 25.5089 109.989 25.5089 79.9984C25.5089 50.0106 49.9061 25.6134 79.8944 25.6134C109.88 25.6134 134.277 50.0106 134.277 79.9984C134.277 109.989 109.88 134.387 79.8944 134.387Z" fill="white"/>
</svg>
