<svg xmlns="http://www.w3.org/2000/svg" width="160" height="160" fill="none" viewBox="0 0 160 160"><rect width="160" height="160" fill="#2C8EBB" rx="20"/><g clip-path="url(#clip0_781_8224)"><path fill="#2C8EBB" d="M79.9999 10.3896C119.007 10.3896 150.649 42.0318 150.649 81.0389C150.649 120.046 119.007 151.688 79.9999 151.688C40.9928 151.688 9.35059 120.046 9.35059 81.0389C9.35059 42.0318 40.9928 10.3896 79.9999 10.3896Z"/><path fill="#fff" d="M128.063 102.452C127.572 98.5785 124.299 95.9053 120.098 95.9598C113.824 96.0417 108.56 99.2877 105.068 101.443C103.704 102.288 102.531 102.916 101.522 103.379C101.74 100.215 101.549 96.069 99.9127 91.5136C97.9214 86.058 95.2482 82.7029 93.3387 80.7661C95.5482 77.5474 98.5761 72.8556 99.9945 65.5997C101.222 59.4077 100.84 49.7786 98.0305 44.3776C97.4577 43.2865 96.5029 42.4955 95.3027 42.1681C94.8117 42.0317 93.8843 41.759 92.0567 42.2772C89.3016 36.5762 88.3469 35.9761 87.6104 35.4851C86.0828 34.5031 84.2825 34.2849 82.5913 34.9122C80.3272 35.7306 78.3905 37.9128 76.5629 41.7862C76.2901 42.3591 76.0446 42.9046 75.8264 43.4502C72.3621 43.6957 66.9066 44.9505 62.2967 49.9423C61.7238 50.5697 60.6054 51.0334 59.4325 51.4698H59.4598C57.0593 52.3154 55.9682 54.2794 54.6316 57.8255C52.7767 62.7901 54.6862 67.6728 56.5683 70.837C54.0042 73.1284 50.5945 76.7836 48.7942 81.0662C46.5574 86.3581 46.3119 91.5408 46.3937 94.3505C44.4843 96.369 41.5383 100.161 41.211 104.416C40.7745 110.362 42.9295 114.4 43.8842 115.873C44.1569 116.309 44.457 116.664 44.7843 117.018C44.6752 117.755 44.6479 118.546 44.8116 119.364C45.1662 121.274 46.3664 122.828 48.1941 123.81C51.7947 125.72 56.8138 126.538 60.6873 124.601C62.0784 126.074 64.6153 127.493 69.2252 127.493H69.498C70.6709 127.493 85.5646 126.702 89.9017 125.638C91.8384 125.174 93.1751 124.356 94.0479 123.619C96.8303 122.747 104.523 120.128 111.778 115.436C116.907 112.108 118.68 111.399 122.499 110.472C126.208 109.571 128.527 106.189 128.063 102.452V102.452ZM121.571 106.462C117.207 107.498 114.997 108.453 109.596 111.972C101.167 117.427 91.9476 119.964 91.9476 119.964C91.9476 119.964 91.1838 121.11 88.9743 121.628C85.1554 122.556 70.78 123.347 69.4707 123.374C65.9519 123.401 63.7969 122.474 63.1968 121.028C61.3692 116.664 65.8155 114.754 65.8155 114.754C65.8155 114.754 64.8335 114.154 64.2606 113.609C63.7424 113.09 63.1968 112.054 63.0332 112.436C62.3512 114.1 61.9966 118.164 60.169 119.992C57.6594 122.528 52.9131 121.683 50.1035 120.21C47.0211 118.573 50.3217 114.727 50.3217 114.727C50.3217 114.727 48.6578 115.709 47.3212 113.69C46.1209 111.835 45.0026 108.671 45.3026 104.771C45.6299 100.324 50.5945 96.0144 50.5945 96.0144C50.5945 96.0144 49.7216 89.4405 52.5858 82.7029C55.1772 76.5654 62.1603 71.6281 62.1603 71.6281C62.1603 71.6281 56.2955 65.136 58.4778 59.2986C59.8962 55.4797 60.469 55.5069 60.9328 55.3433C62.5694 54.7159 64.1515 54.0339 65.3245 52.7519C71.1892 46.4235 78.6633 47.6237 78.6633 47.6237C78.6633 47.6237 82.2094 36.849 85.4827 38.9493C86.492 39.604 90.12 47.6782 90.12 47.6782C90.12 47.6782 93.9934 45.4142 94.4298 46.2598C96.7757 50.8152 97.0485 59.5168 96.012 64.8087C94.2662 73.5375 89.9017 78.2293 88.156 81.1753C87.7468 81.8572 92.8477 84.0122 96.0665 92.932C99.0398 101.088 96.3938 107.935 96.8576 108.699C96.9394 108.835 96.9667 108.889 96.9667 108.889C96.9667 108.889 100.376 109.162 107.223 104.934C110.878 102.67 115.215 100.133 120.153 100.079C124.926 99.9969 125.172 105.589 121.571 106.462V106.462Z"/></g><defs><clipPath id="clip0_781_8224"><rect width="141.299" height="141.299" fill="#fff" transform="translate(9.35059 10.3896)"/></clipPath></defs></svg>