<svg xmlns="http://www.w3.org/2000/svg" width="160" height="160" fill="none" viewBox="0 0 160 160"><rect width="160" height="160" fill="#5596EA" rx="20"/><path fill="#FDBD39" d="M40.0945 96.5864L34.0594 98.7914L33.7383 116.743L54.6286 109.112C47.4574 106.71 42.2277 102.478 40.0945 96.5864"/><path fill="#F69833" d="M43.2536 77.5992L22.3105 85.2497L34.0595 98.7963L40.0946 96.5912C37.9663 90.7191 39.2797 84.0896 43.2536 77.5992"/><path fill="#FECF33" d="M78.4912 51.6899C51.8247 61.4304 34.6302 81.5346 40.0949 96.5863L136.661 61.3106C131.196 46.2589 105.158 41.9495 78.4912 51.6899"/><path fill="#EE6723" d="M98.2596 106.212C124.926 96.4713 142.149 76.4583 136.656 61.3154L40.0898 96.5864C45.5833 111.734 71.5931 115.952 98.2596 106.212"/><path fill="#F69833" d="M136.656 61.3105L40.0947 96.5863C41.9834 101.802 49.1977 104.371 59.3121 104.371C69.1772 104.371 81.8034 101.931 94.9665 97.1232C121.633 87.3827 140.39 71.6071 136.656 61.3105"/><path fill="#FDBD39" d="M117.439 53.5307C107.578 53.5307 94.9474 55.9706 81.7843 60.7785C55.1178 70.519 36.3606 86.2898 40.0948 96.5864L136.661 61.3106C134.767 56.0953 127.558 53.5307 117.439 53.5307"/><path fill="#EE6723" fill-rule="evenodd" d="M99.6451 110.071C105.071 115.133 109.261 117.697 112.104 117.697C112.856 117.716 113.594 117.501 114.213 117.079C117.707 114.625 115.042 106.327 112.195 99.7981L111.969 99.2899L111.485 99.5632C111.121 99.7741 110.728 99.9898 110.325 100.21L109.922 100.431L110.109 100.853C114.126 110.066 114.126 114.337 112.904 115.195C112.693 115.344 112.415 115.415 112.07 115.415C111.068 115.415 108.005 114.73 101.208 108.388C94.8995 102.506 87.6612 93.8684 80.816 84.056C73.9756 74.2484 68.3624 64.4648 65.0117 56.5075C61.4069 47.951 61.4836 43.9628 62.6437 43.1479C62.8402 43.0089 63.1134 42.9418 63.4586 42.9418C64.6665 42.9418 68.3768 43.8573 76.8134 52.3563L77.5804 53.128L77.6667 52.0399C77.7098 51.4887 77.7577 50.9326 77.8105 50.3766L77.8344 50.1369L77.6619 49.9691C69.834 42.2611 65.5965 40.6456 63.425 40.6456C62.6772 40.6265 61.9438 40.8422 61.3254 41.264C58.6554 43.1431 59.1875 48.5694 62.9025 57.3991C66.3155 65.505 72.0103 75.4372 78.9417 85.3743C85.878 95.3113 93.2265 104.083 99.6451 110.071Z" clip-rule="evenodd"/><path fill="#EE6723" d="M98.9068 105.934L98.8684 106.432C98.1925 114.773 96.4189 124.801 91.7883 125.209C91.6925 125.218 91.5966 125.218 91.5055 125.218C88.361 125.218 85.3842 120.712 82.6662 111.83C80.0873 103.422 78.0884 92.138 77.0386 80.0535C75.984 67.9689 75.9984 56.5076 77.0817 47.7785C78.261 38.2681 80.5043 33.302 83.7544 33.0144C83.8502 33.0048 83.9509 33 84.0468 33C86.3285 33 89.7655 35.5837 93.2839 47.6155L90.9878 48.0565C89.8134 44.0395 88.5335 40.7703 87.2632 38.5174C86.0888 36.4418 84.9432 35.2961 84.0468 35.2961C84.018 35.2961 83.9892 35.2961 83.9557 35.3009C82.5464 35.4255 80.4947 38.8385 79.3539 48.0613C78.2897 56.6322 78.2753 67.9258 79.3155 79.8522C80.3557 91.7833 82.3211 102.9 84.8521 111.154C85.9834 114.85 87.2249 117.899 88.4472 119.965C89.5689 121.872 90.6571 122.922 91.5055 122.922C91.5343 122.922 91.5631 122.922 91.5918 122.917C92.9388 122.802 95.4794 119.246 96.5483 106.739L98.9068 105.934Z"/></svg>