<svg width="60" height="60" viewBox="0 0 60 60" fill="none" xmlns="http://www.w3.org/2000/svg">
<rect width="60" height="60" rx="10" fill="#5596EA"/>
<path d="M15.0354 36.2207L12.7723 37.0476L12.6519 43.7795L20.4857 40.9178C17.7965 40.0172 15.8354 38.4299 15.0354 36.2207" fill="#FDBD39"/>
<path d="M16.2201 29.0996L8.36646 31.9685L12.7723 37.0485L15.0355 36.2216C14.2374 34.0196 14.7299 31.5335 16.2201 29.0996" fill="#F69833"/>
<path d="M29.4342 19.384C19.4343 23.0367 12.9863 30.5758 15.0356 36.2202L51.2478 22.9918C49.1986 17.3474 39.4341 15.7314 29.4342 19.384" fill="#FECF33"/>
<path d="M36.8473 39.8303C46.8473 36.1776 53.306 28.6727 51.246 22.9941L15.0337 36.2207C17.0937 41.9011 26.8474 43.483 36.8473 39.8303" fill="#EE6723"/>
<path d="M51.2461 22.9922L15.0356 36.2206C15.7439 38.1764 18.4493 39.1399 22.2421 39.1399C25.9416 39.1399 30.6764 38.2249 35.6126 36.4219C45.6125 32.7692 52.6464 26.8534 51.2461 22.9922" fill="#F69833"/>
<path d="M44.0395 20.0742C40.3419 20.0742 35.6053 20.9892 30.6691 22.7922C20.6692 26.4448 13.6352 32.3589 15.0355 36.2201L51.2478 22.9917C50.5378 21.0359 47.8342 20.0742 44.0395 20.0742" fill="#FDBD39"/>
<path fill-rule="evenodd" clip-rule="evenodd" d="M37.3669 41.277C39.4018 43.1752 40.9728 44.1369 42.0388 44.1369C42.321 44.1441 42.5979 44.0632 42.8297 43.9051C44.1402 42.9847 43.1407 39.8731 42.073 37.4248L41.9885 37.2342L41.8069 37.3367C41.6703 37.4158 41.5229 37.4967 41.3719 37.5794L41.2209 37.6621L41.291 37.8202C42.7974 41.2752 42.7974 42.8768 42.339 43.1986C42.2599 43.2543 42.1557 43.2813 42.0262 43.2813C41.6505 43.2813 40.5019 43.0242 37.9529 40.646C35.5873 38.4404 32.8729 35.2012 30.306 31.5215C27.7409 27.8437 25.6359 24.1748 24.3794 21.1908C23.0276 17.9821 23.0564 16.4866 23.4914 16.181C23.5651 16.1288 23.6675 16.1037 23.797 16.1037C24.25 16.1037 25.6413 16.447 28.805 19.6341L29.0926 19.9235L29.125 19.5155C29.1412 19.3088 29.1591 19.1002 29.1789 18.8917L29.1879 18.8018L29.1232 18.7389C26.1877 15.8484 24.5987 15.2426 23.7844 15.2426C23.504 15.2354 23.2289 15.3163 22.997 15.4745C21.9958 16.1792 22.1953 18.214 23.5884 21.5252C24.8683 24.5649 27.0038 28.2895 29.6032 32.0159C32.2042 35.7422 34.9599 39.0318 37.3669 41.277Z" fill="#EE6723"/>
<path d="M37.0901 39.7252L37.0757 39.9121C36.8223 43.0399 36.1572 46.8005 34.4207 46.9533C34.3847 46.9569 34.3488 46.9569 34.3146 46.9569C33.1354 46.9569 32.0191 45.2671 30.9999 41.9362C30.0328 38.7833 29.2832 34.5518 28.8895 30.0201C28.4941 25.4884 28.4995 21.1903 28.9057 17.9169C29.3479 14.3505 30.1892 12.4882 31.4079 12.3804C31.4439 12.3768 31.4816 12.375 31.5176 12.375C32.3732 12.375 33.6621 13.3439 34.9815 17.8558L34.1205 18.0212C33.6801 16.5148 33.2001 15.2889 32.7238 14.444C32.2834 13.6657 31.8537 13.236 31.5176 13.236C31.5068 13.236 31.496 13.236 31.4834 13.2378C30.955 13.2846 30.1856 14.5645 29.7578 18.023C29.3587 21.2371 29.3533 25.4722 29.7434 29.9446C30.1335 34.4187 30.8705 38.5873 31.8196 41.6828C32.2438 43.0687 32.7094 44.212 33.1678 44.9867C33.5884 45.7022 33.9965 46.0958 34.3146 46.0958C34.3254 46.0958 34.3362 46.0958 34.347 46.094C34.8521 46.0509 35.8048 44.7171 36.2057 40.0272L37.0901 39.7252Z" fill="#EE6723"/>
</svg>
