<svg width="81" height="80" viewBox="0 0 81 80" fill="none" xmlns="http://www.w3.org/2000/svg">
<rect x="0.998047" width="79.9995" height="79.9995" rx="10.5893" fill="#5596EA"/>
<path d="M21.0463 48.292L18.0287 49.3945L17.8682 58.3704L28.3132 54.5547C24.7277 53.3539 22.1128 51.2376 21.0463 48.292" fill="#FDBD39"/>
<path d="M22.6257 38.7988L12.1543 42.6241L18.0288 49.3973L21.0463 48.2948C19.9821 45.3588 20.6388 42.044 22.6257 38.7988" fill="#F69833"/>
<path d="M40.2445 25.8441C26.9113 30.7143 18.3142 40.7663 21.0465 48.2921L69.3292 30.6544C66.5969 23.1285 53.5777 20.9739 40.2445 25.8441" fill="#FECF33"/>
<path d="M50.1286 53.1053C63.4618 48.2351 72.0734 38.2286 69.3267 30.6572L21.0439 48.2926C23.7906 55.8663 36.7955 57.9755 50.1286 53.1053" fill="#EE6723"/>
<path d="M69.3262 30.6543L21.0459 48.2921C21.9902 50.8997 25.5973 52.1844 30.6545 52.1844C35.587 52.1844 41.9001 50.9644 48.4816 48.5605C61.8148 43.6903 71.1933 35.8025 69.3262 30.6543" fill="#F69833"/>
<path d="M59.7181 26.7646C54.788 26.7646 48.4725 27.9846 41.891 30.3885C28.5579 35.2588 19.1793 43.1441 21.0464 48.2923L69.3291 30.6546C68.3824 28.0469 64.7777 26.7646 59.7181 26.7646" fill="#FDBD39"/>
<path fill-rule="evenodd" clip-rule="evenodd" d="M50.8205 55.0332C53.5336 57.5642 55.6284 58.8464 57.0496 58.8464C57.4259 58.856 57.795 58.7481 58.1042 58.5372C59.8514 57.3101 58.5189 53.1613 57.0952 49.8969L56.9825 49.6429L56.7405 49.7795C56.5583 49.8849 56.3618 49.9928 56.1604 50.103L55.9591 50.2133L56.0526 50.4242C58.0611 55.0308 58.0611 57.1663 57.4499 57.5953C57.3444 57.6696 57.2054 57.7056 57.0329 57.7056C56.5319 57.7056 55.0004 57.3628 51.6018 54.1919C48.4477 51.2511 44.8286 46.9321 41.406 42.026C37.9858 37.1222 35.1792 32.2304 33.5039 28.2518C31.7015 23.9736 31.7399 21.9795 32.3199 21.572C32.4181 21.5025 32.5548 21.4689 32.7273 21.4689C33.3313 21.4689 35.1864 21.9267 39.4047 26.1762L39.7882 26.5621L39.8313 26.018C39.8529 25.7424 39.8769 25.4643 39.9032 25.1863L39.9152 25.0665L39.8289 24.9826C35.915 21.1286 33.7963 20.3209 32.7105 20.3209C32.3366 20.3113 31.9699 20.4192 31.6608 20.6301C30.3258 21.5696 30.5918 24.2827 32.4493 28.6976C34.1558 32.7505 37.0031 37.7166 40.4689 42.6851C43.937 47.6535 47.6112 52.0396 50.8205 55.0332Z" fill="#EE6723"/>
<path d="M50.4511 52.9657L50.4319 53.215C50.094 57.3854 49.2072 62.3994 46.8919 62.6031C46.844 62.6079 46.7961 62.6079 46.7505 62.6079C45.1782 62.6079 43.6899 60.3549 42.3309 55.9137C41.0414 51.7098 40.042 46.0679 39.5171 40.0256C38.9898 33.9834 38.997 28.2527 39.5387 23.8882C40.1283 19.1331 41.25 16.65 42.875 16.5062C42.9229 16.5014 42.9732 16.499 43.0212 16.499C44.162 16.499 45.8805 17.7909 47.6397 23.8067L46.4917 24.0272C45.9045 22.0188 45.2645 20.3842 44.6294 19.2577C44.0422 18.2199 43.4694 17.6471 43.0212 17.6471C43.0068 17.6471 42.9924 17.6471 42.9756 17.6495C42.271 17.7118 41.2452 19.4183 40.6747 24.0296C40.1427 28.315 40.1355 33.9618 40.6556 39.925C41.1757 45.8905 42.1583 51.4486 43.4238 55.5758C43.9895 57.4237 44.6102 58.948 45.2214 59.981C45.7822 60.935 46.3263 61.4598 46.7505 61.4598C46.7649 61.4598 46.7793 61.4598 46.7937 61.4574C47.4672 61.3999 48.7374 59.6215 49.2719 53.3684L50.4511 52.9657Z" fill="#EE6723"/>
</svg>
