<svg width="161" height="160" viewBox="0 0 161 160" fill="none" xmlns="http://www.w3.org/2000/svg">
<rect x="0.25" width="160" height="160" rx="20" fill="#5596EA"/>
<path d="M40.3445 96.5864L34.3094 98.7914L33.9883 116.743L54.8786 109.112C47.7074 106.71 42.4777 102.478 40.3445 96.5864" fill="#FDBD39"/>
<path d="M43.5036 77.5992L22.5605 85.2497L34.3095 98.7963L40.3446 96.5912C38.2163 90.7191 39.5297 84.0896 43.5036 77.5992" fill="#F69833"/>
<path d="M78.7412 51.6899C52.0747 61.4304 34.8802 81.5346 40.3449 96.5863L136.911 61.3106C131.446 46.2589 105.408 41.9495 78.7412 51.6899" fill="#FECF33"/>
<path d="M98.5096 106.212C125.176 96.4713 142.399 76.4583 136.906 61.3154L40.3398 96.5864C45.8333 111.734 71.8431 115.952 98.5096 106.212" fill="#EE6723"/>
<path d="M136.906 61.3105L40.3447 96.5863C42.2334 101.802 49.4477 104.371 59.5621 104.371C69.4272 104.371 82.0534 101.931 95.2165 97.1232C121.883 87.3827 140.64 71.6071 136.906 61.3105" fill="#F69833"/>
<path d="M117.689 53.5307C107.828 53.5307 95.1974 55.9706 82.0343 60.7785C55.3678 70.519 36.6106 86.2898 40.3448 96.5864L136.911 61.3106C135.017 56.0953 127.808 53.5307 117.689 53.5307" fill="#FDBD39"/>
<path fill-rule="evenodd" clip-rule="evenodd" d="M99.8951 110.071C105.321 115.133 109.511 117.697 112.354 117.697C113.106 117.716 113.844 117.501 114.463 117.079C117.957 114.625 115.292 106.327 112.445 99.7981L112.219 99.2899L111.735 99.5632C111.371 99.7741 110.978 99.9898 110.575 100.21L110.172 100.431L110.359 100.853C114.376 110.066 114.376 114.337 113.154 115.195C112.943 115.344 112.665 115.415 112.32 115.415C111.318 115.415 108.255 114.73 101.458 108.388C95.1495 102.506 87.9112 93.8684 81.066 84.056C74.2256 74.2484 68.6124 64.4648 65.2617 56.5075C61.6569 47.951 61.7336 43.9628 62.8937 43.1479C63.0902 43.0089 63.3634 42.9418 63.7086 42.9418C64.9165 42.9418 68.6268 43.8573 77.0634 52.3563L77.8304 53.128L77.9167 52.0399C77.9598 51.4887 78.0077 50.9326 78.0605 50.3766L78.0844 50.1369L77.9119 49.9691C70.084 42.2611 65.8465 40.6456 63.675 40.6456C62.9272 40.6265 62.1938 40.8422 61.5754 41.264C58.9054 43.1431 59.4375 48.5694 63.1525 57.3991C66.5655 65.505 72.2603 75.4372 79.1917 85.3743C86.128 95.3113 93.4765 104.083 99.8951 110.071Z" fill="#EE6723"/>
<path d="M99.1573 105.934L99.1189 106.432C98.443 114.773 96.6694 124.801 92.0388 125.209C91.943 125.218 91.8471 125.218 91.756 125.218C88.6114 125.218 85.6347 120.712 82.9167 111.83C80.3378 103.422 78.3389 92.138 77.2891 80.0535C76.2345 67.9689 76.2489 56.5076 77.3322 47.7785C78.5114 38.2681 80.7548 33.302 84.0048 33.0144C84.1007 33.0048 84.2014 33 84.2973 33C86.579 33 90.016 35.5837 93.5344 47.6155L91.2383 48.0565C90.0639 44.0395 88.784 40.7703 87.5137 38.5174C86.3393 36.4418 85.1936 35.2961 84.2973 35.2961C84.2685 35.2961 84.2397 35.2961 84.2062 35.3009C82.7969 35.4255 80.7452 38.8385 79.6044 48.0613C78.5402 56.6322 78.5258 67.9258 79.566 79.8522C80.6062 91.7833 82.5716 102.9 85.1026 111.154C86.2338 114.85 87.4754 117.899 88.6977 119.965C89.8194 121.872 90.9076 122.922 91.756 122.922C91.7848 122.922 91.8135 122.922 91.8423 122.917C93.1893 122.802 95.7299 119.246 96.7988 106.739L99.1573 105.934Z" fill="#EE6723"/>
</svg>
