<svg width="80" height="80" viewBox="0 0 80 80" fill="none" xmlns="http://www.w3.org/2000/svg">
<rect x="-0.000976562" width="80.0003" height="80.0003" rx="10.5894" fill="#80D8A2"/>
<mask id="mask0_5169_71965" style="mask-type:alpha" maskUnits="userSpaceOnUse" x="23" y="16" width="41" height="48">
<path d="M27.3838 16.3096L30.8713 23.7404H23.8984L27.3838 16.3096ZM23.8984 24.9144H30.8713V58.1619H23.8984V24.9144ZM23.8984 59.3359H30.8713V63.3781H23.8984V59.3359ZM36.3047 23.7211L41.1339 18.8962L63.332 41.1114L41.0221 63.9565L36.2015 59.3767L53.7252 41.1436L36.3047 23.7232V23.7211Z" fill="white"/>
</mask>
<g mask="url(#mask0_5169_71965)">
<path d="M27.3838 16.3096L30.8713 23.7404H23.8984L27.3838 16.3096ZM23.8984 24.9144H30.8713V58.1619H23.8984V24.9144ZM23.8984 59.3359H30.8713V63.3781H23.8984V59.3359ZM36.3047 23.7211L41.1339 18.8962L63.332 41.1114L41.0221 63.9565L36.2015 59.3767L53.7252 41.1436L36.3047 23.7232V23.7211Z" fill="white"/>
<path fill-rule="evenodd" clip-rule="evenodd" d="M23.8984 16.3096H63.3986V63.9586H23.8984V16.3096Z" fill="url(#paint0_linear_5169_71965)"/>
</g>
<defs>
<linearGradient id="paint0_linear_5169_71965" x1="30.0755" y1="63.9587" x2="64.5445" y2="22.3804" gradientUnits="userSpaceOnUse">
<stop stop-color="#EC407A"/>
<stop offset="1" stop-color="#FFA000"/>
</linearGradient>
</defs>
</svg>
