<svg xmlns="http://www.w3.org/2000/svg" width="80" height="80" fill="none" viewBox="0 0 80 80"><rect width="80" height="80" x="-.001" fill="#80D8A2" rx="10.589"/><mask id="mask0_5169_71965" width="41" height="48" x="23" y="16" maskUnits="userSpaceOnUse" style="mask-type:alpha"><path fill="#fff" d="M27.3838 16.3096L30.8713 23.7404H23.8984L27.3838 16.3096ZM23.8984 24.9144H30.8713V58.1619H23.8984V24.9144ZM23.8984 59.3359H30.8713V63.3781H23.8984V59.3359ZM36.3047 23.7211L41.1339 18.8962L63.332 41.1114L41.0221 63.9565L36.2015 59.3767L53.7252 41.1436L36.3047 23.7232V23.7211Z"/></mask><g mask="url(#mask0_5169_71965)"><path fill="#fff" d="M27.3838 16.3096L30.8713 23.7404H23.8984L27.3838 16.3096ZM23.8984 24.9144H30.8713V58.1619H23.8984V24.9144ZM23.8984 59.3359H30.8713V63.3781H23.8984V59.3359ZM36.3047 23.7211L41.1339 18.8962L63.332 41.1114L41.0221 63.9565L36.2015 59.3767L53.7252 41.1436L36.3047 23.7232V23.7211Z"/><path fill="url(#paint0_linear_5169_71965)" fill-rule="evenodd" d="M23.8984 16.3096H63.3986V63.9586H23.8984V16.3096Z" clip-rule="evenodd"/></g><defs><linearGradient id="paint0_linear_5169_71965" x1="30.076" x2="64.544" y1="63.959" y2="22.38" gradientUnits="userSpaceOnUse"><stop stop-color="#EC407A"/><stop offset="1" stop-color="#FFA000"/></linearGradient></defs></svg>