<svg width="180" height="180" fill="none" xmlns="http://www.w3.org/2000/svg"><rect x="31" y="76" width="118" height="30" rx="15" fill="#EEE"/><path d="M33 91a13 13 0 0 1 13-13h29a13 13 0 0 1 0 26H46a13 13 0 0 1-13-13Z" fill="#EEE"/><path d="M50.15 95v-7.79h-3v-1.38h7.66v1.38h-2.99V95h-1.67Zm8.84-5.16-.95.09c-1.08.11-1.61.66-1.61 1.64V95H54.8v-6.36h1.55v1.12c.33-.76 1-1.18 2.04-1.25l.5-.04.1 1.37Zm6.63-1.2V95h-1.59v-.97a2.12 2.12 0 0 1-1.95 1.07c-1.56 0-2.34-.87-2.34-2.62v-3.84h1.62v3.85c0 .45.1.79.28 1 .18.22.47.33.86.33.45 0 .8-.15 1.07-.44.28-.3.42-.7.42-1.2v-3.54h1.63Zm7.26 3.47h-4.33c.06.6.23 1.03.54 1.32.3.28.73.43 1.3.43.7 0 1.34-.23 1.92-.68l.47 1.12a4.21 4.21 0 0 1-2.46.8 3.4 3.4 0 0 1-2.47-.88c-.6-.59-.9-1.4-.9-2.42 0-.65.14-1.22.4-1.73.26-.5.62-.89 1.09-1.17a3.15 3.15 0 0 1 1.61-.41c.88 0 1.56.28 2.07.84.5.57.76 1.34.76 2.33v.45Zm-2.8-2.48c-.42 0-.78.14-1.04.42-.26.27-.42.67-.49 1.2h2.94c-.01-.54-.14-.93-.39-1.2a1.28 1.28 0 0 0-1.01-.42Z" fill="#666"/><g filter="url(#a)"><path d="M88 91a13 13 0 0 1 13-13h33a13 13 0 1 1 0 26h-33a13 13 0 0 1-13-13Z" fill="#fff"/><path d="M102.99 95v-9.17h6v1.34h-4.35v2.5h4.1v1.34h-4.1V95h-1.65Zm9.76-6.51c.9 0 1.55.21 1.99.65.43.43.65 1.1.65 2V95h-1.55v-.97c-.15.33-.38.6-.7.79a2.55 2.55 0 0 1-2.25.03 2.05 2.05 0 0 1-.82-.72c-.2-.3-.3-.64-.3-1.02 0-.46.12-.83.35-1.1.24-.27.63-.46 1.17-.59a10.6 10.6 0 0 1 2.22-.18h.33v-.3c0-.43-.1-.74-.29-.93-.18-.2-.49-.29-.92-.29-.34 0-.7.06-1.06.18-.37.12-.73.28-1.08.48l-.46-1.11c.36-.23.78-.41 1.29-.56.5-.15.98-.22 1.43-.22Zm-.38 5.44c.43 0 .78-.14 1.05-.43.28-.29.42-.67.42-1.13v-.27h-.23c-.58 0-1.03.03-1.36.08-.32.05-.55.14-.69.27a.7.7 0 0 0-.2.53c0 .28.1.51.28.7.2.17.44.25.73.25Zm4.67 1.07v-9.17h1.62V95h-1.62Zm5.64.1c-.56 0-1.08-.07-1.56-.2a3.52 3.52 0 0 1-1.2-.6l.46-1.13c.67.5 1.45.74 2.33.74.37 0 .65-.06.84-.18.2-.13.3-.3.3-.52 0-.2-.07-.34-.2-.45a2 2 0 0 0-.72-.28l-1.04-.24a2.56 2.56 0 0 1-1.32-.63c-.28-.3-.43-.68-.43-1.15 0-.39.11-.73.33-1.02.22-.3.53-.54.92-.7a4.08 4.08 0 0 1 3.8.55l-.46 1.1a3.36 3.36 0 0 0-1.97-.72c-.36 0-.64.06-.84.2-.2.13-.3.3-.3.54 0 .17.07.32.19.43.13.11.33.2.6.26l1.09.25c.63.14 1.1.36 1.39.66.3.3.44.68.44 1.17 0 .59-.24 1.06-.71 1.4-.48.35-1.13.52-1.94.52Zm9.55-2.99h-4.33c.05.6.23 1.03.53 1.32.3.28.74.43 1.3.43.7 0 1.34-.23 1.92-.68l.47 1.12a4.21 4.21 0 0 1-2.46.8 3.4 3.4 0 0 1-2.47-.88c-.6-.59-.9-1.4-.9-2.42 0-.65.14-1.22.4-1.73.26-.5.62-.89 1.09-1.17a3.14 3.14 0 0 1 1.61-.41c.88 0 1.57.28 2.07.84.51.57.77 1.34.77 2.33v.45Zm-2.8-2.48c-.43 0-.78.14-1.05.42-.26.27-.42.67-.48 1.2h2.94c-.02-.54-.15-.93-.4-1.2a1.28 1.28 0 0 0-1-.42Z" fill="#333"/></g><rect x="31" y="119" width="118" height="30" rx="15" fill="#EEE"/><path d="M33 134a13 13 0 0 1 13-13h29a13 13 0 1 1 0 26H46a13 13 0 0 1-13-13Z" fill="#EEE"/><path opacity=".5" d="M50.15 138v-7.79h-3v-1.38h7.66v1.38h-2.99V138h-1.67Zm8.84-5.16-.95.09c-1.08.11-1.61.66-1.61 1.64V138H54.8v-6.36h1.55v1.12c.33-.76 1-1.18 2.04-1.25l.5-.04.1 1.37Zm6.63-1.2V138h-1.59v-.97a2.12 2.12 0 0 1-1.95 1.07c-1.56 0-2.34-.87-2.34-2.62v-3.84h1.62v3.85c0 .45.1.78.28 1 .18.22.47.33.86.33.45 0 .8-.15 1.07-.44.28-.3.42-.7.42-1.2v-3.54h1.63Zm7.26 3.47h-4.33c.06.6.23 1.03.54 1.32.3.28.73.43 1.3.43.7 0 1.34-.23 1.92-.68l.47 1.12a4.22 4.22 0 0 1-2.46.8 3.4 3.4 0 0 1-2.47-.88c-.6-.59-.9-1.4-.9-2.42 0-.65.14-1.22.4-1.73.26-.5.62-.89 1.09-1.17a3.15 3.15 0 0 1 1.61-.41c.88 0 1.56.28 2.07.84.5.56.76 1.34.76 2.33v.45Zm-2.8-2.48c-.42 0-.78.14-1.04.42-.26.27-.42.67-.49 1.2h2.94c-.01-.54-.14-.93-.39-1.2a1.28 1.28 0 0 0-1.01-.42Z" fill="#666"/><g opacity=".5" filter="url(#b)"><path d="M88 134a13 13 0 0 1 13-13h33a13 13 0 1 1 0 26h-33a13 13 0 0 1-13-13Z" fill="#fff"/><path d="M102.99 138v-9.16h6v1.33h-4.35v2.5h4.1v1.34h-4.1V138h-1.65Zm9.76-6.51c.9 0 1.55.21 1.99.65.43.43.65 1.1.65 2V138h-1.55v-.97c-.15.33-.38.6-.7.79-.31.19-.68.28-1.1.28-.42 0-.8-.08-1.15-.26a2.05 2.05 0 0 1-.82-.71c-.2-.3-.3-.64-.3-1.01 0-.47.12-.84.35-1.11.24-.27.63-.46 1.17-.58.54-.13 1.28-.19 2.22-.19h.33v-.3c0-.43-.1-.74-.29-.93-.18-.2-.49-.29-.92-.29-.34 0-.7.06-1.06.18-.37.12-.73.28-1.08.48l-.46-1.11c.36-.23.78-.42 1.29-.56.5-.15.98-.22 1.43-.22Zm-.38 5.44c.43 0 .78-.14 1.05-.43.28-.29.42-.67.42-1.13v-.27h-.23c-.58 0-1.03.03-1.36.08-.32.05-.55.14-.69.27a.7.7 0 0 0-.2.54c0 .27.1.5.28.68.2.18.44.26.73.26Zm4.67 1.07v-9.16h1.62V138h-1.62Zm5.64.1c-.56 0-1.08-.06-1.56-.2a3.52 3.52 0 0 1-1.2-.6l.46-1.13c.67.5 1.45.74 2.33.74.37 0 .65-.06.84-.18.2-.13.3-.3.3-.52 0-.2-.07-.34-.2-.45a2 2 0 0 0-.72-.28l-1.04-.24a2.56 2.56 0 0 1-1.32-.63c-.28-.3-.43-.68-.43-1.15 0-.39.11-.73.33-1.02.22-.3.53-.54.92-.7a4.07 4.07 0 0 1 3.8.55l-.46 1.1a3.36 3.36 0 0 0-1.97-.72c-.36 0-.64.07-.84.2-.2.13-.3.3-.3.54 0 .17.07.32.19.43.13.11.33.2.6.26l1.09.25c.63.14 1.1.36 1.39.66.3.3.44.69.44 1.17 0 .59-.24 1.06-.71 1.4-.48.35-1.13.52-1.94.52Zm9.55-2.99h-4.33c.05.6.23 1.03.53 1.32.3.28.74.43 1.3.43.7 0 1.34-.23 1.92-.68l.47 1.12a4.22 4.22 0 0 1-2.46.8 3.4 3.4 0 0 1-2.47-.88c-.6-.59-.9-1.4-.9-2.42 0-.65.14-1.22.4-1.73.26-.5.62-.89 1.09-1.17a3.15 3.15 0 0 1 1.61-.41c.88 0 1.57.28 2.07.84.51.56.77 1.34.77 2.33v.45Zm-2.8-2.48c-.43 0-.78.14-1.05.42-.26.27-.42.67-.48 1.2h2.94c-.02-.54-.15-.93-.4-1.2a1.28 1.28 0 0 0-1-.42Z" fill="#333"/></g><rect x="31" y="33" width="118" height="30" rx="15" fill="#66BF3C"/><g filter="url(#c)"><path d="M33 48a13 13 0 0 1 13-13h29a13 13 0 0 1 0 26H46a13 13 0 0 1-13-13Z" fill="#fff"/><path d="M50.15 52v-7.79h-3v-1.38h7.66v1.38h-2.99V52h-1.67Zm8.84-5.16-.95.09c-1.08.11-1.61.66-1.61 1.64V52H54.8v-6.36h1.55v1.12c.33-.76 1-1.18 2.04-1.25l.5-.04.1 1.37Zm6.63-1.2V52h-1.59v-.98a2.12 2.12 0 0 1-1.95 1.08c-1.56 0-2.34-.87-2.34-2.62v-3.84h1.62v3.85c0 .45.1.79.28 1 .18.22.47.33.86.33.45 0 .8-.15 1.07-.45.28-.3.42-.7.42-1.2v-3.53h1.63Zm7.26 3.47h-4.33c.06.6.23 1.03.54 1.32.3.28.73.43 1.3.43.7 0 1.34-.23 1.92-.68l.47 1.12a4.21 4.21 0 0 1-2.46.8 3.4 3.4 0 0 1-2.47-.88c-.6-.59-.9-1.4-.9-2.42 0-.65.14-1.22.4-1.73.26-.5.62-.89 1.09-1.17a3.15 3.15 0 0 1 1.61-.41c.88 0 1.56.28 2.07.84.5.57.76 1.34.76 2.33v.45Zm-2.8-2.48c-.42 0-.78.14-1.04.42-.26.27-.42.67-.49 1.2h2.94c-.01-.54-.14-.93-.39-1.2a1.28 1.28 0 0 0-1.01-.42Z" fill="#333"/></g><path d="M88 48a13 13 0 0 1 13-13h33a13 13 0 1 1 0 26h-33a13 13 0 0 1-13-13Z" fill="#66BF3C"/><path d="M102.99 52v-9.16h6v1.33h-4.35v2.5h4.1v1.34h-4.1V52h-1.65Zm9.76-6.51c.9 0 1.55.21 1.99.65.43.43.65 1.1.65 2V52h-1.55v-.98c-.15.34-.38.6-.7.8a2.55 2.55 0 0 1-2.25.03 2.05 2.05 0 0 1-.82-.72c-.2-.3-.3-.64-.3-1.02 0-.46.12-.83.35-1.1.24-.27.63-.46 1.17-.59a10.6 10.6 0 0 1 2.22-.18h.33v-.3c0-.43-.1-.74-.29-.93-.18-.2-.49-.29-.92-.29-.34 0-.7.06-1.06.18-.37.12-.73.28-1.08.48l-.46-1.11c.36-.23.78-.41 1.29-.56.5-.15.98-.22 1.43-.22Zm-.38 5.44c.43 0 .78-.14 1.05-.42.28-.3.42-.68.42-1.14v-.27h-.23c-.58 0-1.03.03-1.36.08-.32.05-.55.14-.69.27a.7.7 0 0 0-.2.53c0 .28.1.51.28.7.2.17.44.25.73.25Zm4.67 1.07v-9.16h1.62V52h-1.62Zm5.64.1c-.56 0-1.08-.07-1.56-.2a3.52 3.52 0 0 1-1.2-.6l.46-1.13c.67.5 1.45.74 2.33.74.37 0 .65-.06.84-.18.2-.13.3-.3.3-.52 0-.2-.07-.34-.2-.45a2 2 0 0 0-.72-.28l-1.04-.24a2.56 2.56 0 0 1-1.32-.63c-.28-.3-.43-.68-.43-1.15 0-.39.11-.73.33-1.02.22-.3.53-.54.92-.7a4.08 4.08 0 0 1 3.8.55l-.46 1.1a3.36 3.36 0 0 0-1.97-.72c-.36 0-.64.06-.84.2-.2.13-.3.3-.3.54 0 .17.07.32.19.43.13.11.33.2.6.26l1.09.25c.63.14 1.1.36 1.39.66.3.3.44.68.44 1.17 0 .59-.24 1.06-.71 1.4-.48.35-1.13.52-1.94.52Zm9.55-2.99h-4.33c.05.6.23 1.03.53 1.32.3.28.74.43 1.3.43.7 0 1.34-.23 1.92-.68l.47 1.12a4.21 4.21 0 0 1-2.46.8 3.4 3.4 0 0 1-2.47-.88c-.6-.59-.9-1.4-.9-2.42 0-.65.14-1.22.4-1.73.26-.5.62-.89 1.09-1.17a3.14 3.14 0 0 1 1.61-.41c.88 0 1.57.28 2.07.84.51.57.77 1.34.77 2.33v.45Zm-2.8-2.48c-.43 0-.78.14-1.05.42-.26.27-.42.67-.48 1.2h2.94c-.02-.54-.15-.93-.4-1.2a1.28 1.28 0 0 0-1-.42Z" fill="#000" fill-opacity=".5"/><defs><filter id="a" x="73" y="63" width="89" height="56" filterUnits="userSpaceOnUse" color-interpolation-filters="sRGB"><feFlood flood-opacity="0" result="BackgroundImageFix"/><feColorMatrix in="SourceAlpha" values="0 0 0 0 0 0 0 0 0 0 0 0 0 0 0 0 0 0 127 0" result="hardAlpha"/><feOffset dy="1"/><feGaussianBlur stdDeviation="1"/><feColorMatrix values="0 0 0 0 0 0 0 0 0 0 0 0 0 0 0 0 0 0 0.1 0"/><feBlend in2="BackgroundImageFix" result="effect1_dropShadow_3032_19269"/><feColorMatrix in="SourceAlpha" values="0 0 0 0 0 0 0 0 0 0 0 0 0 0 0 0 0 0 127 0" result="hardAlpha"/><feOffset/><feGaussianBlur stdDeviation="7.5"/><feColorMatrix values="0 0 0 0 0 0 0 0 0 0 0 0 0 0 0 0 0 0 0.05 0"/><feBlend in2="effect1_dropShadow_3032_19269" result="effect2_dropShadow_3032_19269"/><feBlend in="SourceGraphic" in2="effect2_dropShadow_3032_19269" result="shape"/></filter><filter id="b" x="73" y="106" width="89" height="56" filterUnits="userSpaceOnUse" color-interpolation-filters="sRGB"><feFlood flood-opacity="0" result="BackgroundImageFix"/><feColorMatrix in="SourceAlpha" values="0 0 0 0 0 0 0 0 0 0 0 0 0 0 0 0 0 0 127 0" result="hardAlpha"/><feOffset dy="1"/><feGaussianBlur stdDeviation="1"/><feColorMatrix values="0 0 0 0 0 0 0 0 0 0 0 0 0 0 0 0 0 0 0.1 0"/><feBlend in2="BackgroundImageFix" result="effect1_dropShadow_3032_19269"/><feColorMatrix in="SourceAlpha" values="0 0 0 0 0 0 0 0 0 0 0 0 0 0 0 0 0 0 127 0" result="hardAlpha"/><feOffset/><feGaussianBlur stdDeviation="7.5"/><feColorMatrix values="0 0 0 0 0 0 0 0 0 0 0 0 0 0 0 0 0 0 0.05 0"/><feBlend in2="effect1_dropShadow_3032_19269" result="effect2_dropShadow_3032_19269"/><feBlend in="SourceGraphic" in2="effect2_dropShadow_3032_19269" result="shape"/></filter><filter id="c" x="18" y="20" width="85" height="56" filterUnits="userSpaceOnUse" color-interpolation-filters="sRGB"><feFlood flood-opacity="0" result="BackgroundImageFix"/><feColorMatrix in="SourceAlpha" values="0 0 0 0 0 0 0 0 0 0 0 0 0 0 0 0 0 0 127 0" result="hardAlpha"/><feOffset dy="1"/><feGaussianBlur stdDeviation="1"/><feColorMatrix values="0 0 0 0 0 0 0 0 0 0 0 0 0 0 0 0 0 0 0.1 0"/><feBlend in2="BackgroundImageFix" result="effect1_dropShadow_3032_19269"/><feColorMatrix in="SourceAlpha" values="0 0 0 0 0 0 0 0 0 0 0 0 0 0 0 0 0 0 127 0" result="hardAlpha"/><feOffset/><feGaussianBlur stdDeviation="7.5"/><feColorMatrix values="0 0 0 0 0 0 0 0 0 0 0 0 0 0 0 0 0 0 0.05 0"/><feBlend in2="effect1_dropShadow_3032_19269" result="effect2_dropShadow_3032_19269"/><feBlend in="SourceGraphic" in2="effect2_dropShadow_3032_19269" result="shape"/></filter></defs></svg>