<svg width="180" height="180" fill="none" xmlns="http://www.w3.org/2000/svg"><path d="m16.1 32.67.35-.03-.06.9-.44.03c-.56 0-.97-.12-1.23-.35-.26-.24-.38-.61-.38-1.11v-1.14h-.65v-.93h.65v-1h1.25v1h.83v.93h-.83v1.15c0 .36.17.55.52.55ZM19.47 30.98l-.68.07c-.27.03-.46.1-.57.22a.71.71 0 0 0-.16.5v1.74H16.8v-3.47H18v.6a.91.91 0 0 1 .39-.48c.18-.11.4-.17.67-.19l.34-.03.07 1.04ZM21.26 29.96c.54 0 .95.12 1.2.38.27.25.4.64.4 1.17v2h-1.18v-.48a.82.82 0 0 1-.33.4c-.16.1-.34.14-.56.14-.24 0-.45-.05-.65-.14a1.2 1.2 0 0 1-.45-.4c-.11-.18-.17-.37-.17-.59 0-.25.07-.45.2-.6.13-.14.33-.25.61-.32.29-.06.67-.1 1.15-.1h.19v-.08c0-.17-.04-.3-.12-.36-.08-.07-.22-.1-.43-.1a3.06 3.06 0 0 0-1.14.34l-.32-.83c.2-.12.46-.23.76-.3.3-.09.58-.13.84-.13Zm-.17 2.77c.17 0 .3-.06.42-.18.1-.12.16-.27.16-.46V32h-.12c-.3 0-.51.03-.64.09-.12.05-.19.14-.19.27 0 .1.04.2.1.26.07.07.16.11.27.11ZM25.8 29.96c.42 0 .73.12.93.37.2.25.3.62.3 1.12v2.06h-1.25v-2c0-.2-.04-.36-.11-.45-.07-.1-.18-.14-.33-.14a.58.58 0 0 0-.45.18.68.68 0 0 0-.16.48v1.93h-1.26v-3.47h1.22v.47c.12-.18.28-.32.47-.41.2-.1.41-.14.65-.14ZM29.05 33.57a3.8 3.8 0 0 1-.93-.1 2.1 2.1 0 0 1-.7-.32l.3-.85a2.6 2.6 0 0 0 1.34.4c.14 0 .24-.02.32-.06.07-.04.11-.1.11-.16 0-.07-.03-.11-.08-.15a1.2 1.2 0 0 0-.33-.1l-.55-.13c-.36-.08-.61-.2-.77-.35-.15-.16-.23-.38-.23-.66 0-.23.07-.42.2-.59.13-.17.31-.3.55-.4a2.5 2.5 0 0 1 1.55-.03c.25.07.48.17.68.3l-.33.82a2.5 2.5 0 0 0-1.1-.37.65.65 0 0 0-.32.07c-.08.04-.11.1-.11.18 0 .05.02.09.07.12.04.03.13.06.24.09l.59.13c.37.08.63.2.8.37.16.17.24.4.24.68 0 .34-.14.62-.41.81-.28.2-.65.3-1.13.3ZM32.6 29.96c.55 0 .95.12 1.21.38.26.25.4.64.4 1.17v2h-1.18v-.48a.82.82 0 0 1-.33.4c-.16.1-.34.14-.56.14-.24 0-.46-.05-.65-.14a1.2 1.2 0 0 1-.46-.4c-.1-.18-.16-.37-.16-.59 0-.25.06-.45.2-.6.12-.14.33-.25.61-.32.28-.06.66-.1 1.14-.1h.2v-.08c0-.17-.05-.3-.13-.36-.08-.07-.22-.1-.42-.1a3.06 3.06 0 0 0-1.14.34l-.32-.83c.2-.12.45-.23.76-.3.3-.09.58-.13.84-.13Zm-.16 2.77c.17 0 .3-.06.41-.18.11-.12.16-.27.16-.46V32h-.1c-.3 0-.52.03-.65.09-.13.05-.2.14-.2.27 0 .1.04.2.1.26.08.07.17.11.28.11ZM36.55 33.57c-.6 0-1.06-.16-1.4-.48-.33-.32-.5-.76-.5-1.3 0-.37.09-.69.25-.96.16-.28.39-.5.68-.65a2.48 2.48 0 0 1 1.77-.11c.25.08.44.18.6.3l-.32.85c-.12-.1-.26-.17-.43-.23-.17-.06-.32-.09-.47-.09-.25 0-.45.07-.58.21-.14.15-.2.36-.2.65 0 .28.06.5.2.64.13.15.33.22.58.22a1.44 1.44 0 0 0 .9-.32l.31.85c-.16.13-.36.24-.61.31-.24.07-.5.1-.78.1ZM40.37 32.67l.35-.03-.07.9-.44.03c-.56 0-.97-.12-1.23-.35-.25-.24-.38-.61-.38-1.11v-1.14h-.65v-.93h.65v-1h1.25v1h.84v.93h-.84v1.15c0 .36.18.55.52.55ZM41.06 33.51v-3.47h1.26v3.47h-1.26Zm-.02-5.2h1.3v1.13h-1.3v-1.13ZM44.7 33.57c-.38 0-.71-.07-1-.22a1.65 1.65 0 0 1-.67-.63 1.9 1.9 0 0 1-.24-.96c0-.37.08-.69.24-.96.16-.27.38-.48.67-.62a2.2 2.2 0 0 1 1-.22c.4 0 .73.07 1.01.22.3.14.51.35.67.62.16.27.24.59.24.96 0 .36-.08.68-.24.96a1.6 1.6 0 0 1-.67.63 2.2 2.2 0 0 1-1 .22Zm0-.94c.45 0 .68-.3.68-.87 0-.59-.23-.88-.67-.88-.45 0-.67.3-.67.88 0 .58.22.87.67.87ZM49.43 29.96c.41 0 .72.12.92.37.2.25.3.62.3 1.12v2.06H49.4v-2c0-.2-.04-.36-.11-.45-.07-.1-.18-.14-.33-.14a.58.58 0 0 0-.45.18.68.68 0 0 0-.16.48v1.93h-1.26v-3.47h1.22v.47c.13-.18.28-.32.48-.41.19-.1.4-.14.64-.14ZM27.29 43.67h-2.44c.05.73.42 1.09 1.09 1.09.4 0 .75-.13 1.07-.39l.22.5c-.16.14-.36.25-.6.33-.23.08-.47.12-.71.12-.55 0-.99-.16-1.3-.48a1.76 1.76 0 0 1-.48-1.3c0-.35.07-.67.2-.94a1.56 1.56 0 0 1 1.45-.86c.47 0 .83.15 1.1.45.26.3.4.72.4 1.25v.23Zm-1.48-1.4c-.28 0-.5.08-.66.25-.16.17-.26.42-.29.74h1.81c-.01-.32-.1-.57-.24-.74a.76.76 0 0 0-.62-.26ZM29.2 45.32a2.2 2.2 0 0 1-1.44-.44l.22-.51c.35.27.76.4 1.23.4.24 0 .41-.03.53-.1.13-.09.19-.2.19-.34a.36.36 0 0 0-.13-.29 1 1 0 0 0-.42-.18l-.57-.12c-.31-.07-.54-.19-.7-.35a.84.84 0 0 1-.23-.6c0-.32.13-.57.38-.76.25-.2.58-.29.99-.29a2.04 2.04 0 0 1 1.27.45l-.22.5c-.34-.27-.69-.4-1.05-.4a.92.92 0 0 0-.51.12.4.4 0 0 0-.19.35c0 .11.04.21.11.29.08.07.2.12.38.16l.58.13c.34.08.58.2.74.36.15.15.23.35.23.6 0 .32-.13.57-.38.75-.25.18-.59.27-1.02.27ZM32.89 44.77l.31-.02-.03.54c-.12.02-.24.03-.37.03-.44 0-.78-.11-1-.33-.22-.22-.32-.54-.32-.95v-1.66h-.67v-.55h.67v-1.04h.7v1.04h.95v.55h-.94V44c0 .5.23.76.7.76ZM33.65 45.27v-3.44h.72v3.44h-.72Zm-.05-4.98h.82v.74h-.82v-.74ZM39.22 41.74c.77 0 1.16.46 1.16 1.4v2.13h-.72v-2.11c0-.3-.05-.5-.15-.64-.1-.13-.26-.2-.49-.2a.76.76 0 0 0-.61.27 1.1 1.1 0 0 0-.23.73v1.95h-.7v-2.11c0-.3-.06-.5-.16-.64-.1-.13-.27-.2-.5-.2a.77.77 0 0 0-.61.27 1.1 1.1 0 0 0-.23.73v1.95h-.71v-3.44h.7v.52c.1-.2.25-.34.44-.45.18-.1.39-.16.62-.16.53 0 .88.22 1.04.66.1-.2.26-.36.47-.48.2-.12.43-.18.68-.18ZM42.7 41.74c.46 0 .8.12 1.02.35.23.23.34.58.34 1.05v2.13h-.68v-.57a1 1 0 0 1-.4.46c-.18.1-.38.16-.62.16-.22 0-.43-.05-.62-.14-.19-.1-.34-.22-.44-.38-.1-.17-.16-.35-.16-.55 0-.25.06-.45.2-.59.12-.15.34-.25.63-.31.3-.06.72-.1 1.24-.1h.16v-.2c0-.26-.06-.45-.17-.57-.1-.12-.29-.17-.54-.17-.39 0-.78.12-1.17.36l-.2-.5c.18-.13.4-.23.66-.3.26-.09.51-.13.75-.13Zm-.21 3.05c.26 0 .47-.09.63-.26.17-.18.25-.4.25-.69v-.18h-.13c-.36 0-.65.02-.84.05a.81.81 0 0 0-.43.17c-.08.07-.12.18-.12.33 0 .16.06.3.17.42.13.1.28.16.47.16ZM46.57 44.77l.32-.02-.03.54c-.12.02-.24.03-.37.03-.45 0-.78-.11-1-.33-.22-.22-.33-.54-.33-.95v-1.66h-.67v-.55h.67v-1.04h.72v1.04h.94v.55h-.94V44c0 .5.23.76.7.76ZM50.29 43.67h-2.43c.05.73.4 1.09 1.08 1.09.4 0 .75-.13 1.07-.39l.22.5c-.16.14-.36.25-.59.33-.24.08-.48.12-.72.12-.55 0-.98-.16-1.3-.48a1.76 1.76 0 0 1-.48-1.3c0-.35.07-.67.2-.94a1.56 1.56 0 0 1 1.45-.86c.47 0 .83.15 1.1.45.26.3.4.72.4 1.25v.23Zm-1.48-1.4c-.28 0-.5.08-.66.25-.16.17-.25.42-.29.74h1.82c-.02-.32-.1-.57-.25-.74a.76.76 0 0 0-.62-.26ZM19.54 52.05v4.97h-.71v-.59c-.1.2-.25.37-.45.48-.2.1-.43.16-.69.16a1.45 1.45 0 0 1-1.34-.86 2.2 2.2 0 0 1-.19-.94c0-.35.07-.67.2-.93.13-.27.3-.48.54-.62.23-.15.5-.22.8-.22.25 0 .48.05.67.17.2.1.35.26.45.46v-2.08h.72Zm-1.68 4.46c.31 0 .55-.1.72-.32.17-.21.25-.51.25-.9 0-.4-.08-.7-.25-.9a.85.85 0 0 0-.72-.32c-.3 0-.55.1-.72.32-.17.2-.26.5-.26.88 0 .39.1.7.26.91.18.22.42.33.72.33ZM23.39 55.42h-2.44c.05.73.42 1.1 1.09 1.1.4 0 .75-.13 1.07-.4l.22.5c-.16.15-.36.25-.6.33-.23.08-.47.12-.71.12-.55 0-.99-.15-1.3-.47a1.76 1.76 0 0 1-.48-1.3c0-.36.07-.67.2-.94a1.56 1.56 0 0 1 1.45-.86c.47 0 .83.15 1.1.45.26.3.4.72.4 1.25v.22Zm-1.49-1.4c-.27 0-.49.09-.65.26-.16.17-.26.41-.29.73h1.81c-.01-.32-.1-.56-.24-.73a.76.76 0 0 0-.63-.26ZM25.3 57.07a2.2 2.2 0 0 1-1.44-.43l.22-.52c.35.27.76.41 1.23.41.23 0 .41-.04.53-.11a.38.38 0 0 0 .19-.33.36.36 0 0 0-.13-.3 1 1 0 0 0-.42-.17l-.57-.13c-.31-.07-.54-.18-.7-.34a.84.84 0 0 1-.23-.6c0-.32.13-.57.38-.76.25-.2.58-.3.99-.3a2.04 2.04 0 0 1 1.27.45l-.22.5c-.34-.27-.69-.4-1.05-.4a.92.92 0 0 0-.52.13.4.4 0 0 0-.18.34c0 .12.04.22.11.3.08.06.2.12.38.15l.58.14c.34.07.58.2.74.35.15.16.23.36.23.61 0 .31-.13.56-.38.75-.25.17-.59.26-1.02.26ZM28.9 57.07c-.35 0-.65-.07-.9-.22a1.52 1.52 0 0 1-.6-.6c-.14-.28-.2-.59-.2-.95 0-.35.06-.67.2-.94.15-.28.35-.49.61-.64a2.02 2.02 0 0 1 1.6-.1c.24.08.42.19.56.32l-.22.5a1.51 1.51 0 0 0-.96-.37c-.33 0-.6.1-.78.32-.18.21-.28.52-.28.9 0 .4.1.69.28.9.18.2.44.31.78.31.33 0 .65-.13.96-.38l.22.52c-.15.13-.34.24-.56.32-.23.08-.46.11-.7.11ZM32.8 54.1l-.43.04c-.33.03-.58.14-.73.3a1 1 0 0 0-.22.67v1.91h-.71v-3.44h.7v.6c.17-.4.55-.63 1.11-.67l.24-.01.05.6ZM33.2 57.02v-3.44h.71v3.44h-.7Zm-.05-4.98h.82v.74h-.82v-.74ZM36.67 53.5c.3 0 .56.07.79.22.23.15.41.36.54.64.13.27.2.59.2.94 0 .36-.07.67-.2.93a1.43 1.43 0 0 1-1.33.84 1.4 1.4 0 0 1-.69-.16c-.2-.11-.34-.27-.45-.48v1.86h-.71v-4.7h.71v.56c.1-.21.26-.37.45-.48.2-.12.43-.17.69-.17Zm-.17 3c.3 0 .55-.1.72-.3.17-.21.25-.51.25-.9s-.09-.7-.26-.9a.85.85 0 0 0-.71-.33c-.31 0-.55.1-.72.32-.17.2-.25.5-.25.9 0 .39.08.69.25.9.17.21.4.32.72.32ZM40.51 56.52c.1 0 .22 0 .32-.02l-.04.54c-.11.02-.24.03-.36.03-.45 0-.78-.1-1-.32-.22-.22-.33-.54-.33-.95v-1.67h-.67v-.55h.67v-1.04h.71v1.04h.95v.55h-.95v1.64c0 .5.24.75.7.75ZM41.28 57.02v-3.44h.71v3.44h-.71Zm-.05-4.98h.82v.74h-.82v-.74ZM44.39 57.07a1.8 1.8 0 0 1-.9-.22 1.5 1.5 0 0 1-.59-.62c-.13-.27-.2-.58-.2-.94s.06-.68.2-.95c.14-.27.34-.48.6-.62.25-.15.55-.22.89-.22.34 0 .63.07.89.22.26.14.45.35.6.62a2 2 0 0 1 .2.95c0 .36-.07.67-.2.94-.15.27-.34.48-.6.62-.26.15-.55.22-.89.22Zm0-.56c.31 0 .55-.1.72-.31.17-.2.25-.51.25-.91s-.08-.7-.25-.9a.87.87 0 0 0-.72-.32c-.31 0-.55.1-.72.32-.17.2-.25.5-.25.9s.08.7.24.9c.17.22.41.32.73.32ZM48.64 53.5c.82 0 1.23.46 1.23 1.39v2.13h-.7v-2.1c0-.29-.07-.5-.18-.64-.12-.14-.3-.2-.54-.2a.92.92 0 0 0-.7.26.99.99 0 0 0-.25.72v1.96h-.72v-3.44h.7v.55c.12-.2.27-.36.48-.47.2-.1.43-.16.68-.16ZM58.93 80.33a2.2 2.2 0 0 1-1.43-.43l.22-.52c.35.27.76.41 1.23.41.23 0 .41-.04.53-.11.12-.08.19-.2.19-.33a.36.36 0 0 0-.13-.3 1 1 0 0 0-.42-.17l-.58-.13c-.3-.07-.53-.18-.69-.34a.84.84 0 0 1-.23-.6c0-.32.12-.57.37-.76.26-.2.59-.3 1-.3a2.04 2.04 0 0 1 1.27.45l-.22.5c-.34-.27-.69-.4-1.05-.4a.92.92 0 0 0-.52.13.4.4 0 0 0-.18.34c0 .12.04.22.11.3.08.06.2.12.38.15l.58.14c.34.07.58.2.74.35.15.16.23.36.23.61 0 .31-.13.56-.38.74-.25.18-.59.27-1.02.27ZM64.05 76.84v3.44h-.7v-.55c-.1.2-.25.34-.44.45-.2.1-.4.15-.64.15-.84 0-1.25-.46-1.25-1.38v-2.1h.7v2.1c0 .27.06.48.18.6.11.14.28.2.52.2.28 0 .5-.08.66-.26a1 1 0 0 0 .26-.72v-1.93h.7ZM68.9 76.76c.78 0 1.16.46 1.16 1.39v2.13h-.71v-2.1c0-.3-.05-.5-.16-.64-.1-.14-.26-.2-.48-.2a.76.76 0 0 0-.62.26 1.1 1.1 0 0 0-.22.74v1.94h-.71v-2.1c0-.3-.06-.5-.16-.64s-.27-.2-.49-.2a.77.77 0 0 0-.62.26 1.1 1.1 0 0 0-.22.74v1.94h-.72v-3.44h.7v.52a1.21 1.21 0 0 1 1.07-.6c.53 0 .88.22 1.04.66.1-.2.26-.37.46-.49.2-.11.43-.17.68-.17ZM74.9 76.76c.77 0 1.15.46 1.15 1.39v2.13h-.71v-2.1c0-.3-.05-.5-.15-.64-.1-.14-.27-.2-.5-.2a.76.76 0 0 0-.6.26 1.1 1.1 0 0 0-.23.74v1.94h-.71v-2.1c0-.3-.06-.5-.16-.64s-.26-.2-.49-.2a.77.77 0 0 0-.62.26 1.1 1.1 0 0 0-.22.74v1.94h-.71v-3.44h.7v.52c.1-.19.25-.34.43-.44.19-.1.4-.16.63-.16.53 0 .88.22 1.04.66.1-.2.26-.37.46-.49.2-.11.43-.17.69-.17ZM78.38 76.76c.46 0 .8.11 1.02.34.22.23.34.58.34 1.05v2.13h-.69v-.57a1 1 0 0 1-.4.47 1.43 1.43 0 0 1-1.23.02 1.01 1.01 0 0 1-.6-.94c0-.25.06-.44.19-.58.13-.15.34-.25.64-.32.3-.06.71-.09 1.23-.09h.17v-.2c0-.26-.06-.46-.17-.57-.11-.12-.29-.18-.54-.18-.39 0-.78.12-1.17.36l-.21-.5c.18-.13.4-.23.66-.3.26-.08.52-.12.76-.12Zm-.22 3.04c.26 0 .47-.08.64-.26.16-.18.25-.4.25-.68v-.18h-.13c-.37 0-.65.01-.85.04a.8.8 0 0 0-.42.17c-.09.08-.13.19-.13.34 0 .16.06.3.18.41.12.11.28.16.46.16ZM82.72 77.36l-.43.04c-.34.03-.59.13-.74.3a1 1 0 0 0-.22.67v1.91h-.7v-3.44h.68v.6c.19-.4.56-.63 1.12-.67l.24-.01.05.6ZM85.77 76.85h.7l-2.04 4.7h-.72l.6-1.35-1.45-3.35h.75l1.07 2.63 1.09-2.63ZM45.76 126.3v-3.44h.72v3.44h-.72Zm-.05-4.98h.82v.74h-.82v-.74ZM49.24 122.77c.82 0 1.23.47 1.23 1.4v2.13h-.71v-2.1c0-.3-.06-.5-.18-.64-.11-.14-.29-.21-.53-.21a.92.92 0 0 0-.7.27.99.99 0 0 0-.26.72v1.96h-.7v-3.44h.69v.55c.11-.21.27-.37.47-.48.2-.1.43-.16.69-.16ZM53.8 122.86h.7l-1.49 3.44h-.64l-1.48-3.44h.75l1.07 2.63 1.08-2.63ZM56.37 126.35a1.8 1.8 0 0 1-.9-.22 1.5 1.5 0 0 1-.58-.62c-.14-.27-.2-.59-.2-.95s.06-.67.2-.94c.14-.27.34-.48.59-.63.26-.14.56-.22.9-.22.33 0 .63.08.88.22.26.15.46.36.6.63a2 2 0 0 1 .2.94c0 .36-.06.68-.2.95-.14.27-.34.47-.6.62-.25.15-.55.22-.89.22Zm0-.57c.32 0 .56-.1.72-.3.17-.21.26-.52.26-.92s-.09-.7-.26-.9a.87.87 0 0 0-.72-.32c-.3 0-.55.1-.71.32-.17.2-.26.5-.26.9s.08.7.25.91c.17.21.41.31.72.31ZM58.77 126.3v-3.44h.71v3.44h-.71Zm-.05-4.98h.82v.74h-.82v-.74ZM61.9 126.35c-.35 0-.66-.07-.91-.22a1.52 1.52 0 0 1-.6-.61c-.13-.27-.2-.58-.2-.94s.07-.67.21-.95c.15-.27.35-.48.6-.63a2.02 2.02 0 0 1 1.6-.1c.24.07.42.18.57.32l-.22.5a1.51 1.51 0 0 0-.97-.38c-.33 0-.59.11-.77.33-.19.2-.28.51-.28.9s.1.69.27.9c.19.2.45.3.78.3s.66-.12.97-.37l.22.51c-.15.14-.34.25-.57.33-.22.07-.46.1-.7.1ZM66.65 124.7h-2.43c.05.73.41 1.1 1.09 1.1.4 0 .75-.14 1.07-.4l.22.5a1.8 1.8 0 0 1-.6.33c-.23.08-.47.12-.71.12-.55 0-.99-.16-1.31-.47a1.76 1.76 0 0 1-.47-1.31c0-.35.07-.66.2-.94a1.56 1.56 0 0 1 1.45-.86c.46 0 .83.15 1.1.45.26.3.4.72.4 1.25v.23Zm-1.48-1.4c-.27 0-.49.08-.65.26-.16.16-.26.4-.3.73h1.82c-.01-.32-.1-.57-.25-.73a.76.76 0 0 0-.62-.27ZM69.62 126.36c-.48 0-.9-.1-1.26-.31a2.1 2.1 0 0 1-.81-.89 3.06 3.06 0 0 1-.29-1.35 3 3 0 0 1 .28-1.35c.2-.38.47-.68.82-.88.36-.2.78-.31 1.26-.31.34 0 .65.05.94.16.3.1.54.26.74.45l-.25.54a2.06 2.06 0 0 0-1.42-.54c-.52 0-.92.16-1.2.5-.28.33-.42.8-.42 1.43 0 .62.14 1.1.42 1.44.28.33.68.5 1.2.5a2.06 2.06 0 0 0 1.42-.55l.25.54c-.2.2-.44.35-.74.46-.29.1-.6.16-.94.16ZM73.46 126.35a1.8 1.8 0 0 1-.9-.22 1.5 1.5 0 0 1-.6-.62c-.13-.27-.2-.59-.2-.95s.07-.67.2-.94c.15-.27.35-.48.6-.63.26-.14.56-.22.9-.22.33 0 .63.08.89.22.25.15.45.36.59.63a2 2 0 0 1 .2.94c0 .36-.06.68-.2.95-.14.27-.34.47-.6.62-.25.15-.55.22-.88.22Zm0-.57c.31 0 .55-.1.72-.3.17-.21.25-.52.25-.92s-.08-.7-.25-.9a.87.87 0 0 0-.72-.32c-.31 0-.55.1-.72.32-.17.2-.26.5-.26.9s.09.7.25.91c.17.21.41.31.73.31ZM78.87 122.86v3.44h-.7v-.56c-.1.2-.25.35-.44.45-.2.1-.4.16-.64.16-.83 0-1.25-.46-1.25-1.38v-2.11h.7v2.1c0 .28.07.48.18.61.11.13.29.2.52.2.28 0 .5-.09.66-.27a1 1 0 0 0 .26-.71v-1.93h.71ZM81.63 122.77c.82 0 1.24.47 1.24 1.4v2.13h-.72v-2.1c0-.3-.06-.5-.17-.64-.12-.14-.3-.21-.54-.21a.92.92 0 0 0-.7.27.99.99 0 0 0-.25.72v1.96h-.71v-3.44h.7v.55c.1-.21.26-.37.47-.48.2-.1.43-.16.68-.16ZM85.38 125.8c.1 0 .21 0 .32-.02l-.04.54a2.3 2.3 0 0 1-.37.03c-.44 0-.78-.11-1-.33-.21-.22-.32-.53-.32-.95v-1.66h-.67v-.55h.67v-1.04h.71v1.04h.94v.55h-.94v1.63c0 .5.23.76.7.76ZM71.22 65.25c.82 0 1.23.47 1.23 1.4v2.13h-.71v-2.1c0-.3-.06-.5-.18-.64-.1-.14-.29-.2-.53-.2a.92.92 0 0 0-.7.26.99.99 0 0 0-.25.72v1.96h-.72v-3.44h.7v.55c.11-.2.27-.37.47-.47.2-.11.43-.17.69-.17ZM74.78 65.25c.46 0 .8.12 1.02.35.22.23.34.58.34 1.05v2.13h-.69v-.57a1 1 0 0 1-.4.46c-.17.1-.38.16-.61.16-.23 0-.44-.05-.62-.14-.2-.09-.34-.22-.45-.38-.1-.17-.15-.35-.15-.55 0-.25.06-.45.19-.59.13-.14.34-.25.64-.3.3-.07.71-.1 1.23-.1h.17v-.2c0-.27-.06-.46-.17-.58-.11-.11-.3-.17-.54-.17-.39 0-.78.12-1.17.36l-.21-.5c.18-.13.4-.23.66-.3.26-.09.52-.13.76-.13Zm-.22 3.05c.26 0 .47-.09.64-.26.16-.18.25-.4.25-.69v-.18h-.13c-.37 0-.65.02-.85.05a.8.8 0 0 0-.42.17c-.09.08-.13.19-.13.33 0 .17.06.3.18.42.12.1.28.16.46.16ZM80.97 65.25c.77 0 1.16.47 1.16 1.4v2.13h-.72v-2.1c0-.3-.05-.51-.15-.64-.1-.14-.26-.2-.49-.2a.76.76 0 0 0-.61.26 1.1 1.1 0 0 0-.23.73v1.95h-.71v-2.1c0-.3-.05-.51-.15-.64-.1-.14-.27-.2-.5-.2a.77.77 0 0 0-.61.26 1.1 1.1 0 0 0-.23.73v1.95h-.71v-3.44h.7v.52c.1-.2.25-.34.44-.44.18-.11.39-.17.62-.17.53 0 .88.22 1.04.67.1-.21.26-.37.47-.5.2-.1.43-.17.68-.17ZM85.96 67.18h-2.43c.05.73.41 1.1 1.08 1.1.4 0 .75-.14 1.07-.4l.22.5c-.16.14-.35.25-.59.33-.23.08-.47.12-.72.12-.55 0-.98-.16-1.3-.47a1.76 1.76 0 0 1-.48-1.3c0-.36.07-.67.2-.95a1.56 1.56 0 0 1 1.45-.86c.47 0 .83.15 1.1.45.27.3.4.72.4 1.25v.23Zm-1.48-1.4c-.27 0-.5.08-.66.26-.16.17-.25.41-.29.73h1.82c-.02-.32-.1-.56-.25-.73a.76.76 0 0 0-.62-.27ZM60.15 111.27a1.44 1.44 0 0 1 1.33.84c.13.27.2.58.2.94 0 .35-.07.66-.2.93a1.4 1.4 0 0 1-1.33.86 1.4 1.4 0 0 1-.69-.16c-.2-.11-.34-.27-.45-.48v.6h-.7v-4.98h.7v2.1c.1-.21.26-.37.45-.48.2-.12.43-.17.69-.17Zm-.17 3.01c.3 0 .54-.1.71-.33.18-.21.26-.51.26-.9s-.08-.69-.25-.9a.87.87 0 0 0-.72-.31c-.31 0-.55.1-.72.32-.16.2-.25.5-.25.9 0 .39.09.7.25.9.17.21.4.32.72.32ZM62.38 114.8v-3.45h.7v3.45h-.7Zm-.05-4.98h.82v.74h-.82v-.75ZM64 114.8v-4.98h.7v4.98H64ZM65.61 114.8v-4.98h.71v4.98h-.7ZM67.23 114.8v-3.45h.71v3.45h-.71Zm-.05-4.98H68v.74h-.82v-.75ZM70.7 111.27c.82 0 1.23.46 1.23 1.39v2.14h-.7v-2.1c0-.3-.07-.51-.18-.65-.12-.13-.3-.2-.54-.2a.92.92 0 0 0-.7.26.99.99 0 0 0-.25.72v1.97h-.71v-3.45h.7v.55c.1-.2.26-.36.47-.47.2-.1.43-.16.68-.16ZM76.02 111.35v3.17c0 .53-.14.92-.42 1.2-.28.26-.7.4-1.24.4-.3 0-.58-.05-.84-.13-.27-.07-.5-.18-.7-.33l.21-.51c.23.14.44.25.65.3.21.07.44.1.68.1.64 0 .96-.32.96-.97v-.55c-.1.21-.25.37-.45.49-.2.11-.44.17-.7.17a1.45 1.45 0 0 1-1.35-.81 2.01 2.01 0 0 1-.2-.9c0-.34.07-.64.2-.9a1.46 1.46 0 0 1 1.35-.81c.26 0 .49.05.69.17.2.11.35.27.46.48v-.57h.7Zm-1.69 2.78c.31 0 .55-.1.72-.3.18-.21.27-.5.27-.85s-.1-.63-.27-.83a.88.88 0 0 0-.72-.31c-.3 0-.55.1-.73.3-.17.2-.26.48-.26.84s.09.64.27.84c.18.2.42.3.72.3ZM79 114.85c-.67 0-1.17-.17-1.51-.51-.35-.35-.52-.85-.52-1.52v-3h.72v3.05c0 .45.1.8.33 1.04.22.23.54.35.98.35.42 0 .75-.12.97-.35.22-.24.33-.58.33-1.04v-3.05h.72v3c0 .66-.17 1.17-.52 1.52-.34.34-.85.51-1.5.51ZM84.06 111.87l-.43.04c-.34.03-.59.14-.74.31a1 1 0 0 0-.21.66v1.92h-.72v-3.45h.7v.6c.18-.4.55-.63 1.12-.67l.23-.01.05.6ZM84.45 114.8v-4.98h.72v4.98h-.72ZM80.72 91.79v-3.45h.71v3.45h-.71Zm-.05-4.98h.82v.74h-.82v-.74ZM85.5 86.81v4.98h-.7v-.6c-.1.21-.25.37-.45.48-.2.11-.42.17-.68.17a1.45 1.45 0 0 1-1.34-.86 2.2 2.2 0 0 1-.2-.94c0-.36.07-.67.2-.94.13-.27.31-.48.54-.62.23-.15.5-.22.8-.22.26 0 .48.06.67.17.2.1.35.26.46.47V86.8h.7Zm-1.66 4.46c.3 0 .54-.1.7-.32.18-.2.26-.5.26-.9 0-.39-.08-.69-.25-.9a.85.85 0 0 0-.71-.32c-.31 0-.56.1-.73.32-.17.2-.25.5-.25.89 0 .38.08.69.26.9.17.22.41.33.72.33ZM71.7 134.37h.72l-1.5 3.43h-.64l-1.48-3.43h.75l1.07 2.63 1.09-2.63ZM74.22 134.28c.46 0 .8.11 1.03.34.22.23.33.58.33 1.05v2.13h-.68v-.57a1 1 0 0 1-.4.47 1.43 1.43 0 0 1-1.23.02 1.01 1.01 0 0 1-.6-.94c0-.25.06-.44.19-.59.13-.14.34-.25.64-.3.3-.07.7-.1 1.23-.1h.16v-.2c0-.27-.05-.46-.17-.57-.1-.12-.28-.18-.53-.18-.4 0-.78.12-1.17.36l-.21-.5c.18-.13.4-.23.66-.3.26-.08.51-.12.75-.12Zm-.2 3.04c.25 0 .46-.08.63-.26.16-.18.24-.4.24-.68v-.19h-.12c-.37 0-.65.02-.85.05a.8.8 0 0 0-.42.17c-.09.08-.13.19-.13.33 0 .17.06.3.18.42.12.1.27.16.46.16ZM76.47 137.8v-4.97h.71v4.97h-.71ZM81.1 134.36v3.44h-.69v-.56c-.1.2-.26.35-.45.46-.19.1-.4.15-.63.15-.84 0-1.26-.46-1.26-1.38v-2.11h.71v2.1c0 .28.06.48.17.62.12.13.29.2.52.2.28 0 .5-.1.67-.28a1 1 0 0 0 .25-.7v-1.94h.71ZM84.96 136.2h-2.44c.06.73.42 1.1 1.1 1.1.39 0 .74-.14 1.06-.4l.22.5c-.16.14-.36.25-.6.33-.23.08-.47.12-.71.12-.55 0-.99-.16-1.3-.47a1.76 1.76 0 0 1-.48-1.3c0-.36.07-.67.2-.94a1.56 1.56 0 0 1 1.45-.86c.47 0 .83.15 1.1.45.26.3.4.71.4 1.25v.22Zm-1.48-1.4c-.28 0-.5.08-.66.26-.16.17-.26.41-.29.73h1.81c0-.32-.1-.56-.24-.73a.76.76 0 0 0-.62-.26ZM74.07 148.8c.11 0 .22 0 .32-.02l-.03.55a2.3 2.3 0 0 1-.37.03c-.45 0-.78-.11-1-.33-.22-.22-.33-.54-.33-.95v-1.67H72v-.55h.67v-1.03h.71v1.03h.95v.55h-.95v1.64c0 .5.24.75.7.75ZM77.33 145.87h.71l-2.05 4.7h-.72l.6-1.35-1.45-3.35h.75l1.07 2.63 1.09-2.63ZM80.3 145.78c.3 0 .57.07.8.22.23.16.41.37.54.64.13.27.2.59.2.95 0 .35-.06.66-.2.93a1.43 1.43 0 0 1-1.33.84 1.4 1.4 0 0 1-.69-.17c-.2-.11-.34-.27-.45-.48v1.87h-.7v-4.72h.7v.57c.1-.2.26-.37.45-.48.2-.11.43-.17.69-.17Zm-.16 3.01c.31 0 .55-.1.72-.3.17-.22.25-.52.25-.9 0-.4-.08-.7-.26-.91a.85.85 0 0 0-.71-.33c-.31 0-.55.1-.72.32-.16.21-.25.51-.25.9 0 .4.09.7.25.9.17.22.4.32.72.32ZM85.49 147.7h-2.44c.05.73.42 1.1 1.09 1.1.4 0 .75-.13 1.07-.39l.22.5c-.16.14-.36.25-.6.33-.23.08-.47.12-.71.12-.55 0-.99-.16-1.3-.48a1.76 1.76 0 0 1-.48-1.3c0-.36.07-.67.2-.94a1.56 1.56 0 0 1 1.45-.86c.47 0 .83.15 1.1.45.26.3.4.72.4 1.25v.23ZM84 146.3c-.27 0-.49.09-.65.26-.16.17-.26.42-.3.74h1.82c-.01-.32-.1-.57-.25-.74a.76.76 0 0 0-.62-.26ZM66.6 103.3v-4.98h.71v4.97h-.7ZM71.17 101.69h-2.44c.06.73.42 1.1 1.09 1.1.4 0 .75-.14 1.07-.4l.22.5c-.16.14-.36.25-.6.33-.23.08-.47.12-.71.12-.55 0-.99-.16-1.3-.47a1.76 1.76 0 0 1-.48-1.3c0-.36.07-.67.2-.94a1.56 1.56 0 0 1 1.45-.87c.47 0 .83.15 1.1.46.26.3.4.71.4 1.24v.23Zm-1.48-1.4c-.28 0-.5.08-.66.26-.16.17-.26.41-.29.73h1.81c-.01-.32-.1-.56-.24-.73a.76.76 0 0 0-.62-.26ZM73.72 99.76c.82 0 1.23.47 1.23 1.4v2.13h-.71v-2.1c0-.3-.06-.5-.18-.64-.11-.14-.29-.2-.53-.2a.92.92 0 0 0-.7.26.99.99 0 0 0-.26.72v1.96h-.7v-3.44h.69v.55c.11-.2.27-.37.47-.47.2-.11.43-.17.69-.17ZM79.04 99.85v3.17c0 .52-.15.92-.43 1.19-.27.27-.69.4-1.23.4-.3 0-.58-.04-.85-.12-.26-.07-.5-.19-.7-.33l.22-.52a2.26 2.26 0 0 0 1.33.4c.64.01.96-.31.96-.97v-.54c-.1.2-.25.37-.45.49-.2.1-.44.17-.7.17-.31 0-.58-.08-.81-.22a1.44 1.44 0 0 1-.55-.6 2 2 0 0 1-.2-.9c0-.33.07-.63.2-.89a1.46 1.46 0 0 1 1.35-.82c.26 0 .5.06.7.17.2.12.35.28.45.48v-.56h.7Zm-1.69 2.77c.3 0 .55-.1.72-.3.17-.2.26-.48.26-.84 0-.35-.09-.63-.26-.83a.88.88 0 0 0-.72-.31c-.31 0-.55.1-.73.3-.18.2-.26.48-.26.84s.09.63.26.84c.18.2.42.3.73.3ZM81.57 102.79c.1 0 .21 0 .31-.02l-.03.54a2.3 2.3 0 0 1-.37.03c-.44 0-.78-.1-1-.32-.22-.22-.32-.54-.32-.96v-1.66h-.67v-.55h.67V98.8h.7v1.04h.95v.55h-.94v1.64c0 .5.23.75.7.75ZM84.19 99.76c.82 0 1.23.47 1.23 1.4v2.13h-.71v-2.1c0-.3-.06-.5-.18-.64-.1-.14-.29-.2-.53-.2a.92.92 0 0 0-.7.26.98.98 0 0 0-.25.72v1.96h-.72v-4.97h.72v2.05c.11-.2.27-.35.47-.45.2-.1.42-.16.67-.16Z" fill="#444"/><path d="M54.14 30.02H167v4.67H54.14v-4.67Z" fill="#37D5D3"/><path d="M54.14 41.7h16.32v4.66H54.14V41.7ZM91.76 100.05h21.46v4.67H91.76v-4.67ZM54.14 53.37H167v4.66H54.14v-4.66ZM91.76 111.72H167v4.67H91.76v-4.67ZM91.76 65.04H167v4.66H91.76v-4.66ZM91.76 121.64h66.42v4.67H91.76v-4.67ZM91.76 76.7H167v4.68H91.76V76.7ZM91.76 133.31h48.35v4.67H91.76v-4.67ZM91.76 88.38H146v4.67H91.76v-4.67ZM91.76 144.99h17.34v4.66H91.76V145Z" fill="#1EA7FD"/></svg>