<svg width="328" height="268" viewBox="0 0 328 268" fill="none" xmlns="http://www.w3.org/2000/svg">
<g filter="url(#filter0_dd_1912_56961)">
<rect x="14" y="9" width="300" height="240.882" rx="8.82353" fill="white"/>
</g>
<path d="M48.0757 188.502H49.2342V196.589H47.9266V191.244L45.7931 195.281H44.8066L42.6616 191.301L42.6731 196.589H41.3654V188.502H42.5354L45.3113 193.79L48.0757 188.502ZM50.861 196.589V190.98H52.2948V196.589H50.861ZM50.7807 188.376H52.3636V189.787H50.7807V188.376ZM57.0311 190.842C57.704 190.842 58.2049 191.033 58.5337 191.416C58.8626 191.798 59.027 192.375 59.027 193.148V196.589H57.5932V193.228C57.5932 192.792 57.509 192.475 57.3408 192.276C57.1802 192.077 56.924 191.978 56.5723 191.978C56.1593 191.978 55.8267 192.108 55.5743 192.368C55.3296 192.628 55.2073 192.976 55.2073 193.412V196.589H53.7734V190.98H55.1729V191.817C55.364 191.504 55.6202 191.263 55.9414 191.094C56.2626 190.926 56.6258 190.842 57.0311 190.842ZM60.4833 196.589V190.98H61.9171V196.589H60.4833ZM60.403 188.376H61.9859V189.787H60.403V188.376ZM70.0602 190.842C70.6949 190.842 71.169 191.033 71.4825 191.416C71.796 191.79 71.9528 192.368 71.9528 193.148V196.589H70.519V193.205C70.519 192.777 70.4463 192.467 70.301 192.276C70.1558 192.077 69.9225 191.978 69.6013 191.978C69.219 191.978 68.9208 192.108 68.7066 192.368C68.4925 192.628 68.3855 192.991 68.3855 193.457V196.589H66.9516V193.205C66.9516 192.777 66.879 192.467 66.7337 192.276C66.596 192.077 66.3628 191.978 66.034 191.978C65.6593 191.978 65.3649 192.108 65.1508 192.368C64.9366 192.628 64.8296 192.991 64.8296 193.457V196.589H63.3958V190.98H64.7952V191.771C64.9634 191.465 65.1966 191.236 65.4949 191.083C65.7931 190.922 66.1334 190.842 66.5158 190.842C67.3646 190.842 67.9266 191.194 68.2019 191.897C68.3778 191.569 68.6302 191.312 68.959 191.129C69.2878 190.938 69.6549 190.842 70.0602 190.842ZM78.5604 190.98V196.589H77.161V195.729C76.9851 196.034 76.7481 196.272 76.4498 196.44C76.1516 196.6 75.8151 196.681 75.4404 196.681C74.0639 196.681 73.3757 195.908 73.3757 194.364V190.98H74.8095V194.375C74.8095 194.773 74.8898 195.067 75.0504 195.258C75.211 195.449 75.4633 195.545 75.8075 195.545C76.2051 195.545 76.5225 195.415 76.7595 195.155C77.0042 194.887 77.1266 194.536 77.1266 194.1V190.98H78.5604ZM86.7172 190.842C87.3519 190.842 87.826 191.033 88.1395 191.416C88.453 191.79 88.6098 192.368 88.6098 193.148V196.589H87.176V193.205C87.176 192.777 87.1033 192.467 86.958 192.276C86.8127 192.077 86.5795 191.978 86.2583 191.978C85.876 191.978 85.5777 192.108 85.3636 192.368C85.1495 192.628 85.0425 192.991 85.0425 193.457V196.589H83.6086V193.205C83.6086 192.777 83.536 192.467 83.3907 192.276C83.253 192.077 83.0198 191.978 82.691 191.978C82.3163 191.978 82.0219 192.108 81.8077 192.368C81.5936 192.628 81.4866 192.991 81.4866 193.457V196.589H80.0527V190.98H81.4522V191.771C81.6204 191.465 81.8536 191.236 82.1519 191.083C82.4501 190.922 82.7904 190.842 83.1727 190.842C84.0216 190.842 84.5836 191.194 84.8589 191.897C85.0348 191.569 85.2872 191.312 85.616 191.129C85.9448 190.938 86.3119 190.842 86.7172 190.842Z" fill="#333333"/>
<path d="M189.252 188.502H190.411V196.589H189.103V191.244L186.97 195.281H185.983L183.838 191.301L183.85 196.589H182.542V188.502H183.712L186.488 193.79L189.252 188.502ZM194.447 190.842C195.234 190.842 195.819 191.033 196.202 191.416C196.584 191.798 196.775 192.387 196.775 193.182V196.589H195.41V195.729C195.28 196.027 195.074 196.26 194.791 196.428C194.515 196.597 194.194 196.681 193.827 196.681C193.452 196.681 193.112 196.604 192.806 196.451C192.5 196.298 192.26 196.088 192.084 195.82C191.908 195.553 191.82 195.254 191.82 194.926C191.82 194.513 191.923 194.188 192.13 193.951C192.344 193.714 192.688 193.542 193.162 193.434C193.636 193.327 194.29 193.274 195.123 193.274H195.41V193.01C195.41 192.628 195.326 192.352 195.158 192.184C194.997 192.016 194.726 191.932 194.343 191.932C194.045 191.932 193.732 191.985 193.403 192.092C193.082 192.192 192.764 192.333 192.451 192.517L192.049 191.53C192.363 191.332 192.741 191.167 193.185 191.037C193.628 190.907 194.049 190.842 194.447 190.842ZM194.114 195.648C194.496 195.648 194.806 195.522 195.043 195.27C195.288 195.01 195.41 194.677 195.41 194.272V194.031H195.204C194.691 194.031 194.294 194.054 194.011 194.1C193.728 194.146 193.525 194.226 193.403 194.341C193.28 194.455 193.219 194.612 193.219 194.811C193.219 195.056 193.303 195.258 193.472 195.419C193.64 195.572 193.854 195.648 194.114 195.648ZM201.364 193.698L203.727 196.589H202.029L200.538 194.719L199.058 196.589H197.361L199.712 193.698L197.487 190.98H199.196L200.538 192.689L201.88 190.98H203.589L201.364 193.698ZM204.337 196.589V190.98H205.771V196.589H204.337ZM204.257 188.376H205.84V189.787H204.257V188.376ZM213.914 190.842C214.549 190.842 215.023 191.033 215.336 191.416C215.65 191.79 215.807 192.368 215.807 193.148V196.589H214.373V193.205C214.373 192.777 214.3 192.467 214.155 192.276C214.01 192.077 213.776 191.978 213.455 191.978C213.073 191.978 212.775 192.108 212.561 192.368C212.346 192.628 212.239 192.991 212.239 193.457V196.589H210.806V193.205C210.806 192.777 210.733 192.467 210.588 192.276C210.45 192.077 210.217 191.978 209.888 191.978C209.513 191.978 209.219 192.108 209.005 192.368C208.791 192.628 208.684 192.991 208.684 193.457V196.589H207.25V190.98H208.649V191.771C208.817 191.465 209.051 191.236 209.349 191.083C209.647 190.922 209.987 190.842 210.37 190.842C211.219 190.842 211.781 191.194 212.056 191.897C212.232 191.569 212.484 191.312 212.813 191.129C213.142 190.938 213.509 190.842 213.914 190.842ZM222.414 190.98V196.589H221.015V195.729C220.839 196.034 220.602 196.272 220.304 196.44C220.006 196.6 219.669 196.681 219.294 196.681C217.918 196.681 217.23 195.908 217.23 194.364V190.98H218.663V194.375C218.663 194.773 218.744 195.067 218.904 195.258C219.065 195.449 219.317 195.545 219.661 195.545C220.059 195.545 220.376 195.415 220.613 195.155C220.858 194.887 220.981 194.536 220.981 194.1V190.98H222.414ZM230.571 190.842C231.206 190.842 231.68 191.033 231.993 191.416C232.307 191.79 232.464 192.368 232.464 193.148V196.589H231.03V193.205C231.03 192.777 230.957 192.467 230.812 192.276C230.667 192.077 230.433 191.978 230.112 191.978C229.73 191.978 229.432 192.108 229.218 192.368C229.003 192.628 228.896 192.991 228.896 193.457V196.589H227.463V193.205C227.463 192.777 227.39 192.467 227.245 192.276C227.107 192.077 226.874 191.978 226.545 191.978C226.17 191.978 225.876 192.108 225.662 192.368C225.448 192.628 225.341 192.991 225.341 193.457V196.589H223.907V190.98H225.306V191.771C225.474 191.465 225.708 191.236 226.006 191.083C226.304 190.922 226.644 190.842 227.027 190.842C227.876 190.842 228.438 191.194 228.713 191.897C228.889 191.569 229.141 191.312 229.47 191.129C229.799 190.938 230.166 190.842 230.571 190.842Z" fill="#333333"/>
<path d="M181.647 207.53C181.647 205.581 183.228 204.001 185.177 204.001H284C285.95 204.001 287.53 205.581 287.53 207.53V228.707C287.53 230.656 285.95 232.236 284 232.236H185.177C183.228 232.236 181.647 230.656 181.647 228.707V207.53Z" fill="white"/>
<path d="M195.311 218.025C195.785 218.171 196.152 218.419 196.412 218.771C196.68 219.123 196.814 219.543 196.814 220.033C196.814 220.729 196.562 221.275 196.057 221.673C195.552 222.063 194.837 222.258 193.912 222.258C192.987 222.258 192.272 222.063 191.767 221.673C191.262 221.275 191.01 220.729 191.01 220.033C191.01 219.536 191.144 219.111 191.411 218.759C191.679 218.408 192.05 218.163 192.524 218.025C192.119 217.872 191.797 217.632 191.56 217.303C191.323 216.974 191.205 216.588 191.205 216.144C191.205 215.487 191.442 214.967 191.916 214.584C192.398 214.194 193.063 213.999 193.912 213.999C194.761 213.999 195.422 214.194 195.896 214.584C196.378 214.967 196.619 215.487 196.619 216.144C196.619 216.588 196.5 216.978 196.263 217.314C196.026 217.643 195.709 217.88 195.311 218.025ZM192.134 216.213C192.134 216.687 192.283 217.05 192.581 217.303C192.887 217.555 193.331 217.681 193.912 217.681C194.493 217.681 194.933 217.555 195.231 217.303C195.537 217.05 195.69 216.687 195.69 216.213C195.69 215.762 195.537 215.41 195.231 215.158C194.933 214.905 194.493 214.779 193.912 214.779C193.331 214.779 192.887 214.905 192.581 215.158C192.283 215.41 192.134 215.762 192.134 216.213ZM193.912 221.478C195.227 221.478 195.885 220.977 195.885 219.975C195.885 218.974 195.227 218.473 193.912 218.473C192.597 218.473 191.939 218.974 191.939 219.975C191.939 220.977 192.597 221.478 193.912 221.478ZM198.117 214.091H203.462V214.791L199.677 222.178H198.656L202.43 214.882H198.117V214.091Z" fill="#333333"/>
<path d="M185.177 204.883H284V203.119H185.177V204.883ZM286.647 207.53V228.707H288.412V207.53H286.647ZM284 231.354H185.177V233.119H284V231.354ZM182.53 228.707V207.53H180.765V228.707H182.53ZM185.177 231.354C183.715 231.354 182.53 230.169 182.53 228.707H180.765C180.765 231.143 182.74 233.119 185.177 233.119V231.354ZM286.647 228.707C286.647 230.169 285.462 231.354 284 231.354V233.119C286.437 233.119 288.412 231.143 288.412 228.707H286.647ZM284 204.883C285.462 204.883 286.647 206.068 286.647 207.53H288.412C288.412 205.094 286.437 203.119 284 203.119V204.883ZM185.177 203.119C182.74 203.119 180.765 205.094 180.765 207.53H182.53C182.53 206.068 183.715 204.883 185.177 204.883V203.119Z" fill="#1EA7FD"/>
<path d="M40.4707 207.53C40.4707 205.581 42.0509 204.001 44.0001 204.001H142.824C144.773 204.001 146.353 205.581 146.353 207.53V228.707C146.353 230.656 144.773 232.236 142.824 232.236H44.0001C42.0509 232.236 40.4707 230.656 40.4707 228.707V207.53Z" fill="white"/>
<path d="M52.7351 222.269C51.8098 222.269 51.1063 221.918 50.6245 221.214C50.1428 220.511 49.9019 219.486 49.9019 218.14C49.9019 216.787 50.1428 215.758 50.6245 215.054C51.1063 214.351 51.8098 213.999 52.7351 213.999C53.6604 213.999 54.3639 214.351 54.8457 215.054C55.3275 215.75 55.5684 216.775 55.5684 218.129C55.5684 219.482 55.3275 220.511 54.8457 221.214C54.3639 221.918 53.6604 222.269 52.7351 222.269ZM52.7351 221.478C53.3775 221.478 53.8516 221.207 54.1575 220.664C54.4634 220.121 54.6163 219.276 54.6163 218.129C54.6163 216.974 54.4634 216.133 54.1575 215.605C53.8592 215.07 53.3851 214.802 52.7351 214.802C52.0928 214.802 51.6187 215.07 51.3128 215.605C51.0069 216.14 50.8539 216.982 50.8539 218.129C50.8539 219.276 51.0069 220.121 51.3128 220.664C51.6187 221.207 52.0928 221.478 52.7351 221.478Z" fill="#999999"/>
<path d="M44.0001 204.883H142.824V203.119H44.0001V204.883ZM145.471 207.53V228.707H147.235V207.53H145.471ZM142.824 231.354H44.0001V233.119H142.824V231.354ZM41.3531 228.707V207.53H39.5884V228.707H41.3531ZM44.0001 231.354C42.5382 231.354 41.3531 230.169 41.3531 228.707H39.5884C39.5884 231.143 41.5636 233.119 44.0001 233.119V231.354ZM145.471 228.707C145.471 230.169 144.286 231.354 142.824 231.354V233.119C145.26 233.119 147.235 231.143 147.235 228.707H145.471ZM142.824 204.883C144.286 204.883 145.471 206.068 145.471 207.53H147.235C147.235 205.094 145.26 203.119 142.824 203.119V204.883ZM44.0001 203.119C41.5636 203.119 39.5884 205.094 39.5884 207.53H41.3531C41.3531 206.068 42.5382 204.883 44.0001 204.883V203.119Z" fill="black" fill-opacity="0.1"/>
<rect x="160.471" y="217.236" width="7.05882" height="0.882353" fill="black" fill-opacity="0.1"/>
<path d="M14 17.8235C14 12.9504 17.9504 9 22.8235 9H305.176C310.05 9 314 12.9504 314 17.8235V147.529H14V17.8235Z" fill="url(#paint0_linear_1912_56961)"/>
<rect width="14.5588" height="5.58124" transform="matrix(-1 0 0 1 55.0293 141.957)" fill="url(#paint1_linear_1912_56961)"/>
<rect width="14.5588" height="12.5444" transform="matrix(-1 0 0 1 70.4707 134.994)" fill="url(#paint2_linear_1912_56961)"/>
<rect width="14.5588" height="10.0355" transform="matrix(-1 0 0 1 85.9121 137.503)" fill="url(#paint3_linear_1912_56961)"/>
<rect width="14.5588" height="18.8165" transform="matrix(-1 0 0 1 101.354 128.722)" fill="url(#paint4_linear_1912_56961)"/>
<rect width="14.5588" height="12.5444" transform="matrix(-1 0 0 1 116.794 134.994)" fill="url(#paint5_linear_1912_56961)"/>
<rect width="14.5588" height="11.2899" transform="matrix(-1 0 0 1 132.235 136.249)" fill="url(#paint6_linear_1912_56961)"/>
<rect width="14.5588" height="22.5798" transform="matrix(-1 0 0 1 147.677 124.959)" fill="url(#paint7_linear_1912_56961)"/>
<rect width="14.5588" height="27.5976" transform="matrix(-1 0 0 1 163.117 119.941)" fill="url(#paint8_linear_1912_56961)"/>
<rect width="14.5588" height="47.6686" transform="matrix(-1 0 0 1 178.559 99.8701)" fill="url(#paint9_linear_1912_56961)"/>
<rect width="14.5588" height="62.7218" transform="matrix(-1 0 0 1 194 84.8164)" fill="url(#paint10_linear_1912_56961)"/>
<rect width="14.5588" height="75.2661" transform="matrix(-1 0 0 1 209.441 72.2725)" fill="url(#paint11_linear_1912_56961)"/>
<rect width="14.5588" height="42.6508" transform="matrix(-1 0 0 1 224.883 104.888)" fill="url(#paint12_linear_1912_56961)"/>
<rect width="14.5588" height="22.5798" transform="matrix(-1 0 0 1 240.323 124.959)" fill="url(#paint13_linear_1912_56961)"/>
<rect width="14.5588" height="27.5976" transform="matrix(-1 0 0 1 255.765 119.941)" fill="url(#paint14_linear_1912_56961)"/>
<rect width="14.1176" height="15" transform="matrix(-1 0 0 1 270.765 132.539)" fill="url(#paint15_linear_1912_56961)"/>
<rect width="15" height="18.5294" transform="matrix(-1 0 0 1 286.647 129.009)" fill="url(#paint16_linear_1912_56961)"/>
<path fill-rule="evenodd" clip-rule="evenodd" d="M40.4712 152.824H39.5889V156.354H40.4712V152.824ZM238.118 152.824H237.236V156.354H238.118V152.824ZM138.412 152.824H139.295V156.354H138.412V152.824ZM287.53 152.824H286.648V156.354H287.53V152.824ZM89.0006 152.824H89.883V156.354H89.0006V152.824ZM188.707 152.824H187.824V156.354H188.707V152.824Z" fill="black" fill-opacity="0.1"/>
<path d="M88.6713 167.391V168H84.6654V167.453L86.8448 165.053C87.1389 164.724 87.3507 164.429 87.4801 164.171C87.6154 163.906 87.683 163.641 87.683 163.376C87.683 163.035 87.583 162.774 87.383 162.591C87.183 162.409 86.9007 162.318 86.536 162.318C85.936 162.318 85.3477 162.556 84.7713 163.032L84.4977 162.476C84.7448 162.241 85.0536 162.056 85.4242 161.921C85.8007 161.779 86.1771 161.709 86.5536 161.709C87.1242 161.709 87.5742 161.856 87.9036 162.15C88.2389 162.444 88.4066 162.841 88.4066 163.341C88.4066 163.7 88.3242 164.044 88.1595 164.374C88.0007 164.703 87.736 165.071 87.3654 165.476L85.6007 167.391H88.6713ZM91.8531 168.071C91.1413 168.071 90.6002 167.8 90.2296 167.259C89.859 166.718 89.6737 165.929 89.6737 164.894C89.6737 163.853 89.859 163.062 90.2296 162.521C90.6002 161.979 91.1413 161.709 91.8531 161.709C92.5649 161.709 93.1061 161.979 93.4766 162.521C93.8472 163.056 94.0325 163.844 94.0325 164.885C94.0325 165.926 93.8472 166.718 93.4766 167.259C93.1061 167.8 92.5649 168.071 91.8531 168.071ZM91.8531 167.462C92.3472 167.462 92.7119 167.253 92.9472 166.835C93.1825 166.418 93.3002 165.768 93.3002 164.885C93.3002 163.997 93.1825 163.35 92.9472 162.944C92.7178 162.532 92.3531 162.326 91.8531 162.326C91.359 162.326 90.9943 162.532 90.759 162.944C90.5237 163.356 90.4061 164.003 90.4061 164.885C90.4061 165.768 90.5237 166.418 90.759 166.835C90.9943 167.253 91.359 167.462 91.8531 167.462Z" fill="#999999"/>
<path d="M138.303 166.05V166.65H137.368V168H136.653V166.65H133.777V166.103L136.777 161.779H137.368V166.05H138.303ZM134.527 166.05H136.653V162.988L134.527 166.05ZM141.264 168.071C140.552 168.071 140.011 167.8 139.641 167.259C139.27 166.718 139.085 165.929 139.085 164.894C139.085 163.853 139.27 163.062 139.641 162.521C140.011 161.979 140.552 161.709 141.264 161.709C141.976 161.709 142.517 161.979 142.888 162.521C143.258 163.056 143.444 163.844 143.444 164.885C143.444 165.926 143.258 166.718 142.888 167.259C142.517 167.8 141.976 168.071 141.264 168.071ZM141.264 167.462C141.758 167.462 142.123 167.253 142.358 166.835C142.594 166.418 142.711 165.768 142.711 164.885C142.711 163.997 142.594 163.35 142.358 162.944C142.129 162.532 141.764 162.326 141.264 162.326C140.77 162.326 140.405 162.532 140.17 162.944C139.935 163.356 139.817 164.003 139.817 164.885C139.817 165.768 139.935 166.418 140.17 166.835C140.405 167.253 140.77 167.462 141.264 167.462Z" fill="#999999"/>
<path d="M186.538 164.091C186.914 164.091 187.249 164.174 187.543 164.338C187.838 164.503 188.067 164.735 188.232 165.035C188.396 165.335 188.479 165.679 188.479 166.068C188.479 166.45 188.393 166.794 188.223 167.1C188.052 167.406 187.814 167.644 187.508 167.815C187.202 167.985 186.858 168.071 186.476 168.071C185.723 168.071 185.14 167.809 184.729 167.285C184.323 166.762 184.12 166.015 184.12 165.044C184.12 164.344 184.214 163.744 184.402 163.244C184.596 162.744 184.873 162.365 185.232 162.106C185.59 161.841 186.02 161.709 186.52 161.709C186.879 161.709 187.229 161.776 187.57 161.912C187.911 162.041 188.211 162.229 188.47 162.476L188.196 163.032C187.902 162.785 187.62 162.606 187.349 162.494C187.085 162.376 186.814 162.318 186.538 162.318C186.002 162.318 185.585 162.556 185.285 163.032C184.99 163.503 184.843 164.171 184.843 165.035V165.168C184.979 164.838 185.196 164.576 185.496 164.382C185.796 164.188 186.143 164.091 186.538 164.091ZM186.44 167.462C186.84 167.462 187.161 167.335 187.402 167.082C187.643 166.829 187.764 166.494 187.764 166.076C187.764 165.665 187.64 165.332 187.393 165.079C187.152 164.826 186.832 164.7 186.432 164.7C186.026 164.7 185.693 164.829 185.435 165.088C185.182 165.341 185.055 165.671 185.055 166.076C185.055 166.488 185.182 166.824 185.435 167.082C185.693 167.335 186.029 167.462 186.44 167.462ZM191.555 168.071C190.843 168.071 190.302 167.8 189.931 167.259C189.561 166.718 189.375 165.929 189.375 164.894C189.375 163.853 189.561 163.062 189.931 162.521C190.302 161.979 190.843 161.709 191.555 161.709C192.267 161.709 192.808 161.979 193.178 162.521C193.549 163.056 193.734 163.844 193.734 164.885C193.734 165.926 193.549 166.718 193.178 167.259C192.808 167.8 192.267 168.071 191.555 168.071ZM191.555 167.462C192.049 167.462 192.414 167.253 192.649 166.835C192.884 166.418 193.002 165.768 193.002 164.885C193.002 163.997 192.884 163.35 192.649 162.944C192.42 162.532 192.055 162.326 191.555 162.326C191.061 162.326 190.696 162.532 190.461 162.944C190.225 163.356 190.108 164.003 190.108 164.885C190.108 165.768 190.225 166.418 190.461 166.835C190.696 167.253 191.061 167.462 191.555 167.462Z" fill="#999999"/>
<path d="M236.756 164.806C237.121 164.918 237.403 165.109 237.603 165.379C237.809 165.65 237.912 165.974 237.912 166.35C237.912 166.885 237.718 167.306 237.33 167.612C236.941 167.912 236.391 168.062 235.68 168.062C234.968 168.062 234.418 167.912 234.03 167.612C233.641 167.306 233.447 166.885 233.447 166.35C233.447 165.968 233.55 165.641 233.756 165.371C233.962 165.1 234.247 164.912 234.612 164.806C234.3 164.688 234.053 164.503 233.871 164.25C233.688 163.997 233.597 163.7 233.597 163.359C233.597 162.853 233.78 162.453 234.144 162.159C234.515 161.859 235.027 161.709 235.68 161.709C236.333 161.709 236.841 161.859 237.206 162.159C237.577 162.453 237.762 162.853 237.762 163.359C237.762 163.7 237.671 164 237.488 164.259C237.306 164.512 237.062 164.694 236.756 164.806ZM234.312 163.412C234.312 163.776 234.427 164.056 234.656 164.25C234.891 164.444 235.233 164.541 235.68 164.541C236.127 164.541 236.465 164.444 236.694 164.25C236.93 164.056 237.047 163.776 237.047 163.412C237.047 163.065 236.93 162.794 236.694 162.6C236.465 162.406 236.127 162.309 235.68 162.309C235.233 162.309 234.891 162.406 234.656 162.6C234.427 162.794 234.312 163.065 234.312 163.412ZM235.68 167.462C236.691 167.462 237.197 167.076 237.197 166.306C237.197 165.535 236.691 165.15 235.68 165.15C234.668 165.15 234.162 165.535 234.162 166.306C234.162 167.076 234.668 167.462 235.68 167.462ZM240.97 168.071C240.259 168.071 239.717 167.8 239.347 167.259C238.976 166.718 238.791 165.929 238.791 164.894C238.791 163.853 238.976 163.062 239.347 162.521C239.717 161.979 240.259 161.709 240.97 161.709C241.682 161.709 242.223 161.979 242.594 162.521C242.964 163.056 243.15 163.844 243.15 164.885C243.15 165.926 242.964 166.718 242.594 167.259C242.223 167.8 241.682 168.071 240.97 168.071ZM240.97 167.462C241.464 167.462 241.829 167.253 242.064 166.835C242.3 166.418 242.417 165.768 242.417 164.885C242.417 163.997 242.3 163.35 242.064 162.944C241.835 162.532 241.47 162.326 240.97 162.326C240.476 162.326 240.111 162.532 239.876 162.944C239.641 163.356 239.523 164.003 239.523 164.885C239.523 165.768 239.641 166.418 239.876 166.835C240.111 167.253 240.476 167.462 240.97 167.462Z" fill="#999999"/>
<path d="M278.361 167.391H279.728V168H276.27V167.391H277.637V162.679L276.543 163.368L276.208 162.812L277.84 161.779H278.361V167.391ZM283.06 168.071C282.349 168.071 281.807 167.8 281.437 167.259C281.066 166.718 280.881 165.929 280.881 164.894C280.881 163.853 281.066 163.062 281.437 162.521C281.807 161.979 282.349 161.709 283.06 161.709C283.772 161.709 284.313 161.979 284.684 162.521C285.054 163.056 285.24 163.844 285.24 164.885C285.24 165.926 285.054 166.718 284.684 167.259C284.313 167.8 283.772 168.071 283.06 168.071ZM283.06 167.462C283.554 167.462 283.919 167.253 284.154 166.835C284.39 166.418 284.507 165.768 284.507 164.885C284.507 163.997 284.39 163.35 284.154 162.944C283.925 162.532 283.56 162.326 283.06 162.326C282.566 162.326 282.201 162.532 281.966 162.944C281.731 163.356 281.613 164.003 281.613 164.885C281.613 165.768 281.731 166.418 281.966 166.835C282.201 167.253 282.566 167.462 283.06 167.462ZM288.351 168.071C287.639 168.071 287.098 167.8 286.727 167.259C286.357 166.718 286.172 165.929 286.172 164.894C286.172 163.853 286.357 163.062 286.727 162.521C287.098 161.979 287.639 161.709 288.351 161.709C289.063 161.709 289.604 161.979 289.975 162.521C290.345 163.056 290.53 163.844 290.53 164.885C290.53 165.926 290.345 166.718 289.975 167.259C289.604 167.8 289.063 168.071 288.351 168.071ZM288.351 167.462C288.845 167.462 289.21 167.253 289.445 166.835C289.68 166.418 289.798 165.768 289.798 164.885C289.798 163.997 289.68 163.35 289.445 162.944C289.216 162.532 288.851 162.326 288.351 162.326C287.857 162.326 287.492 162.532 287.257 162.944C287.022 163.356 286.904 164.003 286.904 164.885C286.904 165.768 287.022 166.418 287.257 166.835C287.492 167.253 287.857 167.462 288.351 167.462Z" fill="#999999"/>
<path d="M39.825 168.071C39.1132 168.071 38.572 167.8 38.2014 167.259C37.8308 166.718 37.6456 165.929 37.6456 164.894C37.6456 163.853 37.8308 163.062 38.2014 162.521C38.572 161.979 39.1132 161.709 39.825 161.709C40.5367 161.709 41.0779 161.979 41.4485 162.521C41.8191 163.056 42.0044 163.844 42.0044 164.885C42.0044 165.926 41.8191 166.718 41.4485 167.259C41.0779 167.8 40.5367 168.071 39.825 168.071ZM39.825 167.462C40.3191 167.462 40.6838 167.253 40.9191 166.835C41.1544 166.418 41.272 165.768 41.272 164.885C41.272 163.997 41.1544 163.35 40.9191 162.944C40.6897 162.532 40.325 162.326 39.825 162.326C39.3308 162.326 38.9661 162.532 38.7308 162.944C38.4956 163.356 38.3779 164.003 38.3779 164.885C38.3779 165.768 38.4956 166.418 38.7308 166.835C38.9661 167.253 39.3308 167.462 39.825 167.462Z" fill="#999999"/>
<path d="M47.5251 47.4707L46.7107 45.5781H42.7763L41.9619 47.4707H40.4707L44.1298 39.3839H45.3342L48.9934 47.4707H47.5251ZM43.2581 44.431H46.2175L44.7378 40.9898L43.2581 44.431ZM53.3504 41.8731H54.7613L52.3066 47.4707H51.0563L48.6245 41.8731H50.1386L51.7216 45.8304L53.3504 41.8731ZM60.285 44.9242H56.4653C56.5112 45.4442 56.6679 45.8304 56.9356 46.0828C57.2032 46.3351 57.5856 46.4613 58.0826 46.4613C58.702 46.4613 59.2679 46.2625 59.7803 45.8648L60.1932 46.8513C59.9332 47.0654 59.6044 47.2375 59.2067 47.3675C58.8167 47.4975 58.4229 47.5625 58.0253 47.5625C57.1076 47.5625 56.3812 47.3025 55.8459 46.7825C55.3182 46.2625 55.0544 45.5513 55.0544 44.6489C55.0544 44.0754 55.1691 43.5669 55.3985 43.1233C55.6279 42.6798 55.9491 42.3357 56.362 42.091C56.7826 41.8463 57.2567 41.7239 57.7844 41.7239C58.5567 41.7239 59.1647 41.9725 59.6082 42.4695C60.0594 42.9666 60.285 43.651 60.285 44.5228V44.9242ZM57.8188 42.7333C57.4365 42.7333 57.1267 42.8557 56.8897 43.1004C56.6603 43.3451 56.5188 43.6969 56.4653 44.1557H59.0576C59.0423 43.6892 58.9276 43.3375 58.7135 43.1004C58.4994 42.8557 58.2012 42.7333 57.8188 42.7333ZM65.1514 42.9169L64.314 42.9972C63.3658 43.0966 62.8917 43.5784 62.8917 44.4425V47.4707H61.4578V41.8616H62.8228V42.8481C63.1134 42.1751 63.7137 41.8081 64.6237 41.7469L65.0596 41.7125L65.1514 42.9169ZM68.2354 41.7239C69.023 41.7239 69.608 41.9151 69.9904 42.2975C70.3727 42.6798 70.5639 43.2686 70.5639 44.0639V47.4707H69.1989V46.6104C69.0689 46.9086 68.8624 47.1419 68.5795 47.3101C68.3042 47.4784 67.983 47.5625 67.6159 47.5625C67.2412 47.5625 66.9009 47.486 66.5951 47.3331C66.2892 47.1801 66.0483 46.9698 65.8724 46.7022C65.6965 46.4345 65.6086 46.1363 65.6086 45.8075C65.6086 45.3945 65.7118 45.0695 65.9183 44.8325C66.1324 44.5954 66.4765 44.4233 66.9506 44.3163C67.4248 44.2092 68.0786 44.1557 68.9121 44.1557H69.1989V43.8919C69.1989 43.5095 69.1148 43.2342 68.9465 43.066C68.7859 42.8978 68.5145 42.8136 68.1321 42.8136C67.8339 42.8136 67.5204 42.8672 67.1915 42.9742C66.8704 43.0736 66.553 43.2151 66.2395 43.3986L65.838 42.4122C66.1515 42.2133 66.5301 42.0489 66.9736 41.9189C67.4171 41.7889 67.8377 41.7239 68.2354 41.7239ZM67.9027 46.5301C68.2851 46.5301 68.5948 46.4039 68.8318 46.1516C69.0765 45.8916 69.1989 45.5589 69.1989 45.1536V44.9128H68.9924C68.4801 44.9128 68.0824 44.9357 67.7995 44.9816C67.5165 45.0275 67.3139 45.1078 67.1915 45.2225C67.0692 45.3372 67.008 45.4939 67.008 45.6928C67.008 45.9375 67.0921 46.1401 67.2604 46.3007C67.4286 46.4536 67.6427 46.5301 67.9027 46.5301ZM77.4811 41.8616V46.9545C77.4811 47.8339 77.2364 48.4992 76.747 48.9504C76.2652 49.4016 75.5502 49.6272 74.602 49.6272C74.1126 49.6272 73.6423 49.5622 73.1911 49.4322C72.7399 49.3098 72.3461 49.1339 72.0096 48.9045L72.4111 47.8951C73.107 48.3157 73.8258 48.526 74.5676 48.526C75.5617 48.526 76.0587 48.0366 76.0587 47.0578V46.3236C75.8905 46.6372 75.6458 46.8819 75.3246 47.0578C75.0034 47.226 74.6364 47.3101 74.2234 47.3101C73.734 47.3101 73.2982 47.1954 72.9158 46.966C72.5411 46.7289 72.2467 46.4001 72.0326 45.9795C71.8184 45.5589 71.7114 45.0734 71.7114 44.5228C71.7114 43.9722 71.8146 43.4866 72.0211 43.066C72.2352 42.6378 72.5334 42.3089 72.9158 42.0795C73.2982 41.8425 73.734 41.7239 74.2234 41.7239C74.6364 41.7239 75.0034 41.8119 75.3246 41.9878C75.6458 42.156 75.8905 42.3969 76.0587 42.7104V41.8616H77.4811ZM74.602 46.1975C75.0608 46.1975 75.4164 46.0484 75.6687 45.7501C75.9287 45.4519 76.0587 45.0428 76.0587 44.5228C76.0587 43.9951 75.9287 43.5822 75.6687 43.2839C75.4164 42.9857 75.0608 42.8366 74.602 42.8366C74.1508 42.8366 73.7952 42.9857 73.5352 43.2839C73.2752 43.5822 73.1452 43.9951 73.1452 44.5228C73.1452 45.0351 73.2752 45.4442 73.5352 45.7501C73.7952 46.0484 74.1508 46.1975 74.602 46.1975ZM83.8871 44.9242H80.0674C80.1132 45.4442 80.27 45.8304 80.5376 46.0828C80.8053 46.3351 81.1876 46.4613 81.6847 46.4613C82.3041 46.4613 82.87 46.2625 83.3824 45.8648L83.7953 46.8513C83.5353 47.0654 83.2065 47.2375 82.8088 47.3675C82.4188 47.4975 82.025 47.5625 81.6274 47.5625C80.7097 47.5625 79.9832 47.3025 79.4479 46.7825C78.9203 46.2625 78.6565 45.5513 78.6565 44.6489C78.6565 44.0754 78.7712 43.5669 79.0006 43.1233C79.23 42.6798 79.5512 42.3357 79.9641 42.091C80.3847 41.8463 80.8588 41.7239 81.3865 41.7239C82.1588 41.7239 82.7668 41.9725 83.2103 42.4695C83.6615 42.9666 83.8871 43.651 83.8871 44.5228V44.9242ZM81.4209 42.7333C81.0385 42.7333 80.7288 42.8557 80.4918 43.1004C80.2624 43.3451 80.1209 43.6969 80.0674 44.1557H82.6597C82.6444 43.6892 82.5297 43.3375 82.3156 43.1004C82.1015 42.8557 81.8032 42.7333 81.4209 42.7333ZM91.4317 41.7239C92.1046 41.7239 92.6055 41.9151 92.9343 42.2975C93.2631 42.6798 93.4275 43.2572 93.4275 44.0295V47.4707H91.9937V44.1098C91.9937 43.6739 91.9096 43.3566 91.7414 43.1578C91.5808 42.9589 91.3246 42.8595 90.9728 42.8595C90.5599 42.8595 90.2272 42.9895 89.9749 43.2495C89.7302 43.5095 89.6078 43.8575 89.6078 44.2933V47.4707H88.174V41.8616H89.5734V42.6989C89.7646 42.3854 90.0208 42.1445 90.342 41.9763C90.6631 41.8081 91.0264 41.7239 91.4317 41.7239ZM94.8839 47.4707V41.8616H96.3177V47.4707H94.8839ZM94.8036 39.2578H96.3865V40.6686H94.8036V39.2578ZM103.256 41.8616V46.9545C103.256 47.8339 103.012 48.4992 102.522 48.9504C102.04 49.4016 101.325 49.6272 100.377 49.6272C99.8878 49.6272 99.4175 49.5622 98.9663 49.4322C98.5151 49.3098 98.1213 49.1339 97.7848 48.9045L98.1863 47.8951C98.8822 48.3157 99.601 48.526 100.343 48.526C101.337 48.526 101.834 48.0366 101.834 47.0578V46.3236C101.666 46.6372 101.421 46.8819 101.1 47.0578C100.779 47.226 100.412 47.3101 99.9987 47.3101C99.5093 47.3101 99.0734 47.1954 98.691 46.966C98.3163 46.7289 98.0219 46.4001 97.8078 45.9795C97.5937 45.5589 97.4866 45.0734 97.4866 44.5228C97.4866 43.9722 97.5898 43.4866 97.7963 43.066C98.0104 42.6378 98.3087 42.3089 98.691 42.0795C99.0734 41.8425 99.5093 41.7239 99.9987 41.7239C100.412 41.7239 100.779 41.8119 101.1 41.9878C101.421 42.156 101.666 42.3969 101.834 42.7104V41.8616H103.256ZM100.377 46.1975C100.836 46.1975 101.192 46.0484 101.444 45.7501C101.704 45.4519 101.834 45.0428 101.834 44.5228C101.834 43.9951 101.704 43.5822 101.444 43.2839C101.192 42.9857 100.836 42.8366 100.377 42.8366C99.926 42.8366 99.5704 42.9857 99.3104 43.2839C99.0504 43.5822 98.9204 43.9951 98.9204 44.5228C98.9204 45.0351 99.0504 45.4442 99.3104 45.7501C99.5704 46.0484 99.926 46.1975 100.377 46.1975ZM107.999 41.7239C108.672 41.7239 109.173 41.9151 109.502 42.2975C109.831 42.6798 109.995 43.2572 109.995 44.0295V47.4707H108.561V44.1098C108.561 43.6739 108.477 43.3566 108.309 43.1578C108.148 42.9589 107.892 42.8595 107.54 42.8595C107.127 42.8595 106.795 42.9895 106.542 43.2495C106.298 43.5095 106.175 43.8575 106.175 44.2933V47.4707H104.741V39.3839H106.175V42.6416C106.366 42.3433 106.619 42.1178 106.932 41.9648C107.253 41.8042 107.609 41.7239 107.999 41.7239ZM114.319 46.4842C114.487 46.4842 114.663 46.4728 114.847 46.4498L114.778 47.5166C114.548 47.5395 114.338 47.551 114.147 47.551C113.359 47.551 112.778 47.3713 112.403 47.0119C112.029 46.6448 111.841 46.1019 111.841 45.3831V42.9398H110.763V41.8616H111.841V40.1869H113.275V41.8616H114.755V42.9398H113.275V45.3601C113.275 46.1095 113.623 46.4842 114.319 46.4842ZM115.686 47.4707V39.3839H117.119V47.4707H115.686ZM122.532 41.8731H123.943L120.571 49.5354H119.126L120.146 47.2528L117.806 41.8731H119.321L120.904 45.8304L122.532 41.8731ZM130.973 41.7239C131.455 41.7239 131.883 41.8463 132.258 42.091C132.64 42.3357 132.934 42.6836 133.141 43.1348C133.355 43.5783 133.462 44.0907 133.462 44.6719C133.462 45.2531 133.355 45.7616 133.141 46.1975C132.934 46.6334 132.644 46.9698 132.269 47.2069C131.894 47.4439 131.462 47.5625 130.973 47.5625C130.575 47.5625 130.22 47.4784 129.906 47.3101C129.593 47.1419 129.352 46.9086 129.184 46.6104V49.5354H127.75V41.8616H129.161V42.7104C129.329 42.3969 129.57 42.156 129.883 41.9878C130.204 41.8119 130.568 41.7239 130.973 41.7239ZM130.594 46.4498C131.046 46.4498 131.397 46.2969 131.65 45.991C131.902 45.6775 132.028 45.2378 132.028 44.6719C132.028 44.0907 131.902 43.6395 131.65 43.3183C131.397 42.9972 131.046 42.8366 130.594 42.8366C130.136 42.8366 129.78 42.9933 129.528 43.3069C129.283 43.6204 129.161 44.0678 129.161 44.6489C129.161 45.2225 129.283 45.666 129.528 45.9795C129.78 46.2931 130.136 46.4498 130.594 46.4498ZM138.332 42.9169L137.495 42.9972C136.547 43.0966 136.073 43.5784 136.073 44.4425V47.4707H134.639V41.8616H136.004V42.8481C136.294 42.1751 136.895 41.8081 137.805 41.7469L138.241 41.7125L138.332 42.9169ZM139.03 47.4707V41.8616H140.464V47.4707H139.03ZM138.95 39.2578H140.533V40.6686H138.95V39.2578ZM144.5 47.5625C143.912 47.5625 143.399 47.4439 142.963 47.2069C142.535 46.9698 142.206 46.6334 141.977 46.1975C141.747 45.7616 141.633 45.2531 141.633 44.6719C141.633 44.0907 141.751 43.5783 141.988 43.1348C142.233 42.6836 142.577 42.3357 143.021 42.091C143.464 41.8463 143.977 41.7239 144.558 41.7239C144.955 41.7239 145.342 41.7889 145.716 41.9189C146.099 42.0413 146.404 42.2095 146.634 42.4236L146.221 43.4331C145.984 43.2419 145.732 43.0966 145.464 42.9972C145.204 42.8978 144.944 42.8481 144.684 42.8481C144.187 42.8481 143.801 43.0048 143.525 43.3183C143.25 43.6242 143.112 44.0678 143.112 44.6489C143.112 45.2225 143.25 45.666 143.525 45.9795C143.801 46.2854 144.187 46.4384 144.684 46.4384C144.944 46.4384 145.204 46.3886 145.464 46.2892C145.732 46.1898 145.984 46.0445 146.221 45.8534L146.634 46.8513C146.389 47.0731 146.076 47.2489 145.693 47.3789C145.311 47.5013 144.913 47.5625 144.5 47.5625ZM152.464 44.9242H148.644C148.69 45.4442 148.847 45.8304 149.115 46.0828C149.382 46.3351 149.765 46.4613 150.262 46.4613C150.881 46.4613 151.447 46.2625 151.959 45.8648L152.372 46.8513C152.112 47.0654 151.784 47.2375 151.386 47.3675C150.996 47.4975 150.602 47.5625 150.204 47.5625C149.287 47.5625 148.56 47.3025 148.025 46.7825C147.497 46.2625 147.234 45.5513 147.234 44.6489C147.234 44.0754 147.348 43.5669 147.578 43.1233C147.807 42.6798 148.128 42.3357 148.541 42.091C148.962 41.8463 149.436 41.7239 149.964 41.7239C150.736 41.7239 151.344 41.9725 151.787 42.4695C152.239 42.9666 152.464 43.651 152.464 44.5228V44.9242ZM149.998 42.7333C149.616 42.7333 149.306 42.8557 149.069 43.1004C148.839 43.3451 148.698 43.6969 148.644 44.1557H151.237C151.222 43.6892 151.107 43.3375 150.893 43.1004C150.679 42.8557 150.38 42.7333 149.998 42.7333ZM153.511 41.8616H155.117V43.4445H153.511V41.8616ZM153.511 45.8878H155.117V47.4707H153.511V45.8878ZM165.343 45.1766C165.343 45.7884 165.129 46.3084 164.701 46.7366C164.273 47.1572 163.703 47.421 162.992 47.5281V48.7898H161.822V47.551C161.309 47.5128 160.835 47.4134 160.399 47.2528C159.971 47.0922 159.596 46.8781 159.275 46.6104L159.768 45.5436C160.158 45.8342 160.552 46.0484 160.95 46.186C161.355 46.3236 161.791 46.3925 162.258 46.3925C162.778 46.3925 163.175 46.2931 163.45 46.0942C163.733 45.8954 163.875 45.6086 163.875 45.2339C163.875 45.0122 163.798 44.8325 163.645 44.6948C163.493 44.5572 163.301 44.4501 163.072 44.3736C162.85 44.2895 162.533 44.1939 162.12 44.0869C161.539 43.9416 161.068 43.7963 160.709 43.651C160.35 43.4981 160.04 43.2686 159.78 42.9628C159.52 42.6492 159.39 42.2325 159.39 41.7125C159.39 41.1007 159.612 40.5769 160.055 40.141C160.506 39.7051 161.088 39.4336 161.799 39.3266V38.0648H162.969V39.3151C163.405 39.3686 163.818 39.4757 164.208 39.6363C164.605 39.7969 164.934 39.9957 165.194 40.2328L164.701 41.2995C163.99 40.7413 163.229 40.4622 162.418 40.4622C161.944 40.4622 161.565 40.5654 161.283 40.7719C161.007 40.9783 160.87 41.2651 160.87 41.6322C160.87 41.8845 160.95 42.091 161.11 42.2516C161.271 42.4045 161.474 42.5269 161.718 42.6186C161.971 42.7104 162.307 42.806 162.728 42.9054C163.286 43.0431 163.737 43.1845 164.081 43.3298C164.433 43.4675 164.731 43.6854 164.976 43.9836C165.221 44.2819 165.343 44.6795 165.343 45.1766ZM172.301 44.7407V45.8878H171.166V47.4707H169.72V45.8878H166.21V44.7981L169.973 39.3839H171.166V44.7407H172.301ZM167.587 44.7407H169.72V41.6551L167.587 44.7407ZM178.881 46.2778V47.4707H173.444V46.381L176.197 43.4216C176.518 43.0698 176.751 42.7486 176.897 42.4581C177.049 42.1598 177.126 41.8654 177.126 41.5748C177.126 41.2078 177.019 40.9325 176.805 40.7489C176.598 40.5578 176.292 40.4622 175.887 40.4622C175.161 40.4622 174.43 40.7413 173.696 41.2995L173.203 40.2213C173.524 39.9383 173.933 39.7128 174.43 39.5445C174.935 39.3686 175.44 39.2807 175.944 39.2807C176.755 39.2807 177.397 39.4795 177.872 39.8772C178.346 40.2748 178.583 40.8101 178.583 41.4831C178.583 41.9495 178.483 42.3892 178.284 42.8022C178.086 43.2075 177.749 43.6625 177.275 44.1672L175.291 46.2778H178.881Z" fill="#333333"/>
<rect x="314" y="149.294" width="300" height="1.76471" transform="rotate(-180 314 149.294)" fill="black" fill-opacity="0.1"/>
<g filter="url(#filter1_d_1912_56961)">
<circle cx="255.765" cy="148.412" r="7.05882" fill="white"/>
<circle cx="255.765" cy="148.412" r="7.05882" stroke="black" stroke-opacity="0.1" stroke-width="0.882353"/>
</g>
<rect x="254" y="144.883" width="0.882353" height="7.05882" rx="0.441176" fill="#CCCCCC"/>
<rect x="256.647" y="144.883" width="0.882353" height="7.05882" rx="0.441176" fill="#CCCCCC"/>
<g filter="url(#filter2_d_1912_56961)">
<circle cx="40.47" cy="148.412" r="7.05882" fill="white"/>
<circle cx="40.47" cy="148.412" r="7.05882" stroke="black" stroke-opacity="0.1" stroke-width="0.882353"/>
</g>
<rect x="38.7051" y="144.883" width="0.882353" height="7.05882" rx="0.441176" fill="#CCCCCC"/>
<rect x="41.3525" y="144.883" width="0.882353" height="7.05882" rx="0.441176" fill="#CCCCCC"/>
<defs>
<filter id="filter0_dd_1912_56961" x="0.764706" y="0.17647" width="326.471" height="267.353" filterUnits="userSpaceOnUse" color-interpolation-filters="sRGB">
<feFlood flood-opacity="0" result="BackgroundImageFix"/>
<feColorMatrix in="SourceAlpha" type="matrix" values="0 0 0 0 0 0 0 0 0 0 0 0 0 0 0 0 0 0 127 0" result="hardAlpha"/>
<feOffset dy="4.41176"/>
<feGaussianBlur stdDeviation="6.61765"/>
<feColorMatrix type="matrix" values="0 0 0 0 0 0 0 0 0 0 0 0 0 0 0 0 0 0 0.1 0"/>
<feBlend mode="normal" in2="BackgroundImageFix" result="effect1_dropShadow_1912_56961"/>
<feColorMatrix in="SourceAlpha" type="matrix" values="0 0 0 0 0 0 0 0 0 0 0 0 0 0 0 0 0 0 127 0" result="hardAlpha"/>
<feOffset dy="0.882353"/>
<feGaussianBlur stdDeviation="1.32353"/>
<feColorMatrix type="matrix" values="0 0 0 0 0 0 0 0 0 0 0 0 0 0 0 0 0 0 0.05 0"/>
<feBlend mode="normal" in2="effect1_dropShadow_1912_56961" result="effect2_dropShadow_1912_56961"/>
<feBlend mode="normal" in="SourceGraphic" in2="effect2_dropShadow_1912_56961" result="shape"/>
</filter>
<filter id="filter1_d_1912_56961" x="245.618" y="139.147" width="20.2941" height="20.2941" filterUnits="userSpaceOnUse" color-interpolation-filters="sRGB">
<feFlood flood-opacity="0" result="BackgroundImageFix"/>
<feColorMatrix in="SourceAlpha" type="matrix" values="0 0 0 0 0 0 0 0 0 0 0 0 0 0 0 0 0 0 127 0" result="hardAlpha"/>
<feOffset dy="0.882353"/>
<feGaussianBlur stdDeviation="1.32353"/>
<feColorMatrix type="matrix" values="0 0 0 0 0 0 0 0 0 0 0 0 0 0 0 0 0 0 0.1 0"/>
<feBlend mode="normal" in2="BackgroundImageFix" result="effect1_dropShadow_1912_56961"/>
<feBlend mode="normal" in="SourceGraphic" in2="effect1_dropShadow_1912_56961" result="shape"/>
</filter>
<filter id="filter2_d_1912_56961" x="30.3227" y="139.147" width="20.2941" height="20.2941" filterUnits="userSpaceOnUse" color-interpolation-filters="sRGB">
<feFlood flood-opacity="0" result="BackgroundImageFix"/>
<feColorMatrix in="SourceAlpha" type="matrix" values="0 0 0 0 0 0 0 0 0 0 0 0 0 0 0 0 0 0 127 0" result="hardAlpha"/>
<feOffset dy="0.882353"/>
<feGaussianBlur stdDeviation="1.32353"/>
<feColorMatrix type="matrix" values="0 0 0 0 0 0 0 0 0 0 0 0 0 0 0 0 0 0 0.1 0"/>
<feBlend mode="normal" in2="BackgroundImageFix" result="effect1_dropShadow_1912_56961"/>
<feBlend mode="normal" in="SourceGraphic" in2="effect1_dropShadow_1912_56961" result="shape"/>
</filter>
<linearGradient id="paint0_linear_1912_56961" x1="164" y1="9" x2="164" y2="147.529" gradientUnits="userSpaceOnUse">
<stop stop-color="#E7FBFB"/>
<stop offset="1" stop-color="#F4F8FA"/>
</linearGradient>
<linearGradient id="paint1_linear_1912_56961" x1="-1.8984" y1="0.785247" x2="-1.8574" y2="7.43187" gradientUnits="userSpaceOnUse">
<stop stop-color="#FA8961"/>
<stop offset="1" stop-color="#FFBD58"/>
</linearGradient>
<linearGradient id="paint2_linear_1912_56961" x1="-1.8984" y1="1.76492" x2="-1.69133" y2="16.7015" gradientUnits="userSpaceOnUse">
<stop stop-color="#FA8961"/>
<stop offset="1" stop-color="#FFBD58"/>
</linearGradient>
<linearGradient id="paint3_linear_1912_56961" x1="-1.8984" y1="1.41193" x2="-1.76587" y2="13.362" gradientUnits="userSpaceOnUse">
<stop stop-color="#FA8961"/>
<stop offset="1" stop-color="#FFBD58"/>
</linearGradient>
<linearGradient id="paint4_linear_1912_56961" x1="-1.8984" y1="2.64737" x2="-1.43261" y2="25.0469" gradientUnits="userSpaceOnUse">
<stop stop-color="#FA8961"/>
<stop offset="1" stop-color="#FFBD58"/>
</linearGradient>
<linearGradient id="paint5_linear_1912_56961" x1="-1.8984" y1="1.76492" x2="-1.69133" y2="16.7015" gradientUnits="userSpaceOnUse">
<stop stop-color="#FA8961"/>
<stop offset="1" stop-color="#FFBD58"/>
</linearGradient>
<linearGradient id="paint6_linear_1912_56961" x1="-1.8984" y1="1.58842" x2="-1.73067" y2="15.0319" gradientUnits="userSpaceOnUse">
<stop stop-color="#FA8961"/>
<stop offset="1" stop-color="#FFBD58"/>
</linearGradient>
<linearGradient id="paint7_linear_1912_56961" x1="-1.8984" y1="3.17685" x2="-1.22779" y2="30.0512" gradientUnits="userSpaceOnUse">
<stop stop-color="#FA8961"/>
<stop offset="1" stop-color="#FFBD58"/>
</linearGradient>
<linearGradient id="paint8_linear_1912_56961" x1="-1.8984" y1="3.88282" x2="-0.896936" y2="36.7191" gradientUnits="userSpaceOnUse">
<stop stop-color="#FA8961"/>
<stop offset="1" stop-color="#FFBD58"/>
</linearGradient>
<linearGradient id="paint9_linear_1912_56961" x1="-1.8984" y1="6.70668" x2="1.08394" y2="63.3196" gradientUnits="userSpaceOnUse">
<stop stop-color="#FA8961"/>
<stop offset="1" stop-color="#FFBD58"/>
</linearGradient>
<linearGradient id="paint10_linear_1912_56961" x1="-1.8984" y1="8.82458" x2="3.25451" y2="83.1647" gradientUnits="userSpaceOnUse">
<stop stop-color="#FA8961"/>
<stop offset="1" stop-color="#FFBD58"/>
</linearGradient>
<linearGradient id="paint11_linear_1912_56961" x1="-1.8984" y1="10.5895" x2="5.50621" y2="99.6104" gradientUnits="userSpaceOnUse">
<stop stop-color="#FA8961"/>
<stop offset="1" stop-color="#FFBD58"/>
</linearGradient>
<linearGradient id="paint12_linear_1912_56961" x1="-1.8984" y1="6.00072" x2="0.490445" y2="56.6823" gradientUnits="userSpaceOnUse">
<stop stop-color="#FA8961"/>
<stop offset="1" stop-color="#FFBD58"/>
</linearGradient>
<linearGradient id="paint13_linear_1912_56961" x1="-1.8984" y1="3.17685" x2="-1.22779" y2="30.0512" gradientUnits="userSpaceOnUse">
<stop stop-color="#FA8961"/>
<stop offset="1" stop-color="#FFBD58"/>
</linearGradient>
<linearGradient id="paint14_linear_1912_56961" x1="-1.8984" y1="3.88282" x2="-0.896936" y2="36.7191" gradientUnits="userSpaceOnUse">
<stop stop-color="#FA8961"/>
<stop offset="1" stop-color="#FFBD58"/>
</linearGradient>
<linearGradient id="paint15_linear_1912_56961" x1="-1.84087" y1="2.11041" x2="-1.53558" y2="19.9692" gradientUnits="userSpaceOnUse">
<stop stop-color="#E2E2E2"/>
<stop offset="1" stop-color="#F0F0F0"/>
</linearGradient>
<linearGradient id="paint16_linear_1912_56961" x1="-1.95593" y1="2.60698" x2="-1.51751" y2="24.6655" gradientUnits="userSpaceOnUse">
<stop stop-color="#E2E2E2"/>
<stop offset="1" stop-color="#F0F0F0"/>
</linearGradient>
</defs>
</svg>
