<svg width="180" height="180" fill="none" xmlns="http://www.w3.org/2000/svg"><path d="m83.15 30-.5-1.15h-2.4l-.5 1.15H78.6l2.38-5.18h.92L84.28 30h-1.13Zm-2.53-2.01h1.66l-.83-1.94-.83 1.94ZM90.02 30.07c-.72 0-1.28-.19-1.66-.56-.38-.38-.56-.93-.56-1.65v-3.04h1.12v3.1c0 .4.1.72.28.93.2.22.47.33.82.33.36 0 .63-.11.83-.33.19-.22.28-.53.28-.94v-3.1h1.13v3.05c0 .72-.2 1.26-.58 1.64-.38.38-.93.57-1.66.57ZM100.86 27.14v2.54a5.23 5.23 0 0 1-1.93.39c-.54 0-1.02-.1-1.42-.32-.4-.22-.71-.52-.93-.92-.21-.4-.32-.88-.32-1.42 0-.54.1-1.01.32-1.4.21-.41.52-.72.92-.93.4-.22.86-.33 1.38-.33.38 0 .72.05 1.04.16.32.1.6.24.8.42l-.36.82c-.24-.17-.47-.3-.7-.37a2.22 2.22 0 0 0-.74-.12c-1 0-1.5.58-1.5 1.75 0 .6.13 1.04.4 1.33.25.3.64.44 1.17.44.28 0 .56-.03.84-.1v-1.14h-1.01v-.8h2.04Z" fill="#47366C"/><path fill-rule="evenodd" clip-rule="evenodd" d="m26.47 27.43 3.25-3a.4.4 0 0 1 .54 0c.14.14.14.36 0 .5l-2.99 2.75 2.99 2.74c.14.14.14.36 0 .5a.4.4 0 0 1-.54 0l-3.25-3a.33.33 0 0 1-.11-.24c0-.1.04-.18.11-.25Z" fill="#666"/><mask id="a" style="mask-type:alpha" maskUnits="userSpaceOnUse" x="26" y="24" width="5" height="8"><path fill-rule="evenodd" clip-rule="evenodd" d="m26.47 27.43 3.25-3a.4.4 0 0 1 .54 0c.14.14.14.36 0 .5l-2.99 2.75 2.99 2.74c.14.14.14.36 0 .5a.4.4 0 0 1-.54 0l-3.25-3a.33.33 0 0 1-.11-.24c0-.1.04-.18.11-.25Z" fill="#fff"/></mask><g mask="url(#a)"><path fill="#666" d="M25.02 23.67h8.02v8.02h-8.02z"/></g><path fill-rule="evenodd" clip-rule="evenodd" d="m153.53 27.92-3.25 3a.4.4 0 0 1-.54 0 .33.33 0 0 1 0-.5l2.99-2.74-2.99-2.75a.33.33 0 0 1 0-.5.4.4 0 0 1 .54 0l3.25 3c.07.07.11.16.11.25s-.04.17-.11.24Z" fill="#666"/><mask id="b" style="mask-type:alpha" maskUnits="userSpaceOnUse" x="149" y="24" width="5" height="8"><path fill-rule="evenodd" clip-rule="evenodd" d="m153.53 27.92-3.25 3a.4.4 0 0 1-.54 0 .33.33 0 0 1 0-.5l2.99-2.74-2.99-2.75a.33.33 0 0 1 0-.5.4.4 0 0 1 .54 0l3.25 3c.07.07.11.16.11.25s-.04.17-.11.24Z" fill="#fff"/></mask><g mask="url(#b)"><path fill="#666" d="M146.96 23.67h8.02v8.02h-8.02z"/></g><g clip-path="url(#c)"><path d="M27.17 47.43c-.36 0-.7-.05-1.03-.14-.33-.1-.6-.23-.82-.4l.33-.74c.46.31.97.47 1.53.47.3 0 .52-.04.68-.14.16-.1.24-.23.24-.4 0-.15-.07-.27-.22-.35-.14-.09-.4-.17-.77-.25a4.34 4.34 0 0 1-1-.3 1.34 1.34 0 0 1-.54-.45c-.1-.18-.16-.4-.16-.65 0-.29.08-.54.23-.77.16-.22.38-.4.67-.52.28-.13.61-.19.99-.19.33 0 .65.05.96.15.31.1.56.23.74.4l-.33.73a2.27 2.27 0 0 0-1.37-.47c-.27 0-.48.05-.64.16a.48.48 0 0 0-.23.43c0 .1.03.2.09.26a.8.8 0 0 0 .3.18c.14.06.34.11.6.17.6.13 1.04.3 1.3.52.27.2.4.5.4.86 0 .45-.17.8-.51 1.06-.35.25-.82.38-1.44.38ZM32.95 44.09v3.28h-.98v-.47c-.1.17-.24.3-.4.39-.17.09-.36.13-.57.13-.41 0-.72-.11-.93-.34-.2-.23-.3-.58-.3-1.04V44.1h1.01v1.97c0 .2.04.34.12.43.09.1.21.15.38.15a.6.6 0 0 0 .48-.2c.12-.14.18-.31.18-.53v-1.82h1.01ZM49.08 42.66h.8v4.71h-.9v-2.8l-1.1 2.03h-.66l-1.08-2v2.77h-.92v-4.71h.82l1.52 2.88 1.52-2.88ZM52.33 47.42c-.35 0-.65-.07-.92-.2a1.5 1.5 0 0 1-.6-.6 1.85 1.85 0 0 1-.22-.9c0-.35.07-.65.22-.9.14-.27.34-.47.6-.6.27-.14.57-.21.92-.21.35 0 .65.07.91.2.27.14.47.34.61.6.15.26.22.56.22.9 0 .35-.07.65-.22.91a1.5 1.5 0 0 1-.6.6c-.27.13-.57.2-.92.2Zm0-.76c.49 0 .73-.32.73-.95 0-.31-.06-.55-.19-.7-.12-.16-.3-.24-.54-.24-.49 0-.74.32-.74.94 0 .63.25.95.74.95ZM67.45 47.37v-3.86h-1.48v-.85h4v.85h-1.48v3.86h-1.04ZM73.06 44.09v3.28h-.98v-.47c-.1.17-.24.3-.41.39-.17.09-.35.13-.56.13-.42 0-.73-.11-.93-.34-.2-.23-.3-.58-.3-1.04V44.1h1v1.97c0 .2.05.34.13.43.08.1.2.15.38.15a.6.6 0 0 0 .47-.2c.13-.14.19-.31.19-.53v-1.82h1ZM91.69 42.66h.99L91 47.37h-.83l-1.1-3.12-1.1 3.12h-.83l-1.67-4.71h1.05l1.08 3.25 1.14-3.25h.73l1.1 3.29 1.12-3.29ZM95.74 45.92H93.6c.04.26.12.45.26.57.14.12.34.18.6.18a1.62 1.62 0 0 0 .96-.32l.27.67c-.16.13-.36.23-.59.3-.23.07-.46.1-.69.1-.55 0-.99-.15-1.3-.45-.32-.3-.48-.72-.48-1.25 0-.33.07-.63.2-.89a1.6 1.6 0 0 1 1.41-.82c.46 0 .83.15 1.1.45.27.3.4.7.4 1.21v.25Zm-1.47-1.22a.6.6 0 0 0-.46.2.91.91 0 0 0-.2.52h1.28a.86.86 0 0 0-.18-.54c-.1-.12-.25-.18-.44-.18ZM108.48 47.37v-3.86H107v-.85h4v.85h-1.48v3.86h-1.04ZM113.52 44.01c.4 0 .69.12.88.35.19.22.28.57.28 1.03v1.98h-1v-1.93c0-.22-.05-.39-.13-.49-.08-.1-.2-.15-.38-.15-.21 0-.38.06-.51.2a.75.75 0 0 0-.19.53v1.84h-1v-4.71h1v1.86c.12-.17.27-.3.44-.38.19-.09.39-.13.61-.13ZM127.72 47.37v-4.71h3.18v.82h-2.16v1.08h2.02v.83h-2.02v1.98h-1.03ZM133.74 44.84l-.57.06c-.28.02-.48.1-.6.24a.75.75 0 0 0-.17.52v1.71h-1v-3.28h.96v.55c.17-.37.5-.58 1.02-.62l.3-.02.06.84ZM148.4 47.43c-.35 0-.69-.05-1.02-.14-.33-.1-.6-.23-.82-.4l.33-.74c.46.31.97.47 1.53.47.3 0 .52-.04.68-.14.16-.1.24-.23.24-.4 0-.15-.08-.27-.22-.35-.15-.09-.4-.17-.77-.25a4.33 4.33 0 0 1-1-.3 1.34 1.34 0 0 1-.54-.45c-.1-.18-.16-.4-.16-.65 0-.29.07-.54.23-.77.16-.22.38-.4.67-.52.28-.13.61-.19.99-.19.33 0 .65.05.96.15.31.1.56.23.74.4l-.33.73a2.27 2.27 0 0 0-1.37-.47c-.27 0-.48.05-.64.16a.49.49 0 0 0-.23.43c0 .1.03.2.08.26.07.07.17.13.3.18.15.06.35.11.6.17.61.13 1.05.3 1.3.52.28.2.41.5.41.86 0 .45-.17.8-.51 1.06-.35.25-.83.38-1.44.38ZM152.49 44.01c.49 0 .85.12 1.08.35.24.23.35.59.35 1.07v1.94h-.95v-.49a.82.82 0 0 1-.34.4c-.15.1-.34.14-.54.14-.23 0-.43-.04-.61-.13a1.08 1.08 0 0 1-.43-.37.97.97 0 0 1-.15-.54c0-.24.06-.43.18-.57.12-.13.32-.23.6-.3.26-.06.63-.1 1.1-.1h.18v-.11c0-.2-.04-.33-.13-.42-.08-.08-.23-.12-.44-.12a2.6 2.6 0 0 0-1.1.33l-.26-.67c.19-.12.42-.21.69-.29.28-.08.53-.12.77-.12Zm-.18 2.72c.2 0 .35-.07.47-.2s.18-.3.18-.5v-.12h-.11c-.36 0-.62.03-.76.08a.31.31 0 0 0-.22.32c0 .12.04.22.12.3.09.08.2.12.32.12Z" fill="#CCC"/><path opacity=".15" d="M91.17 55.4H168v16.04H91.17V55.4ZM11.96 77.45h78.88v16.03H11.96V77.45Z" fill="#1EA7FD"/><path d="M98.52 63.42a8.02 8.02 0 1 1-16.04 0 8.02 8.02 0 0 1 16.04 0ZM98.52 85.47a8.02 8.02 0 1 1-16.04 0 8.02 8.02 0 0 1 16.04 0Z" fill="#1EA7FD"/><path d="M152.4 64.12v.5h-.78v1.12h-.6v-1.12h-2.4v-.46l2.5-3.6h.5v3.56h.78Zm-3.15 0h1.78v-2.55l-1.78 2.55ZM148.41 87.28h1.14v.5h-2.88v-.5h1.14v-3.92l-.91.57-.28-.46 1.36-.86h.43v4.67ZM152.82 87.28h1.14v.5h-2.89v-.5h1.14v-3.92l-.9.57-.29-.46 1.36-.86h.44v4.67ZM148.41 109.33h1.14v.5h-2.88v-.5h1.14v-3.92l-.91.57-.28-.47 1.36-.86h.43v4.68ZM153.22 107.18c.3.09.54.25.7.47.18.23.26.5.26.81 0 .45-.16.8-.48 1.05a2.2 2.2 0 0 1-1.38.38 2.2 2.2 0 0 1-1.37-.38c-.32-.25-.48-.6-.48-1.05 0-.32.08-.59.25-.81.17-.23.41-.39.72-.47-.26-.1-.47-.26-.62-.47a1.24 1.24 0 0 1-.23-.74c0-.42.15-.75.46-1 .3-.25.73-.37 1.27-.37.55 0 .97.12 1.28.37.3.25.46.58.46 1 0 .28-.08.53-.23.75-.15.21-.35.36-.6.46ZM151.2 106c0 .3.1.54.28.7.2.17.48.25.85.25.38 0 .66-.08.85-.25.2-.16.3-.4.3-.7 0-.28-.1-.51-.3-.67-.2-.16-.47-.24-.85-.24-.37 0-.65.08-.85.24a.84.84 0 0 0-.28.67Zm1.13 3.38c.85 0 1.27-.32 1.27-.97 0-.64-.42-.96-1.27-.96-.84 0-1.26.32-1.26.97 0 .64.42.96 1.26.96ZM149.68 131.38v.5h-3.34v-.45l1.81-2c.25-.28.42-.52.53-.74.12-.22.17-.44.17-.66 0-.28-.08-.5-.25-.65a1 1 0 0 0-.7-.23c-.5 0-1 .2-1.47.6l-.23-.47a2.65 2.65 0 0 1 1.71-.64c.48 0 .85.13 1.13.37.28.25.42.58.42 1 0 .3-.07.58-.21.85-.13.28-.35.58-.66.92l-1.47 1.6h2.56ZM152.55 128.63c.32 0 .6.07.85.21.24.14.43.33.56.58.14.25.2.53.2.85 0 .33-.07.62-.22.87a1.5 1.5 0 0 1-.6.59c-.27.14-.58.2-.93.2a2.7 2.7 0 0 1-.94-.17c-.3-.11-.56-.27-.77-.47l.23-.46c.48.4.97.6 1.48.6.36 0 .64-.1.85-.31.2-.2.3-.49.3-.84 0-.34-.1-.62-.3-.83-.2-.21-.47-.32-.81-.32-.5 0-.89.2-1.18.6h-.42v-3.03h3.1v.5h-2.5v1.85c.13-.14.3-.24.48-.3.19-.08.4-.12.62-.12ZM131.18 63.08c.3.09.54.24.7.46.16.2.24.48.24.8 0 .45-.15.8-.46 1.06-.3.26-.72.4-1.24.4-.34 0-.66-.06-.96-.17a2.2 2.2 0 0 1-.78-.48l.22-.46c.47.4.97.6 1.5.6.37 0 .65-.08.84-.25.2-.16.29-.4.29-.72 0-.64-.4-.95-1.2-.95h-.59v-.5h.48c.38 0 .68-.1.88-.26a.9.9 0 0 0 .31-.73c0-.28-.08-.5-.25-.64-.17-.15-.4-.23-.71-.23-.5 0-1 .2-1.47.6l-.23-.47c.21-.2.47-.36.77-.47.3-.11.62-.17.95-.17.47 0 .84.12 1.12.36.28.24.41.56.41.96 0 .3-.07.56-.22.78a1.2 1.2 0 0 1-.6.48ZM128.42 87.28h1.14v.5h-2.88v-.5h1.14v-3.92l-.91.57-.28-.46 1.36-.86h.43v4.67ZM132.34 87.85c-.6 0-1.05-.23-1.36-.68-.3-.45-.46-1.1-.46-1.97 0-.86.16-1.52.46-1.97.31-.46.76-.68 1.36-.68.59 0 1.04.22 1.35.68.3.44.46 1.1.46 1.97a3.5 3.5 0 0 1-.46 1.97c-.31.45-.76.68-1.35.68Zm0-.5c.4 0 .71-.18.9-.53.2-.35.3-.89.3-1.62 0-.74-.1-1.28-.3-1.62a.97.97 0 0 0-.9-.52.98.98 0 0 0-.91.52c-.2.34-.3.88-.3 1.62 0 .73.1 1.27.3 1.62.2.35.5.52.9.52ZM128.42 109.33h1.14v.5h-2.88v-.5h1.14v-3.92l-.91.57-.28-.47 1.36-.86h.43v4.68ZM130.62 104.66h3.43v.44l-2.43 4.74h-.65l2.42-4.68h-2.77v-.5ZM129.69 131.38v.5h-3.34v-.45l1.82-2c.24-.28.42-.52.53-.74.1-.22.16-.44.16-.66 0-.28-.08-.5-.25-.65-.16-.15-.4-.23-.7-.23-.5 0-1 .2-1.47.6l-.23-.47a2.65 2.65 0 0 1 1.71-.64c.48 0 .85.13 1.13.37.28.25.42.58.42 1 0 .3-.07.58-.2.85-.14.28-.36.58-.67.92l-1.47 1.6h2.56ZM134.28 130.26v.5h-.78v1.12h-.6v-1.12h-2.4v-.46l2.5-3.6h.5v3.56h.78Zm-3.15 0h1.77v-2.55l-1.77 2.55ZM128.64 151.27c.3.09.54.24.7.45.16.22.24.48.24.8 0 .46-.15.81-.46 1.07-.3.26-.72.4-1.24.4-.33 0-.66-.06-.96-.18a2.2 2.2 0 0 1-.78-.47l.22-.46c.47.4.97.6 1.5.6.37 0 .65-.09.84-.25.2-.16.29-.4.29-.73 0-.63-.4-.94-1.2-.94h-.59v-.51h.48c.38 0 .68-.08.88-.25a.9.9 0 0 0 .31-.74c0-.28-.08-.49-.25-.63-.17-.16-.4-.23-.71-.23-.5 0-1 .2-1.47.6l-.23-.47c.21-.2.47-.36.77-.47.3-.11.62-.17.95-.17.47 0 .84.12 1.12.36.28.23.42.55.42.95 0 .3-.08.57-.22.8a1.2 1.2 0 0 1-.6.47ZM132.83 153.42h1.14v.51h-2.88v-.5h1.14v-3.93l-.91.57-.28-.46 1.36-.86h.43v4.67ZM112.08 65.24v.5h-3.34v-.45l1.82-2c.24-.28.42-.52.53-.74.1-.22.16-.44.16-.66 0-.28-.08-.5-.25-.65-.16-.15-.4-.23-.7-.23-.5 0-.99.2-1.47.6l-.23-.47a2.66 2.66 0 0 1 1.71-.64c.48 0 .85.13 1.13.37.28.25.42.58.42 1 0 .3-.07.58-.2.85-.14.28-.36.58-.67.92l-1.47 1.6h2.56ZM110.16 82.55c.63 0 1.11.22 1.45.65.34.44.51 1.06.51 1.87 0 .88-.17 1.56-.53 2.05-.35.49-.84.73-1.47.73a2.3 2.3 0 0 1-1.62-.64l.23-.46a3 3 0 0 0 .7.45c.22.1.45.14.68.14.45 0 .79-.2 1.03-.59.25-.4.37-.95.37-1.67v-.1c-.11.28-.3.5-.55.65-.25.16-.53.23-.85.23-.31 0-.6-.06-.84-.2a1.45 1.45 0 0 1-.57-.58c-.14-.25-.2-.54-.2-.86 0-.32.06-.6.2-.86.15-.26.35-.46.6-.6.26-.14.54-.21.86-.21Zm.04 2.8c.33 0 .61-.1.82-.3.22-.22.32-.5.32-.84a1.1 1.1 0 0 0-1.15-1.15c-.33 0-.6.1-.8.31-.2.21-.3.5-.3.84 0 .35.1.63.3.84.2.2.47.3.8.3ZM108.27 109.33h1.14v.5h-2.88v-.5h1.14v-3.92l-.91.57-.28-.47 1.36-.86h.43v4.68ZM112.4 106.58c.32 0 .6.07.84.2.25.14.44.34.58.59.13.25.2.53.2.86 0 .31-.07.6-.21.86-.14.25-.34.45-.6.6-.25.13-.54.2-.86.2-.62 0-1.1-.21-1.45-.65a3 3 0 0 1-.5-1.87c0-.58.07-1.08.23-1.5.16-.41.39-.73.69-.94.3-.22.65-.33 1.07-.33a2.37 2.37 0 0 1 1.62.64l-.22.46c-.25-.2-.48-.36-.71-.45-.22-.1-.44-.15-.68-.15-.44 0-.79.2-1.04.6-.24.4-.37.95-.37 1.67v.1c.12-.27.3-.48.55-.65.25-.16.54-.24.86-.24Zm-.08 2.8c.34 0 .6-.1.8-.3.2-.22.3-.5.3-.85 0-.34-.1-.62-.3-.83-.2-.2-.47-.31-.8-.31-.34 0-.62.1-.83.32-.21.21-.32.49-.32.82 0 .35.1.63.32.84.21.21.49.32.83.32ZM109.53 131.38v.5h-3.34v-.45l1.82-2c.24-.28.42-.52.53-.74.11-.22.17-.44.17-.66 0-.28-.09-.5-.25-.65-.17-.15-.4-.23-.7-.23-.5 0-1 .2-1.48.6l-.22-.47a2.66 2.66 0 0 1 1.71-.64c.47 0 .85.13 1.12.37.28.25.42.58.42 1 0 .3-.07.58-.2.85a4 4 0 0 1-.67.92l-1.47 1.6h2.56ZM112.9 129.22c.3.1.53.24.7.46.15.2.23.48.23.8 0 .45-.15.8-.46 1.06-.3.27-.72.4-1.24.4-.33 0-.66-.06-.96-.18-.31-.1-.57-.26-.78-.47l.23-.46c.47.4.97.6 1.5.6.36 0 .64-.08.83-.25.2-.16.29-.4.29-.72 0-.64-.4-.95-1.2-.95h-.59v-.5h.48c.38 0 .68-.1.88-.26.2-.17.31-.41.31-.73 0-.28-.08-.5-.25-.64-.17-.15-.4-.23-.71-.23-.5 0-1 .2-1.47.6l-.23-.47c.21-.2.47-.36.77-.47.3-.11.62-.17.95-.17.47 0 .84.12 1.12.36.28.24.42.56.42.96 0 .3-.08.56-.22.79a1.2 1.2 0 0 1-.6.47ZM108.49 151.27c.3.09.53.24.7.45.16.22.24.48.24.8 0 .46-.16.81-.47 1.07-.3.26-.71.4-1.24.4-.33 0-.65-.06-.96-.18-.3-.11-.57-.27-.78-.47l.23-.46c.47.4.97.6 1.5.6.37 0 .64-.09.84-.25.19-.16.28-.4.28-.73 0-.63-.4-.94-1.19-.94h-.6v-.51h.48c.39 0 .68-.08.89-.25a.9.9 0 0 0 .3-.74c0-.28-.08-.49-.25-.63-.16-.16-.4-.23-.7-.23-.5 0-1 .2-1.48.6l-.23-.47c.22-.2.47-.36.78-.47.3-.11.61-.17.94-.17.47 0 .85.12 1.12.36.28.23.42.55.42.95 0 .3-.07.57-.22.8a1.2 1.2 0 0 1-.6.47ZM112.18 153.99c-.6 0-1.04-.23-1.35-.68-.31-.45-.47-1.1-.47-1.97 0-.86.16-1.52.47-1.97.3-.46.76-.68 1.35-.68.6 0 1.04.22 1.35.68.31.44.47 1.1.47 1.97 0 .86-.16 1.52-.47 1.97-.3.45-.76.68-1.35.68Zm0-.5c.41 0 .71-.18.91-.53.2-.35.3-.89.3-1.62 0-.74-.1-1.28-.3-1.62a.97.97 0 0 0-.91-.52.98.98 0 0 0-.91.52c-.2.34-.3.88-.3 1.62 0 .73.1 1.27.3 1.62.2.35.5.52.91.52Z" fill="#333"/><path d="M91.04 64.98h1.12v.76h-3.2v-.76h1.13v-3.34l-.89.54-.37-.7 1.53-.92h.68v4.42ZM91.5 85.13a1.24 1.24 0 0 1 .94 1.26c0 .46-.17.82-.51 1.08-.34.25-.82.38-1.43.38-.6 0-1.08-.13-1.42-.38a1.27 1.27 0 0 1-.52-1.08 1.22 1.22 0 0 1 .96-1.26c-.26-.1-.47-.25-.61-.46a1.25 1.25 0 0 1-.22-.73c0-.43.16-.77.48-1.02.33-.25.77-.38 1.33-.38.57 0 1 .13 1.33.38.33.25.49.59.49 1.02 0 .28-.08.53-.22.74-.15.21-.35.36-.6.45Zm-1-1.85c-.61 0-.92.25-.92.75 0 .25.08.44.23.58.16.12.39.19.7.19.3 0 .52-.07.68-.2.15-.13.23-.32.23-.57 0-.5-.3-.75-.92-.75Zm0 3.83c.7 0 1.05-.27 1.05-.79s-.35-.79-1.05-.79c-.7 0-1.05.27-1.05.79s.35.79 1.05.79Z" fill="#fff"/><path d="M88.95 109.33h1.13v.5H87.2v-.5h1.14v-3.92l-.9.57-.29-.47 1.36-.86h.44v4.68ZM93.08 106.59c.33 0 .61.07.85.2.25.14.44.33.57.58.13.25.2.53.2.86 0 .33-.08.61-.22.86a1.5 1.5 0 0 1-.61.6c-.27.13-.58.2-.93.2-.31 0-.62-.06-.93-.17-.3-.12-.56-.28-.77-.47l.22-.47c.48.4.98.6 1.48.6.36 0 .65-.1.85-.3.2-.21.31-.5.31-.85 0-.34-.1-.62-.3-.83-.2-.2-.48-.31-.82-.31-.49 0-.88.2-1.18.6h-.42v-3.03h3.11v.5h-2.51V107c.13-.13.3-.23.48-.3.2-.08.4-.11.62-.11ZM90.21 131.38v.5h-3.34v-.45l1.82-2c.24-.28.42-.52.53-.74.11-.22.17-.44.17-.66 0-.28-.09-.5-.25-.65a1 1 0 0 0-.7-.23c-.5 0-1 .2-1.48.6l-.23-.47a2.65 2.65 0 0 1 1.71-.64c.48 0 .86.13 1.13.37.28.25.42.58.42 1 0 .3-.07.58-.2.85-.14.28-.36.58-.67.92l-1.47 1.6h2.56ZM94.62 131.38v.5h-3.34v-.45l1.82-2c.24-.28.42-.52.52-.74.12-.22.17-.44.17-.66 0-.28-.08-.5-.25-.65a1 1 0 0 0-.7-.23c-.5 0-1 .2-1.47.6l-.23-.47a2.65 2.65 0 0 1 1.71-.64c.48 0 .85.13 1.13.37.28.25.42.58.42 1 0 .3-.07.58-.2.85-.14.28-.36.58-.67.92l-1.47 1.6h2.56ZM90.21 153.42v.51h-3.34v-.46l1.82-2c.24-.27.42-.51.53-.73.11-.22.17-.44.17-.66 0-.29-.09-.5-.25-.66a1 1 0 0 0-.7-.22c-.5 0-1 .2-1.48.6l-.23-.47a2.68 2.68 0 0 1 1.71-.64c.48 0 .86.12 1.13.37.28.24.42.57.42.99 0 .3-.07.58-.2.86a4 4 0 0 1-.67.92l-1.47 1.6h2.56ZM92.7 148.69c.63 0 1.1.22 1.45.65.34.44.51 1.06.51 1.87 0 .88-.18 1.56-.53 2.05-.35.49-.84.73-1.48.73a2.3 2.3 0 0 1-1.62-.64l.24-.46c.24.2.47.35.7.45.22.1.45.14.68.14.44 0 .79-.2 1.03-.59.25-.4.37-.95.37-1.67v-.1c-.11.28-.3.5-.55.65-.25.16-.53.23-.85.23-.32 0-.6-.06-.84-.2a1.46 1.46 0 0 1-.57-.58c-.14-.25-.2-.54-.2-.86 0-.32.06-.6.2-.86.15-.26.34-.46.6-.6.25-.14.54-.21.86-.21Zm.04 2.8c.33 0 .6-.1.82-.3.21-.22.32-.5.32-.84a1.11 1.11 0 0 0-1.15-1.15c-.33 0-.6.1-.8.31-.2.21-.3.5-.3.84 0 .35.1.63.3.84.2.2.47.3.8.3Z" fill="#333"/><path d="M68.35 63.08c.3.09.53.24.7.46.16.2.24.48.24.8 0 .45-.16.8-.47 1.06-.3.26-.71.4-1.24.4-.33 0-.65-.06-.96-.17-.31-.12-.57-.27-.78-.48l.23-.46c.47.4.97.6 1.5.6.36 0 .64-.08.83-.25.2-.16.3-.4.3-.72 0-.64-.4-.95-1.2-.95h-.6v-.5h.48c.39 0 .68-.1.89-.26a.9.9 0 0 0 .3-.73c0-.28-.08-.5-.25-.64-.16-.15-.4-.23-.7-.23-.5 0-1 .2-1.48.6l-.23-.47c.21-.2.47-.36.78-.47.3-.11.61-.17.94-.17.47 0 .85.12 1.12.36.28.24.42.56.42.96 0 .3-.07.56-.22.78a1.2 1.2 0 0 1-.6.48ZM72.53 65.24h1.14v.5H70.8v-.5h1.14V61.3l-.91.57-.28-.46 1.36-.86h.43v4.68Z" fill="#AAA"/><path d="M68.46 82.6h3.43v.46l-2.43 4.73h-.65l2.42-4.67h-2.77v-.51ZM68.13 109.33h1.13v.5h-2.88v-.5h1.14v-3.92l-.9.57-.29-.47 1.36-.86h.44v4.68ZM73.98 108.21v.5h-.78v1.13h-.6v-1.13h-2.4v-.45l2.5-3.6h.5v3.55h.78Zm-3.15 0h1.78v-2.55l-1.78 2.55ZM69.39 131.38v.5h-3.34v-.45l1.82-2c.24-.28.42-.52.53-.74.11-.22.17-.44.17-.66 0-.28-.09-.5-.25-.65a1 1 0 0 0-.7-.23c-.5 0-1 .2-1.48.6l-.23-.47a2.65 2.65 0 0 1 1.71-.64c.48 0 .86.13 1.13.37.28.25.42.58.42 1 0 .3-.07.58-.2.85-.14.28-.36.58-.67.92l-1.47 1.6h2.56ZM72.53 131.38h1.14v.5H70.8v-.5h1.14v-3.93l-.91.58-.28-.47 1.36-.86h.43v4.68ZM69.39 153.42v.51h-3.34v-.46l1.82-2c.24-.27.42-.51.53-.73.11-.22.17-.44.17-.66 0-.29-.09-.5-.25-.66a1 1 0 0 0-.7-.22c-.5 0-1 .2-1.48.6l-.23-.47a2.68 2.68 0 0 1 1.71-.64c.48 0 .86.12 1.13.37.28.24.42.57.42.99 0 .3-.07.58-.2.86a4 4 0 0 1-.67.92l-1.47 1.6h2.56ZM72.94 151.27a1.3 1.3 0 0 1 .96 1.29c0 .44-.16.8-.49 1.05a2.2 2.2 0 0 1-1.37.37 2.2 2.2 0 0 1-1.37-.37c-.33-.26-.49-.6-.49-1.06 0-.31.09-.59.26-.81.17-.23.4-.38.71-.47a1.3 1.3 0 0 1-.62-.46 1.23 1.23 0 0 1-.22-.75c0-.42.15-.75.45-1 .31-.25.74-.37 1.28-.37s.97.13 1.27.38c.31.24.46.57.46 1 0 .28-.07.53-.22.74-.16.21-.36.37-.61.46Zm-2.04-1.16c0 .3.1.53.29.7.2.16.48.24.85.24s.65-.08.85-.24c.2-.16.29-.4.29-.7 0-.3-.1-.52-.3-.68-.19-.16-.47-.24-.84-.24s-.66.08-.85.24a.84.84 0 0 0-.29.68Zm1.14 3.37c.84 0 1.26-.32 1.26-.96 0-.64-.42-.96-1.26-.96-.84 0-1.26.32-1.26.96 0 .64.42.96 1.26.96Z" fill="#333"/><path d="M47.86 63.08c.3.09.54.24.7.46.16.2.24.48.24.8 0 .45-.15.8-.46 1.06-.3.26-.72.4-1.24.4-.34 0-.66-.06-.97-.17a2.2 2.2 0 0 1-.77-.48l.22-.46c.47.4.97.6 1.5.6.37 0 .65-.08.84-.25.2-.16.29-.4.29-.72 0-.64-.4-.95-1.2-.95h-.59v-.5h.48c.38 0 .67-.1.88-.26a.9.9 0 0 0 .3-.73c0-.28-.07-.5-.24-.64-.17-.15-.4-.23-.71-.23-.5 0-1 .2-1.47.6l-.23-.47c.21-.2.47-.36.77-.47.3-.11.62-.17.95-.17.47 0 .84.12 1.12.36.27.24.41.56.41.96 0 .3-.07.56-.22.78a1.2 1.2 0 0 1-.6.48ZM51.56 65.8c-.6 0-1.05-.22-1.36-.67-.3-.46-.46-1.11-.46-1.97 0-.87.15-1.53.46-1.98.31-.45.76-.68 1.36-.68.59 0 1.04.23 1.35.68.3.44.46 1.1.46 1.97a3.5 3.5 0 0 1-.46 1.98c-.31.45-.76.67-1.35.67Zm0-.5c.4 0 .71-.18.9-.53.2-.35.3-.89.3-1.62 0-.74-.1-1.28-.3-1.62a.97.97 0 0 0-.9-.51.98.98 0 0 0-.92.51c-.2.34-.29.88-.29 1.62 0 .73.1 1.27.3 1.62.19.35.5.52.9.52Z" fill="#AAA"/><path d="M49.91 84.53c.32 0 .6.07.84.21.24.14.44.33.57.58.14.25.2.54.2.86 0 .32-.06.6-.2.86-.15.25-.34.45-.6.6-.25.14-.54.2-.86.2-.63 0-1.11-.21-1.45-.65a3 3 0 0 1-.51-1.86c0-.59.08-1.09.23-1.5.17-.42.4-.73.7-.95.3-.22.65-.33 1.07-.33a2.35 2.35 0 0 1 1.62.64l-.23.46c-.24-.2-.48-.35-.7-.45-.22-.1-.45-.14-.68-.14-.44 0-.8.2-1.04.6-.25.38-.37.94-.37 1.66v.11c.11-.27.3-.5.54-.65.25-.17.54-.25.87-.25Zm-.08 2.81c.33 0 .6-.1.8-.31.2-.22.3-.5.3-.84 0-.35-.1-.62-.3-.83-.2-.21-.47-.32-.8-.32-.34 0-.62.1-.84.32-.2.21-.31.49-.31.83 0 .34.1.62.31.84.22.2.5.31.84.31ZM47.64 109.33h1.14v.5H45.9v-.5h1.14v-3.92l-.91.57-.28-.47 1.36-.86h.43v4.68ZM52.27 107.18c.3.08.53.24.7.45.16.21.24.48.24.8 0 .45-.16.8-.46 1.07-.3.26-.72.39-1.25.39a2.8 2.8 0 0 1-.96-.17c-.3-.11-.57-.27-.78-.47l.23-.47c.47.4.97.6 1.5.6.37 0 .65-.08.84-.24.19-.17.28-.41.28-.73 0-.63-.4-.95-1.19-.95h-.6v-.5h.48c.39 0 .68-.09.89-.25a.9.9 0 0 0 .3-.74c0-.28-.08-.5-.24-.64-.17-.15-.4-.23-.72-.23-.5 0-.99.2-1.47.6l-.22-.46c.2-.2.46-.36.77-.47.3-.12.62-.17.94-.17.48 0 .85.12 1.12.36.28.23.42.55.42.95 0 .3-.07.56-.22.79a1.2 1.2 0 0 1-.6.48ZM48.9 131.38v.5h-3.33v-.45l1.81-2c.25-.28.43-.52.53-.74.12-.22.17-.44.17-.66 0-.28-.08-.5-.25-.65a1 1 0 0 0-.7-.23c-.5 0-1 .2-1.47.6l-.23-.47a2.65 2.65 0 0 1 1.71-.64c.48 0 .85.13 1.13.37.28.25.42.58.42 1 0 .3-.07.58-.21.85-.13.28-.35.58-.66.92l-1.47 1.6h2.56ZM51.56 131.94c-.6 0-1.05-.22-1.36-.67-.3-.46-.46-1.11-.46-1.97 0-.87.16-1.53.46-1.98.31-.45.76-.68 1.36-.68.59 0 1.04.23 1.35.68.3.45.46 1.1.46 1.97a3.5 3.5 0 0 1-.46 1.98c-.31.45-.76.67-1.35.67Zm0-.5c.4 0 .71-.18.9-.53.2-.34.3-.89.3-1.62 0-.74-.1-1.28-.3-1.62a.97.97 0 0 0-.9-.51.98.98 0 0 0-.92.51c-.2.34-.29.88-.29 1.62 0 .73.1 1.28.3 1.62.2.35.5.53.9.53ZM48.9 153.42v.51h-3.33v-.46l1.81-2c.25-.27.43-.51.53-.73.12-.22.17-.44.17-.66 0-.29-.08-.5-.25-.66a1 1 0 0 0-.7-.22c-.5 0-1 .2-1.47.6l-.23-.47a2.68 2.68 0 0 1 1.71-.64c.48 0 .85.12 1.13.37.28.24.42.57.42.99 0 .3-.07.58-.21.86a4 4 0 0 1-.66.92l-1.47 1.6h2.56ZM49.84 148.75h3.43v.45l-2.43 4.73h-.65l2.42-4.67h-2.77v-.51Z" fill="#333"/><path d="M28.42 65.24v.5h-3.34v-.45l1.82-2c.24-.28.42-.52.53-.74.1-.22.16-.44.16-.66 0-.28-.08-.5-.25-.65-.16-.15-.4-.23-.7-.23-.5 0-1 .2-1.47.6l-.23-.47a2.66 2.66 0 0 1 1.71-.64c.48 0 .85.13 1.13.37.28.25.42.58.42 1 0 .3-.07.58-.2.85a4 4 0 0 1-.67.92l-1.47 1.6h2.56ZM30.9 60.5c.63 0 1.12.22 1.45.66.35.43.52 1.06.52 1.86 0 .88-.18 1.56-.53 2.05-.35.49-.85.73-1.48.73a2.3 2.3 0 0 1-1.62-.64l.23-.46c.25.2.48.36.7.45.23.1.45.14.68.14.45 0 .8-.2 1.04-.58.25-.4.37-.96.37-1.68v-.1c-.11.28-.3.5-.55.65-.25.16-.54.24-.86.24-.3 0-.59-.07-.83-.2a1.45 1.45 0 0 1-.58-.59c-.13-.25-.2-.54-.2-.86 0-.32.07-.6.21-.86.14-.25.34-.45.6-.6.25-.14.54-.2.86-.2Zm.04 2.81c.34 0 .61-.1.83-.32.21-.21.32-.49.32-.83a1.1 1.1 0 0 0-1.15-1.15c-.34 0-.6.1-.8.32-.2.2-.3.49-.3.83 0 .35.1.63.3.84.2.2.47.31.8.31Z" fill="#AAA"/><path d="M29.42 84.54c.33 0 .62.07.86.2.24.14.43.34.56.59.13.24.2.53.2.85 0 .33-.07.62-.22.87a1.5 1.5 0 0 1-.61.59c-.27.13-.57.2-.93.2a2.7 2.7 0 0 1-.93-.17c-.3-.12-.56-.27-.77-.47l.23-.46c.48.4.97.6 1.47.6.37 0 .65-.1.86-.31.2-.21.3-.49.3-.84s-.1-.62-.3-.83c-.2-.21-.47-.32-.81-.32-.5 0-.9.2-1.19.6h-.41v-3.03h3.1v.5h-2.51v1.84c.14-.13.3-.23.49-.3.19-.07.4-.1.61-.1ZM27.15 109.33h1.14v.5h-2.88v-.5h1.14v-3.92l-.91.57-.28-.47 1.36-.86h.43v4.68ZM32.82 109.33v.5H29.5v-.45l1.81-2c.25-.27.42-.52.53-.73.11-.22.17-.44.17-.67 0-.28-.08-.5-.25-.65a1 1 0 0 0-.7-.23c-.5 0-1 .2-1.48.6l-.22-.46a2.65 2.65 0 0 1 1.71-.64c.47 0 .85.12 1.12.36.28.25.42.58.42 1 0 .3-.07.58-.2.86-.14.27-.36.58-.66.91l-1.47 1.6h2.55ZM27.15 131.38h1.14v.5h-2.88v-.5h1.14v-3.93l-.91.58-.28-.47 1.36-.86h.43v4.68ZM30.9 126.64c.63 0 1.11.22 1.45.66.35.43.52 1.05.52 1.86 0 .88-.18 1.56-.53 2.05-.35.49-.85.73-1.48.73a2.3 2.3 0 0 1-1.62-.64l.23-.46a3 3 0 0 0 .7.45c.23.1.45.15.68.15.45 0 .8-.2 1.04-.6.24-.39.37-.95.37-1.67v-.1c-.12.28-.3.5-.55.65-.25.16-.54.24-.86.24-.31 0-.59-.07-.83-.2a1.45 1.45 0 0 1-.58-.59c-.13-.25-.2-.53-.2-.86 0-.32.07-.6.21-.86.14-.25.34-.45.6-.6.25-.14.54-.2.86-.2Zm.04 2.81c.34 0 .61-.1.82-.32.22-.21.33-.49.33-.83a1.1 1.1 0 0 0-1.16-1.15c-.33 0-.6.1-.8.32-.2.2-.3.49-.3.83 0 .35.1.63.3.84.2.2.48.31.81.31ZM28.42 153.42v.51h-3.34v-.46l1.82-2c.25-.27.42-.51.53-.73.11-.22.17-.44.17-.66 0-.29-.09-.5-.25-.66a1 1 0 0 0-.7-.22c-.5 0-1 .2-1.48.6l-.22-.47a2.67 2.67 0 0 1 1.71-.64c.47 0 .85.12 1.12.37.28.24.42.57.42.99 0 .3-.07.58-.2.86a4 4 0 0 1-.67.92l-1.47 1.6h2.56ZM31.3 150.67c.3 0 .58.07.83.21.24.14.44.33.57.58.14.25.2.54.2.86 0 .32-.06.6-.2.86-.15.25-.34.45-.6.6-.25.14-.54.2-.86.2-.63 0-1.11-.2-1.45-.65a2.99 2.99 0 0 1-.51-1.86c0-.59.08-1.09.23-1.5.17-.42.4-.73.7-.95.3-.22.65-.33 1.07-.33a2.35 2.35 0 0 1 1.62.64l-.23.46c-.24-.2-.48-.35-.7-.45-.22-.1-.45-.14-.68-.14-.44 0-.8.2-1.04.6-.25.38-.37.94-.37 1.66v.11c.11-.27.3-.5.54-.65.25-.16.54-.25.87-.25Zm-.09 2.81c.33 0 .6-.1.8-.31.2-.21.3-.5.3-.84 0-.34-.1-.62-.3-.83-.2-.21-.47-.32-.8-.32-.34 0-.62.1-.84.32-.2.22-.31.49-.31.83 0 .34.1.62.31.83.22.22.5.32.84.32Z" fill="#333"/></g><defs><clipPath id="c"><path fill="#fff" transform="translate(12 40)" d="M0 0h156v117H0z"/></clipPath></defs></svg>