<svg width="180" height="180" fill="none" xmlns="http://www.w3.org/2000/svg"><path fill-rule="evenodd" clip-rule="evenodd" d="M96 29.88V26h-4.42v3.88H96ZM37.16 43.77V36.9H44v6.86h4.27V26.79H44v6.6h-6.84v-6.6H32.9v16.98h4.27Zm19.87.2a8.5 8.5 0 0 0 2.47-.38 6.85 6.85 0 0 0 2.12-1.03l-1.07-2.81a5.56 5.56 0 0 1-3.3 1.08c-.8 0-1.4-.17-1.83-.5-.43-.34-.7-.9-.83-1.67h7.22v-.96c0-1.88-.5-3.36-1.48-4.44a5.11 5.11 0 0 0-3.98-1.63 5.9 5.9 0 0 0-3.03.79c-.9.52-1.6 1.25-2.1 2.19-.49.94-.74 2-.74 3.19 0 1.25.27 2.34.8 3.27a5.3 5.3 0 0 0 2.26 2.14c.99.5 2.15.75 3.5.75Zm-2.49-7.33h3.73c-.1-1.41-.7-2.12-1.8-2.12-1.13 0-1.77.7-1.93 2.12Zm12.97 7.32c.72 0 1.35-.16 1.87-.5.52-.32.9-.78 1.12-1.35v1.66h3.96v-6.84c0-1.81-.44-3.15-1.32-4-.87-.87-2.23-1.3-4.07-1.3-.85 0-1.79.14-2.81.43a9.93 9.93 0 0 0-2.55 1.04l1.06 2.82c.62-.34 1.28-.61 1.99-.83.7-.22 1.32-.33 1.86-.33.68 0 1.16.12 1.43.35.27.24.4.65.4 1.24v.3h-.64c-1.62 0-2.9.1-3.85.33-.95.22-1.64.59-2.08 1.1-.43.5-.65 1.18-.65 2.03 0 .74.19 1.4.56 1.98.37.59.88 1.05 1.53 1.38.65.33 1.38.5 2.19.5Zm.1-3.23c.23.25.53.37.9.37.56 0 1.03-.2 1.4-.62.36-.4.54-.93.54-1.58v-.28h-.38c-1.01 0-1.73.09-2.16.27-.43.19-.64.5-.64.93 0 .37.11.67.34.91Zm13.86 3.23c.77 0 1.48-.16 2.12-.48a3.43 3.43 0 0 0 1.46-1.33v1.62h4.16V26.79h-4.23v6.53a3.65 3.65 0 0 0-1.46-1.23 4.62 4.62 0 0 0-2.05-.46c-1.02 0-1.92.25-2.7.75-.78.5-1.4 1.2-1.83 2.13-.43.92-.65 2-.65 3.22 0 1.21.22 2.3.66 3.25a5.24 5.24 0 0 0 1.84 2.2c.79.52 1.68.78 2.68.78Zm-.4-4c.4.53.97.8 1.68.8.74 0 1.31-.26 1.7-.77.4-.52.6-1.25.6-2.22 0-.94-.2-1.67-.6-2.18-.39-.5-.96-.75-1.7-.75-.73 0-1.3.24-1.69.74-.4.5-.59 1.21-.59 2.15 0 .96.2 1.7.6 2.23Zm14.83-8.04v11.85h-4.22V31.92h4.22Zm6.67 11.85v-6.6c0-.69.19-1.24.56-1.65.37-.4.88-.61 1.51-.61.5 0 .86.16 1.1.48.25.32.37.83.37 1.54v6.84h4.23v-7.03c0-1.72-.34-3-1.02-3.84-.68-.84-1.72-1.27-3.11-1.27-.8 0-1.52.16-2.16.49-.65.32-1.18.78-1.6 1.4v-1.6h-4.1v11.85h4.22Zm20.89 3c-1.15 1.02-2.85 1.52-5.1 1.52-1.05 0-2.08-.12-3.08-.37a9.1 9.1 0 0 1-2.59-1.05l1.07-2.9c.73.38 1.48.67 2.27.88.78.21 1.52.31 2.22.31.93 0 1.62-.2 2.07-.61.46-.4.68-1.05.68-1.94v-.91c-.35.53-.85.95-1.5 1.26a4.8 4.8 0 0 1-2.1.47 4.9 4.9 0 0 1-4.56-2.78 6.86 6.86 0 0 1-.67-3.1c0-1.17.22-2.2.66-3.1a4.96 4.96 0 0 1 6.7-2.33c.65.32 1.15.76 1.5 1.32v-1.52h4.15v10.4c0 1.96-.57 3.45-1.72 4.46Zm-4.79-6.54c-.7 0-1.27-.24-1.7-.71a2.86 2.86 0 0 1-.62-1.96c0-.87.2-1.54.61-2.01.42-.48.99-.71 1.71-.71.75 0 1.33.24 1.74.72.4.48.61 1.15.61 2 0 .83-.2 1.49-.61 1.96s-1 .7-1.74.7Zm28.33.02v3.52h-11.54v-3.52h3.58v-8.64l-2.82 1.64-1.57-3.18 5.68-3.28h3.08v13.46H147ZM63.68 123.16v1.94h-2.2v-1.94h2.2Zm-6.2 8.74c-.32.16-.68.24-1.06.24-.5 0-.95-.13-1.34-.39-.4-.26-.7-.63-.92-1.1a3.79 3.79 0 0 1-.33-1.63c0-.6.1-1.14.32-1.6.22-.47.53-.82.92-1.07.4-.25.84-.37 1.35-.37.37 0 .71.07 1.02.23.32.15.56.35.73.61v-3.26h2.12v8.48H58.2v-.8c-.17.28-.41.5-.73.66Zm-23.22-3.29v3.43h-2.13v-8.48h2.13v3.3h3.42v-3.3h2.14v8.48h-2.14v-3.43h-3.42Zm11.17 3.34a4.23 4.23 0 0 1-2.98-.18c-.49-.25-.87-.6-1.13-1.07a3.25 3.25 0 0 1-.4-1.64c0-.6.13-1.13.38-1.6.25-.46.6-.83 1.04-1.1.45-.25.95-.38 1.51-.38.84 0 1.5.27 2 .81.49.54.73 1.28.73 2.22v.48h-3.6c.06.39.2.66.41.83.21.17.52.26.92.26a2.77 2.77 0 0 0 1.65-.55l.53 1.41c-.3.22-.65.39-1.06.51Zm-.61-3.47h-1.87c.08-.7.4-1.06.96-1.06.56 0 .86.36.9 1.06Zm5.55 3.41c-.26.17-.57.25-.94.25-.4 0-.76-.08-1.09-.25a1.9 1.9 0 0 1-.76-.68c-.19-.3-.28-.63-.28-1 0-.42.1-.76.32-1.01a1.9 1.9 0 0 1 1.04-.55 8.73 8.73 0 0 1 1.93-.17h.32v-.14c0-.3-.07-.5-.2-.62-.14-.12-.38-.18-.72-.18-.27 0-.58.06-.93.16-.35.11-.68.25-1 .42l-.53-1.4c.34-.22.77-.4 1.28-.53.51-.14.98-.21 1.4-.21.93 0 1.6.21 2.04.64.44.43.66 1.1.66 2v3.42h-1.98v-.83c-.11.3-.3.52-.56.68Zm-.44-1.18a.59.59 0 0 1-.44-.18.64.64 0 0 1-.17-.46c0-.22.1-.37.32-.46a3 3 0 0 1 1.08-.14h.19v.14c0 .32-.1.59-.28.8a.9.9 0 0 1-.7.3Zm7.12-.17a1 1 0 0 1-.83-.4c-.2-.26-.3-.63-.3-1.12 0-.46.1-.82.3-1.07.19-.25.47-.37.83-.37.38 0 .66.13.86.38.2.25.3.61.3 1.09 0 .48-.1.85-.3 1.1-.2.26-.48.39-.86.39Zm6.58 1.5v-5.92h-2.11v5.92h2.11Zm3.34-3.3v3.3h-2.11v-5.92h2.05v.8c.2-.3.47-.54.8-.7a2.4 2.4 0 0 1 1.08-.24c.7 0 1.21.2 1.55.63.34.42.51 1.06.51 1.92v3.51h-2.11v-3.41c0-.36-.06-.61-.19-.77-.12-.17-.3-.25-.55-.25-.31 0-.57.1-.75.31-.19.2-.28.48-.28.83Zm7.9 5.57c1.12 0 1.97-.25 2.54-.76.57-.5.86-1.25.86-2.23v-5.2H76.2v.76a1.8 1.8 0 0 0-.74-.66 2.38 2.38 0 0 0-1.07-.24c-.51 0-.96.12-1.36.36-.4.25-.7.6-.92 1.05-.22.45-.33.96-.33 1.55 0 .59.1 1.1.33 1.55a2.45 2.45 0 0 0 2.28 1.39c.38 0 .73-.08 1.05-.24.33-.15.58-.37.75-.63v.46c0 .44-.11.76-.34.97-.22.2-.57.3-1.04.3a5.34 5.34 0 0 1-2.24-.6l-.53 1.46c.36.22.8.4 1.29.52.5.13 1.01.19 1.54.19Zm-.7-4.39c.2.24.5.36.85.36.37 0 .66-.12.87-.36.2-.24.3-.56.3-.98 0-.43-.1-.76-.3-1-.21-.24-.5-.36-.87-.36s-.65.12-.86.35c-.2.24-.3.58-.3 1 0 .43.1.75.31.99Zm13.97 2.13v-1.44h1.09v-1.68h-1.1v-5.37H86.4l-3.75 5.41v1.64h3.37v1.43h2.13Zm-3.55-3.12H86v-2.09l-1.42 2.09ZM58.3 148.33v-1.62h-1.84v1.62h1.84Zm-24.52 5.78v-2.86h2.85v2.86h1.78v-7.07h-1.78v2.75h-2.85v-2.75H32v7.07h1.78Zm8.28.08a3.56 3.56 0 0 0 1.91-.58l-.44-1.17a2.35 2.35 0 0 1-1.38.45 1.2 1.2 0 0 1-.76-.21c-.18-.14-.3-.37-.35-.7h3.01v-.4c0-.78-.2-1.4-.61-1.84-.41-.46-.97-.68-1.67-.68-.46 0-.88.1-1.26.32-.37.22-.66.53-.87.92-.2.39-.3.83-.3 1.33 0 .52.1.97.32 1.36.22.39.54.69.95.9.4.2.9.3 1.45.3Zm-1.04-3.04h1.56c-.04-.6-.3-.89-.76-.89s-.73.3-.8.89Zm5.4 3.04c.3 0 .57-.06.79-.2.21-.14.37-.33.46-.57v.7h1.65v-2.86c0-.75-.18-1.3-.55-1.66-.36-.36-.93-.54-1.7-.54-.35 0-.74.06-1.16.17-.43.12-.78.27-1.07.44l.45 1.17c.25-.14.53-.25.82-.34.3-.1.56-.14.78-.14.28 0 .48.05.6.15.1.1.16.27.16.51v.13h-.27c-.67 0-1.2.04-1.6.13-.4.1-.68.25-.86.46-.19.21-.28.5-.28.85 0 .3.08.58.24.83.15.24.36.43.63.57.27.14.58.2.91.2Zm.05-1.34c.1.1.22.15.37.15.24 0 .43-.09.58-.26a.95.95 0 0 0 .23-.65v-.12h-.16c-.42 0-.72.03-.9.11-.18.08-.27.2-.27.39 0 .15.05.28.15.38Zm5.77 1.34c.32 0 .62-.06.89-.2.26-.13.47-.31.6-.55v.67h1.74v-7.07H53.7v2.72a1.52 1.52 0 0 0-.61-.51 2.05 2.05 0 0 0-1.98.12c-.33.2-.58.5-.76.89a3.1 3.1 0 0 0-.27 1.34c0 .5.09.96.27 1.35.19.4.44.7.77.92.33.22.7.32 1.11.32Zm-.16-1.66c.17.22.4.33.7.33.3 0 .55-.1.71-.32.17-.22.25-.52.25-.92s-.08-.7-.25-.91a.85.85 0 0 0-.71-.32c-.3 0-.54.1-.7.31-.17.21-.25.5-.25.9s.08.7.25.93Zm6.18-3.35v4.93H56.5v-4.93h1.76Zm2.78 4.93v-2.75c0-.28.08-.51.23-.68a.8.8 0 0 1 .63-.26c.2 0 .36.07.46.2.1.14.15.35.15.64v2.85h1.76v-2.93c0-.71-.14-1.24-.42-1.6-.29-.35-.72-.52-1.3-.52a2 2 0 0 0-.9.2c-.27.13-.49.33-.66.58v-.66h-1.71v4.93h1.76Zm8.7 1.26c-.48.42-1.19.63-2.12.63-.44 0-.87-.05-1.29-.16-.41-.1-.77-.25-1.08-.43l.45-1.22a4.46 4.46 0 0 0 1.87.5c.39 0 .68-.08.86-.25.2-.17.29-.44.29-.8v-.39c-.15.22-.36.4-.63.53a2.13 2.13 0 0 1-2-.1c-.34-.2-.6-.5-.78-.86-.18-.38-.27-.8-.27-1.3 0-.48.09-.91.27-1.29a2.07 2.07 0 0 1 2.8-.97c.26.13.47.32.62.55v-.63h1.73v4.33c0 .82-.24 1.44-.72 1.86Zm-2-2.73a.9.9 0 0 1-.7-.3 1.2 1.2 0 0 1-.27-.81c0-.37.09-.64.26-.84.17-.2.41-.3.71-.3.31 0 .55.1.73.3.17.2.25.48.25.84 0 .34-.08.62-.25.81a.9.9 0 0 1-.73.3Zm10.4 1.26c-.43.2-.92.3-1.5.3-.45 0-.9-.07-1.34-.21-.45-.14-.8-.32-1.07-.55l.57-1.3a3.3 3.3 0 0 0 1.87.63c.37 0 .64-.08.82-.23.18-.15.27-.38.27-.7 0-.31-.1-.55-.29-.71a1.16 1.16 0 0 0-.78-.25 2.56 2.56 0 0 0-1.19.35h-1v-4.19h4.6v1.4h-2.83v1.23c.26-.12.58-.18.97-.18.43 0 .81.1 1.15.28.34.2.6.46.79.8.18.35.28.75.28 1.2a2.25 2.25 0 0 1-1.33 2.13ZM79.84 67.96v-2.91h-3.31v2.9h3.31Zm-10.9 10.56c.58 0 1.11-.12 1.6-.36.48-.24.84-.57 1.09-1v1.22h3.12V65.65h-3.17v4.89c-.26-.39-.63-.7-1.1-.92a3.47 3.47 0 0 0-1.54-.34c-.76 0-1.43.18-2.02.56-.59.37-1.05.9-1.37 1.6a5.6 5.6 0 0 0-.5 2.4c0 .92.17 1.73.5 2.44.34.71.8 1.26 1.39 1.65.59.4 1.25.6 2 .6Zm-33.23-.14v-5.15h5.13v5.15h3.2V65.65h-3.2v4.94h-5.13v-4.94h-3.2v12.73h3.2Zm14.9.14c.63 0 1.24-.1 1.86-.28a5.14 5.14 0 0 0 1.58-.77l-.8-2.1a4.17 4.17 0 0 1-2.47.8c-.6 0-1.05-.12-1.37-.38-.32-.25-.53-.66-.63-1.24h5.42v-.72c0-1.41-.37-2.52-1.1-3.34a3.84 3.84 0 0 0-3-1.21c-.84 0-1.6.2-2.27.58-.67.4-1.2.94-1.57 1.65-.37.7-.56 1.5-.56 2.39 0 .94.2 1.76.6 2.45.4.7.96 1.24 1.7 1.61.74.37 1.6.56 2.62.56Zm-1.86-5.49h2.8c-.08-1.06-.53-1.59-1.36-1.59-.84 0-1.33.53-1.44 1.6Zm9.72 5.5c.55 0 1.02-.13 1.4-.38.4-.25.68-.59.84-1.02v1.25h2.98v-5.13c0-1.36-.33-2.36-.99-3-.66-.65-1.68-.97-3.05-.97a8 8 0 0 0-2.11.31c-.77.21-1.4.47-1.92.79l.8 2.11a8 8 0 0 1 1.49-.62c.53-.17 1-.25 1.4-.25.5 0 .86.1 1.07.27.2.17.3.48.3.93v.21h-.48c-1.21 0-2.17.09-2.89.25-.7.17-1.23.45-1.55.83-.33.38-.5.88-.5 1.52 0 .56.14 1.05.42 1.5.28.43.67.77 1.15 1.02.49.25 1.04.37 1.64.37Zm.08-2.43c.17.18.4.27.67.27.43 0 .78-.15 1.05-.46.27-.3.4-.7.4-1.18v-.22h-.28c-.76 0-1.3.07-1.62.21-.32.14-.48.37-.48.7 0 .27.09.5.26.68Zm10.1-.58c.3.4.72.6 1.25.6.56 0 .99-.2 1.29-.58.3-.38.44-.94.44-1.66a2.6 2.6 0 0 0-.44-1.63c-.3-.38-.73-.57-1.29-.57-.54 0-.96.18-1.26.56-.3.37-.44.9-.44 1.6 0 .73.15 1.29.45 1.68Zm11.12-6.03v8.89H76.6v-8.89h3.17Zm5 8.89v-4.95c0-.52.14-.93.42-1.24.28-.3.66-.46 1.13-.46.37 0 .64.12.83.36.18.24.27.63.27 1.16v5.13h3.17V73.1c0-1.28-.25-2.24-.76-2.88-.51-.63-1.29-.94-2.33-.94-.6 0-1.14.12-1.62.36-.5.24-.89.59-1.2 1.04V69.5H81.6v8.89h3.17Zm15.67 2.25c-.87.76-2.14 1.14-3.82 1.14-.8 0-1.57-.1-2.32-.28a6.82 6.82 0 0 1-1.94-.78l.8-2.19c.55.29 1.11.51 1.7.67.59.16 1.14.23 1.67.23.7 0 1.22-.15 1.55-.46.34-.3.51-.79.51-1.45v-.69c-.26.4-.63.72-1.12.95a3.6 3.6 0 0 1-1.58.35 3.67 3.67 0 0 1-3.42-2.09 5.14 5.14 0 0 1-.5-2.31c0-.88.16-1.66.5-2.33a3.72 3.72 0 0 1 5.02-1.75c.48.24.86.57 1.12.99v-1.14h3.12v7.8c0 1.47-.43 2.59-1.3 3.34Zm-3.6-4.9c-.53 0-.95-.19-1.27-.54a2.14 2.14 0 0 1-.47-1.47c0-.65.16-1.15.46-1.51.31-.35.74-.53 1.29-.53.56 0 .99.18 1.3.54.3.36.46.86.46 1.5 0 .62-.15 1.11-.46 1.47-.31.35-.75.53-1.3.53Zm20.8.01v2.64h-8.84v-2.46l4.09-4.32c.78-.83 1.18-1.59 1.18-2.29 0-.84-.5-1.26-1.48-1.26-.48 0-1 .1-1.54.3-.55.2-1.11.47-1.67.84l-1.01-2.35c.5-.41 1.15-.74 1.95-.99.8-.24 1.62-.37 2.45-.37.9 0 1.69.15 2.37.45.69.3 1.21.7 1.58 1.25.37.54.55 1.17.55 1.9s-.14 1.4-.44 2.01c-.29.6-.78 1.29-1.48 2.03l-2.53 2.62h4.83ZM69.07 98.86V96.6h-2.58v2.26h2.58Zm-8.48 8.22c.46 0 .87-.1 1.24-.28a2 2 0 0 0 .86-.77v.94h2.42v-9.9h-2.47v3.8c-.2-.3-.48-.54-.85-.72a2.7 2.7 0 0 0-1.2-.26c-.59 0-1.11.14-1.57.43-.46.3-.81.7-1.06 1.25a4.35 4.35 0 0 0-.39 1.87c0 .71.13 1.34.4 1.9.25.55.6.98 1.07 1.28.45.3.97.46 1.55.46Zm-25.84-.11v-4h3.99v4h2.49v-9.9h-2.5v3.84h-3.98v-3.84h-2.5v9.9h2.5Zm11.59.1a4.96 4.96 0 0 0 2.67-.8l-.62-1.65a3.25 3.25 0 0 1-1.93.63c-.46 0-.81-.1-1.06-.3-.25-.19-.41-.51-.49-.96h4.21v-.56c0-1.1-.28-1.96-.86-2.6a2.98 2.98 0 0 0-2.32-.94c-.66 0-1.25.15-1.77.45-.52.3-.93.73-1.22 1.28a3.9 3.9 0 0 0-.43 1.86c0 .73.15 1.37.46 1.91.3.55.75.96 1.32 1.25.57.3 1.25.44 2.04.44Zm-1.45-4.26h2.17c-.05-.83-.4-1.24-1.05-1.24-.66 0-1.03.42-1.12 1.24Zm7.56 4.27c.42 0 .79-.1 1.09-.29.3-.2.52-.46.65-.8v.98h2.31v-4c0-1.05-.25-1.83-.76-2.33-.52-.5-1.3-.75-2.38-.75-.5 0-1.05.08-1.64.24-.6.17-1.1.37-1.49.62l.62 1.64c.36-.2.75-.36 1.16-.49.41-.12.77-.19 1.09-.19.4 0 .67.07.83.2.16.14.23.38.23.73v.17h-.37c-.94 0-1.69.06-2.24.2-.56.13-.96.34-1.22.63-.25.3-.38.7-.38 1.2a2.12 2.12 0 0 0 1.22 1.95c.38.2.8.29 1.28.29Zm.06-1.88c.13.14.3.2.52.2.33 0 .6-.11.82-.35.2-.24.32-.55.32-.92v-.17h-.23c-.59 0-1 .06-1.26.16-.25.11-.37.29-.37.54 0 .22.07.4.2.54Zm7.85-.45c.24.3.57.46.98.46.44 0 .77-.15 1-.45.23-.3.34-.73.34-1.3 0-.54-.11-.97-.34-1.26-.23-.3-.56-.44-1-.44-.42 0-.75.14-.98.43-.23.3-.35.7-.35 1.25 0 .56.12 1 .35 1.3Zm8.65-4.7v6.92h-2.46v-6.91H69Zm3.9 6.92v-3.85c0-.4.1-.73.32-.96.22-.24.51-.36.88-.36.29 0 .5.1.65.28.14.19.21.49.21.9v3.99h2.47v-4.1c0-1-.2-1.75-.6-2.25-.4-.49-1-.73-1.81-.73-.47 0-.89.1-1.26.28-.38.19-.7.46-.93.81v-.92h-2.4v6.9h2.47Zm12.18 1.75c-.67.6-1.66.89-2.97.89-.62 0-1.22-.08-1.8-.22a5.3 5.3 0 0 1-1.51-.61l.62-1.7a6.27 6.27 0 0 0 2.62.7c.54 0 .95-.12 1.2-.36.27-.24.4-.61.4-1.13v-.53c-.2.3-.5.55-.87.74a2.8 2.8 0 0 1-1.23.27 2.86 2.86 0 0 1-2.66-1.62 4 4 0 0 1-.39-1.8c0-.7.13-1.3.39-1.82a2.9 2.9 0 0 1 1.08-1.21c.46-.29.99-.43 1.58-.43.45 0 .87.1 1.24.28.38.19.67.44.88.77v-.88h2.42v6.06c0 1.15-.33 2.01-1 2.6Zm-2.8-3.82c-.41 0-.74-.14-.99-.41a1.66 1.66 0 0 1-.36-1.15c0-.5.12-.9.36-1.17.24-.28.57-.41 1-.41.43 0 .77.14 1 .42.25.28.37.67.37 1.16 0 .49-.12.87-.36 1.15-.24.27-.58.41-1.02.41Zm15.12 1.43c-.68.5-1.6.75-2.77.75-.7 0-1.36-.1-2-.29a4.26 4.26 0 0 1-1.52-.77l.79-1.82a4.6 4.6 0 0 0 2.6.88c.55 0 .95-.08 1.18-.25.24-.17.36-.45.36-.84 0-.37-.12-.63-.35-.79-.23-.16-.6-.24-1.13-.24h-1.51v-2h1.26c.5 0 .87-.07 1.1-.22.24-.14.35-.38.35-.71 0-.35-.1-.62-.32-.8-.22-.2-.53-.3-.93-.3-.38 0-.8.08-1.23.23-.43.16-.85.38-1.24.66l-.8-1.83c.4-.32.9-.57 1.54-.76.63-.2 1.27-.3 1.93-.3.7 0 1.3.12 1.82.35.52.22.93.54 1.21.95.29.41.43.89.43 1.43a2.26 2.26 0 0 1-1.51 2.2 2.35 2.35 0 0 1 1.76 2.4c0 .88-.34 1.57-1.02 2.07Z" fill="#333"/></svg>