<svg width="180" height="180" fill="none" xmlns="http://www.w3.org/2000/svg"><path fill-rule="evenodd" clip-rule="evenodd" d="M26 34a8 8 0 1 1 0 16 8 8 0 0 1 0-16Zm0 1.4a6.6 6.6 0 1 0 0 13.2 6.6 6.6 0 0 0 0-13.2Zm-.03 1.23a1.2 1.2 0 1 1 0 2.4 1.2 1.2 0 0 1-1.2-1.2c0-.64.54-1.2 1.2-1.2Zm-.88 6.1c.06-.27.08-.8.1-1.21v-.33a.33.33 0 0 0-.2-.32l-2.65-.8a.64.64 0 0 1-.43-.79c.11-.32.47-.47.8-.38 0 0 2.41.77 3.27.77.86 0 3.34-.8 3.34-.8.33-.08.7.12.78.44.08.32-.11.68-.43.77l-2.65.79c-.12.04-.23.17-.21.32l.01.35c.02.42.03.93.1 1.19.2.92 1.29 3.35 1.42 3.65 0 0 .08.19.08.3 0 .34-.28.62-.63.62-.28 0-.47-.2-.6-.45L26 44.37l-1.22 2.6-.02.03a.62.62 0 0 1-1.08-.62c.13-.3 1.21-2.73 1.41-3.65Z" fill="#6F2CAC"/><mask id="a" style="mask-type:alpha" maskUnits="userSpaceOnUse" x="18" y="34" width="16" height="16"><path fill-rule="evenodd" clip-rule="evenodd" d="M26 34a8 8 0 1 1 0 16 8 8 0 0 1 0-16Zm0 1.4a6.6 6.6 0 1 0 0 13.2 6.6 6.6 0 0 0 0-13.2Zm-.03 1.23a1.2 1.2 0 1 1 0 2.4 1.2 1.2 0 0 1-1.2-1.2c0-.64.54-1.2 1.2-1.2Zm-.88 6.1c.06-.27.08-.8.1-1.21v-.33a.33.33 0 0 0-.2-.32l-2.65-.8a.64.64 0 0 1-.43-.79c.11-.32.47-.47.8-.38 0 0 2.41.77 3.27.77.86 0 3.34-.8 3.34-.8.33-.08.7.12.78.44.08.32-.11.68-.43.77l-2.65.79c-.12.04-.23.17-.21.32l.01.35c.02.42.03.93.1 1.19.2.92 1.29 3.35 1.42 3.65 0 0 .08.19.08.3 0 .34-.28.62-.63.62-.28 0-.47-.2-.6-.45L26 44.37l-1.22 2.6-.02.03a.62.62 0 0 1-1.08-.62c.13-.3 1.21-2.73 1.41-3.65Z" fill="#fff"/></mask><g mask="url(#a)"><path d="M18 34h16v16H18V34Z" fill="#774DD7"/></g><path fill-rule="evenodd" clip-rule="evenodd" d="M27.92 101.53c.24.25.24.66 0 .91L24.58 106l3.36 3.56c.23.25.23.66 0 .92a.58.58 0 0 1-.87 0l-3.35-3.57-3.35 3.57a.58.58 0 0 1-.86 0 .68.68 0 0 1 0-.92l3.35-3.56-3.34-3.56a.68.68 0 0 1 0-.92.58.58 0 0 1 .86 0l3.34 3.56 3.34-3.55a.58.58 0 0 1 .86 0M34 109.5c0-.36-.27-.65-.61-.65h-2.68c-.34 0-.6.29-.6.65 0 .36.26.64.6.64h2.68c.34 0 .6-.29.6-.64m0-7c0-.36-.26-.64-.6-.64h-2.68c-.34 0-.6.28-.6.64s.26.65.6.65h2.68c.34 0 .6-.29.6-.65m0 3.5c0-.36-.26-.65-.6-.65h-2.68c-.34 0-.6.3-.6.65 0 .36.26.65.6.65h2.68c.34 0 .6-.3.6-.65" fill="#231F20"/><mask id="b" style="mask-type:alpha" maskUnits="userSpaceOnUse" x="19" y="101" width="15" height="10"><path fill-rule="evenodd" clip-rule="evenodd" d="M27.92 101.53c.24.25.24.66 0 .91L24.58 106l3.36 3.56c.23.25.23.66 0 .92a.58.58 0 0 1-.87 0l-3.35-3.57-3.35 3.57a.58.58 0 0 1-.86 0 .68.68 0 0 1 0-.92l3.35-3.56-3.34-3.56a.68.68 0 0 1 0-.92.58.58 0 0 1 .86 0l3.34 3.56 3.34-3.55a.58.58 0 0 1 .86 0M34 109.5c0-.36-.27-.65-.61-.65h-2.68c-.34 0-.6.29-.6.65 0 .36.26.64.6.64h2.68c.34 0 .6-.29.6-.64m0-7c0-.36-.26-.64-.6-.64h-2.68c-.34 0-.6.28-.6.64s.26.65.6.65h2.68c.34 0 .6-.29.6-.65m0 3.5c0-.36-.26-.65-.6-.65h-2.68c-.34 0-.6.3-.6.65 0 .36.26.65.6.65h2.68c.34 0 .6-.3.6-.65" fill="#fff"/></mask><g mask="url(#b)"><path d="M18 98h16v16H18V98Z" fill="#774DD7"/></g><path fill-rule="evenodd" clip-rule="evenodd" d="m20.89 73.5 6.49-5.96a.8.8 0 0 1 1.07 0c.3.27.3.7 0 .98L22.49 74l5.96 5.48c.3.27.3.71 0 .98a.8.8 0 0 1-1.07 0l-6.5-5.97a.67.67 0 0 1-.21-.49c0-.18.07-.36.22-.5Z" fill="#666"/><mask id="c" style="mask-type:alpha" maskUnits="userSpaceOnUse" x="20" y="67" width="9" height="14"><path fill-rule="evenodd" clip-rule="evenodd" d="m20.89 73.5 6.49-5.96a.8.8 0 0 1 1.07 0c.3.27.3.7 0 .98L22.49 74l5.96 5.48c.3.27.3.71 0 .98a.8.8 0 0 1-1.07 0l-6.5-5.97a.67.67 0 0 1-.21-.49c0-.18.07-.36.22-.5Z" fill="#fff"/></mask><g mask="url(#c)"><path d="M18 66h16v16H18V66Z" fill="#774DD7"/></g><path fill-rule="evenodd" clip-rule="evenodd" d="m25.99 141.9 4.07 3.9a.76.76 0 0 0 .8.16.72.72 0 0 0 .46-.66v-13.23c0-.4-.33-.72-.74-.72h-9.19c-.4 0-.74.32-.74.72v13.23c0 .3.18.55.46.66.28.11.6.05.8-.15l4.08-3.92Zm3.85 1.68-3.33-3.2a.75.75 0 0 0-.53-.22.75.75 0 0 0-.52.21l-3.33 3.2v-10.74h7.7v10.75Z" fill="#444"/><mask id="d" style="mask-type:alpha" maskUnits="userSpaceOnUse" x="20" y="131" width="12" height="16"><path fill-rule="evenodd" clip-rule="evenodd" d="m25.99 141.9 4.07 3.9a.76.76 0 0 0 .8.16.72.72 0 0 0 .46-.66v-13.23c0-.4-.33-.72-.74-.72h-9.19c-.4 0-.74.32-.74.72v13.23c0 .3.18.55.46.66.28.11.6.05.8-.15l4.08-3.92Zm3.85 1.68-3.33-3.2a.75.75 0 0 0-.53-.22.75.75 0 0 0-.52.21l-3.33 3.2v-10.74h7.7v10.75Z" fill="#fff"/></mask><g mask="url(#d)"><path d="M18 130h16v16H18v-16Z" fill="#774DD7"/></g><path fill-rule="evenodd" clip-rule="evenodd" d="M90 34.67c.26 0 .52.17.71.53l7.12 12.84c.4.71.07 1.3-.71 1.3H82.88c-.78 0-1.1-.59-.71-1.3l7.12-12.84c.2-.36.45-.53.71-.53m0 2.22-6.07 10.95h12.14L90 36.9m0 9.9c.39 0 .71-.34.71-.75a.73.73 0 0 0-.71-.74c-.4 0-.72.33-.72.74s.32.74.72.74m0-2.23a.73.73 0 0 1-.72-.74v-3.87c0-.41.32-.75.72-.75.39 0 .71.34.71.75v3.87c0 .4-.32.74-.71.74" fill="#000"/><mask id="e" style="mask-type:alpha" maskUnits="userSpaceOnUse" x="82" y="34" width="16" height="16"><path fill-rule="evenodd" clip-rule="evenodd" d="M90 34.67c.26 0 .52.17.71.53l7.12 12.84c.4.71.07 1.3-.71 1.3H82.88c-.78 0-1.1-.59-.71-1.3l7.12-12.84c.2-.36.45-.53.71-.53m0 2.22-6.07 10.95h12.14L90 36.9m0 9.9c.39 0 .71-.34.71-.75a.73.73 0 0 0-.71-.74c-.4 0-.72.33-.72.74s.32.74.72.74m0-2.23a.73.73 0 0 1-.72-.74v-3.87c0-.41.32-.75.72-.75.39 0 .71.34.71.75v3.87c0 .4-.32.74-.71.74" fill="#fff"/></mask><g mask="url(#e)"><path d="M82 34h16v16H82V34Z" fill="#774DD7"/></g><path fill-rule="evenodd" clip-rule="evenodd" d="M83.14 99.74a.47.47 0 0 0-.47.54l2 12.11c.05.31.31.53.62.54h9.57c.24 0 .44-.17.47-.4l1.17-7.14h-4.42l-.53 3.1h-3.06l-.83-4.32H96.7l.63-3.88a.47.47 0 0 0-.47-.55H83.14Z" fill="#2684FF"/><mask id="f" style="mask-type:alpha" maskUnits="userSpaceOnUse" x="82" y="99" width="16" height="14"><path fill-rule="evenodd" clip-rule="evenodd" d="M83.14 99.74a.47.47 0 0 0-.47.54l2 12.11c.05.31.31.53.62.54h9.57c.24 0 .44-.17.47-.4l1.17-7.14h-4.42l-.53 3.1h-3.06l-.83-4.32H96.7l.63-3.88a.47.47 0 0 0-.47-.55H83.14Z" fill="#fff"/></mask><g mask="url(#f)"><path d="M82 98h16v16H82V98Z" fill="#774DD7"/></g><path fill-rule="evenodd" clip-rule="evenodd" d="m95.11 74.5-6.49 5.96a.8.8 0 0 1-1.07 0 .66.66 0 0 1 0-.98L93.51 74l-5.96-5.48a.66.66 0 0 1 0-.98.8.8 0 0 1 1.07 0l6.5 5.97a.67.67 0 0 1 0 .98Z" fill="#666"/><mask id="g" style="mask-type:alpha" maskUnits="userSpaceOnUse" x="87" y="67" width="9" height="14"><path fill-rule="evenodd" clip-rule="evenodd" d="m95.11 74.5-6.49 5.96a.8.8 0 0 1-1.07 0 .66.66 0 0 1 0-.98L93.51 74l-5.96-5.48a.66.66 0 0 1 0-.98.8.8 0 0 1 1.07 0l6.5 5.97a.67.67 0 0 1 0 .98Z" fill="#fff"/></mask><g mask="url(#g)"><path d="M82 66h16v16H82V66Z" fill="#774DD7"/></g><path fill-rule="evenodd" clip-rule="evenodd" d="M96.71 136.33v.04l.01.05v3.21a.56.56 0 0 1-.04.18l-.03.05a.87.87 0 0 1-.06.1.6.6 0 0 1-.09.1l-6.07 5.09a.6.6 0 0 1-.41.18h-.09a.6.6 0 0 1-.35-.17l-6.09-5.1a.61.61 0 0 1-.21-.52v-3.2l.01-.05a.6.6 0 0 1 .2-.34l6.09-5.11a.6.6 0 0 1 .35-.17h.14a.6.6 0 0 1 .35.17l6.09 5.11v.01l.03.03.04.04.03.04.01.01.02.04.01.01a1.45 1.45 0 0 1 .04.11 1.13 1.13 0 0 1 .02.09Zm-7.31 7.1v-1.58l-4.92-4.13v1.58l4.92 4.13Zm6.12-5.72v1.59l-4.92 4.12v-1.58l4.92-4.13Z" fill="#444"/><mask id="h" style="mask-type:alpha" maskUnits="userSpaceOnUse" x="83" y="130" width="14" height="16"><path fill-rule="evenodd" clip-rule="evenodd" d="M96.71 136.33v.04l.01.05v3.21a.56.56 0 0 1-.04.18l-.03.05a.87.87 0 0 1-.06.1.6.6 0 0 1-.09.1l-6.07 5.09a.6.6 0 0 1-.41.18h-.09a.6.6 0 0 1-.35-.17l-6.09-5.1a.61.61 0 0 1-.21-.52v-3.2l.01-.05a.6.6 0 0 1 .2-.34l6.09-5.11a.6.6 0 0 1 .35-.17h.14a.6.6 0 0 1 .35.17l6.09 5.11v.01l.03.03.04.04.03.04.01.01.02.04.01.01a1.45 1.45 0 0 1 .04.11 1.13 1.13 0 0 1 .02.09Zm-7.31 7.1v-1.58l-4.92-4.13v1.58l4.92 4.13Zm6.12-5.72v1.59l-4.92 4.12v-1.58l4.92-4.13Z" fill="#fff"/></mask><g mask="url(#h)"><path d="M82 130h16v16H82v-16Z" fill="#774DD7"/></g><path fill-rule="evenodd" clip-rule="evenodd" d="M65.29 41.29H58.7V34.7a.71.71 0 1 0-1.42 0v6.58H50.7a.71.71 0 1 0 0 1.42h6.58v6.58a.71.71 0 1 0 1.42 0V42.7h6.58a.71.71 0 1 0 0-1.42" fill="#231F20"/><mask id="i" style="mask-type:alpha" maskUnits="userSpaceOnUse" x="50" y="34" width="16" height="16"><path fill-rule="evenodd" clip-rule="evenodd" d="M65.29 41.29H58.7V34.7a.71.71 0 1 0-1.42 0v6.58H50.7a.71.71 0 1 0 0 1.42h6.58v6.58a.71.71 0 1 0 1.42 0V42.7h6.58a.71.71 0 1 0 0-1.42" fill="#fff"/></mask><g mask="url(#i)"><path d="M50 34h16v16H50V34Z" fill="#774DD7"/></g><path fill-rule="evenodd" clip-rule="evenodd" d="M58 110.29h-4.66l.24-.35c.2-.26.33-.6.4-1.04l.01-.04h8.02v.04c.09.44.22.78.42 1.04l.23.35H58Zm.52 1.72c0 .31-.23.56-.52.56-.28 0-.5-.25-.5-.56 0-.1.02-.2.07-.3h.87c.05.1.08.2.08.3Zm-4.46-7.35c.05-1.1.48-2.13 1.21-2.9a3.77 3.77 0 0 1 2.73-1.19c1.02 0 1.99.43 2.72 1.2.74.76 1.17 1.79 1.22 2.89v2.77h-7.89v-2.77Zm10.34 5.77-.95-1.39c-.13-.14-.2-.68-.2-.87v-3.58a5.6 5.6 0 0 0-4.2-5.33v-.11c0-.64-.47-1.15-1.06-1.15-.58 0-1.05.51-1.05 1.15v.11a5.6 5.6 0 0 0-4.2 5.33v3.58c0 .19-.06.73-.2.87l-.94 1.39c-.14.16-.27.34-.27.57 0 .4.3.72.66.72h4.2l-.01.3c0 1.1.81 1.98 1.82 1.98 1.02 0 1.83-.89 1.83-1.99 0-.1 0-.2-.02-.3h4.2c.36 0 .66-.31.66-.7 0-.24-.13-.42-.27-.58Z" fill="#999"/><mask id="j" style="mask-type:alpha" maskUnits="userSpaceOnUse" x="51" y="98" width="14" height="16"><path fill-rule="evenodd" clip-rule="evenodd" d="M58 110.29h-4.66l.24-.35c.2-.26.33-.6.4-1.04l.01-.04h8.02v.04c.09.44.22.78.42 1.04l.23.35H58Zm.52 1.72c0 .31-.23.56-.52.56-.28 0-.5-.25-.5-.56 0-.1.02-.2.07-.3h.87c.05.1.08.2.08.3Zm-4.46-7.35c.05-1.1.48-2.13 1.21-2.9a3.77 3.77 0 0 1 2.73-1.19c1.02 0 1.99.43 2.72 1.2.74.76 1.17 1.79 1.22 2.89v2.77h-7.89v-2.77Zm10.34 5.77-.95-1.39c-.13-.14-.2-.68-.2-.87v-3.58a5.6 5.6 0 0 0-4.2-5.33v-.11c0-.64-.47-1.15-1.06-1.15-.58 0-1.05.51-1.05 1.15v.11a5.6 5.6 0 0 0-4.2 5.33v3.58c0 .19-.06.73-.2.87l-.94 1.39c-.14.16-.27.34-.27.57 0 .4.3.72.66.72h4.2l-.01.3c0 1.1.81 1.98 1.82 1.98 1.02 0 1.83-.89 1.83-1.99 0-.1 0-.2-.02-.3h4.2c.36 0 .66-.31.66-.7 0-.24-.13-.42-.27-.58Z" fill="#fff"/></mask><g mask="url(#j)"><path d="M50 98h16v16H50V98Z" fill="#774DD7"/></g><path fill-rule="evenodd" clip-rule="evenodd" d="m50.22 74.52 5.45 5.26c.3.3.78.3 1.08 0 .3-.29.3-.76 0-1.05l-4.13-3.99h12.61c.43 0 .77-.33.77-.74a.76.76 0 0 0-.77-.75h-12.6l4.13-3.98c.3-.3.3-.76 0-1.05a.78.78 0 0 0-.54-.22c-.2 0-.4.07-.55.22l-5.44 5.25c-.3.3-.3.76 0 1.05" fill="#000"/><mask id="k" style="mask-type:alpha" maskUnits="userSpaceOnUse" x="50" y="68" width="16" height="12"><path fill-rule="evenodd" clip-rule="evenodd" d="m50.22 74.52 5.45 5.26c.3.3.78.3 1.08 0 .3-.29.3-.76 0-1.05l-4.13-3.99h12.61c.43 0 .77-.33.77-.74a.76.76 0 0 0-.77-.75h-12.6l4.13-3.98c.3-.3.3-.76 0-1.05a.78.78 0 0 0-.54-.22c-.2 0-.4.07-.55.22l-5.44 5.25c-.3.3-.3.76 0 1.05" fill="#fff"/></mask><g mask="url(#k)"><path d="M50 66h16v16H50V66Z" fill="#774DD7"/></g><path fill-rule="evenodd" clip-rule="evenodd" d="M51.32 131.89h13.36c.36 0 .65.28.65.64v10.94c0 .35-.29.64-.65.64H59.5a.52.52 0 0 1-.11 0h-8.07a.65.65 0 0 1-.65-.64v-10.94c0-.36.3-.64.65-.64Zm.66 8.37v2.58h12.05v-2.58H51.98Zm0-1.29h12.05v-5.8H51.98v5.8Zm2.88 3.08h-1.08a.52.52 0 0 1-.53-.51c0-.28.24-.5.53-.5h1.08c.3 0 .53.22.53.5s-.24.5-.53.5Zm3.68 0h-1.08a.52.52 0 0 1-.53-.51c0-.28.24-.5.53-.5h1.08c.3 0 .53.22.53.5s-.24.5-.53.5Zm3.68 0h-1.09a.52.52 0 0 1-.52-.51c0-.28.23-.5.52-.5h1.09c.29 0 .52.22.52.5s-.23.5-.52.5Z" fill="#999"/><mask id="l" style="mask-type:alpha" maskUnits="userSpaceOnUse" x="50" y="131" width="16" height="14"><path fill-rule="evenodd" clip-rule="evenodd" d="M51.32 131.89h13.36c.36 0 .65.28.65.64v10.94c0 .35-.29.64-.65.64H59.5a.52.52 0 0 1-.11 0h-8.07a.65.65 0 0 1-.65-.64v-10.94c0-.36.3-.64.65-.64Zm.66 8.37v2.58h12.05v-2.58H51.98Zm0-1.29h12.05v-5.8H51.98v5.8Zm2.88 3.08h-1.08a.52.52 0 0 1-.53-.51c0-.28.24-.5.53-.5h1.08c.3 0 .53.22.53.5s-.24.5-.53.5Zm3.68 0h-1.08a.52.52 0 0 1-.53-.51c0-.28.24-.5.53-.5h1.08c.3 0 .53.22.53.5s-.24.5-.53.5Zm3.68 0h-1.09a.52.52 0 0 1-.52-.51c0-.28.23-.5.52-.5h1.09c.29 0 .52.22.52.5s-.23.5-.52.5Z" fill="#fff"/></mask><g mask="url(#l)"><path d="M50 130h16v16H50v-16Z" fill="#774DD7"/></g><path fill-rule="evenodd" clip-rule="evenodd" d="m121.5 47.11-5.97-6.49a.8.8 0 0 1 0-1.06c.28-.3.72-.3.99 0L122 45.5l5.48-5.96c.27-.29.71-.29.98 0a.8.8 0 0 1 0 1.07l-5.97 6.5a.66.66 0 0 1-.5.21.66.66 0 0 1-.48-.22Z" fill="#666"/><mask id="m" style="mask-type:alpha" maskUnits="userSpaceOnUse" x="115" y="39" width="14" height="9"><path fill-rule="evenodd" clip-rule="evenodd" d="m121.5 47.11-5.97-6.49a.8.8 0 0 1 0-1.06c.28-.3.72-.3.99 0L122 45.5l5.48-5.96c.27-.29.71-.29.98 0a.8.8 0 0 1 0 1.07l-5.97 6.5a.66.66 0 0 1-.5.21.66.66 0 0 1-.48-.22Z" fill="#fff"/></mask><g mask="url(#m)"><path d="M114 34h16v16h-16V34Z" fill="#774DD7"/></g><path fill-rule="evenodd" clip-rule="evenodd" d="M127.87 100.62c0-.81-.66-1.46-1.47-1.46h-9.66a.61.61 0 0 0-.61.61v12.46c0 .34.28.61.61.61h9.66c.8 0 1.46-.64 1.47-1.45v-10.77Zm-8.07-.24h1.22v4.15l-.18-.18a.61.61 0 0 0-.86 0l-.18.18v-4.15Zm6.6 11.24c.13 0 .24-.1.24-.24v-10.76a.25.25 0 0 0-.24-.24h-4.16V106a.61.61 0 0 1-1.04.43l-.79-.8-.79.8a.6.6 0 0 1-1.04-.43v-5.63h-1.22v11.24h9.04Z" fill="#000"/><mask id="n" style="mask-type:alpha" maskUnits="userSpaceOnUse" x="116" y="99" width="12" height="14"><path fill-rule="evenodd" clip-rule="evenodd" d="M127.87 100.62c0-.81-.66-1.46-1.47-1.46h-9.66a.61.61 0 0 0-.61.61v12.46c0 .34.28.61.61.61h9.66c.8 0 1.46-.64 1.47-1.45v-10.77Zm-8.07-.24h1.22v4.15l-.18-.18a.61.61 0 0 0-.86 0l-.18.18v-4.15Zm6.6 11.24c.13 0 .24-.1.24-.24v-10.76a.25.25 0 0 0-.24-.24h-4.16V106a.61.61 0 0 1-1.04.43l-.79-.8-.79.8a.6.6 0 0 1-1.04-.43v-5.63h-1.22v11.24h9.04Z" fill="#fff"/></mask><g mask="url(#n)"><path d="M114 98h16v16h-16V98Z" fill="#774DD7"/></g><path fill-rule="evenodd" clip-rule="evenodd" d="m129.78 73.48-5.45-5.26a.79.79 0 0 0-1.08 0c-.3.29-.3.76 0 1.05l4.13 3.99h-12.61a.76.76 0 0 0-.77.74c0 .41.34.75.77.75h12.6l-4.13 3.98c-.3.3-.3.76 0 1.05a.78.78 0 0 0 1.09 0l5.44-5.25c.3-.3.3-.76 0-1.05" fill="#000"/><mask id="o" style="mask-type:alpha" maskUnits="userSpaceOnUse" x="114" y="68" width="16" height="12"><path fill-rule="evenodd" clip-rule="evenodd" d="m129.78 73.48-5.45-5.26a.79.79 0 0 0-1.08 0c-.3.29-.3.76 0 1.05l4.13 3.99h-12.61a.76.76 0 0 0-.77.74c0 .41.34.75.77.75h12.6l-4.13 3.98c-.3.3-.3.76 0 1.05a.78.78 0 0 0 1.09 0l5.44-5.25c.3-.3.3-.76 0-1.05" fill="#fff"/></mask><g mask="url(#o)"><path d="M114 66h16v16h-16V66Z" fill="#774DD7"/></g><path fill-rule="evenodd" clip-rule="evenodd" d="M115.98 142.98h12.05v-8.65h-12.05v8.65Zm.52-10.45a.52.52 0 1 1 0 1.05.52.52 0 0 1 0-1.05Zm1.58 0a.52.52 0 1 1 0 1.05.52.52 0 0 1 0-1.05Zm1.56 0a.52.52 0 1 1 0 1.05.52.52 0 0 1 0-1.05Zm9.04-.82h-13.42a.65.65 0 0 0-.6.66v11.26c0 .36.3.66.66.66h13.36c.36 0 .66-.3.66-.66v-11.26c0-.36-.3-.66-.66-.66Z" fill="#231F20"/><mask id="p" style="mask-type:alpha" maskUnits="userSpaceOnUse" x="114" y="131" width="16" height="14"><path fill-rule="evenodd" clip-rule="evenodd" d="M115.98 142.98h12.05v-8.65h-12.05v8.65Zm.52-10.45a.52.52 0 1 1 0 1.05.52.52 0 0 1 0-1.05Zm1.58 0a.52.52 0 1 1 0 1.05.52.52 0 0 1 0-1.05Zm1.56 0a.52.52 0 1 1 0 1.05.52.52 0 0 1 0-1.05Zm9.04-.82h-13.42a.65.65 0 0 0-.6.66v11.26c0 .36.3.66.66.66h13.36c.36 0 .66-.3.66-.66v-11.26c0-.36-.3-.66-.66-.66Z" fill="#fff"/></mask><g mask="url(#p)"><path d="M114 130h16v16h-16v-16Z" fill="#774DD7"/></g><path fill-rule="evenodd" clip-rule="evenodd" d="m154.52 49.78 5.26-5.45c.3-.3.3-.78 0-1.08a.72.72 0 0 0-1.05 0l-3.99 4.13V34.77A.76.76 0 0 0 154 34a.76.76 0 0 0-.75.77v12.6l-3.98-4.13a.73.73 0 0 0-1.05 0 .78.78 0 0 0 0 1.09l5.25 5.44c.3.3.76.3 1.05 0" fill="#000"/><mask id="q" style="mask-type:alpha" maskUnits="userSpaceOnUse" x="148" y="34" width="12" height="16"><path fill-rule="evenodd" clip-rule="evenodd" d="m154.52 49.78 5.26-5.45c.3-.3.3-.78 0-1.08a.72.72 0 0 0-1.05 0l-3.99 4.13V34.77A.76.76 0 0 0 154 34a.76.76 0 0 0-.75.77v12.6l-3.98-4.13a.73.73 0 0 0-1.05 0 .78.78 0 0 0 0 1.09l5.25 5.44c.3.3.76.3 1.05 0" fill="#fff"/></mask><g mask="url(#q)"><path d="M146 34h16v16h-16V34Z" fill="#774DD7"/></g><path d="m158.06 113.8-4.07-3.9-4.07 3.9a.76.76 0 0 1-.81.16.72.72 0 0 1-.46-.66v-13.23c0-.4.33-.72.74-.72h9.19c.4 0 .74.32.74.72v13.23c0 .3-.18.55-.46.66a.76.76 0 0 1-.8-.15Z" fill="#444"/><mask id="r" style="mask-type:alpha" maskUnits="userSpaceOnUse" x="148" y="99" width="12" height="16"><path d="m158.06 113.8-4.07-3.9-4.07 3.9a.76.76 0 0 1-.81.16.72.72 0 0 1-.46-.66v-13.23c0-.4.33-.72.74-.72h9.19c.4 0 .74.32.74.72v13.23c0 .3-.18.55-.46.66a.76.76 0 0 1-.8-.15Z" fill="#fff"/></mask><g mask="url(#r)"><path d="M146 98h16v16h-16V98Z" fill="#774DD7"/></g><path fill-rule="evenodd" clip-rule="evenodd" d="M162 77.69a.64.64 0 0 0-.63-.65h-2.75a.64.64 0 0 0-.62.65c0 .35.28.64.63.64h2.75c.34 0 .62-.29.62-.64m0-7a.64.64 0 0 0-.63-.65h-2.75a.64.64 0 0 0-.62.65c0 .35.28.64.63.64h2.75c.34 0 .62-.29.62-.64m0 3.5a.64.64 0 0 0-.63-.65h-2.75a.64.64 0 0 0-.62.65c0 .35.28.64.63.64h2.75c.34 0 .62-.29.62-.64m-5.32-3.8-6.45 8.03v.01a.62.62 0 0 1-.89.08l-.01-.01-3.1-2.7a.67.67 0 0 1-.08-.92.61.61 0 0 1 .88-.08l2.63 2.3 6.06-7.54a.6.6 0 0 1 .88-.08c.27.23.3.64.08.92" fill="#231F20"/><mask id="s" style="mask-type:alpha" maskUnits="userSpaceOnUse" x="146" y="69" width="16" height="10"><path fill-rule="evenodd" clip-rule="evenodd" d="M162 77.69a.64.64 0 0 0-.63-.65h-2.75a.64.64 0 0 0-.62.65c0 .35.28.64.63.64h2.75c.34 0 .62-.29.62-.64m0-7a.64.64 0 0 0-.63-.65h-2.75a.64.64 0 0 0-.62.65c0 .35.28.64.63.64h2.75c.34 0 .62-.29.62-.64m0 3.5a.64.64 0 0 0-.63-.65h-2.75a.64.64 0 0 0-.62.65c0 .35.28.64.63.64h2.75c.34 0 .62-.29.62-.64m-5.32-3.8-6.45 8.03v.01a.62.62 0 0 1-.89.08l-.01-.01-3.1-2.7a.67.67 0 0 1-.08-.92.61.61 0 0 1 .88-.08l2.63 2.3 6.06-7.54a.6.6 0 0 1 .88-.08c.27.23.3.64.08.92" fill="#fff"/></mask><g mask="url(#s)"><path d="M146 66h16v16h-16V66Z" fill="#774DD7"/></g><path fill-rule="evenodd" clip-rule="evenodd" d="M149.92 142.17c.13-.48.24-.85.51-1.16l.07-.07c.12-.1.27-.13.38-.13.22 0 .45.1.63.29.3.31.34.77.08 1.04l-.02.03-.04.04-.01.01-.02.01c-.48.5-1.19.72-1.85.8.12-.3.2-.6.27-.86Zm2.48-1.95c-.2-.21-.44-.37-.7-.48l1-1 1.16 1.14-1.01 1c-.1-.23-.25-.46-.45-.66Zm2.34-1.22-1.15-1.15 5.08-5.08 1.15 1.15-5.08 5.08Zm6.41-4.64a.63.63 0 0 0 0-.89h-.01l-2.03-2.02a.62.62 0 0 0-.89 0l-8.73 8.72a.66.66 0 0 0-.09.11c-1.1 1.38-.28 3.06-2.73 3.76 0 0 1.01.28 2.26.28 1.16 0 2.53-.25 3.46-1.2l.02-.02.03-.03.04-.04.02-.02 2.64-2.64a.73.73 0 0 0 .1-.1l5.87-5.87a.41.41 0 0 0 .04-.04Z" fill="#000"/><mask id="t" style="mask-type:alpha" maskUnits="userSpaceOnUse" x="146" y="131" width="16" height="14"><path fill-rule="evenodd" clip-rule="evenodd" d="M149.92 142.17c.13-.48.24-.85.51-1.16l.07-.07c.12-.1.27-.13.38-.13.22 0 .45.1.63.29.3.31.34.77.08 1.04l-.02.03-.04.04-.01.01-.02.01c-.48.5-1.19.72-1.85.8.12-.3.2-.6.27-.86Zm2.48-1.95c-.2-.21-.44-.37-.7-.48l1-1 1.16 1.14-1.01 1c-.1-.23-.25-.46-.45-.66Zm2.34-1.22-1.15-1.15 5.08-5.08 1.15 1.15-5.08 5.08Zm6.41-4.64a.63.63 0 0 0 0-.89h-.01l-2.03-2.02a.62.62 0 0 0-.89 0l-8.73 8.72a.66.66 0 0 0-.09.11c-1.1 1.38-.28 3.06-2.73 3.76 0 0 1.01.28 2.26.28 1.16 0 2.53-.25 3.46-1.2l.02-.02.03-.03.04-.04.02-.02 2.64-2.64a.73.73 0 0 0 .1-.1l5.87-5.87a.41.41 0 0 0 .04-.04Z" fill="#fff"/></mask><g mask="url(#t)"><path d="M146 130h16v16h-16v-16Z" fill="#774DD7"/></g></svg>