<svg width="180" height="180" fill="none" xmlns="http://www.w3.org/2000/svg"><path d="m34.73 75.38-17.3 13.04-7.84 1.5a.5.5 0 0 1-.58-.4.49.49 0 0 1 .4-.57l7.6-1.44 17.2-12.96 15.87-7.67 23.43 6.9 17.7.72 21.7-1.72 17.27 8.84 17.74-15.72 14.51 2.46 7.45-4.31a.5.5 0 0 1 .68.17c.14.23.06.53-.18.67l-7.75 4.5-14.4-2.44-17.9 15.85-17.63-9.02-21.47 1.7-17.82-.73-.13-.02-23.11-6.8-15.44 7.45Z" fill="#DDD"/><path d="M172 64.47c0 1.08-.9 1.96-2 1.96s-1.99-.88-1.99-1.96.9-1.96 2-1.96 1.99.88 1.99 1.96Z" fill="#DDD"/><path fill-rule="evenodd" clip-rule="evenodd" d="m9.5 63.49 5.48-2.94 19.2 14.2 15.95 8.07 22.18-1.7L90.75 67.4l18.2-14.68 17.2 9.79 21.92-.98 16.7 13.22 4.99 3.36v61.95H9.5V63.49Z" fill="url(#a)"/><path fill-rule="evenodd" clip-rule="evenodd" d="m9.73 63.92 5.44-2.79 18.94 14.73.1.06 16.07 7.4 22.46-1.73 18.56-13.8 17.94-14.72 17.02 9.94 21.89-.98 16.55 13.82 4.82 2.63a.5.5 0 0 0 .67-.2.48.48 0 0 0-.2-.66l-4.73-2.57-16.61-13.9-.15-.12-21.98.98-17.38-10.13-18.46 15.15-18.3 13.6-21.91 1.7-15.78-7.27-19.4-15.09-6.02 3.08a.49.49 0 0 0-.21.67.5.5 0 0 0 .67.2Zm62.52 16.8.27-.1-.15.01-.12.1Z" fill="#FC521F"/><path d="M172 78.17c0 1.09-.9 1.96-2 1.96s-1.99-.87-1.99-1.96c0-1.08.9-1.95 2-1.95s1.99.87 1.99 1.95Z" fill="#FC521F"/><path fill-rule="evenodd" clip-rule="evenodd" d="M20.1 45.19v.85H16.1v-.78l2.02-2.13c.24-.25.4-.48.52-.7.1-.2.16-.42.16-.63 0-.26-.08-.46-.23-.6-.15-.13-.38-.2-.68-.2-.53 0-1.06.2-1.6.6l-.36-.77c.23-.2.53-.37.9-.49s.74-.19 1.1-.19c.6 0 1.07.15 1.42.43.34.29.52.67.52 1.16 0 .33-.08.65-.22.94-.15.3-.4.63-.74.99l-1.45 1.52h2.63Zm2.7-2.87c.37 0 .7.08.98.24.29.15.5.37.66.65.15.28.23.6.23.97a1.79 1.79 0 0 1-1.03 1.7c-.33.15-.71.23-1.16.23a3.36 3.36 0 0 1-1.99-.68l.37-.77c.53.4 1.08.6 1.64.6.37 0 .65-.1.85-.27.2-.18.3-.44.3-.78 0-.32-.1-.58-.3-.77-.2-.19-.47-.28-.81-.28a1.68 1.68 0 0 0-1.2.5h-.65v-3.43h3.71v.82h-2.65v1.57c.28-.2.63-.3 1.05-.3Zm4.21 3.95-.7-.4L29.79 40l.7.4-3.47 5.87Zm-.73-2.57c-.47 0-.84-.15-1.1-.45-.27-.3-.4-.75-.4-1.33 0-.58.13-1.02.4-1.32.26-.3.63-.45 1.1-.45.47 0 .84.15 1.1.45.27.3.4.74.4 1.32 0 .58-.13 1.03-.4 1.33-.26.3-.63.45-1.1.45Zm0-.67a.5.5 0 0 0 .47-.26c.1-.17.14-.46.14-.85 0-.39-.05-.67-.15-.84a.5.5 0 0 0-.46-.27c-.2 0-.36.09-.46.26-.1.18-.14.46-.14.85 0 .4.04.68.14.85.1.18.25.26.46.26Zm4.22 3.07c-.47 0-.83-.15-1.1-.45-.26-.3-.39-.75-.39-1.34 0-.58.13-1.02.4-1.31.26-.3.63-.45 1.1-.45.47 0 .83.15 1.1.45.26.3.39.74.39 1.32 0 .58-.13 1.02-.4 1.33-.26.3-.62.45-1.1.45Zm0-.67a.5.5 0 0 0 .47-.26c.1-.17.15-.45.15-.85 0-.39-.05-.67-.15-.84a.5.5 0 0 0-.46-.27.5.5 0 0 0-.47.27c-.1.17-.15.45-.15.84 0 .4.05.68.15.85.1.18.26.26.47.26ZM18.83 101.75h1.28v.86h-3.65v-.86h1.28v-3.74l-1.01.6-.43-.78 1.75-1.04h.78v4.96Zm3.97-2.86c.37 0 .7.08.98.23.28.16.5.38.65.66.15.28.23.6.23.97a1.78 1.78 0 0 1-1.03 1.7 2.6 2.6 0 0 1-1.15.23 3.36 3.36 0 0 1-2-.68l.37-.78c.54.4 1.08.6 1.64.6.37 0 .66-.08.85-.27.2-.18.3-.44.3-.77s-.1-.58-.3-.77c-.2-.2-.47-.29-.81-.29a1.68 1.68 0 0 0-1.2.5h-.65v-3.43h3.71v.83h-2.65v1.57c.28-.2.64-.3 1.06-.3Zm4.2 3.95-.7-.4 3.47-5.88.7.4-3.47 5.88Zm-.73-2.57c-.47 0-.84-.15-1.1-.46-.26-.3-.4-.74-.4-1.32 0-.58.14-1.02.4-1.32.26-.3.63-.46 1.1-.46.47 0 .84.15 1.1.46.27.3.4.74.4 1.32 0 .58-.13 1.02-.4 1.32-.26.3-.63.46-1.1.46Zm0-.67a.5.5 0 0 0 .46-.26c.1-.17.15-.46.15-.85 0-.39-.05-.67-.15-.85a.5.5 0 0 0-.46-.26c-.2 0-.36.09-.46.26-.1.17-.15.45-.15.85 0 .4.05.68.15.85.1.17.25.26.46.26Zm4.22 3.07c-.47 0-.83-.15-1.1-.46-.26-.3-.4-.74-.4-1.33 0-.58.14-1.02.4-1.32.27-.3.64-.45 1.1-.45.47 0 .84.15 1.1.46.27.3.4.74.4 1.32 0 .58-.13 1.02-.4 1.32-.26.3-.63.46-1.1.46Zm0-.67a.5.5 0 0 0 .47-.26c.1-.17.15-.46.15-.85 0-.39-.05-.67-.15-.85a.5.5 0 0 0-.47-.26.5.5 0 0 0-.46.26c-.1.18-.15.46-.15.85 0 .4.05.68.15.85.1.17.26.26.46.26Z" fill="#000" fill-opacity=".25"/><path d="M9.5 42.5h3.6v1.19H9.5V42.5ZM9.5 99.07h3.6v1.18H9.5v-1.18Z" fill="#000" fill-opacity=".15"/><defs><linearGradient id="a" x1="12.28" y1="52.72" x2="12.28" y2="127.38" gradientUnits="userSpaceOnUse"><stop stop-color="#FC521F" stop-opacity=".6"/><stop offset="1" stop-color="#FC521F" stop-opacity=".1"/></linearGradient></defs></svg>