<svg width="180" height="180" fill="none" xmlns="http://www.w3.org/2000/svg"><path fill-rule="evenodd" clip-rule="evenodd" d="M34.5 43a16 16 0 0 1 16-16h67a16 16 0 1 1 0 32h-67a16 16 0 0 1-16-16Z" fill="#6F2CAC"/><path d="M59.92 37.13h4.54c1.07 0 1.9.27 2.5.81.6.54.9 1.3.9 2.27s-.3 1.73-.9 2.27a3.6 3.6 0 0 1-2.5.81H62.1V47h-2.19v-9.87Zm4.26 4.5c1.09 0 1.64-.46 1.64-1.4 0-.5-.14-.85-.41-1.08-.27-.24-.68-.35-1.23-.35H62.1v2.84h2.07ZM73.88 41.7l-1.19.12c-.59.06-1 .22-1.24.5-.25.27-.37.64-.37 1.1V47h-2.11v-6.87H71v1.16c.34-.8 1.06-1.23 2.14-1.3l.62-.05.12 1.75ZM74.59 47v-6.87h2.11V47H74.6Zm-.07-10.18h2.27v1.98h-2.27v-1.98ZM86.79 39.96c.78 0 1.37.24 1.75.71.38.48.57 1.2.57 2.19V47H87v-4.07c0-.47-.07-.8-.22-1.01-.14-.2-.39-.31-.73-.31-.4 0-.72.14-.94.42-.22.28-.34.67-.34 1.18V47h-2.11v-4.07c0-.47-.07-.8-.22-1.01-.14-.2-.39-.31-.73-.31-.4 0-.72.14-.94.42-.22.28-.34.67-.34 1.18V47h-2.11v-6.87h2.06v.92c.21-.35.5-.63.85-.81a2.7 2.7 0 0 1 1.25-.28c1.02 0 1.7.42 2.04 1.27a2.6 2.6 0 0 1 2.27-1.27ZM93.76 39.96c1.03 0 1.78.24 2.27.73.5.48.74 1.23.74 2.25V47h-2v-1.02c-.14.35-.38.63-.7.84-.33.2-.71.3-1.15.3-.47 0-.9-.1-1.28-.29a2.28 2.28 0 0 1-.9-.78c-.2-.34-.31-.71-.31-1.12 0-.5.12-.9.38-1.2.26-.28.67-.5 1.24-.62.57-.13 1.35-.2 2.34-.2h.36v-.25c0-.41-.09-.7-.26-.87-.18-.17-.49-.25-.93-.25-.33 0-.7.06-1.12.18-.4.12-.8.3-1.17.5l-.56-1.4c.39-.25.87-.45 1.44-.61a5.8 5.8 0 0 1 1.6-.25Zm-.38 5.7c.41 0 .74-.14 1-.41.25-.28.37-.64.37-1.08v-.24h-.23c-.76 0-1.3.06-1.6.19a.66.66 0 0 0-.45.65c0 .26.09.47.25.63.18.17.4.26.66.26ZM103.26 41.7l-1.19.12c-.58.06-1 .22-1.24.5-.25.27-.37.64-.37 1.1V47h-2.11v-6.87h2.03v1.16c.34-.8 1.06-1.23 2.14-1.3l.62-.05.12 1.75ZM109.15 40.14h2.07l-4.14 9.38h-2.14l1.31-2.9-2.82-6.48h2.2l1.73 4.37 1.8-4.37Z" fill="#fff"/><path fill-rule="evenodd" clip-rule="evenodd" d="M34.55 90a16 16 0 0 1 16-16h77.4a16 16 0 0 1 0 32h-77.4a16 16 0 0 1-16-16Z" fill="#27A396"/><path d="M59.03 94.13c-.74 0-1.46-.1-2.15-.3a5.2 5.2 0 0 1-1.72-.84l.7-1.55c.95.66 2.02 1 3.2 1 .62 0 1.09-.1 1.42-.3.33-.2.5-.49.5-.84 0-.32-.15-.57-.46-.74-.3-.18-.84-.35-1.61-.52a9.1 9.1 0 0 1-2.09-.65 2.8 2.8 0 0 1-1.13-.92 2.54 2.54 0 0 1-.35-1.37c0-.6.16-1.13.49-1.6.33-.46.8-.83 1.4-1.09.6-.27 1.29-.4 2.07-.4.7 0 1.37.1 2.02.3.65.2 1.17.48 1.55.83l-.7 1.55c-.9-.66-1.86-1-2.86-1-.57 0-1.01.12-1.34.34-.33.22-.49.52-.49.9 0 .22.06.41.18.56.13.14.34.27.63.38.3.11.72.23 1.26.35a6.9 6.9 0 0 1 2.73 1.08c.56.43.84 1.04.84 1.82 0 .93-.36 1.67-1.08 2.2-.71.54-1.72.8-3 .8ZM70.72 90.96h-4.48c.06.55.24.95.53 1.2.3.25.72.37 1.26.37a3.38 3.38 0 0 0 2.01-.67l.56 1.41a4.79 4.79 0 0 1-2.67.84 3.83 3.83 0 0 1-2.74-.95c-.67-.64-1-1.52-1-2.62 0-.7.15-1.32.44-1.86.28-.54.69-.96 1.2-1.26.51-.3 1.1-.46 1.75-.46.96 0 1.72.31 2.28.94.57.62.86 1.47.86 2.54v.52Zm-3.08-2.55c-.4 0-.73.13-.97.4-.23.25-.38.62-.43 1.1h2.7a1.8 1.8 0 0 0-.38-1.12c-.22-.25-.52-.38-.92-.38ZM75.27 94.11c-1.12 0-2-.32-2.65-.95a3.47 3.47 0 0 1-.96-2.59c0-.72.15-1.35.46-1.89.3-.55.74-.98 1.3-1.27a4.5 4.5 0 0 1 3.4-.21c.47.15.85.35 1.14.61l-.56 1.44a3 3 0 0 0-.9-.49 2.61 2.61 0 0 0-.94-.18c-.55 0-.98.17-1.29.5-.3.32-.44.8-.44 1.45 0 .64.15 1.13.44 1.47.31.32.74.49 1.3.49.3 0 .61-.06.93-.17.33-.12.63-.29.9-.5l.56 1.45c-.31.26-.7.47-1.18.62-.48.15-.98.22-1.51.22ZM82.21 94.11c-.72 0-1.36-.14-1.91-.43-.55-.3-.98-.72-1.28-1.25a3.88 3.88 0 0 1-.45-1.9c0-.73.15-1.36.45-1.9.3-.53.73-.95 1.28-1.24a4.07 4.07 0 0 1 1.91-.43c.73 0 1.37.14 1.92.43.55.3.98.7 1.28 1.25.3.53.44 1.16.44 1.89s-.15 1.36-.44 1.9c-.3.53-.73.95-1.28 1.25-.55.29-1.19.43-1.92.43Zm0-1.6c1.03 0 1.54-.67 1.54-1.98 0-.66-.13-1.16-.4-1.49-.26-.32-.64-.49-1.14-.49-1.02 0-1.54.66-1.54 1.98 0 1.31.52 1.97 1.54 1.97ZM91.45 86.96c.82 0 1.44.24 1.84.73.4.47.6 1.2.6 2.17V94h-2.12v-4.05c0-.46-.08-.8-.26-1.02-.17-.21-.44-.32-.8-.32-.44 0-.8.14-1.06.42-.26.28-.4.65-.4 1.12V94h-2.1v-6.87h2.05v.98c.24-.38.55-.66.94-.86.39-.2.83-.3 1.31-.3ZM102.42 84.13V94h-2.1v-1.02c-.2.35-.5.63-.88.84-.37.2-.8.3-1.27.3-.59 0-1.12-.16-1.58-.46-.46-.3-.82-.73-1.08-1.27a4.5 4.5 0 0 1-.38-1.89c0-.7.13-1.33.38-1.86.26-.54.62-.96 1.08-1.25a2.9 2.9 0 0 1 1.58-.43c.47 0 .89.1 1.26.3.38.19.68.46.88.82v-3.95h2.11Zm-3.64 8.37c.5 0 .88-.17 1.14-.5.27-.35.4-.84.4-1.47 0-.64-.13-1.12-.4-1.46-.26-.33-.64-.5-1.14-.5-.49 0-.87.17-1.14.5-.27.33-.4.8-.4 1.43 0 .63.13 1.13.4 1.48.27.35.65.52 1.14.52ZM107.1 86.96c1.03 0 1.79.24 2.27.73.5.48.74 1.23.74 2.25V94h-2v-1.02c-.14.35-.37.63-.7.84-.32.2-.7.3-1.14.3-.47 0-.9-.1-1.28-.29a2.28 2.28 0 0 1-.9-.78c-.21-.34-.32-.71-.32-1.12 0-.5.13-.9.38-1.2.26-.28.68-.5 1.25-.62.57-.13 1.34-.2 2.33-.2h.37v-.25c0-.41-.09-.7-.27-.87-.17-.17-.48-.25-.92-.25-.34 0-.71.06-1.12.18-.41.12-.8.3-1.18.5l-.56-1.4c.4-.25.88-.45 1.45-.61a5.8 5.8 0 0 1 1.6-.25Zm-.37 5.7c.4 0 .74-.14 1-.41.24-.28.37-.64.37-1.08v-.24h-.24c-.75 0-1.29.06-1.6.19a.66.66 0 0 0-.44.65c0 .26.08.47.25.63.18.17.4.26.66.26ZM116.6 88.7l-1.18.12c-.59.06-1 .22-1.25.5-.24.27-.36.64-.36 1.1V94h-2.12v-6.87h2.03v1.16c.35-.8 1.06-1.23 2.15-1.3l.61-.05.13 1.75ZM122.5 87.14h2.07l-4.14 9.38h-2.15l1.32-2.9-2.83-6.48h2.2l1.74 4.37 1.79-4.37Z" fill="#fff"/><path fill-rule="evenodd" clip-rule="evenodd" d="M34.47 137a16 16 0 0 1 16-16h61.56a16 16 0 0 1 0 32H50.47a16 16 0 0 1-16-16Z" fill="#DDD"/><path d="M58.93 141v-8.1h-3.1v-1.77h8.38v1.78h-3.1V141h-2.18ZM70.26 137.96h-4.48c.06.55.24.95.53 1.2.3.25.72.37 1.26.37a3.38 3.38 0 0 0 2.01-.67l.56 1.41a4.8 4.8 0 0 1-2.67.84 3.83 3.83 0 0 1-2.74-.95c-.67-.64-1-1.52-1-2.62 0-.7.15-1.32.44-1.86.29-.54.69-.96 1.2-1.26.51-.3 1.1-.46 1.75-.46.96 0 1.72.31 2.28.94.57.62.86 1.47.86 2.54v.52Zm-3.08-2.55c-.4 0-.73.13-.97.4-.23.25-.38.62-.43 1.1h2.7a1.8 1.8 0 0 0-.38-1.12c-.21-.25-.52-.38-.92-.38ZM76.45 135.7l-1.2.12c-.58.06-1 .22-1.24.5s-.36.64-.36 1.1V141h-2.12v-6.87h2.03v1.16c.35-.8 1.06-1.23 2.14-1.3l.62-.05.13 1.75ZM81.64 139.56c.22 0 .44-.02.68-.04l-.12 1.54c-.27.03-.54.05-.8.05-1.05 0-1.82-.23-2.3-.68-.48-.46-.72-1.16-.72-2.09v-2.63h-1.3v-1.58h1.3v-2.02h2.12v2.02h1.72v1.58H80.5v2.62c0 .82.38 1.23 1.14 1.23ZM83.25 141v-6.87h2.11V141h-2.11Zm-.07-10.18h2.27v1.98h-2.27v-1.98ZM90.03 133.96c1.03 0 1.79.24 2.27.73.5.48.74 1.23.74 2.25V141h-2v-1.02a1.7 1.7 0 0 1-.7.84c-.32.2-.7.3-1.15.3-.46 0-.89-.1-1.27-.29a2.28 2.28 0 0 1-.9-.78c-.21-.34-.32-.71-.32-1.12 0-.5.13-.9.38-1.2.26-.28.68-.5 1.25-.62.57-.13 1.34-.2 2.33-.2h.37v-.25c0-.41-.1-.7-.27-.87-.18-.17-.48-.25-.92-.25a5.41 5.41 0 0 0-2.3.69l-.56-1.42c.4-.24.87-.44 1.44-.6a5.8 5.8 0 0 1 1.61-.25Zm-.37 5.7c.4 0 .74-.14.99-.41.25-.28.38-.64.38-1.08v-.24h-.24c-.76 0-1.29.06-1.6.19a.66.66 0 0 0-.44.65c0 .26.08.47.25.63.18.17.4.26.66.26ZM99.54 135.7l-1.2.12c-.58.06-1 .22-1.24.5s-.36.64-.36 1.1V141h-2.12v-6.87h2.03v1.16c.35-.8 1.06-1.23 2.15-1.3l.61-.05.13 1.75ZM105.43 134.14h2.07l-4.14 9.38h-2.15l1.32-2.9-2.83-6.48h2.2l1.73 4.37 1.8-4.37Z" fill="#333"/></svg>