<svg width="180" height="180" fill="none" xmlns="http://www.w3.org/2000/svg"><path fill-rule="evenodd" clip-rule="evenodd" d="M152.26 87.26h-60.5v-60.5a60.5 60.5 0 0 1 60.5 60.5Z" fill="#A1F1F0"/><path fill-rule="evenodd" clip-rule="evenodd" d="M152.26 86.5v.76h-60.5v-60.5h.76a60.5 60.5 0 0 1 59.74 59.74Zm-.76 0a59.74 59.74 0 0 0-58.98-58.97V86.5h58.98Z" fill="#37D5D3" fill-opacity=".5"/><path fill-rule="evenodd" clip-rule="evenodd" d="M28.52 87.26a60.5 60.5 0 0 1 60.5-60.5v60.5h-60.5Z" fill="#FEA58A"/><path fill-rule="evenodd" clip-rule="evenodd" d="M88.26 27.53A59.74 59.74 0 0 0 29.3 86.5h58.97V27.53Zm0-.76a60.5 60.5 0 0 0-59.74 60.5h60.5v-60.5h-.76Z" fill="#FC521F" fill-opacity=".5"/><path fill-rule="evenodd" clip-rule="evenodd" d="M91.76 150.5V90h60.5a60.5 60.5 0 0 1-60.5 60.5Z" fill="url(#a)"/><path fill-rule="evenodd" clip-rule="evenodd" d="M92.52 150.5h-.76V90h60.5v.76a60.5 60.5 0 0 1-59.74 59.74Zm58.98-59.74H92.52v58.98a59.74 59.74 0 0 0 58.98-58.98Z" fill="#1EA7FD" fill-opacity=".5"/><path fill-rule="evenodd" clip-rule="evenodd" d="M46.05 132.7 88.53 90h.13v60.5a59.8 59.8 0 0 1-42.6-17.8Z" fill="#66BF3C" fill-opacity=".5"/><path fill-rule="evenodd" clip-rule="evenodd" d="M47.13 132.7 87.9 91.73v58.02a59.02 59.02 0 0 1-40.77-17.03Zm40.77 17.8a59.8 59.8 0 0 1-41.85-17.8L88.53 90h.13v60.5h-.76Z" fill="#66BF3C"/><path fill-rule="evenodd" clip-rule="evenodd" d="M20.9 91.52h60.42l.09.1-42.8 42.51a59.71 59.71 0 0 1-17.7-42.6Z" fill="#774DD7"/><path fill-rule="evenodd" clip-rule="evenodd" d="m20.9 91.75.01.54a59.7 59.7 0 0 0 17.7 41.84l42.8-42.51-.1-.1h-60.4v.23Zm58.75.54H21.67a58.94 58.94 0 0 0 16.95 40.76L79.65 92.3Z" fill="#000" fill-opacity=".1"/><path d="M112.35 62.56v.87h-3.97v-.8l2-2.16c.24-.26.41-.5.52-.7.11-.22.17-.44.17-.65 0-.27-.08-.47-.24-.6-.15-.14-.37-.21-.67-.21-.53 0-1.06.2-1.6.61l-.36-.79a3.35 3.35 0 0 1 2-.69c.6 0 1.06.15 1.41.44.35.3.52.68.52 1.17 0 .34-.07.67-.22.97-.14.3-.39.63-.74 1l-1.45 1.54h2.63ZM115.63 59.65c.37 0 .7.08.97.24.29.16.5.38.66.66a2 2 0 0 1 .23.98c0 .4-.09.74-.27 1.04-.18.3-.43.52-.76.68-.32.16-.7.25-1.15.25a3.4 3.4 0 0 1-1.1-.19c-.35-.13-.65-.3-.88-.5l.36-.79c.53.4 1.08.61 1.64.61.37 0 .65-.09.84-.27.2-.19.3-.45.3-.8 0-.32-.1-.58-.3-.77-.2-.2-.47-.3-.8-.3-.24 0-.46.05-.66.14-.2.08-.38.2-.55.37h-.64v-3.48h3.7v.84h-2.65v1.59c.29-.2.64-.3 1.06-.3ZM120.4 63.66l-.7-.4 3.47-5.97.7.4-3.47 5.97Zm-.73-2.61c-.47 0-.83-.16-1.1-.46-.26-.31-.39-.76-.39-1.35 0-.59.13-1.04.4-1.34.26-.31.63-.46 1.1-.46.46 0 .83.15 1.1.46.26.3.4.75.4 1.34 0 .59-.14 1.04-.4 1.35-.27.3-.64.46-1.1.46Zm0-.68c.22 0 .37-.09.47-.26.1-.18.15-.47.15-.87s-.05-.68-.16-.86a.5.5 0 0 0-.46-.26.5.5 0 0 0-.46.26c-.1.18-.14.46-.14.86 0 .4.05.7.14.87.1.17.26.26.46.26Zm4.22 3.12c-.47 0-.83-.16-1.1-.46-.26-.31-.4-.76-.4-1.36 0-.59.14-1.03.4-1.33.27-.31.64-.46 1.1-.46.47 0 .83.15 1.1.46.26.3.4.75.4 1.34 0 .59-.14 1.04-.4 1.35-.27.3-.63.46-1.1.46Zm0-.68a.5.5 0 0 0 .46-.26c.1-.18.15-.47.15-.87s-.05-.68-.15-.86a.5.5 0 0 0-.46-.27.5.5 0 0 0-.46.27c-.1.18-.15.47-.15.86 0 .4.05.69.15.87.1.17.25.26.46.26ZM112.35 115.89v.87h-3.97v-.8l2-2.16c.24-.25.41-.49.52-.7.11-.22.17-.43.17-.65 0-.26-.08-.47-.24-.6-.15-.14-.37-.2-.67-.2-.53 0-1.06.2-1.6.6l-.36-.78a3.36 3.36 0 0 1 2-.69c.6 0 1.06.14 1.41.43.35.3.52.69.52 1.18 0 .34-.07.66-.22.96-.14.3-.39.63-.74 1l-1.45 1.54h2.63ZM115.63 112.98c.37 0 .7.08.97.24.29.16.5.38.66.67.15.28.23.6.23.98 0 .39-.09.73-.27 1.03-.18.3-.43.52-.76.69-.32.16-.7.24-1.15.24a3.4 3.4 0 0 1-1.1-.19c-.35-.12-.65-.3-.88-.5l.36-.79c.53.41 1.08.62 1.64.62.37 0 .65-.1.84-.28.2-.19.3-.45.3-.79 0-.33-.1-.59-.3-.78-.2-.2-.47-.3-.8-.3a1.69 1.69 0 0 0-1.2.5h-.65v-3.47h3.7v.84h-2.65v1.6c.29-.2.64-.3 1.06-.3ZM120.4 117l-.7-.4 3.47-5.98.7.4-3.47 5.98Zm-.73-2.62c-.47 0-.83-.15-1.1-.46-.26-.3-.39-.76-.39-1.35 0-.58.13-1.03.4-1.34.26-.3.63-.46 1.1-.46.46 0 .83.15 1.1.46.26.3.4.75.4 1.34 0 .6-.14 1.04-.4 1.35-.27.3-.64.46-1.1.46Zm0-.68c.22 0 .37-.08.47-.26.1-.18.15-.47.15-.87 0-.39-.05-.67-.16-.85a.5.5 0 0 0-.46-.27.5.5 0 0 0-.46.27c-.1.17-.14.45-.14.85 0 .4.05.7.14.87.1.18.26.26.46.26Zm4.22 3.12c-.47 0-.83-.15-1.1-.46-.26-.3-.4-.76-.4-1.36 0-.58.14-1.03.4-1.33.27-.3.64-.46 1.1-.46.47 0 .83.15 1.1.46.26.3.4.75.4 1.34 0 .6-.14 1.04-.4 1.35-.27.3-.63.46-1.1.46Zm0-.68a.5.5 0 0 0 .46-.26c.1-.18.15-.47.15-.87s-.05-.68-.15-.86a.5.5 0 0 0-.46-.26.5.5 0 0 0-.46.27c-.1.17-.15.46-.15.85 0 .4.05.7.15.87.1.18.25.26.46.26ZM59.02 62.56v.87h-3.98v-.8l2.01-2.16c.24-.26.41-.5.52-.7.1-.22.16-.44.16-.65 0-.27-.07-.47-.23-.6-.15-.14-.38-.21-.67-.21-.53 0-1.07.2-1.6.61l-.36-.79a3.34 3.34 0 0 1 2-.69c.6 0 1.06.15 1.4.44.35.3.53.68.53 1.17 0 .34-.07.67-.22.97-.15.3-.4.63-.74 1l-1.45 1.54h2.63ZM62.3 59.65c.37 0 .69.08.97.24.28.16.5.38.65.66a2 2 0 0 1 .24.98c0 .4-.1.74-.27 1.04-.18.3-.43.52-.76.68-.33.16-.71.25-1.15.25a3.4 3.4 0 0 1-1.1-.19c-.36-.13-.65-.3-.89-.5l.36-.79c.54.4 1.09.61 1.65.61.36 0 .65-.09.84-.27.2-.19.3-.45.3-.8 0-.32-.1-.58-.3-.77-.2-.2-.47-.3-.81-.3-.23 0-.45.05-.65.14-.2.08-.39.2-.55.37h-.64v-3.48h3.7v.84h-2.65v1.59c.29-.2.64-.3 1.06-.3ZM67.07 63.66l-.7-.4 3.47-5.97.7.4-3.47 5.97Zm-.73-2.61c-.47 0-.83-.16-1.1-.46-.26-.31-.39-.76-.39-1.35 0-.59.13-1.04.4-1.34.26-.31.62-.46 1.1-.46.46 0 .83.15 1.09.46.27.3.4.75.4 1.34 0 .59-.13 1.04-.4 1.35-.26.3-.63.46-1.1.46Zm0-.68c.21 0 .37-.09.46-.26.1-.18.15-.47.15-.87s-.05-.68-.15-.86a.5.5 0 0 0-.46-.26.5.5 0 0 0-.46.26c-.1.18-.14.46-.14.86 0 .4.05.7.14.87.1.17.26.26.46.26Zm4.22 3.12c-.47 0-.84-.16-1.1-.46-.26-.31-.4-.76-.4-1.36 0-.59.14-1.03.4-1.33.27-.31.63-.46 1.1-.46.47 0 .83.15 1.1.46.26.3.39.75.39 1.34 0 .59-.13 1.04-.4 1.35-.26.3-.62.46-1.1.46Zm0-.68a.5.5 0 0 0 .46-.26c.1-.18.15-.47.15-.87s-.05-.68-.15-.86a.5.5 0 0 0-.46-.27.5.5 0 0 0-.46.27c-.1.18-.15.47-.15.86 0 .4.05.69.15.87.1.17.25.26.46.26Z" fill="#000" fill-opacity=".3"/><path d="M36.42 106.75h1.28v.87h-3.65v-.87h1.29v-3.8l-1.02.6-.43-.78 1.76-1.06h.77v5.04ZM42.7 106.75v.87h-3.96v-.8l2-2.16c.24-.26.41-.5.52-.7.11-.22.17-.44.17-.65 0-.27-.08-.47-.24-.6-.15-.14-.37-.21-.67-.21-.53 0-1.06.2-1.6.6l-.36-.78a3.33 3.33 0 0 1 2-.69c.6 0 1.06.15 1.41.44.35.3.52.68.52 1.17 0 .34-.07.67-.22.97-.14.3-.39.63-.74 1l-1.45 1.54h2.63ZM43.61 106.46h1.17v1.16h-1.17v-1.16ZM48.07 103.84c.37 0 .7.08.97.24.29.16.5.38.65.66a2 2 0 0 1 .24.98c0 .4-.09.74-.27 1.03-.18.3-.43.53-.76.7-.33.15-.7.23-1.15.23a3.4 3.4 0 0 1-1.1-.18c-.36-.13-.65-.3-.89-.5l.36-.79c.54.4 1.09.61 1.65.61.37 0 .65-.09.84-.27.2-.19.3-.45.3-.8 0-.32-.1-.58-.3-.77-.2-.2-.47-.3-.8-.3a1.68 1.68 0 0 0-1.2.5h-.65v-3.47h3.7v.84h-2.65v1.59c.29-.2.64-.3 1.06-.3ZM52.84 107.85l-.7-.4 3.47-5.98.7.4-3.47 5.98Zm-.73-2.61c-.47 0-.83-.16-1.1-.46-.26-.31-.39-.76-.39-1.35 0-.59.13-1.04.4-1.34.26-.31.62-.46 1.1-.46.46 0 .83.15 1.1.46.26.3.4.75.4 1.34 0 .59-.14 1.04-.4 1.35-.27.3-.64.46-1.1.46Zm0-.68c.22 0 .37-.09.46-.26.1-.18.16-.47.16-.87s-.05-.68-.16-.86a.5.5 0 0 0-.46-.26.5.5 0 0 0-.46.26c-.1.18-.14.46-.14.86 0 .4.05.7.14.87.1.17.26.26.46.26Zm4.22 3.12c-.47 0-.84-.16-1.1-.46-.26-.31-.4-.76-.4-1.36 0-.59.14-1.03.4-1.33.27-.31.64-.47 1.1-.47.47 0 .83.16 1.1.47.26.3.4.75.4 1.34 0 .59-.14 1.04-.4 1.35-.27.3-.63.46-1.1.46Zm0-.68a.5.5 0 0 0 .46-.26c.1-.18.15-.47.15-.87s-.05-.68-.15-.86a.5.5 0 0 0-.46-.27.5.5 0 0 0-.46.27c-.1.18-.15.46-.15.86 0 .4.05.69.15.87.1.17.25.26.46.26Z" fill="#fff"/><path d="M63.08 129.6h1.28v.88h-3.64v-.88H62v-3.8l-1.01.61-.43-.79 1.75-1.05h.77v5.03ZM69.37 129.6v.88H65.4v-.8l2.01-2.16c.24-.26.4-.5.51-.7.11-.22.17-.44.17-.65 0-.27-.08-.47-.23-.6-.16-.14-.38-.21-.68-.21-.53 0-1.06.2-1.6.6l-.36-.78a3.35 3.35 0 0 1 2-.69c.6 0 1.07.15 1.41.44.35.29.52.68.52 1.17 0 .34-.07.66-.21.97-.15.3-.4.62-.74 1l-1.45 1.53h2.62ZM70.27 129.32h1.18v1.16h-1.18v-1.16ZM74.73 126.7c.37 0 .7.08.97.24.29.16.5.38.66.66a2 2 0 0 1 .23.98 1.8 1.8 0 0 1-1.03 1.72c-.32.16-.7.24-1.15.24a3.4 3.4 0 0 1-1.1-.18 2.7 2.7 0 0 1-.88-.5l.36-.8c.53.42 1.08.62 1.64.62.37 0 .65-.1.85-.28.2-.18.3-.44.3-.78 0-.33-.11-.6-.31-.78-.2-.2-.46-.3-.8-.3a1.69 1.69 0 0 0-1.2.5h-.65v-3.47h3.7v.84h-2.64V127c.28-.2.63-.3 1.05-.3ZM79.5 130.71l-.69-.4 3.46-5.98.7.4-3.46 5.98Zm-.72-2.61c-.47 0-.84-.16-1.1-.46-.26-.31-.4-.76-.4-1.35 0-.6.14-1.04.4-1.35.26-.3.63-.46 1.1-.46.47 0 .83.16 1.1.46.26.31.4.76.4 1.35 0 .59-.14 1.04-.4 1.34-.27.31-.63.47-1.1.47Zm0-.68c.21 0 .36-.09.46-.26.1-.18.15-.47.15-.87s-.05-.68-.15-.86a.5.5 0 0 0-.46-.27.5.5 0 0 0-.46.27c-.1.17-.15.46-.15.86 0 .4.05.69.15.87.1.17.25.26.46.26Zm4.21 3.11c-.47 0-.83-.15-1.1-.46-.26-.3-.39-.76-.39-1.35 0-.59.13-1.03.4-1.34.26-.3.63-.46 1.1-.46.46 0 .83.16 1.1.46.25.31.39.76.39 1.34 0 .6-.14 1.05-.4 1.35-.26.31-.63.47-1.1.47Zm0-.67a.5.5 0 0 0 .46-.26c.1-.18.16-.47.16-.88 0-.39-.06-.67-.16-.85a.5.5 0 0 0-.46-.27.5.5 0 0 0-.46.27c-.1.18-.15.46-.15.85 0 .4.05.7.15.88.1.17.26.26.46.26Z" fill="#000" fill-opacity=".3"/><defs><linearGradient id="a" x1="91.76" y1="90" x2="137.09" y2="150.19" gradientUnits="userSpaceOnUse"><stop stop-color="#1EA7FD" stop-opacity=".6"/><stop offset="1" stop-color="#3AB2FE" stop-opacity=".2"/></linearGradient></defs></svg>