<svg width="180" height="180" fill="none" xmlns="http://www.w3.org/2000/svg"><path d="M26 33.66a3 3 0 0 1 3-3h104a3 3 0 1 1 0 6H29a3 3 0 0 1-3-3Z" fill="#FAFAFA"/><path fill-rule="evenodd" clip-rule="evenodd" d="M133 31.66H29a2 2 0 1 0 0 4h104a2 2 0 1 0 0-4Zm-104-1a3 3 0 1 0 0 6h104a3 3 0 1 0 0-6H29Z" fill="#000" fill-opacity=".1"/><g filter="url(#a)"><path d="M88 34a8 8 0 1 1-16 0 8 8 0 0 1 16 0Z" fill="#fff"/></g><g filter="url(#b)"><path fill-rule="evenodd" clip-rule="evenodd" d="M80 26.5a7.5 7.5 0 1 0 0 15 7.5 7.5 0 0 0 0-15ZM71.5 34a8.5 8.5 0 1 1 17 0 8.5 8.5 0 0 1-17 0Z" fill="#000" fill-opacity=".1"/></g><path d="M17.7 37.08c-.75 0-1.32-.27-1.72-.83-.4-.55-.6-1.37-.6-2.43 0-1.05.2-1.85.6-2.4.4-.55.97-.83 1.72-.83s1.32.28 1.72.83c.4.55.6 1.35.6 2.4 0 1.06-.2 1.87-.6 2.42-.4.56-.97.84-1.72.84Zm0-.9c.4 0 .7-.2.9-.57.18-.37.27-.97.27-1.79 0-.8-.1-1.4-.28-1.76a.93.93 0 0 0-.89-.56c-.4 0-.7.19-.9.56-.18.36-.27.95-.27 1.76 0 .82.1 1.42.28 1.8.18.37.48.55.89.55ZM141.61 35.04v-.9h2.68v.9h-2.68ZM145.52 35.04v-.9h2.68v.9h-2.68ZM149.48 37.66l-.85-.27 2.3-7.24.86.27-2.3 7.24ZM156.55 36.06V37h-4.27v-.85l2.16-2.33c.26-.27.44-.52.55-.75.12-.24.18-.47.18-.7 0-.28-.08-.5-.25-.64-.16-.15-.4-.23-.72-.23-.57 0-1.14.22-1.72.66l-.38-.85a3.59 3.59 0 0 1 2.15-.74c.63 0 1.14.16 1.5.47.38.31.57.73.57 1.26 0 .37-.08.71-.24 1.04-.15.31-.42.67-.79 1.07l-1.56 1.65h2.82ZM159.73 37.08c-.75 0-1.32-.27-1.72-.83-.4-.55-.59-1.37-.59-2.43 0-1.05.2-1.85.6-2.4.39-.55.96-.83 1.71-.83s1.33.28 1.72.83c.4.55.6 1.35.6 2.4 0 1.06-.2 1.87-.6 2.42-.4.56-.97.84-1.72.84Zm0-.9c.41 0 .7-.2.9-.57.18-.37.27-.97.27-1.79 0-.8-.09-1.4-.28-1.76a.93.93 0 0 0-.89-.56c-.4 0-.7.19-.89.56-.18.36-.28.95-.28 1.76 0 .82.1 1.42.28 1.8.19.37.48.55.9.55Z" fill="#666"/><path d="M26 61.66a3 3 0 0 1 3-3h104a3 3 0 1 1 0 6H29a3 3 0 0 1-3-3Z" fill="#FAFAFA"/><path fill-rule="evenodd" clip-rule="evenodd" d="M133 59.66H29a2 2 0 1 0 0 4h104a2 2 0 1 0 0-4Zm-104-1a3 3 0 1 0 0 6h104a3 3 0 1 0 0-6H29Z" fill="#000" fill-opacity=".1"/><g filter="url(#c)"><path d="M42 62a8 8 0 1 1-16 0 8 8 0 0 1 16 0Z" fill="#fff"/></g><g filter="url(#d)"><path fill-rule="evenodd" clip-rule="evenodd" d="M34 54.5a7.5 7.5 0 1 0 0 15 7.5 7.5 0 0 0 0-15ZM25.5 62a8.5 8.5 0 1 1 17 0 8.5 8.5 0 0 1-17 0Z" fill="#000" fill-opacity=".1"/></g><path d="M17.7 65.08c-.75 0-1.32-.27-1.72-.83-.4-.55-.6-1.37-.6-2.43 0-1.05.2-1.85.6-2.4.4-.55.97-.83 1.72-.83s1.32.28 1.72.83c.4.55.6 1.35.6 2.4 0 1.06-.2 1.87-.6 2.42-.4.56-.97.84-1.72.84Zm0-.9c.4 0 .7-.2.9-.57.18-.37.27-.97.27-1.79 0-.8-.1-1.4-.28-1.76a.93.93 0 0 0-.89-.56c-.4 0-.7.19-.9.56-.18.36-.27.95-.27 1.76 0 .82.1 1.42.28 1.8.18.37.48.55.89.55ZM143.7 65.08c-.75 0-1.32-.27-1.72-.83-.4-.55-.6-1.37-.6-2.43 0-1.05.2-1.85.6-2.4.4-.55.97-.83 1.72-.83s1.32.28 1.72.83c.4.55.6 1.35.6 2.4 0 1.06-.2 1.87-.6 2.42-.4.56-.97.84-1.72.84Zm0-.9c.4 0 .7-.2.9-.57.18-.37.27-.97.27-1.79 0-.8-.1-1.4-.28-1.76a.93.93 0 0 0-.89-.56c-.4 0-.7.19-.9.56-.18.36-.27.95-.27 1.76 0 .82.1 1.42.28 1.8.19.37.48.55.89.55ZM147.07 65.66l-.85-.27 2.3-7.24.86.27-2.3 7.24ZM154.14 64.06V65h-4.27v-.86l2.16-2.32c.26-.27.44-.52.55-.75.12-.24.18-.47.18-.7 0-.28-.08-.5-.25-.64-.16-.15-.4-.23-.72-.23-.57 0-1.14.22-1.72.66l-.38-.85a3.59 3.59 0 0 1 2.15-.74c.63 0 1.14.16 1.5.47.38.31.57.73.57 1.26 0 .37-.08.71-.24 1.04-.15.31-.42.67-.79 1.07l-1.56 1.65h2.82ZM157.32 65.08c-.75 0-1.32-.27-1.72-.83-.4-.55-.59-1.37-.59-2.43 0-1.05.2-1.85.6-2.4.39-.55.96-.83 1.71-.83s1.33.28 1.72.83c.4.55.6 1.35.6 2.4 0 1.06-.2 1.87-.6 2.42-.4.56-.97.84-1.72.84Zm0-.9c.41 0 .7-.2.9-.57.18-.37.27-.97.27-1.79 0-.8-.09-1.4-.28-1.76a.93.93 0 0 0-.89-.56c-.4 0-.7.19-.89.56-.18.36-.28.95-.28 1.76 0 .82.1 1.42.28 1.8.19.37.48.55.9.55Z" fill="#666"/><path d="M26 89.66a3 3 0 0 1 3-3h104a3 3 0 1 1 0 6H29a3 3 0 0 1-3-3Z" fill="#FAFAFA"/><path fill-rule="evenodd" clip-rule="evenodd" d="M133 87.66H29a2 2 0 1 0 0 4h104a2 2 0 1 0 0-4Zm-104-1a3 3 0 1 0 0 6h104a3 3 0 1 0 0-6H29Z" fill="#000" fill-opacity=".1"/><path d="M26 90a3 3 0 0 1 3-3h92a3 3 0 1 1 0 6H29a3 3 0 0 1-3-3Z" fill="#FFAE00"/><g filter="url(#e)"><path d="M136 90a8 8 0 1 1-16 0 8 8 0 0 1 16 0Z" fill="#fff"/></g><g filter="url(#f)"><path fill-rule="evenodd" clip-rule="evenodd" d="M128 82.5a7.5 7.5 0 1 0 0 15 7.5 7.5 0 0 0 0-15Zm-8.5 7.5a8.5 8.5 0 1 1 17 0 8.5 8.5 0 0 1-17 0Z" fill="#000" fill-opacity=".1"/></g><path d="M17.7 93.08c-.75 0-1.32-.27-1.72-.83-.4-.56-.6-1.36-.6-2.43 0-1.05.2-1.85.6-2.4.4-.55.97-.83 1.72-.83s1.32.28 1.72.83c.4.55.6 1.35.6 2.4 0 1.06-.2 1.87-.6 2.42-.4.56-.97.84-1.72.84Zm0-.9c.4 0 .7-.2.9-.57.18-.37.27-.97.27-1.79 0-.8-.1-1.4-.28-1.76a.93.93 0 0 0-.89-.56c-.4 0-.7.19-.9.56-.18.36-.27.95-.27 1.76 0 .82.1 1.42.28 1.8.18.37.48.55.89.55ZM145.92 92.06V93h-4.26v-.86l2.16-2.32c.25-.27.43-.52.55-.75.12-.24.18-.47.18-.7 0-.28-.09-.5-.26-.64-.16-.15-.4-.23-.72-.23-.56 0-1.14.22-1.71.66l-.4-.85a3.59 3.59 0 0 1 2.15-.74c.65 0 1.15.16 1.52.47.37.31.56.73.56 1.26 0 .37-.08.71-.23 1.04-.16.31-.42.67-.8 1.07l-1.55 1.65h2.81ZM149.1 93.08c-.74 0-1.32-.27-1.71-.83-.4-.56-.6-1.36-.6-2.43 0-1.05.2-1.85.6-2.4.4-.55.97-.83 1.72-.83s1.32.28 1.71.83c.4.55.6 1.35.6 2.4 0 1.06-.2 1.87-.6 2.42-.4.56-.96.84-1.71.84Zm0-.9c.41 0 .71-.2.9-.57.18-.37.28-.97.28-1.79 0-.8-.1-1.4-.28-1.76a.93.93 0 0 0-.9-.56c-.4 0-.7.19-.88.56-.2.36-.28.95-.28 1.76 0 .82.09 1.42.28 1.8.18.37.48.55.89.55ZM152.48 93.66l-.86-.27 2.32-7.24.85.27-2.31 7.24ZM159.55 92.06V93h-4.27v-.86l2.16-2.32c.25-.27.44-.52.55-.75.12-.24.18-.47.18-.7 0-.28-.08-.5-.25-.64-.16-.15-.4-.23-.72-.23-.57 0-1.14.22-1.72.66l-.39-.85a3.59 3.59 0 0 1 2.15-.74c.64 0 1.14.16 1.51.47.38.31.56.73.56 1.26 0 .37-.07.71-.23 1.04-.16.31-.42.67-.8 1.07l-1.55 1.65h2.82ZM162.73 93.08c-.75 0-1.32-.27-1.72-.83-.4-.56-.6-1.36-.6-2.43 0-1.05.2-1.85.6-2.4.4-.55.97-.83 1.72-.83s1.32.28 1.72.83c.4.55.6 1.35.6 2.4 0 1.06-.2 1.87-.6 2.42-.4.56-.97.84-1.72.84Zm0-.9c.4 0 .7-.2.89-.57.19-.37.28-.97.28-1.79 0-.8-.1-1.4-.28-1.76a.93.93 0 0 0-.9-.56c-.4 0-.7.19-.88.56-.19.36-.28.95-.28 1.76 0 .82.1 1.42.28 1.8.18.37.48.55.89.55Z" fill="#666"/><path d="M26 117.66a3 3 0 0 1 3-3h104a3 3 0 1 1 0 6H29a3 3 0 0 1-3-3Z" fill="#FAFAFA"/><path fill-rule="evenodd" clip-rule="evenodd" d="M133 115.66H29a2 2 0 0 0 0 4h104a2 2 0 1 0 0-4Zm-104-1a3 3 0 0 0 0 6h104a3 3 0 1 0 0-6H29Z" fill="#000" fill-opacity=".1"/><path d="M26 118a3 3 0 0 1 3-3h24a3 3 0 1 1 0 6H29a3 3 0 0 1-3-3Z" fill="#FFAE00"/><g filter="url(#g)"><path d="M62 118a8 8 0 1 1-16 0 8 8 0 0 1 16 0Z" fill="#fff"/></g><g filter="url(#h)"><path fill-rule="evenodd" clip-rule="evenodd" d="M54 110.5a7.5 7.5 0 1 0 0 15 7.5 7.5 0 0 0 0-15Zm-8.5 7.5a8.5 8.5 0 1 1 17 0 8.5 8.5 0 0 1-17 0Z" fill="#000" fill-opacity=".1"/></g><path d="M17.7 121.08c-.75 0-1.32-.27-1.72-.83-.4-.56-.6-1.36-.6-2.43 0-1.05.2-1.85.6-2.4.4-.55.97-.83 1.72-.83s1.32.28 1.72.83c.4.55.6 1.35.6 2.4 0 1.06-.2 1.87-.6 2.42-.4.56-.97.84-1.72.84Zm0-.9c.4 0 .7-.2.9-.57.18-.37.27-.97.27-1.79 0-.8-.1-1.4-.28-1.76a.93.93 0 0 0-.89-.56c-.4 0-.7.19-.9.56-.18.36-.27.95-.27 1.76 0 .82.1 1.42.28 1.8.18.37.48.55.89.55ZM144.04 116.94c.4 0 .75.09 1.05.26.3.17.53.4.7.71.17.3.25.66.25 1.06 0 .42-.1.78-.29 1.1-.2.32-.46.57-.82.74-.35.17-.76.26-1.23.26-.4 0-.79-.06-1.18-.2-.38-.13-.7-.31-.95-.54l.38-.84a2.9 2.9 0 0 0 1.77.66c.4 0 .7-.1.9-.3.22-.2.32-.48.32-.85 0-.35-.1-.63-.32-.83-.21-.22-.5-.32-.87-.32a1.8 1.8 0 0 0-1.29.54h-.69v-3.73h3.98v.9h-2.84v1.7c.3-.21.68-.32 1.13-.32ZM147.07 121.66l-.85-.27 2.3-7.24.86.27-2.3 7.24ZM154.14 120.06v.94h-4.27v-.86l2.16-2.32c.26-.27.44-.52.55-.75.12-.24.18-.47.18-.7 0-.28-.08-.5-.25-.64-.16-.15-.4-.23-.72-.23-.57 0-1.14.22-1.72.66l-.38-.85a3.59 3.59 0 0 1 2.15-.74c.63 0 1.14.16 1.5.47.38.31.57.73.57 1.26 0 .37-.08.71-.24 1.04-.15.31-.42.67-.79 1.07l-1.56 1.65h2.82ZM157.32 121.08c-.75 0-1.32-.27-1.72-.83-.4-.56-.6-1.36-.6-2.43 0-1.05.2-1.85.6-2.4.4-.55.97-.83 1.72-.83s1.33.28 1.72.83c.4.55.6 1.35.6 2.4 0 1.06-.2 1.87-.6 2.42-.4.56-.97.84-1.72.84Zm0-.9c.41 0 .7-.2.9-.57.18-.37.27-.97.27-1.79 0-.8-.1-1.4-.28-1.76a.93.93 0 0 0-.89-.56c-.4 0-.7.19-.89.56-.19.36-.28.95-.28 1.76 0 .82.1 1.42.28 1.8.19.37.48.55.9.55Z" fill="#666"/><path d="M26 145.66a3 3 0 0 1 3-3h104a3 3 0 1 1 0 6H29a3 3 0 0 1-3-3Z" fill="#FAFAFA"/><path fill-rule="evenodd" clip-rule="evenodd" d="M133 143.66H29a2 2 0 0 0 0 4h104a2 2 0 1 0 0-4Zm-104-1a3 3 0 0 0 0 6h104a3 3 0 1 0 0-6H29Z" fill="#000" fill-opacity=".1"/><path d="M26 146a3 3 0 0 1 3-3h75a3 3 0 1 1 0 6H29a3 3 0 0 1-3-3Z" fill="#FFAE00"/><g filter="url(#i)"><path d="M116 146a8 8 0 1 1-16 0 8 8 0 0 1 16 0Z" fill="#fff"/></g><g filter="url(#j)"><path fill-rule="evenodd" clip-rule="evenodd" d="M108 138.5a7.5 7.5 0 1 0 0 15 7.5 7.5 0 0 0 0-15Zm-8.5 7.5a8.5 8.5 0 1 1 17 0 8.5 8.5 0 0 1-17 0Z" fill="#000" fill-opacity=".1"/></g><path d="M17.7 149.08c-.75 0-1.32-.28-1.72-.83-.4-.56-.6-1.37-.6-2.43 0-1.05.2-1.85.6-2.4.4-.55.97-.83 1.72-.83s1.32.28 1.72.83c.4.55.6 1.35.6 2.4 0 1.06-.2 1.87-.6 2.42-.4.56-.97.84-1.72.84Zm0-.9c.4 0 .7-.2.9-.57.18-.37.27-.97.27-1.79 0-.8-.1-1.4-.28-1.76a.93.93 0 0 0-.89-.56c-.4 0-.7.19-.9.56-.18.37-.27.95-.27 1.76 0 .82.1 1.42.28 1.8.18.37.48.55.89.55ZM144.56 148.06h1.38v.94h-3.91v-.94h1.37v-4.08l-1.09.66-.46-.85 1.89-1.13h.82v5.4ZM149.44 144.94c.4 0 .74.09 1.04.26.3.17.54.4.7.71.17.3.26.66.26 1.06 0 .42-.1.78-.3 1.1-.18.32-.46.57-.81.74-.35.18-.76.26-1.23.26-.4 0-.8-.06-1.18-.2-.39-.13-.7-.31-.96-.54l.4-.84a2.9 2.9 0 0 0 1.75.66c.4 0 .7-.1.91-.3.21-.2.32-.48.32-.85 0-.35-.1-.63-.33-.84-.2-.2-.5-.31-.86-.31a1.8 1.8 0 0 0-1.29.54h-.69v-3.73h3.98v.9h-2.84v1.7c.3-.21.68-.32 1.13-.32ZM152.47 149.66l-.86-.27 2.32-7.24.85.27-2.31 7.24ZM159.54 148.06v.94h-4.27v-.85l2.16-2.33c.25-.27.44-.53.55-.75.12-.24.18-.47.18-.7 0-.28-.08-.5-.25-.64-.16-.15-.4-.23-.72-.23-.57 0-1.14.22-1.72.66l-.39-.85a3.59 3.59 0 0 1 2.15-.74c.64 0 1.14.16 1.52.47.37.31.55.73.55 1.26 0 .37-.07.71-.23 1.04-.16.31-.42.67-.8 1.07l-1.55 1.65h2.82ZM162.72 149.08c-.75 0-1.32-.28-1.72-.83-.4-.56-.6-1.37-.6-2.43 0-1.05.2-1.85.6-2.4.4-.55.97-.83 1.72-.83s1.32.28 1.72.83c.4.55.6 1.35.6 2.4 0 1.06-.2 1.87-.6 2.42-.4.56-.97.84-1.72.84Zm0-.9c.4 0 .7-.2.9-.57.18-.37.27-.97.27-1.79 0-.8-.1-1.4-.28-1.76a.93.93 0 0 0-.89-.56c-.4 0-.7.19-.9.56-.18.37-.27.95-.27 1.76 0 .82.1 1.42.28 1.8.18.37.48.55.89.55Z" fill="#666"/><defs><filter id="a" x="69.51" y="24.34" width="20.97" height="20.97" filterUnits="userSpaceOnUse" color-interpolation-filters="sRGB"><feFlood flood-opacity="0" result="BackgroundImageFix"/><feColorMatrix in="SourceAlpha" values="0 0 0 0 0 0 0 0 0 0 0 0 0 0 0 0 0 0 127 0" result="hardAlpha"/><feOffset dy=".83"/><feGaussianBlur stdDeviation="1.24"/><feColorMatrix values="0 0 0 0 0 0 0 0 0 0 0 0 0 0 0 0 0 0 0.1 0"/><feBlend in2="BackgroundImageFix" result="effect1_dropShadow_3032_19232"/><feBlend in="SourceGraphic" in2="effect1_dropShadow_3032_19232" result="shape"/></filter><filter id="b" x="69.01" y="23.84" width="21.97" height="21.97" filterUnits="userSpaceOnUse" color-interpolation-filters="sRGB"><feFlood flood-opacity="0" result="BackgroundImageFix"/><feColorMatrix in="SourceAlpha" values="0 0 0 0 0 0 0 0 0 0 0 0 0 0 0 0 0 0 127 0" result="hardAlpha"/><feOffset dy=".83"/><feGaussianBlur stdDeviation="1.24"/><feColorMatrix values="0 0 0 0 0 0 0 0 0 0 0 0 0 0 0 0 0 0 0.1 0"/><feBlend in2="BackgroundImageFix" result="effect1_dropShadow_3032_19232"/><feBlend in="SourceGraphic" in2="effect1_dropShadow_3032_19232" result="shape"/></filter><filter id="c" x="23.51" y="52.34" width="20.97" height="20.97" filterUnits="userSpaceOnUse" color-interpolation-filters="sRGB"><feFlood flood-opacity="0" result="BackgroundImageFix"/><feColorMatrix in="SourceAlpha" values="0 0 0 0 0 0 0 0 0 0 0 0 0 0 0 0 0 0 127 0" result="hardAlpha"/><feOffset dy=".83"/><feGaussianBlur stdDeviation="1.24"/><feColorMatrix values="0 0 0 0 0 0 0 0 0 0 0 0 0 0 0 0 0 0 0.1 0"/><feBlend in2="BackgroundImageFix" result="effect1_dropShadow_3032_19232"/><feBlend in="SourceGraphic" in2="effect1_dropShadow_3032_19232" result="shape"/></filter><filter id="d" x="23.01" y="51.84" width="21.97" height="21.97" filterUnits="userSpaceOnUse" color-interpolation-filters="sRGB"><feFlood flood-opacity="0" result="BackgroundImageFix"/><feColorMatrix in="SourceAlpha" values="0 0 0 0 0 0 0 0 0 0 0 0 0 0 0 0 0 0 127 0" result="hardAlpha"/><feOffset dy=".83"/><feGaussianBlur stdDeviation="1.24"/><feColorMatrix values="0 0 0 0 0 0 0 0 0 0 0 0 0 0 0 0 0 0 0.1 0"/><feBlend in2="BackgroundImageFix" result="effect1_dropShadow_3032_19232"/><feBlend in="SourceGraphic" in2="effect1_dropShadow_3032_19232" result="shape"/></filter><filter id="e" x="117.51" y="80.34" width="20.97" height="20.97" filterUnits="userSpaceOnUse" color-interpolation-filters="sRGB"><feFlood flood-opacity="0" result="BackgroundImageFix"/><feColorMatrix in="SourceAlpha" values="0 0 0 0 0 0 0 0 0 0 0 0 0 0 0 0 0 0 127 0" result="hardAlpha"/><feOffset dy=".83"/><feGaussianBlur stdDeviation="1.24"/><feColorMatrix values="0 0 0 0 0 0 0 0 0 0 0 0 0 0 0 0 0 0 0.1 0"/><feBlend in2="BackgroundImageFix" result="effect1_dropShadow_3032_19232"/><feBlend in="SourceGraphic" in2="effect1_dropShadow_3032_19232" result="shape"/></filter><filter id="f" x="117.01" y="79.84" width="21.97" height="21.97" filterUnits="userSpaceOnUse" color-interpolation-filters="sRGB"><feFlood flood-opacity="0" result="BackgroundImageFix"/><feColorMatrix in="SourceAlpha" values="0 0 0 0 0 0 0 0 0 0 0 0 0 0 0 0 0 0 127 0" result="hardAlpha"/><feOffset dy=".83"/><feGaussianBlur stdDeviation="1.24"/><feColorMatrix values="0 0 0 0 0 0 0 0 0 0 0 0 0 0 0 0 0 0 0.1 0"/><feBlend in2="BackgroundImageFix" result="effect1_dropShadow_3032_19232"/><feBlend in="SourceGraphic" in2="effect1_dropShadow_3032_19232" result="shape"/></filter><filter id="g" x="43.51" y="108.34" width="20.97" height="20.97" filterUnits="userSpaceOnUse" color-interpolation-filters="sRGB"><feFlood flood-opacity="0" result="BackgroundImageFix"/><feColorMatrix in="SourceAlpha" values="0 0 0 0 0 0 0 0 0 0 0 0 0 0 0 0 0 0 127 0" result="hardAlpha"/><feOffset dy=".83"/><feGaussianBlur stdDeviation="1.24"/><feColorMatrix values="0 0 0 0 0 0 0 0 0 0 0 0 0 0 0 0 0 0 0.1 0"/><feBlend in2="BackgroundImageFix" result="effect1_dropShadow_3032_19232"/><feBlend in="SourceGraphic" in2="effect1_dropShadow_3032_19232" result="shape"/></filter><filter id="h" x="43.01" y="107.84" width="21.97" height="21.97" filterUnits="userSpaceOnUse" color-interpolation-filters="sRGB"><feFlood flood-opacity="0" result="BackgroundImageFix"/><feColorMatrix in="SourceAlpha" values="0 0 0 0 0 0 0 0 0 0 0 0 0 0 0 0 0 0 127 0" result="hardAlpha"/><feOffset dy=".83"/><feGaussianBlur stdDeviation="1.24"/><feColorMatrix values="0 0 0 0 0 0 0 0 0 0 0 0 0 0 0 0 0 0 0.1 0"/><feBlend in2="BackgroundImageFix" result="effect1_dropShadow_3032_19232"/><feBlend in="SourceGraphic" in2="effect1_dropShadow_3032_19232" result="shape"/></filter><filter id="i" x="97.51" y="136.34" width="20.97" height="20.97" filterUnits="userSpaceOnUse" color-interpolation-filters="sRGB"><feFlood flood-opacity="0" result="BackgroundImageFix"/><feColorMatrix in="SourceAlpha" values="0 0 0 0 0 0 0 0 0 0 0 0 0 0 0 0 0 0 127 0" result="hardAlpha"/><feOffset dy=".83"/><feGaussianBlur stdDeviation="1.24"/><feColorMatrix values="0 0 0 0 0 0 0 0 0 0 0 0 0 0 0 0 0 0 0.1 0"/><feBlend in2="BackgroundImageFix" result="effect1_dropShadow_3032_19232"/><feBlend in="SourceGraphic" in2="effect1_dropShadow_3032_19232" result="shape"/></filter><filter id="j" x="97.01" y="135.84" width="21.97" height="21.97" filterUnits="userSpaceOnUse" color-interpolation-filters="sRGB"><feFlood flood-opacity="0" result="BackgroundImageFix"/><feColorMatrix in="SourceAlpha" values="0 0 0 0 0 0 0 0 0 0 0 0 0 0 0 0 0 0 127 0" result="hardAlpha"/><feOffset dy=".83"/><feGaussianBlur stdDeviation="1.24"/><feColorMatrix values="0 0 0 0 0 0 0 0 0 0 0 0 0 0 0 0 0 0 0.1 0"/><feBlend in2="BackgroundImageFix" result="effect1_dropShadow_3032_19232"/><feBlend in="SourceGraphic" in2="effect1_dropShadow_3032_19232" result="shape"/></filter></defs></svg>