<svg xmlns="http://www.w3.org/2000/svg" width="40" height="40" fill="none" viewBox="0 0 40 40"><path fill="#FF4785" fill-rule="evenodd" d="M16.3802 39.9958H16.3246C15.4911 39.9402 14.7132 39.4401 14.3798 38.6066L0.154864 3.0443C-0.178533 2.21081 0.0437316 1.26619 0.654959 0.654959C1.26619 0.0437316 2.21081 -0.178533 3.0443 0.154864L38.6066 14.3798C39.4401 14.6576 39.9402 15.4356 39.9958 16.3246C40.0514 17.2137 39.5513 17.9916 38.7733 18.3806L28.6603 23.4371L36.3284 31.1052C37.2175 31.9943 37.2175 33.3834 36.3284 34.2725L33.6057 36.9952C32.7166 37.8287 31.2719 37.8287 30.4384 36.9952L22.9926 29.5494L18.3806 38.7733C17.9916 39.5513 17.2137 39.9958 16.3802 39.9958Z" clip-rule="evenodd"/><path fill="#fff" fill-rule="evenodd" d="M22.1798 25.2833L16.7496 36.2452L3.75781 3.76562L36.2374 16.7575L24.4635 22.6444L33.4462 31.627L30.9594 34.1137L22.1798 25.2833Z" clip-rule="evenodd" opacity=".6"/></svg>