<svg xmlns="http://www.w3.org/2000/svg" width="28" height="28" fill="none" viewBox="0 0 28 28"><circle cx="14" cy="14" r="14" fill="#66BF3C"/><path fill="#fff" fill-rule="evenodd" d="M21.243 8.51145C20.9838 8.24618 20.5634 8.24618 20.3042 8.51145L11.4144 17.6092L7.69583 13.8036C7.43653 13.5382 7.01618 13.5383 6.75698 13.8036C6.49767 14.0689 6.49767 14.4991 6.75698 14.7644L10.9322 19.0372C10.9364 19.0418 10.9401 19.0466 10.9444 19.0511C11.0742 19.1839 11.2443 19.2502 11.4144 19.25C11.5846 19.2502 11.7547 19.1839 11.8845 19.0511C11.8886 19.0469 11.892 19.0423 11.896 19.038L21.243 9.4722C21.5023 9.2069 21.5023 8.77682 21.243 8.51145" clip-rule="evenodd"/></svg>