<svg width="395" height="250" fill="none" xmlns="http://www.w3.org/2000/svg"><path d="M0 4a4 4 0 0 1 4-4h387a4 4 0 0 1 4 4v242a4 4 0 0 1-4 4H4a4 4 0 0 1-4-4V4Z" fill="url(#a)"/><path fill-rule="evenodd" clip-rule="evenodd" d="M391 1H4a3 3 0 0 0-3 3v242a3 3 0 0 0 3 3h387a3 3 0 0 0 3-3V4a3 3 0 0 0-3-3ZM4 0a4 4 0 0 0-4 4v242a4 4 0 0 0 4 4h387a4 4 0 0 0 4-4V4a4 4 0 0 0-4-4H4Z" fill="#000" fill-opacity=".05"/><path d="M1 4a3 3 0 0 1 3-3h156v248H4a3 3 0 0 1-3-3V4Z" fill="#fff" fill-opacity=".9"/><path d="m269.4 32.5-.74-1.72h-3.61l-.74 1.72h-1.72l3.56-7.75h1.38l3.56 7.75h-1.7Zm-3.79-3.01h2.49l-1.25-2.9-1.24 2.9ZM279.69 32.6c-1.09 0-1.92-.28-2.49-.84-.56-.56-.85-1.38-.85-2.46v-4.55h1.69v4.63c0 .61.14 1.08.41 1.4.3.33.7.49 1.24.49.53 0 .94-.16 1.23-.49.28-.33.43-.8.43-1.4v-4.63h1.68v4.55c0 1.07-.28 1.89-.86 2.45-.57.57-1.4.85-2.48.85ZM295.91 28.22v3.8c-.37.18-.81.32-1.32.42-.5.1-1.03.16-1.56.16-.82 0-1.53-.16-2.14-.47a3.34 3.34 0 0 1-1.38-1.38 4.46 4.46 0 0 1-.49-2.13c0-.81.16-1.51.48-2.1.32-.6.78-1.07 1.37-1.39a5.01 5.01 0 0 1 3.63-.25c.49.15.89.36 1.2.64l-.54 1.22a3.84 3.84 0 0 0-1.05-.55c-.34-.12-.7-.18-1.1-.18-1.5 0-2.25.87-2.25 2.6 0 .9.2 1.57.59 2 .38.45.97.67 1.75.67.43 0 .85-.06 1.27-.17v-1.7h-1.52v-1.19h3.06Z" fill="#47366C"/><path d="M160 1h1v249h-1V1Z" fill="#000" fill-opacity=".05"/><path fill-rule="evenodd" clip-rule="evenodd" d="m182.66 28.63 4.87-4.48a.6.6 0 0 1 .8 0 .5.5 0 0 1 0 .74L183.86 29l4.47 4.11a.5.5 0 0 1 0 .74.6.6 0 0 1-.8 0l-4.87-4.48a.5.5 0 0 1-.16-.37.5.5 0 0 1 .16-.37Z" fill="#666"/><mask id="b" style="mask-type:alpha" maskUnits="userSpaceOnUse" x="182" y="24" width="7" height="10"><path fill-rule="evenodd" clip-rule="evenodd" d="m182.66 28.63 4.87-4.48a.6.6 0 0 1 .8 0 .5.5 0 0 1 0 .74L183.86 29l4.47 4.11a.5.5 0 0 1 0 .74.6.6 0 0 1-.8 0l-4.87-4.48a.5.5 0 0 1-.16-.37.5.5 0 0 1 .16-.37Z" fill="#fff"/></mask><g mask="url(#b)"><path fill="#666" d="M180.5 23h12v12h-12z"/></g><path fill-rule="evenodd" clip-rule="evenodd" d="m372.83 29.37-4.86 4.48a.6.6 0 0 1-.8 0 .5.5 0 0 1 0-.74l4.46-4.11-4.46-4.11a.5.5 0 0 1 0-.74.6.6 0 0 1 .8 0l4.86 4.48c.12.1.17.24.17.37a.5.5 0 0 1-.17.37Z" fill="#666"/><mask id="c" style="mask-type:alpha" maskUnits="userSpaceOnUse" x="367" y="24" width="6" height="10"><path fill-rule="evenodd" clip-rule="evenodd" d="m372.83 29.37-4.86 4.48a.6.6 0 0 1-.8 0 .5.5 0 0 1 0-.74l4.46-4.11-4.46-4.11a.5.5 0 0 1 0-.74.6.6 0 0 1 .8 0l4.86 4.48c.12.1.17.24.17.37a.5.5 0 0 1-.17.37Z" fill="#fff"/></mask><g mask="url(#c)"><path fill="#666" d="M375 35h-12V23h12z"/></g><path fill-rule="evenodd" clip-rule="evenodd" d="M1 165h159v1H1v-1Z" fill="#000" fill-opacity=".1"/><path d="M19.75 153.1c-.83 0-1.56-.17-2.18-.52a3.65 3.65 0 0 1-1.43-1.52 5.06 5.06 0 0 1-.5-2.3c0-.87.17-1.63.5-2.28.34-.65.81-1.16 1.43-1.5a4.84 4.84 0 0 1 3.8-.28c.5.17.92.42 1.26.74l-.51 1.13a4.1 4.1 0 0 0-1.14-.66 3.33 3.33 0 0 0-1.2-.22c-.82 0-1.45.27-1.9.8a3.47 3.47 0 0 0-.66 2.27c0 1 .22 1.77.66 2.3.45.52 1.08.79 1.9.79a3.5 3.5 0 0 0 2.34-.88l.51 1.13c-.34.32-.77.57-1.27.74-.5.18-1.04.27-1.6.27ZM29.18 147.13V153h-1.46v-.9a1.95 1.95 0 0 1-1.8 1c-1.44 0-2.16-.81-2.16-2.43v-3.54h1.5v3.55c0 .42.08.73.25.93.17.2.43.3.8.3.41 0 .74-.14.99-.41.26-.28.38-.65.38-1.1v-3.27h1.5ZM32.9 153.1c-.51 0-1-.07-1.43-.2-.44-.12-.8-.3-1.1-.55l.41-1.04c.63.45 1.34.68 2.15.68.34 0 .6-.05.78-.17a.53.53 0 0 0 .28-.48.48.48 0 0 0-.2-.4c-.12-.1-.34-.19-.66-.27l-.96-.21a2.36 2.36 0 0 1-1.2-.6c-.27-.26-.4-.62-.4-1.05 0-.36.1-.67.3-.95a2 2 0 0 1 .85-.64 3.77 3.77 0 0 1 3.5.5l-.42 1.02a3.1 3.1 0 0 0-1.82-.66c-.33 0-.59.06-.77.18a.57.57 0 0 0-.28.5c0 .16.06.3.17.4.12.1.3.18.57.24l1 .23a2.5 2.5 0 0 1 1.28.61c.27.27.4.63.4 1.08 0 .54-.22.98-.66 1.3-.44.32-1.03.48-1.78.48ZM39.51 151.97c.18 0 .36-.01.55-.04l-.07 1.12-.66.03c-.82 0-1.43-.18-1.82-.56-.4-.38-.6-.95-.6-1.7v-2.56H35.8v-1.13h1.13v-1.75h1.5v1.75h1.55v1.13h-1.55v2.53c0 .79.36 1.18 1.1 1.18ZM43.62 153.1c-.6 0-1.13-.13-1.59-.38-.45-.24-.8-.6-1.04-1.06-.25-.47-.37-1-.37-1.62 0-.62.12-1.16.37-1.61.25-.47.6-.82 1.04-1.07.46-.25.99-.37 1.59-.37.6 0 1.12.12 1.57.37.45.25.8.6 1.04 1.07.25.45.37.99.37 1.6 0 .62-.12 1.16-.37 1.63a2.5 2.5 0 0 1-1.04 1.06 3.2 3.2 0 0 1-1.57.38Zm-.02-1.17c.5 0 .86-.16 1.12-.48.26-.32.38-.79.38-1.41 0-.62-.12-1.09-.38-1.4-.26-.34-.62-.5-1.1-.5-.48 0-.86.16-1.12.5-.26.31-.38.78-.38 1.4 0 .62.12 1.1.38 1.41.26.32.62.48 1.1.48ZM54.81 146.99c.67 0 1.16.2 1.5.6.32.39.48 1 .48 1.81v3.6h-1.5v-3.54c0-.45-.07-.77-.22-.97-.16-.21-.4-.31-.74-.31-.4 0-.7.13-.93.4-.23.28-.34.66-.34 1.14V153h-1.5v-3.54c0-.45-.07-.77-.23-.97-.14-.21-.38-.31-.73-.31-.39 0-.7.13-.92.4-.23.28-.34.66-.34 1.14V153h-1.5v-5.87h1.47v.83c.17-.32.42-.56.73-.72.31-.17.67-.25 1.07-.25.88 0 1.47.37 1.76 1.1a2.25 2.25 0 0 1 1.94-1.1Z" fill="#666"/><path fill-rule="evenodd" clip-rule="evenodd" d="M1 132h159v1H1v-1Z" fill="#000" fill-opacity=".1"/><path d="M15.91 120v-8.46h1.55v7.19h3.95V120h-5.5ZM24.96 113.99c.82 0 1.43.2 1.83.6.4.4.6 1.01.6 1.85V120h-1.43v-.9c-.13.31-.35.56-.64.73a1.9 1.9 0 0 1-1.01.27c-.4 0-.75-.08-1.07-.24a1.9 1.9 0 0 1-.76-.66c-.18-.28-.27-.6-.27-.94 0-.43.1-.77.32-1.02.23-.25.59-.43 1.08-.54.5-.11 1.18-.17 2.05-.17h.3v-.27c0-.4-.08-.7-.26-.87-.17-.17-.45-.26-.85-.26-.31 0-.64.05-.99.17-.33.1-.66.25-1 .44l-.41-1.03c.33-.21.72-.38 1.19-.52.46-.13.9-.2 1.32-.2Zm-.35 5.03c.4 0 .72-.14.97-.4.26-.27.38-.62.38-1.04v-.26h-.21c-.54 0-.95.03-1.25.08-.3.04-.5.13-.64.25a.64.64 0 0 0-.19.49c0 .26.09.47.27.64.17.16.4.24.67.24ZM31.08 120.1c-.52 0-1-.07-1.44-.2-.44-.12-.8-.3-1.1-.55l.41-1.04c.63.45 1.34.68 2.15.68.34 0 .6-.05.78-.17a.53.53 0 0 0 .28-.48.48.48 0 0 0-.2-.4c-.12-.1-.34-.19-.66-.27l-.96-.21a2.36 2.36 0 0 1-1.2-.6c-.27-.26-.4-.62-.4-1.05 0-.36.1-.67.3-.95a2 2 0 0 1 .85-.64 3.77 3.77 0 0 1 3.5.5l-.42 1.02a3.1 3.1 0 0 0-1.82-.66c-.33 0-.59.06-.77.18a.57.57 0 0 0-.28.5c0 .16.06.3.17.4.12.1.31.18.57.24l1 .23a2.5 2.5 0 0 1 1.28.61c.27.27.4.63.4 1.08 0 .54-.22.98-.66 1.3-.44.32-1.03.48-1.78.48ZM37.68 118.97c.18 0 .36-.01.55-.04l-.07 1.12-.66.03c-.82 0-1.43-.18-1.82-.56-.4-.38-.59-.95-.59-1.7v-2.56h-1.13v-1.13h1.13v-1.75h1.5v1.75h1.55v1.13h-1.55v2.53c0 .79.36 1.18 1.1 1.18ZM49.34 113.99c.67 0 1.16.2 1.49.6.33.39.5 1 .5 1.81v3.6h-1.5v-3.54c0-.45-.08-.77-.24-.97-.15-.21-.4-.31-.73-.31-.4 0-.71.13-.93.4-.23.28-.34.66-.34 1.14V120h-1.5v-3.54c0-.45-.08-.77-.23-.97-.14-.21-.39-.31-.73-.31-.4 0-.7.13-.92.4-.23.28-.34.66-.34 1.14V120h-1.5v-5.87h1.46v.83c.18-.32.42-.56.74-.72.3-.17.66-.25 1.06-.25.9 0 1.48.37 1.77 1.1.18-.34.45-.61.79-.8.34-.2.73-.3 1.15-.3ZM55.52 120.1c-.6 0-1.13-.13-1.58-.38-.45-.24-.8-.6-1.05-1.06-.24-.47-.37-1-.37-1.62 0-.62.13-1.16.37-1.61.25-.47.6-.82 1.05-1.07.45-.25.98-.37 1.58-.37.6 0 1.13.12 1.57.37.46.25.8.6 1.05 1.07.25.45.37.99.37 1.6 0 .62-.12 1.16-.37 1.63a2.5 2.5 0 0 1-1.05 1.06 3.2 3.2 0 0 1-1.57.38Zm-.01-1.17c.49 0 .86-.16 1.12-.48.25-.32.38-.79.38-1.41 0-.62-.13-1.09-.38-1.4-.26-.34-.63-.5-1.1-.5-.49 0-.86.16-1.12.5-.26.31-.39.78-.39 1.4 0 .62.13 1.1.39 1.41.25.32.62.48 1.1.48ZM63.16 113.99c.7 0 1.22.2 1.57.6.34.4.51 1 .51 1.81v3.6h-1.5v-3.52c0-.45-.08-.78-.26-1-.17-.2-.44-.3-.8-.3-.44 0-.78.13-1.05.4-.25.28-.38.64-.38 1.1V120h-1.5v-5.87h1.46v.88c.2-.33.47-.58.8-.76.34-.17.72-.26 1.15-.26ZM69.77 118.97c.17 0 .36-.01.55-.04l-.07 1.12-.66.03c-.83 0-1.43-.18-1.83-.56-.39-.38-.58-.95-.58-1.7v-2.56h-1.13v-1.13h1.13v-1.75h1.5v1.75h1.54v1.13h-1.54v2.53c0 .79.36 1.18 1.09 1.18ZM74.6 113.99c.71 0 1.23.2 1.58.6.34.4.51 1 .51 1.81v3.6h-1.5v-3.52c0-.45-.08-.78-.26-1-.17-.2-.44-.3-.8-.3-.44 0-.78.13-1.05.4-.25.28-.38.64-.38 1.1V120h-1.5v-8.46h1.5v3.4c.2-.3.46-.54.79-.7.34-.17.7-.25 1.12-.25Z" fill="#666"/><path fill-rule="evenodd" clip-rule="evenodd" d="M1 67h159v32H1V67Z" fill="#E3F3FF"/><path fill-rule="evenodd" clip-rule="evenodd" d="M1 99h159v1H1v-1Z" fill="#000" fill-opacity=".1"/><path d="M15.91 87v-8.46h1.55v7.19h3.95V87h-5.5ZM24.96 80.99c.82 0 1.43.2 1.83.6.4.4.6 1.01.6 1.85V87h-1.43v-.9c-.13.31-.35.56-.64.73a1.9 1.9 0 0 1-1.01.27c-.4 0-.75-.08-1.07-.24a1.9 1.9 0 0 1-.76-.66c-.18-.28-.27-.6-.27-.94 0-.43.1-.77.32-1.02.23-.25.59-.43 1.08-.54.5-.11 1.18-.17 2.05-.17h.3v-.27c0-.4-.08-.7-.26-.87-.17-.17-.45-.26-.85-.26-.31 0-.64.05-.99.17-.33.1-.66.25-1 .44l-.41-1.03c.33-.21.72-.38 1.19-.52.46-.13.9-.2 1.32-.2Zm-.35 5.03c.4 0 .72-.14.97-.4.26-.27.38-.62.38-1.04v-.26h-.21c-.54 0-.95.03-1.25.08-.3.04-.5.13-.64.25a.64.64 0 0 0-.19.49c0 .26.09.47.27.64.17.16.4.24.67.24ZM31.08 87.1c-.52 0-1-.07-1.44-.2-.44-.12-.8-.3-1.1-.55l.41-1.04c.63.45 1.34.68 2.15.68.34 0 .6-.05.78-.17a.53.53 0 0 0 .28-.48.48.48 0 0 0-.2-.4c-.12-.1-.34-.19-.66-.27l-.96-.21a2.36 2.36 0 0 1-1.2-.6c-.27-.26-.4-.62-.4-1.05 0-.36.1-.67.3-.95a2 2 0 0 1 .85-.64 3.77 3.77 0 0 1 3.5.5l-.42 1.02a3.1 3.1 0 0 0-1.82-.66c-.33 0-.59.06-.77.18a.57.57 0 0 0-.28.5c0 .16.06.3.17.4.12.1.31.18.57.24l1 .23a2.5 2.5 0 0 1 1.28.61c.27.27.4.63.4 1.08 0 .54-.22.98-.66 1.3-.44.32-1.03.48-1.78.48ZM37.68 85.97c.18 0 .36-.01.55-.04l-.07 1.12-.66.03c-.82 0-1.43-.18-1.82-.56-.4-.38-.59-.95-.59-1.7v-2.56h-1.13v-1.13h1.13v-1.75h1.5v1.75h1.55v1.13h-1.55v2.53c0 .79.36 1.18 1.1 1.18ZM50.29 81.13h1.46L49.45 87h-1.3l-1.45-3.78L45.3 87H44l-2.31-5.87h1.53l1.5 4.08 1.5-4.08h1.08l1.5 4.1 1.49-4.1ZM57.7 84.34h-4c.05.54.22.94.5 1.2.28.27.68.4 1.2.4.65 0 1.24-.2 1.77-.62l.44 1.03a3.89 3.89 0 0 1-2.27.74c-.96 0-1.72-.27-2.28-.81a3 3 0 0 1-.83-2.23c0-.6.12-1.13.36-1.6.24-.46.58-.82 1-1.08a2.9 2.9 0 0 1 1.5-.38c.8 0 1.44.26 1.9.78.48.52.71 1.23.71 2.15v.42Zm-2.58-2.3c-.4 0-.72.13-.97.39-.24.25-.39.62-.44 1.1h2.7c0-.49-.13-.85-.35-1.1a1.18 1.18 0 0 0-.94-.39ZM64.08 84.34h-4c.05.54.21.94.5 1.2.27.27.67.4 1.2.4.64 0 1.23-.2 1.77-.62l.43 1.03a3.89 3.89 0 0 1-2.27.74c-.96 0-1.72-.27-2.28-.81a3 3 0 0 1-.83-2.23c0-.6.12-1.13.36-1.6.24-.46.58-.82 1.01-1.08a2.9 2.9 0 0 1 1.5-.38c.8 0 1.43.26 1.9.78s.7 1.23.7 2.15v.42Zm-2.58-2.3c-.4 0-.73.13-.98.39-.24.25-.38.62-.44 1.1h2.71c-.01-.49-.13-.85-.36-1.1a1.18 1.18 0 0 0-.93-.39ZM71.18 87h-1.86l-2.52-2.68V87h-1.5v-8.46h1.5v5.16l2.37-2.56h1.82l-2.64 2.81L71.18 87Z" fill="#1EA7FD"/><path fill-rule="evenodd" clip-rule="evenodd" d="M1 66h159v1H1v-1Z" fill="#000" fill-opacity=".1"/><path d="M15.91 54v-8.46h1.55v7.19h3.95V54h-5.5ZM24.96 47.99c.82 0 1.43.2 1.83.6.4.4.6 1.01.6 1.85V54h-1.43v-.9c-.13.31-.35.56-.64.73a1.9 1.9 0 0 1-1.01.27c-.4 0-.75-.08-1.07-.24a1.9 1.9 0 0 1-.76-.66c-.18-.28-.27-.6-.27-.94 0-.43.1-.77.32-1.02.23-.25.59-.43 1.08-.54.5-.11 1.18-.17 2.05-.17h.3v-.27c0-.4-.08-.7-.26-.87-.17-.17-.45-.26-.85-.26-.31 0-.64.05-.99.17-.33.1-.66.25-1 .44l-.41-1.03c.33-.21.72-.38 1.19-.52.46-.13.9-.2 1.32-.2Zm-.35 5.03c.4 0 .72-.14.97-.4.26-.27.38-.62.38-1.04v-.26h-.21c-.54 0-.95.03-1.25.08-.3.04-.5.13-.64.25a.64.64 0 0 0-.19.49c0 .26.09.47.27.64.17.16.4.24.67.24ZM31.08 54.1c-.52 0-1-.07-1.44-.2-.44-.12-.8-.3-1.1-.55l.41-1.04c.63.45 1.34.68 2.15.68.34 0 .6-.05.78-.17a.53.53 0 0 0 .28-.48.48.48 0 0 0-.2-.4c-.12-.1-.34-.19-.66-.27l-.96-.21a2.36 2.36 0 0 1-1.2-.6c-.27-.26-.4-.62-.4-1.05 0-.36.1-.67.3-.95a2 2 0 0 1 .85-.64 3.77 3.77 0 0 1 3.5.5l-.42 1.02a3.1 3.1 0 0 0-1.82-.66c-.33 0-.59.06-.77.18a.57.57 0 0 0-.28.5c0 .16.06.3.17.4.12.1.31.18.57.24l1 .23a2.5 2.5 0 0 1 1.28.61c.27.27.4.63.4 1.08 0 .54-.22.98-.66 1.3-.44.32-1.03.48-1.78.48ZM37.68 52.97c.18 0 .36-.01.55-.04l-.07 1.12-.66.03c-.82 0-1.43-.18-1.82-.56-.4-.38-.59-.95-.59-1.7v-2.56h-1.13v-1.13h1.13v-1.75h1.5v1.75h1.55v1.13h-1.55v2.53c0 .79.36 1.18 1.1 1.18ZM48.03 45.54V54h-1.48v-.95c-.18.33-.44.59-.77.77-.33.18-.7.28-1.13.28a2.46 2.46 0 0 1-2.28-1.47 3.85 3.85 0 0 1-.32-1.62c0-.6.1-1.14.32-1.6.22-.45.53-.8.92-1.05.4-.25.85-.37 1.36-.37.42 0 .8.09 1.13.26.33.18.58.43.75.75v-3.46h1.5Zm-2.98 7.4c.48 0 .84-.17 1.1-.5.26-.33.4-.8.4-1.4 0-.61-.14-1.08-.4-1.4a1.3 1.3 0 0 0-1.1-.49c-.47 0-.84.16-1.1.48-.27.32-.4.78-.4 1.38 0 .61.13 1.08.4 1.42.26.33.62.5 1.1.5ZM52.1 47.99c.82 0 1.43.2 1.83.6.4.4.6 1.01.6 1.85V54H53.1v-.9c-.13.31-.35.56-.64.73a1.9 1.9 0 0 1-1.01.27c-.4 0-.75-.08-1.07-.24a1.9 1.9 0 0 1-.76-.66c-.18-.28-.27-.6-.27-.94 0-.43.1-.77.32-1.02.23-.25.59-.43 1.08-.54.5-.11 1.18-.17 2.05-.17h.3v-.27c0-.4-.08-.7-.26-.87-.17-.17-.45-.26-.85-.26-.31 0-.64.05-.98.17-.34.1-.67.25-1 .44l-.42-1.03c.33-.21.72-.38 1.19-.52.46-.13.9-.2 1.32-.2Zm-.35 5.03c.4 0 .72-.14.97-.4.26-.27.38-.62.38-1.04v-.26h-.21c-.54 0-.95.03-1.25.08-.3.04-.5.13-.63.25a.64.64 0 0 0-.2.49c0 .26.1.47.27.64.17.16.4.24.67.24ZM60.17 48.14h1.48l-3.53 8.02h-1.51l1.07-2.39-2.45-5.63h1.58l1.66 4.14 1.7-4.14Z" fill="#666"/><path fill-rule="evenodd" clip-rule="evenodd" d="M1 33h159v1H1v-1Z" fill="#000" fill-opacity=".1"/><path d="M15.91 21v-8.46h1.55v7.19h3.95V21h-5.5ZM24.96 14.99c.82 0 1.43.2 1.83.6.4.4.6 1.01.6 1.85V21h-1.43v-.9c-.13.31-.35.56-.64.73a1.9 1.9 0 0 1-1.01.27c-.4 0-.75-.08-1.07-.24a1.9 1.9 0 0 1-.76-.66c-.18-.28-.27-.6-.27-.94 0-.43.1-.77.32-1.02.23-.25.59-.43 1.08-.54.5-.11 1.18-.17 2.05-.17h.3v-.27c0-.4-.08-.7-.26-.87-.17-.17-.45-.26-.85-.26-.31 0-.64.05-.99.17-.33.1-.66.25-1 .44l-.41-1.03c.33-.21.72-.38 1.19-.52.46-.13.9-.2 1.32-.2Zm-.35 5.03c.4 0 .72-.14.97-.4.26-.27.38-.62.38-1.04v-.26h-.21c-.54 0-.95.03-1.25.08-.3.04-.5.13-.64.25a.64.64 0 0 0-.19.49c0 .26.09.47.27.64.17.16.4.24.67.24ZM31.08 21.1c-.52 0-1-.07-1.44-.2-.44-.12-.8-.3-1.1-.55l.41-1.04c.63.45 1.34.68 2.15.68.34 0 .6-.05.78-.17a.53.53 0 0 0 .28-.48.48.48 0 0 0-.2-.4c-.12-.1-.34-.19-.66-.27l-.96-.21a2.36 2.36 0 0 1-1.2-.6c-.27-.26-.4-.62-.4-1.05 0-.36.1-.67.3-.95a2 2 0 0 1 .85-.64 3.77 3.77 0 0 1 3.5.5l-.42 1.02a3.1 3.1 0 0 0-1.82-.66c-.33 0-.59.06-.77.18a.57.57 0 0 0-.28.5c0 .16.06.3.17.4.12.1.31.18.57.24l1 .23a2.5 2.5 0 0 1 1.28.61c.27.27.4.63.4 1.08 0 .54-.22.98-.66 1.3-.44.32-1.03.48-1.78.48ZM37.68 19.97c.18 0 .36-.01.55-.04l-.07 1.12-.66.03c-.82 0-1.43-.18-1.82-.56-.4-.38-.59-.95-.59-1.7v-2.56h-1.13v-1.13h1.13v-1.75h1.5v1.75h1.55v1.13h-1.55v2.53c0 .79.36 1.18 1.1 1.18ZM45.78 14.99c.7 0 1.23.2 1.57.6.34.4.52 1 .52 1.81V21h-1.5v-3.52c0-.45-.1-.78-.27-1-.17-.2-.43-.3-.8-.3-.43 0-.78.13-1.05.4-.25.28-.38.64-.38 1.1V21h-1.5v-8.46h1.5v3.4c.2-.3.46-.54.8-.7.33-.17.7-.25 1.1-.25ZM52.07 21.1c-.6 0-1.13-.13-1.59-.38-.45-.24-.8-.6-1.04-1.06-.25-.47-.37-1-.37-1.62 0-.62.12-1.16.37-1.61.25-.47.6-.82 1.04-1.07.46-.25.99-.37 1.59-.37.6 0 1.12.12 1.57.37.45.25.8.6 1.04 1.07.25.45.37.99.37 1.6 0 .62-.12 1.16-.37 1.63a2.5 2.5 0 0 1-1.04 1.06 3.2 3.2 0 0 1-1.57.38Zm-.02-1.17c.5 0 .86-.16 1.12-.48.26-.32.38-.79.38-1.41 0-.62-.12-1.09-.38-1.4-.26-.34-.62-.5-1.1-.5-.48 0-.86.16-1.12.5-.26.31-.38.78-.38 1.4 0 .62.12 1.1.38 1.41.26.32.62.48 1.1.48ZM61.68 15.13V21h-1.46v-.9a1.95 1.95 0 0 1-1.8 1c-1.44 0-2.16-.81-2.16-2.43v-3.54h1.5v3.55c0 .42.08.73.25.93.17.2.43.3.79.3.42 0 .75-.14 1-.41.25-.28.38-.65.38-1.1v-3.27h1.5ZM67.1 16.24l-.87.08c-1 .1-1.49.6-1.49 1.51V21h-1.5v-5.87h1.43v1.03c.3-.7.93-1.08 1.88-1.15l.46-.03.1 1.26Z" fill="#666"/><g clip-path="url(#d)" fill="#DDD"><path d="M141 49.57h4.97l-.99-.98a.43.43 0 1 1 .6-.6l1.72 1.7c.17.17.17.45 0 .61l-1.71 1.72a.43.43 0 1 1-.6-.6l.97-1H141a.43.43 0 1 1 0-.85Z"/><path fill-rule="evenodd" clip-rule="evenodd" d="M144 56a6 6 0 1 1 0-12 6 6 0 0 1 0 12Zm0-.86a5.14 5.14 0 1 1 0-10.28 5.14 5.14 0 0 1 0 10.28Z"/></g><g clip-path="url(#e)" fill="#DDD"><path d="M141 115.57h4.97l-.99-.98a.43.43 0 0 1 0-.6.43.43 0 0 1 .6 0l1.72 1.7c.17.17.17.45 0 .61l-1.71 1.72a.43.43 0 0 1-.6 0 .43.43 0 0 1 0-.6l.97-1H141a.43.43 0 1 1 0-.85Z"/><path fill-rule="evenodd" clip-rule="evenodd" d="M144 122a6 6 0 1 1 0-12 6 6 0 0 1 0 12Zm0-.86a5.14 5.14 0 1 1 0-10.28 5.14 5.14 0 0 1 0 10.28Z"/></g><g clip-path="url(#f)" fill="#DDD"><path d="M141 148.57h4.97l-.99-.98a.43.43 0 0 1 0-.6.43.43 0 0 1 .6 0l1.72 1.7c.17.17.17.45 0 .61l-1.71 1.72a.43.43 0 0 1-.6 0 .43.43 0 0 1 0-.6l.97-1H141a.43.43 0 1 1 0-.85Z"/><path fill-rule="evenodd" clip-rule="evenodd" d="M144 155a6 6 0 1 1 0-12 6 6 0 0 1 0 12Zm0-.86a5.14 5.14 0 1 1 0-10.28 5.14 5.14 0 0 1 0 10.28Z"/></g><g clip-path="url(#g)" fill="#DDD"><path d="M141 16.57h4.97l-.99-.98a.43.43 0 1 1 .6-.6l1.72 1.7c.17.17.17.45 0 .61l-1.71 1.72a.43.43 0 1 1-.6-.6l.97-1H141a.43.43 0 1 1 0-.85Z"/><path fill-rule="evenodd" clip-rule="evenodd" d="M144 23a6 6 0 1 1 0-12 6 6 0 0 1 0 12Zm0-.86a5.14 5.14 0 1 1 0-10.28 5.14 5.14 0 0 1 0 10.28Z"/></g><g clip-path="url(#h)" fill="#1EA7FD"><path d="M141 82.57h4.97l-.99-.98a.43.43 0 1 1 .6-.6l1.72 1.7c.17.17.17.45 0 .61l-1.71 1.72a.43.43 0 1 1-.6-.6l.97-1H141a.43.43 0 1 1 0-.85Z"/><path fill-rule="evenodd" clip-rule="evenodd" d="M144 89a6 6 0 1 1 0-12 6 6 0 0 1 0 12Zm0-.86a5.14 5.14 0 1 1 0-10.28 5.14 5.14 0 0 1 0 10.28Z"/></g><path d="M182.97 57.59c-.53 0-1.05-.07-1.54-.21-.5-.15-.9-.35-1.23-.6l.5-1.11c.68.47 1.44.71 2.29.71.44 0 .78-.07 1-.21.25-.15.37-.35.37-.6 0-.23-.11-.4-.33-.53-.21-.13-.6-.25-1.15-.37a6.51 6.51 0 0 1-1.5-.46c-.36-.18-.63-.4-.8-.66-.17-.27-.25-.6-.25-.98 0-.43.12-.8.35-1.14.24-.33.57-.6 1-.78.43-.2.92-.29 1.48-.29.5 0 .98.07 1.44.22.47.15.84.34 1.1.59l-.5 1.11a3.4 3.4 0 0 0-2.03-.71c-.4 0-.73.08-.96.24a.73.73 0 0 0-.35.64c0 .16.04.3.13.4.1.1.24.19.45.27.21.08.51.16.9.25.9.2 1.56.46 1.95.77.4.31.6.75.6 1.3 0 .67-.26 1.2-.77 1.58-.51.38-1.23.57-2.15.57ZM191.62 52.59v4.91h-1.47v-.7c-.15.25-.35.45-.6.58-.25.13-.53.2-.85.2-.62 0-1.08-.17-1.39-.51-.3-.35-.45-.87-.45-1.56v-2.92h1.51v2.95c0 .3.06.51.18.65.13.14.32.21.57.21.3 0 .53-.1.71-.3.19-.2.28-.46.28-.79v-2.72h1.51ZM216 50.45h1.22v7.05h-1.37v-4.18l-1.62 3.02h-1l-1.62-2.98v4.14h-1.37v-7.05h1.23l2.27 4.31 2.27-4.31ZM220.88 57.58c-.52 0-.98-.1-1.37-.31-.4-.21-.7-.51-.91-.89a2.77 2.77 0 0 1-.32-1.36c0-.52.1-.97.32-1.35.21-.39.51-.68.9-.89.4-.2.86-.31 1.38-.31.52 0 .97.1 1.37.31.39.2.7.5.9.89.22.38.33.83.33 1.35 0 .52-.11.97-.32 1.36-.22.38-.52.68-.91.89-.4.2-.85.31-1.37.31Zm0-1.15c.73 0 1.1-.47 1.1-1.41 0-.47-.1-.83-.3-1.06-.18-.23-.45-.35-.8-.35-.74 0-1.1.47-1.1 1.41s.36 1.41 1.1 1.41ZM243.5 57.5v-5.78h-2.2v-1.27h5.98v1.27h-2.21v5.78h-1.56ZM251.9 52.59v4.91h-1.46v-.7c-.16.25-.36.45-.61.58-.25.13-.53.2-.84.2-.62 0-1.09-.17-1.4-.51-.3-.35-.44-.87-.44-1.56v-2.92h1.5v2.95c0 .3.07.51.19.65.13.14.31.21.57.21.3 0 .53-.1.7-.3.2-.2.29-.46.29-.79v-2.72h1.5ZM279.55 50.45h1.47l-2.5 7.05h-1.25l-1.63-4.67-1.65 4.67h-1.25l-2.5-7.05h1.57l1.62 4.87 1.7-4.87h1.1l1.64 4.92 1.68-4.92ZM285.61 55.33h-3.2c.05.4.17.68.38.86.21.17.51.26.9.26a2.42 2.42 0 0 0 1.44-.48l.4 1.01a3.42 3.42 0 0 1-1.91.6c-.82 0-1.48-.23-1.96-.68a2.49 2.49 0 0 1-.7-1.87c0-.5.1-.94.3-1.33.2-.39.5-.69.86-.9.37-.22.78-.33 1.25-.33.69 0 1.23.22 1.63.67.4.45.61 1.05.61 1.82v.37Zm-2.2-1.82a.9.9 0 0 0-.69.28c-.17.18-.27.44-.3.79h1.92a1.29 1.29 0 0 0-.27-.8c-.15-.18-.37-.27-.66-.27ZM304.66 57.5v-5.78h-2.2v-1.27h5.97v1.27h-2.2v5.78h-1.57ZM312.21 52.47c.59 0 1.03.17 1.31.52.29.34.43.86.43 1.55v2.96h-1.5v-2.89c0-.33-.07-.58-.2-.73-.12-.15-.3-.23-.57-.23a1 1 0 0 0-.76.3c-.18.2-.28.47-.28.8v2.75h-1.5v-7.05h1.5v2.79c.18-.25.4-.44.66-.57.28-.13.58-.2.91-.2ZM333.46 57.5v-7.05h4.76v1.23H335v1.62h3.02v1.23H335v2.97h-1.54ZM342.48 53.71l-.85.09c-.42.04-.72.16-.9.36-.16.2-.25.45-.25.78v2.56h-1.51v-4.91h1.45v.83c.25-.57.76-.88 1.53-.93l.44-.03.09 1.25ZM364.68 57.59a5.6 5.6 0 0 1-1.54-.21 3.7 3.7 0 0 1-1.23-.6l.5-1.11c.68.47 1.45.71 2.3.71.43 0 .77-.07 1-.21.24-.15.36-.35.36-.6 0-.23-.1-.4-.33-.53-.21-.13-.6-.25-1.15-.37a6.5 6.5 0 0 1-1.49-.46 2 2 0 0 1-.8-.66c-.17-.27-.26-.6-.26-.98 0-.43.12-.8.35-1.14.24-.33.58-.6 1-.78.43-.2.92-.29 1.48-.29.5 0 .98.07 1.44.22.47.15.84.34 1.11.59l-.5 1.11a3.4 3.4 0 0 0-2.04-.71c-.4 0-.72.08-.96.24a.72.72 0 0 0-.35.64c0 .16.05.3.13.4.1.1.25.19.45.27.22.08.52.16.9.25.91.2 1.56.46 1.95.77.4.31.6.75.6 1.3 0 .67-.25 1.2-.77 1.58-.51.38-1.23.57-2.15.57ZM370.79 52.47c.73 0 1.27.17 1.62.52.35.35.53.88.53 1.61v2.9h-1.43v-.73c-.1.25-.27.45-.5.6-.24.14-.5.21-.82.21-.34 0-.64-.07-.91-.2a1.63 1.63 0 0 1-.64-.56c-.16-.24-.23-.5-.23-.8 0-.36.09-.64.27-.85.18-.2.48-.36.89-.45.4-.1.96-.14 1.67-.14h.26v-.18c0-.3-.07-.5-.2-.62-.12-.12-.34-.18-.65-.18a3.9 3.9 0 0 0-1.64.49l-.4-1.01a4 4 0 0 1 1.03-.43c.41-.12.8-.18 1.15-.18Zm-.27 4.07c.3 0 .53-.1.7-.29.19-.2.28-.46.28-.77v-.17h-.17c-.54 0-.92.04-1.14.13a.47.47 0 0 0-.32.47c0 .18.06.33.18.45s.28.18.47.18Z" fill="#CCC"/><path opacity=".15" d="M279 70h115v24H279V70ZM160 103h118.5v24H160v-24Z" fill="#1EA7FD"/><path d="M290 82a12 12 0 1 1-24 0 12 12 0 0 1 24 0ZM290 115a12 12 0 1 1-24 0 12 12 0 0 1 24 0Z" fill="#1EA7FD"/><path d="M370.4 83.57v.75h-1.16V86h-.9v-1.68h-3.58v-.68l3.74-5.4h.74v5.33h1.17Zm-4.7 0h2.65v-3.82l-2.65 3.82ZM364.94 118.24h1.7v.76h-4.3v-.76h1.7v-5.87l-1.37.85-.41-.69 2.03-1.28h.65v7ZM371.54 118.24h1.7v.76h-4.31v-.76h1.7v-5.87l-1.36.85-.42-.69 2.04-1.28h.65v7ZM364.94 151.24h1.7v.76h-4.3v-.76h1.7v-5.87l-1.37.85-.41-.69 2.03-1.28h.65v7ZM372.14 148.02a1.94 1.94 0 0 1 1.44 1.93c0 .66-.24 1.19-.72 1.57a3.3 3.3 0 0 1-2.06.56 3.3 3.3 0 0 1-2.06-.56 1.9 1.9 0 0 1-.72-1.58c0-.47.13-.88.38-1.22a2 2 0 0 1 1.07-.7c-.39-.15-.7-.38-.93-.7a1.85 1.85 0 0 1-.34-1.1c0-.64.23-1.13.69-1.5.46-.38 1.1-.56 1.91-.56.81 0 1.45.18 1.9.56.47.37.7.86.7 1.5 0 .42-.12.8-.34 1.12a1.9 1.9 0 0 1-.92.68Zm-3.04-1.74c0 .46.14.8.42 1.04.3.25.72.37 1.28.37s.98-.12 1.26-.37c.3-.24.44-.58.44-1.04 0-.43-.14-.77-.44-1.01-.28-.24-.7-.37-1.26-.37s-.98.13-1.28.37c-.28.24-.42.58-.42 1.01Zm1.7 5.05c1.26 0 1.9-.48 1.9-1.44s-.64-1.44-1.9-1.44c-1.26 0-1.9.48-1.9 1.44s.64 1.44 1.9 1.44ZM366.83 184.24v.76h-5v-.68l2.73-3c.36-.4.63-.77.79-1.1.17-.32.25-.65.25-.98 0-.43-.12-.75-.37-.98-.25-.23-.6-.34-1.06-.34-.75 0-1.48.3-2.2.89l-.34-.7a3.99 3.99 0 0 1 2.56-.96c.71 0 1.28.2 1.69.56.41.36.62.86.62 1.48 0 .45-.1.88-.3 1.29a6 6 0 0 1-1 1.37l-2.2 2.4h3.83ZM371.13 180.14c.5 0 .92.1 1.28.3.36.21.64.5.84.88.2.36.3.79.3 1.27 0 .5-.11.92-.33 1.3-.21.37-.52.67-.91.88-.4.2-.86.3-1.39.3-.47 0-.93-.08-1.4-.25a3.54 3.54 0 0 1-1.15-.7l.34-.7c.72.6 1.46.9 2.21.9.54 0 .97-.16 1.28-.46.3-.31.46-.73.46-1.26 0-.51-.16-.92-.46-1.24a1.6 1.6 0 0 0-1.21-.47c-.74 0-1.33.3-1.77.9h-.63v-4.54h4.65v.74h-3.76v2.76c.2-.2.45-.34.73-.45.28-.1.59-.16.92-.16ZM338.65 82.02c.46.13.8.36 1.05.68.24.32.36.72.36 1.2 0 .67-.23 1.2-.7 1.6-.45.38-1.07.58-1.85.58-.5 0-.98-.09-1.44-.26-.46-.16-.85-.4-1.17-.7l.34-.7c.7.6 1.45.9 2.25.9.55 0 .96-.12 1.25-.36.29-.25.43-.62.43-1.1 0-.94-.6-1.41-1.78-1.41h-.9v-.76h.72c.57 0 1.01-.13 1.32-.38.3-.25.46-.62.46-1.1 0-.41-.12-.73-.37-.95-.25-.23-.6-.34-1.07-.34-.75 0-1.48.3-2.2.89l-.34-.7c.32-.3.7-.53 1.16-.7.45-.17.92-.25 1.41-.25.7 0 1.27.18 1.68.54.42.35.62.82.62 1.43 0 .44-.1.84-.33 1.17-.2.33-.5.57-.9.72ZM335.02 118.24h1.7v.76h-4.3v-.76h1.7v-5.87l-1.36.85-.42-.69 2.04-1.28h.64v7ZM340.88 119.09a2.3 2.3 0 0 1-2.02-1.01 5.21 5.21 0 0 1-.7-2.95c0-1.3.24-2.29.7-2.96a2.3 2.3 0 0 1 2.02-1.01c.89 0 1.56.34 2.03 1 .46.68.69 1.66.69 2.96s-.23 2.28-.7 2.96a2.3 2.3 0 0 1-2.02 1Zm0-.76c.62 0 1.07-.26 1.37-.78.29-.52.44-1.33.44-2.43 0-1.11-.15-1.92-.44-2.42a1.45 1.45 0 0 0-1.37-.77c-.61 0-1.07.25-1.36.77-.3.51-.44 1.32-.44 2.42 0 1.1.15 1.9.44 2.43.3.52.75.78 1.36.78ZM335.02 151.24h1.7v.76h-4.3v-.76h1.7v-5.87l-1.36.85-.42-.69 2.04-1.28h.64v7ZM338.32 144.25h5.13v.67l-3.63 7.08h-.98l3.62-7h-4.14v-.75ZM336.92 184.24v.76h-5v-.68l2.72-3c.37-.4.63-.77.8-1.1.16-.32.24-.65.24-.98 0-.43-.12-.75-.37-.98-.25-.23-.6-.34-1.06-.34-.74 0-1.48.3-2.2.89l-.34-.7a3.99 3.99 0 0 1 2.56-.96c.72 0 1.28.2 1.69.56.42.36.63.86.63 1.48 0 .45-.1.88-.31 1.29a6 6 0 0 1-1 1.37l-2.2 2.4h3.84ZM343.79 182.57v.75h-1.17V185h-.89v-1.68h-3.59v-.69l3.74-5.38h.74v5.32h1.17Zm-4.71 0h2.65v-3.82l-2.65 3.82Z" fill="#333"/><path d="M335.36 214.02c.45.13.8.36 1.04.68.24.32.36.72.36 1.2 0 .67-.23 1.2-.69 1.6-.45.38-1.07.58-1.86.58-.5 0-.98-.09-1.44-.26-.46-.16-.85-.4-1.17-.7l.34-.7c.7.6 1.46.9 2.25.9.55 0 .97-.12 1.25-.36.29-.25.43-.62.43-1.1 0-.94-.6-1.41-1.78-1.41h-.9v-.76h.72c.58 0 1.02-.13 1.32-.38.31-.25.47-.62.47-1.1 0-.41-.13-.73-.38-.95-.25-.23-.6-.34-1.06-.34-.75 0-1.49.3-2.2.89l-.35-.7c.32-.3.7-.53 1.16-.7.45-.17.93-.25 1.42-.25.7 0 1.26.18 1.67.54.42.35.63.83.63 1.43 0 .44-.11.84-.33 1.17a1.8 1.8 0 0 1-.9.72ZM341.62 217.24h1.7v.76h-4.3v-.76h1.7v-5.87l-1.37.85-.41-.69 2.03-1.28h.65v7Z" fill="#fff"/><path d="M310.05 85.24V86h-5v-.68l2.72-3c.37-.4.63-.77.8-1.1.16-.32.25-.65.25-.98 0-.43-.13-.76-.38-.98-.25-.23-.6-.34-1.05-.34-.75 0-1.49.3-2.2.89l-.34-.7a3.99 3.99 0 0 1 2.56-.96c.71 0 1.27.2 1.68.56.42.36.63.86.63 1.48 0 .45-.1.88-.31 1.29a6 6 0 0 1-.99 1.37l-2.2 2.4h3.83ZM307.18 111.16c.94 0 1.66.32 2.16.98.52.65.77 1.58.77 2.79 0 1.31-.26 2.34-.79 3.07a2.58 2.58 0 0 1-2.2 1.09 3.45 3.45 0 0 1-2.42-.96l.33-.7c.37.32.72.54 1.05.69.34.14.68.2 1.02.2.67 0 1.19-.28 1.55-.87.37-.6.55-1.43.55-2.5v-.15a2 2 0 0 1-.82.97c-.38.23-.8.35-1.28.35-.47 0-.89-.1-1.25-.31-.37-.2-.66-.5-.86-.87-.2-.37-.31-.8-.31-1.29 0-.47.1-.9.32-1.28.21-.38.5-.68.89-.9a2.6 2.6 0 0 1 1.29-.31Zm.05 4.2c.5 0 .92-.16 1.23-.47.33-.33.49-.74.49-1.25a1.66 1.66 0 0 0-1.73-1.72c-.5 0-.9.15-1.2.47-.3.31-.45.73-.45 1.25s.15.94.45 1.26c.31.3.71.46 1.21.46ZM304.86 151.24h1.7v.76h-4.3v-.76h1.7v-5.87l-1.36.85-.42-.69 2.03-1.28h.65v7ZM311.05 147.13c.47 0 .89.1 1.26.3.36.21.65.5.85.87.21.38.31.8.31 1.3 0 .47-.1.9-.32 1.28-.2.38-.5.68-.89.89a2.6 2.6 0 0 1-1.28.32c-.94 0-1.67-.33-2.18-.98a4.48 4.48 0 0 1-.76-2.8c0-.87.12-1.62.35-2.24.24-.62.59-1.1 1.03-1.42.45-.33.99-.5 1.61-.5a3.53 3.53 0 0 1 2.43.96l-.34.7c-.37-.31-.72-.53-1.06-.67a2.48 2.48 0 0 0-1-.22c-.68 0-1.2.3-1.57.89a4.73 4.73 0 0 0-.55 2.5v.16c.17-.41.44-.74.81-.98.38-.24.81-.36 1.3-.36Zm-.12 4.2c.5 0 .9-.16 1.2-.47.3-.32.45-.74.45-1.26 0-.51-.15-.92-.46-1.24-.3-.32-.7-.47-1.2-.47s-.92.16-1.24.48c-.32.32-.48.73-.48 1.23 0 .52.16.93.48 1.26.32.31.74.47 1.25.47ZM306.75 184.24v.76h-5v-.68l2.72-3c.37-.4.63-.77.8-1.1.16-.32.25-.65.25-.98 0-.43-.13-.75-.38-.98-.25-.23-.6-.34-1.05-.34-.75 0-1.48.3-2.2.89l-.34-.7a3.99 3.99 0 0 1 2.56-.96c.71 0 1.27.2 1.68.56.42.36.63.86.63 1.48 0 .45-.1.88-.3 1.29a6 6 0 0 1-1 1.37l-2.2 2.4h3.83ZM311.78 181.02c.46.13.8.36 1.05.68.24.32.36.72.36 1.2 0 .67-.23 1.2-.7 1.6-.45.38-1.07.58-1.85.58-.5 0-.98-.09-1.44-.26-.46-.16-.85-.4-1.17-.7l.34-.7c.7.6 1.46.9 2.25.9.55 0 .97-.12 1.25-.36.29-.25.43-.62.43-1.1 0-.94-.6-1.41-1.78-1.41h-.9v-.76h.72c.58 0 1.02-.13 1.32-.38.31-.25.46-.62.46-1.1 0-.41-.12-.73-.37-.95-.25-.23-.6-.34-1.07-.34-.74 0-1.48.3-2.2.89l-.34-.7c.32-.3.7-.53 1.16-.7.45-.17.93-.25 1.42-.25.7 0 1.26.18 1.67.54.42.35.63.83.63 1.43 0 .44-.11.84-.33 1.17a1.8 1.8 0 0 1-.9.72ZM305.19 214.02c.45.13.8.36 1.04.68.25.32.37.72.37 1.2 0 .67-.23 1.2-.7 1.6-.45.38-1.07.58-1.86.58-.5 0-.97-.09-1.44-.26-.46-.16-.85-.4-1.16-.7l.34-.7c.7.6 1.45.9 2.24.9.55 0 .97-.12 1.26-.36.28-.25.43-.62.43-1.1 0-.94-.6-1.41-1.79-1.41h-.89v-.76h.72c.57 0 1.01-.13 1.32-.38.3-.25.46-.62.46-1.1 0-.41-.13-.73-.38-.95-.24-.23-.6-.34-1.06-.34-.75 0-1.48.3-2.2.89l-.34-.7c.31-.3.7-.53 1.15-.7.46-.17.93-.25 1.42-.25.7 0 1.26.18 1.67.54.42.35.63.83.63 1.43 0 .44-.1.84-.33 1.17a1.8 1.8 0 0 1-.9.72ZM310.72 218.09a2.3 2.3 0 0 1-2.03-1.01 5.21 5.21 0 0 1-.69-2.95c0-1.3.23-2.29.7-2.96a2.3 2.3 0 0 1 2.02-1.01c.88 0 1.56.34 2.02 1 .46.68.7 1.66.7 2.96s-.24 2.28-.7 2.96a2.3 2.3 0 0 1-2.02 1Zm0-.76c.61 0 1.07-.26 1.36-.78.3-.52.44-1.33.44-2.43 0-1.11-.14-1.92-.44-2.42a1.45 1.45 0 0 0-1.36-.77c-.62 0-1.07.25-1.37.77-.29.51-.44 1.32-.44 2.42 0 1.1.15 1.9.44 2.43.3.52.75.78 1.37.78Z" fill="#333"/><path d="M278.24 85.24h1.7V86h-4.3v-.76h1.7v-5.87l-1.37.86-.42-.7 2.04-1.28h.65v7ZM279.84 115.02a1.95 1.95 0 0 1 1.44 1.92c0 .67-.24 1.2-.72 1.58a3.3 3.3 0 0 1-2.06.56 3.3 3.3 0 0 1-2.06-.56 1.9 1.9 0 0 1-.72-1.58c0-.47.13-.88.38-1.22a2 2 0 0 1 1.07-.7c-.39-.15-.7-.38-.92-.7a1.84 1.84 0 0 1-.34-1.1c0-.64.22-1.14.68-1.5.46-.38 1.1-.56 1.91-.56.82 0 1.45.18 1.9.56.47.36.7.86.7 1.5 0 .42-.12.8-.34 1.12a1.9 1.9 0 0 1-.92.68Zm-3.04-1.74c0 .45.14.8.43 1.05.29.24.71.36 1.27.36s.98-.12 1.27-.36c.29-.25.44-.6.44-1.05 0-.43-.15-.77-.44-1.01-.29-.24-.71-.36-1.27-.36s-.98.12-1.27.36c-.29.24-.43.58-.43 1.01Zm1.7 5.05c1.26 0 1.9-.48 1.9-1.44s-.64-1.44-1.9-1.44c-1.26 0-1.89.48-1.89 1.44s.63 1.44 1.9 1.44Z" fill="#fff"/><path d="M275.94 151.24h1.7v.76h-4.3v-.76h1.7v-5.87l-1.37.85-.41-.69 2.03-1.28h.65v7ZM282.13 147.14c.5 0 .92.1 1.28.3.36.21.64.5.84.88.2.36.3.79.3 1.27 0 .5-.11.92-.33 1.3-.21.37-.52.67-.91.88-.4.2-.86.3-1.39.3-.47 0-.93-.08-1.4-.25a3.56 3.56 0 0 1-1.15-.7l.34-.7c.72.6 1.46.9 2.21.9.54 0 .97-.16 1.28-.46.3-.31.46-.73.46-1.26 0-.51-.16-.93-.46-1.24a1.6 1.6 0 0 0-1.21-.47c-.74 0-1.33.3-1.77.9h-.63v-4.54h4.65v.74h-3.76v2.76c.2-.2.45-.34.73-.45.28-.1.59-.16.92-.16ZM277.83 184.24v.76h-5v-.68l2.73-3c.36-.4.63-.77.79-1.1.17-.32.25-.65.25-.98 0-.43-.12-.75-.37-.98-.25-.23-.6-.34-1.06-.34-.75 0-1.48.3-2.2.89l-.34-.7a3.99 3.99 0 0 1 2.56-.96c.71 0 1.27.2 1.69.56.41.36.62.86.62 1.48 0 .45-.1.88-.3 1.29a6 6 0 0 1-1 1.37l-2.2 2.4h3.83ZM284.43 184.24v.76h-5v-.68l2.72-3c.37-.4.63-.77.8-1.1.16-.32.25-.65.25-.98 0-.43-.13-.75-.38-.98-.25-.23-.6-.34-1.05-.34-.75 0-1.48.3-2.2.89l-.34-.7a3.98 3.98 0 0 1 2.56-.96c.71 0 1.27.2 1.68.56.42.36.63.86.63 1.48 0 .45-.1.88-.3 1.29a6 6 0 0 1-1 1.37l-2.2 2.4h3.83ZM277.83 217.24v.76h-5v-.68l2.73-3c.36-.4.63-.77.79-1.1.17-.32.25-.65.25-.98 0-.43-.12-.75-.37-.98-.25-.23-.6-.34-1.06-.34-.75 0-1.48.3-2.2.89l-.34-.7a3.99 3.99 0 0 1 2.56-.96c.71 0 1.27.2 1.69.56.41.36.62.86.62 1.48 0 .45-.1.88-.3 1.29a6 6 0 0 1-1 1.37l-2.2 2.4h3.83ZM281.56 210.16c.94 0 1.66.32 2.17.98.5.65.76 1.58.76 2.79 0 1.31-.26 2.34-.79 3.07a2.58 2.58 0 0 1-2.2 1.09 3.42 3.42 0 0 1-2.42-.96l.33-.7c.37.32.72.54 1.05.69.34.14.68.2 1.02.2.67 0 1.19-.28 1.55-.87.37-.6.55-1.43.55-2.5v-.15a2 2 0 0 1-.82.97c-.38.23-.8.35-1.28.35-.47 0-.89-.1-1.25-.31-.37-.2-.66-.5-.86-.87-.2-.37-.3-.8-.3-1.29 0-.47.1-.9.31-1.28s.5-.68.9-.9a2.6 2.6 0 0 1 1.28-.31Zm.05 4.2c.5 0 .92-.16 1.24-.47.32-.33.48-.74.48-1.25a1.66 1.66 0 0 0-1.73-1.72c-.5 0-.9.15-1.2.47-.3.32-.45.73-.45 1.25s.15.94.45 1.26c.31.3.71.46 1.21.46Z" fill="#333"/><path d="M245.1 82.02c.46.13.8.36 1.05.68.24.32.36.72.36 1.2 0 .67-.23 1.2-.69 1.6-.45.38-1.07.58-1.86.58-.5 0-.98-.09-1.44-.26a3.3 3.3 0 0 1-1.17-.7l.34-.7c.7.6 1.46.9 2.25.9.55 0 .97-.12 1.25-.36.29-.25.43-.62.43-1.1 0-.94-.6-1.41-1.78-1.41h-.9v-.76h.72c.58 0 1.02-.13 1.32-.38.31-.25.47-.62.47-1.1 0-.41-.13-.73-.38-.95-.25-.23-.6-.34-1.06-.34-.75 0-1.49.3-2.2.89l-.35-.7c.32-.3.7-.53 1.16-.7.45-.17.93-.25 1.42-.25.7 0 1.26.18 1.67.54.42.35.63.82.63 1.43 0 .44-.11.84-.33 1.17a1.8 1.8 0 0 1-.9.72ZM251.37 85.24h1.7V86h-4.3v-.76h1.7v-5.87l-1.37.86-.41-.7 2.03-1.28h.65v7Z" fill="#AAA"/><path d="M244.77 111.25h5.13v.67l-3.63 7.08h-.98l3.62-7h-4.14v-.75ZM244.77 151.24h1.7v.76h-4.3v-.76h1.7v-5.87l-1.36.85-.42-.69 2.03-1.28h.65v7ZM253.54 149.57v.75h-1.17V152h-.89v-1.68h-3.59v-.69l3.74-5.38h.74v5.32h1.17Zm-4.71 0h2.65v-3.82l-2.65 3.82ZM246.67 184.24v.76h-5v-.68l2.72-3c.37-.4.63-.77.8-1.1.16-.32.24-.65.24-.98 0-.43-.12-.75-.37-.98-.25-.23-.6-.34-1.06-.34-.74 0-1.48.3-2.2.89l-.34-.7a3.99 3.99 0 0 1 2.56-.96c.72 0 1.28.2 1.69.56.42.36.63.86.63 1.48 0 .45-.1.88-.31 1.29a6 6 0 0 1-1 1.37l-2.2 2.4h3.84ZM251.37 184.24h1.7v.76h-4.3v-.76h1.7v-5.87l-1.37.85-.41-.69 2.03-1.28h.65v7ZM246.67 217.24v.76h-5v-.68l2.72-3c.37-.4.63-.77.8-1.1.16-.32.24-.65.24-.98 0-.43-.12-.75-.37-.98-.25-.23-.6-.34-1.06-.34-.74 0-1.48.3-2.2.89l-.34-.7a3.99 3.99 0 0 1 2.56-.96c.72 0 1.28.2 1.69.56.42.36.63.86.63 1.48 0 .45-.1.88-.31 1.29a6 6 0 0 1-1 1.37l-2.2 2.4h3.84ZM251.97 214.02a1.95 1.95 0 0 1 1.44 1.93c0 .66-.24 1.19-.72 1.57a3.3 3.3 0 0 1-2.06.56 3.3 3.3 0 0 1-2.05-.56 1.9 1.9 0 0 1-.73-1.58c0-.47.13-.88.39-1.22a2 2 0 0 1 1.06-.7c-.39-.15-.7-.38-.92-.7a1.84 1.84 0 0 1-.34-1.1c0-.64.22-1.13.68-1.5.46-.38 1.1-.56 1.91-.56.82 0 1.45.18 1.9.56.47.37.7.86.7 1.5 0 .42-.11.8-.34 1.12a1.9 1.9 0 0 1-.91.68Zm-3.04-1.74c0 .46.14.8.43 1.04.29.25.71.37 1.27.37s.98-.12 1.27-.37c.3-.24.44-.58.44-1.04 0-.43-.15-.77-.44-1.01-.29-.24-.71-.37-1.27-.37s-.98.13-1.27.37c-.29.24-.43.58-.43 1.01Zm1.7 5.05c1.26 0 1.9-.48 1.9-1.44s-.64-1.44-1.9-1.44c-1.26 0-1.89.48-1.89 1.44s.63 1.44 1.9 1.44Z" fill="#333"/><path d="M214.44 82.02c.45.13.8.36 1.04.68.25.32.37.72.37 1.2 0 .67-.23 1.2-.7 1.6-.45.38-1.07.58-1.86.58-.5 0-.97-.09-1.44-.26a3.3 3.3 0 0 1-1.16-.7l.34-.7c.7.6 1.45.9 2.24.9.55 0 .97-.12 1.26-.36.28-.25.43-.62.43-1.1 0-.94-.6-1.41-1.79-1.41h-.89v-.76h.72c.57 0 1.01-.13 1.32-.38.3-.25.46-.62.46-1.1 0-.41-.13-.73-.38-.95-.24-.23-.6-.34-1.06-.34-.75 0-1.48.3-2.2.89l-.34-.7c.31-.3.7-.53 1.15-.7.46-.17.93-.25 1.42-.25.7 0 1.26.18 1.67.54.42.35.63.82.63 1.43 0 .44-.1.84-.33 1.17a1.8 1.8 0 0 1-.9.72ZM219.97 86.09a2.3 2.3 0 0 1-2.03-1.01 5.21 5.21 0 0 1-.69-2.95c0-1.3.23-2.29.7-2.96a2.3 2.3 0 0 1 2.02-1.01c.88 0 1.56.33 2.02 1 .46.68.7 1.66.7 2.96s-.24 2.28-.7 2.96a2.3 2.3 0 0 1-2.02 1Zm0-.76c.61 0 1.07-.26 1.36-.78.3-.52.44-1.33.44-2.43 0-1.11-.15-1.92-.44-2.42a1.45 1.45 0 0 0-1.36-.77c-.62 0-1.07.25-1.37.77-.29.51-.44 1.32-.44 2.42 0 1.1.15 1.9.44 2.43.3.52.75.78 1.37.78Z" fill="#AAA"/><path d="M217 114.13c.47 0 .9.1 1.26.3.37.21.65.5.86.87.2.38.3.8.3 1.3 0 .47-.1.9-.31 1.28-.22.38-.51.68-.9.89a2.6 2.6 0 0 1-1.28.32c-.94 0-1.67-.33-2.18-.98a4.48 4.48 0 0 1-.76-2.8c0-.87.12-1.62.35-2.24.24-.62.59-1.1 1.04-1.42.44-.33.98-.5 1.6-.5a3.53 3.53 0 0 1 2.43.96l-.34.7c-.36-.31-.72-.53-1.05-.67a2.48 2.48 0 0 0-1.02-.22c-.66 0-1.18.3-1.56.89a4.73 4.73 0 0 0-.55 2.5v.16c.17-.41.44-.74.82-.98.37-.24.8-.36 1.3-.36Zm-.12 4.2c.5 0 .9-.16 1.2-.47.3-.32.45-.74.45-1.26 0-.51-.15-.92-.46-1.24-.3-.32-.7-.47-1.2-.47s-.92.16-1.24.48c-.32.32-.47.73-.47 1.23 0 .52.15.93.47 1.26.32.31.74.47 1.25.47ZM214.1 151.24h1.71v.76h-4.3v-.76h1.7v-5.87l-1.37.85-.42-.69 2.04-1.28h.65v7ZM221.03 148.02c.46.13.8.36 1.05.68.24.32.36.72.36 1.2 0 .67-.23 1.2-.7 1.6-.45.38-1.07.58-1.85.58-.5 0-.98-.09-1.44-.26-.46-.16-.85-.4-1.17-.7l.34-.7c.7.6 1.46.9 2.25.9.55 0 .97-.12 1.25-.36.29-.25.43-.62.43-1.1 0-.94-.6-1.41-1.78-1.41h-.9v-.76h.72c.57 0 1.01-.13 1.32-.38.31-.25.47-.62.47-1.1 0-.41-.13-.73-.38-.95-.25-.23-.6-.34-1.07-.34-.74 0-1.48.3-2.2.89l-.34-.7c.32-.3.7-.53 1.16-.7.45-.17.92-.25 1.42-.25.7 0 1.26.18 1.67.54.42.35.63.83.63 1.43 0 .44-.11.84-.33 1.17a1.8 1.8 0 0 1-.9.72ZM216 184.24v.76h-5v-.68l2.72-3c.37-.4.63-.77.8-1.1.16-.32.25-.65.25-.98 0-.43-.13-.75-.38-.98-.24-.23-.6-.34-1.05-.34-.75 0-1.48.3-2.2.89l-.34-.7a3.99 3.99 0 0 1 2.56-.96c.71 0 1.27.2 1.68.56.42.36.63.86.63 1.48 0 .45-.1.88-.3 1.29a6 6 0 0 1-1 1.37l-2.2 2.4H216ZM219.97 185.09a2.3 2.3 0 0 1-2.03-1.01 5.21 5.21 0 0 1-.69-2.95c0-1.3.23-2.29.7-2.96a2.3 2.3 0 0 1 2.02-1.01c.88 0 1.56.34 2.02 1 .46.68.7 1.66.7 2.96s-.24 2.28-.7 2.96a2.3 2.3 0 0 1-2.02 1Zm0-.76c.61 0 1.07-.26 1.36-.78.3-.52.44-1.33.44-2.43 0-1.11-.15-1.92-.44-2.42a1.45 1.45 0 0 0-1.36-.77c-.62 0-1.07.25-1.37.77-.3.51-.44 1.32-.44 2.42 0 1.1.15 1.9.44 2.43.3.52.75.78 1.37.78ZM216 217.24v.76h-5v-.68l2.72-3c.37-.4.63-.77.8-1.1.16-.32.25-.65.25-.98 0-.43-.13-.75-.38-.98-.24-.23-.6-.34-1.05-.34-.75 0-1.48.3-2.2.89l-.34-.7a3.99 3.99 0 0 1 2.56-.96c.71 0 1.27.2 1.68.56.42.36.63.86.63 1.48 0 .45-.1.88-.3 1.29a6 6 0 0 1-1 1.37l-2.2 2.4H216ZM217.4 210.25h5.13v.67L218.9 218h-.98l3.62-7h-4.14v-.75Z" fill="#333"/><path d="M185.33 85.24V86h-5v-.68l2.73-3c.36-.4.63-.77.79-1.1.17-.32.25-.65.25-.98 0-.43-.12-.76-.37-.98-.25-.23-.6-.34-1.06-.34-.75 0-1.48.3-2.2.89l-.34-.7a3.99 3.99 0 0 1 2.56-.96c.71 0 1.28.2 1.69.56.41.36.62.86.62 1.48 0 .45-.1.88-.3 1.29a6 6 0 0 1-1 1.37l-2.2 2.4h3.83ZM189.06 78.16c.94 0 1.66.32 2.16.98.52.65.78 1.58.78 2.79 0 1.31-.27 2.34-.8 3.07a2.58 2.58 0 0 1-2.2 1.09 3.43 3.43 0 0 1-2.42-.96l.33-.7c.37.32.72.54 1.05.69.33.14.68.2 1.02.2.67 0 1.19-.28 1.55-.87.37-.6.55-1.43.55-2.5v-.15a2 2 0 0 1-.82.97c-.38.23-.8.35-1.28.35-.47 0-.89-.1-1.25-.31-.37-.2-.66-.5-.86-.87-.2-.37-.3-.8-.3-1.29 0-.47.1-.9.31-1.28s.5-.68.9-.9a2.6 2.6 0 0 1 1.28-.31Zm.05 4.2c.5 0 .92-.16 1.23-.47.33-.33.49-.74.49-1.25a1.66 1.66 0 0 0-1.73-1.72c-.5 0-.9.15-1.2.47-.3.31-.45.73-.45 1.25s.15.94.45 1.26c.31.3.71.46 1.21.46Z" fill="#AAA"/><path d="M186.33 114.14c.5 0 .92.1 1.28.3.36.21.65.5.84.88.2.36.3.79.3 1.27 0 .5-.1.92-.33 1.3-.21.37-.51.67-.91.88-.4.2-.86.3-1.39.3-.47 0-.93-.08-1.4-.25a3.58 3.58 0 0 1-1.15-.7l.34-.7c.72.6 1.46.9 2.21.9.55 0 .97-.16 1.28-.46.3-.31.46-.73.46-1.26 0-.51-.15-.93-.46-1.24a1.6 1.6 0 0 0-1.21-.47c-.74 0-1.33.3-1.77.9h-.63v-4.55h4.65v.75h-3.76v2.76c.2-.2.45-.34.73-.45.28-.1.6-.16.92-.16ZM183.44 151.24h1.7v.76h-4.3v-.76h1.7v-5.87l-1.36.85-.42-.69 2.03-1.28h.65v7ZM191.93 151.24v.76h-5v-.68l2.72-3c.37-.4.63-.77.8-1.1.16-.32.25-.65.25-.98 0-.43-.13-.75-.38-.98-.25-.23-.6-.34-1.05-.34-.75 0-1.49.3-2.2.89l-.34-.7a3.98 3.98 0 0 1 2.56-.96c.71 0 1.27.2 1.68.56.42.36.63.86.63 1.48 0 .45-.1.88-.3 1.29a6 6 0 0 1-1 1.37l-2.2 2.4h3.83ZM183.44 184.24h1.7v.76h-4.3v-.76h1.7v-5.87l-1.36.85-.42-.69 2.03-1.28h.65v7ZM189.06 177.16c.94 0 1.66.32 2.16.98.52.65.78 1.58.78 2.79 0 1.31-.27 2.34-.8 3.07a2.58 2.58 0 0 1-2.2 1.09 3.42 3.42 0 0 1-2.42-.96l.33-.7c.37.32.72.54 1.05.69.33.14.68.2 1.02.2.67 0 1.19-.28 1.55-.87.37-.6.55-1.43.55-2.5v-.15a2 2 0 0 1-.82.97c-.38.23-.8.35-1.28.35-.47 0-.89-.1-1.25-.31-.37-.2-.66-.5-.86-.87-.2-.37-.3-.8-.3-1.29 0-.47.1-.9.31-1.28s.5-.68.9-.9a2.6 2.6 0 0 1 1.28-.31Zm.05 4.2c.5 0 .92-.16 1.23-.47.33-.33.49-.74.49-1.25a1.66 1.66 0 0 0-1.73-1.72c-.5 0-.9.15-1.2.47-.3.32-.45.73-.45 1.25s.15.94.45 1.26c.31.3.71.46 1.21.46ZM185.34 217.24v.76h-5v-.68l2.72-3c.37-.4.63-.77.8-1.1.16-.32.25-.65.25-.98 0-.43-.13-.75-.38-.98-.25-.23-.6-.34-1.05-.34-.75 0-1.49.3-2.2.89l-.34-.7a3.98 3.98 0 0 1 2.56-.96c.71 0 1.27.2 1.68.56.42.36.63.86.63 1.48 0 .45-.1.88-.3 1.29a6 6 0 0 1-1 1.37l-2.2 2.4h3.83ZM189.63 213.13c.47 0 .9.1 1.26.3.37.21.65.5.86.87.2.38.3.8.3 1.3 0 .47-.1.9-.31 1.28-.22.38-.51.68-.9.89a2.6 2.6 0 0 1-1.28.32c-.94 0-1.67-.33-2.18-.98a4.48 4.48 0 0 1-.76-2.8c0-.87.12-1.62.35-2.24.25-.62.59-1.1 1.04-1.42.45-.33.98-.5 1.6-.5a3.53 3.53 0 0 1 2.43.96l-.34.7c-.36-.31-.71-.53-1.05-.67a2.48 2.48 0 0 0-1.02-.22c-.66 0-1.18.3-1.56.89a4.73 4.73 0 0 0-.55 2.5v.16c.17-.41.44-.74.82-.98.37-.24.8-.36 1.3-.36Zm-.12 4.2c.5 0 .9-.16 1.2-.47.3-.32.45-.74.45-1.26 0-.51-.15-.92-.46-1.24-.3-.32-.7-.47-1.2-.47s-.92.16-1.24.48c-.31.32-.47.73-.47 1.23 0 .52.16.93.47 1.26.32.31.74.47 1.25.47Z" fill="#333"/><defs><clipPath id="d"><path fill="#fff" transform="translate(138 44)" d="M0 0h12v12H0z"/></clipPath><clipPath id="e"><path fill="#fff" transform="translate(138 110)" d="M0 0h12v12H0z"/></clipPath><clipPath id="f"><path fill="#fff" transform="translate(138 143)" d="M0 0h12v12H0z"/></clipPath><clipPath id="g"><path fill="#fff" transform="translate(138 11)" d="M0 0h12v12H0z"/></clipPath><clipPath id="h"><path fill="#fff" transform="translate(138 77)" d="M0 0h12v12H0z"/></clipPath><linearGradient id="a" x1="4.57" y1="0" x2="4.57" y2="244.21" gradientUnits="userSpaceOnUse"><stop stop-color="#F8F8FE"/><stop offset="1" stop-color="#FAFAFA"/></linearGradient></defs></svg>