<svg width="180" height="180" fill="none" xmlns="http://www.w3.org/2000/svg"><path fill-rule="evenodd" clip-rule="evenodd" d="M18.6 46.36v.97h-4.4v-.88l2.22-2.4c.26-.28.45-.55.58-.78.12-.24.18-.48.18-.71 0-.3-.09-.53-.26-.68-.17-.15-.42-.23-.75-.23-.58 0-1.18.23-1.77.68l-.4-.87a3.74 3.74 0 0 1 2.22-.76c.66 0 1.18.16 1.56.48.38.32.58.76.58 1.3 0 .38-.08.73-.25 1.06-.16.34-.43.7-.81 1.11l-1.61 1.71h2.9Zm3.29 1.05c-.77 0-1.37-.28-1.77-.86-.41-.57-.62-1.4-.62-2.5 0-1.08.2-1.91.62-2.48.4-.57 1-.85 1.77-.85s1.37.28 1.77.85c.41.57.62 1.4.62 2.48 0 1.1-.2 1.92-.62 2.5-.4.58-1 .86-1.77.86Zm0-.93c.42 0 .72-.2.92-.59.19-.38.28-1 .28-1.84 0-.84-.1-1.44-.28-1.82a.96.96 0 0 0-.92-.58.96.96 0 0 0-.92.58c-.2.38-.29.98-.29 1.82 0 .84.1 1.46.29 1.84.19.4.5.59.92.59Zm7.93.85h-1.44l-1.95-2.07v2.07h-1.16v-6.55h1.16v4l1.83-1.98h1.42l-2.05 2.17 2.2 2.36ZM17.2 85.51h1.42v.97h-4.05v-.97H16V81.3l-1.13.68-.47-.87 1.94-1.17h.85v5.58Zm5.04-3.22c.4 0 .76.09 1.08.26.31.18.55.42.72.74.17.32.26.68.26 1.09 0 .43-.1.81-.3 1.14-.2.33-.48.58-.84.76-.36.18-.79.27-1.28.27a3.66 3.66 0 0 1-2.2-.76l.4-.87c.6.45 1.2.67 1.82.67.41 0 .72-.1.94-.3.22-.2.32-.5.32-.88 0-.36-.1-.65-.33-.86a1.23 1.23 0 0 0-.9-.32 1.82 1.82 0 0 0-1.32.55h-.72v-3.85H24v.93h-2.94v1.76c.32-.22.71-.33 1.18-.33Zm7.58 4.19h-1.44l-1.95-2.07v2.07h-1.16v-6.55h1.16v4l1.83-1.99h1.41l-2.04 2.18 2.2 2.36ZM22.23 120.36c.4 0 .77.1 1.08.27.31.18.55.42.72.74.17.31.26.67.26 1.08 0 .44-.1.82-.3 1.15-.2.33-.48.58-.84.76-.36.18-.79.27-1.28.27a3.67 3.67 0 0 1-2.2-.76l.4-.88c.6.45 1.2.68 1.82.68.41 0 .72-.1.94-.3.22-.21.33-.5.33-.88 0-.36-.11-.65-.33-.87a1.23 1.23 0 0 0-.9-.32 1.82 1.82 0 0 0-1.33.56h-.71V118h4.1v.93h-2.93v1.77c.31-.23.7-.34 1.17-.34Zm7.58 4.2h-1.44l-1.95-2.08v2.07h-1.16V118h1.16v4l1.83-1.98h1.41l-2.04 2.17 2.2 2.36ZM48.32 161.44v.97h-4.4v-.89l2.23-2.4c.26-.28.45-.54.57-.78.12-.24.18-.47.18-.7 0-.3-.09-.53-.26-.68-.17-.15-.42-.23-.74-.23-.6 0-1.18.23-1.78.68l-.4-.88a3.75 3.75 0 0 1 2.22-.76c.66 0 1.18.17 1.56.49.39.32.58.75.58 1.3 0 .38-.08.73-.24 1.06-.16.33-.44.7-.82 1.11l-1.6 1.71h2.9Zm3.29 1.05c-.78 0-1.37-.29-1.78-.86-.4-.57-.6-1.4-.6-2.5 0-1.09.2-1.91.6-2.48.41-.57 1-.86 1.78-.86.77 0 1.36.29 1.77.86.41.57.62 1.4.62 2.48 0 1.09-.2 1.92-.62 2.5-.4.57-1 .86-1.77.86Zm0-.94c.42 0 .73-.2.92-.58.2-.39.29-1 .29-1.84 0-.84-.1-1.45-.3-1.83a.96.96 0 0 0-.91-.57c-.42 0-.73.2-.92.57-.2.38-.29 1-.29 1.83 0 .84.1 1.45.29 1.84.2.39.5.58.92.58Zm8.78-3.8c.52 0 .9.16 1.15.46.26.3.38.78.38 1.4v2.8h-1.16v-2.74c0-.35-.06-.6-.17-.76-.12-.16-.31-.24-.57-.24-.3 0-.55.1-.72.32-.18.2-.26.5-.26.88v2.54h-1.17v-2.74c0-.35-.05-.6-.17-.76-.11-.16-.3-.24-.57-.24-.3 0-.54.1-.71.32-.18.2-.26.5-.26.88v2.54H55v-4.55h1.13v.64c.13-.24.32-.43.56-.56.25-.12.52-.19.83-.19.69 0 1.14.29 1.37.86.14-.27.34-.48.61-.63.27-.15.56-.23.9-.23Zm4.39 4.73c-.4 0-.77-.05-1.11-.15a2.5 2.5 0 0 1-.86-.43l.33-.8c.48.35 1.03.53 1.66.53.26 0 .47-.05.6-.13.15-.1.22-.22.22-.38a.38.38 0 0 0-.15-.31c-.1-.08-.27-.14-.51-.2l-.75-.17c-.42-.1-.73-.25-.93-.46-.2-.2-.31-.48-.31-.82 0-.28.08-.52.24-.73.15-.22.37-.38.65-.5a2.96 2.96 0 0 1 2.7.39l-.31.79a2.4 2.4 0 0 0-1.41-.51c-.26 0-.46.04-.6.14a.44.44 0 0 0-.21.39c0 .12.04.22.13.3.1.08.24.15.43.19l.77.18c.46.1.79.25 1 .46.2.22.31.5.31.84 0 .43-.17.76-.5 1-.35.26-.8.38-1.39.38ZM90.1 159.4c.38.1.68.28.89.56.2.27.3.61.3 1.02 0 .57-.2 1.02-.62 1.35-.42.33-.98.5-1.7.5-.44 0-.87-.07-1.27-.2a2.9 2.9 0 0 1-1-.56l.4-.87a2.9 2.9 0 0 0 1.82.67c.42 0 .73-.08.93-.24.2-.17.3-.41.3-.75 0-.33-.1-.57-.3-.73-.21-.16-.53-.24-.97-.24h-.86v-.94h.7c.85 0 1.28-.32 1.28-.96 0-.3-.1-.53-.28-.69a1.14 1.14 0 0 0-.77-.24c-.3 0-.59.06-.89.17-.3.12-.6.29-.88.5l-.4-.86c.26-.24.6-.42 1-.56.4-.14.82-.2 1.24-.2.65 0 1.16.15 1.54.46.39.32.58.74.58 1.27 0 .37-.1.68-.28.95-.19.27-.44.47-.76.58Zm4.56 3.44c-.77 0-1.36-.29-1.77-.86-.41-.57-.61-1.4-.61-2.5 0-1.09.2-1.91.6-2.48.42-.57 1-.86 1.78-.86s1.37.29 1.78.86c.4.57.61 1.4.61 2.48 0 1.09-.2 1.92-.61 2.5-.41.57-1 .86-1.78.86Zm0-.94c.42 0 .72-.2.91-.58.2-.39.3-1 .3-1.84 0-.84-.1-1.45-.3-1.83a.96.96 0 0 0-.91-.57c-.43 0-.73.2-.92.57-.2.38-.3 1-.3 1.83 0 .84.1 1.45.3 1.84.19.39.5.58.92.58Zm8.8-3.8c.5 0 .89.16 1.14.46.26.3.38.78.38 1.41v2.79h-1.16v-2.74c0-.35-.06-.6-.17-.76-.12-.16-.31-.24-.57-.24-.31 0-.55.1-.72.32-.18.2-.27.5-.27.88v2.54h-1.16v-2.74c0-.35-.05-.6-.17-.76-.11-.16-.3-.24-.57-.24-.3 0-.54.1-.71.32-.18.2-.26.5-.26.88v2.54h-1.17v-4.55h1.14v.64c.13-.24.32-.43.56-.56.25-.12.52-.19.83-.19.69 0 1.14.29 1.37.86.14-.27.34-.48.6-.63.28-.15.57-.23.9-.23Zm4.37 4.73c-.4 0-.77-.05-1.11-.15-.34-.1-.62-.24-.86-.43l.33-.8c.48.35 1.03.53 1.66.53.26 0 .47-.05.6-.13.15-.09.22-.21.22-.38a.38.38 0 0 0-.15-.31c-.1-.07-.27-.14-.51-.2l-.75-.17c-.42-.1-.73-.25-.94-.46-.2-.2-.3-.48-.3-.82 0-.27.08-.52.23-.73.16-.22.38-.38.67-.5a2.96 2.96 0 0 1 2.7.39l-.32.79a2.4 2.4 0 0 0-1.41-.51c-.26 0-.46.05-.6.14a.44.44 0 0 0-.21.39c0 .12.04.22.13.3.1.09.24.15.43.19l.78.18c.45.1.78.25.99.47.2.2.31.49.31.84 0 .42-.17.75-.5 1-.35.25-.8.37-1.39.37ZM135.47 160.55v.92h-.92v1.29h-1.17v-1.29h-2.84v-.88l3.04-4.38h.97v4.34h.92Zm-3.82 0h1.73v-2.5l-1.73 2.5Zm6.86 2.29c-.78 0-1.37-.29-1.78-.86-.4-.57-.61-1.4-.61-2.5 0-1.09.2-1.91.61-2.48.41-.57 1-.86 1.78-.86.77 0 1.36.29 1.77.86.41.57.61 1.4.61 2.48 0 1.09-.2 1.92-.6 2.5-.42.57-1 .86-1.78.86Zm0-.94c.42 0 .73-.2.92-.58.19-.39.28-1 .28-1.84 0-.84-.1-1.45-.28-1.83a.96.96 0 0 0-.92-.57.96.96 0 0 0-.92.57c-.2.38-.29 1-.29 1.83 0 .84.1 1.45.29 1.84.19.39.5.58.92.58Zm8.78-3.8c.52 0 .9.16 1.16.46.25.3.38.78.38 1.41v2.79h-1.16v-2.74c0-.35-.06-.6-.18-.76-.12-.16-.3-.24-.57-.24-.3 0-.55.1-.72.32-.17.2-.26.5-.26.88v2.54h-1.16v-2.74c0-.35-.06-.6-.18-.76-.1-.16-.3-.24-.57-.24-.3 0-.54.1-.71.32-.17.2-.26.5-.26.88v2.54h-1.16v-4.55h1.13v.64c.14-.24.33-.43.57-.56.24-.12.52-.19.82-.19.7 0 1.15.29 1.37.86.14-.27.35-.48.61-.63.27-.15.57-.23.9-.23Zm4.38 4.73c-.4 0-.77-.05-1.1-.15a2.5 2.5 0 0 1-.87-.43l.33-.8c.48.35 1.04.53 1.66.53.27 0 .47-.05.61-.13.14-.1.2-.21.2-.38a.38.38 0 0 0-.13-.31c-.1-.08-.27-.14-.52-.2l-.74-.17c-.42-.1-.74-.25-.94-.46-.2-.2-.3-.48-.3-.82 0-.27.07-.52.23-.73.16-.22.38-.38.66-.5s.6-.18.98-.18a2.96 2.96 0 0 1 1.73.57l-.33.79a2.4 2.4 0 0 0-1.41-.51c-.25 0-.45.05-.6.14a.44.44 0 0 0-.2.39c0 .12.04.22.13.3.09.09.23.15.43.19l.77.18c.45.1.78.25 1 .47.2.2.3.49.3.84 0 .42-.16.75-.5 1-.34.25-.8.37-1.39.37Z" fill="#666"/><path fill-rule="evenodd" clip-rule="evenodd" d="m39.53 75.22 10.21 20.43 19.98-17.64 20.43-4.18 19.97-34.84 20.9 6.5L151 39l10.22-4.64V144.8H39.53v-69.6Z" fill="url(#a)"/><path fill-rule="evenodd" clip-rule="evenodd" d="M161.22 36.67a2.79 2.79 0 1 0-2.62-1.81l-7.82 3.56-19.76 6.43-20.7-6.44-.48-.15-.25.43-19.83 34.59L69.6 77.4l-.16.04-.13.1-19.37 17.12-9.85-19.72a.62.62 0 1 0-1.1.55L49.2 95.93l.36.72.6-.53 19.85-17.54 20.27-4.15.27-.06.14-.24 19.73-34.4 20.42 6.35.2.06.18-.06 19.97-6.5.03-.01.03-.02 8.04-3.65c.5.48 1.18.77 1.93.77Z" fill="#37D5D3"/><path fill-rule="evenodd" clip-rule="evenodd" d="m151.25 81.16-.3-.13-.27.16-19.87 12.02-20.67 3.67-19.86-4.15-.24-.05-.2.13-20.38 12.5-19.56 6.37-9.95-9.05a.62.62 0 1 0-.83.91l10.22 9.29.26.24.34-.11 19.97-6.5.07-.02.06-.04 20.23-12.41L110 98.12l.12.02.12-.02 20.9-3.72.1-.02.1-.06 19.7-11.9 7.4 3.36-.01.12a2.79 2.79 0 1 0 .33-1.33l-7.5-3.4Z" fill="#000" fill-opacity=".1"/><defs><linearGradient id="a" x1="39.53" y1="34.35" x2="39.53" y2="133.27" gradientUnits="userSpaceOnUse"><stop stop-color="#68ECEB" stop-opacity=".7"/><stop offset="1" stop-color="#37D5D3" stop-opacity=".1"/></linearGradient></defs></svg>