<svg width="25" height="24" viewBox="0 0 25 24" fill="none" xmlns="http://www.w3.org/2000/svg">
<rect x="0.185547" width="24" height="24" fill="white"/>
<path fill-rule="evenodd" clip-rule="evenodd" d="M20.199 5.4637L9.15982 17.1239L3.59532 10.9813C3.20731 10.553 2.57829 10.5531 2.19043 10.9813C1.80241 11.4095 1.80241 12.1039 2.19043 12.5321L8.43818 19.4289C8.65066 19.6656 8.90527 19.7726 9.15982 19.7723C9.41438 19.7726 9.66898 19.6656 9.86319 19.4512C9.86935 19.4444 21.6039 7.01443 21.6039 7.01443C21.9919 6.58621 21.9919 5.89202 21.6039 5.4637C21.2159 5.03554 20.5869 5.03554 20.199 5.4637Z" fill="#FC521F"/>
<mask id="mask0_4932_73153" style="mask-type:alpha" maskUnits="userSpaceOnUse" x="1" y="5" width="21" height="15">
<path fill-rule="evenodd" clip-rule="evenodd" d="M20.199 5.4637L9.15982 17.1239L3.59532 10.9813C3.20731 10.553 2.57829 10.5531 2.19043 10.9813C1.80241 11.4095 1.80241 12.1039 2.19043 12.5321L8.43818 19.4289C8.65066 19.6656 8.90527 19.7726 9.15982 19.7723C9.41438 19.7726 9.66898 19.6656 9.86319 19.4512C9.86935 19.4444 21.6039 7.01443 21.6039 7.01443C21.9919 6.58621 21.9919 5.89202 21.6039 5.4637C21.2159 5.03554 20.5869 5.03554 20.199 5.4637Z" fill="white"/>
</mask>
<g mask="url(#mask0_4932_73153)">
<rect x="1.89941" y="1.71484" width="20.5714" height="20.5714" fill="#66BF3C"/>
</g>
</svg>
