<svg xmlns="http://www.w3.org/2000/svg" width="40" height="40" fill="none" viewBox="0 0 40 40"><path fill="#AFEEED" fill-rule="evenodd" d="M36.6824 23.9557C36.52 27.6257 35.9574 31.5736 33.5931 34.5802C31.0788 37.7774 27.0694 39.2855 21.515 39.2855C17.0181 39.2855 13.762 36.8005 11.783 34.6476C10.7764 33.5525 10.0271 32.4684 9.52865 31.6601C9.27771 31.2532 9.08573 30.9086 8.95249 30.6574C8.88576 30.5315 8.83345 30.4285 8.79555 30.352L8.77783 30.3157L3.99489 23.1275C3.37253 22.1936 3.12256 21.0529 3.2805 19.9671C3.43783 18.8854 4.03899 17.7032 5.25146 16.9901C5.80879 16.6383 6.63735 16.3296 7.69764 16.4606C8.71709 16.5866 9.6434 17.085 10.4863 17.7356C10.8783 18.0364 11.2636 18.3605 11.6293 18.6807V5.00034C11.6292 4.42359 11.7454 3.85214 11.9711 3.32138C12.1972 2.78991 12.5283 2.30961 12.9446 1.90932C13.3609 1.50903 13.8538 1.19701 14.3937 0.992C14.9322 0.787512 15.5065 0.693698 16.0821 0.716147C18.7414 0.817014 20.1722 3.16001 20.1722 5.14261V8.95713C20.6615 8.80699 21.1744 8.74554 21.6865 8.77632L21.7103 8.77776L21.7342 8.77959C23.197 8.89212 24.3479 9.70838 25.0283 10.8077C25.1654 10.7379 25.3064 10.6754 25.4508 10.6206C25.99 10.4158 26.565 10.322 27.1413 10.3448C29.0248 10.4182 30.3303 11.653 30.9027 13.1005C30.943 13.0845 30.9836 13.0691 31.0245 13.0543C31.5745 12.8546 32.1595 12.7698 32.7436 12.8049L32.7675 12.8063L32.7913 12.8082C35.2377 12.9963 36.7722 15.1325 36.7722 17.2569C36.7722 17.7018 36.7749 18.1602 36.7777 18.6286C36.7878 20.3302 36.7988 22.1633 36.6824 23.9557Z" clip-rule="evenodd"/><path fill="#37D5D3" fill-rule="evenodd" d="M33.9127 17.1645C33.9114 17.138 33.9094 17.1116 33.9069 17.0855L33.9064 17.0803C33.8307 16.3072 33.2633 15.7101 32.5722 15.6569C32.3775 15.6452 32.1825 15.6735 31.9991 15.74C31.8158 15.8065 31.648 15.9099 31.5061 16.0438C31.395 16.1486 31.3016 16.2704 31.2293 16.4043C31.2093 16.4414 31.1909 16.4794 31.1742 16.5182C31.0971 16.6974 31.0575 16.8904 31.0579 17.0855V21.114C31.0579 21.8283 30.4293 22.4569 29.715 22.4569C29.3612 22.4496 29.0238 22.3058 28.7736 22.0555C28.5233 21.8052 28.3795 21.4679 28.3722 21.114V14.7712C28.3722 14.7231 28.3702 14.6755 28.3662 14.6283C28.3012 13.8631 27.7284 13.2266 27.0293 13.1997C26.837 13.192 26.645 13.2233 26.4651 13.2916C26.2851 13.36 26.1208 13.464 25.982 13.5974C25.8752 13.7001 25.7852 13.8187 25.715 13.9486C25.6941 13.9875 25.6749 14.0273 25.6575 14.0681C25.5822 14.2453 25.5435 14.4358 25.5436 14.6283V19.3426C25.5436 19.4322 25.5337 19.5204 25.515 19.6062C25.3846 20.2046 24.8255 20.6855 24.2007 20.6855C23.8469 20.6782 23.5096 20.5343 23.2593 20.2841C23.009 20.0338 22.8652 19.6965 22.8579 19.3426V13.1997C22.8579 13.1743 22.8573 13.1489 22.8562 13.1237C22.8552 13.1013 22.8538 13.079 22.8519 13.0569L22.8515 13.0518C22.7851 12.2909 22.2132 11.682 21.515 11.6283C21.3203 11.6166 21.1253 11.6449 20.942 11.7114C20.7586 11.778 20.5909 11.8813 20.449 12.0152C20.3379 12.12 20.2445 12.2418 20.1722 12.3758C20.1522 12.4128 20.1338 12.4508 20.1171 12.4897C20.04 12.6688 20.0004 12.8619 20.0007 13.0569V19.3426C20.0007 20.0569 19.3722 20.6855 18.6579 20.6855C18.3063 20.6714 17.9728 20.5254 17.724 20.2765C17.5304 20.0829 17.399 19.8381 17.3436 19.5734C17.3278 19.4979 17.3182 19.4207 17.315 19.3426V5.14261C17.315 5.09456 17.3131 5.04691 17.3093 4.99975C17.2472 4.23452 16.6982 3.59807 15.9722 3.57118C15.7798 3.56348 15.5879 3.59473 15.4079 3.66307C15.228 3.73141 15.0636 3.83541 14.9249 3.96884C14.7861 4.10227 14.6757 4.26237 14.6004 4.43953C14.5251 4.61668 14.4863 4.80724 14.4865 4.99975V24.3712C14.4865 25.0855 13.8579 25.714 13.1436 25.714C12.8916 25.7088 12.648 25.6344 12.4383 25.5016C12.3535 25.4479 12.2742 25.3847 12.2021 25.3126C11.9998 25.1103 11.867 24.851 11.8197 24.572C11.8085 24.506 11.8021 24.4389 11.8007 24.3712C11.8007 24.2755 11.8024 24.1799 11.8039 24.0847C11.8064 23.9356 11.8089 23.7876 11.8052 23.642C11.7972 23.3249 11.7598 23.0198 11.6293 22.7426C11.523 22.5032 11.3672 22.289 11.1722 22.114C10.9722 21.9355 10.774 21.7551 10.5758 21.5748C10.0026 21.0532 9.42941 20.5317 8.81306 20.0533L8.80292 20.0455C8.78319 20.0302 8.76342 20.0149 8.74361 19.9997C8.73543 19.9934 8.72729 19.9872 8.71917 19.981C7.48091 19.0336 6.94219 19.2865 6.74361 19.4283C6.00075 19.8283 5.91503 20.8569 6.37218 21.5426L11.315 28.9712V28.9997H11.2721L11.1722 29.0662C11.2189 29.0445 11.2665 29.0223 11.315 28.9997C11.315 28.9997 14.7722 36.4283 21.515 36.4283C31.6293 36.4283 33.515 30.9997 33.8293 23.7997C33.9405 22.1101 33.9305 20.4031 33.9207 18.7058C33.9178 18.2218 33.915 17.7387 33.915 17.2569C33.915 17.2259 33.9142 17.1951 33.9127 17.1645ZM36.6824 23.9557C36.52 27.6257 35.9574 31.5736 33.5931 34.5802C31.0788 37.7774 27.0694 39.2855 21.515 39.2855C17.0181 39.2855 13.762 36.8005 11.783 34.6476C10.7764 33.5525 10.0271 32.4684 9.52865 31.6601C9.27771 31.2532 9.08573 30.9086 8.95249 30.6574C8.88576 30.5315 8.83345 30.4285 8.79555 30.352L8.77783 30.3157L3.99489 23.1275C3.37253 22.1936 3.12256 21.0529 3.2805 19.9671C3.43783 18.8854 4.03899 17.7032 5.25146 16.9901C5.80879 16.6383 6.63735 16.3296 7.69764 16.4606C8.71709 16.5866 9.6434 17.085 10.4863 17.7356C10.8783 18.0364 11.2636 18.3605 11.6293 18.6807V5.00034C11.6292 4.42359 11.7454 3.85214 11.9711 3.32138C12.1972 2.78991 12.5283 2.30961 12.9446 1.90932C13.3609 1.50903 13.8538 1.19701 14.3937 0.992C14.9322 0.787512 15.5065 0.693698 16.0821 0.716147C18.7414 0.817014 20.1722 3.16001 20.1722 5.14261V8.95713C20.6615 8.80699 21.1744 8.74554 21.6865 8.77632L21.7103 8.77776L21.7342 8.77959C23.197 8.89212 24.3479 9.70838 25.0283 10.8077C25.1654 10.7379 25.3064 10.6754 25.4508 10.6206C25.99 10.4158 26.565 10.322 27.1413 10.3448C29.0248 10.4182 30.3303 11.653 30.9027 13.1005C30.943 13.0845 30.9836 13.0691 31.0245 13.0543C31.5745 12.8546 32.1595 12.7698 32.7436 12.8049L32.7675 12.8063L32.7913 12.8082C35.2377 12.9963 36.7722 15.1325 36.7722 17.2569C36.7722 17.7018 36.7749 18.1602 36.7777 18.6286C36.7878 20.3302 36.7988 22.1633 36.6824 23.9557Z" clip-rule="evenodd"/></svg>