<svg xmlns="http://www.w3.org/2000/svg" width="32" height="32" fill="none" viewBox="0 0 32 32"><circle cx="16" cy="16" r="16" fill="#66BF3C"/><path fill="#fff" stroke="#fff" stroke-width="2" d="M21.8571 13.2849V14.2849H22.8571C25.1452 14.2849 27 16.1397 27 18.4277C27 20.7158 25.1452 22.5706 22.8571 22.5706H16C15.8877 22.5706 15.7767 22.5661 15.667 22.5575L15.591 22.5514L15.5149 22.557C15.3922 22.566 15.2682 22.5706 15.1429 22.5706H10C7.23858 22.5706 5 20.332 5 17.5706C5 14.9928 6.95153 12.8695 9.45713 12.5996L10.1497 12.525L10.3198 11.8495C10.9596 9.3081 13.2615 7.42773 16 7.42773C19.2348 7.42773 21.8571 10.0501 21.8571 13.2849Z"/></svg>