<svg width="132" height="24" viewBox="0 0 132 24" fill="none" xmlns="http://www.w3.org/2000/svg"><path d="M2.734 18.97A2.745 2.745 0 0 1 .342 17.58a2.654 2.654 0 0 1 .075-2.731l4.926-7.735a2.746 2.746 0 0 1 2.43-1.32 2.741 2.741 0 0 1 2.354 1.45 2.65 2.65 0 0 1-.148 2.727l-4.922 7.735a2.746 2.746 0 0 1-2.323 1.262Z" fill="#DAD7ED"/><path d="M11.18 18.969a2.736 2.736 0 0 1-2.388-1.385 2.645 2.645 0 0 1 .076-2.724l4.915-7.717a2.741 2.741 0 0 1 2.434-1.35 2.738 2.738 0 0 1 2.368 1.46c.456.876.39 1.927-.177 2.74l-4.915 7.716a2.742 2.742 0 0 1-2.313 1.26Z" fill="#DAD7ED"/><path d="M19.442 19.034c1.4 0 2.536-1.111 2.536-2.482 0-1.371-1.135-2.483-2.536-2.483-1.4 0-2.535 1.112-2.535 2.483 0 1.37 1.135 2.482 2.535 2.482Z" fill="#DAD7ED"/><path d="M129.595 14.213c.766 0 1.224.545 1.224 1.437v3.058h1.041V15.58c0-1.517-.715-2.396-2.059-2.396-.526 0-1.361.144-1.859 1.11a1.696 1.696 0 0 0-1.395-1.053 2.396 2.396 0 0 0-.584-.034c-.428.034-1.19.3-1.474.903v-.81h-1.042v5.408h1.042v-2.919c0-1.135.743-1.576 1.487-1.576.697 0 1.155.534 1.155 1.426v3.069h1.035v-2.919c0-.904.542-1.586 1.429-1.576Zm-9.97 3.591c.476.01.935-.18 1.268-.524.334-.344.511-.813.493-1.294 0-1.09-.801-1.773-1.761-1.773-.961 0-1.761.684-1.761 1.773-.019.48.158.948.49 1.291.332.344.789.535 1.263.527h.008Zm0 1.014c-1.521 0-2.791-1.123-2.791-2.838 0-1.714 1.27-2.803 2.791-2.803s2.802 1.089 2.802 2.803c0 1.715-1.288 2.843-2.809 2.843l.007-.005Zm-8.149-2.838-.011.006c0-1.714 1.303-2.803 2.835-2.809a2.752 2.752 0 0 1 2.059.868l-.789.672a1.772 1.772 0 0 0-1.27-.509c-.96 0-1.794.684-1.794 1.772 0 .736.437 1.398 1.108 1.68a1.778 1.778 0 0 0 1.956-.394l.8.672a2.758 2.758 0 0 1-2.07.88c-1.52 0-2.824-1.123-2.824-2.838Zm-3.332 1.69a.724.724 0 0 1 .205-.512.718.718 0 0 1 .507-.217.718.718 0 0 1 .711.728.72.72 0 0 1-.711.684.72.72 0 0 1-.712-.684Z" fill="#DAD7ED"/><path fill-rule="evenodd" clip-rule="evenodd" d="M110.989 6.424h-3.706l-2.597 6.696-2.583-6.696h-3.706l4.505 10.58L100.1 24h3.678l7.211-17.576Zm-22.535 5.885c0 1.69 1.478 2.803 2.93 2.803 1.426 0 2.827-1.036 2.827-2.804 0-1.769-1.401-2.805-2.828-2.805-1.451 0-2.929 1.114-2.929 2.806Zm5.757 5.908v-1.339c-.751 1.138-2.504 1.568-3.404 1.568-2.978 0-5.957-2.348-5.957-6.138 0-3.789 2.978-6.137 5.957-6.137.75 0 2.504.25 3.404 1.565V6.428h3.454v11.791l-3.454-.002Zm-10.344 0h-3.454v-1.465c-.577 1.085-1.976 1.718-3.428 1.718-3.005 0-5.658-2.4-5.658-6.114 0-3.785 2.653-6.187 5.657-6.187 1.45 0 2.854.605 3.43 1.692V0h3.453v18.217Zm-3.529-5.935c0-1.768-1.276-2.804-2.702-2.804-1.478 0-2.705 1.111-2.705 2.804 0 1.746 1.227 2.853 2.704 2.853 1.453.002 2.703-1.16 2.703-2.853Zm-17.55-.305c0-1.793.926-2.399 2.152-2.399 1.176 0 2.027.783 2.027 2.348v6.289h3.48v-7.046c0-3.358-1.654-5-4.282-5-1.376 0-2.753.783-3.379 1.97V6.424H59.31v11.791h3.478v-6.238Zm-10.543 6.44c-3.303 0-6.06-2.424-6.06-6.136 0-3.715 2.753-6.115 6.06-6.115 3.307 0 6.084 2.4 6.084 6.115 0 3.714-2.78 6.136-6.084 6.136Zm0-3.433c1.45 0 2.654-1.062 2.654-2.702 0-1.592-1.202-2.678-2.654-2.678a2.576 2.576 0 0 0-1.88.773 2.621 2.621 0 0 0-.748 1.905c0 1.642 1.202 2.702 2.628 2.702ZM39.95 9.58c1.026 0 1.927.809 1.927 2.348v6.29h3.454V11.52c0-3.56-1.73-5.353-4.505-5.353-.825 0-2.377.25-3.504 2.095-.651-1.364-1.903-2.071-3.752-2.071a3.342 3.342 0 0 0-3.053 1.945V6.425h-3.48v11.791h3.477v-6.239c0-1.793.977-2.399 2.028-2.399 1.001 0 1.9.783 1.927 2.273v6.365h3.479v-6.239c0-1.714.901-2.398 2.002-2.398Z" fill="#DAD7ED"/></svg>