<svg width="100" height="100" viewBox="0 0 100 100" fill="none" xmlns="http://www.w3.org/2000/svg"><g clip-path="url(#a)"><path d="M96.462 10.796 75.857.876a6.23 6.23 0 0 0-7.107 1.207L1.3 63.583a4.167 4.167 0 0 0 .004 6.162l5.51 5.01a4.167 4.167 0 0 0 5.321.236L93.361 13.37c2.725-2.067 6.639-.124 6.639 3.297v-.24a6.25 6.25 0 0 0-3.538-5.63Z" fill="#B4B1C5"/><path d="m96.462 89.204-20.605 9.92a6.23 6.23 0 0 1-7.107-1.207L1.3 36.417a4.167 4.167 0 0 1 .004-6.162l5.51-5.009a4.167 4.167 0 0 1 5.321-.236l81.227 61.62c2.725 2.068 6.639.124 6.639-3.296v.239a6.25 6.25 0 0 1-3.538 5.631Z" fill="#CAC7DA"/><path d="M75.858 99.126a6.232 6.232 0 0 1-7.108-1.21c2.306 2.307 6.25.674 6.25-2.588V4.672c0-3.262-3.944-4.895-6.25-2.589a6.232 6.232 0 0 1 7.108-1.21l20.6 9.908A6.25 6.25 0 0 1 100 16.413v67.174a6.25 6.25 0 0 1-3.541 5.633l-20.601 9.906Z" fill="#DAD7ED"/></g><defs><clipPath id="a"><path fill="#fff" d="M0 0h100v100H0z"/></clipPath></defs></svg>