<svg xmlns="http://www.w3.org/2000/svg" width="48" height="31" fill="none" viewBox="0 0 48 31"><path fill="#DAD7ED" fill-rule="evenodd" d="M0.972656 0.00146484H47.4089V30.959H0.972656V0.00146484ZM22.6035 5.032L23.5839 5.74789L23.2098 6.91525L24.1901 6.19291L25.1704 6.91525L24.7964 5.74789L25.7767 5.032H24.5642L24.1901 3.87109L23.816 5.032H22.6035ZM25.1704 27.0892L24.7964 25.9283L25.7767 25.2124H24.5642L24.1901 24.0451L23.816 25.2124H22.6035L23.5839 25.9283L23.2098 27.0892L24.1901 26.3733L25.1704 27.0892ZM13.1873 16.9764L14.1676 16.2541V16.2799L15.1479 17.0022L14.7739 15.8413L15.7606 15.119H14.5417L14.1676 13.9581L13.7936 15.119H12.5811L13.5614 15.8155L13.1873 16.9764ZM20.1592 8.25674L19.7851 7.09583L20.7654 6.38639H19.5529L19.1789 5.22548L18.8048 6.38639H17.5923L18.5726 7.10228L18.1985 8.26319L19.1789 7.5473L20.1592 8.25674ZM15.5349 8.91458L15.1608 10.0755H13.9096L14.89 10.7978L14.5159 11.9587L15.5027 11.2364L16.4894 11.9587L16.1154 10.7978L17.0957 10.0755H15.9154L15.5349 8.91458ZM15.1608 20.1625H13.9225H13.9096L14.89 20.8848L14.5159 22.0457L15.5027 21.3298L16.4894 22.0457L16.1154 20.8848L17.0957 20.1625H15.9154L15.5349 19.0016L15.1608 20.1625ZM17.5923 23.8645L18.5726 24.5739L18.1985 25.7348L19.1789 25.0189L20.1592 25.7348L19.7851 24.5739L20.7654 23.8645H19.5529L19.1789 22.7036L18.8048 23.8645H17.5923ZM35.1929 17.0022L34.8189 15.8413L35.7992 15.119H34.6125L34.2384 13.9581L33.8643 15.119H32.6067L33.5935 15.8413L33.2194 17.0022L34.2126 16.2799L35.1929 17.0022ZM27.6148 6.38639L28.5951 7.09583V7.10228L28.221 8.26319L29.2014 7.5473L30.1817 8.25674L29.8076 7.09583L30.7879 6.38639H29.5754L29.2014 5.22548L28.8273 6.38639H27.6148ZM32.8453 8.90814L32.4648 10.069L31.2845 10.0755L32.2584 10.7978L31.8843 11.9587L32.8711 11.2364L33.8514 11.9587L33.4774 10.7978L34.4319 10.069H33.2194L32.8453 8.90814ZM34.4319 20.1625H33.2516L32.8776 19.0016L32.497 20.1625H31.2845L32.2584 20.8848L31.8843 22.0457L32.8711 21.3298L33.8514 22.0457L33.4774 20.8848L34.4319 20.1625ZM29.8076 24.5739L30.7879 23.8645H29.5754L29.2014 22.7036L28.8273 23.8645H27.6148L28.5951 24.5739L28.221 25.7348L29.2014 25.0189L30.1817 25.7348L29.8076 24.5739Z" clip-rule="evenodd"/></svg>