<svg xmlns="http://www.w3.org/2000/svg" width="92" height="26"><g fill="#DAD7ED" fill-rule="evenodd"><path d="M17.6749355 11.0885756H9.96347324c-.19898411 0-.36026061.1620525-.36026061.3622502v3.7883947c0 .1996856.1612765.3625062.36026061.3625062h3.00820156v4.7066925s-.675425.2314305-2.5429711.2314305c-2.20309296 0-5.28084974-.8087267-5.28084974-7.6093022 0-6.8018556 3.20489259-7.69685681 6.21360364-7.69685681 2.6046281 0 3.7264297.46055697 4.4405814.68277123.2244622.06886594.4318541-.15539638.4318541-.35559401l.8601413-3.66013508c0-.09369864-.0315928-.20659782-.1375818-.28288797C16.6665116 1.40996701 14.8975658.415379 10.4287037.415379 5.28084974.415379 0 2.61601697 0 13.1957709c0 10.579754 6.04595765 12.1562464 11.1408171 12.1562464 4.2184122 0 6.7774345-1.811251 6.7774345-1.811251.1054794-.0586257.1169445-.2065979.1169445-.2744398V11.4508258c0-.2001977-.1612765-.3622502-.3602606-.3622502M57.4167248 1.68287069c0-.20147767-.1589835-.36404225-.3582224-.36404225h-4.341981c-.1982198 0-.3594963.16256458-.3594963.36404225 0 .00102403.0012739 8.43159745.0012739 8.43159745h-6.7682623V1.68287069c0-.20147767-.159493-.36404225-.3582224-.36404225h-4.3417262c-.1974555 0-.358732.16256458-.358732.36404225V24.5130816c0 .2014777.1612765.3653223.358732.3653223h4.3417262c.1987294 0 .3582224-.1638446.3582224-.3653223v-9.765139h6.7682623s-.0119747 9.764371-.0119747 9.765139c0 .2014777.1610217.3653223.359751.3653223h4.3521723c.1989841 0 .3579676-.1638446.3584772-.3653223V1.68287069M25.8684438 4.67892307c0-1.57111625-1.2532686-2.840656-2.7997905-2.840656-1.5449931 0-2.7995357 1.26953975-2.7995357 2.840656 0 1.56932419 1.2545426 2.84219204 2.7995357 2.84219204 1.5465219 0 2.7997905-1.27286785 2.7997905-2.84219204M25.5581203 19.69733V9.15879323c0-.20019764-.1607669-.36378624-.3592414-.36378624h-4.3284777c-.1984745 0-.376057.20582979-.376057.40602743V24.2993156c0 .4436605.2751637.5757602.631093.5757602h3.8996809c.4280324 0 .5330022-.2112059.5330022-.5829284V19.69733M73.9181381 8.82956796h-4.3086047c-.1974554 0-.3584771.16358861-.3584771.36481027V20.3888055s-1.0947948.8046306-2.6484505.8046306c-1.5534009 0-1.9656369-.7083719-1.9656369-2.2367349V9.19437823c0-.20122166-.1605121-.36481027-.3584771-.36481027h-4.3730644c-.1972006 0-.3589867.16358861-.3589867.36481027V19.695794c0 4.5402878 2.5182573 5.6511031 5.9825172 5.6511031 2.8423389 0 5.133841-1.5777724 5.133841-1.5777724s.1090463.8315114.1584739.9300742c.0491727.0983067.1778372.1976375.3169478.1976375l2.7819558-.0125443c.1972006 0 .3589867-.1638446.3589867-.3642983l-.0015287-15.32561557c0-.20122166-.1607669-.36481027-.3594963-.36481027M83.9952438 21.1796118c-1.4945465-.0455693-2.5083208-.7270605-2.5083208-.7270605v-7.2298996s1.0000161-.6159534 2.2270423-.7260365c1.5516175-.1395239 3.0466735.3312734 3.0466735 4.0505461 0 3.9217744-.6746606 4.6959402-2.765395 4.6324505zm1.6993905-12.86308229c-2.4471733 0-4.1116588 1.0972469-4.1116588 1.0972469V1.68287069c0-.20147767-.1605122-.36404225-.3582224-.36404225h-4.3544653c-.197965 0-.3587319.16256458-.3587319.36404225V24.5130816c0 .2014777.1607669.3653223.3592414.3653223h3.0211954c.1360532 0 .2389848-.070402.3151643-.1937974.0751605-.1226275.1834425-1.0527017.1834425-1.0527017s1.780411 1.6952798 5.1509113 1.6952798c3.9572615 0 6.2265975-2.0168248 6.2265975-9.053695 0-7.03738219-3.6245172-7.95696009-6.073474-7.95696009zM38.0373031 8.79295893h-3.2571228s-.0048408-4.32268174-.0048408-4.32344976c0-.16384461-.0840778-.24551091-.2723611-.24551091H30.06469c-.1727416 0-.2652272.07629015-.2652272.24295084v4.46783782s-2.2242398.5396632-2.3748154.58318443c-.1495566.04352122-.2598769.18227713-.2598769.34791379v2.80763106c0 .2019897.1605122.3648103.3589867.3648103h2.2757056v6.7544942c0 5.0169733 3.5022223 5.5097872 5.8653178 5.5097872 1.0800175 0 2.3717581-.3484258 2.58501-.4275321.1289193-.0476173.2038249-.1820211.2038249-.3274332l.0038217-3.088471c0-.2014776-.1694294-.3645542-.3600058-.3645542-.1900667 0-.6754249.0775702-1.1753056.0775702-1.6000259 0-2.1419455-.7475411-2.1419455-1.7149923 0-.9666833-.0002548-6.4188688-.0002548-6.4188688h3.2573776c.1984745 0 .3592414-.1628206.3592414-.3648103V9.15674517c0-.20147767-.1607669-.36378624-.3592414-.36378624"/></g></svg>