<svg xmlns="http://www.w3.org/2000/svg" width="360" height="103" fill="none" viewBox="0 0 360 103"><g clip-path="url(#clip0_5354_72151)"><path fill="#DAD7ED" d="M310.9 68.1999C310.9 71.0999 312.3 73.3999 316.2 73.3999C320.8 73.3999 325.7 70.0999 326 62.5999C323.9 62.2999 321.6 61.9999 319.5 61.9999C314.9 61.9999 310.9 63.2999 310.9 68.1999Z"/><path fill="#DAD7ED" d="M123.6 58.8999C123.6 66.6999 127.2 72.6999 134.2 72.6999C140.9 72.6999 145.3 67.3999 145.3 58.6999C145.3 49.5999 140.4 45.4999 134.3 45.4999C127.7 45.4999 123.6 50.3999 123.6 58.8999Z"/><path fill="#DAD7ED" fill-rule="evenodd" d="M0 -0.200195H360V102.7H0V-0.200195ZM341.9 73.9999C342.5 73.9999 343.1 73.8999 343.8 73.6999L344.1 80.5999C341.7 81.8999 338.8 82.6999 336 82.6999C330 82.6999 326.7 79.1999 326.1 73.6999C323.5 78.2999 318.9 82.6999 311.6 82.6999C305.1 82.6999 297.7 79.1999 297.7 69.7999C297.7 58.6999 308.4 56.0999 318.7 56.0999C321.2 56.0999 323.8 56.1999 326.1 56.4999V54.9999C326.1 50.3999 326 44.8999 318.7 44.8999C316 44.8999 313.9 45.0999 311.8 46.1999L310.3 51.2999L300 50.1999L301.6 39.7999C309.5 36.5999 313.5 35.6999 320.9 35.6999C330.6 35.6999 338.8 40.6999 338.8 50.9999V70.4999C338.8 73.0999 339.8 73.9999 341.9 73.9999ZM279.4 81.5999L298.9 12.8999H286.2L266.7 81.5999H279.4ZM253.2 81.5999L272.7 12.8999H260L240.5 81.5999H253.2ZM232.2 36.5999H218.7V52.7999H232.2V36.5999ZM232.2 65.4999H218.7V81.6999H232.2V65.4999ZM209.2 65.8999L199 64.8999L196.9 71.8999H182.3L207.3 43.3999L206.3 36.5999H166.8L165.2 52.3999L174.5 53.3999L176.5 46.3999H190.6L165.8 74.8999L167.1 81.6999H206.4L209.2 65.8999ZM110.3 59.7999C110.3 46.5999 118.3 35.6999 134.5 35.6999C150.7 35.6999 158.6 46.5999 158.6 59.1999C158.6 73.5999 148.2 82.6999 133.8 82.6999C119.9 82.6999 110.3 74.1999 110.3 59.7999ZM104.7 71.7999H98.9004V51.2999C98.9004 40.5999 91.5004 35.6999 83.4004 35.6999C76.3004 35.6999 71.2004 39.3999 68.7004 45.3999C66.5004 38.7999 60.5004 35.6999 54.0004 35.6999C47.7004 35.6999 43.0004 38.5999 40.3004 43.3999V36.5999H21.4004V46.3999H27.4004V71.8999H21.4004V81.6999H48.8004V71.8999H40.2004V56.1999C40.2004 49.8999 42.7004 45.4999 48.9004 45.4999C54.0004 45.4999 56.6004 48.4999 56.6004 56.2999V81.6999H75.5004V71.8999H69.5004V56.1999C69.5004 49.8999 72.0004 45.4999 78.2004 45.4999C83.3004 45.4999 85.9004 48.4999 85.9004 56.2999V81.5999H104.7V71.7999Z" clip-rule="evenodd"/></g><defs><clipPath id="clip0_5354_72151"><rect width="360" height="102.8" fill="#DAD7ED"/></clipPath></defs></svg>