<svg width="642px" height="402px" xmlns="http://www.w3.org/2000/svg" xmlns:xlink="http://www.w3.org/1999/xlink"><defs><path d="M3.00450038 9.16227738c-.82241935-.82241935-1.27533723-1.91588475-1.27533723-3.07893065 0-1.16304591.45291788-2.25651131 1.27533723-3.07887337.82241935-.82241935 1.91582745-1.27530858 3.07887336-1.27530858 1.16307456 0 2.25648266.45288923 3.07890201 1.27530858.82241935.82236206 1.27530855 1.91582746 1.27530855 3.07887337 0 1.1630459-.4528892 2.2565113-1.27530855 3.07893065C8.3398564 9.98463944 7.2464483 10.437586 6.08337374 10.437586c-1.16304591 0-2.25645401-.45294656-3.07887336-1.27530862zM13.2488778 12.4386059L10.356345 9.54604443c.7671331-.94545283 1.2270692-2.15029288 1.2270692-3.4626977 0-3.03759485-2.46247426-5.50001177-5.50004046-5.50001177-3.03756619 0-5.5000404 2.46241692-5.5000404 5.50001177 0 3.03762348 2.46247421 5.50006907 5.5000404 5.50006907 1.31243348 0 2.51724488-.4599648 3.46272635-1.2270978l2.89250411 2.8925328c.223752.2237232.5865217.2236946.8102449 0 .2237233-.2237519.2237806-.5865217.0000287-.8102449zM6.65674698 8.26042338c-.00002864.31639225-.25657994.5729149-.5729149.5729149-.31639226 0-.57291491-.25646535-.57285762-.57285761l-.00002865-1.60441956-1.60473465.00002865c-.31639226 0-.57285762-.25646536-.57285762-.57285762 0-.31644955.256494-.57291491.57291491-.57294355l1.60467736-.00002865-.00002864-1.60413309c0-.31639226.256494-.57288627.57288626-.57285762.3164209-.00002865.57288626.25643671.57294355.57288626v1.60410445l1.60367477.00002865c.3164209.00002864.57291491.25655129.57291491.57288626 0 .3164209-.25643672.57291491-.57282897.57285762l-1.60376071.00002864v1.60436227z" id="a"/><path d="M10.3563552 9.54605214c.7671354-.94545569 1.2270728-2.15029939 1.2270728-3.46270819 0-3.03760404-2.46248164-5.50002842-5.50005703-5.50002842-3.0375754 0-5.50005707 2.46242438-5.50005707 5.50002842 0 3.03763269 2.46248167 5.50008575 5.50005707 5.50008575 1.31243744 0 2.5172525-.4599662 3.46273683-1.2271016l2.8925129 2.8925416c.2237526.2237239.5865234.2236953.8102474 0 .2237239-.2237526.2237812-.5865234.0000286-.8102474l-2.8925415-2.89257016zM1.72914719 6.08334395c0-1.16304943.45291925-2.25651814 1.27534109-3.07888269.82242184-.82242184 1.91583326-1.27531244 3.07888269-1.27531244 1.16307808 0 2.25648949.4528906 3.07891133 1.27531244.82242184.82236455 1.2753124 1.91583326 1.2753124 3.07888269 0 1.16304943-.45289056 2.25651814-1.2753124 3.07893998-.82242184.82236455-1.91583325 1.27531247-3.07891133 1.27531247-1.16304943 0-2.25646085-.45294792-3.07888269-1.27531247-.82242184-.82242184-1.27534109-1.91589055-1.27534109-3.07893998zm2.1770546.57274477c-.31639322 0-.57285935-.25646614-.57285935-.57285935 0-.31645051.25649478-.57291665.57291664-.57294529h4.35416649c.31642186.00002864.57291664.25655207.57291664.57288799 0 .31642187-.25643749.57291665-.57283071.57285936l-4.35430971.00005729z" id="c"/><path d="M2.02214879 7.66026642c.21591912.55659961.54746111 1.06720584.98229677 1.5020415.82243097.82237368 1.91585452 1.27532658 3.07891685 1.27532658 1.16309099 0 2.25651454-.4529529 3.0789455-1.27532658.82243097-.82243097 1.27532659-1.9159118 1.27532659-3.07897414 0-1.16306234-.45289562-2.25654318-1.27532659-3.07891685-.82243096-.82243097-1.91585451-1.2753266-3.0789455-1.2753266-1.16306233 0-2.25648588.45289563-3.07891685 1.2753266-.14812314.14811282-.28426042.30501967-.4079245.46954321.00227974.01869964.00442805.03807224.00644322.05814778l.64120404.0007716c.34199008.00041154.61951478.27802371.61986057.61994803.00047724.34201205-.27642397.61891326-.61841415.61841415l-2.02054791-.00238768c-.17605204-.00025564-.33461386-.07419904-.44747546-.19226456-.11786842-.11279568-.19165844-.27124786-.19187003-.44708093l-.0024409-1.99200141c-.0004334-.34196822.27651164-.61882559.61845788-.61845788.34196821.0004334.61953665.27800184.61994814.61994814l.00051312.42640396c.00554586.0067827.01107199.01340791.01657807.01988084C2.84758011 1.36260264 4.37446256.58324432 6.08336241.58324432c3.03760911 0 5.50011809 2.46245171 5.50011809 5.50008946 0 1.31242336-.4599426 2.51728043-1.2270865 3.46274661l2.8925737 2.89260231c.2237551.2237264.2236978.5865013-.0000287.8102563-.2237264.2236978-.5865012.2237265-.8102563 0l-2.89254502-2.8925736c-.94549483.7671439-2.15032325 1.2271151-3.46277527 1.2271151-2.3706729 0-4.39105968-1.4998653-5.1639686-3.60245883-.00042666-.00116066-.00009283-.00252895.0010015-.00410488-.02082857-.05943553-.032154-.12333852-.032154-.1898867 0-.31699832.25697792-.57397623.57397624-.57397623.27344019 0 .50222131.19120822.55993124.44721256z" id="e"/><path d="M8.59090909 5.40909091h3.18181821V2.22727273H8.59090909v3.18181818zm3.70544711-4.23671987c-.0261105-.00336096-.0525293-.00570437-.0795647-.00570437H8.14684485c-.02703536 0-.05345418.00234341-.07956472.00570437-.30281452.03909807-.5369771.29739817-.5369771.61098442v4.06965271c0 .34062806.2760566.6166888.61654182.6166888h4.06994665c.2128303 0 .4004439-.10785887.5112365-.27189809.0015413-.00228175.0028053-.0047485.0043158-.00706109.0094331-.01424551.0184962-.02870686.0265729-.04375407.0007091-.00126421.0012331-.00265176.0019113-.00391597.0461482-.08649061.0725053-.18512998.0725053-.28999791V1.78335546c0-.31358625-.2341625-.57188635-.5369771-.61098442zM8.59090909 11.7727273h3.18181821V8.59090909H8.59090909v3.18181821zm3.70544711-4.23672109c-.0261105-.00332942-.0525293-.00570318-.0795647-.00570318H8.14684485c-.02703536 0-.05345418.00237376-.07956472.00570318-.30281452.03912071-.5369771.29736676-.5369771.61085656v4.06991083c0 .3405568.2760566.6165597.61654182.6165597h4.06994665c.2128303 0 .4004439-.1078363.5112365-.2718412.0015413-.0023121.0028053-.0047783.0043158-.0070904.0094331-.0142425.0184962-.0287008.0265729-.0437449.0007091-.001264.0012331-.0026512.0019113-.0039152.0461482-.0864416.0725053-.1850912.0725053-.2899063V8.14686277c0-.3134898-.2341625-.57173585-.5369771-.61085656zM2.22727273 5.40909091h3.18181818V2.22727273H2.22727273v3.18181818zm3.70533475-4.23671987c-.02608518-.00336096-.05254036-.00570437-.07958138-.00570437H1.78333754c-.02704102 0-.05346537.00234341-.07958138.00570437-.3028779.03909807-.53708949.29739817-.53708949.61098442v4.06965271c0 .34062806.27611438.6166888.61667087.6166888H5.8530261c.21290562 0 .40052773-.10785887.51134349-.27189809.00157251-.00228175.00283668-.0047485.00434752-.00706109.00943507-.01424551.0184693-.02870686.02654769-.04375407.00074-.00126421.00123334-.00265176.00194251-.00391597.04615781-.08649061.07248966-.18512998.07248966-.28999791V1.78335546c0-.31358625-.23418076-.57188635-.53708949-.61098442zM2.22727273 11.7727273h3.18181818V8.59090909H2.22727273v3.18181821zm3.70533475-4.23672109c-.02608518-.00332942-.05254036-.00570318-.07958138-.00570318H1.78333754c-.02704102 0-.05346537.00237376-.07958138.00570318-.3028779.03912071-.53708949.29736676-.53708949.61085656v4.06991083c0 .3405568.27611438.6165597.61667087.6165597H5.8530261c.21290562 0 .40052773-.1078363.51134349-.2718412.00157251-.0023121.00283668-.0047783.00434752-.0070904.00943507-.0142425.0184693-.0287008.02654769-.0437449.00074-.001264.00123334-.0026512.00194251-.0039152.04615781-.0864416.07248966-.1850912.07248966-.2899063V8.14686277c0-.3134898-.23418076-.57173585-.53708949-.61085656z" id="g"/><path d="M11.537037 11.537037H2.46296296v-.0162079l9.05786614-9.05786614h.0162079V11.537037zm.6886574-10.37037033H1.77430556c-.33559896 0-.60763889.27207031-.60763889.60763889V12.2256944c0 .3355686.27203993.6076389.60763889.6076389H12.2256944c.3356294 0 .6076389-.2720703.6076389-.6076389V1.77430556c0-.33556858-.2720095-.60763889-.6076389-.60763889z" id="i"/><path d="M2.38192489 11.6180815H6.7563465V7.24268883H2.38192489v4.37539267zm5.06046183-5.58502396c.29846593.03855386.52921193.2930276.52921193.60200537v5.59070529c0 .1032964-.02594564.2005165-.07142645.2857057-.00069877.0012456-.00118487.0026128-.00191402.0038584-.00792952.0148261-.01686162.0290749-.0261583.0431111-.00148869.0022786-.00273432.0047091-.00428377.0069877-.10916002.1616285-.29406063.2679022-.50384354.2679022H1.77429881c-.33556149 0-.60762607-.2720037-.60762607-.6076259V6.63506291c0-.30897777.23077638-.56345151.52921193-.60200537.02573296-.00328118.05176974-.00562054.07841414-.00562054h5.58967376c.02664441 0 .05271157.00233936.07841415.00562054zM10.402826 4.20652797v8.01917333c0 .3355615-.2720342.607626-.60762606.607626-.3355615 0-.60762608-.2720342-.60762608-.607626V4.81415388l-7.41328112.00003038c-.3355615 0-.60762607-.2720645-.60762607-.60762591s.27203419-.6076563.60762607-.6076563h8.0209072c.0266444 0 .05268118.00230898.07841414.00562054.29843552.03852349.52921192.2930276.52921192.60200538zm1.9012954-3.03424076c.2984356.03855386.5292119.29305797.5292119.60200537V12.2255191c-.0000303.335531-.2720645.6075651-.607626.6075651s-.6076565-.2720341-.6076565-.6076259l.0000304-4.61853419V2.38191849H6.39307422l-4.61853539.00003039c-.3355615 0-.60762607-.27203413-.60762607-.60762592 0-.33556141.27203419-.60765629.60762607-.60765629H12.2257073c.0266444 0 .0526811.00233936.0784141.00562054z" id="k"/></defs><g fill="none" fill-rule="evenodd"><path d="M.5 2.81651046C.5 1.48392756 1.97404655.5 3.72291345.5H638.277087C640.025045.5 641.5 1.48353256 641.5 2.81651046V399.18349c0 1.332582-1.474047 2.31651-3.222913 2.31651H3.72291345C1.97495456 401.5.5 400.516467.5 399.18349V2.81651046z" stroke-opacity="0.05" stroke="#000" fill="#FFF"/><path fill-opacity="0.05" fill="#000" d="M1 41h640.003906v1H1zM140.003906 9h1v24h-1z"/><text font-family="NunitoSans-Bold, Nunito Sans" font-size="12" font-weight="bold" fill="#1EA7FD" transform="translate(1 1)"><tspan x="15.0039062" y="24">Canvas</tspan></text><text font-family="NunitoSans-Bold, Nunito Sans" font-size="12" font-weight="bold" fill="#999" transform="translate(1 1)"><tspan x="91.0039062" y="24">Info</tspan></text><path fill="#0AF" d="M1.00390625 39h70v3h-70z"/><g transform="translate(156.007812 14)"><mask id="b" fill="#fff"><use xlink:href="#a"/></mask><use fill="#231F20" xlink:href="#a"/><g mask="url(#b)" fill="#999"><path d="M0 0h14v14H0z"/></g></g><g transform="translate(185.003906 14)"><mask id="d" fill="#fff"><use xlink:href="#c"/></mask><use fill="#231F20" xlink:href="#c"/><g mask="url(#d)" fill="#999"><path d="M0 0h14v14H0z"/></g></g><g transform="translate(214.003906 14)"><mask id="f" fill="#fff"><use xlink:href="#e"/></mask><use fill="#231F20" xlink:href="#e"/><g mask="url(#f)" fill="#999"><path d="M0 0h14v14H0z"/></g></g><g transform="translate(259.003906 14)"><mask id="h" fill="#fff"><use xlink:href="#g"/></mask><use fill="#000" xlink:href="#g"/><g mask="url(#h)" fill="#999"><path d="M0 0h14v14H0z"/></g></g><g transform="translate(288.003906 14)"><mask id="j" fill="#fff"><use xlink:href="#i"/></mask><use fill="#000" xlink:href="#i"/><g mask="url(#j)" fill="#999"><path d="M0 0h14v14H0z"/></g></g><g transform="translate(317.003906 14)"><mask id="l" fill="#fff"><use xlink:href="#k"/></mask><use fill="#999" xlink:href="#k"/><g mask="url(#l)" fill="#999"><path d="M0 0h14v14H0z"/></g></g><path fill-opacity="0.05" fill="#000" d="M243.007812 9h1v24h-1z"/></g></svg>