<svg xmlns="http://www.w3.org/2000/svg" width="192" height="140"><g fill="none" fill-rule="evenodd"><circle cx="96" cy="70" r="64" fill="#DDB7FF" fill-opacity=".3" stroke="#6F2CAC" stroke-opacity=".8"/><path fill="#6F2CAC" fill-rule="nonzero" d="M95.8191079 35c4.3669671 0 7.8887151 3.5079051 7.8887151 7.8577075s-3.521748 7.8577075-7.8887151 7.8577075c-4.3669674 0-7.8887153-3.5079051-7.8887153-7.8577075C87.9303926 38.6482213 91.4521405 35 95.8191079 35zM90 74.972332c.5634797-2.2450593.606921-7.2786561.7477909-10.0849802 0-.9822135-.5634796-1.8241107-1.4086991-2.1047431L72.012092 57.5909091c-2.2539187-.701581-3.521748-3.0869565-2.8173984-5.1916996s3.0991382-3.0869565 5.212187-2.5256917c0 0 15.8478656 5.0513834 21.4826623 5.0513834 5.6347971 0 21.9052721-5.1916996 21.9052721-5.1916996 2.113049-.5612648 4.507837.701581 5.071317 2.8063241.56348 2.1047431-.70435 4.4901186-2.817398 5.0513834l-17.327 5.1916996c-.84522.2806324-1.549569 1.1225296-1.408699 2.1047431.14087 2.8063241.154735 7.8399209.718215 10.0849802 1.320512 6.0504781 8.446712 21.9647929 9.333765 23.9336165.328376.8286396.492564 1.4780655.492564 1.9482775 0 2.26042-1.832432 4.092852-4.092852 4.092852-1.84906 0-3.108477-1.297466-3.919257-2.909761-.54052-1.074864-3.192496-6.495076-7.9559271-16.2606372l-7.9591503 16.9782612s-.0447945.074015-.1343836.222045c-.7178926 1.181137-2.0168272 1.970092-3.500032 1.970092-2.2604198 0-4.092852-1.832432-4.092852-4.092852 0-.704395.1779435-1.3672287.4913307-1.946002C81.5737902 96.9494221 88.6789781 81.0251475 90 74.972332z" opacity=".8"/></g></svg>