<svg xmlns="http://www.w3.org/2000/svg" width="192" height="140"><g fill="none" fill-rule="evenodd" transform="translate(0 16)"><rect width="154" height="14" x="38" y="5" fill="#6F2CAC" opacity=".3" rx="4"/><rect width="115" height="14" x="38" y="48" fill="#FF4785" rx="4"/><rect width="79" height="14" x="38" y="90" fill="#6F2CAC" opacity=".3" rx="4"/><rect width="53" height="14" x="125" y="90" fill="#6F2CAC" opacity=".3" rx="4"/><circle cx="12" cy="12" r="12" fill="#6F2CAC" opacity=".3"/><circle cx="12" cy="97" r="12" fill="#6F2CAC" opacity=".3"/><path fill="#FFF" d="M18.8300593 7.16370725c-.2265875-.21827633-.5939546-.21827633-.8205132 0l-7.7691883 7.48613215-3.24988216-3.1314786c-.22661656-.2183602-.59398369-.2183043-.82051322 0-.22661656.2183043-.22661656.572287 0 .7905913l3.64892687 3.5159849c.0036551.0037176.00687508.0077147.01064622.0113764.11345332.1092919.26215229.1638261.41082229.1636863.14867.0001398.2973689-.0543944.4107933-.1636863.0035971-.003466.006585-.0072395.010095-.0107614l8.1688132-7.87128133c.2265876-.21830429.2265876-.57220322 0-.79056342M18.8300593 92.1637073c-.2265875-.2182764-.5939546-.2182764-.8205132 0l-7.7691883 7.4861321-3.24988216-3.1314786c-.22661656-.2183602-.59398369-.2183043-.82051322 0-.22661656.2183043-.22661656.572287 0 .7905913l3.64892687 3.5159849c.0036551.003718.00687508.007715.01064622.011376.11345332.109292.26215229.163826.41082229.163687.14867.000139.2973689-.054395.4107933-.163687.0035971-.003466.006585-.007239.010095-.010761l8.1688132-7.8712813c.2265876-.2183043.2265876-.5722032 0-.7905634"/><circle cx="12" cy="54" r="12" fill="#FF4785"/><circle cx="12" cy="58" r="1" fill="#FFF"/><rect width="2" height="8" x="11" y="48" fill="#FFF" rx="1"/></g></svg>