<svg xmlns="http://www.w3.org/2000/svg" width="192" height="140"><g fill="#FF4785" fill-opacity=".8" fill-rule="evenodd" stroke="#FF4785" transform="translate(10 6)"><rect width="39" height="39" x=".5" y=".5" opacity=".9" rx="2"/><rect width="39" height="39" x=".5" y="44.5" opacity=".7" rx="2"/><rect width="39" height="39" x=".5" y="88.5" opacity=".5" rx="2"/><rect width="39" height="39" x="44.5" y=".5" opacity=".7" rx="2"/><rect width="39" height="39" x="44.5" y="44.5" opacity=".5" rx="2"/><rect width="39" height="39" x="44.5" y="88.5" opacity=".3" rx="2"/><rect width="39" height="39" x="88.5" y=".5" opacity=".5" rx="2"/><rect width="39" height="39" x="88.5" y="44.5" opacity=".3" rx="2"/><rect width="39" height="39" x="88.5" y="88.5" opacity=".2" rx="2"/><rect width="39" height="39" x="132.5" y=".5" opacity=".3" rx="2"/><rect width="39" height="39" x="132.5" y="44.5" opacity=".2" rx="2"/><rect width="39" height="39" x="132.5" y="88.5" opacity=".1" rx="2"/></g></svg>