<svg xmlns="http://www.w3.org/2000/svg" xmlns:xlink="http://www.w3.org/1999/xlink" width="192" height="140" version="1.1" viewBox="0 0 192 140"><title>addons/console</title><desc>Created with Sketch.</desc><g id="addons/console" fill="none" fill-rule="evenodd" stroke="none" stroke-width="1"><rect id="Rectangle-49" width="160" height="140" x="16" y="0" fill="#2E1A5A" rx="4"/><path id="Path" fill="#FFF" fill-rule="nonzero" d="M46.891189,44.5392574 C44.274496,42.1306312 44.2747092,38.1143317 46.8922328,35.7067913 C49.3664532,33.4307665 53.2824364,33.4311184 55.7561532,35.7075541 L84.9667328,62.586055 C86.2277169,63.7467717 86.9288972,65.3382715 86.9288972,67.0018078 C86.9288972,68.6653442 86.2277169,70.256844 84.9667328,71.4175607 L55.7601892,98.2925046 C53.2862407,100.568862 49.3707971,100.569214 46.8963069,98.2932323 C44.27848,95.8851045 44.2780535,91.8686343 46.8956315,89.4604272 L71.3024805,67.0018149 L46.891189,44.5392574 Z"/><path id="Rectangle-7-Copy-8" fill="#FFF" fill-opacity=".2" d="M98.6344865,88.5733273 L141.365531,88.5733273 C144.516641,88.5733273 147.07112,91.1312741 147.07112,94.2866615 C147.07112,97.4420488 144.516641,99.9999956 141.365531,99.9999956 L98.6344865,99.9999956 C95.4833766,99.9999956 92.9288972,97.4420488 92.9288972,94.2866615 C92.9288972,91.1312741 95.4833766,88.5733273 98.6344865,88.5733273 Z"/></g></svg>