<?xml version="1.0" encoding="UTF-8"?>
<svg width="192px" height="164px" viewBox="0 0 192 164" version="1.1" xmlns="http://www.w3.org/2000/svg" xmlns:xlink="http://www.w3.org/1999/xlink">
    <!-- Generator: Sketch 52.5 (67469) - http://www.bohemiancoding.com/sketch -->
    <title>addons/custom</title>
    <desc>Created with Sketch.</desc>
    <defs>
        <path d="M94.788786,50.2319511 C95.8524857,49.967067 96.7533131,49.7070167 97.2630329,49.4432754 C99.295456,48.3916506 100.553592,44.9079579 100.553592,41.9404779 C100.553592,38.0740556 98.0347792,35.3601531 95.2306098,32.9804228 C93.216353,31.2710439 92.6562498,28.089087 92.6562498,25.1606496 C92.6562498,17.8922235 98.5491842,12 105.818487,12 C113.08779,12 118.980725,17.8922235 118.980725,25.1606496 C118.980725,28.5215134 117.720777,31.588136 115.647399,33.9140523 C113.269196,35.781343 111.741494,38.682525 111.741494,41.9404779 C111.741494,44.9079579 112.810926,47.6336861 115.032053,49.0965811 C115.779639,49.5889616 117.505756,49.9338175 119.467005,50.2319511 L157.962903,50.2319511 C161.648244,50.2319511 164.635803,53.2206384 164.635803,56.9073711 L164.635803,137.012412 C164.635803,140.699144 161.648244,143.687832 157.962903,143.687832 L55.9166991,143.687832 C52.2313581,143.687832 49.2437989,140.699144 49.2437989,137.012412 L49.2437989,108.428438 C48.9731528,107.335262 48.7077333,106.406903 48.4384659,105.886369 C47.3869762,103.853685 43.903731,102.595387 40.9366321,102.595387 C37.0707065,102.595387 34.3571525,105.114524 31.9777279,107.919053 C30.2685686,109.933569 27.0870204,110.493744 24.1589592,110.493744 C16.8914667,110.493744 11,104.600053 11,97.3298158 C11,90.059579 16.8914667,84.1658875 24.1589592,84.1658875 C27.5193912,84.1658875 30.58562,85.4259975 32.9112375,87.4996412 C34.7782884,89.8781494 37.6790977,91.4060481 40.9366321,91.4060481 C43.903731,91.4060481 46.629109,90.3364789 48.0918161,88.115066 C48.5933861,87.3533318 48.9418538,85.5758095 49.2437989,83.5687051 L49.2437989,56.9073711 C49.2437989,53.2206384 52.2313581,50.2319511 55.9166991,50.2319511 L94.788786,50.2319511 Z" id="path-1"></path>
        <filter x="-16.3%" y="-15.2%" width="132.5%" height="138.0%" filterUnits="objectBoundingBox" id="filter-2">
            <feOffset dx="0" dy="5" in="SourceAlpha" result="shadowOffsetOuter1"></feOffset>
            <feGaussianBlur stdDeviation="7.5" in="shadowOffsetOuter1" result="shadowBlurOuter1"></feGaussianBlur>
            <feColorMatrix values="0 0 0 0 0   0 0 0 0 0   0 0 0 0 0  0 0 0 0.1 0" type="matrix" in="shadowBlurOuter1" result="shadowMatrixOuter1"></feColorMatrix>
            <feOffset dx="0" dy="2" in="SourceAlpha" result="shadowOffsetOuter2"></feOffset>
            <feGaussianBlur stdDeviation="2.5" in="shadowOffsetOuter2" result="shadowBlurOuter2"></feGaussianBlur>
            <feColorMatrix values="0 0 0 0 0   0 0 0 0 0   0 0 0 0 0  0 0 0 0.05 0" type="matrix" in="shadowBlurOuter2" result="shadowMatrixOuter2"></feColorMatrix>
            <feMerge>
                <feMergeNode in="shadowMatrixOuter1"></feMergeNode>
                <feMergeNode in="shadowMatrixOuter2"></feMergeNode>
            </feMerge>
        </filter>
    </defs>
    <g id="addons/custom" stroke="none" stroke-width="1" fill="none" fill-rule="evenodd">
        <g id="Path">
            <use fill="black" fill-opacity="1" filter="url(#filter-2)" xlink:href="#path-1"></use>
            <use fill="#2E1A5A" fill-rule="evenodd" xlink:href="#path-1"></use>
        </g>
        <g id="code" transform="translate(67.000000, 59.000000)">
            <path d="M4.47478072,0.195973643 L29.1395677,0.195973643 C31.3190854,0.195973643 33.0859336,1.9652202 33.0859336,4.14769643 C33.0859336,6.33017267 31.3190854,8.09941922 29.1395677,8.09941922 L4.47478072,8.09941922 C2.295263,8.09941922 0.528414798,6.33017267 0.528414798,4.14769643 C0.528414798,1.9652202 2.295263,0.195973643 4.47478072,0.195973643 Z M21.2468359,27.8580332 L61.6970865,27.8580332 C63.8766043,27.8580332 65.6434525,29.6272797 65.6434525,31.809756 C65.6434525,33.9922322 63.8766043,35.7614788 61.6970865,35.7614788 L21.2468359,35.7614788 C19.0673182,35.7614788 17.30047,33.9922322 17.30047,31.809756 C17.30047,29.6272797 19.0673182,27.8580332 21.2468359,27.8580332 Z M11.3809211,69.3511225 L29.1395677,69.3511225 C31.3190854,69.3511225 33.0859336,71.120369 33.0859336,73.3028453 C33.0859336,75.4853215 31.3190854,77.2545681 29.1395677,77.2545681 L11.3809211,77.2545681 C9.20140336,77.2545681 7.43455516,75.4853215 7.43455516,73.3028453 C7.43455516,71.120369 9.20140336,69.3511225 11.3809211,69.3511225 Z M11.3809211,14.0270034 L45.9116229,14.0270034 C48.0911406,14.0270034 49.8579888,15.79625 49.8579888,17.9787262 C49.8579888,20.1612024 48.0911406,21.930449 45.9116229,21.930449 L11.3809211,21.930449 C9.20140336,21.930449 7.43455516,20.1612024 7.43455516,17.9787262 C7.43455516,15.79625 9.20140336,14.0270034 11.3809211,14.0270034 Z M21.2468359,41.6890629 L78.4691417,41.6890629 C80.6486594,41.6890629 82.4155076,43.4583095 82.4155076,45.6407857 C82.4155076,47.823262 80.6486594,49.5925085 78.4691417,49.5925085 L21.2468359,49.5925085 C19.0673182,49.5925085 17.30047,47.823262 17.30047,45.6407857 C17.30047,43.4583095 19.0673182,41.6890629 21.2468359,41.6890629 Z M21.2468359,55.5200927 L35.0591166,55.5200927 C37.2386343,55.5200927 39.0054825,57.2893393 39.0054825,59.4718155 C39.0054825,61.6542917 37.2386343,63.4235383 35.0591166,63.4235383 L21.2468359,63.4235383 C19.0673182,63.4235383 17.30047,61.6542917 17.30047,59.4718155 C17.30047,57.2893393 19.0673182,55.5200927 21.2468359,55.5200927 Z M48.8713973,55.5200927 L57.7507206,55.5200927 C59.9302383,55.5200927 61.6970865,57.2893393 61.6970865,59.4718155 C61.6970865,61.6542917 59.9302383,63.4235383 57.7507206,63.4235383 L48.8713973,63.4235383 C46.6918796,63.4235383 44.9250314,61.6542917 44.9250314,59.4718155 C44.9250314,57.2893393 46.6918796,55.5200927 48.8713973,55.5200927 Z" id="Combined-Shape" fill="#FFFFFF"></path>
            <path d="M4.47478072,0.195973643 L29.1395677,0.195973643 C31.3190854,0.195973643 33.0859336,1.9652202 33.0859336,4.14769643 C33.0859336,6.33017267 31.3190854,8.09941922 29.1395677,8.09941922 L4.47478072,8.09941922 C2.295263,8.09941922 0.528414798,6.33017267 0.528414798,4.14769643 C0.528414798,1.9652202 2.295263,0.195973643 4.47478072,0.195973643 Z" id="Rectangle-7" fill="#FC521F" opacity="0.800000012"></path>
            <path d="M21.2468359,27.8580332 L61.6970865,27.8580332 C63.8766043,27.8580332 65.6434525,29.6272797 65.6434525,31.809756 C65.6434525,33.9922322 63.8766043,35.7614788 61.6970865,35.7614788 L21.2468359,35.7614788 C19.0673182,35.7614788 17.30047,33.9922322 17.30047,31.809756 C17.30047,29.6272797 19.0673182,27.8580332 21.2468359,27.8580332 Z" id="Rectangle-7-Copy-2" fill="#FFAE00" opacity="0.800000012"></path>
            <path d="M11.3809211,69.3511225 L29.1395677,69.3511225 C31.3190854,69.3511225 33.0859336,71.120369 33.0859336,73.3028453 C33.0859336,75.4853215 31.3190854,77.2545681 29.1395677,77.2545681 L11.3809211,77.2545681 C9.20140336,77.2545681 7.43455516,75.4853215 7.43455516,73.3028453 C7.43455516,71.120369 9.20140336,69.3511225 11.3809211,69.3511225 Z" id="Rectangle-7-Copy-3" fill="#1EA7FD" opacity="0.800000012"></path>
            <path d="M11.3809211,14.0270034 L45.9116229,14.0270034 C48.0911406,14.0270034 49.8579888,15.79625 49.8579888,17.9787262 C49.8579888,20.1612024 48.0911406,21.930449 45.9116229,21.930449 L11.3809211,21.930449 C9.20140336,21.930449 7.43455516,20.1612024 7.43455516,17.9787262 C7.43455516,15.79625 9.20140336,14.0270034 11.3809211,14.0270034 Z" id="Rectangle-7-Copy-4" fill="#1EA7FD" opacity="0.800000012"></path>
            <path d="M21.2468359,41.6890629 L78.4691417,41.6890629 C80.6486594,41.6890629 82.4155076,43.4583095 82.4155076,45.6407857 C82.4155076,47.823262 80.6486594,49.5925085 78.4691417,49.5925085 L21.2468359,49.5925085 C19.0673182,49.5925085 17.30047,47.823262 17.30047,45.6407857 C17.30047,43.4583095 19.0673182,41.6890629 21.2468359,41.6890629 Z" id="Rectangle-7-Copy-8" fill="#37D5D3" opacity="0.800000012"></path>
            <path d="M21.2468359,55.5200927 L35.0591166,55.5200927 C37.2386343,55.5200927 39.0054825,57.2893393 39.0054825,59.4718155 C39.0054825,61.6542917 37.2386343,63.4235383 35.0591166,63.4235383 L21.2468359,63.4235383 C19.0673182,63.4235383 17.30047,61.6542917 17.30047,59.4718155 C17.30047,57.2893393 19.0673182,55.5200927 21.2468359,55.5200927 Z" id="Rectangle-7-Copy-9" fill="#66BF3C" opacity="0.800000012"></path>
            <path d="M48.8713973,55.5200927 L57.7507206,55.5200927 C59.9302383,55.5200927 61.6970865,57.2893393 61.6970865,59.4718155 C61.6970865,61.6542917 59.9302383,63.4235383 57.7507206,63.4235383 L48.8713973,63.4235383 C46.6918796,63.4235383 44.9250314,61.6542917 44.9250314,59.4718155 C44.9250314,57.2893393 46.6918796,55.5200927 48.8713973,55.5200927 Z" id="Rectangle-7-Copy-10" fill="#FC521F" opacity="0.800000012"></path>
        </g>
    </g>
</svg>