<svg width="192px" height="140px" xmlns="http://www.w3.org/2000/svg" xmlns:xlink="http://www.w3.org/1999/xlink"><defs><path d="M94.788786 38.2319511c1.0636997-.2648841 1.9645271-.5249344 2.4742469-.7886757 2.0324231-1.0516248 3.2905591-4.5353175 3.2905591-7.5027975 0-3.8664223-2.5188128-6.5803248-5.3229822-8.9600551-2.0142568-1.7093789-2.57436-4.8913358-2.57436-7.8197732C92.6562498 5.89222354 98.5491842 0 105.818487 0c7.269303 0 13.162238 5.89222354 13.162238 13.1606496 0 3.3608638-1.259948 6.4274864-3.333326 8.7534027-2.378203 1.8672907-3.905905 4.7684727-3.905905 8.0264256 0 2.96748 1.069432 5.6932082 3.290559 7.1561032.747586.4923805 2.473703.8372364 4.434952 1.13537h38.495898c3.685341 0 6.6729 2.9886873 6.6729 6.67542v80.1050409c0 3.686732-2.987559 6.67542-6.6729 6.67542H55.9166991c-3.685341 0-6.6729002-2.988688-6.6729002-6.67542V96.4284379c-.2706461-1.093176-.5360656-2.0215352-.805333-2.5420687-1.0514897-2.0326842-4.5347349-3.2909821-7.5018338-3.2909821-3.8659256 0-6.5794796 2.5191367-8.9589042 5.3236663-1.7091593 2.0145156-4.8907075 2.5746907-7.8187687 2.5746907C16.8914667 98.4937441 11 92.6000527 11 85.3298158c0-7.2702368 5.8914667-13.1639283 13.1589592-13.1639283 3.360432 0 6.4266608 1.26011 8.7522783 3.3337537 1.8670509 2.3785082 4.7678602 3.9064069 8.0253946 3.9064069 2.9670989 0 5.6924769-1.0695692 7.155184-3.2909821.50157-.7617342.8500377-2.5392565 1.1519828-4.5463609v-26.661334c0-3.6867327 2.9875592-6.67542 6.6729002-6.67542H94.788786z" id="b"/><filter x="-16.3%" y="-15.2%" width="132.5%" height="138.0%" filterUnits="objectBoundingBox" id="a"><feOffset dy="5" in="SourceAlpha" result="shadowOffsetOuter1"/><feGaussianBlur stdDeviation="7.5" in="shadowOffsetOuter1" result="shadowBlurOuter1"/><feColorMatrix values="0 0 0 0 0 0 0 0 0 0 0 0 0 0 0 0 0 0 0.1 0" in="shadowBlurOuter1" result="shadowMatrixOuter1"/><feOffset dy="2" in="SourceAlpha" result="shadowOffsetOuter2"/><feGaussianBlur stdDeviation="2.5" in="shadowOffsetOuter2" result="shadowBlurOuter2"/><feColorMatrix values="0 0 0 0 0 0 0 0 0 0 0 0 0 0 0 0 0 0 0.05 0" in="shadowBlurOuter2" result="shadowMatrixOuter2"/><feMerge><feMergeNode in="shadowMatrixOuter1"/><feMergeNode in="shadowMatrixOuter2"/></feMerge></filter></defs><g fill="none" fill-rule="evenodd"><use fill="#000" filter="url(#a)" xlink:href="#b"/><use fill="#2E1A5A" xlink:href="#b"/><g><path d="M71.47478072 47.19597364H96.1395677c2.1795177 0 3.9463659 1.76924656 3.9463659 3.95172279 0 2.18247624-1.7668482 3.95172279-3.9463659 3.95172279H71.47478072c-2.17951772 0-3.94636592-1.76924655-3.94636592-3.95172279 0-2.18247623 1.7668482-3.95172279 3.94636592-3.95172279zM88.2468359 74.8580332h40.4502506c2.1795178 0 3.946366 1.7692465 3.946366 3.9517228 0 2.1824762-1.7668482 3.9517228-3.946366 3.9517228H88.2468359c-2.1795177 0-3.9463659-1.7692466-3.9463659-3.9517228 0-2.1824763 1.7668482-3.9517228 3.9463659-3.9517228zm-9.8659148 41.4930893h17.7586466c2.1795177 0 3.9463659 1.7692465 3.9463659 3.9517228 0 2.1824762-1.7668482 3.9517228-3.9463659 3.9517228H78.3809211c-2.17951774 0-3.94636594-1.7692466-3.94636594-3.9517228 0-2.1824763 1.7668482-3.9517228 3.94636594-3.9517228zm0-55.3241191h34.5307018c2.1795177 0 3.9463659 1.7692466 3.9463659 3.9517228s-1.7668482 3.9517228-3.9463659 3.9517228H78.3809211c-2.17951774 0-3.94636594-1.7692466-3.94636594-3.9517228s1.7668482-3.9517228 3.94636594-3.9517228zm9.8659148 27.6620595h57.2223058c2.1795177 0 3.9463659 1.7692466 3.9463659 3.9517228 0 2.1824763-1.7668482 3.9517228-3.9463659 3.9517228H88.2468359c-2.1795177 0-3.9463659-1.7692465-3.9463659-3.9517228 0-2.1824762 1.7668482-3.9517228 3.9463659-3.9517228zm0 13.8310298h13.8122807c2.1795177 0 3.9463659 1.7692466 3.9463659 3.9517228s-1.7668482 3.9517228-3.9463659 3.9517228H88.2468359c-2.1795177 0-3.9463659-1.7692466-3.9463659-3.9517228s1.7668482-3.9517228 3.9463659-3.9517228zm27.6245614 0h8.8793233c2.1795177 0 3.9463659 1.7692466 3.9463659 3.9517228s-1.7668482 3.9517228-3.9463659 3.9517228h-8.8793233c-2.1795177 0-3.9463659-1.7692466-3.9463659-3.9517228s1.7668482-3.9517228 3.9463659-3.9517228z" fill="#FFF"/><path d="M71.47478072 47.19597364H96.1395677c2.1795177 0 3.9463659 1.76924656 3.9463659 3.95172279 0 2.18247624-1.7668482 3.95172279-3.9463659 3.95172279H71.47478072c-2.17951772 0-3.94636592-1.76924655-3.94636592-3.95172279 0-2.18247623 1.7668482-3.95172279 3.94636592-3.95172279z" fill="#FC521F" opacity="0.800000012"/><path d="M88.2468359 74.8580332h40.4502506c2.1795178 0 3.946366 1.7692465 3.946366 3.9517228 0 2.1824762-1.7668482 3.9517228-3.946366 3.9517228H88.2468359c-2.1795177 0-3.9463659-1.7692466-3.9463659-3.9517228 0-2.1824763 1.7668482-3.9517228 3.9463659-3.9517228z" fill="#FFAE00" opacity="0.800000012"/><path d="M78.3809211 116.3511225h17.7586466c2.1795177 0 3.9463659 1.7692465 3.9463659 3.9517228 0 2.1824762-1.7668482 3.9517228-3.9463659 3.9517228H78.3809211c-2.17951774 0-3.94636594-1.7692466-3.94636594-3.9517228 0-2.1824763 1.7668482-3.9517228 3.94636594-3.9517228zM78.3809211 61.0270034h34.5307018c2.1795177 0 3.9463659 1.7692466 3.9463659 3.9517228s-1.7668482 3.9517228-3.9463659 3.9517228H78.3809211c-2.17951774 0-3.94636594-1.7692466-3.94636594-3.9517228s1.7668482-3.9517228 3.94636594-3.9517228z" fill="#1EA7FD" opacity="0.800000012"/><path d="M88.2468359 88.6890629h57.2223058c2.1795177 0 3.9463659 1.7692466 3.9463659 3.9517228 0 2.1824763-1.7668482 3.9517228-3.9463659 3.9517228H88.2468359c-2.1795177 0-3.9463659-1.7692465-3.9463659-3.9517228 0-2.1824762 1.7668482-3.9517228 3.9463659-3.9517228z" fill="#37D5D3" opacity="0.800000012"/><path d="M88.2468359 102.5200927h13.8122807c2.1795177 0 3.9463659 1.7692466 3.9463659 3.9517228s-1.7668482 3.9517228-3.9463659 3.9517228H88.2468359c-2.1795177 0-3.9463659-1.7692466-3.9463659-3.9517228s1.7668482-3.9517228 3.9463659-3.9517228z" fill="#66BF3C" opacity="0.800000012"/><path d="M115.8713973 102.5200927h8.8793233c2.1795177 0 3.9463659 1.7692466 3.9463659 3.9517228s-1.7668482 3.9517228-3.9463659 3.9517228h-8.8793233c-2.1795177 0-3.9463659-1.7692466-3.9463659-3.9517228s1.7668482-3.9517228 3.9463659-3.9517228z" fill="#FC521F" opacity="0.800000012"/></g></g></svg>