<svg width="192px" height="140px" xmlns="http://www.w3.org/2000/svg"><g transform="translate(0 7)" stroke-width="2" fill="none" fill-rule="evenodd"><rect stroke-opacity="0.8" stroke="#FFAE00" x="1" y="82" width="190" height="16" rx="4"/><rect stroke-opacity="0.8" stroke="#66BF3C" x="1" y="110" width="90" height="16" rx="4"/><rect stroke-opacity="0.8" stroke="#66BF3C" x="101" y="110" width="90" height="16" rx="4"/><rect stroke="#1EA7FD" x="119" y="46" width="16" height="16" rx="8"/><path d="M24.8215159 37.9559835h15.8312958l-7.7017115-22.7042641h-.1711491l-7.9584352 22.7042641zM26.1051345 0h13.7775061l22.8484107 61.8734525H48.7823961l-4.6210269-13.7785419H21.3129584l-4.792176 13.7785419H3L26.1051345 0zm40.1344743 30.8500688c.17115-2.8885977.8842643-5.2860978 2.1393643-7.1925722 1.2551-1.9064745 2.852476-3.4374083 4.792176-4.5928474 1.9397-1.155439 4.1218298-1.978677 6.5464548-2.4697386 2.424625-.4910616 4.8634759-.7365887 7.3166259-.7365887 2.22495 0 4.4783912.1588705 6.7603912.4766162s4.3642938.9387849 6.246944 1.8631362c1.88265.9243512 3.422977 2.2097579 4.621027 3.8562586 1.19805 1.6465006 1.797066 3.8273592 1.797066 6.542641v23.3108665c0 2.0220184.114098 3.9573498.342298 5.8060523.2282 1.8487025.627544 3.2352086 1.198044 4.1595598H95.6772616c-.2282-.6932634-.4136097-1.4009592-.5562347-2.1231086-.142625-.7221494-.242461-1.4587308-.299511-2.2097662-1.9397 2.0220184-4.2216658 3.43741-6.8459658 4.2462173C85.3512501 62.5956024 82.6699403 63 79.9315403 63c-2.11085 0-4.0790454-.2599699-5.9046454-.7799175-1.8256-.5199475-3.4229761-1.3287428-4.7921761-2.4264099-1.3692-1.0976671-2.4388714-2.4841732-3.2090464-4.1595598-.770175-1.6753867-1.1552568-3.6684891-1.1552568-5.9793673 0-2.5419659.4421309-4.6361678 1.3264059-6.2826685.884275-1.6465006 2.0252579-2.9607929 3.4229829-3.9429161 1.397725-.9821232 2.995101-1.7187045 4.792176-2.2097661 1.797075-.4910616 3.6083854-.8810165 5.4339854-1.1698762 1.8256-.2888598 3.622648-.5199441 5.391198-.69326 1.76855-.1733159 3.3374015-.4332858 4.7066015-.7799175 1.3692-.3466317 2.4531337-.8521287 3.2518337-1.5165062.7987-.6643774 1.1695195-1.6320431 1.1124695-2.9030261 0-1.3287549-.2139343-2.3830773-.6418093-3.1629986-.427875-.7799214-.9983665-1.3865178-1.7114915-1.8198074-.713125-.4332897-1.5403376-.7221451-2.4816626-.866575s-1.9539473-.2166438-3.0378973-.2166438c-2.3961 0-4.2787217.5199398-5.6479217 1.559835-1.3692 1.0398951-2.1678881 2.7730277-2.3960881 5.1994498H66.2396088zm28.0684597 9.0990371c-.51345.4621756-1.1552529.8232449-1.9254279 1.0832187-.770175.2599738-1.5973876.4766154-2.4816626.6499312-.884275.1733159-1.8113236.3177436-2.7811736.4332875-.96985.1155439-1.9396855.2599717-2.9095355.4332875-.9128.1733159-1.811324.4044002-2.695599.69326-.884275.2888598-1.6544384.6788146-2.3105134 1.1698762s-1.1837796 1.1121008-1.5831296 1.8631362c-.39935.7510354-.599022 1.7042583-.599022 2.8596974 0 1.0976671.199672 2.0220044.599022 2.7730398.39935.7510354.9413169 1.3431891 1.6259169 1.7764787.6846.4332897 1.483288.7365879 2.396088.9099037.9128.1733159 1.8541109.2599725 2.8239609.2599725 2.3961 0 4.2501972-.4043976 5.5623472-1.2132049 1.31215-.8088074 2.2819854-1.7764731 2.9095354-2.9030262.62755-1.1265531 1.0126317-2.267532 1.1552567-3.4229711.142625-1.155439.2139365-2.0797764.2139365-2.7730399v-4.5928473z" stroke="#1EA7FD"/></g></svg>