<svg xmlns="http://www.w3.org/2000/svg" width="192" height="140"><g fill="none" fill-rule="evenodd"><rect width="160" height="140" x="16" fill="#2E1A5A" rx="4"/><path fill="#FFF" d="M35.9695625 14.2833354h35.659933c3.1511099 0 5.7055893 2.5579468 5.7055893 5.7133341 0 3.1553874-2.5544794 5.7133342-5.7055893 5.7133342h-35.659933c-3.15111 0-5.7055893-2.5579468-5.7055893-5.7133342 0-3.1553873 2.5544793-5.7133341 5.7055893-5.7133341zm24.2487544 39.9933391h58.4822901c3.15111 0 5.705589 2.5579468 5.705589 5.7133341s-2.554479 5.7133342-5.705589 5.7133342H60.2183169c-3.1511099 0-5.7055893-2.5579469-5.7055893-5.7133342s2.5544794-5.7133341 5.7055893-5.7133341zM45.9543437 114.266683h25.6751518c3.1511099 0 5.7055893 2.557947 5.7055893 5.713334 0 3.155388-2.5544794 5.713334-5.7055893 5.713334H45.9543437c-3.1511099 0-5.7055893-2.557946-5.7055893-5.713334 0-3.155387 2.5544794-5.713334 5.7055893-5.713334zm0-79.9866781h49.9239062c3.15111 0 5.7055891 2.5579469 5.7055891 5.7133342s-2.5544791 5.7133341-5.7055891 5.7133341H45.9543437c-3.1511099 0-5.7055893-2.5579468-5.7055893-5.7133341s2.5544794-5.7133342 5.7055893-5.7133342zM60.2183169 74.273344h82.7310441c3.15111 0 5.70559 2.5579468 5.70559 5.7133342 0 3.1553873-2.55448 5.7133341-5.70559 5.7133341H60.2183169c-3.1511099 0-5.7055893-2.5579468-5.7055893-5.7133341 0-3.1553874 2.5544794-5.7133342 5.7055893-5.7133342zm0 19.9966696h19.9695625c3.15111 0 5.7055893 2.5579468 5.7055893 5.7133341s-2.5544793 5.7133343-5.7055893 5.7133343H60.2183169c-3.1511099 0-5.7055893-2.557947-5.7055893-5.7133343 0-3.1553873 2.5544794-5.7133341 5.7055893-5.7133341zm39.9391251 0h12.837576c3.15111 0 5.705589 2.5579468 5.705589 5.7133341s-2.554479 5.7133343-5.705589 5.7133343h-12.837576c-3.1511101 0-5.7055894-2.557947-5.7055894-5.7133343 0-3.1553873 2.5544793-5.7133341 5.7055894-5.7133341z"/><path fill="#FC521F" d="M35.9695625 14.2833354h35.659933c3.1511099 0 5.7055893 2.5579468 5.7055893 5.7133341 0 3.1553874-2.5544794 5.7133342-5.7055893 5.7133342h-35.659933c-3.15111 0-5.7055893-2.5579468-5.7055893-5.7133342 0-3.1553873 2.5544793-5.7133341 5.7055893-5.7133341z" opacity=".8"/><path fill="#FFAE00" d="M60.2183169 54.2766745h58.4822901c3.15111 0 5.705589 2.5579468 5.705589 5.7133341s-2.554479 5.7133342-5.705589 5.7133342H60.2183169c-3.1511099 0-5.7055893-2.5579469-5.7055893-5.7133342s2.5544794-5.7133341 5.7055893-5.7133341z" opacity=".8"/><path fill="#1EA7FD" d="M45.9543437 114.266683h25.6751518c3.1511099 0 5.7055893 2.557947 5.7055893 5.713334 0 3.155388-2.5544794 5.713334-5.7055893 5.713334H45.9543437c-3.1511099 0-5.7055893-2.557946-5.7055893-5.713334 0-3.155387 2.5544794-5.713334 5.7055893-5.713334zM45.9543437 34.2800049h49.9239062c3.15111 0 5.7055891 2.5579469 5.7055891 5.7133342s-2.5544791 5.7133341-5.7055891 5.7133341H45.9543437c-3.1511099 0-5.7055893-2.5579468-5.7055893-5.7133341s2.5544794-5.7133342 5.7055893-5.7133342z" opacity=".8"/><path fill="#37D5D3" d="M60.2183169 74.273344h82.7310441c3.15111 0 5.70559 2.5579468 5.70559 5.7133342 0 3.1553873-2.55448 5.7133341-5.70559 5.7133341H60.2183169c-3.1511099 0-5.7055893-2.5579468-5.7055893-5.7133341 0-3.1553874 2.5544794-5.7133342 5.7055893-5.7133342z" opacity=".8"/><path fill="#66BF3C" d="M60.2183169 94.2700136h19.9695625c3.15111 0 5.7055893 2.5579468 5.7055893 5.7133341s-2.5544793 5.7133343-5.7055893 5.7133343H60.2183169c-3.1511099 0-5.7055893-2.557947-5.7055893-5.7133343 0-3.1553873 2.5544794-5.7133341 5.7055893-5.7133341z" opacity=".8"/><path fill="#FC521F" d="M100.157442 94.2700136h12.837576c3.15111 0 5.705589 2.5579468 5.705589 5.7133341s-2.554479 5.7133343-5.705589 5.7133343h-12.837576c-3.1511101 0-5.7055894-2.557947-5.7055894-5.7133343 0-3.1553873 2.5544793-5.7133341 5.7055894-5.7133341z" opacity=".8"/></g></svg>