<svg xmlns="http://www.w3.org/2000/svg" width="192" height="140"><defs><radialGradient id="a" r="100%" fx="50%" fy="50%"><stop offset="0%" stop-color="#FD8460" stop-opacity="0"/><stop offset="100%" stop-color="#FC521F"/></radialGradient></defs><g fill="none" fill-rule="evenodd"><path fill="#6F2CAC" d="M23.71052632 2H68.3635478c3.7061213 0 6.7105263 3.00440497 6.7105263 6.71052632 0 3.70612138-3.004405 6.71052628-6.7105263 6.71052628H23.71052632C20.00440497 15.4210526 17 12.4166477 17 8.71052632 17 5.00440497 20.00440497 2 23.71052632 2zM54.5623782 50.3157895h72.7826508c3.706122 0 6.710527 3.0044049 6.710527 6.7105263 0 3.7061213-3.004405 6.7105263-6.710527 6.7105263H54.5623782c-3.7061214 0-6.7105263-3.004405-6.7105263-6.7105263 0-3.7061214 3.0044049-6.7105263 6.7105263-6.7105263zM36.41423 124.578947h31.9493178c3.7061213 0 6.7105263 3.004405 6.7105263 6.710527 0 3.706121-3.004405 6.710526-6.7105263 6.710526H36.41423c-3.7061213 0-6.7105263-3.004405-6.7105263-6.710526 0-3.706122 3.004405-6.710527 6.7105263-6.710527zm0-98.4210523h62.8011696c3.7061214 0 6.7105263 3.004405 6.7105263 6.7105264 0 3.7061213-3.0044049 6.7105263-6.7105263 6.7105263H36.41423c-3.7061213 0-6.7105263-3.004405-6.7105263-6.7105263 0-3.7061214 3.004405-6.7105264 6.7105263-6.7105264zm17.2407408 50.1052632H157.289474c3.706121 0 6.710526 3.004405 6.710526 6.7105263 0 3.7061214-3.004405 6.7105263-6.710526 6.7105263H53.6549708c-3.7061214 0-6.7105264-3.0044049-6.7105264-6.7105263 0-3.7061213 3.004405-6.7105263 6.7105264-6.7105263zm.9074074 24.1578947h24.6900584c3.7061214 0 6.7105264 3.0044054 6.7105264 6.7105264s-3.004405 6.710526-6.7105264 6.710526H54.5623782c-3.7061214 0-6.7105263-3.004405-6.7105263-6.710526 0-3.706121 3.0044049-6.7105264 6.7105263-6.7105264zm48.0925926 0h16.5233922c3.706121 0 6.710526 3.0044054 6.710526 6.7105264s-3.004405 6.710526-6.710526 6.710526h-16.5233922c-3.7061214 0-6.7105264-3.004405-6.7105264-6.710526 0-3.706121 3.004405-6.7105264 6.7105264-6.7105264z" opacity=".2"/><g transform="translate(77 8)"><circle cx="49" cy="49" r="49" fill="url(#a)" opacity=".2"/><circle cx="49.5" cy="49.5" r="28.5" fill="url(#a)" opacity=".35"/><circle cx="49" cy="49" r="8" fill="#FC521F"/></g></g></svg>