<svg xmlns="http://www.w3.org/2000/svg" width="192" height="140"><g fill="none" fill-rule="evenodd" transform="translate(26)"><rect width="140" height="140" fill="#1EA7FD" fill-opacity=".3" stroke="#1EA7FD" rx="4"/><path fill="#1EA7FD" fill-opacity=".3" stroke="#1EA7FD" stroke-dasharray="4 2" d="M4 35h97c2.209139 0 4 1.790861 4 4v97c0 2.209139-1.790861 4-4 4H4c-2.209139 0-4-1.790861-4-4V39c0-2.209139 1.790861-4 4-4z"/><path fill="#1EA7FD" fill-opacity=".3" stroke="#1EA7FD" stroke-dasharray="4 2" d="M4 70h37.3703704c2.209139 0 4 1.790861 4 4v62c0 2.209139-1.790861 4-4 4H4c-2.209139 0-4-1.790861-4-4V74c0-2.209139 1.790861-4 4-4z"/><rect width="10.37" height="10.37" x="9.074" y="7.778" fill="#FC521F" rx="5.185"/><rect width="10.37" height="10.37" x="23.333" y="7.778" fill="#FFAE00" rx="5.185"/><rect width="10.37" height="10.37" x="37.593" y="7.778" fill="#66BF3C" rx="5.185"/></g></svg>