<svg width="192px" height="140px" xmlns="http://www.w3.org/2000/svg"><g transform="translate(26)" fill="none" fill-rule="evenodd"><rect stroke="#1EA7FD" fill-opacity="0.3" fill="#1EA7FD" width="140" height="140" rx="4"/><path d="M4 35h97c2.209139 0 4 1.790861 4 4v97c0 2.209139-1.790861 4-4 4H4c-2.209139 0-4-1.790861-4-4V39c0-2.209139 1.790861-4 4-4z" stroke="#1EA7FD" fill-opacity="0.3" fill="#1EA7FD" stroke-dasharray="4 2"/><path d="M4 70h37.3703704c2.209139 0 4 1.790861 4 4v62c0 2.209139-1.790861 4-4 4H4c-2.209139 0-4-1.790861-4-4V74c0-2.209139 1.790861-4 4-4z" stroke="#1EA7FD" fill-opacity="0.3" fill="#1EA7FD" stroke-dasharray="4 2"/><rect fill="#FC521F" x="9.07407407" y="7.77777778" width="10.3703704" height="10.3703704" rx="5.18518519"/><rect fill="#FFAE00" x="23.3333333" y="7.77777778" width="10.3703704" height="10.3703704" rx="5.18518519"/><rect fill="#66BF3C" x="37.5925926" y="7.77777778" width="10.3703704" height="10.3703704" rx="5.18518519"/></g></svg>