<?xml version="1.0" encoding="UTF-8"?>
<svg width="96px" height="96px" viewBox="0 0 96 96" version="1.1" xmlns="http://www.w3.org/2000/svg" xmlns:xlink="http://www.w3.org/1999/xlink">
    <!-- Generator: Sketch 52.4 (67378) - http://www.bohemiancoding.com/sketch -->
    <title>logo/html5</title>
    <desc>Created with Sketch.</desc>
    <g id="logo/html5" stroke="none" stroke-width="1" fill="none" fill-rule="evenodd">
        <g id="HTML5_logo_and_wordmark" transform="translate(17.434847, 3.000000)">
            <path d="M5.77714981,0 L9.63977904,0 L9.63977904,3.82904115 L13.2001155,3.82904115 L13.2001155,0 L17.0627448,0 L17.0627448,11.5878877 L13.2001155,11.5878877 L13.2001155,7.72525846 L9.67336712,7.72525846 L9.67336712,11.5878877 L5.77714981,11.5878877 M22.168133,3.86262923 L18.7589428,3.86262923 L18.7589428,0 L29.4567464,0 L29.4567464,3.86262923 L26.0307622,3.86262923 L26.0307622,11.5878877 L22.168133,11.5878877 M31.1529445,0 L35.2003081,0 L37.6858261,4.08095175 L40.171344,0 L44.2187077,0 L44.2187077,11.5878877 L40.3560785,11.5878877 L40.3560785,5.84432597 L37.652238,10.0092479 L34.9483975,5.84432597 L34.9483975,11.5878877 L31.1529445,11.5878877 M46.1332283,0 L49.9958575,0 L49.9958575,7.75884654 L55.4707146,7.75884654 L55.4707146,11.5878877 L46.1332283,11.5878877" id="Shape" fill="#000000" fill-rule="nonzero"></path>
            <polyline id="Path" fill="#E44D26" points="5.64279749 79.099929 0.100764241 16.8948044 61.0295419 16.8948044 55.4875086 79.066341 30.5147709 85.9854855"></polyline>
            <polyline id="Path" fill="#F16529" points="30.5651531 80.6953629 30.5651531 22.0001926 55.4707146 22.0001926 50.7180012 75.0693594"></polyline>
            <path d="M11.4199473,29.6078928 L30.5651531,29.6078928 L30.5651531,37.232387 L19.7833793,37.232387 L20.488729,45.0416156 L30.5651531,45.0416156 L30.5651531,52.6493158 L13.5024083,52.6493158 M13.8382891,56.478357 L21.4963714,56.478357 L22.0337807,62.5745936 L30.5651531,64.858583 L30.5651531,72.818958 L14.9131076,68.4525076" id="Shape" fill="#EBEBEB" fill-rule="nonzero"></path>
            <path d="M49.6431826,29.6078928 L30.531565,29.6078928 L30.531565,37.232387 L48.937833,37.232387 M48.2492773,45.0416156 L30.531565,45.0416156 L30.531565,52.6661099 L39.9362274,52.6661099 L39.0461433,62.5745936 L30.531565,64.858583 L30.531565,72.78537 L46.1500223,68.4525076" id="Shape" fill="#FFFFFF" fill-rule="nonzero"></path>
        </g>
    </g>
</svg>