<svg xmlns="http://www.w3.org/2000/svg" viewBox="0 0 575.97 157.38"><defs><style>.a{fill:#c3002f;}.b{fill:#dd0031;}.c{fill:#f2f2f2;}</style></defs><title>Artboard 1</title><path d="M169.73,116.11V45.31h9.16l43.32,57v-57h8.67v70.8h-9.16L178.39,58.58v57.54Zm0,0"/><path d="M301.18,113.34a51.29,51.29,0,0,1-18.47,3.27q-38.47,0-38.47-36.89,0-34.9,37.13-34.91a63.76,63.76,0,0,1,19.8,3v7.92a52.73,52.73,0,0,0-18.81-3.47q-29,0-29,27.48,0,29.46,28.52,29.46A48.28,48.28,0,0,0,292,108V83.93h9.15Zm0,0"/><path d="M315.79,88.78V45.31h9.15V88.78q0,20.4,20.3,20.4t20.3-20.4V45.31h9.16V88.78q0,27.83-29.46,27.83T315.79,88.78Zm0,0"/><path d="M400.2,45.31v63.38h37v7.42H391V45.31Zm0,0"/><path d="M450.46,116.11H441L476.15,36l35.2,80.15H501.2L492,93.83H468.63l2.53-7.42H489L475.76,54.32Zm0,0"/><path d="M521,116.11V45.31h30.2q20.2,0,20.2,17,0,13.81-19.75,20.45L576,116.11H563.88L541.36,84.28v-6q20.3-3.23,20.3-15.6,0-9.8-11.29-9.8h-20.2v63.23Zm0,0"/><path class="a" d="M148.38,25.63,73.22,0V157.38l63-34.86Zm0,0"/><path class="b" d="M0,26.09,11.2,123l62,34.4V0Zm0,0"/><path class="c" d="M90.64,78.28,73.35,42.18,58.14,78.28Zm6.59,15.18H51.41L41.16,119.1l-19.07.35L73.22,5.71l52.91,113.73H108.45Zm0,0"/></svg>