<svg xmlns="http://www.w3.org/2000/svg" viewBox="0 0 702.48 226.7"><defs><style>.a{fill:#4dba87;}.b{fill:#435466;}.c{fill:#2c3e50;}</style></defs><path d="M161.17 0L130.9 52.42 100.63 0H0l130.9 226.68L261.83 0z" class="a"/><path d="M161.17 0L130.9 52.42 100.63 0H52.37l78.53 136L209.43 0z" class="b"/><path d="M383.4 25.48a5.4 5.4 0 0 0-5.48 3.52l-32 108.74L313.66 29c-.73-2.38-2.93-3.48-5.67-3.48-4 0-9.4 2.56-9.4 6.4a4.33 4.33 0 0 0 .3 1.47l37.5 121.7c1.1 3.6 5.1 5.3 9.3 5.3 4.4 0 8.4-1.8 9.7-5.3l37.2-121.8a12.3 12.3 0 0 1 .2-1.3c0-3.7-5.1-6.6-9.5-6.6zm80.93 47c-4.2 0-7.7 2.56-7.7 5.3v47.8c0 11-9.33 21.4-20.86 21.4-11.72 0-21-10.6-21-21.4V78c0-2.75-3.66-5.5-7.5-5.5-4.4 0-7.7 2.76-7.7 5.5v47.6c0 18.5 16.3 35.15 36.26 35.15 19.6 0 36.06-16.48 36.06-35.15V77.83c0-2.74-3.1-5.3-7.5-5.3zm80.37 47.78c8.24 0 16.3-.55 16.3-15.2 0-19.58-16.5-33.67-35.16-33.67-20.14 0-36.43 15.9-36.43 34.6v19.2c0 21.2 16.9 35.5 40.7 35.5 17.8 0 29-8.3 29-13 0-2.8-2.5-7-6.2-7-4.52 0-8.4 7.1-22.1 7.1-15.2 0-26-8.6-26-22.2v-5.5zm-40.1-16.84c0-11.17 9.53-20 21.06-20a20.82 20.82 0 0 1 20.87 20.7c0 4.75-1.65 5.85-8 5.85H504.6zm78.73 37.7a9.6 9.6 0 1 0 9.6 9.62 9.6 9.6 0 0 0-9.6-9.62zm34.42-68.64c-4.4 0-7.5 2.2-7.5 5.3v88.8c0 12.27-1.3 21.24-11.54 21.24-3.4 0-6.2 2.75-6.2 6.77 0 3.2 2 6.5 7.9 6.5 17.6 0 25.1-14.3 25.1-34.6V77.8c0-3.1-3.4-5.3-7.7-5.3zm0-41.2c-5.3 0-9.52 4-9.52 8.6s4.2 8.8 9.52 8.8c5.13 0 9.34-4.2 9.34-8.8s-4.3-8.54-9.4-8.54zm39.9 65.18c0-5.5 4.4-12.82 16.67-12.82 10.62 0 16.3 5.3 19.6 5.3 3.65 0 6-5.3 6-7.68 0-5.13-13-9.9-25.82-9.9-22 0-30 13.56-30 25.64 0 30.4 44.67 17.76 44.67 39.9 0 5.87-4.2 11.54-17.4 11.54-16.1 0-20-8.6-24.15-8.6-3.1 0-5.3 4.2-5.3 7 0 6.2 12.44 13.9 30 13.9 19.58 0 30.56-9.52 30.56-24.53 0-33.1-44.83-21-44.83-39.7z" class="c"/></svg>