<svg xmlns="http://www.w3.org/2000/svg" xmlns:xlink="http://www.w3.org/1999/xlink" width="40" height="40"><defs><path id="a" d="M4.28075898 6.24956855c.04348483-.43294951-.12035733-.86087195-.44117647-1.15226337L.57160865 1.130227V.5376344H10.7186675l7.8431372 17.3333332L25.4572297.5376344h9.6732025v.5925926l-2.7941176 2.69958847c-.2408836.18502793-.3603742.48913445-.3104575.79012347V24.45533c-.0499167.3009889.0695739.6050953.3104575.7901234l2.7287582 2.6995885v.5925925H21.3395826v-.5925925l2.8267974-2.7654321c.2777776-.2798355.2777776-.3621399.2777776-.7901234V8.35656446L16.5846805 28.4717908h-1.0620914L6.37226224 8.35656446V21.8380459c-.0762921.5667994.11051495 1.1374424.50653595 1.5473252l3.67647061 4.4938272v.5925925H.13043218v-.5925925l3.67647059-4.4938272c.39313761-.4105624.5690518-.9849907.47385621-1.5473252V6.24956855z"/></defs><use fill="#26292E" fill-rule="evenodd" transform="translate(2 5.5)" xlink:href="#a"/></svg>