<svg height="168" width="462" xmlns="http://www.w3.org/2000/svg"><g fill="none" fill-rule="evenodd"><path d="M434.517 44.11c-8.078 0-14.91 3.806-19.758 11.005-4.819 7.156-7.366 17.145-7.366 28.885s2.547 21.729 7.366 28.884c4.848 7.2 11.68 11.005 19.758 11.005s14.91-3.805 19.758-11.005c4.818-7.155 7.365-17.144 7.365-28.884s-2.547-21.729-7.365-28.885c-4.848-7.199-11.68-11.005-19.758-11.005zm0 69.895c-3.862 0-6.913-2.185-9.33-6.681-2.919-5.431-4.527-13.714-4.527-23.324s1.608-17.894 4.527-23.324c2.417-4.496 5.468-6.682 9.33-6.682 3.861 0 6.913 2.186 9.33 6.682 2.919 5.43 4.526 13.713 4.526 23.324s-1.607 17.895-4.526 23.324c-2.417 4.496-5.469 6.681-9.33 6.681zM259.45 73.172v34.312c0 9.046 7.36 16.405 16.406 16.405 7.89 0 13.851-3.914 16.046-5.598.122-.094.282-.122.429-.075s.261.163.306.311l1.324 4.333h9.776V73.172h-12.562v37.154c0 .175-.099.336-.254.417-2.362 1.218-7.022 3.263-11.69 3.263-3.979 0-7.219-3.238-7.219-7.219V73.172zm125.787 49.687H397.8V88.547c0-9.046-7.36-16.406-16.406-16.406-6.659 0-12.001 2.863-14.592 4.569-.145.095-.329.103-.48.021s-.247-.24-.247-.413V45.141h-12.562v77.718h12.562V85.704c0-.175.099-.336.255-.416 2.361-1.219 7.022-3.263 11.689-3.263 1.928 0 3.741.751 5.104 2.114s2.113 3.177 2.113 5.104v33.616zm-72.445-39.804h7.646c.259 0 .469.21.469.469v27.334c0 7.185 5.846 13.03 13.031 13.03 2.605 0 5.175-.376 7.647-1.118v-8.974c-1.442.127-3.1.209-4.272.209-2.12 0-3.844-1.725-3.844-3.844V83.523c0-.259.21-.469.469-.469h7.647v-9.883h-7.647c-.259 0-.469-.21-.469-.469V56.295h-12.562v16.407c0 .259-.21.469-.469.469h-7.646zm-73.431 39.804h13.068L232.555 53.55c-1.593-5.558-6.744-9.44-12.526-9.44s-10.933 3.882-12.527 9.44l-19.874 69.309h13.069l5.752-20.061c.058-.201.242-.339.451-.339h26.258c.209 0 .394.138.451.339zm-9.305-30.283h-20.052c-.147 0-.286-.069-.375-.188-.088-.116-.116-.269-.076-.41l10.026-34.966c.058-.201.242-.339.451-.339s.393.138.45.339l10.027 34.966c.04.142.012.294-.077.41-.088.119-.227.188-.374.188z" fill="#16214d"/><path d="M119.555 135.861l-16.85-51.864 44.108-32.045H92.291L75.44.09l-.005-.014h54.53l16.855 51.871.001-.001.014-.008c9.788 30.092-.293 64.318-27.28 83.923zm-88.234 0l-.014.01 44.119 32.053 44.129-32.062-44.115-32.054zM4.052 51.939c-10.304 31.721 1.657 65.333 27.26 83.928l.004-.016L48.168 83.99 4.07 51.951h54.509L75.431.089l.004-.014H20.902z" fill="#eb5424"/></g></svg>