<svg width="256px" height="180px" xmlns="http://www.w3.org/2000/svg" preserveAspectRatio="xMidYMid"><path d="M106.553203 19.651248c8.247926-8.594018 19.730904-13.923839 32.43067-13.923839 16.882019 0 31.610978 9.41371 39.454523 23.388553 6.816197-3.045612 14.361009-4.739643 22.299273-4.739643 30.448837 0 55.134326 24.90043 55.134326 55.6152115 0 30.7184241-24.685489 55.6188545-55.134326 55.6188545-3.715938 0-7.348086-.3715939-10.860012-1.0819938-6.907274 12.3208859-20.06971 20.6453165-35.17755 20.6453165-6.324381 0-12.306314-1.4608738-17.632492-4.0583876-7.001994 16.4703505-23.315692 28.01890417-42.3289101 28.01890417-19.8001227 0-36.6748548-12.52854137-43.1522454-30.09910107-2.8306707.6011077-5.7633476.9144123-8.7725291.9144123-23.5743504 0-42.68593163-19.3083074-42.68593163-43.130387 0-15.9639628 8.58673217-29.9023745 21.34478733-37.3597535-2.6266584-6.043864-4.0875322-12.714338-4.0875322-19.727261 0-27.395938 22.2409842-49.604135 49.673353-49.604135 16.1060428 0 30.4196918 7.657748 39.4945961 19.523249" fill="#00A1E0"/><path d="M37.1700744 92.9561467c-.1602954.4189538.0582892.5063877.1092923.5792492.4808861.3497354.9690584.6011077 1.4608738.8816246 2.608443 1.3843692 5.071163 1.7887507 7.6468183 1.7887507 5.2460307 0 8.5029414-2.7905968 8.5029414-7.2825106v-.0874339c0-4.1531076-3.6758645-5.6613414-7.1258583-6.7506214l-.4480985-.1457231c-2.6011568-.8451938-4.8452922-1.5738092-4.8452922-3.2860553V78.56235c0-1.4645169 1.3115077-2.5428677 3.3443446-2.5428677 2.2587076 0 4.9400122.7504739 6.6668306 1.70496 0 0 .5063877.3278769.6921846-.1639385.1020062-.2623015.9763446-2.6157291 1.0674216-2.8707445.098363-.2768739-.0765047-.4808862-.2550154-.5901785-1.9709046-1.1985723-4.6959261-2.0182646-7.5156676-2.0182646l-.5246031.0036431c-4.8015753 0-8.153206 2.8998892-8.153206 7.0566399v.0874338c0 4.3826215 3.697723 5.8034215 7.1622891 6.7943384l.5573908.1712246c2.5246523.7759754 4.6995691 1.4426584 4.6995691 3.22048v.0874338c0 1.6248123-1.4135138 2.8343138-3.6940799 2.8343138-.8852677 0-3.7086522-.0182154-6.7579076-1.945403-.3679507-.2149416-.5828923-.3715939-.8670523-.5428185-.1493661-.09472-.524603-.2586585-.6885415.2368l-1.0346338 2.8707446zM113.969779 92.9561467c-.160295.4189538.058289.5063877.109293.5792492.480886.3497354.969058.6011077 1.460873.8816246 2.608443 1.3843692 5.071163 1.7887507 7.646819 1.7887507 5.24603 0 8.502941-2.7905968 8.502941-7.2825106v-.0874339c0-4.1531076-3.675864-5.6613414-7.125858-6.7506214l-.448099-.1457231c-2.601157-.8451938-4.845292-1.5738092-4.845292-3.2860553V78.56235c0-1.4645169 1.311508-2.5428677 3.344345-2.5428677 2.258707 0 4.940012.7504739 6.66683 1.70496 0 0 .506388.3278769.692185-.1639385.102006-.2623015.976344-2.6157291 1.067421-2.8707445.098363-.2768739-.076504-.4808862-.255015-.5901785-1.970905-1.1985723-4.695926-2.0182646-7.515668-2.0182646l-.524603.0036431c-4.801575 0-8.153206 2.8998892-8.153206 7.0566399v.0874338c0 4.3826215 3.697723 5.8034215 7.162289 6.7943384l.557391.1712246c2.524652.7759754 4.703212 1.4426584 4.703212 3.22048v.0874338c0 1.6248123-1.417156 2.8343138-3.697723 2.8343138-.885267 0-3.708652-.0182154-6.757907-1.945403-.367951-.2149416-.586536-.3643077-.863409-.5428185-.09472-.0619323-.539176-.2331569-.692185.2368l-1.034634 2.8707446zM166.398769 84.1573916c0 2.5392245-.4736 4.5392737-1.406228 5.9527876-.921698 1.3989415-2.316997 2.0801968-4.2624 2.0801968-1.949046 0-3.337058-.6776122-4.244185-2.0801968-.918055-1.4098708-1.384369-3.4135631-1.384369-5.9527876 0-2.5355815.466314-4.5319877 1.384369-5.9309292.907127-1.3843692 2.295139-2.0583384 4.244185-2.0583384 1.945403 0 3.340702.6739692 4.266043 2.0583384.928985 1.3989415 1.402585 3.3953477 1.402585 5.9309292m4.378978-4.7068553c-.429883-1.4535877-1.100209-2.7359508-1.992763-3.8033723-.892554-1.0710646-2.021908-1.9308307-3.36256-2.55744-1.337009-.6229661-2.918105-.9399138-4.692283-.9399138-1.777821 0-3.358917.3169477-4.695926.9399138-1.340652.6266093-2.470006 1.4863754-3.366203 2.55744-.888911 1.0710646-1.559237 2.3534277-1.992763 3.8033723-.42624 1.4463015-.641182 3.0273968-.641182 4.7068553 0 1.6794584.214942 3.2641968.641182 4.7068553.433526 1.4499446 1.100209 2.7323076 1.996406 3.8033722.892554 1.0710646 2.025551 1.9271877 3.36256 2.5355815 1.340652.6083939 2.918105.9180554 4.695926.9180554 1.774178 0 3.351631-.3096615 4.692283-.9180554 1.337009-.6083938 2.470006-1.4645169 3.36256-2.5355815.892554-1.0674215 1.56288-2.3497846 1.992763-3.8033722.429883-1.4463015.644825-3.03104.644825-4.7068553 0-1.6758154-.214942-3.2605538-.644825-4.7068553M206.737482 91.5123913c-.145723-.42624-.557391-.2659446-.557391-.2659446-.637538.2440861-1.31515.4699569-2.036479.5828923-.732259.1129354-1.537379.1712246-2.400788.1712246-2.120271 0-3.803372-.6302523-5.009231-1.8761846-1.209501-1.2459323-1.887114-3.2605538-1.879827-5.9855753.007286-2.4809353.60475-4.3461907 1.679458-5.7669906 1.067421-1.4135139 2.692234-2.1384862 4.859864-2.1384862 1.806967 0 3.18405.2076554 4.626708.66304 0 0 .346092.1493662.510031-.3023753.382523-1.0637785.666683-1.8251816 1.074708-2.9946092.116578-.33152-.167582-.4736-.269588-.5136739-.56832-.2222277-1.908972-.5828923-2.921748-.7359015-.9472-.1457231-2.054695-.2222277-3.286055-.2222277-1.839754 0-3.479139.3133046-4.881723.9399138-1.398942.6229662-2.586585 1.4827323-3.526499 2.5537969-.939913 1.0710646-1.653956 2.3534277-2.131199 3.8033723-.4736 1.4463015-.714044 3.034683-.714044 4.7141414 0 3.6321477.979988 6.5684676 2.914462 8.717883 1.938117 2.1567015 4.848935 3.2532676 8.645021 3.2532676 2.244136 0 4.54656-.4553846 6.200517-1.1074954 0 0 .316948-.1530092.178511-.5209599l-1.074708-2.9691077zM214.399204 81.7249102c.207655-1.4098708.597464-2.5829415 1.198572-3.4973538.907126-1.3880123 2.291495-2.1494154 4.236899-2.1494154 1.945403 0 3.231409.7650462 4.153107 2.1494154.612037.9144123.877982 2.1384861.983631 3.4973538h-10.572209zm14.743532-3.1002585c-.371594-1.4025846-1.293292-2.8197415-1.898043-3.4682091-.954486-1.0273477-1.887114-1.7450339-2.812455-2.1457723-1.209502-.5173169-2.659447-.8597661-4.247828-.8597661-1.850683 0-3.530142.3096615-4.892652.950843-1.366154.6411815-2.513723 1.51552-3.413563 2.6048-.89984 1.0856369-1.577453 2.3789292-2.007336 3.8470891-.433526 1.4608739-.65211 3.0528985-.65211 4.7323569 0 1.708603.22587 3.3006276.673969 4.7323568.451741 1.4426585 1.173071 2.7140923 2.149415 3.7669415.972702 1.0601354 2.22592 1.8907569 3.726868 2.4700061 1.490018.5756062 3.300627.8743385 5.380824.8706954 4.280616-.0145723 6.53568-.9690585 7.464665-1.4827323.163938-.0910769.320591-.2513723.123864-.7104l-.969058-2.7140922c-.145723-.4043816-.557391-.2550154-.557391-.2550154-1.060135.3934523-2.568369 1.1002092-6.083938 1.092923-2.298782-.003643-4.003742-.6812553-5.071163-1.7413907-1.096566-1.0856369-1.632099-2.6813046-1.726819-4.9327261l14.82368.0145723s.389809-.0072861.429883-.3861661c.014573-.1602954.510031-3.0456123-.440812-6.3863138zM95.6829901 81.7249102c.2112984-1.4098708.5974646-2.5829415 1.1985723-3.4973538.9071261-1.3880123 2.2914953-2.1494154 4.2368986-2.1494154 1.945403 0 3.231409.7650462 4.15675 2.1494154.608394.9144123.874339 2.1384861.979988 3.4973538H95.6829901zm14.7398889-3.1002585c-.371594-1.4025846-1.289649-2.8197415-1.8944-3.4682091-.954486-1.0273477-1.887114-1.7450339-2.812455-2.1457723-1.209502-.5173169-2.659446-.8597661-4.247828-.8597661-1.8470398 0-3.5301413.3096615-4.8926521.950843-1.3661538.6411815-2.513723 1.51552-3.413563 2.6048-.89984 1.0856369-1.5774523 2.3789292-2.0073354 3.8470891-.429883 1.4608739-.6521107 3.0528985-.6521107 4.7323569 0 1.708603.2258707 3.3006276.6739692 4.7323568.4517415 1.4426585 1.1730707 2.7140923 2.1494153 3.7669415.9727016 1.0601354 2.22592 1.8907569 3.7268677 2.4700061 1.4900184.5756062 3.300628.8743385 5.380825.8706954 4.280615-.0145723 6.535679-.9690585 7.464664-1.4827323.163938-.0910769.320591-.2513723.123865-.7104l-.965416-2.7140922c-.149366-.4043816-.561034-.2550154-.561034-.2550154-1.060135.3934523-2.564726 1.1002092-6.087581 1.092923-2.295138-.003643-4.0000984-.6812553-5.0675199-1.7413907-1.0965662-1.0856369-1.6320985-2.6813046-1.7268185-4.9327261l14.8236794.0145723s.38981-.0072861.429883-.3861661c.014573-.1602954.510031-3.0456123-.444455-6.3863138zM63.6417638 91.4311561c-.5792492-.4626708-.6593969-.5792492-.856123-.8779815-.2914462-.4553846-.4408123-1.1038523-.4408123-1.9271877 0-1.3042215.429883-2.2404923 1.3224369-2.8707446-.0109293.0036431 1.2750769-1.1111384 4.2988307-1.0710646 2.1239138.0291447 4.0219568.3424493 4.0219568.3424493v6.7396922h.0036431s-1.8834707.4043815-4.0037415.5318892c-3.0164676.1821538-4.3571199-.8706954-4.3461907-.8670523m5.8981415-10.4155568c-.6011077-.0437169-1.3807261-.0692184-2.3133538-.0692184-1.2714339 0-2.4991508.1602954-3.650363.4699569-1.1584985.3096615-2.2004185.7941908-3.0966154 1.4353723-.89984.6448246-1.6248123 1.46816-2.1494153 2.4445046-.5246031.9763446-.7905477 2.1275569-.7905477 3.4172061 0 1.3115076.2258708 2.4517907.6776123 3.3844184.4517415.9362707 1.1038523 1.7158892 1.9344738 2.3169969.8233354.6011076 1.8397538 1.0419199 3.0201107 1.3078645 1.1621415.2659447 2.4809354.4007385 3.9235938.4007385 1.5191631 0 3.034683-.1238646 4.502843-.3752369 1.4535877-.2477292 3.2386953-.6083939 3.7341538-.7213292.4918154-.1165785 1.0382769-.2659446 1.0382769-.2659446.3679508-.091077.3388062-.4845293.3388062-.4845293l-.0072862-13.555889c0-2.9727507-.7941908-5.1768122-2.3570707-6.542966-1.5555939-1.3625108-3.8470892-2.0510523-6.8089107-2.0510523-1.1111384 0-2.8998892.1530092-3.9709538.3679508 0 0-3.2386953.6266092-4.5720614 1.6685292 0 0-.2914462.1821538-.1311508.5901784l1.0492061 2.8197415c.1311508.3643077.4845293.2404431.4845293.2404431s.1129353-.0437169.2440861-.1202216c2.8525292-1.5519507 6.4591753-1.5045907 6.4591753-1.5045907 1.6029538 0 2.8343138.3205908 3.6649353.9581292.8087631.6193231 1.2204308 1.5555938 1.2204308 3.5301415v.6266092c-1.2750769-.1821538-2.4445046-.2878031-2.4445046-.2878031M189.099133 73.3775215c.112936-.3351631-.123864-.4954584-.222227-.5318892-.251373-.0983631-1.511877-.3643077-2.484579-.42624-1.861612-.1129354-2.896246.2003692-3.821587.61568-.918056.4153107-1.938117 1.0856369-2.506437 1.84704v-1.8033231c0-.2513723-.178511-.4517415-.42624-.4517415h-3.799729c-.24773 0-.42624.2003692-.42624.4517415v22.1098335c0 .2477292.204012.4517415.451741.4517415h3.894449c.24773 0 .448099-.2040123.448099-.4517415V84.1428136c0-1.4827322.163938-2.9618214.491815-3.890806.320591-.9180554.75776-1.6539569 1.296936-2.1822031.542818-.5246031 1.158498-.8925538 1.832467-1.1002092.688542-.2112985 1.449945-.2805169 1.98912-.2805169.775976 0 1.628456.2003692 1.628456.2003692.28416.0327877.444455-.14208.539175-.4007384.255015-.6776123.976345-2.7068062 1.114781-3.1111877" fill="#FFF"/><path d="M152.543767 63.130288c-.4736-.145723-.903483-.244086-1.464517-.349735-.56832-.102007-1.245932-.15301-2.014621-.15301-2.681305 0-4.79429.75776-6.277022 2.251422-1.475446 1.486375-2.477292 3.748726-2.980037 6.7251197l-.182154 1.0018461h-3.366203s-.408024-.0145723-.495458.4298831L135.21365 76.1215c-.040073.2914461.087434.4772431.480887.4772431h3.275126l-3.322486 18.5505474c-.258659 1.4936615-.557391 2.7213784-.888911 3.654006-.324234.9180554-.641182 1.6065969-1.034634 2.1093416-.37888.4808861-.735902.8379076-1.355225 1.045563-.51003.1712246-1.100209.2513723-1.745033.2513723-.357022 0-.834265-.0582892-1.187644-.1311507-.349735-.0692185-.535532-.1457231-.801476-.2586585 0 0-.382523-.1457231-.535533.2368-.120221.3169477-.99456 2.7177353-1.100209 3.0128246-.102006.2950892.043717.524603.229514.5938215.437169.1530092.761403.2550154 1.355225.3970954.823335.193083 1.519163.2040123 2.171273.2040123 1.362511 0 2.608443-.1930831 3.639434-.5646769 1.034634-.375237 1.938117-1.0273477 2.739594-1.9089723.863409-.9544862 1.406228-1.9526892 1.923544-3.318843.513674-1.3479385.954487-3.0237538 1.304222-4.976443l3.340701-18.8966397h4.881723s.411668.0145723.495459-.4335262l.553748-3.082043c.03643-.2950892-.087434-.4772431-.48453-.4772431h-4.739643c.025502-.1056492.240443-1.7741784.783262-3.3443445.233157-.6666833.670326-1.2095013 1.038277-1.5810953.364308-.364308.783261-.622966 1.242289-.772332.469957-.15301 1.005489-.225871 1.592025-.225871.444455 0 .885267.051003 1.216787.120221.459028.098363.637539.149367.75776.185797.48453.145723.550105.003643.644825-.229514l1.132997-3.111187c.116578-.335163-.171225-.477243-.273231-.517317M86.3217408 95.189717c0 .2477292-.1785108.4480985-.42624.4480985h-3.9308799c-.2477293 0-.4225969-.2003693-.4225969-.4480985V63.5532375c0-.2477292.1748676-.4480984.4225969-.4480984h3.9308799c.2477292 0 .42624.2003692.42624.4480984V95.189717z" fill="#FFF"/></svg>