<svg xmlns="http://www.w3.org/2000/svg" xmlns:xlink="http://www.w3.org/1999/xlink" width="70" height="44" version="1.1" viewBox="0 0 70 44"><title>workco</title><desc>Created with Sketch.</desc><g id="Storybook" fill="none" fill-rule="evenodd" stroke="none" stroke-width="1"><g id="Artboard" fill-rule="nonzero" transform="translate(-23.000000, -483.000000)"><g id="workco" transform="translate(23.000000, 483.000000)"><polygon id="Rectangle-path" fill="#E91D1D" points="0 0 70 0 70 44 0 44"/><g id="Group" fill="#FFF" transform="translate(3.181818, 5.600000)"><g id="Shape"><path d="M8.83023581,0.488311688 C9.1937138,1.70909091 9.43603245,2.80779221 9.79951044,4.02857143 C10.4053071,6.1038961 10.5264664,6.47012987 10.8899444,8.54545455 C11.2534224,6.34805195 11.2534224,5.98181818 11.7380597,3.78441558 C11.9803784,2.68571429 12.222697,1.58701299 12.4650157,0.488311688 L15.1305209,0.488311688 L12.3438563,11.4753247 L9.55719178,11.4753247 C9.1937138,10.2545455 8.95139514,9.03376623 8.58791715,7.81298701 C7.98212051,5.73766234 7.98212051,5.73766234 7.61864253,4.15064935 C7.37632387,5.49350649 7.25516454,5.61558442 6.6493679,7.69090909 L5.55893394,11.3532468 L2.89342872,11.3532468 L0.106764161,0.366233766 L2.77226939,0.366233766 C3.98386267,5.61558442 4.105022,6.1038961 4.34734066,8.54545455 C4.71081864,6.34805195 4.83197797,5.98181818 5.43777461,3.78441558 L6.28588991,0.366233766 L8.83023581,0.366233766 L8.83023581,0.488311688 Z"/><path d="M20.4615313,11.7194805 C17.0690701,11.7194805 15.0093616,9.03376623 15.0093616,5.85974026 C15.0093616,2.92987013 16.8267515,0.122077922 20.340372,0.122077922 C20.9461687,0.122077922 21.6731246,0.244155844 22.2789213,0.488311688 C25.5502231,1.70909091 25.7925418,5.24935065 25.7925418,5.98181818 C25.7925418,7.93506494 24.9444265,9.52207792 23.7328332,10.4987013 C22.8847179,11.4753247 21.6731246,11.7194805 20.4615313,11.7194805 Z M22.4000806,3.17402597 C21.9154433,2.68571429 21.1884873,2.31948052 20.4615313,2.31948052 C18.7653007,2.31948052 17.7960261,3.78441558 17.7960261,5.73766234 C17.7960261,8.3012987 19.2499381,9.27792208 20.4615313,9.27792208 C21.794284,9.27792208 23.1270366,8.3012987 23.2481959,6.1038961 C23.2481959,5.00519481 23.0058772,3.90649351 22.4000806,3.17402597 Z"/><path d="M26.8829758,0.488311688 L31.7293489,0.488311688 C32.8197828,0.488311688 34.2736948,0.488311688 35.2429694,1.58701299 C35.7276067,2.1974026 36.0910847,3.05194805 36.0910847,4.02857143 C36.0910847,6.22597403 34.6371728,6.71428571 33.9102168,7.08051948 L36.4545627,11.4753247 L33.4255795,11.4753247 L31.2447116,7.56883117 L29.548481,7.56883117 L29.548481,11.4753247 L26.8829758,11.4753247 L26.8829758,0.488311688 Z M29.548481,2.56363636 L29.548481,5.49350649 L31.8505082,5.49350649 C32.2139862,5.49350649 33.4255795,5.49350649 33.4255795,4.02857143 C33.4255795,2.68571429 32.4563049,2.56363636 31.8505082,2.56363636 L29.548481,2.56363636 Z"/><polygon points="37.545 .488 40.211 .488 40.211 5.005 44.33 .488 47.48 .488 43.603 4.517 47.722 11.353 44.693 11.353 41.786 6.348 40.211 8.179 40.211 11.353 37.666 11.353 37.666 .488"/></g><g id="Shape"><path d="M6.87732513,7.56883117 C6.87732513,7.56883117 6.99810583,7.56883117 7.23966724,6.71428571 L9.17215853,6.71428571 C9.17215853,7.56883117 8.80981642,8.17922078 8.08513218,9.27792208 C8.32669359,9.52207792 8.568255,9.76623377 9.29293924,9.76623377 C9.41371994,9.76623377 9.65528135,9.76623377 9.77606206,9.76623377 L9.77606206,11.4753247 L7.96435148,11.4753247 C7.72279007,11.4753247 7.36044795,11.2311688 6.75654442,10.7428571 C6.2734216,10.987013 5.30717595,11.5974026 3.85780749,11.5974026 C1.32141267,11.5974026 0.113605614,9.88831169 0.113605614,8.17922078 C0.113605614,7.81298701 0.23438632,7.32467532 0.355167025,6.95844156 C0.959070553,5.61558442 2.0460969,5.12727273 2.77078114,4.76103896 C2.40843902,4.02857143 2.0460969,3.54025974 2.0460969,2.92987013 C2.0460969,1.58701299 3.01234255,0.488311688 4.82405313,0.488311688 C6.51498301,0.488311688 7.48122865,1.58701299 7.48122865,2.80779221 C7.48122865,4.15064935 6.3942023,5.00519481 5.42795666,5.37142857 L6.87732513,7.56883117 Z M3.73702678,6.34805195 C3.25390396,6.71428571 2.52921973,7.2025974 2.52921973,8.05714286 C2.52921973,8.66753247 3.01234255,9.64415584 4.0993689,9.64415584 C4.70327243,9.64415584 5.18639525,9.4 5.54873737,9.15584416 L3.73702678,6.34805195 Z M5.54873737,2.80779221 C5.54873737,2.44155844 5.30717595,2.1974026 4.82405313,2.1974026 C4.46171101,2.1974026 4.0993689,2.44155844 4.0993689,2.80779221 C4.0993689,3.17402597 4.2201496,3.41818182 4.58249172,4.02857143 C5.06561454,3.66233766 5.54873737,3.2961039 5.54873737,2.80779221 Z" transform="translate(0.795455, 13.600000)"/><path d="M24.8736503,11.7194805 C21.4917905,11.7194805 19.4385185,9.03376623 19.4385185,5.85974026 C19.4385185,2.92987013 21.2502291,0.122077922 24.7528696,0.122077922 C25.3567731,0.122077922 26.0814573,0.244155844 26.6853608,0.488311688 C29.9464399,1.70909091 30.1880013,5.24935065 30.1880013,5.98181818 C30.1880013,7.93506494 29.3425364,9.52207792 28.1347293,10.4987013 C27.2892644,11.4753247 26.0814573,11.7194805 24.8736503,11.7194805 Z M26.8061415,3.2961039 C26.3230187,2.80779221 25.5983345,2.44155844 24.8736503,2.44155844 C23.1827204,2.44155844 22.2164747,3.90649351 22.2164747,5.85974026 C22.2164747,8.42337662 23.6658432,9.4 24.8736503,9.4 C26.202238,9.4 27.5308258,8.42337662 27.6516065,6.22597403 C27.6516065,5.12727273 27.4100451,3.90649351 26.8061415,3.2961039 Z" transform="translate(0.795455, 13.600000)"/><path d="M15.8150973,9.4 C14.6072903,9.4 13.1579218,8.42337662 13.1579218,5.85974026 C13.1579218,3.90649351 14.2449482,2.44155844 15.8150973,2.44155844 C16.5397816,2.44155844 17.2644658,2.80779221 17.7475886,3.2961039 C17.8683693,3.41818182 17.98915,3.66233766 18.1099307,3.78441558 L19.5592992,1.58701299 C19.0761764,1.22077922 18.5930536,0.854545455 17.8683693,0.488311688 C17.2644658,0.244155844 16.5397816,0.122077922 15.935878,0.122077922 C12.4332376,0.122077922 10.621527,2.92987013 10.621527,5.85974026 C10.621527,9.03376623 12.5540183,11.7194805 15.935878,11.7194805 C17.0229044,11.7194805 18.2307115,11.4753247 19.3177378,10.6207792 C19.4385185,10.4987013 19.4385185,10.4987013 19.5592992,10.3766234 L18.1099307,8.17922078 C17.5060272,9.03376623 16.6605623,9.4 15.8150973,9.4 Z" transform="translate(0.795455, 13.600000)"/></g></g></g></g></g></svg>