<?xml version="1.0" encoding="UTF-8"?>
<svg width="1052px" height="342px" viewBox="0 0 1052 342" version="1.1" xmlns="http://www.w3.org/2000/svg" xmlns:xlink="http://www.w3.org/1999/xlink">
    <!-- Generator: Sketch 52.2 (67145) - http://www.bohemiancoding.com/sketch -->
    <title>wm_web</title>
    <desc>Created with Sketch.</desc>
    <g id="Page-1" stroke="none" stroke-width="1" fill="none" fill-rule="evenodd">
        <g id="wm_web">
            <g id="Group" transform="translate(464.000000, 91.000000)" fill="#8C929D" fill-rule="nonzero">
                <path d="M300.367,3.13 L279.564,3.13 L279.63,157.87 L363.785,157.87 L363.785,138.734 L300.433,138.734 L300.367,3.131 L300.367,3.13 Z M443.917,130.7 C438.717,136.134 429.971,141.57 418.151,141.57 C402.313,141.57 395.931,133.773 395.931,123.613 C395.931,108.259 406.568,100.935 429.263,100.935 C433.518,100.935 440.373,101.407 443.918,102.115 L443.918,130.701 L443.917,130.7 Z M422.407,36.913 C405.607,36.913 390.199,42.865 378.177,52.771 L385.529,65.501 C394.039,60.539 404.439,55.577 419.331,55.577 C436.351,55.577 443.916,64.319 443.916,78.967 L443.916,86.527 C440.606,85.817 433.752,85.343 429.496,85.343 C393.092,85.343 374.654,98.1 374.654,124.797 C374.654,148.657 389.31,160.705 411.53,160.705 C426.5,160.705 440.844,153.853 445.808,142.751 L449.59,157.869 L464.247,157.869 L464.247,78.729 C464.247,53.689 453.373,36.914 422.407,36.914 L422.407,36.913 Z M531.368,142.277 C523.566,142.277 516.711,141.332 511.51,138.969 L511.51,67.389 C518.603,61.481 527.35,57.229 538.46,57.229 C558.552,57.229 566.353,71.403 566.353,94.319 C566.353,126.919 553.823,142.276 531.368,142.276 L531.368,142.277 Z M540.11,36.912 C521.518,36.912 511.51,49.552 511.51,49.552 L511.51,29.59 L511.444,3.132 L491.116,3.132 L491.182,154.089 C501.346,158.339 515.292,160.702 530.422,160.702 C569.19,160.702 587.864,135.898 587.864,93.138 C587.864,59.355 570.604,36.911 540.11,36.911 L540.11,36.912 Z M74.238,19.904 C92.676,19.904 104.496,26.046 112.298,32.189 L121.236,16.712 C109.052,6.034 92.663,0.295 75.183,0.295 C30.979,0.295 0.013,27.227 0.013,81.562 C0.013,138.497 33.42,160.702 71.637,160.702 C90.785,160.702 107.097,156.214 117.733,151.726 L117.298,90.894 L117.298,71.76 L60.564,71.76 L60.564,90.895 L96.731,90.895 L97.168,137.079 C92.441,139.441 84.168,141.331 73.058,141.331 C42.328,141.331 21.761,122.011 21.761,81.325 C21.761,39.985 43.036,19.903 74.239,19.903 L74.238,19.904 Z M220.534,3.13 L200.204,3.13 L200.27,29.118 L200.27,118.889 C200.27,143.929 211.144,160.703 242.11,160.703 C246.39,160.703 250.575,160.313 254.64,159.577 L254.64,141.332 C251.697,141.782 248.557,142.039 245.185,142.039 C228.165,142.039 220.6,133.299 220.6,118.652 L220.6,56.757 L254.64,56.757 L254.64,39.747 L220.6,39.747 L220.534,3.13 Z M148.62,157.87 L168.95,157.87 L168.95,39.747 L148.62,39.747 L148.62,157.867 L148.62,157.87 Z M148.62,23.448 L168.95,23.448 L168.95,3.13 L148.62,3.13 L148.62,23.448 Z" id="Shape"></path>
            </g>
            <polygon id="Path" fill="#E24329" points="185.398 341.13 253.411 131.808 117.39 131.808 185.4 341.13"></polygon>
            <polygon id="Path" fill="#FC6D26" points="185.398 341.13 117.385 131.808 22.065 131.808 185.4 341.128"></polygon>
            <path d="M22.066,131.808 L1.396,195.418 C-0.488,201.221 1.576,207.578 6.513,211.162 L185.398,341.13 L22.066,131.807 L22.066,131.808 Z" id="Path" fill="#FCA326"></path>
            <path d="M22.066,131.808 L117.386,131.808 L76.42,5.735 C74.313,-0.752 65.136,-0.752 63.03,5.735 L22.065,131.808 L22.066,131.808 Z" id="Path" fill="#E24329"></path>
            <polygon id="Path" fill="#FC6D26" points="185.398 341.13 253.411 131.808 348.731 131.808 185.4 341.128"></polygon>
            <path d="M348.73,131.808 L369.4,195.418 C371.284,201.221 369.22,207.578 364.283,211.162 L185.398,341.13 L348.73,131.807 L348.73,131.808 Z" id="Path" fill="#FCA326"></path>
            <path d="M348.73,131.808 L253.41,131.808 L294.376,5.735 C296.484,-0.752 305.661,-0.752 307.768,5.735 L348.731,131.808 L348.73,131.808 Z" id="Path" fill="#E24329"></path>
        </g>
    </g>
</svg>