<?xml version="1.0" encoding="UTF-8"?>
<svg width="93px" height="46px" viewBox="0 0 93 46" version="1.1" xmlns="http://www.w3.org/2000/svg" xmlns:xlink="http://www.w3.org/1999/xlink">
    <!-- Generator: Sketch 52.4 (67378) - http://www.bohemiancoding.com/sketch -->
    <title>lonelyplanet</title>
    <desc>Created with Sketch.</desc>
    <g id="Storybook" stroke="none" stroke-width="1" fill="none" fill-rule="evenodd">
        <g id="Artboard" transform="translate(-180.000000, -116.000000)" fill="#2A3E92">
            <g id="lonelyplanet" transform="translate(180.000000, 116.000000)">
                <path d="M67.7868024,15.0936904 C64.6959637,6.33305696 56.2376291,0 46.3339793,0 C36.3769406,0 27.9300465,6.26631291 24.8868765,15.1280159 L26.0423658,15.5265733 L27.2073889,15.9213166 C29.9931479,8.09319294 37.4904815,2.58204129 46.3282591,2.58204129 C55.1374354,2.58204129 62.6709972,8.17900672 65.4796372,15.9537352 L67.7868024,15.0936904 Z M24.8868765,30.6297985 C27.9758084,39.5525247 36.4341431,46 46.3377928,46 C56.3005517,46 64.7436324,39.6154548 67.7868024,30.5916591 L66.6313131,30.1854738 L65.46629,29.7850095 C62.6786242,37.7599702 55.1812906,43.3721914 46.3454198,43.3721914 C37.53243,43.3721914 29.9988682,37.6703424 27.1940417,29.752591 L24.8868765,30.6297985 Z M51.9703268,24.9451123 L51.8940568,27.8570599 L51.9703268,24.9451123 Z M52.0446899,24.9451123 C53.2154333,24.9451123 54.1707141,23.9897189 54.1707141,22.8188376 C54.1707141,21.6441423 53.2154333,20.6887489 52.0446899,20.6887489 C50.8701331,20.6887489 49.9129455,21.6441423 49.9129455,22.8188376 C49.9129455,23.9897189 50.8701331,24.9451123 52.0446899,24.9451123 Z M64.4042313,24.9527402 L64.3718165,27.8570599 L64.4042313,24.9527402 Z M64.4671539,24.9451123 C65.639804,24.9451123 66.5950848,23.9897189 66.5950848,22.8188376 C66.5950848,21.6441423 65.639804,20.6887489 64.4671539,20.6887489 C63.2906903,20.6887489 62.3373163,21.6441423 62.3373163,22.8188376 C62.3373163,23.9897189 63.2906903,24.9451123 64.4671539,24.9451123 Z M92.7270678,21.4877705 L92.8757942,21.6212586 L92.9997328,18.7932178 C93.0302408,18.1143355 90.4408768,17.1055468 89.001282,18.1543819 C87.5597804,19.20131 87.5273657,20.4141448 87.5273657,22.0083741 L80.7526896,22.0083741 C81.4810674,20.0842385 83.7920461,20.2901915 84.436527,21.2589338 L87.2470737,20.8031672 C86.207896,17.5517785 83.429764,17.1303375 80.7641301,17.9961031 C79.4160592,18.6559158 78.6037845,19.4549374 77.9955318,20.8374927 L77.9955318,17.6051737 L74.6930441,17.6051737 C74.6930441,19.5903325 74.6968576,21.8443744 74.6701631,23.8638587 C74.5633852,25.17967 72.4545218,25.0709726 72.4545218,23.7856728 L72.4545218,17.6051737 L69.1844488,17.5574994 L68.2329815,17.5574994 L66.9363928,17.5574994 L66.934486,19.5140536 C66.9325793,20.2920985 66.0459414,17.4888484 64.9857894,17.5574994 C62.6938782,17.3896858 60.8443325,18.5739159 59.8776112,20.6296327 L59.8776112,17.6051737 L56.5141075,17.6051737 L56.5141075,20.6296327 C55.5378525,18.6673576 52.9770898,17.4011276 50.4678092,18.0361496 L50.0959934,18.1925213 C50.0959934,18.1925213 50.2008645,14.7084819 50.2008645,13.8083907 L46.8449878,13.8083907 L46.8449878,22.717768 C46.9288847,26.9207363 51.4650385,29.4150568 54.9124391,26.9112014 C55.6408169,26.3162259 56.0946229,25.7174364 56.5141075,24.8783683 L56.5141075,31.8998425 L59.8776112,31.8998425 L59.8776112,24.8783683 C60.9682711,27.1190614 63.0771346,28.2003151 65.5559071,27.7884089 C67.3940123,27.2811541 68.4656047,26.377249 69.205423,24.6609734 C70.1397296,27.3993865 72.732907,28.5187795 75.4252354,27.572921 C76.78284,26.9340851 77.5131246,26.0683194 77.9955318,24.6609734 C79.2234776,27.3459912 81.8833913,28.5073377 84.6691503,27.5214327 C86.0591696,26.8806898 86.9439008,26.0683194 87.5273657,24.6609734 L87.5273657,29.8841721 L90.7783712,29.8841721 L90.7783712,27.8322693 L92.8357525,27.8322693 L92.8357525,24.8230661 L90.7783712,24.8230661 C90.7783712,23.8047426 90.6143909,22.7768842 90.9309111,21.8195838 C91.241711,21.1521433 92.1283489,21.0014924 92.7270678,21.4877705 Z M82.5660071,27.8437111 L82.6861322,24.9794379 L82.5660071,27.8437111 Z M80.7298087,23.4729293 L84.8045294,23.4729293 C84.1619553,25.5572506 81.2846724,25.4714369 80.7298087,23.4729293 Z M7.78906607,24.9908797 L7.82338754,27.8570599 L7.78906607,24.9908797 Z M7.91681819,25.0042285 C9.09137504,25.0042285 10.0466558,24.0469281 10.0466558,22.8741398 C10.0466558,21.6994445 9.09137504,20.7440511 7.91681819,20.7440511 C6.7441681,20.7440511 5.79270079,21.6994445 5.79270079,22.8741398 C5.79270079,24.0469281 6.7441681,25.0042285 7.91681819,25.0042285 Z M42.6444217,16.9568029 L42.6444217,27.8875715 L39.3400272,27.8875715 L39.3400272,21.6365144 C39.3400272,20.5056795 37.6849698,20.4961446 37.6849698,21.6365144 L37.6849698,27.8875715 L34.3862956,27.8875715 L34.3862956,31.8998425 L31.0246987,31.8998425 L31.0246987,24.6609734 C29.9435725,26.9760385 27.9014452,28.1678965 25.3387758,27.8074787 C23.4987638,27.3993865 22.1907346,26.377249 21.4833311,24.6609734 C20.8464772,26.6976204 19.3420529,27.7750601 17.2465367,27.8875715 C15.0232684,27.8875715 13.3682111,26.800597 12.7008492,24.6609734 C11.5796813,27.1285963 9.33734554,28.3204544 6.66599143,27.715944 C5.06241626,27.2144101 4.09188147,26.3658071 3.36350368,24.8783683 L3.36350368,31.8998425 L0,31.8998425 L0,17.6051737 L3.36350368,17.6051737 L3.36350368,20.8127021 C4.31878449,18.8981013 5.91473267,17.8416383 8.05219731,17.7996849 C10.3250411,17.933173 11.7837034,19.0144267 12.7008492,21.02819 L12.7008492,17.6051737 L15.9385075,17.6051737 L15.9385075,23.774231 C16.0643529,25.1186469 18.1102936,25.1606003 18.2342323,23.774231 L18.2342323,17.6051737 L21.4833311,17.6051737 L21.4833311,20.8374927 C22.2307763,19.1803333 23.4053332,18.1810795 25.1652617,17.7310339 C29.0207064,17.3629881 30.5499184,20.0174944 30.5708926,20.6830279 L27.7870404,21.1044689 C26.3798602,20.0384711 24.7705648,20.5914932 24.2614631,22.0083741 L31.0246987,22.0083741 L31.0246987,17.6051737 L34.3862956,17.6051737 L34.3862956,19.8668435 C34.943066,17.6261504 37.7097576,16.8633612 39.280918,18.5434044 C39.280918,18.0494984 39.2294358,17.4697786 39.076896,16.9968493 C38.5716077,15.7859216 36.8879491,15.7859216 36.0165652,16.596385 L34.0335472,14.0353205 C35.2996279,13.0379736 36.5771492,12.5555095 38.2131391,12.7099743 C39.5593032,12.8453694 40.4154332,13.081834 41.4431704,14.0067159 C42.2230304,14.8782025 42.5948463,15.7859216 42.6444217,16.9568029 Z M28.3228366,23.3051157 C27.6573815,25.4447392 24.8315808,25.4065998 24.1890067,23.3051157 L28.3228366,23.3051157 Z" id="path3191" transform="translate(46.500000, 23.000000) scale(-1, 1) rotate(-180.000000) translate(-46.500000, -23.000000) "></path>
            </g>
        </g>
    </g>
</svg>