<svg xmlns="http://www.w3.org/2000/svg" xmlns:xlink="http://www.w3.org/1999/xlink" width="110" height="32" version="1.1" viewBox="0 0 110 32"><title>logo-cloudbees</title><desc>Created with Sketch.</desc><g id="Page-1" fill="none" fill-rule="evenodd" stroke="none" stroke-width="1"><g id="logo-cloudbees" fill-rule="nonzero"><g id="Group" fill="#335061"><path id="Shape" d="M60.016,0.925 L56.63,0.925 L56.63,7.512 C54.23,6.192 51.26,6.496 49.18,8.274 C47.1,10.052 46.355,12.93 47.31,15.487 C48.265,18.044 50.718,19.739 53.46,19.737 L55.922,19.737 L55.922,16.37 L53.46,16.37 C52.1807528,16.3715484 51.0259422,15.604041 50.532,14.424 C50.0416912,13.2457797 50.3132456,11.8880076 51.219,10.989 C52.1277557,10.0865777 53.4891749,9.81736828 54.673,10.306 C55.8551663,10.7902314 56.6278082,11.9405041 56.629,13.218 L60.015,13.218 L60.015,13.172 L60.016,0.925 Z M2.994,8.753 C1.68524602,9.99609931 0.953317487,11.7280886 0.974,13.533 C0.947589337,15.2702672 1.63981907,16.9413163 2.887,18.151 C4.007,19.238 5.563,19.971 7.612,19.971 C8.69702734,20.0057294 9.77166633,19.7502739 10.725,19.231 L10.725,15.7 C10.0285785,16.3081416 9.13656343,16.6453538 8.212,16.65 C7.319,16.664 6.459,16.31 5.837,15.672 C5.29533661,15.0798892 5.00178992,14.3023485 5.017,13.5 C5.00026379,12.6497801 5.3247591,11.8282776 5.918,11.219 C6.51993409,10.6438253 7.32565452,10.3312489 8.158,10.35 C9.09741822,10.3451418 10.0079684,10.6744143 10.727,11.279 L10.727,7.719 C9.76337531,7.25994024 8.70730468,7.0279947 7.64,7.041 C5.973,7.041 4.36,7.475 2.995,8.753 L2.994,8.753 Z M12.754,0.923 L16.467,0.923 L16.467,19.74 L12.754,19.74 L12.754,0.923 Z"/><path id="Shape" d="M19.816,8.997 C20.823,7.91 22.532,7.041 24.72,7.041 C26.908,7.041 28.625,7.911 29.624,8.999 C30.757,10.221 31.31,11.959 31.31,13.499 C31.317,15.156 30.718,16.759 29.624,17.999 C28.617,19.086 26.908,19.955 24.72,19.955 C22.532,19.955 20.822,19.085 19.816,17.999 C17.5707172,15.4118896 17.5707172,11.5671104 19.816,8.98 L19.816,8.997 Z M24.744,16.657 C25.51,16.671 26.244,16.355 26.757,15.787 C27.863,14.465 27.863,12.545 26.757,11.223 C26.2264743,10.6644064 25.4898793,10.3481211 24.7195,10.3481211 C23.9491207,10.3481211 23.2125257,10.6644064 22.682,11.223 C21.576,12.545 21.576,14.465 22.682,15.787 C23.2103452,16.3627298 23.9629287,16.6802602 24.744,16.657 L24.744,16.657 Z"/><path id="Path" d="M41.443,13.956 C41.443,14.553 41.361,15.368 40.787,15.912 C40.3247009,16.3068576 39.7292972,16.5106895 39.122,16.482 C38.5238796,16.5088021 37.9383953,16.3043302 37.487,15.911 C36.859,15.341 36.805,14.499 36.805,13.955 L36.805,7.272 L32.867,7.272 L32.867,14.584 C32.867,15.914 33.087,17.139 34.205,18.224 C35.605,19.584 37.619,19.974 39.121,19.974 C40.569,19.974 42.624,19.581 44.009,18.224 C45.237,17.028 45.375,15.724 45.375,14.34 L45.375,7.272 L41.442,7.272 L41.443,13.956 Z"/></g><g id="Group" fill="#1997B5" transform="translate(56.000000, 13.000000)"><path id="Path" d="M7.2,18.063 C3.58,18.059 0.648,15.143 0.644,11.543 L0.644,0.918 L4.03,0.918 L4.03,11.54 C4.03021433,12.8179801 4.80255261,13.969179 5.985,14.454 C7.16862855,14.9428859 8.53002001,14.6740761 9.439,13.772 C10.345101,12.8732194 10.6170564,11.5154186 10.127,10.337 C9.63305782,9.15695897 8.47824717,8.38945162 7.199,8.391 L4.733,8.391 L4.733,5.023 L7.2,5.023 C10.82,5.023 13.756,7.943 13.756,11.543 C13.756,15.143 10.821,18.063 7.2,18.063 L7.2,18.063 Z"/><path id="Shape" d="M18.963,12.115 L28.036,12.115 L28.064,11.72 C28.064,10.22 27.791,8.32 26.347,6.814 C24.847,5.23 22.897,4.998 21.524,4.998 C20.151,4.998 18.324,5.27 16.854,6.733 C15.628,7.978 15.002,9.767 15.002,11.503 C15.002,13.51 15.766,15.108 16.828,16.165 C18.246,17.565 19.853,18.065 21.678,18.065 C23.0322665,18.0672676 24.3611873,17.6978539 25.52,16.997 C26.6425073,16.303592 27.472922,15.2238752 27.855,13.961 L24.149,13.581 C23.9672886,13.9881625 23.6744067,14.3358081 23.304,14.584 C22.8113071,14.8311513 22.2637058,14.948519 21.713,14.925 C21.115,14.925 20.298,14.825 19.697,14.165 C19.224,13.581 18.964,12.865 18.961,12.105 L18.963,12.115 Z M23.623,8.382 C24.007,8.774 24.28,9.262 24.423,9.782 L19.1,9.782 C19.2032252,9.29381682 19.4392289,8.84361031 19.782,8.481 C20.8494276,7.47491847 22.5012489,7.42805525 23.624,8.372 L23.623,8.382 Z M33.25,12.115 L42.326,12.115 L42.342,11.709 C42.342,10.209 42.069,8.309 40.625,6.803 C39.125,5.219 37.175,4.987 35.802,4.987 C34.429,4.987 32.602,5.259 31.132,6.722 C29.906,7.967 29.28,9.756 29.28,11.492 C29.28,13.499 30.044,15.097 31.106,16.154 C32.524,17.554 34.131,18.054 35.956,18.054 C37.318,18.054 38.63,17.857 39.798,17.16 C40.922,16.387 41.746,15.254 42.133,13.96 L38.427,13.58 C38.2452886,13.9871625 37.9524067,14.3348081 37.582,14.583 C37.0933913,14.832638 36.5493885,14.954101 36.001,14.936 C35.403,14.936 34.585,14.836 33.985,14.176 C33.5118823,13.5933827 33.252186,12.8665153 33.249,12.116 L33.25,12.115 Z M37.912,8.382 C38.296,8.774 38.569,9.262 38.712,9.782 L33.4,9.782 C33.5032252,9.29381682 33.7392289,8.84361031 34.082,8.481 C35.1494276,7.47491847 36.8012489,7.42805525 37.924,8.372 L37.912,8.382 Z"/><path id="Path" d="M50.988,8.66 C50.3399642,8.25394408 49.5987714,8.02053548 48.835,7.982 C48.432,7.962 48.035,8.087 47.719,8.335 C47.5736268,8.47869145 47.4863881,8.67097272 47.474,8.875 C47.4884513,9.11288096 47.6358966,9.3222456 47.855,9.416 C48.2315749,9.58557232 48.6224372,9.72143714 49.023,9.822 L50.058,10.147 C50.7997058,10.3456346 51.4879757,10.7066774 52.073,11.204 C52.773,11.854 53.026,12.598 53.026,13.508 C53.058,14.69 52.609,15.835 51.781,16.683 C50.583,17.875 49.111,18.077 47.829,18.077 C46.194,18.077 44.424,17.724 42.843,16.342 L44.506,13.712 C44.91419,14.0620777 45.3626936,14.3621992 45.842,14.606 C46.3505312,14.8565861 46.9100823,14.9862924 47.477,14.985 C47.722,14.985 48.347,14.985 48.703,14.713 C48.951,14.526 49.101,14.237 49.103,13.928 C49.0971011,13.6328303 48.9291168,13.364901 48.666,13.231 C48.2860083,13.0376765 47.8836434,12.8919116 47.468,12.797 L46.488,12.5 C45.755,12.288 45.083,11.908 44.526,11.4 C43.9451294,10.8199989 43.6302077,10.0254552 43.656,9.205 C43.6359872,8.15306619 44.0599834,7.141356 44.824,6.418 C45.924,5.415 47.394,5.198 48.502,5.198 C49.9153048,5.16427032 51.3106179,5.52027754 52.535,6.227 L50.988,8.66 Z"/></g></g></g></svg>