<svg xmlns="http://www.w3.org/2000/svg" width="115" height="19"><g fill="#333" fill-rule="nonzero"><path d="M101.634095 17.8649305V2.69251825h3.128692v6.57054126l5.524838-6.57054126h3.852013l-5.373409 6.03086332 5.718543 9.14154893h-3.636016l-4.089533-6.8032586-1.996436 2.1901804v4.6130782h-3.128692zm-10.6226775-2.7562393c.3918311.1305855.8144091.195784 1.2677341.195784.4533249 0 .875903-.0651985 1.2677341-.195784.3920233-.1303971.7302394-.3280654 1.0144563-.5926282.2838326-.2641859.5088616-.5996003.6743185-1.0051125.1650726-.4055122.2482814-.8835719.2482814-1.4334253V2.67141352h3.0750768v9.86099388c0 .8462617-.156425 1.6116848-.4688906 2.2958925-.3126578.6842076-.7475346 1.266095-1.3044383 1.7456621-.5569036.4797556-1.2200764.8500305-1.9891338 1.111013-.7692496.2609825-1.6099858.391568-2.5227851.391568-.9127993 0-1.7537277-.1305855-2.522593-.391568-.7694418-.2607941-1.4337675-.6310689-1.9947067-1.111013-.5605548-.4795671-.9971612-1.0614545-1.309819-1.7456621-.3124656-.6842077-.4685062-1.4498192-.4685062-2.2958925V2.67141352h3.0962153v9.40611168c0 .5498534.0828245 1.0279131.2484735 1.4334253.1656491.4055122.3901016.7409266.6745107 1.0051125.2836404.2647512.6220487.4624196 1.014072.5926282zm-11.30795 1.7935247c-.1041553-.2330942-.1562329-.4833359-.1560407-.751479 0-.2604172.0518854-.5055712.1560407-.7348966.1041552-.2293254.2465519-.4301972.4262292-.6031806.1798695-.1726064.3901016-.310164.6316571-.4124842.2405947-.1023203.4940646-.1533862.7604099-.1533862.2657687 0 .5178935.0510659.7552213.1533862.2373278.1023202.4460226.2398778.6258921.4124842.1798695.1729834.3218818.3738552.4262292.6031806.103963.229137.1562328.474291.1562328.7348966 0 .2683315-.0522698.5185733-.1562328.751479-.1043474.2327172-.2463597.4373577-.4262292.6135444-.1798695.1761868-.3887564.3139328-.6258921.4124843-.2373278.0989284-.4894526.1482984-.7552213.1482984-.2663453 0-.5198152-.04937-.7604099-.1482984-.2415555-.0985515-.4515954-.2361091-.6316571-.4124843-.1796773-.1763752-.322074-.3810156-.4262292-.6135444zm-4.968703.9627146h-4.2515309L66.1135192 2.69251825h3.5066867l2.9889853 11.40559585h.1078064l2.9238403-11.40559585h3.4640254L74.7347645 17.8649305zM54.4333392 3.089174c.9099168-.40570063 1.9437821-.60789143 3.1019803-.60807986 1.151088 0 2.1832238.20237923 3.0969839.60807986.9133758.40588907 1.6883905.95932277 2.325044 1.66124327.6362692.70192051 1.1222627 1.52707753 1.4570199 2.47584794.3343728.94858197.5011748 1.9663196.5011748 3.05227069 0 1.0933001-.166802 2.1127336-.5011748 3.0575469-.3347572.945567-.8205586 1.7711009-1.4570199 2.4762248-.6366535.7055008-1.4116682 1.2589345-2.325044 1.6608664-.9137601.4019319-1.9458959.6031806-3.0969839.6031806-1.1581982 0-2.1920635-.2012487-3.1019803-.6031806-.9099168-.4017435-1.6832019-.9553656-2.3196633-1.6608664-.6368456-.7053123-1.1224549-1.5306578-1.4568277-2.4762248-.3343728-.9448133-.5017513-1.9642468-.5017513-3.0575469 0-1.08576266.1673785-2.10368872.5017513-3.05227069.3343728-.94877041.8199821-1.77392743 1.4568277-2.47584794.6364614-.7019205 1.4097465-1.2553542 2.3196633-1.66124327zm1.310972 11.8395617c.5178935.2506186 1.1149603.3757395 1.7910083.3757395.6762402 0 1.2715775-.1251209 1.7858198-.3757395.5142423-.2502417.9479661-.5977159 1.3004027-1.0422342.3522445-.4441413.6185897-.9693098.798267-1.576259.1800617-.6065724.2698043-1.2696753.2698043-1.9891203v-.0846073c0-.71228443-.0897426-1.37331454-.2698043-1.98365562-.1796773-.60996421-.4460225-1.13739387-.798267-1.58172369-.3524366-.44451825-.7861604-.79180402-1.3004027-1.04223418-.5142423-.25005329-1.1095796-.37555103-1.7858198-.37555103-.676048 0-1.2731148.12549774-1.7910083.37555103-.5178935.25043016-.951233.59771593-1.3000184 1.04223418-.3491698.44432982-.6134011.97175948-.7930785 1.58172369-.1798695.61015265-.2698042 1.27137119-.2698042 1.98365562v.0846073c0 .719445.0899347 1.3825479.2698042 1.9891203.1796774.6067608.4439087 1.1321177.7930785 1.576259.3487854.4445183.7821249.7919925 1.3000184 1.0422342zm-18.385892-4.713514v.106089c0 .6491587.0826324 1.2732555.2482814 1.8728558.1650726.5996003.4170052 1.128349.7550292 1.5869999.3382162.4584624.7698261.8268529 1.2948298 1.1055483.5251959.2786954 1.1508958.4181374 1.8776763.4181374.6973786 0 1.2784955-.1092924 1.7425819-.327877.4638942-.2187731.8342025-.4921923 1.1111169-.8200693.2771067-.3280654.4711967-.6828885.5826543-1.0637158.1116497-.3808272.1675707-.7330122.1675707-1.0576858v-.1482984h-3.960396V9.54910389H48.18076v8.31601501h-2.7405118v-1.7776961c-.1944743.2962198-.4354533.5660588-.7231292.8093284-.2876759.2432697-.6116716.4514904-.9712185.6240969-.359739.1729833-.7532996.308845-1.1814505.4073965-.4281509.0985516-.8830132.1482984-1.3647791.1482984-1.1291808 0-2.1328757-.2014371-3.0105082-.6031805-.8776325-.4017435-1.6169039-.9557425-2.2172376-1.6608665-.600718-.7056892-1.057502-1.5306577-1.370352-2.4762248-.3130421-.9448132-.4694671-1.9638699-.4694671-3.0575468 0-1.08613959.1742967-2.10368879.5234664-3.05245919.3487854-.94858197.8449639-1.77392743 1.4889198-2.4756595.6437637-.70192051 1.4205079-1.25554264 2.3306169-1.66143171.9099168-.4055122 1.9295616-.60807986 3.0591268-.60807986.7336984 0 1.4295398.08272298 2.0877161.24854581.6581763.1656344 1.2587022.40212037 1.8017698.7088926.5432597.30677224 1.023296.67704709 1.4406855 1.11082454.416813.43377745.7550292.91522897 1.014072 1.44435455l-2.7403196 1.5129449c-.1658412-.3242967-.3599312-.62598119-.5830386-.90467661-.2229152-.27850698-.4800363-.51838478-.7711712-.71925653-.2913271-.20106018-.6241626-.35991092-.9981221-.47617533-.3741516-.11664129-.7915411-.17467928-1.2515919-.17467928-.7267805 0-1.3524804.13944193-1.8776763.41794891-.5250037.27869542-.9566136.64708591-1.2948298 1.10573679-.338024.45846244-.5899566.9890955-.7550292 1.59227605-.165649.60336899-.2482814 1.22576991-.2482814 1.86739116zM4.8297913 5.6935419c-.68837332-.27300488-1.01934059-1.04331529-.73314557-1.71173871.28619502-.67178234 1.08611299-.99815659 1.77410034-.7245919.7016892.27804325 1.03034066 1.05581791.74318073 1.72517436-.28580905.67084931-1.0824463.99087895-1.7841355.71115625zM1.74069915 7.4440947c-.68856631-.27300488-1.01972656-1.04331529-.73353154-1.7113655.28658099-.67178234 1.08611299-.99815659 1.77390736-.72515171.70207517.27860306 1.03091961 1.05637772.74337371 1.72554757-.28580905.67103591-1.08167436.99106555-1.78374953.71096964zm-.90451521 3.3212172C.14781062 10.4930535-.18315665 9.72218324.10303837 9.05375982c.28658099-.67178234 1.08649896-.99796998 1.77448631-.7247785.70188219.27860306 1.03053365 1.05656433.74318073 1.72554758-.28600204.6706627-1.0824463.9906923-1.78452147.710783zM8.2774474 6.74600089c-.68837332-.27281827-1.01934058-1.04331529-.73314556-1.71155211.28619501-.67196894 1.08592-.99834319 1.77410034-.7249651.70168922.27860306 1.03053362 1.05656433.74318072 1.72536096-.28561606.67084931-1.08225331.99087895-1.7841355.71115625zM20.7696766 5.6935419c-.7020751.2797227-1.4985194-.04030694-1.7845214-.71115625-.28716-.66935645.0416845-1.44713111.7429877-1.72517436.6885663-.27356469 1.4882913.05280956 1.7744863.7245919.286195.66842342-.0449652 1.43873383-.7329526 1.71173871zm3.0888992 1.7505528c-.7018822.28009591-1.4981335-.03993373-1.7839425-.71096964-.2875459-.66916985.0414915-1.44694451.7427947-1.72554757.6883734-.27300488 1.4880983.05336937 1.7746793.72515171.2860021.66805021-.0451582 1.43836062-.7335315 1.7113655zm.9043222 3.3212172c-.7018822.2799093-1.4985194-.0401203-1.7841355-.710783-.2875459-.66898325.0414915-1.44694452.7431807-1.72554758.6877944-.27319148 1.4880983.05299616 1.7739074.7247785.286581.66842342-.0445793 1.43929368-.7329526 1.71155208zm-7.4410705-4.01931101c-.7022681.2797227-1.4981334-.04030694-1.7845214-.71115625-.28716-.66879663.0418775-1.4467579.7433737-1.72536096.6881803-.27337809 1.4882913.05299616 1.7741003.7249651.286195.66823682-.0447722 1.43873384-.7329526 1.71155211zm-3.8025533-3.40519002c-.0513337.06493896-.1111587.12222707-.1783171.17093129l.9902 2.88922386c.0013509.00354551.0030878.00709103.0036667.01082316l.0011579.0029857v.0001866c.0455442.1442466.0706321.29745029.0706321.45606557 0 .78169338-.596899 1.42697764-1.3734659 1.53782172-.011386.00167946-.0229651.00354552-.0343511.00503837-.0663865.00839728-.1335448.01380886-.2018611.01380886-.0690882 0-.1358606-.00541158-.2020541-.01380886-.011772-.00149285-.023351-.00335891-.0347371-.00503837-.7765669-.11084408-1.3732729-.75612834-1.3732729-1.53782172 0-.15861528.0250879-.31181897.071211-.45606557l-.0003859-.0001866.0011579-.0029857c.0009649-.00373213.0021228-.00727765.0032807-.01082316l.990586-2.88922386c-.0671584-.04870422-.1271763-.10599233-.1783171-.17093129l-.0038596-.00354551-1.7248895.87555631V1.75484474l1.7223807.52753574.0052105-.00485176c.048053-.06139344.1042113-.11606906.166931-.16328043l.0050176-.00485176L11.551997 0l1.2449387.0001866L14.0414884 0l-.6931979 2.10939653.0046316.00485176c.0634917.04721137.119264.10188699.16751.16328043l.0048246.00485176 1.7227666-.52753574v2.45797693l-1.7246965-.87555631-.0040526.00354551zM12.7969357 17.479963c-3.2735847 0-6.37136112.2142239-9.13160883.5958336-.78390031-3.1864876-1.73781938-5.0120561-2.72280884-6.3121415l1.85438161-.6389396c-.18410657.9111981-.2136331 1.3346075-.0071404 1.9203644.30626534-.289053.59574108-.8212539.8223041-1.6339239l.89891867 2.8942622c-.54730214-.3642553-.96877882-.5991925-1.45104541-.6102023.8556903 1.7819027 1.92424176 2.2407673 2.61666774 2.1168608.84507619-.1496582 1.23413159-.8791018 1.10328855-1.4975148-.19414173-.8761161-1.12470976-1.1047087-1.55892337-.085279-.83079539-1.6382159.57817955-2.1489571 1.48539653-1.6641541-1.39295728-1.3437513-1.55216894-2.538031-.42784515-3.98310947 1.56664273 1.15807811 1.58516917 2.30495987.88019925 3.91835707.91435738-1.0125253 2.33857804-.4687548 1.82427613 1.1670352-.66000469-.9877066-1.5334495-.3666812-1.396238.5717614.1157903.8175218 1.23181578 1.4775479 2.62187832 1.3609191 1.992365-.17485 2.1108571-1.504046 2.160261-2.6040896-.489793-.0877049-1.3711501.3513795-2.1235941 1.3719288l-.2767388-3.0698587c.8180584.8244262 1.5614322.9808022 2.386824 1.0063673-.275002-.8290914-1.5376952-2.1877711-1.5376952-2.1877711h3.962537s-1.2632721 1.3586797-1.5378881 2.1877711c.8255848-.0255651 1.5687655-.1819411 2.386631-1.0063673l-.2769318 3.0698587c-.751672-1.0205493-1.6338011-1.4598203-2.1232081-1.3719288.0499828 1.099857.1682819 2.4290529 2.160068 2.6040896 1.3900625.1166288 2.506281-.5433973 2.6222643-1.3609191.1370185-.9384426-.7364263-1.559468-1.396045-.5717614-.514302-1.63579.9089538-2.1795605 1.8238901-1.1670352-.7047769-1.6135838-.6866364-2.76046557.8801993-3.91835707 1.1243238 1.44507847.9649191 2.63935817-.4280382 3.98310947.907217-.484803 2.3165779.0259382 1.4855895 1.6641541-.4342136-1.0194297-1.3640097-.7908371-1.5589233.085279-.131036.618413.2578264 1.34767 1.1030955 1.4975148.692619.1239065 1.7613635-.3349581 2.6170537-2.1168608-.4824595.0110098-.9043222.2461336-1.4508524.6102023l.8983397-2.8942622c.2263701.8128566.5162318 1.3448709.8223041 1.6339239.2064927-.5857569.1771592-1.0091663-.0075263-1.9203644l1.8551535.6389396c-.9853754 1.3000854-1.9394875 3.1256539-2.7231948 6.3128879-2.7615986-.3823561-5.8611119-.59658-9.1352755-.59658z"/></g></svg>