<svg width="140px" height="140px" xmlns="http://www.w3.org/2000/svg" xmlns:xlink="http://www.w3.org/1999/xlink"><defs><path d="M67.4843053 0L101 33.6665305V114c0 5.522847-4.4771525 10-10 10H10c-5.5228475 0-10-4.477153-10-10V10C0 4.4771525 4.4771525 0 10 0h57.4843053z" id="a"/><filter x="-16.3%" y="-10.9%" width="132.7%" height="126.6%" filterUnits="objectBoundingBox" id="b"><feOffset dy="3" in="SourceAlpha" result="shadowOffsetOuter1"/><feGaussianBlur stdDeviation="5" in="shadowOffsetOuter1" result="shadowBlurOuter1"/><feComposite in="shadowBlurOuter1" in2="SourceAlpha" operator="out" result="shadowBlurOuter1"/><feColorMatrix values="0 0 0 0 0 0 0 0 0 0 0 0 0 0 0 0 0 0 0.05 0" in="shadowBlurOuter1" result="shadowMatrixOuter1"/><feOffset in="SourceAlpha" result="shadowOffsetOuter2"/><feGaussianBlur stdDeviation="1.5" in="shadowOffsetOuter2" result="shadowBlurOuter2"/><feComposite in="shadowBlurOuter2" in2="SourceAlpha" operator="out" result="shadowBlurOuter2"/><feColorMatrix values="0 0 0 0 0 0 0 0 0 0 0 0 0 0 0 0 0 0 0.1 0" in="shadowBlurOuter2" result="shadowMatrixOuter2"/><feMerge><feMergeNode in="shadowMatrixOuter1"/><feMergeNode in="shadowMatrixOuter2"/></feMerge></filter><linearGradient x1="65.0880694%" y1="100%" x2="65.0880715%" y2="2.22044605e-14%" id="f"><stop stop-color="#F8F8F8" stop-opacity="0.97" offset="0%"/><stop stop-color="#FFF" stop-opacity="0.8" offset="100%"/></linearGradient><path d="M67 0h24c5.5228475 0 10 4.4771525 10 10v24H77c-5.5228475 0-10-4.4771525-10-10V0z" id="e"/><filter x="-73.5%" y="-58.8%" width="247.1%" height="247.1%" filterUnits="objectBoundingBox" id="d"><feOffset dy="5" in="SourceAlpha" result="shadowOffsetOuter1"/><feGaussianBlur stdDeviation="7.5" in="shadowOffsetOuter1" result="shadowBlurOuter1"/><feComposite in="shadowBlurOuter1" in2="SourceAlpha" operator="out" result="shadowBlurOuter1"/><feColorMatrix values="0 0 0 0 0 0 0 0 0 0 0 0 0 0 0 0 0 0 0.1 0" in="shadowBlurOuter1" result="shadowMatrixOuter1"/><feOffset dy="2" in="SourceAlpha" result="shadowOffsetOuter2"/><feGaussianBlur stdDeviation="2.5" in="shadowOffsetOuter2" result="shadowBlurOuter2"/><feComposite in="shadowBlurOuter2" in2="SourceAlpha" operator="out" result="shadowBlurOuter2"/><feColorMatrix values="0 0 0 0 0 0 0 0 0 0 0 0 0 0 0 0 0 0 0.05 0" in="shadowBlurOuter2" result="shadowMatrixOuter2"/><feMerge><feMergeNode in="shadowMatrixOuter1"/><feMergeNode in="shadowMatrixOuter2"/></feMerge></filter></defs><g transform="translate(20 8)" fill="none" fill-rule="evenodd"><mask id="c" fill="#fff"><use xlink:href="#a"/></mask><use fill="#000" filter="url(#b)" xlink:href="#a"/><path stroke-opacity="0.05" stroke="#FFF" d="M67.2765406.5H10C4.75329488.5.5 4.75329488.5 10v104c0 5.246705 4.25329488 9.5 9.5 9.5h81c5.2467051 0 9.5-4.253295 9.5-9.5V33.8729799L67.2765406.5z" stroke-linejoin="square" fill="#FFF"/><g mask="url(#c)"><use fill="#000" filter="url(#d)" xlink:href="#e"/><use fill-opacity="0.7" fill="url(#f)" xlink:href="#e"/></g><rect fill="#79C9FC" mask="url(#c)" x="14" y="52" width="74" height="9" rx="4.5"/><rect fill="#FD8460" mask="url(#c)" x="14" y="69" width="64" height="9" rx="4.5"/><rect fill="#66BF3C" mask="url(#c)" x="14" y="86" width="30" height="9" rx="4.5"/><rect fill="#37D5D3" mask="url(#c)" x="14" y="21" width="22" height="23" rx="3"/><rect fill="#37D5D3" mask="url(#c)" x="48" y="86" width="16" height="9" rx="4.5"/></g></svg>