<svg width="140px" height="140px" xmlns="http://www.w3.org/2000/svg" xmlns:xlink="http://www.w3.org/1999/xlink"><defs><rect id="b" x="29" y="53" width="107" height="67" rx="4"/><filter x="-4.7%" y="-6%" width="109.3%" height="114.9%" filterUnits="objectBoundingBox" id="a"><feOffset dy="1" in="SourceAlpha" result="shadowOffsetOuter1"/><feGaussianBlur stdDeviation="1.5" in="shadowOffsetOuter1" result="shadowBlurOuter1"/><feComposite in="shadowBlurOuter1" in2="SourceAlpha" operator="out" result="shadowBlurOuter1"/><feColorMatrix values="0 0 0 0 0 0 0 0 0 0 0 0 0 0 0 0 0 0 0.1 0" in="shadowBlurOuter1"/></filter><rect id="d" x="4" y="20" width="106.946341" height="66.8585366" rx="4"/><filter x="-7.5%" y="-9%" width="116.8%" height="126.9%" filterUnits="objectBoundingBox" id="c"><feOffset dx="1" dy="3" in="SourceAlpha" result="shadowOffsetOuter1"/><feGaussianBlur stdDeviation="2.5" in="shadowOffsetOuter1" result="shadowBlurOuter1"/><feComposite in="shadowBlurOuter1" in2="SourceAlpha" operator="out" result="shadowBlurOuter1"/><feColorMatrix values="0 0 0 0 0 0 0 0 0 0 0 0 0 0 0 0 0 0 0.1 0" in="shadowBlurOuter1" result="shadowMatrixOuter1"/><feOffset dy="1" in="SourceAlpha" result="shadowOffsetOuter2"/><feGaussianBlur stdDeviation="1.5" in="shadowOffsetOuter2" result="shadowBlurOuter2"/><feComposite in="shadowBlurOuter2" in2="SourceAlpha" operator="out" result="shadowBlurOuter2"/><feColorMatrix values="0 0 0 0 0 0 0 0 0 0 0 0 0 0 0 0 0 0 0.05 0" in="shadowBlurOuter2" result="shadowMatrixOuter2"/><feMerge><feMergeNode in="shadowMatrixOuter1"/><feMergeNode in="shadowMatrixOuter2"/></feMerge></filter></defs><g fill="none" fill-rule="evenodd"><use fill="#000" filter="url(#a)" xlink:href="#b"/><rect stroke-opacity="0.05" stroke="#FFF" stroke-linejoin="square" fill-opacity="0.9" fill="#FFF" x="29.5" y="53.5" width="106" height="66" rx="4"/><path d="M105.863779 78.4807638l12.258963 21.0153652c.27828.4770519.117144 1.08937-.359908 1.36765-.152936.089213-.326816.136221-.503871.136221H92.741037c-.5522848 0-1-.447715-1-1 0-.1770546.0470084-.350935.1362211-.503871l12.2589629-21.0153652c.27828-.4770519.890598-.6381881 1.36765-.3599078.149004.0869187.272989.2109042.359908.3599078z" fill="#96D07C"/><path d="M51 78h24c.5522847 0 1 .4477153 1 1v24c0 .552285-.4477153 1-1 1H51c-.5522847 0-1-.447715-1-1V79c0-.5522847.4477153-1 1-1z" fill="#FFC445"/><use fill="#000" filter="url(#c)" xlink:href="#d"/><use fill-opacity="0.9" fill="#FFF" xlink:href="#d"/><path d="M54 54c0 11.045695-8.954305 20-20 20s-20-8.954305-20-20 8.954305-20 20-20v20h20z" fill="#FD8460"/><path d="M57 51H37V31c11.045695 0 20 8.954305 20 20z" fill="#FD8460"/><rect fill="#79C9FC" x="65" y="33" width="36.3397824" height="14" rx="4"/><rect fill="#79C9FC" x="65" y="51" width="36.3397824" height="9" rx="4"/><rect fill="#79C9FC" x="65" y="64" width="19.75" height="9" rx="4"/></g></svg>